<?xml version="1.0" encoding="UTF-8"?><svg id="logo" xmlns="http://www.w3.org/2000/svg" viewBox="0 0 1209.79 834.86"><defs><style>.cls-1{fill:#1d1d1b;}</style></defs><path class="cls-1" d="m218.13,104.25c-.12-1.33-1.8-32.98,92.45-62.84,56.09-17.77,74.19-9.71,97.11.49,16.24,7.23,34.64,15.42,70.6,17.11,2.34.11,10,.85,10.33.88,1.36.14,135.89,14.05,155.95-.54,20.19-14.68,32.39-34.17,32.51-34.36l1.7,1.05c-.12.2-12.51,20-33.03,34.93-20.67,15.03-151.75,1.5-157.32.91-.07,0-7.93-.76-10.22-.87-36.33-1.71-54.92-9.98-71.32-17.28-22.53-10.03-40.33-17.95-95.69-.41-92.36,29.26-91.09,60.45-91.07,60.76l-1.99.17Z"/><path class="cls-1" d="m311.86,740.91c-2.86,0-5.64-.25-8.32-.76-21.72-4.18-137.52-18.38-166.86-16.61-.65.04-1.32.06-2,.06-30.12,0-85.8-38.29-97.46-59.19-11.92-21.35-31.09-133.72-31.09-182.18,0-51.36,10.22-139.22,21.03-180.79,11.56-44.44,69.02-155.93,89.12-172.88,20.64-17.41,75.4-33.14,103.13-25.36l-.54,1.93c-26.7-7.48-81.45,8.22-101.3,24.97-19.39,16.36-77.27,128.79-88.47,171.85-10.78,41.44-20.96,129.05-20.96,180.29,0,48.26,19.02,160.03,30.84,181.2,11.42,20.47,69.26,59.8,97.59,58.11,29.46-1.79,145.59,12.45,167.36,16.64,22.02,4.24,53.39-11.25,64.55-31.87,11.23-20.73,49.74-102.69,50.12-103.52l.16-.24c.46-.52,46.56-52.68,58.18-78.25,5.45-12,25.81-15.03,62.24-9.28,31.24,4.94,67.51,15.38,92.07,22.81,52.33,15.83,133.42,59.38,134.23,59.82l-.95,1.76c-.81-.44-81.72-43.9-133.86-59.66-24.51-7.41-60.68-17.83-91.81-22.75-34.93-5.52-55.15-2.78-60.11,8.13-11.49,25.27-56.03,75.93-58.41,78.63-1.75,3.73-39.07,83.09-50.12,103.49-10.38,19.16-36.45,33.64-58.37,33.64Z"/><path class="cls-1" d="m1002.31,743.91c-25.9,0-57.89-3.02-77.51-12.45-32-15.37-62.74-52.01-85.18-78.77l-.32-.38c-16.55-19.73-109.85-44.07-184.82-63.63-26.45-6.9-51.44-13.42-69.31-18.8-67.96-20.45-104.31,18.51-111.68,33.77-6.33,13.09-32.23,25.51-46.23,24.89-6.32-.28-8.68-3.09-9.55-5.4-5.1-13.54.78-20.31,1.04-20.59l1.49,1.34-.74-.67.75.66c-.22.25-5.3,6.23-.66,18.56.95,2.53,3.57,3.91,7.76,4.1,13.26.62,38.46-11.59,44.34-23.76,7.57-15.66,44.76-55.67,114.06-34.82,17.83,5.37,42.8,11.88,69.24,18.78,75.24,19.63,168.89,44.06,185.85,64.28l.32.38c22.32,26.62,52.9,63.08,84.51,78.26,31.73,15.23,99.12,13.33,114.36,9.27,15.58-4.15,30.14-31.21,29.22-47.64-.15-2.65-.21-5.51-.27-8.53-.35-16.58-.78-37.22-15.36-57.63-1.67-2.34-3.61-5.02-5.74-7.98-20.41-28.29-58.39-80.95-59.19-101.46-.12-3.1-.33-6.88-.56-11.26-1.49-27.65-3.99-73.93,5.91-94.98,5.38-11.45,13.3-21.16,20.96-30.55,8.71-10.68,16.94-20.78,20.99-32.64,4.24-12.41-.68-25.83-6.9-42.81-4.96-13.52-10.57-28.84-13.26-47.77-6.35-44.66-7.69-68.87,1.87-85.71,9.59-16.9,21.8-28.03,21.92-28.15l1.34,1.48c-.12.11-12.1,11.04-21.52,27.65-9.27,16.33-7.91,40.24-1.63,84.44,2.66,18.72,8.24,33.94,13.16,47.36,6.36,17.36,11.39,31.07,6.92,44.15-4.17,12.2-12.51,22.43-21.34,33.26-7.58,9.3-15.42,18.92-20.7,30.14-9.68,20.59-7.2,66.55-5.72,94.02.24,4.39.44,8.18.56,11.29.78,19.9,38.53,72.25,58.81,100.37,2.14,2.96,4.07,5.65,5.75,7.99,14.94,20.91,15.39,42.78,15.73,58.75.06,3.01.12,5.84.27,8.46.46,8.27-2.91,19.62-8.8,29.61-6.33,10.73-14.31,18.05-21.9,20.07-6.36,1.7-20.94,3.04-38.23,3.04Z"/><path class="cls-1" d="m959.06,789.55c-30.92,0-59.87-3.86-80.24-13.13-63.17-28.75-85.55-97.61-95.1-127.01-5.33-16.4-8.73-36.42-12.03-55.78-4.21-24.77-8.56-50.39-16.95-67.69-10.86-22.41-73.44-46.51-180.96-69.69-26.18-5.64-52.23-22.31-77.43-49.57-19.31-20.89-33.24-43.14-38.42-53-9.85-18.73-11.14-31.04,7.31-54.45,17.66-22.42,99.09-44.66,108.32-47.12l.43-.07v2-1l.25.96-.16.04c-9.16,2.44-90,24.51-107.26,46.43-17.76,22.54-16.55,34.35-7.11,52.28,5.14,9.77,18.95,31.84,38.12,52.57,24.91,26.95,50.61,43.42,76.38,48.97,43.17,9.31,79.56,18.89,108.13,28.48,42.55,14.28,67.52,28.51,74.2,42.29,8.51,17.55,12.89,43.31,17.12,68.22,3.28,19.29,6.67,39.24,11.96,55.5,9.48,29.15,31.67,97.42,94.03,125.81,26.92,12.26,72.6,16.02,125.31,10.33,47.97-5.18,90.63-17.27,108.7-30.82,41.21-30.93,47.39-49.7,48.45-61.13,1.05-11.26-3.33-22.33-13.02-32.9-6.08-6.64-12.57-13.43-19.43-20.62-28.78-30.14-61.39-64.29-78.13-102.32-9.35-21.25-11.71-46.95-6.66-72.36,4.36-21.93,13.84-40.93,24.74-49.6l1.24,1.56c-20.92,16.64-37.48,74.18-17.5,119.59,16.59,37.7,49.08,71.72,77.75,101.74,6.87,7.2,13.36,14,19.46,20.65,10.08,11,14.64,22.59,13.54,34.44-2.26,24.38-27.51,46.23-49.25,62.54-24.63,18.46-94.12,33.83-155.8,33.83Z"/><path class="cls-1" d="m162.41,716.42c-.67-.43-66.85-43.34-97.42-65.57-29.07-21.14-33.46-43.45-40.09-77.21-.48-2.47-.98-5-1.5-7.59-7.84-39.11-2.61-152.02,6.57-188.25,8.54-33.74,31.4-70.84,61.14-99.26,21.6-20.63,117.09-6.1,168.39,1.7,12.02,1.83,21.52,3.27,26.2,3.64,14.71,1.16,38.21-7.7,63.08-17.07,14.62-5.51,29.73-11.2,43.03-14.73,35.04-9.3,176.26-.41,182.26-.03l-.13,2c-1.46-.09-146.89-9.25-181.62-.03-13.2,3.5-28.27,9.18-42.84,14.67-25.09,9.45-48.78,18.38-63.94,17.19-4.75-.37-14.28-1.82-26.34-3.66-47.33-7.2-145.82-22.19-166.71-2.23-29.48,28.17-52.13,64.92-60.58,98.3-8.91,35.2-14.17,149.33-6.54,187.37.52,2.59,1.02,5.12,1.5,7.6,6.54,33.3,10.86,55.3,39.3,75.98,30.52,22.2,96.67,65.08,97.33,65.51l-1.09,1.68Z"/><path class="cls-1" d="m977.03,747.23c-20.93,0-45.19-.96-56.45-4.91-23.94-8.4-57.44-46.05-77.46-68.55-2.5-2.8-4.77-5.36-6.77-7.57-16.86-18.64-53.58-56.58-71.84-66.79l.98-1.75c18.49,10.34,55.41,48.48,72.35,67.2,2,2.21,4.28,4.77,6.78,7.58,19.89,22.35,53.17,59.76,76.63,67.99,15.08,5.29,54.46,5.09,76.59,4.51,32.08-.85,60.39-3.22,66.58-4.54,18.83-4.04,20-6.68,20.05-7.17.02-.27-.46-.94-2.43-1.74-5.09-2.08-7.33-1.72-8.21-1.32-.61.28-.75.65-.75.67l-1.93-.51c.03-.12.32-1.2,1.68-1.89,2.07-1.06,5.43-.66,9.97,1.2.95.39,3.86,1.58,3.66,3.77-.18,2.05-2.8,4.92-21.62,8.95-7.07,1.52-37.2,3.8-66.94,4.59-5.97.16-13.19.29-20.86.29Z"/><path class="cls-1" d="m1071.24,416.04l-1.99-.17c.05-.58,4.72-58.15-12.85-68.15-18.5-10.53-27.06-16.88-37.38-37.5-10.3-20.6-25.19-87.65-18.13-116.77,2.21-9.12,5.46-16.89,8.06-23.13,5.68-13.6,8.81-21.1-3.22-26.86-19.36-9.27-133.37-39.19-162.92-38.29-30.11.95-87.92,29.92-114.54,57.4-8.96,9.25-17.04,16.9-24.18,23.64-13.96,13.21-24.99,23.64-33.07,37.23-1.94,3.27-4.1,6.7-6.18,10.01-11.16,17.76-22.71,36.12-13.09,46.42,9.2,9.86,36.72,9.3,58.84,8.85,6.12-.12,11.9-.24,16.98-.15,2.4.04,5.28.08,8.55.12,29.41.37,90.6,1.14,103.84,11.72,14.52,11.6,18.55,30.3,18.72,31.09l-1.96.41c-.04-.19-4.06-18.79-18.01-29.94-12.71-10.15-73.43-10.91-102.62-11.28-3.27-.04-6.16-.08-8.57-.12-5.04-.09-10.81.02-16.91.15-23.68.48-50.53,1.03-60.34-9.48-10.66-11.42,1.3-30.45,12.87-48.84,2.07-3.3,4.22-6.71,6.15-9.96,8.22-13.83,19.34-24.35,33.41-37.66,7.12-6.73,15.18-14.36,24.12-23.58,26.9-27.77,85.4-57.04,115.92-58.01,29.79-.94,144.38,29.16,163.85,38.49,13.75,6.58,9.95,15.67,4.2,29.44-2.71,6.5-5.79,13.87-7.96,22.84-6.83,28.19,8.05,95.55,17.98,115.41,10.11,20.22,18.06,26.11,36.58,36.65,18.67,10.63,14.06,67.64,13.85,70.06Z"/><path class="cls-1" d="m458.82,393.55l-.6-.24-.02.03c-1.81-1.35-182.95-134.72-221.43-139.31-38.81-4.63-123.1,15.87-134.23,21.44-2.75,1.37-4.33.52-5.18-.44-3.34-3.79-.31-15.87,1.15-20.88,3-10.29,7.87-21.07,13.04-28.82,11.46-17.17,66-72.57,97.49-104.06,12.07-12.08,9.31-16.47,9.28-16.51l1.58-1.22c.44.55,3.92,5.76-9.43,19.12-31.46,31.46-85.9,86.75-97.26,103.78-11.18,16.78-18.21,42.9-14.35,47.27.23.26.83.94,2.78-.03,11.23-5.62,96.23-26.3,135.36-21.64,39.62,4.72,220.56,138.34,222.38,139.69l.1.08-.67.69v1.04Z"/><path class="cls-1" d="m420.24,603.9l-1.47-1.36c.6-.65,59.57-64.9,43.51-92.62-10.14-17.5-38.1-31.72-65.14-45.46-16.84-8.56-34.25-17.42-47.51-27.09-33.65-24.55-38.81-62.88-26.59-86.47,4.9-9.47,29.43-5.41,72.9,12.06,32,12.86,63.04,28.55,63.35,28.71l-.9,1.78c-34.18-17.32-124.8-58.57-133.57-41.63-11.84,22.86-6.75,60.04,26,83.94,13.14,9.58,30.47,18.4,47.24,26.93,27.3,13.88,55.53,28.23,65.96,46.25,7.1,12.25,1.84,32-15.62,58.7-12.88,19.71-28,36.11-28.16,36.28Z"/><path class="cls-1" d="m458.33,393.42c-3.09-1.77-75.86-43.44-84.04-61.31-1.97-4.32-1.94-8.76.1-13.22,5.98-13.07,27.89-23.48,44.83-28.42,22.24-6.49,153.22-38.08,154.54-38.4l.47,1.94c-1.32.32-132.26,31.9-154.45,38.38-17.85,5.21-38.24,15.68-43.57,27.33-1.79,3.9-1.82,7.79-.1,11.55,7.91,17.3,82.46,59.98,83.21,60.41l-.99,1.74Z"/><path class="cls-1" d="m517.21,780.2l-.65-1.89c57.76-19.95,99.05-19.44,126.39-19.09,16.46.21,27.33.34,32.45-4.37,12.52-11.54,11.23-28.48,9.73-48.09-.14-1.83-.28-3.69-.42-5.57-1.58-22.28-15.05-49.08-27.17-62.12-5.91-6.36-25.03-22.75-43.52-38.59-19.72-16.9-40.11-34.38-46.38-41.26-8.36-9.18-11.22-12.5-10.56-15.23.47-1.94,2.69-2.92,5.33-3.91,5.52-2.08,38.29,10.98,80.55,28.24,11.13,4.55,20.74,8.47,27.56,11.08,27.2,10.42,146.46,72.01,163.63,93.95,3.01,3.84,6.14,7.98,9.45,12.36,14.86,19.63,33.35,44.07,54.01,58.6,17.52,12.33,39.68,10.94,70.34,9.02,12.77-.8,27.24-1.71,43.31-1.71,53.2,0,66.5-8.94,84.9-21.32l.83-.56c16.89-11.35,28.53-24.06,28.3-30.89-.06-1.87-.98-3.29-2.81-4.35-2.72-1.57-4.44-2.13-5.42-1.75-1.22.47-1.95,2.75-2.96,5.9-1.08,3.37-2.55,7.98-5.53,13.3-8.57,15.27-35.17,19.44-36.3,19.61l-.3-1.98c.27-.04,26.77-4.2,34.86-18.61,2.88-5.13,4.32-9.64,5.37-12.93,1.22-3.82,2.02-6.34,4.14-7.16,1.66-.64,3.73-.1,7.15,1.88,2.44,1.41,3.72,3.44,3.81,6.02.32,9.38-15.52,23.43-29.19,32.61l-.83.56c-18.7,12.58-32.21,21.66-86.02,21.66-16.01,0-30.45.91-43.19,1.71-31.07,1.95-53.52,3.36-71.62-9.38-20.91-14.71-39.51-39.29-54.45-59.03-3.31-4.37-6.44-8.5-9.43-12.33-16.57-21.18-136.42-83.22-162.77-93.31-6.84-2.62-16.46-6.55-27.6-11.1-29.42-12.02-73.87-30.18-79.09-28.22-2.3.86-3.88,1.62-4.09,2.5-.44,1.84,3.98,6.7,10.1,13.42,6.19,6.79,26.53,24.23,46.2,41.09,19.38,16.61,37.69,32.31,43.68,38.75,12.35,13.3,26.08,40.63,27.7,63.34.13,1.88.28,3.73.42,5.55,1.54,20.13,2.87,37.52-10.37,49.71-5.7,5.25-16.89,5.11-33.83,4.9-27.19-.34-68.28-.86-125.71,18.98Z"/><path class="cls-1" d="m573.7,253.99c-1.86-.58-186.57-57.88-227.97-49.6-16.89,3.38-27.53,7.64-37.82,11.77-15.19,6.09-29.55,11.85-61.58,13.53-17.8.94-36.62,3.54-53.23,5.84-29.21,4.04-45.88,6.07-48.78.73-1.09-2.01-.15-4.7,2.89-8.22,18.93-21.92,72.72-98.54,70.92-123.81l2-.14c1.93,27.07-54.12,105.24-71.4,125.26-2.36,2.73-3.27,4.79-2.64,5.95,2.39,4.39,23.94,1.41,46.75-1.75,16.64-2.3,35.51-4.91,53.4-5.85,31.7-1.67,45.9-7.36,60.94-13.39,10.37-4.16,21.1-8.46,38.17-11.87,41.91-8.38,221.34,47.28,228.96,49.65l-.59,1.91Z"/><path class="cls-1" d="m1069.03,712.45c-17.31,0-50.77-18.99-62.3-33.17-12.16-14.96-27.44-41.1-31.19-80.64-1.23-12.97-1.42-32.17-1.64-54.4-.42-42.7-.95-95.83-9.94-120.74-6.58-18.21-21.49-38.36-40.92-55.28-20.38-17.75-43.67-30.38-65.58-35.55l.46-1.95c22.23,5.25,45.82,18.03,66.44,35.99,19.67,17.14,34.79,37.59,41.48,56.11,9.11,25.22,9.64,78.55,10.06,121.4.22,22.19.41,41.35,1.63,54.23,3.7,39.04,18.76,64.82,30.75,79.57,12.28,15.11,46.96,33.28,61.9,32.4,9.74-.57,10.31-9.09,10.6-26.76.12-7.21.25-15.38,1.3-24.37,2.83-24.11-3.12-32.37-14.97-48.82-2.4-3.33-5.11-7.1-8-11.36-15.71-23.17-33.51-49.42-45.99-83.11-12.71-34.31-.99-82.97,4.65-106.36,4.85-20.12,28.27-41.33,48.94-60.04,7.41-6.71,14.41-13.05,19.65-18.59,15.14-16,46.63-49.31,31.58-119.37-7.71-35.88-39.69-73.06-65.16-97.93-28.29-27.63-60.65-51.6-76.72-60.12-23.72-12.58-101-13.61-169.18-14.52-16.53-.22-32.14-.43-46.59-.79-74.53-1.86-82.85-11.73-83.17-12.15l1.59-1.21-.8.6.78-.63c.34.39,9.14,9.57,81.65,11.38,14.44.36,30.05.57,46.57.79,68.41.91,145.95,1.94,170.09,14.75,16.2,8.59,48.76,32.7,77.18,60.46,25.67,25.06,57.91,62.57,65.71,98.94,6.41,29.83,5.32,55.34-3.32,77.97-7.2,18.87-18.58,32.42-28.77,43.19-5.3,5.6-12.32,11.96-19.76,18.7-19.44,17.6-43.64,39.51-48.34,59.03-5.59,23.19-17.22,71.45-4.72,105.19,12.4,33.46,30.13,59.61,45.77,82.68,2.87,4.23,5.58,7.99,7.97,11.31,11.77,16.34,18.25,25.35,15.33,50.23-1.04,8.89-1.17,17.01-1.29,24.17-.26,16.26-.45,28.02-12.48,28.72-.41.02-.84.04-1.27.04Z"/><path class="cls-1" d="m162.38,716.41c-3.56-2.45-87.47-60.39-104.24-91.37-16.71-30.85-31.02-101.34-31.02-137.4v-.77c0-35.68,0-69.38,6.49-103.35,6.4-33.48,53.78-164.72,70.41-195.05,16.25-29.63,67.93-64.7,80.89-72.47,14.02-8.41,33.81-12.76,34.01-12.81l.42,1.96c-.2.04-19.67,4.33-33.4,12.57-12.85,7.71-64.13,42.49-80.16,71.72-16.58,30.23-63.82,161.09-70.2,194.46-6.46,33.78-6.46,67.39-6.46,102.97v.77c0,35.84,14.2,105.84,30.78,136.45,16.55,30.56,102.75,90.08,103.62,90.67l-1.13,1.65Z"/><path class="cls-1" d="m1008.79,832.74c-27.12,0-58-2.95-93.22-8.82-72.84-12.13-120.41-42.53-145.41-92.92-9.76-19.66-12.07-40.68-14.12-59.22-2.08-18.91-3.88-35.25-13.09-44.33-18.21-17.97-142.04-65.06-143.28-65.53-8.9-2.97-43.92-16-84.48-31.1-55.37-20.61-118.13-43.97-130.43-47.64-20.95-6.25-106.2-17.85-107.06-17.97-5.82-.89-14.26-1.27-25.1-1.14-1.02-.06-23.56-1.37-31.87-2.75-8.7-1.45-51.92-12.33-61.84-16.03-11.54-4.3-21.97-14.95-27.91-28.49-6.44-14.69,1.07-49.56,1.39-51.04,8.07-30.75,18.14-51.28,29.94-61.07,27.02-22.41,80.05-.95,126.83,17.98,20.47,8.28,39.8,16.11,54.72,19.26,48.29,10.22,114.8,49.35,115.47,49.74l-1.02,1.72c-.66-.39-66.9-39.36-114.87-49.51-15.09-3.19-34.51-11.05-55.06-19.36-46.27-18.72-98.71-39.94-124.81-18.3-11.47,9.52-21.32,29.7-29.27,60-.07.31-7.68,35.67-1.5,49.77,5.72,13.05,15.73,23.3,26.78,27.41,9.86,3.68,52.82,14.49,61.47,15.93,8.21,1.37,31.36,2.71,31.59,2.73,10.88-.14,19.42.26,25.34,1.16.84.11,86.24,11.74,107.34,18.03,12.36,3.69,75.15,27.06,130.55,47.68,40.54,15.09,75.54,28.12,84.45,31.09,5.15,1.95,125.51,47.72,144.02,65.99,9.71,9.59,11.55,26.25,13.67,45.54,2.03,18.38,4.32,39.21,13.92,58.55,24.7,49.77,71.78,79.81,143.95,91.83,86.52,14.41,146.57,11.18,189-10.18,4.94-2.49,9.81-4.89,14.58-7.24,35.67-17.61,66.47-32.81,75.46-58.62l.37-1.06c10.18-29.25,16.33-46.91,9.93-68.38-6.36-21.3-28.07-59.53-53.4-86.65-7.82-8.37-15.32-15.56-22.58-22.51-15.86-15.21-29.56-28.34-37.96-46.12-11.99-25.39-21.63-101.86-22.03-105.1l1.98-.25c.1.79,10.01,79.39,21.86,104.5,8.24,17.45,21.82,30.47,37.54,45.54,7.27,6.97,14.79,14.18,22.65,22.59,26.5,28.36,47.52,66.21,53.85,87.44,6.59,22.09,0,40.99-9.95,69.61l-.37,1.06c-9.25,26.58-40.4,41.96-76.46,59.76-4.76,2.35-9.63,4.75-14.56,7.24-25.48,12.82-57.19,19.19-97,19.19Z"/><path class="cls-1" d="m458.13,393.27c-.35-.33-35.11-33.86-74.85-68.56-52.51-45.84-89.8-72.89-107.83-78.21-46.6-13.75-110.88-3.38-132.01.03-12.2,1.97-19.17,2.38-21.11-1.06-2.53-4.5,4.22-13.68,25.81-38.96,11.39-13.34,24.08-27.31,36.35-40.82,22.73-25.03,44.21-48.66,51.51-62.01,11.35-20.74,104.54-74.62,131.34-66.96,9.98,2.85,20.23,6.91,31.09,11.2,17.53,6.93,37.4,14.79,60.58,19.16,36.92,6.97,170.87,7,188.59.05,17.15-6.73,29.26-41.6,29.38-41.95l1.89.65c-.5,1.47-12.53,36.1-30.54,43.17-17.88,7.01-152.61,7.05-189.69.05-23.36-4.41-43.33-12.3-60.94-19.27-10.81-4.28-21.02-8.31-30.9-11.14-11.23-3.21-38.03,5.46-69.95,22.62-29.02,15.61-53.87,33.85-59.08,43.37-7.42,13.55-28.97,37.28-51.78,62.39-12.26,13.5-24.95,27.46-36.31,40.77-16.31,19.11-27.7,32.93-25.59,36.68,1.42,2.53,9.99,1.53,19.05.07,15.95-2.57,37.25-5.66,60.56-6.68,28.63-1.26,52.96,1,72.33,6.71,44.16,13.03,177.83,141.77,183.5,147.24l-1.39,1.44Z"/><path class="cls-1" d="m1071.89,731.53c-3.38-.81-83.05-20.16-107.8-55.64-16.06-23.03-17.18-66.39-18.37-112.3-.68-26.06-1.38-53-4.74-78.21-9.63-72.22-63.62-119.98-83.94-137.96-17.64-15.6-83.08-12.11-126.38-9.8-15.66.83-29.17,1.56-36.87,1.2-25.93-1.22-48.71,14.5-59.53,41-9.79,23.96-57.36,62.15-101.76,73.62-17.81,4.61-36.4-4.49-53.77-26.28-13.01-16.32-20.89-34.23-20.97-34.41l1.83-.8c.08.18,7.87,17.88,20.72,33.99,21.27,26.67,39.85,28.62,51.68,25.56,35.64-9.21,88.97-44.45,100.4-72.44,11.15-27.31,34.68-43.5,61.48-42.24,7.58.35,21.06-.36,36.67-1.2,46.24-2.46,109.56-5.85,127.81,10.3,20.48,18.11,74.87,66.23,84.6,139.19,3.38,25.31,4.08,52.31,4.75,78.42,1.18,45.6,2.3,88.67,18.02,111.21,12.67,18.17,40.95,32.11,62.43,40.6,23.37,9.23,43.98,14.2,44.19,14.25l-.46,1.95Z"/><path class="cls-1" d="m524.46,461.88c-15.67,0-31.48-10.7-46.16-31.4-12.87-18.14-20.48-37.81-20.55-38.01l1.87-.72c.07.19,7.61,19.66,20.34,37.59,11.63,16.39,30.1,34.83,52.07,29.64,22.25-5.25,43.33-16.66,59.34-32.11,17.76-17.14,29.22-38.94,33.13-63.05,3.58-22.09,44.03-34.37,120.22-36.48,56.4-1.56,112.5,3.29,113.06,3.34l-.18,1.99c-2.23-.2-222.95-19-231.13,31.47-3.98,24.54-15.64,46.73-33.72,64.17-16.27,15.7-37.67,27.28-60.27,32.62-2.67.63-5.35.94-8.03.94Z"/><path class="cls-1" d="m959.61,804.66c-46.35,0-86.33-14.03-118.92-41.74-32.78-27.87-49.75-63.1-56.96-81.62-9.89-25.44-11.33-43.66-12.71-61.28-1.38-17.54-2.8-35.67-12.57-61.13-11.47-29.9-59.71-51.98-87.43-62.47-37.86-14.33-84.31-24.84-112.97-25.55-27.91-.7-53.7-21.87-70.41-39.52-18.04-19.04-29.7-38.19-29.81-38.38l1.71-1.04c.46.76,46.35,75.63,98.56,76.93,24.39.61,68.99,8.78,113.62,25.68,28.04,10.61,76.84,33,88.59,63.63,9.88,25.73,11.31,44.01,12.7,61.69,1.37,17.47,2.79,35.54,12.58,60.71,7.13,18.34,23.94,53.24,56.39,80.82,33.44,28.44,74.78,42.32,122.9,41.2,48.71-1.11,98.31-12.67,139.66-32.55,35.24-16.94,60.12-37.92,64.92-54.74,8.34-29.19-5.55-62.83-37.14-89.99-29.61-25.46-74.34-84.95-79.93-124.01-5.6-39.18,16.72-85.33,16.95-85.79l1.8.88c-.22.46-22.27,46.06-16.76,84.62,5.43,38.03,50.57,98.12,79.25,122.78,32.2,27.68,46.32,62.1,37.76,92.05-4.96,17.36-30.24,38.81-65.98,55.99-41.6,20-91.49,31.63-140.48,32.75-1.78.04-3.56.06-5.32.06Z"/><path class="cls-1" d="m517.22,780.19l-.68-1.88c1.06-.38,105.79-38.5,122.29-55.01,5.17-5.17,7.51-9.53,7.35-13.74-.28-7.5-8.34-14.46-20.56-25-1.75-1.51-3.58-3.09-5.47-4.74-17.78-15.56-50.88-44.52-94.75-112.57-27.43-42.54-86.62-71.75-129.85-93.08-21.82-10.77-40.67-20.07-50.67-28.55-29.17-24.74-48.18-65.84-46.23-99.94.17-3.06,1.58-5.36,4.17-6.86,24.05-13.86,151.06,50.11,156.46,52.84l-.9,1.78c-1.31-.66-131.43-66.21-154.56-52.89-2,1.15-3.03,2.86-3.17,5.24-1.92,33.51,16.81,73.94,45.53,98.3,9.81,8.32,28.56,17.57,50.26,28.28,43.43,21.43,102.91,50.78,130.64,93.79,43.72,67.82,76.68,96.65,94.39,112.15,1.89,1.65,3.72,3.23,5.46,4.74,12.61,10.89,20.94,18.08,21.25,26.44.18,4.79-2.35,9.63-7.94,15.22-16.82,16.82-118.7,53.9-123.02,55.48Z"/><path class="cls-1" d="m764.3,599.25c-.69-.69-69.67-69.4-113.01-89.69-25.32-11.85-62.79-15.05-95.85-17.87-24.62-2.1-47.88-4.08-64.14-9.24-20.84-6.61-57.44-27.61-84.74-45.05-33.77-21.58-59.89-41.53-66.52-50.82-7.37-10.31-6.24-16.44-4-19.76,4.44-6.58,16.86-7.96,34.07-3.8,28.75,6.96,88.45,28.37,89.05,28.59l-.68,1.88c-.6-.21-60.21-21.6-88.85-28.53-16.11-3.9-28.05-2.79-31.94,2.97-2.71,4.01-1.34,10.05,3.97,17.48,13.59,19.03,111.72,82.92,150.24,95.13,16.05,5.09,39.2,7.06,63.71,9.15,33.22,2.83,70.88,6.04,96.52,18.05,43.66,20.44,112.88,89.39,113.58,90.08l-1.41,1.41Z"/><path class="cls-1" d="m1070.7,731.6c-27.85,0-112.43-34.93-126.83-65.64-10.31-22-10.12-82.45-9.98-126.59.05-16.66.1-31.04-.41-40.45-1.87-34.58-27.14-77.48-43.87-105.86-17.44-29.59-53.78-44.03-82.07-45.21-36.99-1.54-137.75,2.33-156.06,20.64-13.58,13.58-25.34,31.16-35.72,46.68-4.55,6.81-8.85,13.23-12.88,18.67-13.6,18.38-80.01,37.35-102.65,42.18-10.62,2.27-26.32,13.5-43.08,30.82-14.53,15.02-27.82,32.68-33.07,43.95-.25.57-26.44,59.41-48.08,88.19-21.44,28.51-64.15,39.36-85.21,29.33-18.62-8.87-71.45-3.98-94.76,3.79-21.7,7.23-32.02,43.38-32.12,43.75l-1.93-.54c.43-1.53,10.7-37.54,33.42-45.11,21.49-7.17,75.65-13.51,96.25-3.7,9.58,4.56,25.08,4.5,40.46-.17,17.4-5.28,32.42-15.42,42.29-28.55,21.5-28.6,47.6-87.23,47.86-87.82,10.12-21.71,52.4-70.54,77.55-75.9,28.4-6.06,89.33-25.02,101.46-41.41,4-5.4,8.28-11.81,12.82-18.59,10.43-15.59,22.25-33.26,35.96-46.98,20.3-20.29,128.7-22.43,157.56-21.23,28.82,1.2,65.89,15.95,83.7,46.19,16.82,28.55,42.25,71.7,44.14,106.77.51,9.47.47,23.88.41,40.56-.14,43.95-.33,104.13,9.79,125.73,6.07,12.96,27.86,29.33,58.28,43.78,26.99,12.83,54.99,21.35,68.11,20.67l.1,2c-.47.02-.96.04-1.47.04Z"/><path class="cls-1" d="m995.88,823.94c-62.13,0-145.16-23.29-175.26-43.86-17.1-11.68-30.26-35.73-38.29-53.84-9.87-22.26-16.12-44.49-18.47-56.77-1.55-8.11-1.99-14.71-2.42-21.08-.88-13.34-1.65-24.86-12.76-44.67-15.47-27.6-178.32-73.99-209.74-81.99-3.08-.78-5.14-.69-5.8.28-2.47,3.6,8.3,18.79,15.42,28.84l1.91,2.7c5.96,8.44,31.98,30.72,57.14,52.28,21.69,18.58,44.12,37.79,53.27,47.81,19.19,21.01,15.61,69.31,14.43,85.18l-.13,1.71c-1.02,14.28-34.17,28.16-57.49,31.82-24.52,3.84-55.34,17.28-68.46,25.15-16.96,10.17-50.15-3.62-59.92-8.09-8.29-3.8-28.09-22.1-49.04-41.47-23.85-22.05-50.89-47.05-61.34-50.53-13.52-4.5-17.49,2.36-22.08,10.3-1.73,2.99-3.52,6.09-5.91,8.59-9.12,9.57-40.31,17.64-64.72,9.2-23.91-8.28-122.28-8.88-123.27-8.89v-2c4.07.02,99.7.61,123.93,9,23.31,8.07,54.06.29,62.61-8.69,2.22-2.33,3.95-5.32,5.62-8.21,4.61-7.97,9.38-16.22,24.45-11.19,10.86,3.62,36.89,27.69,62.07,50.96,20.83,19.26,40.52,37.46,48.52,41.12,19.67,9,45.25,15.88,58.06,8.19,13.25-7.95,44.4-21.52,69.18-25.41,24.58-3.86,54.96-18.09,55.81-29.98l.12-1.71c1.16-15.66,4.69-63.31-13.91-83.69-9.07-9.93-31.45-29.1-53.09-47.64-25.26-21.63-51.37-44-57.47-52.64l-1.9-2.69c-10.95-15.45-18.46-26.72-15.44-31.13,1.22-1.78,3.82-2.13,7.94-1.08,1.92.49,193.58,51.88,210.99,82.94,11.33,20.21,12.11,31.94,13.01,45.52.42,6.32.85,12.85,2.38,20.84,4.91,25.64,25.82,88.76,55.93,109.33,31,21.19,118.7,45.27,181.05,43.41,28.07-.84,62.22-8.63,96.16-21.93,28.81-11.3,53.77-25.35,63.58-35.8,22.97-24.47,33.79-47.52,32.18-68.53-.18-2.33-.32-4.56-.46-6.71-1.28-20.36-2.12-33.81-31.74-67.61-5.29-6.04-11.07-12.45-17.18-19.24-31.29-34.75-70.23-78-74.21-105.81-4.64-32.5-1.91-79.83-1.88-80.3l2,.12c-.03.47-2.75,47.61,1.87,79.9,3.89,27.21,42.6,70.21,73.71,104.75,6.12,6.79,11.9,13.21,17.2,19.26,14.07,16.06,22.36,28.25,26.88,39.53,4.17,10.4,4.72,19.14,5.35,29.27.13,2.15.27,4.36.45,6.69,1.66,21.59-9.34,45.16-32.71,70.05-10,10.65-35.24,24.9-64.31,36.29-34.15,13.39-68.54,21.23-96.83,22.07-2.29.07-4.62.1-6.98.1Z"/><path class="cls-1" d="m162.27,716.31c-2.53-2.35-62.07-57.94-75.11-83.09-10.23-19.72-47.21-100.84-41.3-137.32,2.03-12.52,2.98-27.36,3.89-41.7,1.64-25.65,3.33-52.17,11.17-69.05,3.04-6.56,6.36-13.18,9.87-20.18,10.41-20.79,21.17-42.29,25.08-62.91,2.47-13.04,20.67-35.8,48.68-60.91,27.24-24.42,55.69-43.7,74.25-50.33,39.91-14.25,124.89-33.77,150.29-30.01,24.43,3.62,114.39,32.38,140.71,44.08,6.62,2.94,15.32,6.36,24.53,9.98,27.03,10.61,57.67,22.64,64,32.97,1.86,3.03,4.43,4.3,7.66,3.79,9.84-1.57,22.17-18.4,26.38-36.03,6.08-25.47,74.17-107.59,89.84-118.29,14.79-10.1,68.18-32.86,93.69-31.48,5.56.3,14.16.47,24.12.67,36.29.73,91.12,1.82,118.17,10.37,34.51,10.91,80.89,62.83,82.84,65.03l-1.5,1.33c-.48-.54-47.97-53.71-81.95-64.45-26.77-8.46-81.43-9.56-117.6-10.28-9.98-.2-18.59-.37-24.19-.67-25.11-1.36-77.84,21.15-92.46,31.14-15.54,10.61-83.01,91.91-89.02,117.11-4.45,18.64-17.28,35.83-28.01,37.54-4.04.64-7.39-.99-9.68-4.72-5.99-9.76-37.61-22.18-63.03-32.16-9.24-3.63-17.96-7.05-24.62-10.01-26.24-11.66-115.86-40.33-140.19-43.93-25.13-3.72-109.6,15.73-149.33,29.92-40.43,14.44-116.59,83.15-121.63,109.73-3.96,20.9-14.79,42.52-25.26,63.44-3.5,6.99-6.81,13.6-9.84,20.13-7.68,16.53-9.36,42.87-10.98,68.33-.92,14.39-1.87,29.27-3.92,41.89-5.3,32.71,25.4,105.8,41.1,136.08,12.88,24.84,74.08,81.97,74.7,82.55l-1.36,1.46Z"/><path class="cls-1" d="m162.35,716.38c-.68-.5-67.81-50.56-87.35-84.05-19.01-32.6-35.88-86.99-37.59-121.24-1.49-29.82,2.03-89.95,17.85-133.4,6-16.48,11.58-25.37,16.06-32.51,6.64-10.59,11.03-17.59,11.03-41.07,0-21.66,25.81-44.57,47.47-59.98,24.28-17.27,52.06-31.2,62.78-34.61,1.76-.56,4.17-1.34,7.13-2.29,31.12-10.06,125.82-40.69,154.28-38.95,30.91,1.87,130.17,36.84,170.71,52.5,11.8,4.56,22.14,8,30.45,10.76,21.5,7.15,32.29,10.74,30.09,20.71-1.52,6.88-9.49,9.92-21.56,14.53-11.83,4.52-28.04,10.71-46.26,23.58-40.14,28.35-43.43,36.95-35.24,56.09,8.63,20.16,21.76,46.3,35.26,56.3,3.5,2.6,8.83,3.26,15.4,1.91,13.92-2.86,30.33-14.08,34.64-21.46,7.13-12.22,48.29-72.54,70.7-81.88,22.15-9.23,191.19-13.63,220.31,29.81l-1.66,1.11c-6.94-10.36-30.61-28.52-111.1-33.83-47.14-3.11-95.25-.06-106.78,4.75-21.95,9.15-62.67,68.92-69.75,81.04-4.61,7.9-21.32,19.41-35.96,22.42-7.25,1.49-12.96.73-17-2.26-13.86-10.27-27.17-36.73-35.9-57.12-9.53-22.27-.92-32.48,35.92-58.51,18.43-13.02,34.77-19.26,46.7-23.82,11.46-4.38,19.03-7.27,20.32-13.09,1.74-7.9-7.02-11.15-28.77-18.38-8.33-2.77-18.7-6.22-30.54-10.79-40.45-15.63-139.43-50.51-170.11-52.37-28.08-1.7-122.51,28.82-153.55,38.86-2.96.96-5.37,1.74-7.13,2.3-20.79,6.61-108.85,53.98-108.85,92.68,0,24.05-4.51,31.24-11.34,42.13-4.43,7.06-9.95,15.85-15.87,32.14-15.71,43.16-19.21,102.95-17.73,132.61,1.7,33.99,18.44,87.97,37.32,120.33,19.34,33.15,86.14,82.96,86.81,83.46l-1.19,1.61Z"/><path class="cls-1" d="m518.13,790.38c-2.49,0-4.88-.29-7.15-.94-13.03-3.71-34.53-25.62-51.81-43.23-8.01-8.16-14.92-15.21-19.6-19.04-25.93-21.23-59.66-44.95-69.41-41.95-5.11,1.57-11.18,6.99-17.6,12.73-8.5,7.59-18.13,16.2-28.43,18.61-12.49,2.91-30.14-.09-48.84-3.26-8.15-1.39-16.58-2.82-24.45-3.69-24.86-2.76-87.12,6.87-87.75,6.97l-.31-1.98c.63-.1,63.15-9.77,88.28-6.98,7.92.88,16.39,2.32,24.57,3.71,18.49,3.14,35.96,6.11,48.05,3.29,9.81-2.29,19.23-10.71,27.55-18.15,6.59-5.89,12.81-11.45,18.34-13.15,13.55-4.17,61.74,34.52,71.27,42.32,4.76,3.9,11.71,10.98,19.76,19.19,17.11,17.44,38.4,39.14,50.93,42.71,11.63,3.31,27.16-3.55,42.18-10.19,8.59-3.8,17.48-7.72,25.65-9.77,8.01-2,17.21-3.31,26.11-4.58,16.12-2.3,32.78-4.67,42.88-11.21,14.65-9.48,21.25-30.13,16.42-51.37-4.55-20.03-27.83-53.82-45.59-70.66-4.66-4.42-11.94-10.85-20.36-18.31-23.92-21.16-56.67-50.15-67.39-66.13-2.37-3.53-4.82-7-7.19-10.35-8.73-12.36-15.62-22.12-12.74-26.71,1.47-2.34,5.01-2.95,11.16-1.93,12.56,2.09,36.24,7.67,59.14,13.05,18.54,4.36,36.05,8.48,47.63,10.78,26.08,5.17,131.59,64.98,136.07,67.53l-.99,1.74c-1.09-.62-109.71-62.2-135.47-67.3-11.62-2.3-29.15-6.43-47.7-10.79-22.87-5.38-46.51-10.95-59.01-13.03-5.03-.84-8.19-.49-9.14,1.02-2.18,3.47,5.04,13.68,12.68,24.5,2.38,3.36,4.83,6.84,7.21,10.39,10.58,15.77,43.22,44.65,67.06,65.74,8.44,7.47,15.72,13.91,20.41,18.36,22.44,21.26,42.34,54.83,46.17,71.66,5.01,22.06-1.93,43.56-17.29,53.5-10.46,6.77-27.35,9.18-43.68,11.51-8.85,1.26-18,2.56-25.9,4.54-8.01,2-16.82,5.89-25.33,9.66-12.52,5.53-25.38,11.22-36.39,11.22Z"/><path class="cls-1" d="m162.59,716.51c-3.72-1.44-91.22-35.34-104.34-51.28-3.25-3.95-6.43-7.47-9.5-10.88-9.28-10.3-17.3-19.19-21.58-33.47-5.72-19.06-16.91-78.03-15.02-138.68,1.82-58.45,25.64-175.59,36.57-208.36s47.11-112.8,67.78-127.83c4.47-3.25,12.42-9.31,22.47-16.99,36.9-28.16,98.67-75.3,119.64-83.78,21.08-8.52,91.82-35.64,116.95-26.71,7.06,2.51,13.97,5.85,21.29,9.39,17.64,8.52,37.63,18.18,69.31,21.46l.78.08c43.58,4.51,134.25,13.9,157.33,6.52,22.97-7.35,53.09-31.23,53.39-31.47l1.25,1.56c-.3.24-30.72,24.35-54.03,31.81-23.47,7.51-111.08-1.56-158.15-6.43l-.78-.08c-32.03-3.32-52.19-13.05-69.97-21.65-7.27-3.51-14.14-6.83-21.09-9.3-10.06-3.58-29.04-1.5-56.41,6.17-23.8,6.67-47.25,15.71-59.12,20.51-20.72,8.38-82.35,55.41-119.17,83.51-10.07,7.68-18.02,13.75-22.51,17.02-20.35,14.8-56.56,95.37-67.05,126.85-10.89,32.68-34.65,149.5-36.47,207.79-1.86,59.81,9.48,119.84,14.94,138.04,4.15,13.85,12.03,22.59,21.15,32.71,3.09,3.43,6.28,6.97,9.56,10.95,12.79,15.54,102.61,50.34,103.52,50.69l-.72,1.87Z"/><path class="cls-1" d="m1071.78,731.5c-.62-.23-62.29-22.83-86.51-47.05-17.91-17.91-23.28-84.04-28.46-148-2-24.71-3.9-48.05-6.47-68.88-9.2-74.54-92.38-134.48-93.22-135.07l1.16-1.63c.21.15,21.41,15.32,43.47,39.58,20.39,22.43,45.71,57.44,50.58,96.87,2.58,20.87,4.47,44.23,6.48,68.96,5.16,63.59,10.49,129.35,27.88,146.75,23.91,23.91,85.16,46.36,85.78,46.58l-.68,1.88Z"/><path class="cls-1" d="m856.73,331.94c-.07-.28-7.73-27.75-43.63-31.27-13.22-1.3-37.08-1.7-62.35-2.13-47.94-.81-97.51-1.65-104.3-8.28-9.57-9.34,12.81-43.43,36.54-77.55l1.87-2.68c17.06-24.56,90.42-79.33,113.75-84.93,2.49-.6,4.98-1.24,7.5-1.89,20.25-5.21,43.2-11.13,83.94,1.91,45.02,14.41,136.55,20.87,149.92,16.48l.62,1.9c-13.53,4.44-105.86-1.99-151.15-16.48-40.19-12.86-62.84-7.02-82.83-1.88-2.53.65-5.03,1.3-7.53,1.9-22.46,5.39-96.11,60.43-112.57,84.13l-1.87,2.68c-16.06,23.08-45.94,66.04-36.79,74.98,6.22,6.07,59.84,6.98,102.93,7.71,25.31.43,49.21.83,62.51,2.14,37.33,3.66,45.29,32.46,45.37,32.75l-1.93.51Z"/><path class="cls-1" d="m516.55,780.16c-34.78-30.34-127.27-109.24-137.38-109.88-6.17-.42-13.65,6.11-22.32,13.63-8.33,7.23-17.77,15.43-28.73,20-13.39,5.58-26.72,2.72-42.14-.6-10.76-2.31-22.95-4.94-36.9-4.94-33.15,0-85.29,17.97-85.81,18.16l-.66-1.89c.53-.18,52.98-18.27,86.47-18.27,14.16,0,26.46,2.65,37.32,4.98,15.1,3.25,28.13,6.05,40.95.71,10.66-4.44,19.98-12.53,28.19-19.66,9-7.82,16.76-14.56,23.75-14.12,12.85.82,133.44,105.9,138.56,110.37l-1.31,1.51Z"/><path class="cls-1" d="m162.94,716.58c-.31,0-30.91-.32-63.06-7.4-42.8-9.42-68.92-26.54-75.53-49.51-8.21-28.48-17.28-93.44-21.57-154.46-7.14-101.41,1.09-139.58,6.62-153.3,8.37-20.75,37.37-42.3,79.55-59.11,50.66-20.19,123.97-33.33,165.24-14.46,30.85,14.1,73.14,39.8,110.46,62.47,41.71,25.34,81.11,49.28,94.29,50.74l-.22,1.99c-13.62-1.51-51.38-24.46-95.11-51.02-37.27-22.64-79.51-48.31-110.25-62.36-40.73-18.62-113.39-5.54-163.67,14.5-41.68,16.61-70.26,37.75-78.43,58-13.23,32.78-8.94,117.5-6.48,152.41,4.29,60.9,13.33,125.69,21.5,154.05,8.08,28.06,44.71,41.64,74.01,48.1,31.95,7.04,62.37,7.35,62.67,7.36l-.02,2Z"/><path class="cls-1" d="m1070.71,416.84l-.92-1.77c.54-.28,53.97-28.32,69.92-51.64,16.85-24.64,33.33-60.58,32.17-85.31-1.18-25.06-16.7-106.48-46.4-149.97-31.21-45.71-60.61-75.66-89.89-91.55-30.57-16.59-184.12-33.14-227.92-29.63-13.72,1.1-29.61,1.75-46.42,2.44-36.19,1.48-73.6,3-90.74,9.28-7.42,2.72-12.7,5.44-17.81,8.08-12.07,6.23-22.5,11.6-55.16,13.46-45.35,2.58-147.49-3.36-178.38-15-3.84-1.45-7.53-2.93-11.11-4.36-24.39-9.77-45.45-18.2-89.72-6.87-7.82,2-15.11,3.81-21.55,5.41-36.44,9.03-54.72,13.56-68.13,27.48-15.45,16.03-17.32,43.19-8.67,56.77l-1.69,1.07c-9.05-14.2-7.16-42.55,8.92-59.23,13.8-14.33,32.28-18.91,69.09-28.03,6.43-1.6,13.73-3.4,21.54-5.4,44.9-11.49,66.24-2.94,90.96,6.95,3.57,1.43,7.25,2.91,11.07,4.34,13.46,5.07,43.59,9.67,82.67,12.63,35,2.65,72.25,3.53,94.9,2.24,32.23-1.83,42.48-7.12,54.35-13.24,5.16-2.66,10.5-5.42,18.04-8.18,17.43-6.38,55.01-7.92,91.35-9.4,16.8-.69,32.66-1.33,46.34-2.43,43.97-3.52,198.26,13.16,229.03,29.87,29.56,16.05,59.2,46.2,90.59,92.18,29.92,43.82,45.56,125.78,46.74,151.01.85,18.16-8.87,51.96-32.51,86.54-16.23,23.74-68.43,51.13-70.65,52.29Z"/><path class="cls-1" d="m1002.28,828.34c-15.33,0-33.63-1.17-55.6-4.42-60.18-8.9-66.74-12.73-79.82-20.36-3.85-2.25-8.21-4.79-14.71-7.9-33.16-15.87-60.91-41.42-76.13-70.09-9.39-17.67-15.41-37.6-20.73-55.18-4.36-14.42-8.13-26.88-12.66-34.2-9.99-16.11-96.24-48.95-111.49-50.46-12.75-1.26-18.01.1-18.68,1.79-.23.57-.22,2.29,4.64,6.07,2.48,1.93,6.3,4.25,10.72,6.95,17.19,10.48,45.96,28.02,58.81,59.68,15.8,38.93,12.66,80.43-.18,94.77l-.83.93c-11.85,13.25-15.06,16.81-41.48,16.6-3.33-.03-7.05-.09-11.11-.15-29.13-.48-73.15-1.2-115.93,7.83l-.41-1.96c43.01-9.08,87.16-8.36,116.38-7.88,4.05.07,7.77.13,11.09.15,25.53.19,28.31-2.9,39.97-15.93l.83-.93c12.44-13.89,15.34-54.45-.18-92.69-12.6-31.05-41.02-48.37-57.99-58.72-4.47-2.73-8.33-5.08-10.9-7.08-4.43-3.44-6.16-6.19-5.28-8.39,1.3-3.25,8.27-4.27,20.74-3.04,15.42,1.52,102.8,34.96,112.99,51.39,4.68,7.54,8.48,20.11,12.88,34.67,5.29,17.49,11.28,37.32,20.58,54.82,15.03,28.3,42.45,53.53,75.23,69.22,6.58,3.15,10.97,5.71,14.86,7.98,12.86,7.5,19.31,11.26,79.1,20.11,58.29,8.62,90.66,2.52,110-1.12,6.29-1.19,11.27-2.12,15.15-2.12,14.37,0,82.44-32.34,104.42-57.05,14.67-16.49,22.11-41.51,22.11-74.37,0-13.81-4.07-49.57-41.8-83.31-42.43-37.94-75.44-83.17-80.29-109.99-5.11-28.3-7.28-77.48-7.3-77.97l2-.09c.02.49,2.18,49.53,7.27,77.7,4.77,26.43,37.53,71.19,79.66,108.86,38.33,34.27,42.47,70.72,42.47,84.8,0,33.37-7.61,58.84-22.61,75.7-22.81,25.65-90.91,57.72-105.91,57.72-3.69,0-8.58.92-14.78,2.09-12.17,2.29-29.48,5.55-55.07,5.55Z"/><path class="cls-1" d="m989.99,813.61c-47.83,0-101.78-9.5-146.8-33.48-44.83-23.88-63.97-72.03-72.13-108.22-8.82-39.13-7.06-73.09-7.04-73.43l2,.11c-.02.34-1.76,34.06,7.01,72.92,8.07,35.77,26.96,83.33,71.11,106.85,44.75,23.84,98.39,33.28,145.89,33.29,42.62,0,80.3-7.6,102.23-19.24,53.95-28.62,84.27-56.51,92.7-85.25,4.44-15.13,2.41-30.41-6.02-45.4-9.08-16.14-25.15-34.25-42.16-53.42-46.29-52.18-103.9-117.12-67.42-192.82l1.8.87c-15.96,33.12-15.11,66.97,2.61,103.48,15.46,31.86,41.52,61.23,64.51,87.15,17.08,19.26,33.22,37.45,42.4,53.77,8.71,15.48,10.79,31.28,6.2,46.94-8.59,29.28-39.23,57.56-93.68,86.45-22.14,11.75-60.2,19.43-103.2,19.43Z"/><path class="cls-1" d="m1141.3,560.41c-.32,0-.64-.03-.96-.1-4.36-.94-8.29-8.09-13.72-17.98-2.91-5.3-6.22-11.31-10.02-17.05-7.83-11.79-15.24-36.01-21.78-57.38-3.72-12.16-7.23-23.65-10.28-30.94-7.88-18.89-14.35-20-14.41-20l.21-1.99c.77.07,7.72,1.26,16.05,21.22,3.08,7.39,6.61,18.92,10.34,31.13,6.5,21.24,13.86,45.31,21.53,56.86,3.85,5.8,7.18,11.85,10.11,17.19,4.79,8.71,8.92,16.24,12.39,16.99.79.17,1.52-.03,2.31-.62,5.99-4.49,2.76-32.17-3.52-57.19-2.65-10.57-21.06-49.13-40.55-89.95-19.78-41.43-40.24-84.27-47.26-104.08-14.01-39.52-16.71-48.96-19.3-79.11-2.55-29.61,6.76-84.47,6.86-85.02l1.97.34c-.09.55-9.36,55.16-6.84,84.51,2.57,29.91,5.26,39.3,19.2,78.61,6.99,19.72,27.42,62.51,47.18,103.89,19.54,40.91,37.99,79.56,40.69,90.32,1.33,5.29,12.68,51.85,2.78,59.27-.95.72-1.95,1.08-2.97,1.08Z"/><path class="cls-1" d="m661.22,791.72c-5.24,0-10.2-.73-14.41-2.31-16.4-6.16-128.82-9.13-129.96-9.16l.05-2c4.64.12,113.89,3.01,130.61,9.29,16.13,6.06,45.05-1.4,54.29-14,9.96-13.58,16.67-46.39,10.15-75.72-1.81-8.13-2.7-15.4-3.49-21.81-2.21-17.96-3.8-30.94-23.34-44.67-6.88-4.83-14-9.58-20.28-13.76-19.97-13.31-24.93-16.96-23.92-19.39.54-1.29,2.34-1.47,6.44-.63,5,1.02,18.99,2.96,36.71,5.41,45.33,6.28,113.82,15.77,129.56,23.2,22.5,10.64,39.66,23.84,54,41.55,39.51,48.8,74.11,58.64,85.49,61.87,30.42,8.65,69.93,11.47,86.6.13,15.11-10.27,21.71-25.39,19.62-44.93-.79-7.41-.54-12.92-.32-17.78.5-10.83.82-17.99-11.53-35.05-2.77-3.83-6.19-8.33-9.81-13.09-20.44-26.93-51.33-67.62-55.73-103.11-4.71-37.97-9.82-90.96.08-112.63,5.38-11.78,14.21-20.66,22.74-29.25,6.57-6.61,12.77-12.85,16.86-19.91,9.45-16.31,5.58-33.23-2.68-64.18-1.98-7.42-4.37-15.52-6.68-23.35-7.94-26.89-16.15-54.69-12.23-68.61,8.23-29.25,22.01-48.69,39.86-56.23l.78,1.84c-17.27,7.29-30.65,26.29-38.71,54.93-3.76,13.36,4.37,40.88,12.23,67.5,2.32,7.84,4.71,15.95,6.7,23.4,8.4,31.48,12.32,48.69,2.48,65.69-4.21,7.28-10.51,13.61-17.17,20.31-8.41,8.46-17.11,17.22-22.34,28.67-9.69,21.2-4.59,73.82.08,111.55,4.33,34.96,35.03,75.39,55.34,102.14,3.62,4.77,7.05,9.28,9.83,13.13,12.77,17.63,12.43,25.06,11.91,36.31-.22,4.79-.47,10.23.31,17.48,2.18,20.33-4.71,36.08-20.48,46.8-12.6,8.57-45.6,12.26-88.27.13-46.59-13.24-76.62-50.34-86.5-62.54-14.14-17.47-31.08-30.5-53.3-41-15.46-7.31-83.78-16.77-128.98-23.03-17.75-2.46-31.77-4.4-36.83-5.44-2.49-.51-3.58-.51-4.04-.45,1.29,2.35,12.33,9.71,23.03,16.84,6.29,4.19,13.42,8.94,20.32,13.79,20.27,14.23,21.91,27.58,24.18,46.06.78,6.37,1.67,13.58,3.46,21.62,4.02,18.1,2.75,34.69.98,45.42-2.18,13.17-6.46,25.1-11.47,31.92-7.43,10.13-26.12,17-42.2,17Z"/><path class="cls-1" d="m517.23,780.18l-.71-1.87c.56-.21,55.95-21.34,74.53-36.24,1.67-1.34,3.35-2.65,5.02-3.95,10.37-8.09,20.16-15.72,20.71-25.25.37-6.31-3.29-13.15-11.18-20.93-13.73-13.53-31-35.28-46.25-54.46-12.5-15.73-24.3-30.58-32.02-38.23-5.55-5.5-11.29-9.56-16.85-13.5-11.69-8.28-21.78-15.42-25.56-32.41-4.04-18.16,3.15-27.04,10.76-36.44,2.89-3.57,5.88-7.26,8.26-11.55,2.03-3.66,3.52-7.29,4.97-10.81,2.77-6.76,5.17-12.6,10.22-14.68,3.43-1.42,7.85-.94,13.5,1.44,18.32,7.72,47.06,9.05,63.46-2.07,16.94-11.49,37.95-27.61,50.17-50.4,3.14-5.86,5.62-11.79,8.01-17.52,6.97-16.72,13-31.16,31.41-31.16h1.65c25.66,0,93.92.03,125.49-12.6,32.62-13.05,35.92-16.71,43.94-36.24l1.85.76c-8.61,20.96-12.82,24.45-45.05,37.34-31.92,12.77-100.43,12.74-126.23,12.74h-1.65c-17.08,0-22.59,13.21-29.56,29.93-2.41,5.78-4.9,11.75-8.09,17.7-12.43,23.18-33.68,39.49-50.81,51.11-10.04,6.81-22.78,8.38-31.71,8.51-11.59.16-23.86-2.12-33.65-6.24-5.14-2.17-9.06-2.64-11.97-1.44-4.28,1.77-6.42,6.98-9.14,13.59-1.4,3.4-2.98,7.26-5.07,11.02-2.47,4.44-5.51,8.2-8.45,11.84-7.3,9.02-14.19,17.54-10.36,34.75,3.61,16.23,13.41,23.17,24.76,31.21,5.62,3.98,11.44,8.1,17.1,13.71,7.81,7.73,19.65,22.63,32.18,38.41,15.21,19.14,32.44,40.84,46.08,54.28,8.32,8.2,12.17,15.55,11.77,22.46-.61,10.44-10.75,18.34-21.48,26.72-1.66,1.29-3.33,2.6-5,3.93-18.83,15.09-72.78,35.68-75.07,36.54Z"/><path class="cls-1" d="m516.48,780.08c-.43-.47-44.04-47.57-103.41-93.14-34.85-26.75-68.23-47.74-99.22-62.4-38.66-18.29-73.66-26.69-104.03-25-59.73,3.34-107.83-12.91-139.09-47-29.54-32.21-42.36-79.42-35.18-129.52,6.24-43.54,24.25-102.52,48.18-157.77,24.61-56.82,50.19-98.08,70.19-113.19,41.65-31.47,64.38-48.52,64.61-48.69l1.2,1.6c-.22.17-22.95,17.22-64.6,48.69-19.44,14.69-45.44,56.7-69.56,112.39-23.86,55.1-41.82,113.89-48.03,157.26-7.1,49.51,5.54,96.13,34.67,127.89,30.84,33.63,78.38,49.65,137.5,46.35,30.71-1.73,66.04,6.76,105.01,25.19,31.12,14.72,64.62,35.79,99.59,62.63,59.5,45.68,103.2,92.88,103.64,93.36l-1.47,1.36Z"/><path class="cls-1" d="m664.52,781.27c-2.4,0-4.72-.35-6.93-1.07-21.08-6.78-139.46-.02-140.65.05l-.12-2c4.89-.28,119.95-6.85,141.38.05,8.7,2.8,17.44-.96,23.24-4.61,12.94-8.13,23.21-22.85,24.34-30.97,1.95-14.09-2.6-74.25-11.71-86.67-9.07-12.37-45.77-48-60.75-56.64-6.41-3.7-8.81-6.04-8.31-8.1.62-2.51,5.02-2.87,12.21-3.16,2.77-.12,11.76,1.2,24.22,3.02,31.86,4.66,85.2,12.44,103.25,6.43l.63,1.9c-18.51,6.17-72.13-1.67-104.17-6.35-11.89-1.74-21.27-3.11-23.85-3-2.75.11-10.04.41-10.35,1.64-.01.06-.27,1.49,7.37,5.89,15.15,8.74,52.21,44.71,61.36,57.19,10.04,13.69,13.84,75.39,12.08,88.13-1.18,8.56-11.85,23.96-25.25,32.39-6.21,3.9-12.31,5.88-17.98,5.88Z"/><path class="cls-1" d="m516.5,780.11c-.49-.49-49.19-49.4-65.42-72.75-7.59-10.92-19.17-22.84-29.38-33.36-12.21-12.57-21.85-22.5-21.85-27.58,0-8.9,18.01-42.26,18.77-43.67l1.76.95c-.19.34-18.53,34.32-18.53,42.72,0,4.26,10.34,14.91,21.29,26.19,10.27,10.58,21.91,22.56,29.59,33.62,16.13,23.2,64.7,71.99,65.19,72.48l-1.42,1.41Z"/><path class="cls-1" d="m163.58,716.36l-1.26-1.55c.14-.11,14.2-11.44,36.91-20.06,20.96-7.96,53.83-15.19,91.34-4.47,20.28,5.8,52.47,4.26,90.61-35.98,22.94-24.2,37.3-51.27,37.44-51.54l1.77.93c-.14.27-14.61,27.56-37.73,51.95-30.75,32.45-62.78,45.09-92.64,36.56-36.95-10.56-69.34-3.44-90.01,4.39-22.43,8.5-36.29,19.65-36.43,19.76Z"/><path class="cls-1" d="m1073.03,730.98l-1.82-.84c.24-.51,23.57-51.47,27.07-76.92,3.47-25.3-16.59-100.3-27.06-121.66-11.71-23.9-27.52-70.76-1.85-116.1l1.74.99c-25.22,44.54-9.63,90.69,1.91,114.23,10.55,21.53,30.76,97.22,27.25,122.81-3.54,25.74-27,76.97-27.24,77.48Z"/><path class="cls-1" d="m948.05,763.33c-22.28,0-40.73-1.3-47.76-5.17-29.54-16.25-53.3-40.96-70.63-73.44-23.53-44.11-69.71-68.08-88.47-76.33-2.7-1.19-6.64-2.94-11.53-5.11-35.83-15.92-131.03-58.21-155.9-64.12-27.48-6.53-77.87-2.27-97.49,12.01-10.4,7.57-16.21,20.36-21.33,31.66-4.46,9.82-8.31,18.31-14.27,21.29-12.68,6.33-21.39.18-21.75-.09l1.18-1.62c.33.23,8.12,5.68,19.68-.09,5.33-2.66,9.04-10.85,13.35-20.32,5.23-11.52,11.15-24.57,21.98-32.45,9.21-6.7,26.13-11.86,46.41-14.14,19.16-2.16,38.87-1.48,52.72,1.81,25.05,5.95,116.99,46.79,156.25,64.24,4.89,2.17,8.83,3.92,11.53,5.11,18.95,8.34,65.61,32.56,89.43,77.22,17.14,32.14,40.63,56.57,69.82,72.63,16.18,8.9,100.13,3.44,140.47.81,5.83-.38,10.87-.71,14.81-.94,17.33-1.01,33.93-11.45,44.8-20.04,12.5-9.87,23.07-21.75,28-29.15,3.73-5.6,4.84-11.11,3.22-15.93-1.77-5.25-6.28-8.47-9.9-9.72-5.32-1.84-7.17,1.38-12.74,12.82-1.44,2.95-3.07,6.3-5.07,10.1-9.43,17.91-31.42,26.74-32.35,27.1l-.73-1.86c.22-.09,22.24-8.93,31.32-26.17,1.99-3.78,3.61-7.11,5.04-10.05,5.3-10.88,7.96-16.34,15.19-13.84,4.07,1.41,9.14,5.03,11.14,10.97,1.28,3.79,1.72,9.93-3.45,17.68-4.65,6.98-14.89,18.92-28.43,29.61-11.1,8.76-28.08,19.42-45.92,20.46-3.94.23-8.97.56-14.8.94-25.27,1.64-63.15,4.11-93.8,4.11Z"/><path class="cls-1" d="m1072.8,731.29l-1.37-1.46c.18-.17,18.52-17.51,32.58-43.24,15.56-28.48,55.58-129.64,46.12-165.58-4.6-17.5-20.91-53.46-38.17-91.53-18.91-41.71-40.35-88.98-50.16-120.39-3.51-11.23-6.91-21.48-9.91-30.51-13.11-39.5-21.02-63.35-12.57-91.79,1.83-6.16,3.7-11.86,5.34-16.9,7.72-23.63,12.38-37.89.41-55.28-26.91-39.11-55.85-50.57-75.28-55.78-27.44-7.36-84.63-8.97-126.38-10.14-16.54-.46-30.82-.87-40.1-1.53-12.87-.92-26.03-1.27-38.76-1.62-19.67-.53-38.26-1.03-53.1-3.55-2.27-.39-4.48-.77-6.64-1.15-20.49-3.6-36.67-6.44-59.36,1.12-24.82,8.27-119.26,10.57-145.65,5.19-2.74-.56-6.14-1.24-10.06-2.03-32.5-6.54-100.14-20.14-120.27-28.49-21.57-8.95-80.54,7.04-110.09,21.54-21.42,10.52-42.53,38.7-39.29,65.89l-1.99.24c-2.61-21.85,12.1-54.02,40.39-67.92,15.26-7.49,37.48-15.02,57.98-19.63,24.46-5.51,43.56-6.2,53.76-1.97,19.95,8.28,87.46,21.86,119.9,28.38,3.93.79,7.33,1.47,10.07,2.03,26.22,5.35,119.98,3.09,144.61-5.12,23.16-7.72,39.57-4.84,60.33-1.19,2.15.38,4.36.77,6.63,1.15,14.7,2.5,33.22,3,52.82,3.52,12.75.34,25.93.7,38.84,1.62,9.23.66,23.49,1.06,40.01,1.52,41.86,1.17,99.18,2.78,126.84,10.21,41.2,11.05,63.34,37.58,76.41,56.58,12.53,18.21,7.75,32.83-.16,57.04-1.64,5.02-3.5,10.71-5.32,16.85-8.28,27.84-.44,51.46,12.55,90.59,3,9.04,6.4,19.3,9.92,30.55,9.78,31.29,31.19,78.5,50.08,120.16,17.3,38.15,33.64,74.18,38.29,91.85,9.58,36.44-30.65,138.39-46.3,167.04-14.22,26.03-32.78,43.57-32.97,43.74Z"/><path class="cls-1" d="m1073,731.03l-1.77-.94c.75-1.4,74.62-140.98,63.56-211.92-6.39-41.03-34.77-98.33-59.81-148.89-18.82-38-36.59-73.89-42.24-97.28-6.81-28.2-4.66-61.97-1.66-85.33,3.25-25.29,8.17-44.18,8.22-44.37l1.93.51c-.05.19-4.94,18.98-8.17,44.14-2.98,23.19-5.11,56.68,1.62,84.58,5.59,23.18,23.32,58.97,42.08,96.86,25.1,50.69,53.55,108.13,59.99,149.47,3.22,20.68,1.04,60.68-27.68,133.83-17.15,43.67-35.91,78.99-36.1,79.34Z"/><path class="cls-1" d="m955.5,771.38c-24.59,0-57.68-1.43-71.11-8.52-25.27-13.33-59.35-62.86-77.71-103.04-17.54-38.39-77.4-69.13-127.57-85.09-19.75-6.28-38.37-14.41-54.79-21.58-28.25-12.33-52.65-22.98-73.64-21.03-9.88.92-18.69.76-26.46.62-18.99-.33-33.98-.6-51.63,14.63-10.6,9.15-16.33,18.47-21.87,27.49-7.55,12.28-14.07,22.89-30.86,29.29l-.71-1.87c16.16-6.16,22.51-16.5,29.87-28.47,5.36-8.72,11.43-18.6,22.27-27.95,18.23-15.73,33.56-15.46,52.97-15.12,7.72.14,16.47.29,26.24-.62,21.5-1.98,46.12,8.75,74.62,21.19,17.18,7.5,34.95,15.25,54.6,21.5,50.58,16.09,110.97,47.17,128.78,86.16,18.22,39.88,51.93,88.97,76.82,102.11,25.46,13.43,135.66,8.42,174.41-.09,37.46-8.22,65.97-28.3,76.28-53.71,7.8-19.23,2.07-25.19-10.48-38.23-3.58-3.73-7.65-7.95-12.04-13.18-1.18-1.41-2.55-3.02-4.08-4.81-23.59-27.71-86.25-101.33-89.79-175.99-3.04-64.16,25.19-89,47.87-108.96,5.43-4.78,10.57-9.3,14.85-14,22.92-25.13,49.72-58.1,53.6-90.27,4.18-34.58-16.38-84.52-53.64-130.33-36.98-45.47-101.12-77.7-133.19-89.58-25.64-9.5-200.97-11.11-231.79-8.97-31.97,2.22-39.83-6.44-40.15-6.81l1.51-1.31c.07.08,7.78,8.25,38.5,6.12,30.9-2.14,206.8-.47,232.62,9.09,32.26,11.95,96.79,44.39,134.05,90.19,37.59,46.22,58.31,96.74,54.08,131.83-3.95,32.73-31,66.03-54.11,91.38-4.36,4.78-9.53,9.33-15.01,14.15-22.36,19.67-50.19,44.16-47.19,107.36,3.5,73.97,65.84,147.21,89.31,174.79,1.53,1.79,2.9,3.4,4.08,4.82,4.35,5.18,8.39,9.38,11.95,13.08,12.37,12.86,19.18,19.94,10.89,40.37-10.55,26.02-39.6,46.54-77.7,54.91-19.67,4.32-56.81,7.66-92.41,8.31-3.7.07-7.84.11-12.25.11Z"/><path class="cls-1" d="m516.5,780.11c-.92-.92-92.32-92.58-111.96-112.95-20.3-21.06-122.01-74.6-153.58-74.6s-120.74-9.16-140.97-21.69c-20.5-12.69-49.28-45.15-55.68-68-6.79-24.24,1.04-99.98,11.47-111.02,7.22-7.64,16.08-30.5,25.47-54.71,3.82-9.85,7.77-20.03,11.79-29.68,8.1-19.44,48.68-67.18,72.15-93.91,32.07-36.52,66.31-72.78,76.97-82.48,9.84-8.95,33.28-25.3,59.03-39.23,17.11-9.26,48.2-24.28,64.21-20.93,7.79,1.63,21.55,5.12,38.98,9.55,43.03,10.93,101.97,25.89,130.14,27.88,40.6,2.87,88.34-5.24,116.08-19.73,26.63-13.9,27.56-21.39,29.09-33.79.11-.89.22-1.8.35-2.74,1.78-13.33-12.62-25.71-12.76-25.84l1.29-1.53c.63.53,15.38,13.21,13.45,27.63-.12.93-.24,1.83-.34,2.72-1.56,12.6-2.58,20.93-30.15,35.32-28.48,14.87-75.56,22.89-117.15,19.95-28.35-2-87.39-16.99-130.49-27.94-16.72-4.25-31.15-7.91-38.9-9.53-27.06-5.66-102.52,42.44-121.49,59.69-10.63,9.66-44.79,45.85-76.82,82.32-40.38,45.99-65.89,79.14-71.81,93.36-4.01,9.63-7.96,19.8-11.77,29.63-9.46,24.39-18.39,47.43-25.88,55.36-9.89,10.46-17.49,85.92-11,109.11,6.28,22.42,34.62,54.34,54.81,66.83,19.96,12.36,108.49,21.39,139.92,21.39,14.61,0,45.43,11.15,82.44,29.84,33.07,16.69,62.91,35.35,72.58,45.38,19.62,20.36,111.02,112,111.94,112.92l-1.42,1.41Z"/><path class="cls-1" d="m604.03,242.65c-.73,0-1.47-.1-2.21-.3-11.85-3.26-24.1-12.87-37.08-23.04-4.18-3.28-8.5-6.67-12.88-9.89-17.44-12.85-165.21-52.8-190.61-57.88-23.12-4.62-131.89,26.94-149.3,32.74-7.64,2.55-10.38,3.12-11.55,1.54-1.56-2.12,1.41-6.27,11.28-20.02,1.96-2.74,4.17-5.82,6.62-9.26,20.89-29.45,104.04-94.75,121.16-103.31,11.15-5.58,37.05,5.16,62.09,15.55,14.43,5.99,28.07,11.64,38.9,14.34,31.61,7.87,133.19,11.5,153.23,12.14.69.02,1.4.03,2.11.03,29.8,0,75.97-19.32,82.66-39.61,6.8-20.61-1.18-29.39-1.26-29.47l1.45-1.38c.37.38,8.92,9.63,1.71,31.48-3.33,10.1-16.16,20.73-35.2,29.16-17.47,7.73-37.22,12.25-51.54,11.79-20.08-.65-121.85-4.28-153.65-12.2-10.97-2.73-24.67-8.41-39.18-14.43-24.63-10.21-50.1-20.78-60.43-15.61-16.59,8.29-100.24,74.22-120.43,102.68-2.45,3.45-4.66,6.53-6.62,9.27-6.56,9.14-11.74,16.37-11.28,17.69.83.54,6.76-1.43,9.29-2.27,17.49-5.83,126.82-37.51,150.32-32.8,20.77,4.15,173.08,44.72,191.41,58.23,4.4,3.24,8.73,6.64,12.92,9.93,12.81,10.05,24.91,19.53,36.37,22.69,12.69,3.49,26.71-34.51,33.45-52.77,1.07-2.9,2-5.41,2.81-7.49,3.63-9.34,21.13-31.18,36.85-48.68,20.36-22.65,37.89-38.68,46.89-42.86,3.37-1.57,7.38-3.65,12.03-6.07,11.44-5.95,25.67-13.35,42.26-19.35,19.7-7.13,37.67-10.42,54.86-10.08,14.06.28,50.87,1.64,88.98,8.17,37.53,6.43,63.56,15.68,77.38,27.47,30.71,26.23,43.21,53.11,43.33,53.37l-1.82.83c-.12-.26-12.46-26.76-42.81-52.69-13.54-11.56-39.25-20.65-76.41-27.02-37.98-6.51-74.67-7.86-88.68-8.14-.77-.02-1.54-.02-2.31-.02-37.65,0-72.72,18.24-93.85,29.23-4.67,2.43-8.7,4.52-12.11,6.11-18.89,8.79-76.03,73.23-82.73,90.45-.8,2.06-1.72,4.56-2.79,7.46-7.59,20.58-20.05,54.31-33.65,54.31Z"/><path class="cls-1" d="m963.78,779.99c-17.32,0-34.43-1.08-49.45-3.92-25.47-4.81-50.68-19.44-72.92-42.3-19.47-20.02-35.38-45.46-43.65-69.78-15.64-46.01-33.3-64.56-33.48-64.75l1.43-1.39c.18.18,18.13,19,33.94,65.5,8.18,24.05,23.92,49.21,43.19,69.03,15.3,15.74,40.19,35.75,71.85,41.73,53.83,10.16,137.51-2.8,155.34-6.55,18.37-3.87,69.51-35.76,78.28-69.5,5.65-21.73-2.64-27.93-15.18-37.32-6.78-5.07-14.47-10.83-21.39-20.28-5.63-7.69-12.73-16.06-20.24-24.91-18.86-22.24-40.24-47.45-52.16-76.97-17.01-42.15-5.62-102.81,2.78-129,4.15-12.93,25.91-31.95,48.94-52.09,24.23-21.19,49.29-43.1,54.05-58.34,8.91-28.51-1.83-65.29-23.38-119.18-9.33-23.33-28.51-49.13-55.47-74.61-22.85-21.6-50.55-42.31-78-58.32-25.93-15.12-108.88-19.9-173.9-21.25-70.55-1.46-135.77.71-136.42.73l-.07-2c10.64-.36,261.16-8.51,311.4,20.79,27.57,16.08,55.41,36.89,78.37,58.59,27.17,25.68,46.51,51.72,55.95,75.32,9.09,22.72,18.16,46.71,22.99,68.15,4.8,21.34,4.94,37.98.45,52.37-4.93,15.78-30.2,37.88-54.65,59.25-22.82,19.95-44.37,38.8-48.35,51.2-17.66,55.05-11.37,106.49-2.83,127.64,11.8,29.23,33.06,54.3,51.83,76.43,7.53,8.88,14.65,17.27,20.32,25.02,6.75,9.21,14.31,14.87,20.98,19.86,12.24,9.16,21.91,16.39,15.92,39.43-8.96,34.46-61.09,67.01-79.81,70.95-13.83,2.91-60.96,10.48-106.67,10.48Z"/><path class="cls-1" d="m1071.68,731.46c-.18-.09-18.01-8.83-37.71-21.48-26.52-17.03-43.59-32.63-50.76-46.38-12.36-23.71-17.52-95.36-22.07-158.58-1.72-23.89-3.34-46.45-5.19-63.21-6.62-60.02-70.56-112.04-98.71-126.56-13.12-6.77-52.73-10.4-105.92-9.72-48.12.62-92.02,4.64-106.78,9.78-19.97,6.96-39.26,32.85-56.27,55.69-9.12,12.24-17.73,23.8-25.75,31.63-24.27,23.69-45.07,9.8-67.82-9.31-23.37-19.63-34.43-68.62-24.6-88.29s100.4-51.55,104.27-52.93l.67,1.88c-.94.34-94.07,33.78-103.15,51.94-4.45,8.89-4.46,25.17-.04,42.49,4.77,18.68,13.56,34.49,24.14,43.37,21.99,18.47,42.07,31.93,65.14,9.41,7.91-7.72,16.48-19.22,25.55-31.39,17.19-23.07,36.67-49.22,57.22-56.38,31.02-10.81,183.95-15.58,214.27.06,28.45,14.67,93.08,67.3,99.79,128.12,1.85,16.79,3.48,39.38,5.2,63.28,4.31,59.91,9.68,134.46,21.85,157.8,16.73,32.1,86.86,66.63,87.57,66.98l-.88,1.8Z"/><path class="cls-1" d="m517.23,780.18l-.71-1.87c.72-.27,72.06-27.24,107.95-30.02,34.25-2.66,33.78-17.51,32.86-47.09l-.08-2.44c-.48-15.89-17.65-31.96-43.64-56.28-23.46-21.96-52.66-49.29-82.16-88.27-42.05-55.59-58-54.37-76.47-52.96-8.77.67-18.7,1.43-32.18-3.82-20-7.79-55.11-29.49-87.38-54-51.18-38.88-62.38-58.43-64.82-65.03-11.35-30.74,6.09-48.64,40.52-80.2,28.26-25.91,83.63-34.68,120.26-40.48,7.31-1.16,13.62-2.16,18.8-3.15,30.66-5.89,122.89-2.54,123.82-2.51l-.07,2c-.93-.04-92.94-3.38-123.37,2.47-5.21,1-11.54,2-18.87,3.16-36.4,5.77-91.4,14.48-119.22,39.98-33.78,30.97-50.9,48.5-40,78.04,11.19,30.31,110.58,102.1,151.04,117.86,13.05,5.08,22.33,4.38,31.3,3.69,19.05-1.45,35.5-2.71,78.21,53.75,29.39,38.85,58.52,66.11,81.93,88.02,26.36,24.67,43.77,40.96,44.28,57.68l.08,2.44c.9,28.9,1.44,46.34-34.71,49.15-35.6,2.77-106.69,29.63-107.4,29.9Z"/><path class="cls-1" d="m573.61,253.96c-1.68-.7-168.76-70.16-202.82-71.08-69.11-1.86-103.79,14.48-112.78,19.53-29.73,16.72-80.14,22.72-88.63,21.66-.79-.1-1.4-.55-1.71-1.26-3.27-7.58,36.94-63.21,45.03-74.29,8.94-12.23,31.92-37.09,56.92-59.06,21.4-18.81,51.27-41.77,72.05-44.28,20-2.42,43.04,6.71,65.32,15.53,19.92,7.89,40.53,16.05,59.06,16.11,12.86.04,31.79,1.78,51.83,3.61,41.33,3.78,92.78,8.49,115.12.33,29.32-10.7,42.87-27.75,43.93-55.28l2,.08c-1.09,28.46-15.05,46.06-45.24,57.08-22.76,8.31-72.29,3.78-115.99-.22-20-1.83-38.88-3.56-51.66-3.6-18.91-.06-39.69-8.29-59.79-16.25-22.05-8.73-44.85-17.76-64.34-15.4-37.28,4.51-110.21,78.75-127.59,102.54-4.16,5.69-18.64,25.69-30.33,43.96-16.25,25.4-14.69,28.18-14.45,28.41,8.16,1.02,58.67-5.18,87.49-21.39,13.71-7.71,32.3-13.31,55.24-16.62,22.9-3.31,44.49-3.55,58.57-3.17,34.43.93,196.65,68.37,203.54,71.24l-.77,1.85Z"/><path class="cls-1" d="m420.46,603.51l-1.91-.58c.09-.31,9.6-31.31,25.46-50.9,15.41-19.04,9.32-30.91-.98-45.61-3.73-5.33-22.8-15.6-44.88-27.5-38.02-20.48-85.34-45.98-99.48-68.52-22.38-35.69-24.78-59.72-8.26-82.94,12.55-17.65,64.88-34.41,106.93-47.89,11.63-3.73,22.62-7.25,31.19-10.31,38.1-13.63,144.37-17.19,145.43-17.23l.06,2c-1.07.03-107.02,3.59-144.83,17.11-8.6,3.07-19.6,6.6-31.25,10.33-39.56,12.68-93.74,30.04-105.91,47.14-15.97,22.44-13.56,45.83,8.32,80.72,13.86,22.09,62.91,48.52,98.73,67.82,23.22,12.51,41.56,22.39,45.57,28.11,10.45,14.92,17.15,27.94.89,48.02-15.61,19.28-25.01,49.92-25.1,50.22Z"/><path class="cls-1" d="m533.69,434.22c-8.97,0-15.07-2.66-28.54-8.55l-3.66-1.6c-14.24-6.19-25.68-20.57-36.75-34.48-7.98-10.02-15.51-19.49-23.33-24.77-12.42-8.38-36.16-28.82-37.12-46.18-.31-5.52,1.76-10.21,6.14-13.93,18.69-15.89,157.43-51.15,163.32-52.64l.49,1.94c-1.44.36-144.18,36.64-162.52,52.23-3.88,3.29-5.7,7.43-5.43,12.3.85,15.37,22.14,35.12,36.24,44.63,8.08,5.45,15.71,15.04,23.78,25.18,10.92,13.72,22.2,27.9,35.98,33.89l3.66,1.6c20.8,9.09,23.48,10.26,46.32,6.12,15.01-2.72,31.58-27.53,47.61-51.52,9.47-14.18,18.42-27.57,26.77-36,22.61-22.83,165.46-38.06,231.42-11.68l-.74,1.86c-29.02-11.61-77.95-16.3-130.88-12.54-48.14,3.42-87.67,12.97-98.38,23.77-8.22,8.29-17.11,21.61-26.52,35.7-16.26,24.34-33.07,49.51-48.91,52.38-8.29,1.5-14.04,2.3-18.94,2.3Z"/><path class="cls-1" d="m537.07,420.79c-11.72,0-25.02-3.32-39.34-10.02-30.78-14.4-58.3-48.95-69.71-67.1-13.45-21.4-10.28-24.74,7.33-43.27l.28-.3c17.79-18.72,133.22-46.85,138.13-48.03l.47,1.94c-1.2.29-119.76,29.17-137.15,47.47l-.28.3c-17.47,18.39-19.71,20.75-7.09,40.83,11.29,17.97,38.51,52.16,68.86,66.36,15.21,7.11,29.73,10.5,42,9.8,13.88-.8,24.85-6.66,32.6-17.44,7.41-10.29,19.75-45.07,34.04-85.35,17.89-50.44,38.18-107.6,54.88-133.71,15.41-24.08,38.14-49.12,62.36-68.71,26.85-21.71,52.86-34.38,73.25-35.68,39.45-2.52,151.45-2.86,195.36,25.44,41.88,26.99,47.87,38.31,48.11,38.78l-1.79.89c-.05-.11-6.25-11.47-47.4-38-22.82-14.7-64.92-21.02-96.22-23.72-37.56-3.25-75.21-2.85-97.93-1.4-19.98,1.27-45.59,13.79-72.12,35.24-24.06,19.46-46.64,44.33-61.93,68.23-16.58,25.91-36.82,82.96-54.68,133.3-14.34,40.42-26.73,75.33-34.3,85.85-8.75,12.15-21.79,18.3-37.74,18.3Z"/><path class="cls-1" d="m420.24,603.9l-1.47-1.35c.73-.8,73.01-79.95,79.71-109.53,4.98-21.99,24.11-17.87,40.99-14.24,7.32,1.57,14.23,3.07,19.64,2.46,18.01-2.01,62.52-30.35,71.84-48.45,1.27-2.46,2.59-5.11,3.97-7.86,9.22-18.44,20.69-41.38,34.83-47.8,10.6-4.81,41.18-6.19,68.16-7.41,13.95-.63,27.13-1.23,35.56-2.23,24.54-2.92,62.43-12.5,68.41-21.46,6.31-9.46,14.94-14.95,15.3-15.18l1.07,1.69c-.09.05-8.64,5.51-14.7,14.6-6.54,9.81-45.45,19.44-69.83,22.34-8.5,1.01-21.71,1.61-35.7,2.24-26.8,1.21-57.17,2.58-67.42,7.23-13.5,6.12-24.79,28.72-33.87,46.87-1.38,2.76-2.71,5.42-3.98,7.88-9.75,18.93-54.55,47.42-73.4,49.52-5.74.64-12.8-.88-20.28-2.49-16.75-3.61-34.07-7.33-38.62,12.73-2.87,12.67-17.25,35.11-42.74,66.72-18.93,23.48-37.27,43.52-37.45,43.72Z"/><path class="cls-1" d="m1023.76,834.86c-21.07,0-42.94-1.33-62.26-3.02-53.22-4.67-104.71-13.73-119.95-18.21-30.28-8.9-75.92-64.54-85.51-88.08-4.38-10.75-7.33-28.51-10.17-45.67-3.36-20.23-6.83-41.16-12.41-47.67-8.78-10.25-66.43-37.44-154.21-72.73-69.46-27.93-109.24,17.39-115.37,30.11-8.01,16.64-20.75,26.27-34.04,25.74-5.75-.22-9.52-1.79-11.21-4.66-2.12-3.58-.1-7.71,0-7.88l1.79.89s-1.62,3.35-.05,5.98c1.31,2.21,4.62,3.47,9.56,3.67,18.53.68,29.29-18.65,32.16-24.61,6.29-13.05,47.03-59.61,117.92-31.1,32.99,13.27,141.67,57.76,154.98,73.29,5.95,6.94,9.31,27.2,12.86,48.65,2.83,17.06,5.75,34.7,10.05,45.25,9.47,23.25,54.44,78.16,84.23,86.92,15.17,4.46,66.47,13.48,119.56,18.14,84.73,7.43,121.24-.14,136.95-7.81,54-26.33,90.89-57.89,96.28-82.36.86-3.9,1.92-8.23,3.04-12.81,6.08-24.78,14.4-58.72,3.48-79.11-8.15-15.22-33.49-44.88-55.85-71.05-13.02-15.24-25.32-29.64-31.57-38.2-16.54-22.63-43.57-118.23-44.71-122.29l1.93-.54c.28.99,28.08,99.31,44.4,121.65,6.21,8.5,18.48,22.87,31.48,38.08,22.42,26.25,47.84,56,56.09,71.41,11.28,21.06,2.85,55.43-3.3,80.53-1.12,4.57-2.18,8.88-3.03,12.76-5.51,25.05-42.82,57.13-97.35,83.72-17.01,8.29-45.55,11.02-75.74,11.02Z"/><path class="cls-1" d="m766,598.57l-2-.06c.01-.49,1.19-49.65-15.17-66.69-16.22-16.89-90.49-44.95-127.51-55.91-9.28-2.75-18.52-3.9-28.29-5.11-26.88-3.34-54.68-6.79-85.7-44.29-14.24-17.22-26.65-30.55-36.62-41.25-19.85-21.32-30.78-33.07-30.68-47.44.2-26.15,111.53-60.47,112.65-60.81,8.39-2.56,18.6-5,29.41-7.59,29.69-7.1,63.34-15.14,80.18-30.04,9.7-8.58,17.4-18.06,26.31-29.02,12.29-15.12,26.22-32.26,49.49-51.82,34.93-29.36,65.42-45.28,95.94-50.1,28.22-4.45,106.32,17.87,121.69,22.39,28.79,8.47,84.06,10.72,84.62,10.74l-.08,2c-.56-.02-56.08-2.28-85.1-10.82-15.29-4.5-93-26.72-120.81-22.33-30.15,4.76-60.32,20.54-94.96,49.65-23.13,19.44-36.99,36.5-49.22,51.55-8.97,11.04-16.71,20.57-26.54,29.26-17.22,15.23-51.12,23.34-81.04,30.49-10.78,2.58-20.96,5.01-29.29,7.56-16.66,5.09-44.31,14.82-67.4,25.49-28.62,13.23-43.78,24.78-43.84,33.42-.1,13.57,10.64,25.11,30.14,46.06,9.98,10.73,22.41,24.08,36.69,41.34,30.52,36.89,57.91,40.29,84.4,43.58,9.86,1.23,19.18,2.38,28.62,5.18,35.02,10.37,111.13,38.47,128.39,56.45,7.14,7.44,11.96,21.19,14.31,40.86,1.74,14.56,1.42,27.15,1.41,27.27Z"/><path class="cls-1" d="m527.59,765c-3.46,0-7.11-.53-11-1.72-16.83-5.17-41.3-39.1-59.17-63.88-7.09-9.83-13.22-18.32-17.11-22.53-13.25-14.32-84.82-63.12-108.69-72.71-13.64-5.48-61.42-23.36-103.69-23.36-4.72,0-9.7.05-14.96.1-35.85.35-80.47.8-96.57-14.31-4.49-4.21-9.66-8.45-15.14-12.93-16.21-13.27-34.58-28.31-38.53-46.74-2.76-12.87-5.31-51.01-.41-98.58,4.33-42.09,15.97-105.08,46.8-166.08,18.06-35.95,30.43-45.92,46.09-58.54,9.71-7.83,20.71-16.7,35.01-33.66,27.11-32.15,29.18-41.66,28.82-44.26-.08-.57-.28-.71-.28-.71,0,0,.03.02.11.04l.58-1.91c.17.05,1.06.38,1.45,1.7,1.19,4.01-2.91,15.32-29.14,46.43-14.43,17.11-25.51,26.05-35.29,33.93-15.47,12.47-27.69,22.32-45.55,57.89-30.69,60.73-42.28,123.46-46.59,165.38-4.87,47.33-2.35,85.2.38,97.95,3.8,17.74,21.89,32.55,37.84,45.61,5.51,4.51,10.71,8.76,15.24,13.02,15.51,14.57,59.69,14.13,95.18,13.77,5.27-.05,10.26-.1,14.98-.1,42.63,0,90.71,17.99,104.44,23.51,24.7,9.92,95.71,58.39,109.41,73.21,3.98,4.3,10.13,12.83,17.26,22.72,17.7,24.54,41.95,58.16,58.14,63.14,16.3,5.01,28.26-2.55,40.92-10.55,4.93-3.12,10.03-6.34,15.48-8.86,20.57-9.5,30.61-23.67,28.29-39.92-1.91-13.36-27.15-39.49-49.42-62.54-7.53-7.8-14.64-15.16-20.93-22.06-14.29-15.67-27.31-19.08-34.31-20.91-3.45-.9-5.35-1.4-5.75-2.98-.37-1.45.9-2.98,3.22-5.15,14.55-13.57,76.75-13.05,102.82-12.2,29.23.96,61.08,20.92,86.67,36.96,16.11,10.1,30.03,18.82,38.7,19.81,21.79,2.45,41.04-34.51,41.23-34.88l1.78.91c-.05.1-5.01,9.71-12.71,18.87-10.32,12.28-20.89,18.19-30.52,17.09-9.12-1.03-23.22-9.87-39.54-20.1-25.39-15.91-56.98-35.71-85.68-36.65-53.77-1.75-91.68,2.6-101.39,11.66-2.62,2.44-2.67,3.09-2.65,3.2.19.45,2.48,1.05,4.32,1.53,7.19,1.88,20.59,5.39,35.28,21.49,6.27,6.87,13.37,14.23,20.89,22.01,23.58,24.41,47.96,49.65,49.96,63.65,2.46,17.19-8,32.11-29.43,42.01-5.33,2.46-10.37,5.65-15.25,8.73-10.1,6.38-19.77,12.5-31.58,12.5Z"/><path class="cls-1" d="m765.86,599.06l-1.71-1.03c.13-.22,13.13-22.24,7.62-51.59-5.74-30.58-10.84-39.16-28.75-48.31-12.57-6.43-42.7-16.99-87.14-30.54-9.91-3.02-15.53-5.47-16.84-9.73-1.13-3.66,1-8.37,7.34-16.26,5.13-6.39,7.66-15.29,10.11-23.9,3.41-12,6.64-23.34,16.62-26.11,5.84-1.62,19.47-2.04,36.73-2.56,31.28-.96,74.11-2.27,97.36-11.91,35.91-14.89,44.78-20.88,49.51-45.61l1.96.38c-4.92,25.69-14,31.86-50.71,47.08-23.59,9.78-66.64,11.1-98.07,12.06-17.13.52-30.65.94-36.26,2.49-8.9,2.46-11.97,13.28-15.22,24.73-2.5,8.8-5.09,17.9-10.47,24.6-5.79,7.21-7.88,11.52-6.99,14.42,1.04,3.39,6.48,5.65,15.51,8.4,44.54,13.59,74.79,24.2,87.46,30.67,18.41,9.41,23.99,18.71,29.8,49.72,5.65,30.12-7.74,52.77-7.87,52.99Z"/><path class="cls-1" d="m764.35,599.3c-.96-.82-97.05-82.2-171.67-84.97-61.41-2.27-195.32-48.89-247.4-106.17-15.76-17.33-23.26-34.58-22.29-51.25,1.09-18.73,15.06-35.89,41.54-51.02,21.01-12,49.93-22.79,85.96-32.05,61.28-15.75,122.78-21.74,123.4-21.8l.19,1.99c-.61.06-61.98,6.03-123.11,21.75-56.16,14.44-123.6,40.26-125.98,81.25-.94,16.12,6.39,32.87,21.77,49.79,51.75,56.92,184.91,103.25,245.99,105.52,21.75.81,59.36,9.06,115.07,43.81,33.27,20.75,57.58,41.43,57.82,41.64l-1.3,1.52Z"/><path class="cls-1" d="m534.45,445.84c-2.93,0-5.88-.24-8.84-.72-20.25-3.26-37.61-17.28-48.6-28.46-11.87-12.08-19.09-23.56-19.17-23.67l1.7-1.06c.28.45,28.6,45.14,66.4,51.22,16.42,2.64,32.38-2.35,47.42-14.85,24.33-20.21,36.01-59.89,49.53-105.82,9.84-33.43,20.99-71.32,38.85-106.52,20.52-40.45,46.77-71.16,80.24-93.89,28.77-19.54,62.4-30.65,99.95-33.04,30-1.91,62.57,1.72,96.79,10.78,58.22,15.42,101.66,41.63,102.09,41.9l-1.04,1.71c-.43-.26-43.66-26.34-101.61-41.68-34-9-66.34-12.61-96.13-10.71-37.18,2.37-70.47,13.37-98.93,32.7-33.18,22.53-59.21,53-79.58,93.14-17.78,35.04-28.9,72.84-38.71,106.18-13.61,46.25-25.37,86.2-50.17,106.8-12.81,10.64-26.29,16-40.19,16Z"/><path class="cls-1" d="m1041.23,142.86l-1.91-.61c.08-.25,7.7-25.16-12.83-43.34-20.62-18.27-55.46-33.66-88.74-39.21-32.99-5.5-147.47-8.21-181.78-8.91-17.96-.37-53.53-5.48-84.92-9.99-27.89-4.01-54.24-7.8-64.75-7.82-24.47-.04-106.92-.64-140.44-6.48-13.84-2.41-30.49-6.86-46.6-11.16-23.73-6.34-48.26-12.89-64.89-13.29-30.95-.76-86.35,6.28-112.68,24.29-27.79,19.01-41,37.85-39.69,46.64,1.37,9.16,17.74,30.36,17.91,30.57l-1.58,1.23c-.69-.89-16.86-21.83-18.3-31.5-1.36-9.12,10.75-28.21,40.54-48.59C269.82,4.68,329.91-.56,354.43.05c16.87.41,41.52,6.99,65.36,13.36,16.06,4.29,32.67,8.73,46.42,11.12,33.37,5.81,115.67,6.41,140.1,6.45,10.66.02,37.07,3.82,65.03,7.84,31.33,4.5,66.84,9.61,84.67,9.97,34.33.7,148.94,3.42,182.06,8.94,33.63,5.6,68.86,21.18,89.74,39.69,21.52,19.06,13.49,45.19,13.41,45.45Z"/><path class="cls-1" d="m1073.03,730.96l-1.83-.8c23.96-54.89,19.63-105.01,19.58-105.51-1.84-12.75-14.73-25.21-28.36-38.39-6.57-6.35-13.36-12.92-19.16-19.77-11.26-13.31-13.19-42.42-13.34-58.58-.23-24.9,3.37-52.36,9.41-71.65,7.28-23.26,22.77-34.06,42.38-47.73,13.56-9.46,28.94-20.17,44.92-37.34,40.99-44.01,33.39-97.3,9.37-163.77-11.95-33.06-33.64-64.17-64.49-92.48-25.55-23.45-56.73-43.93-87.81-57.69-29.34-12.99-110.92-15.22-174.21-14.8-68.64.45-131.12,4.04-131.74,4.07l-.12-2c.62-.04,63.14-3.62,131.84-4.07,92.33-.59,151.22,4.43,175.04,14.97,31.28,13.84,62.65,34.46,88.36,58.05,31.08,28.53,52.96,59.91,65.01,93.28,14.14,39.12,20.4,68.99,19.7,93.99-.78,27.86-10.42,51.36-29.48,71.82-16.13,17.32-31.6,28.1-45.24,37.62-19.3,13.45-34.54,24.08-41.61,46.69-12.5,39.94-13.33,108.38,3.55,128.35,5.73,6.78,12.49,13.31,19.02,19.62,13.89,13.43,27.01,26.11,28.96,39.59.05.55,4.43,51.19-19.74,106.54Z"/><path class="cls-1" d="m1070.82,416.78l-1.15-1.63c.19-.13,19.15-13.55,39.69-34.09,18.91-18.91,43.06-47.91,50.74-78.63,7.54-30.14-.38-77.84-20.66-124.47-23.18-53.3-58.59-97.83-99.71-125.39-46.7-31.3-142.52-36.73-214.67-35.76-78.27,1.04-146.33,9.62-147.01,9.71l-.25-1.98c.68-.09,68.85-8.68,147.23-9.72,72.44-.96,168.68,4.52,215.81,36.1,41.43,27.76,77.1,72.6,100.43,126.25,20.45,47.02,28.41,95.21,20.77,125.76-4.3,17.21-16.69,44.98-51.29,79.58-20.66,20.66-39.74,34.15-39.93,34.29Z"/><path class="cls-1" d="m151.07,677.18c-4.9,0-9.75-1.29-14.79-3.91-1.05-.54-2.28-1.16-3.67-1.86-21.48-10.79-78.53-39.44-98.96-105.27-5.77-18.59-13.98-63.31-4.14-153.88,6.5-59.83,19.25-120.02,33.27-157.09,26.75-70.72,46.94-101.35,80-121.39,33.05-20.03,59.45-30.62,76.36-30.62v2c-16.54,0-42.58,10.49-75.32,30.33-32.63,19.77-52.6,50.15-79.17,120.39-27.16,71.79-50.99,239.09-29.08,309.67,20.18,65.02,76.68,93.4,97.95,104.08,1.4.7,2.64,1.33,3.69,1.87,15.85,8.2,27.98,2.38,47.62-12.89,11.41-8.87,56.76-8.05,96.76-7.33,26.11.48,50.78.92,58.98-1.69,19.87-6.32,71.72-90.39,78.03-106.16.83-2.09.88-3.82.13-5.3-2.42-4.79-12.82-7.49-28.57-11.57-9.55-2.48-21.43-5.56-34.62-9.98-29.07-9.74-132.61-25.53-191.74-34.07-1-.16-24.17-3.85-29.2-5.52l-.73-.24c-4.86-1.6-9.45-3.1-15.89-11.78-6.73-9.07-15.94-58.64-16.09-72.41-.33-30.61,7.55-67.34,20.07-93.56,17.52-36.71,94.25-125.76,111.6-139.86,18.8-15.27,76.12-35.76,102.7-33.93,25.3,1.74,177.14,29.41,208.75,48.83,15.88,9.76,24.95,18.87,32.24,26.2,6.86,6.89,12.28,12.33,20.64,15.87,8.45,3.57,23.25,2.08,39.58-4,17.76-6.61,34.65-17.41,47.53-30.43l.88-.89c28.18-28.46,63.25-63.89,106.93-77.59,43.92-13.78,83.61-13.78,132.71-.01,48.05,13.48,114.46,38.17,115.13,38.42l-.7,1.87c-.67-.25-67-24.91-114.97-38.36-48.69-13.66-88.04-13.66-131.57,0-43.21,13.56-78.09,48.78-106.11,77.09l-.88.89c-23.31,23.54-56.2,36.92-77.21,36.92-4.72,0-8.83-.67-12.11-2.06-8.72-3.69-14.26-9.25-21.28-16.3-7.22-7.25-16.2-16.27-31.87-25.9-29.26-17.98-178.78-46.54-207.84-48.54-26.21-1.8-82.75,18.42-101.3,33.49-17.27,14.03-93.62,102.65-111.06,139.17-12.4,25.97-20.2,62.35-19.87,92.68.14,13.25,9.31,62.63,15.69,71.24,6.06,8.17,10.16,9.52,14.91,11.08l.73.24c4.88,1.62,28.63,5.41,28.87,5.45,59.18,8.55,162.85,24.36,192.07,34.15,13.13,4.4,24.97,7.47,34.48,9.94,16.27,4.22,27.02,7.01,29.85,12.6,1.02,2.02,1,4.3-.06,6.95-5.18,12.96-58.14,100.6-79.28,107.32-8.51,2.71-32.19,2.28-59.62,1.78-37.71-.68-84.64-1.54-95.5,6.9-8.19,6.37-16.94,12.64-25.35,15.39-3.27,1.07-6.46,1.6-9.62,1.6Z"/><path class="cls-1" d="m420.46,603.51l-1.91-.58c.11-.37,11.26-37.13,10.26-49.68-.09-1.19-.15-2.3-.21-3.37-.55-10.19-.82-15.31-31.14-33.38-14.18-8.45-66.84-15.75-122.59-23.48-10.93-1.52-22.23-3.08-33.25-4.66-12.9-1.85-24.48-3.35-34.7-4.67-34.87-4.52-55.92-7.25-73.28-16.12-9.4-4.81-16.64-15.35-20.94-30.5-3.22-11.35-3.69-21.43-3.7-21.53-.03-4.52.15-8.57.53-12.08,2.94-27.21,11.39-80.23,24.44-106.34,12.87-25.73,102.33-138.98,124.32-159.46,21.12-19.67,79.97-58.98,112.47-60.84,16.83-.95,53.16,8.78,91.62,19.09,36.01,9.65,73.24,19.64,100.5,22.76,42.37,4.86,55.22-1.19,70.1-8.2,5.19-2.44,10.55-4.97,17.49-7.25,28.26-9.31,56.01-32.56,50.85-49.75-5.42-18.07-23.63-26.97-23.82-27.05l.86-1.8c.78.37,19.19,9.35,24.87,28.28,5.64,18.8-22.95,42.61-52.14,52.22-6.82,2.25-12.12,4.75-17.26,7.16-15.16,7.14-28.25,13.3-71.18,8.38-27.41-3.15-64.71-13.15-100.79-22.82-38.3-10.27-74.49-19.98-90.99-19.02-32.04,1.83-90.28,40.8-111.22,60.31-21.92,20.42-111.08,133.26-123.89,158.89-12.93,25.85-21.32,78.58-24.24,105.66-.37,3.43-.54,7.41-.52,11.82.02.35,1.97,39.26,23.55,50.3,17.05,8.72,37.97,11.43,72.63,15.92,10.22,1.32,21.81,2.83,34.72,4.67,11.01,1.58,22.31,3.15,33.24,4.66,55.96,7.76,108.81,15.09,123.34,23.75,31.23,18.62,31.53,24.09,32.11,34.99.06,1.05.12,2.15.21,3.32,1.03,12.93-9.88,48.89-10.34,50.42Z"/><path class="cls-1" d="m764.43,599.36c-.67-.47-67.62-47.64-102.09-73.83-27.88-21.19-98.5-22.96-140.7-24.03-10.02-.25-18.68-.47-24.67-.9-21.58-1.56-83.07-18.41-127.97-30.72-19.64-5.38-36.61-10.04-45.31-12.05-17.1-3.95-52.19-6.68-89.41-6.95-.99.21-6.55,1.05-26.63-.75-21.86-1.97-53.47-13.87-65.68-28.46-12.02-14.35-6.41-43.23-6.17-44.45,6.55-25.16,12.6-40.69,18.01-46.23,22.22-22.74,44.31-30.53,65.65-23.14,2,.69,201.78,70.95,226,93.02,11.29,10.29,21.07,22.6,29.7,33.46,8.43,10.61,15.71,19.77,21.65,23.42,11.57,7.12,48.3,15.86,74.32,6.47,28.95-10.45,52.32-41.88,61.03-54.91,2.81-4.21,5.25-8.49,7.62-12.63,8.57-15.03,16.67-29.22,39.45-33.67,15.27-2.99,43.83-4.2,71.46-5.37,23.71-1,46.11-1.95,56.72-3.95,22.42-4.22,49.46-22.64,49.73-22.83l1.13,1.65c-.27.19-27.66,18.85-50.49,23.14-10.75,2.02-33.22,2.98-57.01,3.98-27.55,1.17-56.04,2.37-71.16,5.33-21.88,4.28-29.4,17.45-38.1,32.7-2.38,4.17-4.84,8.49-7.69,12.75-8.81,13.19-32.5,45.02-62.01,55.67-26.61,9.6-64.19.65-76.05-6.64-6.24-3.84-13.62-13.13-22.17-23.88-8.58-10.8-18.31-23.05-29.48-33.22-21.27-19.38-185.74-78.91-225.31-92.61-20.55-7.11-41.93.51-63.56,22.65-5.16,5.28-11.04,20.52-17.49,45.28-.05.23-5.65,29.1,5.75,42.72,11.9,14.21,42.87,25.82,64.33,27.75,21.44,1.93,25.9.83,26.07.78l.28-.04c37.4.26,72.71,3.01,89.97,7,8.74,2.02,25.72,6.68,45.39,12.07,44.82,12.29,106.2,29.11,127.59,30.66,5.94.43,14.58.65,24.58.9,42.44,1.07,113.46,2.85,141.86,24.43,34.44,26.17,101.36,73.32,102.03,73.79l-1.15,1.63Z"/><path class="cls-1" d="m517.15,780.21l-.54-1.93c1.08-.3,108.43-30.81,115.38-65.22,1.54-7.62-2.12-15.01-10.87-21.98-19.37-15.43-36.72-37.39-55.09-60.64-35.26-44.63-75.23-95.22-146.94-127.43-33.35-14.98-77.79-24.71-135.88-29.74l-3.14-.27c-14.76-1.27-45.47-3.9-88.86-9.32-47.09-5.88-59.39-25.11-64.65-33.33l-.06-.09c-5.13-8.02-2.47-31.55-2.35-32.55,6.36-45.69,14.07-77.82,22.92-95.51,10.41-20.82,43.02-48.8,87.23-74.85,42.13-24.83,83.58-40.87,105.61-40.87,46.45,0,232.54,64.94,234.41,65.6l-.66,1.89c-1.87-.65-187.64-65.49-233.75-65.49-21.69,0-62.75,15.93-104.59,40.59-43.24,25.48-76.37,53.84-86.46,74.02-8.75,17.5-16.39,49.42-22.72,94.87-.02.21-2.7,23.79,2.05,31.21l.06.09c5.1,7.98,17.06,26.65,63.21,32.42,43.36,5.41,74.04,8.04,88.79,9.31l3.14.27c58.31,5.05,102.97,14.83,136.52,29.91,72.16,32.41,112.29,83.2,147.69,128.01,18.3,23.16,35.58,45.03,54.77,60.32,9.39,7.48,13.28,15.53,11.58,23.94-7.2,35.6-112.33,65.5-116.8,66.75Z"/><path class="cls-1" d="m1073.11,730.71l-1.98-.29c.07-.52,7.44-51.74,4.68-70.23-2.65-17.79-21.05-54.19-41.01-81.14-1.97-2.66-3.95-5.28-5.93-7.89-17.14-22.62-33.32-43.99-30.78-77.05.63-8.17.93-16.56,1.23-24.68,1.05-29.08,2.05-56.55,16.74-77.45,4.23-6.02,8.38-11.43,12.39-16.67,13.51-17.65,23.27-30.4,18.39-43.26-1.32-3.47-3.02-7.58-5-12.35-7.95-19.18-18.84-45.45-20.34-67.58-.17-2.46-.33-4.84-.5-7.16-1.65-23.44-2.84-40.37,1.45-61.82.75-3.78,1.61-7.19,2.44-10.48,4.26-16.93,6.6-26.25-17.75-36.15-31-12.59-130.46-42.88-170.81-36.46-41.55,6.61-115.88,47.08-137.89,81.02-13.55,20.89-35.88,33.47-47.98,39.1-17.2,8.01-35.01,12.03-44.35,10.02-8.36-1.81-15.61-7.88-24.01-14.9-9.35-7.82-20.99-17.56-38-24.47-33.52-13.62-165.73-52.34-189.15-51.42-22.69.87-78.38,4.88-105.28,23.23-25.72,17.55-100.54,114.98-107.29,136.18-5.35,16.82-26.49,91.26-24.3,121.35,0,.32.79,27.04,15.18,34.39,1.32.67,2.59,1.33,3.83,1.98,13.16,6.82,22.67,11.75,48.65,14.27,19.48,1.89,45.61,6.75,64.69,10.31,8.85,1.65,15.84,2.95,19.42,3.43l4.41.6c9.22,1.26,17.18,2.35,30.28,3.43,44.84,3.71,66.7,5.72,70.86,6.52,14.75,2.82,63.73,26.22,65.7,43,1.42,12.03-9.84,29.81-19.77,45.49-3.54,5.59-6.89,10.88-9.37,15.45-9.19,16.95-30.82,50.2-53.65,67.32-23.23,17.42-47.83,22.58-67.47,14.16-19.13-8.2-66.01-2.96-91.11,3.79-23.6,6.35-35.75,31.47-35.87,31.72l-1.81-.86c.12-.26,12.65-26.2,37.16-32.79,25.36-6.83,72.87-12.08,92.41-3.7,18.97,8.13,42.84,3.06,65.48-13.93,22.55-16.91,43.98-49.87,53.09-66.67,2.51-4.63,5.88-9.94,9.44-15.57,9.75-15.4,20.81-32.86,19.48-44.18-1.72-14.59-48.49-38.29-64.09-41.27-5.24-1-40.51-3.99-70.65-6.49-13.15-1.09-21.14-2.18-30.39-3.44l-4.41-.6c-3.64-.49-10.65-1.8-19.52-3.45-19.04-3.55-45.13-8.41-64.52-10.29-26.37-2.55-36.52-7.82-49.38-14.49-1.24-.64-2.51-1.3-3.82-1.97-15.45-7.9-16.24-34.93-16.26-36.08-2.21-30.35,19.02-105.16,24.39-122.05,6.8-21.37,82.17-119.56,108.07-137.23,27.32-18.64,83.46-22.7,106.33-23.58,24.26-.92,155.47,37.55,189.98,51.57,17.3,7.03,29.08,16.88,38.54,24.79,8.54,7.14,15.28,12.78,23.15,14.48,17.25,3.73,68.35-14.52,90.23-48.26,22.26-34.32,97.32-75.23,139.26-81.9,40.73-6.48,140.74,23.93,171.88,36.58,25.97,10.55,23.17,21.66,18.94,38.49-.82,3.27-1.67,6.66-2.42,10.39-4.24,21.18-3.05,38-1.42,61.29.16,2.32.33,4.7.5,7.16,1.48,21.81,12.3,47.9,20.2,66.95,1.98,4.78,3.7,8.91,5.02,12.41,5.28,13.9-5.29,27.71-18.67,45.19-4,5.22-8.13,10.62-12.34,16.61-14.35,20.42-15.34,47.6-16.38,76.38-.29,8.13-.6,16.55-1.23,24.76-2.48,32.3,13.48,53.38,30.38,75.69,1.98,2.62,3.97,5.25,5.95,7.91,17.55,23.7,38.37,61.8,41.38,82.03,2.8,18.78-4.38,68.7-4.68,70.81Z"/><path class="cls-1" d="m858.68,331.87l-1.97-.35c.05-.26,4.4-26-15.63-37.32-20.46-11.56-127.38-16.47-128.46-16.52-.01,0-4.46-.02-12.01-.63l-.21-.04c-16.41-4.97-25.76-11.33-28.6-19.45-2.37-6.77-.21-14.65,6.79-24.8,4.92-7.14,12.24-13.75,19.32-20.14,9.07-8.19,17.63-15.92,19.08-23.12.55-2.75-.86-5.18-4.19-7.21-9.61-5.87-32.14-6.04-42.01,1.83-1.05.84-2.19,1.76-3.4,2.75-14.53,11.82-41.58,33.82-61.66,19.09-5.61-4.12-10.98-8.62-16.65-13.38-15.8-13.25-32.13-26.95-57.13-35.57-34.92-12.04-159.96-42.67-186.37-41.76-6.35.22-14.69,2.06-24.34,4.19-30.67,6.77-72.67,16.05-102.81-14.58l1.43-1.4c29.36,29.84,70.74,20.7,100.95,14.03,9.75-2.15,18.17-4.01,24.71-4.24,26.51-.91,152.07,29.79,187.09,41.87,25.35,8.74,42.57,23.18,57.76,35.92,5.65,4.74,10.99,9.22,16.55,13.3,18.83,13.81,45.1-7.55,59.21-19.03,1.22-.99,2.36-1.92,3.42-2.76,10.61-8.46,33.95-8.28,44.3-1.97,4.07,2.48,5.83,5.7,5.11,9.31-1.58,7.85-10.38,15.8-19.7,24.21-6.99,6.31-14.22,12.84-19.01,19.79-6.6,9.58-8.68,16.89-6.54,23,2.61,7.45,11.5,13.4,27.19,18.16,7.41.6,11.75.61,11.79.61,4.46.2,108.52,4.98,129.4,16.78,21.28,12.03,16.66,39.15,16.62,39.42Z"/></svg>