<?xml version="1.0" encoding="UTF-8"?><svg id="Calque_1" xmlns="http://www.w3.org/2000/svg" viewBox="0 0 1280 773.3"><path d="m1280,398.14v2.02c-7.4,6.67-14.54,13.63-21.43,20.83-80.38,83.92-124.54,196.58-213.25,273.4-38.19,33.07-84.54,59.35-135.46,66.67-51.11,7.35-102.92-6.72-145.26-35.26-46.27-31.19-76.14-78.14-104.83-124.38-15.6-25.13-31.2-50.39-49.86-73.47-17.2-21.27-37.16-40.28-59.34-56.5-24.61-18.01-51.91-32.56-80.73-42.91-27.38-9.83-56.03-15.3-84.39-21.61-27.12-6.03-54.25-13-79.23-25.29-21.86-10.76-41.68-25.09-59.98-40.94-37.72-32.7-69.25-71.55-106.3-104.94C100.16,199.91,52.24,171.98,0,158.01v-1.53c10.19,2.75,20.22,6.07,30.09,9.81,49.8,18.9,92.24,49.29,129.77,86.21,35.73,35.16,68.08,74.23,108.71,104.22,21.14,15.61,44.24,27.83,69.33,36.11,27.1,8.94,55.29,14.01,83.08,20.38,56.37,12.91,108.39,36.16,151.97,74.19,41.71,36.4,69.24,83.36,98.25,129.48,29.78,47.35,63.45,92.57,114.23,119.7,48.78,26.06,105.11,31.93,158.05,15.22,51.05-16.11,95.27-49.26,131.06-87.86,76.54-82.56,121.11-189.89,205.46-265.8Z"/><path d="m1280,381.39v2.21c-7.04,7.59-13.96,15.29-20.75,23.09-40.01,45.94-73.87,95.78-107.21,146.47-30.34,46.12-61.78,92.67-102.78,130.44-37.4,34.44-84.03,61.78-134.88,70.93-49.96,9-99.19-2.98-140.3-31.99-45.09-31.82-75.26-77.48-103.58-123.46-15.73-25.54-31.34-51.3-50.12-74.83-17.88-22.39-38.77-42.32-62.31-58.92-24.45-17.25-51.48-30.97-80-40.41-28.31-9.36-57.81-14.38-86.83-21.08-26.92-6.22-53.14-14.36-77.6-27.23-22.42-11.79-43.06-26.62-62.44-42.76C171.62,267.55,106.05,173.31,0,147.64v-1.52c9.03,2.2,17.89,4.96,26.6,8.23,50.76,19.13,93.61,53.04,132.18,89.96,37.8,36.16,73.43,75.03,115.94,106.05,20.93,15.27,43.53,28.47,67.88,37.73,27.49,10.46,56.53,15.94,85.2,22.19,28.61,6.23,56.72,13.79,83.3,26.12,25.39,11.79,49.09,27.05,70.28,45.16,84.97,72.62,111.17,194.98,212.43,251.67,47.71,26.71,102.83,28.75,154.1,10.87,51.82-18.08,95.4-52.64,130.9-93.27,37.24-42.63,66.62-91.04,97.9-137.87,31.02-46.42,65.2-90.57,103.29-131.57Z"/><path d="m1280,414.83v2.01c-7.73,6.73-15.16,13.81-22.28,21.19-77.14,79.91-117.17,187.35-197.81,264.43-35.09,33.54-78.08,59.87-126.88,68.01-48.32,8.06-98.34-1.6-142.01-22.77-48.54-23.52-86-60.34-115.6-104.41-33.05-49.22-59.28-102.83-103.81-143.51-23.23-21.21-49.86-38.84-78.59-52.02-28.54-13.09-58.64-20.42-89.35-26.62-28.95-5.84-58.19-11.53-85.27-23.58-23.12-10.29-44.08-24.66-63.35-40.79-40.6-33.98-73.96-75.29-113.46-110.42C101.2,210.41,52.94,182,0,168.6v-1.56c9.41,2.35,18.69,5.17,27.81,8.46,51.92,18.7,96.52,51,135.46,89.07,37.47,36.63,71.47,77.52,114.67,107.99,23.03,16.24,48.21,28.2,75.5,35.77,29.21,8.1,59.36,12.21,88.69,19.82,57.09,14.81,109.32,45.83,148.96,88.92,39.4,42.83,63.5,96.29,97.81,142.77,31.93,43.26,75.03,77.52,126.09,96.49,47.84,17.77,100.96,21.15,149.66,4.6,49.04-16.66,89.17-50.74,122.19-89.24,69.9-81.51,110.84-185.68,193.16-256.86Z"/><path d="m1280,367.53v2.13c-6.97,6.9-13.7,14.06-20.2,21.42-75.92,85.99-118.81,196.42-202.78,276.07-71.85,68.16-184.59,108.02-274.77,49.26-44.27-28.84-75.3-72.59-103.53-115.87-33.38-51.19-65.88-102.62-116.22-139.54-24.25-17.78-50.97-32.22-79.04-43.28-27.74-10.93-56.64-17.62-85.62-24.48-27.76-6.57-55.21-14.11-80.8-26.81-22.62-11.23-43.51-25.55-63.12-41.28C172.48,259.82,106.41,165.06,0,138.45v-1.53c8.93,2.25,17.71,5.04,26.32,8.32,50.76,19.37,93.6,53.35,132.51,90.04,38.15,35.96,74.36,74.5,117.49,104.89,22.34,15.75,46.46,28.94,72.44,37.92,27.9,9.65,57.04,15.04,85.6,22.37,55.65,14.28,108.38,39.36,151.38,77.33,82.89,73.21,113.31,197.89,217.52,248.85,48.21,23.58,103.83,21.1,153.33,2.69,51.56-19.18,94.22-54.01,129.51-95.04,71.98-83.7,114.79-188.74,193.9-266.76Z"/><path d="m1280,349.05v2.23c-7.06,7.83-13.97,15.81-20.7,23.93-37.99,45.81-68.45,96.27-99.28,146.84-28.86,47.35-59.1,95.22-99.48,134.05-37.21,35.78-83.73,64.86-135.19,75.3-49.69,10.08-99.43-.67-141.37-28.37-93.36-61.65-130.57-173.58-211.55-247.03-22.07-20.02-47.24-36.3-75.36-46.79-28.15-10.51-57.87-15.91-87.14-22.41-27.15-6.04-53.82-13.44-78.97-25.39-24.09-11.45-46.49-26.07-67.62-42.16C177.91,254.21,107.48,161.1,0,130.73v-1.54c9.43,2.65,18.7,5.85,27.78,9.55,104.05,42.34,169.9,136.34,261.18,196.96,22.82,15.16,47.27,28.02,73.37,36.82,27.8,9.38,56.81,14.47,85.37,21,27.38,6.26,54.52,14.07,79.16,27.65,24.08,13.27,45.26,31.05,64.05,50.82,73.58,77.43,114.24,190.07,213.89,241.52,48.19,24.88,103.13,25.6,153.6,6.82,51.77-19.27,95.49-55.11,130.21-96.9,36.83-44.32,65.17-94.54,95.18-143.37,28.48-46.35,59.76-90.47,96.21-131.01Z"/><path d="m1280,335.52v2.22c-6.96,7.52-13.68,15.23-20.2,23.12-39.3,47.57-71.31,100.38-104.45,152.13-30.17,47.1-61.16,94.75-101.77,133.96-37.96,36.65-85.57,65.42-139.02,72.55-50.25,6.7-98.32-9.48-138.44-38.88-88.67-64.99-128.37-173.47-213.82-241.39-23.16-18.41-49.13-32.07-77.41-41.19-27.87-8.99-56.75-14.32-85.12-21.49-26-6.57-51.14-15.21-74.93-27.51-23.33-12.07-45.1-26.85-65.81-42.84C175.46,241.64,104.43,153.03,0,120.84v-1.56c8.65,2.66,17.15,5.74,25.49,9.22,102.09,42.58,169.46,132.87,258.49,194.09,22.02,15.14,45.44,28.45,70.42,38.27,26.41,10.37,54.25,16.37,81.85,22.76,26.96,6.24,54.04,12.96,79.2,24.62,24.54,11.38,46.54,27.37,66.17,45.7,78.34,73.14,119.55,181.06,214.16,237.98,21.22,12.77,44.65,22.06,69.3,25.81,27.87,4.23,56.42,1.09,83.2-7.31,53.88-16.92,97.83-53.72,133.43-95.94,38.12-45.2,68.4-96.34,100.15-145.9,29.7-46.35,60.51-92.49,98.14-133.06Z"/><path d="m1280,312.3v2.17c-7.04,7.26-13.76,14.79-20.21,22.57-71.76,86.49-108.04,196.03-184.12,279.54-32.12,35.26-71.32,65.01-117.63,79.52-50.64,15.87-107.06,11.72-155.02-10.69-106.47-49.75-139.66-173.85-222.47-248.45-22.38-20.16-48.1-35.34-76.74-45.22-27.47-9.48-56.16-14.75-84.51-20.96-27.72-6.07-55.02-13.38-80.84-25.19-25.26-11.55-48.8-26.45-71.04-42.89C180.16,238.22,107.61,145.92,0,113.7v-1.56c9.32,2.79,18.48,6.07,27.46,9.81,104.85,43.67,173.51,137.55,267.07,197.69,23.67,15.21,48.94,28.05,75.82,36.83,27.71,9.05,56.5,14.19,84.92,20.53,27.13,6.06,54.29,13.29,79.1,25.96,25.18,12.85,47.04,31.01,66.07,51.58,74.71,80.78,114.09,203.22,228.93,239.53,53.08,16.79,111.04,12.2,160.75-12.5,44.73-22.23,80.65-58.19,110.38-97.27,65.92-86.68,102.71-193.28,179.5-272Z"/><path d="m1280,294.46v2.27c-7.1,7.96-13.96,16.11-20.59,24.44-39.4,49.48-71.23,104.21-103.78,158.13-29.29,48.52-58.51,98.91-98.18,140.14-35.6,37.01-80.25,62.56-131.98,69.51-48.76,6.55-100-2.85-142.17-28.12-99.08-59.39-126.81-184.93-220.55-249.82-46.54-32.22-103.43-40.34-157.38-53.57-26.19-6.43-51.84-14.48-76.01-26.42-23.55-11.64-45.48-26.19-66.26-42.09C178.18,223.95,107.01,131.54,0,101.37v-1.55c8.97,2.52,17.79,5.53,26.44,9,103.86,41.58,170.57,134.56,260.82,195.73,22.51,15.25,46.55,28.39,72.21,37.77,26.18,9.57,53.53,15.48,80.7,21.6,26.65,6,53.42,12.18,78.84,22.26,24.25,9.61,46.34,23.09,65.79,40.26,82.35,72.73,113.96,195.76,219.57,243.73,47.41,21.54,102.96,25.09,152.97,10.53,53.75-15.64,95.01-53.09,127.99-96.39,36.07-47.35,65.06-99.73,95.93-150.4,29.61-48.6,60.61-96.81,98.74-139.45Z"/><path d="m1280,273.71v2.41c-6.11,7.61-12.12,15.3-18.01,23.07-35.96,47.41-67.93,97.55-98.15,148.65-28.82,48.74-57.23,98.57-96.2,140.35-34.46,36.95-77.78,68.02-128.07,79.63-50.33,11.62-105.16,3.49-149.63-22.5-99.21-57.98-128.92-182.17-223.03-245.66-45.97-31.02-101.83-40.49-154.88-53.47-26-6.37-51.7-13.83-76.15-24.7-24.66-10.97-47.92-24.77-70.08-40.01C176.8,220.29,102.98,134.23,0,94.94v-1.61c8.06,3.05,15.99,6.41,23.79,10.06,101.45,47.52,173.68,136.08,268.46,193.43,23.62,14.29,48.54,26.4,74.83,35.16,25.69,8.57,52.19,14.41,78.54,20.6,52.09,12.23,102.91,27.19,143.99,62.59,82.82,71.37,116.3,193.8,222.38,239.6,51.57,22.27,111.51,22.13,162.96-.3,49.6-21.61,89.31-60.35,121.07-102.81,34.57-46.21,61.38-97.46,91.73-146.32,28.26-45.5,58.61-89.81,92.25-131.63Z"/><path d="m1280,254.71v2.43c-5.5,7.01-10.87,14.11-16.13,21.29-35.28,48.11-65.43,99.58-96.3,150.46-29.12,48.03-58.25,97.24-95.33,139.89-33.35,38.36-74.97,69.92-125.88,81.07-51.54,11.28-105.5,1.9-150.32-25.35-94.61-57.54-136.41-168.83-225.89-232.2-47.48-33.63-104.08-43.37-159.73-56.45-26.29-6.18-52.18-13.66-76.79-24.78-24.66-11.14-47.87-25.17-69.96-40.62C176.18,209.24,102.95,123.29,0,86.53v-1.58c8.04,2.84,15.96,6.02,23.74,9.5,101.59,45.49,172.88,134.01,266.33,191.59,23.62,14.56,48.62,26.95,75.05,35.77,26.46,8.84,53.86,14.44,81.06,20.57,26.34,5.92,52.7,12.36,77.68,22.66,25.48,10.51,48.52,25.48,69.22,43.41,42.4,36.74,74.46,83.12,109.63,126.2,32.07,39.29,67.92,77.7,114.89,99.72,50.9,23.87,111.85,24.98,163.58,2.79,49.31-21.15,86.47-61.58,117.15-103.86,65.22-89.9,112.7-191.22,181.67-278.59Z"/><path d="m1280,245.97v2.43c-5.06,6.43-10.07,12.9-15.02,19.4-35.72,46.85-68.66,95.64-99.23,145.87-29.17,47.95-57.63,97.14-96.61,138.25-34.57,36.46-79.13,66.61-129.43,76.68-48.74,9.76-97.09-3.11-138.54-28.88-94.53-58.78-143.3-166.24-237.87-224.63-25.44-15.71-53.12-25.6-82.47-31.51-29.21-5.88-59.01-8.83-87.9-16.29-50.19-12.96-94.54-40.54-134.79-72.03C176.21,191.19,103.59,104.86,0,75.1v-1.55c8.58,2.45,17.03,5.32,25.34,8.61,101.29,40.08,170.11,127.58,256.69,189.09,20.82,14.79,42.78,28.15,66.16,38.66,25.99,11.68,53.23,18.61,81.31,23.39,28.91,4.93,58.28,8.47,86.2,17.71,26.16,8.66,50.23,22.45,71.95,39.08,85.33,65.32,135.23,169.58,233.76,219.3,23.28,11.75,48.68,19.49,74.89,20.93,26.18,1.43,52.32-3.58,76.6-13.13,51.68-20.34,92.81-59.1,125.57-102.45,33.8-44.73,60.33-94.26,90.58-141.27,28.24-43.88,58.61-86.44,90.95-127.5Z"/><path d="m1280,223.87v2.42c-4.33,5.64-8.64,11.3-12.89,17-34.8,46.67-66.54,95.29-96.22,145.25-28.6,48.13-57.19,97.39-96.77,137.81-34.17,34.89-77.48,63.69-126.41,73.25-49.06,9.58-98.1-3.37-140.81-27.44-96.7-54.51-154.61-155.75-251.9-209.15-26.22-14.39-54.31-23.19-83.62-29.16-28.55-5.82-57.58-9.71-85.6-17.86-49.35-14.36-92.65-42.73-132.07-74.59C174.26,177.2,102.38,92.21,0,64.28v-1.55c8.54,2.32,16.96,5.07,25.24,8.24,99.98,38.31,167.71,124.31,251.33,186.27,20.36,15.09,41.82,28.87,64.72,39.94,25.03,12.11,51.36,19.95,78.64,25.44,28.55,5.74,57.56,9.67,85.52,17.99,26.45,7.87,51.15,20.23,73.94,35.53,89.33,59.97,147.54,157.52,246.87,204.35,47.32,22.31,99.91,27.66,149.65,9.71,50.17-18.1,91.31-54.34,123.72-95.3,35.34-44.66,61.87-95.13,91.79-143.26,27.38-44.04,57.04-86.55,88.58-127.77Z"/><path d="m1280,201.58v2.26c-5.78,6.5-11.47,13.08-17.05,19.75-35.98,43.03-67.1,89.56-93.91,138.6-24.93,45.6-47.88,93.27-82.19,133.03-31.76,36.81-73.32,63-122.05,71.3-47.45,8.09-96.77.26-141.27-16.98-48.91-18.95-89.35-49.97-127.46-84.98-42.89-39.39-83.91-82.86-136.68-109.7-52.88-26.9-113.08-29.17-169.19-46.09-50.01-15.08-93.77-43.9-133.75-76.42C176.45,167.26,103.58,81.76,0,54.06v-1.55c8.58,2.28,17.03,5,25.34,8.13,101.27,38.19,169.84,124.79,254.02,187.72,20.99,15.69,43.13,30.03,66.79,41.54,24.97,12.14,51.33,20.15,78.46,26.07,28.23,6.15,56.86,10.58,84.72,18.26,27.05,7.46,52.39,18.66,75.9,33.81,48.19,31.05,86.79,73.88,129.56,111.34,39.63,34.7,83.86,62.61,135.08,77.49,47.14,13.7,98.7,16.28,145.65.37,49.83-16.88,87.03-54.07,115.5-96.51,30.16-44.95,52.18-94.55,80.52-140.56,25.87-42,55.53-81.69,88.46-118.59Z"/><path d="m1280,182.04v2.26c-6.29,7.06-12.43,14.26-18.42,21.58-36.07,44.17-65.74,92.37-92.92,142.2-25.47,46.7-50.96,95.19-90.37,132.25-34.72,32.64-78.92,52.1-126.57,57.19-47.87,5.12-96.83-3.4-141.38-20.83-46.58-18.21-85.61-47.1-123.06-79.31-41.18-35.41-81.82-73.24-132.75-94.61-52.3-21.94-109.76-26.84-163.46-44.36-49.94-16.3-93.68-45.32-134.02-77.98C177.1,155.71,103.19,72.31,0,44.92v-1.55c8.64,2.28,17.16,4.99,25.54,8.11,101.31,37.72,171.19,122.86,255.4,185.66,20.86,15.56,42.76,29.86,66.11,41.56,24.66,12.35,50.73,20.96,77.51,27.62,53.55,13.33,109.78,20.77,158.21,48.65,44.94,25.87,82.06,62.1,121.68,94.97,39.42,32.72,82.33,59.24,131.96,74.18,46.55,14.02,97.05,18.17,144.67,6.9,51.18-12.11,93-42.68,124.74-83.41,33.64-43.18,56.54-93.24,83.9-140.23,25.88-44.47,55.87-86.82,90.28-125.34Z"/><path d="m1280,163.58v2.29c-6.34,7.67-12.51,15.47-18.47,23.43-63.81,85.15-101.81,193.9-194.29,255.03-78.96,52.19-183.57,64.92-273.35,34.33-50.37-17.16-90.74-49.5-131.02-82.77-21.94-18.12-44.12-36.17-68.67-50.82-23.67-14.12-49.28-23.76-76.08-30.4-52.08-12.91-106.81-16.12-156.94-36.18-43.92-17.56-80.39-48.07-114.17-80.08-36.16-34.26-70.38-70.89-111.64-99.41C94.46,70.73,48.4,50.17,0,38.05v-1.56c8.69,2.14,17.32,4.56,25.86,7.27,48.68,15.43,94.31,39.77,133.93,71.6,37.49,30.13,69.77,65.82,105.47,97.87,18.15,16.29,37.24,31.67,58.11,44.48,21.82,13.38,45.38,23.15,70.13,29.92,51.13,13.98,104.94,16.92,155.14,34.44,50.82,17.75,90.9,52.87,131.68,86.26,21.66,17.74,43.86,35.15,68.49,48.78,22.18,12.28,46.08,21.45,70.77,27.49,96.09,23.52,204.57.11,278.39-65.81,40.64-36.3,69.67-82.87,97.27-129,26.13-43.69,52.41-86.79,84.76-126.21Z"/><path d="m1280,151.22v2.32c-6.01,7.24-11.9,14.58-17.68,22-62.17,79.85-113.77,172.56-198.33,232.43-83.53,59.16-192.28,70.96-287.05,31.51-48.13-20.04-91.19-49.59-135.59-76.31-23.23-13.97-46.99-27.26-71.98-37.96-25.61-10.96-52.22-18.08-79.63-23.14-26.76-4.93-53.84-8.55-80.17-15.53-22.24-5.89-43.5-14.56-63.56-25.69-39.27-21.78-73.24-51.45-106.27-81.32-34.36-31.09-68.24-63.17-107.09-88.9C92.22,63.85,47.18,44.26,0,32.4v-1.56c8.57,2.13,17.07,4.5,25.49,7.15,47.21,14.85,91.4,37.83,130.7,67.5,35.7,26.95,67.67,58.18,101.09,87.72,33.63,29.71,69.24,58.21,110.55,76.96,48.81,22.15,102.63,24.2,154.01,37.24,102.5,26.01,178.66,105.74,277.88,139.07,51.72,17.36,108.12,19.65,161.2,6.99,49.74-11.86,94.32-37.14,132.3-70.6,75.14-66.2,123.42-155.42,186.78-231.65Z"/><path d="m1280,116.93v2.71c-4.18,6.27-8.31,12.57-12.42,18.88-54.57,83.94-107.06,175.13-193.53,231.5-83.02,54.11-189.44,70.54-285.28,43.81-100.07-27.9-185.34-91.97-286.89-116-26.13-6.18-52.7-10.6-78.57-17.84-23.04-6.44-45.2-15.5-66.37-26.51-41.88-21.8-79.45-50.64-115.8-80.31C168.17,113.62,94.23,45.83,0,22.52v-1.55c7.39,1.8,14.71,3.9,21.94,6.29,92.45,30.6,163.06,99.6,237.29,158.57,37.08,29.45,76.15,57.3,119.79,76.63,48.45,21.47,101.26,26.1,151.56,41.56,97.44,29.95,181.64,93.42,282.39,114.12,100.67,20.68,209.01-5.78,288.4-69.88,77.07-62.22,124.77-150.37,178.63-231.33Z"/><path d="m1280,109.3v2.73c-3.95,5.79-7.95,11.56-11.99,17.29-29.49,41.87-61.24,82.21-95.08,120.78-31.25,35.63-64.25,71.18-106.43,94.47-41.53,22.93-89.21,35.43-136.19,41.53-51.3,6.65-103.71,4.96-154.42-5.17-47.25-9.44-91.11-27.52-135.2-46.21-24.18-10.24-48.47-20.33-73.56-28.24-24.77-7.81-50.12-13.69-75.41-19.61-48.43-11.35-96.09-23.92-139.98-47.66-41.41-22.39-78.67-51.31-115-80.82C165.42,100.45,92.09,36.13,0,14.39v-1.55c7.5,1.75,14.92,3.79,22.25,6.14,90.4,28.88,160.42,94.69,232.78,152.19,36.76,29.21,75.18,57.04,118,77.1,46.25,21.67,96.55,31.49,145.96,43.51,24.93,6.07,49.58,12.97,73.63,21.89,23.16,8.6,45.79,18.52,68.54,28.11,44.81,18.91,90.17,34.67,138.59,41.76,52.22,7.64,105.75,6.61,157.58-3.29,47.46-9.06,94.73-24.84,133.99-53.22,39.82-28.8,72.17-67.3,103.36-104.65,30.31-36.29,58.76-74.06,85.32-113.08Z"/><path d="m1280,103.72v2.96c-3.06,5.04-6.18,10.06-9.36,15.03-26.76,41.88-57.57,81.41-92.36,117.14-34.93,35.88-74.57,67.31-120.61,88.27-43.7,19.9-91.42,32-138.86,39.48-48.4,7.62-98.15,9.2-146.4-.23-47.39-9.27-90.21-31.2-134.52-49.11-47.04-19.01-96.52-29.89-145.7-41.96-47.87-11.75-95.28-25.5-138.58-49.27-41.37-22.71-78.37-52.17-114.5-82.09C168.05,85.11,93.69,19.74,0,1.52V0c7.57,1.44,15.08,3.22,22.5,5.32,91.84,26.01,162.24,92.68,234.05,151,37.14,30.16,75.95,58.98,119.58,79.51,45.16,21.26,94.14,32.69,142.55,44.33,24.18,5.81,48.36,11.69,72.15,18.91,24.12,7.32,47.39,16.55,70.53,26.44,45.09,19.27,89.44,38.11,138.82,43.62,49.14,5.48,98.95.68,147.17-9.26,47.6-9.82,94.99-24.06,137.24-48.17,44.96-25.65,83-61.58,116.77-100.09,29.43-33.58,55.62-69.8,78.64-107.89Z"/></svg>