<?xml version="1.0" encoding="UTF-8"?><svg id="Calque_17" xmlns="http://www.w3.org/2000/svg" viewBox="0 0 1290 1034"><path d="m1070.47,5c-41.31,11.35-82.41,23.56-123.21,36.65-39.2,12.59-78.37,26.37-114.25,46.83-35.28,20.12-66.34,46.54-96.56,73.44-28.95,25.77-57.81,51.6-87.98,75.95-58.77,47.42-121.61,90.48-190.02,122.84-34.31,16.23-69.92,29.58-106.54,39.59-39.17,10.7-79.18,17.95-119.25,24.37-76.43,12.25-153.9,21.64-227.66,46.01v-1.59c6.02-2,12.06-3.9,18.15-5.7,78.01-23.15,159.3-31.19,239.2-45.19,39.85-6.98,79.54-15.46,118.06-27.96,36.63-11.89,72.05-27.28,106.09-45.24,68.01-35.89,130.32-81.73,188.89-131.34,29.99-25.41,58.55-52.46,88.67-77.71,30.4-25.47,62.74-47.86,98.88-64.43,36.89-16.91,75.82-28.99,114.52-40.95,29-8.96,58.14-17.48,87.4-25.57h5.61Z"/><path d="m1062.17,5c-30.75,10.72-62.9,17.18-94.55,24.64-38.64,9.1-75.93,20.84-111.18,39.35-66.2,34.77-122.3,85.11-180.06,131.86-28.33,22.93-57.24,45.27-88.07,64.77-33.57,21.23-69.1,37.22-106.44,50.59-21.83,7.82-43.82,15.24-65.14,24.36-20.85,8.93-40.63,19.97-60.61,30.62-18.77,10.01-37.84,19.23-57.9,26.33-19.79,6.99-40.13,12.28-60.65,16.61-77.52,16.36-159.17,19.33-232.57,51.18v-1.64c4.92-2.15,9.9-4.17,14.92-6.06,78.12-29.43,163.04-30.15,243.29-51.02,20.95-5.45,41.57-12.29,61.3-21.24,20.65-9.37,40.28-20.77,60.38-31.23,39.71-20.68,82.4-33.18,123.89-49.54,71.54-28.21,131.62-75.95,190.46-124.34,56.41-46.39,113.36-94.35,180.65-124.29,36.31-16.15,74.83-24.9,113.39-33.77,21.51-4.95,43.11-10.17,64.04-17.18h4.85Z"/><path d="m1043.07,5c-.82.24-1.65.49-2.47.73-39.23,11.5-79.35,19.61-118.61,30.99-36.41,10.55-71.24,24.66-103.99,43.81-60.29,35.25-112.21,82.51-166.27,126.24-26.34,21.3-53.31,41.95-82.02,60-31.12,19.57-64.04,34.6-98.56,47.13-19.73,7.17-39.62,13.91-59.05,21.84-19.81,8.08-38.79,17.87-57.85,27.53-17.89,9.08-35.96,17.92-54.91,24.62-19.21,6.79-39.06,11.56-59.03,15.5-40.95,8.07-82.23,13.91-122.95,23.2-37.92,8.65-75.41,19.09-112.36,31.22v-1.58c6.1-2.01,12.22-3.97,18.35-5.88,40.71-12.68,82.07-23.27,123.86-31.72,40.58-8.2,81.9-12.98,122.04-23.25,20.69-5.29,40.64-12.47,60-21.49,18.45-8.61,36.35-18.34,54.67-27.2,37.27-18.02,77.04-29.48,115.28-45.09,65.92-26.91,121.88-71.22,176.27-116.23,52.65-43.56,105.21-88.74,166.62-119.67,61.64-31.05,129.93-41.63,195.61-60.7h5.37Z"/><path d="m999.99,5c-63.84,17.48-125.75,41.95-184.35,72.71-67.25,35.31-129.51,78.99-186.25,129.44-28.21,25.07-56.49,51.19-90.98,67.43-35.68,16.8-75.13,22.88-111.79,37-37.86,14.58-72.57,35.89-109.09,53.34-34.23,16.35-70.02,27.05-107.18,34.36-68.78,13.54-141.16,18.09-205.35,47.99v-1.68c3.19-1.49,6.42-2.92,9.67-4.29,69.57-29.26,146.36-31.43,219.08-48.59,18.42-4.34,36.63-9.64,54.27-16.52,19.28-7.52,37.81-16.8,56.15-26.35,35.29-18.38,70.1-37.03,108.33-48.63,38.78-11.77,77.91-20.6,112.22-43.25,32.24-21.29,59.45-49.18,89.01-73.86,57.55-48.03,121.07-88.87,188.55-121.49,48.92-23.66,99.91-42.96,152.22-57.61h5.49Z"/><path d="m987.65,5c-61.84,18.95-123.38,39.47-181.89,67.19-32.2,15.26-63.42,32.71-92.69,53.07-29.63,20.61-56.28,44.81-83.49,68.42-26.47,22.97-53.95,45.31-85.35,61.25-33.24,16.89-69.45,26.44-104.38,39.05-36.91,13.33-70.74,32.67-105.73,50.15-34.12,17.04-69.83,29.7-106.51,40-38.42,10.79-77.31,19.98-116.01,29.69-35.53,8.92-71.06,17.84-106.6,26.76v-1.55c5.21-1.31,10.42-2.61,15.64-3.92,39.91-10.02,79.83-20.04,119.75-30.06,38.11-9.56,76.45-18.57,113.94-30.42,19.14-6.06,38.04-12.91,56.39-21.06,17.63-7.83,34.7-16.84,51.78-25.78,17.07-8.93,34.2-17.83,51.91-25.44,16.72-7.17,33.94-13.05,51.19-18.79,36.17-12.02,71.99-24.22,104.14-45.17,30.12-19.63,56.69-44.02,83.7-67.58,26.6-23.2,54.16-44.85,84.2-63.47,30.08-18.64,61.78-34.58,94.25-48.6,49.01-21.17,99.66-38.04,150.66-53.74h5.1Z"/><path d="m965.27,5c-63.12,19.6-125.59,41.87-185,70.98-31.87,15.62-62.81,33.22-92.11,53.27-29.09,19.91-55.63,42.89-82.7,65.38-25.46,21.17-51.87,41.8-81.78,56.35-15.61,7.6-31.95,12.98-48.75,17.21-18.76,4.71-37.83,8.45-56.08,14.98-34.52,12.38-64.26,34.41-95.73,52.68-31.83,18.49-66.2,31.06-101.43,41.4-38.23,11.22-76.84,21.2-115.28,31.68-33.8,9.21-67.6,18.42-101.41,27.62v-1.55c3.99-1.09,7.99-2.17,11.98-3.26,39.46-10.75,78.92-21.51,118.39-32.26,37.68-10.26,75.75-19.68,112.8-32.06,18.28-6.11,36.3-13.11,53.57-21.69,16.08-8,31.35-17.48,46.58-26.97,15.37-9.56,30.77-19.17,47.04-27.16,16.15-7.95,33.01-13.56,50.46-17.93,18.69-4.68,37.68-8.43,55.85-14.98,16.08-5.79,31.36-13.65,45.85-22.69,29.2-18.23,55.17-41.02,81.48-63.08,26.6-22.29,54.15-43.12,83.68-61.42,30.2-18.73,61.82-35.1,94.22-49.67,49.78-22.38,101.27-40.54,153.33-56.83h5.04Z"/><path d="m942.8,5c-63.62,20.32-126.91,42.39-186.54,72.68-32.38,16.44-63.01,35.63-92.58,56.68-28.34,20.19-55.98,41.43-85.19,60.38-28.82,18.71-59.21,34.81-92.02,45.32-35.69,11.44-73.06,18.14-106.41,35.95-32.41,17.3-60.78,41.18-92.69,59.38-30.63,17.47-63.04,31.68-96.22,43.56-60.49,21.66-123.31,35.67-186.15,48.73v-1.53c1.21-.25,2.41-.5,3.62-.75,69.96-14.61,140.12-30.56,206.65-57.17,33.71-13.49,66.36-29.77,96.76-49.67,30.66-20.06,59.31-42.81,93.94-55.85,34.37-12.95,70.91-19.04,104.9-33.14,32.41-13.44,62.22-32.3,90.88-52.37,28.54-19.99,56.13-41.32,85.1-60.7,30.58-20.48,62.91-38.12,96.34-53.49,50.1-23.04,102.2-41.16,154.67-58.01h4.94Z"/><path d="m912.4,5c-29.76,13.37-61.48,21.76-92.22,32.52-34.51,12.07-68.17,26.52-100.71,43.19-31.84,16.3-62.59,34.72-91.98,55.11-29.07,20.18-55.89,43.96-86.64,61.62-14.6,8.38-30.01,14.77-46.28,19.12-16.52,4.42-33.42,7.14-50.17,10.52-17.24,3.48-34.53,7.67-50.52,15.19-16.26,7.64-30.05,19.06-43.48,30.82-24.9,21.82-50.98,41.35-79.98,57.47-28.22,15.68-58.04,28.35-88.52,38.94-57.53,19.97-117.22,32.62-176.9,44.28v-1.53c1.81-.35,3.61-.7,5.41-1.06,65.35-12.86,130.89-27.13,193.16-51.23,30.85-11.95,60.81-26.39,88.75-44.17,14.18-9.03,27.83-18.91,40.76-29.68,13-10.83,25.19-22.69,38.95-32.6,27.95-20.13,61.3-25.77,94.37-32.21,17-3.3,34.02-7.03,50.13-13.55,16.6-6.73,31.97-16.15,46.61-26.4,29.04-20.32,56.41-42.74,86.25-61.97,30.06-19.38,61.41-36.76,93.78-51.98,32.19-15.14,65.35-27.92,99.17-38.89,22.24-7.21,44.76-14.18,66.2-23.51h3.86Z"/><path d="m895.6,5c-20.43,10.24-41.98,18.31-63.54,25.81-33.59,11.7-67.29,22.78-100.01,36.83-33.53,14.4-66.14,30.95-97.56,49.51-30.47,18-59.08,39.04-89.9,56.45-15.16,8.56-30.93,16.06-47.47,21.54-16.62,5.52-33.74,9.28-50.63,13.84-17.75,4.8-35.28,10.6-51.24,19.89-15.05,8.77-28.53,19.9-41.72,31.2-25.25,21.63-50.93,41.8-79.79,58.47-28.25,16.32-58.1,29.7-88.66,41.03-58.47,21.67-119.29,35.89-180.08,49.35v-1.54c3.28-.72,6.55-1.45,9.83-2.18,64.76-14.46,129.65-30.23,191.22-55.4,30.71-12.56,60.52-27.53,88.32-45.69,14.36-9.39,28.1-19.64,41.23-30.67,12.62-10.6,24.84-21.7,37.96-31.69,13.46-10.26,27.85-18.88,43.65-25.02,16.28-6.32,33.32-10.37,50.2-14.7,17.69-4.54,35.14-9.6,51.81-17.14,16.07-7.28,31.33-16.18,46.23-25.58,29.97-18.9,59.11-38.82,90.16-55.95,31.51-17.38,64.1-32.77,97.54-46.05,45.59-18.12,95.02-30.4,139.27-52.31h3.18Z"/><path d="m866.89,5c-44.26,22.19-92.72,35.94-139.59,51.41-31.41,10.36-62.68,21.56-92.21,36.58-30.46,15.5-57.91,35.81-86.07,55-27.94,19.05-57.06,36.83-89.71,46.54-17.7,5.27-35.92,8.68-53.39,14.73-17.32,6-32.85,15.29-47.32,26.43-13.91,10.69-26.77,22.63-40.17,33.93-12.97,10.94-26.57,21.1-40.76,30.42-28.2,18.53-58.47,33.75-89.65,46.62-59.03,24.36-121.04,40.33-183.02,55.39v-1.55c2.68-.65,5.35-1.3,8.03-1.96,67.31-16.47,134.87-34.42,197.99-63.54,30.78-14.2,60.39-31.09,87.54-51.44,27.51-20.63,51.19-46.65,81.1-63.99,30.99-17.96,67.5-20.4,100.25-33.89,31.86-13.13,60.15-33.23,88.3-52.77,27.75-19.26,55.86-37.3,86.82-51.04,29.32-13.01,59.83-23.07,90.33-32.92,39.74-12.83,80.34-25.52,117.92-43.95h3.61Z"/><path d="m842.71,5c-48.69,22.85-101.22,36.9-151.76,55.05-30.97,11.12-61.52,23.88-89.69,41.03-28.38,17.27-52.89,40.16-81.47,57.1-14.03,8.33-28.9,14.54-44.67,18.67-16.34,4.28-33.05,6.79-49.57,10.16-16.75,3.42-33.53,7.74-48.76,15.7-15.24,7.96-28.3,19.3-40.61,31.18-11.95,11.54-23.4,23.57-35.96,34.46-11.91,10.33-24.48,19.86-37.58,28.61-26.18,17.5-54.33,31.85-83.37,43.94-56.1,23.37-115.18,38.39-174.26,52.11v-1.54c3.24-.76,6.5-1.52,9.74-2.28,63.3-14.91,126.79-31.74,185.93-59.35,28.82-13.45,56.5-29.5,81.76-48.9,13.23-10.17,25.58-21.32,37.44-33.06,11.6-11.47,22.99-23.24,35.89-33.27,12.93-10.05,27.23-17.48,42.84-22.41,16.04-5.06,32.67-7.82,49.16-10.94,16.5-3.13,33.06-6.59,48.65-12.97,15.75-6.44,30.21-15.63,44-25.52,13.57-9.72,26.61-20.18,40.22-29.86,13.24-9.42,27.13-17.83,41.56-25.29,28.36-14.67,58.4-25.81,88.59-36.07,42.91-14.58,86.96-27.59,128.2-46.55h3.73Z"/><path d="m843.48,1029h-2.07c-21.68-22.79-37.76-50.38-52.56-77.97-16.86-31.43-32.52-63.61-53.4-92.67-42.79-59.56-103.05-106.48-171.35-133.23-77.88-30.5-165.83-34.23-246.1-10.83-20.34,5.93-40.85,12.97-59.23,23.67-16.58,9.65-31.95,21.58-46.03,34.58-27.44,25.33-49.97,55.48-69.32,87.31-33.36,54.86-57.62,115-91.95,169.14h-1.66c40.6-63.56,66.86-135.34,110.15-197.32,20.92-29.95,45.52-57.51,74.85-79.46,16.11-12.06,33.29-21.87,52.1-29.08,19.53-7.49,39.73-13.39,60.21-17.6,79.74-16.4,164.4-7.12,238.33,27.08,65.66,30.38,122.52,79.57,161.78,140.36,32.78,50.76,53.81,112.24,96.25,156.02Z"/><path d="m852.91,1029h-1.93c-21.25-24.75-38.44-52.91-55.14-80.82-19.36-32.36-38.37-64.79-61.55-94.63-48.86-62.88-112.13-115.68-186.83-144.73-75.93-29.54-160.65-33.3-236.92-2.96-35.89,14.27-69.13,35.22-97.49,61.44-29,26.81-52.93,58.81-74.25,91.92-35.79,55.6-64.78,115.54-102.61,169.78h-1.78c45.03-64.2,77.19-136.44,123.16-200.03,22.3-30.85,47.76-59.56,78.19-82.63,30.55-23.14,65.35-40.77,102.16-51.47,78.14-22.7,162.39-11.12,235.27,23.42,71.18,33.74,130.48,88.98,175.96,152.73,21.95,30.77,40.06,63.97,59.92,96.07,13.24,21.39,27.28,42.8,43.84,61.91Z"/><path d="m861.44,1029h-2.27c-3.13-2.83-6.16-5.76-9.1-8.8-52.75-54.5-72.34-131.36-118.97-190.27-27.99-35.36-64.89-62.77-102.47-87.16-37.06-24.05-76.85-44.54-119.95-55.17-74.83-18.47-155.92-9.1-225.27,24.21-35.67,17.13-67.64,40.64-94.85,69.35-30.82,32.51-55.73,70-79.9,107.56-22.92,35.63-44.87,72.22-70.14,106.25-8.87,11.95-18.37,23.45-28.73,34.03h-1.88c19.09-19.39,35.06-41.97,50.06-64.56,24.47-36.87,47.47-74.72,72.32-111.35,24.25-35.73,50.95-70.54,84.1-98.54,28.88-24.39,62.18-43.39,97.63-56.47,71.4-26.35,152.01-28.94,224.15-3.91,42.89,14.88,82.2,38.69,119.06,64.87,34.79,24.71,66.66,53,90.6,88.6,39.78,59.18,61.48,132.93,115.61,181.36Z"/><path d="m867.65,1029h-2.23c-.52-.49-1.04-.99-1.56-1.49-52.49-50.65-75.05-122.9-113.71-183.15-43.56-67.9-110.73-115.18-184.82-144.89-39.5-15.84-80.08-31.04-122.6-36.06-20.78-2.45-41.88-2.36-62.55,1.05-22.72,3.76-44.24,11.56-64.77,21.87-37.49,18.83-73.83,41.85-105.27,69.72-32.68,28.97-61.43,62.4-86.16,98.34-37.78,54.9-68.96,117.05-118.98,161.92v-1.95c.55-.49,1.1-.99,1.64-1.49,58.37-53.74,90.32-128.91,139.03-190.44,26.35-33.28,56.42-64.08,90.61-89.33,17.38-12.84,35.61-24.54,54.39-35.22,18.49-10.51,37.53-20.43,57.77-27.12,39.96-13.24,82.27-12.92,123.09-3.93,20.86,4.59,41.25,11.14,61.29,18.48,19.41,7.11,38.78,14.6,57.55,23.25,35.65,16.43,69.36,37.38,98.98,63.2,28.93,25.21,52.61,54.92,71.96,87.98,33.35,56.98,57.22,123.62,106.34,169.26Z"/><path d="m878.93,1029h-2.24c-2.79-2.58-5.54-5.22-8.25-7.9-29.36-29.12-52.19-63.02-70.6-99.92-9.76-19.56-18.88-39.46-29.9-58.36-9.08-15.57-19.22-30.51-30.32-44.71-44.49-56.94-103.98-101.97-170.66-129.75-72.61-30.26-156.57-42.12-232.38-17.01-74.09,24.54-135.62,77.38-185.67,135.82-51.99,60.71-94.43,128.74-143.91,191.4v-2.39c2.81-3.55,5.59-7.12,8.35-10.71,52.32-68.03,97.68-141.83,156.93-204.31,51.98-54.82,116.48-102.32,191.43-118.85,41.21-9.08,84-7.39,125.27.44,35.16,6.68,69.37,18.14,101.6,33.68,64.67,31.18,121.48,78.83,162.73,137.66,10.9,15.55,20.58,31.87,29.25,48.77,10.55,20.53,19.94,41.65,31.32,61.76,17.79,31.44,40.51,59.93,67.05,84.38Z"/><path d="m893,1029h-2.75c-1.2-.83-2.39-1.7-3.55-2.6-27.88-21.45-44.66-53.9-61-84.23-18.74-34.78-38.6-69.01-61.16-101.47-45.51-65.47-102.9-122.73-176.35-155.87-73.62-33.2-157.71-41.96-236.36-23.26-75.57,17.96-144.59,59.8-195.39,118.55-29.77,34.43-54.9,72.89-81.14,110.01-23.44,33.14-46.87,66.27-70.3,99.42v-2.6c2.45-3.45,4.89-6.91,7.33-10.37,27.76-39.25,55.52-78.51,83.28-117.77,24.93-35.26,49.42-71.29,80.29-101.72,54.53-53.74,126.06-89.95,201.63-102.18,78.44-12.68,160.58,1.28,230.9,38.11,70.6,36.97,124.76,96.92,168.11,162.75,21.57,32.77,40.11,67.16,59.04,101.47,14.78,26.78,31.87,54.44,57.42,71.76Z"/><path d="m913.55,1029h-2.95c-1.41-.85-2.8-1.75-4.18-2.67-33.8-22.65-55.93-58.02-74.15-93.53-10.31-20.08-19.72-40.61-30.46-60.46-9.19-17-19.49-33.4-30.8-49.07-44.62-61.79-105.1-112.5-174.63-143.98-70.99-32.15-150.32-42.38-227.08-28.63-77.95,13.96-150.18,51.91-203.76,110.47-30.45,33.29-55.59,70.95-83.26,106.48-24.39,31.3-50.19,61.48-77.28,90.47v-2.18c2.89-3.09,5.76-6.19,8.61-9.31,31.74-34.69,61.41-71.13,89.46-108.85,26.39-35.49,52.44-71.77,85.36-101.63,56.44-51.19,129.77-81.9,205.18-90.51,76.28-8.71,153.3,6.12,221.53,41.08,67.31,34.49,125.13,87.08,166.98,149.98,24.29,36.53,40.53,77.21,62.11,115.24,17.11,30.16,39.28,59.29,69.32,77.1Z"/><path d="m929.59,1029h-2.87c-2.86-1.73-5.66-3.56-8.41-5.49-71.72-50.26-93.04-141.97-141.13-210.75-45.58-65.18-110.34-116.88-184.02-146.85-82.69-33.64-176.16-38.93-262.36-16.01-43.13,11.47-85.13,29.76-121.21,56.25-31.64,23.25-57.27,53.3-80.53,84.67-38.84,52.35-73.03,110.8-124.06,152.24v-1.86c1-.83,2-1.65,2.99-2.49,58.04-48.9,93.22-118.05,140.99-175.88,25.61-31.01,55.17-57.7,90.26-77.61,38.67-21.93,81.59-36.57,125.31-44.32,85.13-15.09,174.43-3.59,252.42,33.94,70.4,33.88,131.12,87.78,172.65,153.99,42.46,67.67,67.36,157.98,139.97,200.17Z"/><path d="m944.94,1029h-2.65c-3.14-2.19-6.23-4.44-9.28-6.76-31.31-23.79-57.76-53.74-77.48-87.75-21.52-37.1-36.32-77.61-59.44-113.85-40.84-64.01-99.32-116.58-167.15-150.66-75.92-38.14-163.15-51.59-247.18-39.7-42.81,6.06-84.83,18.63-123.66,37.72-38.92,19.13-72.83,45.16-101.39,77.77-28.29,32.3-53.54,67.29-79.81,101.22-23.04,29.76-46.75,58.94-71.9,86.92v-2.2c3.57-3.96,7.12-7.95,10.63-11.97,28.29-32.33,54.51-66.34,80.67-100.39,26.49-34.49,52.26-70.71,84.16-100.47,61.62-57.5,147.73-87.32,230.79-93.22,82.36-5.86,165.68,12.37,237.5,53.23,65.11,37.03,120.41,91.4,157.92,156.28,22.18,38.35,36.9,80.68,62.01,117.38,20.48,29.92,46.47,55.87,76.26,76.45Z"/><path d="m958.64,1029h-2.81c-4.89-3.15-9.65-6.51-14.26-10.08-72.48-56.12-100.68-147.48-149.97-221.28-46.03-68.92-113.58-122.62-190.48-153.28-78.94-31.47-166.11-36.87-248.49-16.19-41.39,10.4-81.2,27.09-117.53,49.5-36.57,22.56-68.41,51.08-96.98,83.05-45.65,51.09-84.07,109.2-133.12,157.06v-2.02c57.61-56.46,100.07-126.51,157.67-183.06,60.57-59.47,139.01-98.93,222.71-112.89,81.65-13.62,165.65-1.73,240.44,33.69,75.56,35.79,137.82,93.37,180.68,164.97,44.06,73.59,76.52,163.09,152.14,210.53Z"/><path d="m969.94,1029h-2.74c-3.97-2.65-7.89-5.4-11.73-8.25-34.89-25.83-63.82-58.67-85.73-96.1-23.58-40.3-40.64-84.09-66.61-123.04-45.35-68.01-110.88-122.13-185.72-154.84-78.01-34.09-165.07-42.86-248.45-25.88-85.57,17.42-163.33,60.77-223.39,124.06-51.61,54.39-91.48,118.59-140.57,175.03v-2.19c56.59-65.32,101.04-141.12,165.57-199.4,62.74-56.67,143.18-92.61,226.84-103.81,82.75-11.08,166.99,3.22,241.58,40.67,72.28,36.28,134.53,92.97,176.09,162.46,24.83,41.54,41.91,87.4,69.38,127.42,22.77,33.17,51.98,61.68,85.48,83.87Z"/><path d="m984.03,1029h-2.8c-3.87-2.51-7.69-5.1-11.44-7.79-33.69-24.08-62.41-54.68-84.49-89.7-23.13-36.69-39.57-76.99-59.91-115.18-10.34-19.42-21.73-38.37-35.38-55.67-13.77-17.45-29.84-32.97-47.18-46.83-35.91-28.69-77.06-51.51-119.39-69.2-83.79-35.03-177-48.4-266.54-30.4-42.54,8.55-83.8,23.85-121.17,45.98-36.66,21.71-68.18,50.21-96.22,82.12-47.12,53.61-85.22,115.04-134.51,166.66v-2.12c56.43-59.41,97.95-131.36,155.77-189.57,30.16-30.36,64.8-55.55,103.48-73.97,38.66-18.42,80.35-30.22,122.81-35.51,89.85-11.21,181.44,7.98,262.6,46.95,40.47,19.43,79.89,43.38,112.88,74.05,31.92,29.67,54.16,66.28,73.52,104.95,19.58,39.13,37.02,79.74,62.92,115.28,23.09,31.68,52.09,58.81,85.05,79.95Z"/><path d="m1015.03,638.02c-.92,13.44.68,27,6.82,39.12,10.73,21.2,31.62,35.33,53.39,43.4,25.86,9.58,53.77,12.52,80.74,17.54,43.4,8.07,86.46,17.99,129.02,29.73v1.55c-22.14-6.12-44.41-11.74-66.79-16.86-28.36-6.49-56.91-12.16-85.58-17.07-26.22-4.49-53.43-8.8-76.83-22.24-19.46-11.18-36.16-28.83-40.9-51.33-2.82-13.44-1.59-27.34.81-40.74,2.36-13.22,5.47-26.51,10.73-38.91,9.81-23.08,28.44-39.46,48.83-53.22,20.47-13.82,41.88-26.24,62.64-39.63,20.69-13.34,41.02-27.36,59.74-43.4,18.58-15.92,35.51-33.88,48.94-54.4,12.59-19.24,22.5-40.59,38.41-57.39v2.18c-2.58,2.79-5.02,5.71-7.32,8.74-14.78,19.43-24.87,41.93-39.81,61.29-14.71,19.06-32.33,35.65-51.2,50.53-18.84,14.85-38.89,28.06-59.16,40.86-20.44,12.91-41.71,24.91-61.15,39.33-9.71,7.21-18.9,15.3-26.36,24.86-8.28,10.63-13.71,22.93-17.43,35.82-3.76,13.03-6.61,26.7-7.54,40.24Z"/><path d="m1007.98,613.92c-2.02,13.91-2.23,28.54-.8,42.52,1.34,13.03,5.47,25.28,13.46,35.74,7.07,9.26,16.35,16.7,26.43,22.45,23.95,13.66,51.94,17.28,78.61,22.24,53.89,10.02,107.13,23.48,159.32,40.22v1.57c-3.58-1.15-7.17-2.29-10.76-3.41-28.38-8.85-57.07-16.72-86-23.6-28.56-6.79-57.35-12.06-86.17-17.58-25.15-4.82-50.81-11.68-70.75-28.59-8.62-7.31-15.88-16.35-20.3-26.81-5.29-12.48-6.07-26.24-6.08-39.62-.02-14.15,1.02-28.49,5.31-42.05,3.6-11.4,9.34-22.04,16.41-31.65,15.23-20.71,35.97-36.32,57.56-49.87,23.27-14.59,47.48-27.51,69.86-43.5,21.22-15.17,41.09-32.26,59.06-51.18,17.86-18.81,33.29-39.4,47.12-61.31,7.68-12.17,15.41-24.65,24.74-35.65v2.26c-12.92,15.55-22.58,33.69-33.97,50.32-14.34,20.95-30.95,40.32-49.24,57.92-18.12,17.45-37.89,33.17-58.82,47.12-22.71,15.14-47.09,27.58-69.66,42.92-20.75,14.09-40.21,31.18-52.82,53.15-6.47,11.28-10.64,23.53-12.51,36.39Z"/><path d="m996.05,607.27c-3.37,14.12-4.35,28.79-3.07,43.24,1.31,14.73,5.1,29.66,14.2,41.6,8.35,10.96,20.13,18.78,32.29,24.95,11.84,6.01,24.32,10.73,37.03,14.54,25.37,7.61,51.62,11.64,77.78,15.39,25.99,3.72,52.12,7.09,77.64,13.4,18.36,4.54,36.36,10.72,53.08,19.47v1.65c-23.4-12.42-49.19-19.42-75.09-24.36-26.48-5.03-53.29-8-79.88-12.31-26.17-4.24-52.37-9.77-76.96-19.92-12.16-5.02-24.15-10.99-34.48-19.22-10.81-8.6-18.68-19.66-22.87-32.85-4.37-13.78-5.41-28.77-4.51-43.13.89-14.17,3.96-28.23,9.35-41.37,10.39-25.31,29.44-44.77,51.3-60.61,23.13-16.77,48.5-30.23,72.35-45.93,26.54-17.48,52.17-36.45,76.43-56.99,11.71-9.92,23.05-20.55,31.64-33.37,8.43-12.58,14.11-26.7,21.34-39.96,8.21-15.09,18.85-28.74,31.38-40.38v2c-7.29,6.89-13.92,14.47-19.76,22.62-8.5,11.87-14.62,24.98-21.16,37.96-6.66,13.25-14.5,25.34-24.84,36.03-10.52,10.87-22.4,20.41-34.21,29.82-24.21,19.28-49.5,37.2-75.73,53.63-23.22,14.54-47.63,27.59-68.75,45.21-10.31,8.59-19.76,18.3-27.31,29.43-8.11,11.96-13.83,25.42-17.19,39.46Z"/><path d="m997.51,573.93c-14.74,25.45-17.14,56.87-11.5,85.34,2.76,13.92,8.14,27.29,17.73,37.93,8.66,9.6,19.77,16.58,31.33,22.17,12.58,6.09,25.86,10.79,39.06,15.34,14.93,5.14,30.12,9.67,45.71,12.32,16.14,2.76,32.53,3.39,48.81,4.88,15.3,1.41,30.36,3.97,45.19,8.03,24.54,6.72,47.99,16.66,71.16,27.1v1.64c-2.52-1.14-5.06-2.28-7.59-3.4-28.75-12.75-58.35-24.45-89.54-29.52-16.45-2.67-33.12-3.25-49.69-4.86-15.63-1.51-30.93-4.43-46.01-8.83-14.6-4.27-29.03-9.37-43.16-14.99-11.96-4.76-23.79-10.26-34.19-17.94-10.51-7.76-18.99-17.7-24.23-29.73-5.55-12.73-7.83-26.76-8.57-40.55-.78-14.67.51-29.56,4.72-43.67,3.8-12.77,10.11-24.56,18.33-35.03,16.08-20.5,38.14-35.38,60.1-48.89,27.73-17.06,55.79-33.59,83.69-50.36,12.83-7.71,25.72-15.39,37.78-24.28,11.86-8.74,22.56-18.75,31.71-30.31,18.07-22.81,30.36-49.45,47.37-72.97,5.78-7.99,12.17-15.75,19.28-22.7v1.78c-31.84,31.47-46.72,78.53-79.05,109.94-21.36,20.75-48.34,35.03-73.67,50.25-14.15,8.51-28.31,17.02-42.46,25.53-12.09,7.26-24.27,14.41-36.09,22.12-21.74,14.18-43.01,30.85-56.22,53.66Z"/><path d="m992.31,561.4c-13.5,26.41-10.81,58.08-8.51,86.66,1.24,15.39,3.64,30.66,11.7,44.1,6.8,11.35,16.58,20.69,27.53,28.01,25.35,16.92,55.7,22.18,85.4,25.8,16.01,1.95,32.06,3.59,47.94,6.42,16.16,2.88,32.14,6.73,47.91,11.26,27.43,7.88,54.21,17.79,80.72,28.3v1.61c-3.71-1.47-7.42-2.93-11.14-4.37-31.08-12.08-62.69-23.09-95.2-30.67-16.55-3.86-33.27-6.63-50.14-8.67-16.3-1.98-32.66-3.59-48.8-6.65-27.01-5.13-54.09-15.07-73.7-35.1-9.18-9.37-16.08-20.71-19.6-33.38-4.15-14.93-4.66-30.96-5.44-46.36-1.43-28.19.24-58.45,18.93-81.24,9.24-11.26,21.32-19.82,33.63-27.43,12.08-7.48,24.55-14.35,37.07-21.06,24.89-13.34,50.19-25.97,74.26-40.76,23.89-14.68,46.61-31.67,65.02-52.98,17.41-20.16,30.09-43.73,44.56-65.96,8.93-13.73,18.74-27.14,30.55-38.42v1.98c-16.25,15.8-28.37,35.44-40.23,54.61-13.81,22.3-27.84,44.23-46.82,62.57-19.57,18.93-42.43,34.06-65.95,47.59-24.17,13.89-49.2,26.21-73.58,39.71-24.64,13.64-52.76,28.32-66.11,54.43Z"/><path d="m982.33,569.99c-3.65,16.79-4.73,34.47-4.81,51.61-.08,17.6,1.36,35.23,4.38,52.57,2.58,14.77,6.64,30.17,16.61,41.81,9.61,11.23,23.56,17.3,37.43,21.45,28.93,8.65,59.24,12.94,89.03,17.47,29.87,4.54,59.84,8.85,89.19,16.11,24.52,6.07,48.57,14.36,70.84,26.29v1.69c-3.12-1.7-6.27-3.32-9.46-4.87-27.42-13.34-57.06-21.32-86.87-27.19-30.23-5.95-60.81-9.8-91.19-14.85-15.15-2.51-30.26-5.32-45.21-8.84-14.07-3.32-28.52-7-40.97-14.61-12.24-7.48-20.5-18.67-25.32-32.08-5.36-14.89-7.38-31.14-8.78-46.82-1.55-17.51-1.58-35.16-.06-52.67.73-8.41,1.7-16.86,3.28-25.15,1.46-7.71,4.09-14.78,8.78-21.12,8.37-11.33,19.55-20.98,30.64-29.56,11.23-8.7,23.23-16.36,35.54-23.44,24.93-14.36,51.09-26.41,76.16-40.5,26.48-14.87,51.05-32.46,71.78-54.79,10.48-11.3,19.82-23.54,28.2-36.46,7.54-11.65,14.48-23.68,21.86-35.43,9.14-14.53,19.19-28.91,31.62-40.71v1.97c-17.24,16.65-29.47,37.96-41.84,58.31-7.3,12.02-14.76,23.95-23.34,35.11-9.22,11.99-19.49,23.17-30.67,33.36-21.4,19.5-46.09,34.45-71.58,47.95-25.09,13.3-50.87,25.44-74.93,40.59-11.9,7.5-23.35,15.75-33.83,25.15-5.36,4.81-10.56,9.89-15.24,15.37-5.63,6.59-9.39,13.8-11.24,22.28Z"/><path d="m974.81,591.56c-2.06,14.47-2.24,29.2-2,43.78.23,13.61,1.15,27.28,4,40.61,2.76,12.92,7.43,25.63,15.34,36.34,8.75,11.85,21.11,19.96,34.78,25.12,13.76,5.2,28.34,7.76,42.77,10.31,15.68,2.76,31.39,5.36,47.08,8.06,31.19,5.37,62.36,11.11,92.96,19.26,25.79,6.87,51.14,15.53,75.26,26.95v1.64c-3.14-1.5-6.31-2.95-9.49-4.36-29.56-13.05-60.75-22.07-92.23-29.16-31.71-7.14-63.8-12.34-95.83-17.81-15.12-2.58-30.39-4.85-45.27-8.61-13.74-3.47-27.37-8.56-38.59-17.42-21.28-16.81-28.8-44.08-31.2-69.99-1.31-14.06-1.41-28.29-.92-42.4.5-14.4,1.97-28.95,6.3-42.75,4.41-14.1,12.01-26.36,22.64-36.6,11.48-11.08,24.36-20.99,36.88-30.85,12.58-9.92,25.56-19.37,39.44-27.4,13.89-8.04,28.68-13.81,43.56-19.71,15.1-5.99,29.63-12.81,42.45-22.93,11.39-8.99,21.27-19.75,30.23-31.13,18.06-22.93,32.39-48.52,50.24-71.61,11.93-15.44,25.58-29.97,41.79-40.75v1.72c-22.47,15.12-39.48,37.18-54.61,59.32-16.04,23.46-30.74,48.11-50.49,68.76-9.72,10.16-20.67,19.22-32.97,26.1-13.73,7.67-28.68,12.72-43.17,18.68-30.32,12.48-56.17,32.16-81.3,52.86-12.11,9.97-25.07,19.73-33.66,33.09-7.9,12.27-11.95,26.54-13.99,40.88Z"/><path d="m971.13,578.98c-7.59,30.48-5.6,62.7-.19,93.37,2.53,14.3,5.82,28.76,12.39,41.81,6.8,13.49,17.18,24.03,30.93,30.41,14,6.5,29.56,8.96,44.67,11.36,18.04,2.87,36.17,5.06,54.3,7.27,58.67,7.15,120.13,15.16,171.77,45.44v1.73c-1.76-1.05-3.53-2.06-5.32-3.05-28.67-15.9-60.46-25.37-92.48-31.72-35.3-6.99-71.18-10.24-106.8-15.04-16.79-2.26-33.88-4.37-50.26-8.78-13.94-3.75-27.38-9.92-37.22-20.76-9.45-10.42-15.05-23.7-18.78-37.11-3.97-14.3-6.31-29.17-7.9-43.91-3.28-30.56-2.01-62.57,9.99-91.25,11.53-27.55,32.95-48.71,57.31-65.29,26.37-17.94,55.74-30.61,83.65-45.82,14.57-7.93,28.81-16.59,41.78-26.98,12.58-10.07,23.75-21.74,34.18-33.98,20.59-24.2,38.41-50.75,60.71-73.47,9.5-9.67,19.86-18.73,31.14-26.31v1.58c-43.73,29.43-70.16,79.83-106.88,116.88-22.57,22.78-49.95,38.61-78.31,53.1-27.55,14.07-55.8,27.47-80.03,47.02-11.59,9.35-22.18,20.06-30.57,32.41-8.47,12.48-14.44,26.47-18.08,41.09Z"/><path d="m963.47,579.88c-9.24,27.5-12.1,57.26-7.52,85.95,4.89,30.58,18,63.33,44.19,81.62,26.44,18.48,60.32,21.04,91.45,23.91,35.13,3.23,70.28,7.32,104.8,14.77,30.5,6.59,60.48,15.93,88.61,29.48v1.65c-4.71-2.29-9.48-4.47-14.3-6.53-33.23-14.19-68.56-22.85-104.14-28.72-18.06-2.98-36.24-5.24-54.45-7.15-16.69-1.74-33.46-2.89-50.1-5.15-15.54-2.11-31.09-5.29-45.55-11.53-14.36-6.2-26.88-15.59-36.38-28.06-18.27-23.98-26.62-55.63-27.66-85.42-1-28.78,4.98-57.75,17.02-83.89,12.16-26.4,30.58-49.4,53.92-66.75,24.97-18.57,53.73-30.99,81.46-44.73,27.73-13.75,55.21-29.27,75.81-52.88,11.69-13.4,21.09-28.55,31.19-43.13,9.52-13.74,19.91-26.7,32.31-37.97,12.32-11.2,26.1-20.74,40.87-28.35v1.67c-21.93,11.41-41.62,27.15-57.45,46.14-11.17,13.4-20.33,28.3-30.34,42.56-9.35,13.33-19.62,25.87-32.07,36.44-22.98,19.51-50.5,32.47-77.43,45.52-27.29,13.22-55.15,26.86-77.63,47.62-21.46,19.8-37.33,45.31-46.61,72.93Z"/></svg>