<?xml version="1.0" encoding="UTF-8"?><svg id="Calque_1" xmlns="http://www.w3.org/2000/svg" viewBox="0 0 1280 807.62"><path d="m731.37,807.62h-4.84c-1.48-.5-2.97-1-4.45-1.5-59.89-20.35-117.88-46.37-172.57-78.15-55.8-32.43-108.18-70.88-155.2-115.08-24.13-22.69-46.81-46.85-67.95-72.35-21.42-25.84-41.38-52.83-61.03-80.02-39.49-54.67-77.92-110.68-124.88-159.38C100.25,259.45,53.56,222.58,0,199.7v-1.64c3.59,1.52,7.16,3.1,10.7,4.75,55,25.66,102.39,65.7,143.01,110.26,45.54,49.97,83.38,106.26,123.14,160.74,20.07,27.5,40.7,54.64,63.04,80.35,21.91,25.22,45.44,49.05,70.37,71.3,48.32,43.1,101.69,80.39,158.42,111.61,51.87,28.55,106.46,52.01,162.69,70.55Z"/><path d="m758.86,807.62h-5.18c-1.68-.52-3.36-1.05-5.04-1.58-66.02-20.85-130.34-47.48-190.82-81.21-60.47-33.72-117.18-74.47-167.17-122.4-23.55-22.58-45.58-46.73-65.72-72.39-21.47-27.36-40.74-56.33-60.03-85.24-35.2-52.77-72.28-104.17-117.31-149.21C104.96,252.96,55.82,215.82,0,192.36v-1.64c4.6,1.91,9.15,3.92,13.67,6.03,55.94,26.07,104.72,65.56,146.99,110.09,21.46,22.61,41.36,46.67,60,71.64,19.26,25.8,36.89,52.64,54.78,79.37,19.5,29.14,39.42,58.02,61.81,85.05,21.24,25.64,44.42,49.66,69.05,72.07,51.55,46.86,109.65,86.39,171.27,118.85,57.84,30.46,118.82,54.63,181.29,73.8Z"/><path d="m793.47,807.62h-5.66c-.97-.27-1.94-.55-2.91-.83-68.87-19.99-134.09-50.64-198.54-81.62-63.2-30.38-126.45-63.17-178.72-110.6-50.42-45.75-87.01-103.86-123.74-160.5-19.85-30.61-39.94-61.16-62.65-89.76-20.08-25.29-42.28-48.9-66.23-70.57C108.98,252.07,56.5,217.68,0,191.89v-1.66c5.13,2.32,10.23,4.71,15.29,7.18,57.13,27.9,109.86,64.81,155.51,109.02,23.54,22.8,45.03,47.54,64.58,73.82,21.39,28.75,40.71,58.96,60.17,89.01,37.21,57.43,76.02,114.48,129.43,158.29,54.96,45.09,119.69,76.22,183.55,106.53,59.92,28.45,120.87,55.84,184.94,73.54Z"/><path d="m850.33,807.62h-7.06c-32-7.1-63.61-15.91-94.79-26.07-71.25-23.21-141.21-52.55-207.83-86.83-33.17-17.06-65.34-36.26-94.56-59.5-14.49-11.52-28.1-24.11-40.97-37.41-6.3-6.5-12.39-13.2-18.35-20.01-3.2-3.66-6.34-7.37-9.45-11.11-1.56-1.87-3.11-3.76-4.65-5.65-.33-.4-2.97-4.31-3.12-4.31-.41,0-.75-.35-.75-.76,0-.91-3.94-4.71-4.63-5.59-1.23-1.56-2.45-3.13-3.66-4.7-2.74-3.56-5.44-7.13-8.13-10.72-5.75-7.69-11.39-15.47-16.94-23.3-12.37-17.45-24.36-35.16-36.37-52.86-21.63-31.85-43.4-63.7-67.64-93.65-21.52-26.57-45.11-51.44-70.51-74.35C112.86,247.46,58.47,211.28,0,183.5v-1.67c4.62,2.17,9.21,4.4,13.77,6.69,60.69,30.42,116.72,70.1,165.45,117.31,25.13,24.35,48.1,50.74,69.21,78.63,23.09,30.49,44.24,62.36,65.78,93.94,10.84,15.89,21.79,31.71,33.15,47.23,4.47,6.11,9,12.17,13.61,18.17,2.91,3.79,6.69,7.52,9.12,11.63.28.47.19.48-.02.3.43.42.96.88,1.33,1.34,23.25,29.04,49.09,56.23,78.45,79.2,30.34,23.73,63.78,43.16,98.12,60.49,34.44,17.37,69.74,33.19,105.4,47.91,63.76,26.33,129.45,48.47,196.96,62.95Z"/><path d="m690.11,807.62h-4.03c-2.14-.86-4.27-1.73-6.4-2.6-56.7-23.24-112.06-50.06-164.22-82.27-53.22-32.86-103.12-71.44-146.47-116.57-43.98-45.79-80.93-97.54-117.92-148.94-36.64-50.91-73.57-102.01-117.95-146.6C94.47,271.79,50.27,237.37,0,214.92v-1.66c3.13,1.39,6.24,2.82,9.33,4.3,51.98,24.94,97.17,62.4,136.56,104.07,43.13,45.64,79.31,97.16,115.94,147.98,37.22,51.65,75.09,103.24,120.62,148.03,45.14,44.42,96.47,82.14,151.04,114.2,50.06,29.42,102.76,54.15,156.62,75.78Z"/><path d="m665.08,807.62h-3.88c-1.8-.75-3.6-1.5-5.4-2.26-54.59-23.05-108.53-48.12-159.29-78.79-51.9-31.35-100.37-68.8-140.62-114.3-40.21-45.46-73.04-96.88-107.92-146.37-35.47-50.33-72.64-99.86-116.47-143.33C93.06,284.45,49.16,251.25,0,228.24v-1.67c3.51,1.62,6.99,3.3,10.44,5.03,51.34,25.76,96.46,62.47,135.87,103.94,42.11,44.31,78.12,93.91,113.03,143.93,34.78,49.84,68.15,101.39,110.28,145.5,42.08,44.06,91.79,80.01,144.56,110.24,48.46,27.76,99.39,50.89,150.9,72.41Z"/><path d="m601.96,807.62h-3.7c-1.72-.76-3.44-1.54-5.15-2.32-50.08-22.87-97.56-51.39-141.27-84.83-45.83-35.08-87.62-75.53-123.72-120.55-36.32-45.31-66.33-95.1-98.31-143.44-31.17-47.14-64.98-92.62-106.88-130.95-36.73-33.6-78.27-61.83-122.93-83.83v-1.69c2.9,1.42,5.79,2.87,8.67,4.34,46.78,23.99,89.98,54.97,127.58,91.68,40.79,39.84,73.37,86.62,104.37,134.15,31.91,48.94,62.79,98.66,100.69,143.33,37.4,44.09,80.28,83.54,127.14,117.44,41.66,30.14,86.48,55.85,133.51,76.67Z"/><path d="m564.97,807.62h-3.45c-1.81-.89-3.62-1.79-5.42-2.7-46.38-23.36-90.04-52.09-129.87-85.38-42.07-35.17-79.33-75.44-111.89-119.49-32.82-44.42-61.43-91.73-91.43-138.04-29.79-46-61.23-91.35-99.29-131.01-18.12-18.89-37.63-36.77-59.38-51.44-10.56-7.13-21.66-13.47-33.3-18.65-10.01-4.46-20.4-7.94-30.94-10.9v-1.57c3.81,1.06,7.61,2.19,11.37,3.41,49.62,16.11,89.7,51.63,124.1,89.64,36.74,40.6,67.28,86.23,96.78,132.19,30.01,46.75,59.07,94.25,92.99,138.33,33.41,43.42,71.93,82.75,114.84,116.87,38.59,30.7,80.55,57.12,124.89,78.74Z"/><path d="m927.32,807.62h-6.83c-1.51-.35-3.01-.7-4.51-1.05-41.88-9.84-83.37-21.3-124.73-33.09-37.4-10.66-74.67-21.77-111.49-34.31-72.1-24.54-143.25-54.63-206.28-97.84-32.89-22.55-63.39-48.62-89.84-78.49-24.55-27.72-45.28-58.52-65.11-89.69-22.49-35.34-44-71.4-69.27-104.88-22.22-29.44-47.48-56.52-74.98-81.09C122.37,240.8,62.86,203.52,0,173.78v-1.67c5.19,2.44,10.35,4.93,15.49,7.48,64.29,31.89,124.81,72.13,176.54,121.99,26.35,25.41,50.06,53.28,71.12,83.2,24.22,34.42,45.45,70.79,68.54,105.97,20.56,31.33,42.82,61.58,69.19,88.33,28.39,28.78,60.56,53.64,94.87,74.99,65.92,41,138.9,69.32,212.61,92.95,37.53,12.04,75.43,22.91,113.39,33.49,35,9.76,70.14,19.05,105.57,27.11Z"/><path d="m543.64,807.62h-3.26c-1.91-1.01-3.82-2.03-5.72-3.06-45.38-24.62-87.94-54.4-126.62-88.57-40.65-35.9-76.16-76.76-107.9-120.64-32.3-44.68-61.22-91.63-91.97-137.36-29.52-43.89-60.83-86.79-98.19-124.44-32.33-32.57-68.92-61.58-109.98-82.41v-1.69c2.47,1.24,4.92,2.52,7.35,3.82,43.38,23.22,81.62,55.31,115.15,91.08,36.2,38.64,66.71,82.14,95.86,126.19,30.17,45.6,59.08,92.12,91.84,135.95,32.83,43.93,69.87,84.34,111.93,119.64,37.43,31.42,78.24,58.75,121.51,81.49Z"/><path d="m515.25,807.62h-2.91c-2.16-1.32-4.32-2.66-6.46-4.02-43.55-27.64-83.05-61.82-119.61-98.03-36.58-36.23-70.13-75.66-99.87-117.67-30.57-43.16-57.5-88.71-86.75-132.75-26.38-39.72-55.01-78.24-89.36-111.51-16.67-16.13-34.63-30.97-54.04-43.73-17.76-11.67-36.62-21.16-56.25-29.11v-1.65c2.79,1.1,5.57,2.24,8.34,3.42,42.88,18.22,80.28,46.35,112.63,79.59,33.37,34.29,61.26,73.36,87.31,113.33,28.91,44.35,56.02,89.92,87.36,132.65,31.03,42.29,65.81,81.84,103.75,118.08,35.53,33.94,73.7,65.92,115.86,91.4Z"/><path d="m501.41,807.62h-3.1c-1.85-1.03-3.69-2.07-5.52-3.12-43.15-24.75-83.27-54.9-118.96-89.53-19.01-18.44-36.83-38.13-53.19-58.95-15.81-20.09-30.2-41.24-43.83-62.86-14.04-22.26-27.25-45.02-40.51-67.74-6.78-11.6-13.55-23.21-20.45-34.74-3.43-5.74-6.9-11.47-10.4-17.18-1.87-3.03-3.75-6.04-5.64-9.06-.81-1.28-1.61-2.56-2.42-3.84-.36-.57-.72-1.14-1.09-1.7.04-.16.07-.32.11-.48-.04-.07-.32,0-.38-.1-6.99-10.27-13.63-20.82-20.78-31.01-6.86-9.78-13.98-19.38-21.47-28.7-14.33-17.84-29.9-34.74-46.81-50.18-31-28.31-66.92-51.99-106.97-65.12v-1.61c2.22.71,4.42,1.46,6.61,2.24,42.28,15.12,79.65,41.77,111.54,72.98,16.19,15.83,31.09,32.97,44.81,50.98,7.41,9.74,14.48,19.75,21.33,29.89,3.63,5.36,7.18,10.77,10.68,16.21.52.82,1.02,1.66,1.57,2.46-.25.34-.23.5.08.47.06.03.12.06.18.08.5.79,1.11,1.59,1.63,2.4,1.71,2.7,3.41,5.41,5.1,8.12,28.12,45.07,53.12,92.01,82.07,136.57,28.74,44.23,62.03,85.06,100.96,120.79,34.84,31.98,73.48,59.79,114.85,82.73Z"/><path d="m463.73,807.62h-2.86c-1.54-.97-3.08-1.94-4.61-2.93-38.43-24.74-73.63-54.6-104.14-88.62-32.4-36.13-59.43-76.63-84.66-117.95-25.12-41.14-48.71-83.24-75.17-123.55-26.33-40.12-55.4-78.84-90.73-111.56-29.75-27.54-63.85-50.91-101.56-66.1v-1.63c1.69.66,3.37,1.35,5.04,2.06,39.97,16.89,75.72,42.85,106.55,73.15,34.52,33.93,63.05,73.45,89,114.13,26.07,40.85,49.72,83.16,75.31,124.3,25.9,41.64,54.07,82.15,88.05,117.69,29.7,31.05,63.31,58.27,99.78,81.01Z"/><path d="m1046.95,807.62h-10.79c-85.03-12.34-169.16-30.58-251.89-53.7-43.32-12.11-86.25-25.55-128.76-40.2-41.06-14.14-82.31-28.66-121.62-47.2-39.59-18.67-75.81-42.54-107.25-73.06-27.67-26.86-51.49-57.35-73.66-88.8-50.15-71.13-92.69-148.76-155.37-210.19C140.78,238.77,71.11,198.78,0,164.02v-1.69c6.16,3,12.3,6.04,18.41,9.12,72.49,36.54,142.62,79.95,197.88,140.15,57.84,63.01,98.7,138.87,148.97,207.58,23.79,32.52,50,63.58,80.69,89.86,33.98,29.1,73.25,50.31,114.36,67.56,40.89,17.16,82.99,31.72,125.1,45.61,42.7,14.08,85.82,26.94,129.3,38.41,76.42,20.17,153.96,36.07,232.24,47Z"/><path d="m439.19,807.62h-2.8c-1.38-.89-2.76-1.79-4.13-2.71-37.22-24.88-69.44-56.68-97.6-91.3-30.03-36.91-55.32-77.4-79.74-118.14-24.47-40.83-48.12-82.2-74.86-121.63-24.87-36.68-52.66-71.51-85.24-101.69-28.09-26.02-59.76-48.51-94.82-64.08v-1.66c1.4.61,2.78,1.23,4.16,1.87,37.61,17.27,71.15,42.45,100.63,71.27,31.94,31.23,59.08,66.84,83.61,104.04,26.25,39.8,49.77,81.29,74.42,122.07,24.87,41.11,51.09,81.66,82.39,118.24,27.34,31.94,58.47,61.03,93.98,83.72Z"/><path d="m1088.43,807.62h-10.1c-90.54-13.95-179.83-36.54-268.15-60.45-46.46-12.57-92.7-25.97-138.68-40.17-42.31-13.08-84.89-26.19-125.18-44.76-39.86-18.37-75.7-42.86-106.46-74.19-28.37-28.9-52.28-61.79-74.9-95.25-25.49-37.7-49.52-76.43-77.02-112.73-25.77-34-55.09-65.1-87.21-93.2C140.29,233.99,71.3,191.88,0,155.25v-1.71c6.16,3.15,12.29,6.35,18.4,9.59,72.27,38.31,141.9,82.98,201.61,139.18,30.82,29.01,58.25,61.07,82.83,95.49,26.2,36.7,49.84,75.12,75.68,112.06,23.65,33.79,49.32,66.55,80.19,94.11,33.75,30.14,73.21,51.73,115.11,68.39,42.36,16.84,86.33,29.79,129.96,42.88,46.1,13.84,92.44,26.85,139,39.05,80.97,21.21,162.73,41.2,245.65,53.33Z"/><path d="m1112.58,807.62h-11.34c-94.1-12.87-187.4-31.42-279.26-55.51-47.74-12.52-95.09-26.54-141.95-42.04-43.44-14.38-87.16-29.21-127.91-50.23-40.4-20.85-75.47-48.81-105.77-82.58-27.29-30.42-50.7-64.04-73.73-97.71-25.75-37.65-51.57-75.17-80.88-110.19-27.51-32.87-57.3-63.83-89.05-92.64C141.62,221.31,73.33,174.01,0,136.25v-1.7c6.25,3.2,12.45,6.46,18.62,9.8,74.36,40.28,143.23,90.61,204.23,149.11,30.71,29.45,59.42,60.97,85.83,94.32,27.98,35.34,52.66,73.04,78.36,110.03,23.53,33.87,48.21,67.25,77.5,96.45,33.06,32.97,71.77,57.79,114.36,76.7,43.18,19.18,88.53,33.8,133.56,47.99,47.08,14.82,94.62,28.17,142.54,40.01,84.87,20.97,170.9,37.21,257.58,48.66Z"/><path d="m1280,794.19v1.53c-10.64,1.59-21.32,2.93-32.04,3.98-108.62,10.69-217.41-6.18-322.89-31.46-52.72-12.63-104.91-27.34-157.13-41.85-47.29-13.14-94.7-26.23-140.66-43.58-44.51-16.82-87.88-37.77-126.03-66.43-36.56-27.46-66.46-61.89-92.95-98.91-29.17-40.78-54.65-84.06-84.07-124.67-28.34-39.11-60.95-74.87-96.66-107.39C159,222.95,80.48,172.61,0,126.9v-1.75c7.26,4.12,14.5,8.27,21.71,12.47,80.92,47.08,159.5,99.77,226.68,165.33,34.22,33.4,64.52,70.08,91.5,109.5,27.15,39.65,51.83,80.99,80.81,119.36,29.41,38.92,63.58,73.08,104.78,99.54,41.14,26.42,86.62,45.34,132.84,60.91,46.92,15.81,94.86,28.48,142.55,41.71,51.82,14.38,103.74,28.5,156.26,40.12,105.78,23.39,215.06,36.18,322.87,20.1Z"/><path d="m1280,773.41v1.53c-10.47,1.99-20.98,3.71-31.54,5.15-107.11,14.52-215.52.91-320.41-22.12-53.52-11.75-106.46-25.91-159.38-40.09-46.92-12.57-93.96-25.24-139.27-42.88-43.79-17.05-85.81-38.98-122.21-68.89-34.09-27.99-62.93-61.59-89.42-96.68-29.56-39.17-56.4-80.28-85.71-119.63-30.25-40.63-63.97-78.11-101.72-111.96C160.52,215.23,80.76,165.07,0,117.81v-1.77c7.37,4.31,14.73,8.64,22.07,13.01,81.65,48.55,161.85,101.18,230.43,167.33,35,33.75,65.61,71.17,93.99,110.56,28.44,39.47,55.22,80.16,85.41,118.34,28.45,35.97,60.24,69.68,97.92,96.16,39.74,27.92,84.6,47.56,130.44,63.17,46.85,15.96,94.94,28.18,142.75,40.87,52.12,13.84,104.42,27.18,157.33,37.71,105.04,20.9,213.77,30.27,319.66,10.22Z"/><path d="m1280,758.97v1.54c-11.18,2.18-22.42,4.05-33.71,5.57-108.42,14.64-217.82-1.26-323.96-23.91-51.45-10.98-102.78-22.89-153.81-35.67-46.93-11.75-93.64-25.07-138.39-43.59-42.34-17.51-82.83-39.81-118.36-68.86-36.49-29.84-67.38-65.74-96.26-102.78-29.91-38.35-58.12-78.02-89.28-115.4-30.98-37.16-64.3-72.38-99.66-105.42C158.02,206.38,81.79,150.64,0,104.59v-1.75c7.3,4.09,14.55,8.26,21.76,12.51,82.2,48.49,158.44,107.01,226.54,173.8,33.7,33.06,65.34,68.17,94.82,105.03,30.18,37.72,57.91,77.33,88.41,114.81,29.63,36.41,61.96,70.92,100.2,98.49,39.14,28.22,83.08,49.06,128.39,65.39,45.29,16.33,92.01,28.32,138.81,39.49,51.81,12.35,103.69,24.64,155.94,34.97,106.89,21.12,217.31,32.67,325.13,11.64Z"/><path d="m1280,736.52v1.56c-10.93,2.55-21.93,4.8-32.99,6.71-105.77,18.35-213.83,8.4-318.58-11.6-53.15-10.14-105.85-22.68-158.34-35.8-50.87-12.72-101.62-27.05-149.22-49.38-43.15-20.24-83.49-46.45-119.55-77.57-33.83-29.21-62.81-62.91-89.57-98.57-29.91-39.87-57.88-81.1-89.85-119.4-30.05-36-62.56-69.95-97.19-101.58C157.05,189.09,81.34,136.25,0,93.99v-1.71c7.32,3.79,14.59,7.66,21.82,11.62,81.41,44.62,156.83,100.1,223.7,164.42,33.8,32.52,65.42,67.3,94.51,104.07,30.06,37.98,56.79,78.43,86.67,116.53,59.08,75.33,134.8,134.94,224.21,170.43,49.15,19.51,100.69,32.11,151.99,44.53,52.32,12.66,104.85,24.64,157.94,33.63,105.45,17.84,214.31,23.38,319.16-.99Z"/><path d="m1280,712.9v1.57c-10.83,2.69-21.73,5.06-32.72,7.07-104.53,19.15-212.02,8.74-316.48-5.42-98.38-13.33-198.77-28.32-290.1-69.13-45.22-20.2-86.65-47.24-123.68-80.07-34.16-30.28-64.6-64.48-93.39-99.82-15.51-19.05-30.66-38.4-45.72-57.81-2-2.58-4.44-5.14-6.16-7.92h-.01c-.07-.1-.26-.4-.45-.71-.11-.08-.25-.21-.32-.3-1.93-2.52-3.89-5.02-5.84-7.53-8.6-11.06-17.24-22.11-25.97-33.07-32.23-40.49-66.16-79.48-103.86-115.02C165.84,179.27,86.18,124.87,0,83.77v-1.67c29.86,14.2,58.96,29.96,87.12,47.28,54.1,33.27,104.77,72.14,150.86,115.8,24.18,22.91,46.99,47.19,68.6,72.52,11.74,13.77,23.17,27.8,34.42,41.95,5.65,7.1,11.25,14.23,16.84,21.38,2.54,3.24,5.07,6.5,7.61,9.75.4.53,5.6,8.36,6.13,8.36.41,0,.75.35.75.76,0,1.23,4.42,5.45,5.28,6.55,1.37,1.77,2.75,3.54,4.12,5.31,2.41,3.09,4.82,6.19,7.23,9.28,5.1,6.54,10.22,13.07,15.36,19.58,10.8,13.68,21.74,27.25,32.94,40.59,22.31,26.57,45.71,52.3,71.18,75.9,48.88,45.28,105.25,79.6,167.77,102.71,61.06,22.57,125.25,35.37,189.42,45.37,68.89,10.74,138.33,20.2,208,23.79,69.11,3.56,139.02.67,206.37-16.08Z"/><path d="m419.05,807.62h-2.64c-1.45-1-2.89-2.03-4.32-3.06-34.86-25.14-65.22-56.12-91.91-89.67-27.78-34.92-51.8-72.8-74.84-111.02-23.31-38.65-45.62-77.92-70.19-115.79-24.09-37.14-50.39-73.09-81.21-105-14.97-15.5-30.98-30.12-48.21-43.09-14.21-10.71-29.41-20.25-45.73-27.38v-1.65c1.54.66,3.08,1.34,4.6,2.05,18.85,8.77,36.1,20.64,52.18,33.73,16.62,13.52,32.12,28.4,46.61,44.16,29.98,32.6,55.66,68.89,79.36,106.21,24.37,38.36,46.78,77.91,70.39,116.73,23.41,38.5,48.2,76.38,77.07,110.97,26,31.13,55.41,59.7,88.84,82.81Z"/><path d="m406.41,807.62h-2.65c-1.42-.98-2.83-1.98-4.24-2.98-34.53-24.6-65.71-53.88-92.3-86.88-13.67-16.96-26.08-34.89-37.25-53.59-10.88-18.23-20.81-37.05-30.92-55.75-21.22-39.23-44.23-77.48-68.93-114.62-12.15-18.27-24.77-36.22-37.72-53.95-13.19-18.07-26.71-35.99-41.09-53.15-24.4-29.1-54.02-56.4-91.31-66.56v-1.58c1.79.48,3.57,1,5.34,1.56,39.76,12.67,69.52,43.45,94.92,75.13,27.67,34.52,53.4,70.63,77.65,107.61,24.51,37.35,46.86,75.97,68.1,115.25,10.06,18.6,20.03,37.17,31.26,55.08,11.9,18.97,25.22,37.05,39.79,54.06,26.14,30.51,56.27,57.55,89.35,80.37Z"/><path d="m391.35,807.62h-2.69c-1.33-.9-2.65-1.81-3.96-2.73-33.92-23.74-63.96-52.66-89.13-85.5-26.31-34.33-47.62-72.07-69.13-109.48-21.52-37.46-43.63-74.6-66.77-111.09-23.14-36.5-46.95-72.74-72.55-107.57-12.29-16.72-25.85-32.55-43.1-44.36-13.39-9.17-28.33-15.93-44.02-20.01v-1.58c1.64.42,3.27.86,4.89,1.34,18.04,5.32,34.99,14.25,49.53,26.16,15.93,13.05,28.35,29.63,40.22,46.29,25.15,35.27,49.2,71.35,72.09,108.12,22.9,36.78,44.98,74.02,66.57,111.58,21.76,37.86,43.8,75.91,71.49,109.84,24.8,30.4,54.05,57.03,86.56,78.99Z"/><path d="m376.29,807.62h-2.63c-1.19-.84-2.38-1.7-3.56-2.56-32.54-23.87-59.78-54.08-83.51-86.52-24.76-33.84-45.89-70.02-67.38-105.96-22.22-37.18-44.47-74.34-66.67-111.53-11.04-18.5-22.09-36.99-33.16-55.48-9.99-16.68-19.64-33.67-31.22-49.33-11.64-15.73-25.46-29.58-42.48-39.45-14.21-8.24-29.77-13.76-45.68-17.71v-1.55c1.67.4,3.34.83,5,1.28,18.58,5,36.74,12.41,52.37,23.76,15.14,10.99,27.21,25.45,37.7,40.8,11.21,16.41,21.04,33.77,31.22,50.82,11.02,18.46,22.07,36.9,33.09,55.35,22.27,37.31,44.6,74.58,66.88,111.87,21.55,36.06,43.05,72.25,68.61,105.7,23.24,30.42,49.97,58.49,81.42,80.51Z"/><path d="m358.57,807.62h-2.45c-1.05-.83-2.09-1.67-3.13-2.51-31.18-25.35-56.92-56.54-79.73-89.42-23.69-34.14-45.19-69.84-67-105.18-21.8-35.3-43.09-70.92-62.84-107.41-9.96-18.41-19.13-37.21-28.87-55.72-8.86-16.83-18.43-33.43-30.31-48.34-11.59-14.54-25.41-27.14-41.55-36.49-13.26-7.67-27.71-13.14-42.69-16.23v-1.55c1.36.27,2.72.56,4.08.88,17.6,4.11,34.46,11.57,49.28,21.9,14.96,10.43,27.49,23.8,38.1,38.54,11.36,15.78,20.56,32.96,29.42,50.21,9.51,18.52,18.9,37.08,28.91,55.33,20.1,36.65,41.81,72.41,63.84,107.92,21.84,35.19,43.22,70.84,67.39,104.51,22.22,30.94,47.46,60.02,77.55,83.56Z"/><path d="m1280,190.68v3.35c-2.99-6.26-5.95-12.54-8.95-18.79-10.94-22.78-22.82-45.72-39.59-64.77-14.46-16.43-32.35-29.81-51.7-39.81-21.43-11.08-45.17-18.1-69.31-19-26.15-.98-50.72,6.18-73.81,18.23-22.64,11.82-44.28,25.47-67.02,37.16-22.14,11.39-44.65,22.02-67.23,32.48-44.75,20.72-89.96,40.66-133.29,64.34-41.44,22.64-81.33,48.96-114.05,83.47-36.31,38.29-63.14,84.06-92.86,127.41-26.37,38.45-56.37,74.68-94.82,101.39-39.83,27.68-87.18,39.63-128.37,64.59-21.66,13.12-38.59,30.83-50.74,53.2-11.95,22-19.71,45.97-31.19,68.21-20.86,40.45-50.51,75.67-84.56,105.48h-2.27c6.02-5.22,11.9-10.6,17.62-16.16,18.95-18.43,36.13-38.74,50.74-60.84,14.4-21.79,24.87-45.2,35.05-69.19,9.75-22.94,20.98-45.48,39.15-62.89,16.45-15.76,37.04-26.35,57.55-35.67,21.98-9.99,44.62-18.58,66.06-29.77,22.49-11.75,43.29-26.56,61.91-43.88,37.43-34.81,64.72-78.36,92.88-120.7,28.19-42.39,58.46-83.05,98.46-114.91,36.92-29.4,78.63-52.09,120.79-72.77,45.19-22.16,91.44-42.02,136.63-64.18,23.93-11.73,47.31-24.36,70.35-37.77,21.42-12.47,43.45-23.85,68.22-27.45,44.04-6.42,89.55,9.62,124.23,36.74,33.98,26.57,51.82,64.63,70.12,102.5Z"/><path d="m1280,178.02v3.43c-3.06-6.23-6.09-12.47-9.18-18.68-11.15-22.45-23.3-44.89-40.13-63.6-14.82-16.47-32.8-30.09-52.5-40.04-21.51-10.87-45.3-17.24-69.4-17.57-26.1-.36-51.29,6.86-75.21,16.89-25.91,10.85-51.08,23.68-76.46,35.73-25.96,12.32-51.92,24.65-77.88,36.98-49.27,23.39-99.04,46.25-145.72,74.69-44.1,26.86-84.87,59.57-118.33,99.25-33.67,39.92-55.66,87.44-85.6,129.95-13.94,19.8-29.79,38.23-48.38,53.74-16.91,14.09-35.83,25.42-55.21,35.67-38.67,20.44-80.03,36.56-116.05,61.79-18.61,13.03-34.63,28.75-46.83,48.1-12.78,20.29-21.28,42.76-31.26,64.49-19.19,41.78-47.19,77.99-80.76,108.78h-2.21c6.3-5.69,12.42-11.57,18.34-17.68,18.45-19.06,34.96-40.1,48.44-63.04,12.35-21.01,21.03-43.76,31.35-65.77,10.01-21.32,22.22-41.45,39.34-57.74,14.91-14.18,32.32-25.44,50.17-35.45,39.47-22.14,82.15-38.35,120.21-63.07,20.85-13.54,39.36-30.14,55.31-49.29,18.04-21.66,32.65-45.88,47.02-70.1,12.72-21.41,25.38-42.94,40.3-62.89,14.65-19.59,31.09-37.77,48.9-54.49,38.9-36.51,83.88-64.98,130.85-89.68,50.6-26.6,102.78-50.2,154.4-74.71,25.9-12.3,51.76-24.7,77.71-36.89,22.54-10.58,45.69-20.5,70.36-24.65,45.16-7.6,91.11,6.51,127.05,34.48,17.61,13.71,31.97,30.48,43.83,49.42,10.41,16.63,18.89,34.34,27.53,51.95Z"/><path d="m1280,223.07v3.15c-4.39-7.08-8.49-14.32-12.35-21.73-11.73-22.55-21.66-46.1-35.41-67.54-12.16-18.98-27.41-35.62-45.89-48.48-19.57-13.63-42.17-22.72-65.8-25.78-25.24-3.27-50.78.27-74.92,8-48.88,15.66-91.86,45.98-137.19,69.43-42.14,21.79-85.3,41.55-127.11,64-39.3,21.11-78.17,44.69-110.53,75.85-35.75,34.43-58.15,78.18-84.4,119.73-26.31,41.67-59.25,77.34-98.86,106.47-40.63,29.88-86.97,49.57-129.49,76.29-21.15,13.29-40.58,28.81-56.89,47.9-16.68,19.53-29.79,41.73-41.88,64.35-11.74,21.95-22.48,44.5-35.63,65.66-10.52,16.92-22.4,32.91-36.13,47.25h-2.06c5.58-5.74,10.88-11.75,15.89-18.02,32.43-40.63,50.15-90.14,78.61-133.31,13.72-20.8,29.9-39.78,49.3-55.4,18.84-15.16,39.87-27.31,61.01-38.85,22.31-12.19,45.01-23.68,66.65-37.05,22.25-13.75,43.38-29.39,62.75-47.02,18.81-17.12,35.94-36.11,50.67-56.9,15.39-21.73,28.5-44.94,42.34-67.67,12.33-20.25,25.51-40.06,41.17-57.9,14.28-16.27,30.55-30.63,47.81-43.59,37.25-27.98,78.78-49.7,120.3-70.43,43.07-21.51,86.64-42.02,128.48-65.95,44.22-25.29,90.37-52.72,142.45-55.39,44.79-2.3,87.84,15.79,118.94,48.14,31.22,32.47,45.59,76.37,68.17,114.79Z"/><path d="m1280,170.94v3.16c-4.12-7.29-8.01-14.71-11.83-22.18-11.73-22.93-23.25-46.32-40.03-66.03-14.27-16.77-31.9-30.68-51.72-40.15-51.53-24.63-108.15-12.07-158.95,7.84-52.24,20.48-103.36,44.56-153.62,69.54-48.9,24.3-97.54,49.81-143.97,78.7-42.73,26.59-84.21,57.15-115.32,97.39-30.41,39.33-50.13,85.3-78.32,126.3-14.4,20.93-31.02,40.31-50.65,56.44-16.77,13.77-35.4,25.02-54.43,35.27-39.96,21.52-82.53,38.56-120.39,63.91-18.57,12.44-35.56,27.11-48.79,45.32-15.32,21.08-25.49,45.16-36.76,68.54-20.34,42.25-48.12,79.85-81.22,112.63h-2.13c6.32-6.19,12.47-12.54,18.41-19.1,18.27-20.15,34.66-42.07,48.46-65.58,13.45-22.94,23.24-47.72,35.78-71.14,10.81-20.2,24.14-38.58,41.39-53.67,16.38-14.33,34.99-25.86,53.99-36.27,40.23-22.05,83.19-39.17,121.73-64.32,21.61-14.1,40.9-31.26,57.26-51.33,17.82-21.86,32.13-46.21,46.05-70.69,23.39-41.12,46.91-81.12,81.83-113.73,37.88-35.37,82.59-62.63,127.51-87.84,49.31-27.67,99.74-53.35,150.95-77.27,25.5-11.91,51.21-23.36,77.11-34.37,25.43-10.82,51.23-21.17,78.28-27.11,25.45-5.59,52-7.07,77.52-1.04,21.54,5.08,41.69,15.28,58.98,29.16,17.61,14.15,31.47,31.88,42.93,51.33,10.79,18.32,19.67,37.69,29.95,56.29Z"/><path d="m1280,240.38v3.1c-4.42-7.07-8.57-14.3-12.35-21.74-21.14-41.65-33.56-88.26-70.05-119.81-37.05-32.04-86.36-43.28-133.36-29.87-23.4,6.68-45.05,18.09-66.33,29.73-24.27,13.28-48.53,26.57-72.79,39.85-47.24,25.86-94.9,51.08-141.5,78.1-41.91,24.3-83.53,50.86-117.91,85.47-34.4,34.63-56.56,77.78-82.76,118.51-13.03,20.26-27.34,39.77-44.33,56.86-15.24,15.34-32.51,28.49-50.44,40.46-38.45,25.68-79.97,46.19-119.18,70.59-19.75,12.3-39.05,25.59-56.31,41.29-18.67,17-33.66,37.04-46.09,59.04-22.09,39.14-37.96,82.1-68.05,115.66h-1.95c5.5-5.95,10.63-12.25,15.37-18.87,29.74-41.5,44.33-92.04,76.29-132.13,29.3-36.75,70.74-61.61,110.82-84.64,40.44-23.25,82.54-44.85,118.79-74.63,39.31-32.3,64.49-75.46,90.75-118.37,12.08-19.75,24.7-39.2,39.63-56.92,15.29-18.15,32.8-34.22,51.44-48.8,39.26-30.73,82.93-55.23,126.46-79.16,49.29-27.09,98.67-54.03,148.01-81.04,42.61-23.32,86.96-50.88,137.35-48.3,41.57,2.13,81.73,24.17,107.21,57.23,14.93,19.36,24.87,41.83,34.46,64.21,8.02,18.7,16.48,36.86,26.82,54.18Z"/><path d="m1280,254.06v2.93c-4.41-7.07-8.61-14.26-12.57-21.59-11.16-20.7-19.13-42.57-27.91-64.35-8.84-21.93-19.62-43.54-36.53-60.34-15.73-15.62-35.64-27.15-56.92-33.07-24.11-6.69-48.94-5.12-72.57,2.8-23.64,7.94-45.71,20.59-67.75,32.12-23.55,12.31-46.98,24.83-70.31,37.55-46.31,25.27-92.46,51.03-137.52,78.5-41.68,25.41-82.99,53.13-116.82,88.8-34.13,35.99-55.59,80.96-84.49,120.87-26,35.9-59.38,63.04-96.47,86.55-38.09,24.15-78.27,44.71-116.4,68.8-19.46,12.29-38.45,25.5-55.74,40.78-19.1,16.88-35.39,36.47-49.77,57.54-25.9,37.94-46.18,79.57-74.62,115.67h-1.89c5.81-7.24,11.31-14.71,16.55-22.38,29.02-42.44,50.91-89.72,85.15-128.43,30.72-34.72,70.28-59.7,109.87-82.82,38.88-22.71,78.98-43.72,115.44-70.34,18.54-13.53,35.92-28.63,50.88-46.14,16.87-19.76,30.73-41.78,44.41-63.83,12.56-20.24,25.16-40.51,40.07-59.1,14.89-18.56,32.12-35.07,50.46-50.12,39.03-32.01,82.71-57.78,126.25-82.94,47.02-27.17,94.54-53.45,142.51-78.87,22.98-12.17,45.88-24.9,69.57-35.62,21.14-9.56,43.67-16.27,67.06-15.15,42.18,2.01,81.26,26.47,103.36,62.4,12.14,19.72,19.61,41.73,28.15,63.15,7.88,19.75,17.52,38.57,28.55,56.63Z"/><path d="m1280,276.69v3.17c-4.13-7.14-8.12-14.35-11.93-21.67-21.73-41.76-37.8-86.82-67.22-124.07-13.47-17.06-29.46-32.48-49.35-41.62-23.63-10.86-49.36-10.13-73.72-2.06-23.61,7.83-45.72,20.45-67.86,31.67-22.31,11.29-44.55,22.71-66.65,34.42-43.39,23.01-86.26,47.15-127.44,74.01-39.3,25.63-77.18,53.79-111.27,86.21-18.1,17.2-35.1,35.64-50.36,55.45-14.58,18.92-27.52,38.93-41.37,58.36-14.42,20.25-29.87,39.84-48.14,56.74-15.54,14.39-32.8,26.76-50.61,38.11-38.24,24.35-79.12,44.1-117.85,67.62-19.96,12.13-39.45,25.26-57.05,40.72-19.82,17.42-37.16,37.41-52.76,58.7-27.3,37.25-49.58,77.94-76.88,115.17h-1.85c5.75-7.77,11.29-15.7,16.69-23.74,28.62-42.65,53.62-87.94,88.27-126.14,32-35.29,71.81-60.44,112.93-83.5,39.81-22.32,81.06-42.93,117.49-70.78,19.45-14.87,36.62-32.19,51.85-51.42,15.76-19.89,29.55-41.18,44.18-61.87,55.96-79.17,134.46-137.1,216.54-186.27,43.17-25.85,87.63-49.45,132.4-72.36,22.49-11.51,44.89-23.48,67.87-33.98,21.67-9.9,45.13-17.3,69.17-14.25,43.66,5.53,74.54,41.98,96.07,77.71,12.27,20.37,22.18,42.04,32.24,63.58,8.28,17.71,17.01,35.12,26.61,52.09Z"/><path d="m1280,305.23v2.82c-4.18-6.35-8.27-12.77-12.25-19.25-26.71-43.45-49.07-89.4-74.84-133.4-9.87-16.86-20.37-33.98-36.69-45.27-20.22-14-44.46-14.28-67.51-8.17-23.96,6.36-47.3,16.6-69.97,26.55-21.92,9.63-43.46,20.14-64.59,31.41-40.5,21.6-79.48,45.98-117.23,72.13-40.41,27.99-80.41,57.37-115.95,91.53-35.05,33.68-62.32,73.58-92.11,111.79-15.05,19.3-30.9,37.99-48.74,54.74-16.39,15.38-34.41,28.81-53.19,41.09-38.61,25.24-79.93,45.88-119.51,69.47-40.98,24.43-78.51,52.79-109.71,89.3-30.45,35.63-54.12,76.23-75.92,117.65h-1.71c4.31-8.23,8.69-16.42,13.19-24.55,24.09-43.56,51.88-85.28,87.6-120.07,33.81-32.93,73.96-57.37,114.77-80.37,40.49-22.82,82.11-44.42,119.08-72.91,41.08-31.66,71.43-73.19,102.45-114.34,13.97-18.53,28.25-36.82,44-53.87,17.02-18.41,35.72-35.24,55.06-51.13,37.02-30.42,76.4-58.23,116.6-84.2,40.11-25.92,81.71-49.55,124.93-69.81,21.82-10.22,44.03-19.59,66.61-27.99,21.62-8.04,45-15.39,68.19-10.28,18.24,4.02,33.14,15.61,44.54,30.16,13.51,17.25,23.67,37.43,34.22,56.57,22.32,40.51,43.56,81.58,68.68,120.4Z"/><path d="m1280,332.91v2.75c-4.26-6.46-8.41-12.98-12.45-19.58-25.74-42.09-44.5-87.78-67.35-131.43-5.79-11.05-11.86-21.96-18.38-32.59-6.06-9.91-12.2-20.71-20.47-28.95-17.55-17.5-44.33-14.51-66.13-8.54-22.22,6.09-43.79,15.44-65,24.37-22.31,9.4-44.31,19.54-65.95,30.42-40.38,20.3-79.5,43.19-116.8,68.81-36.4,25-71.08,52.6-103.26,82.94-35.13,33.1-65.51,69.91-95.56,107.64-29.63,37.2-60.58,73.28-99.29,101.22-39.64,28.62-83.93,49.81-126.41,73.66-43.51,24.43-84.53,52.84-119.29,89.08-31.85,33.2-58.2,71.87-74.97,114.91h-1.64c3.06-7.95,6.44-15.76,10.15-23.42,21.02-43.41,51.67-81.63,87.28-113.74,37.67-33.95,80.94-59.28,125.24-83.27,44.28-23.98,89.4-47.51,127.25-81.36,37.17-33.25,66.49-73.81,97.9-112.33,58-71.13,128.6-130.63,206.09-179.1,39.94-24.97,81.64-47.05,124.55-66.34,21.91-9.85,44.14-18.99,66.64-27.4,19.96-7.47,41.97-14.75,63.54-11.6,9.54,1.39,18.45,5.2,25.57,11.85,7.61,7.12,13.19,16.55,18.71,25.31,13.45,21.3,24.96,43.77,35.95,66.44,10.91,22.5,21.36,45.23,32.97,67.39,9.5,18.14,19.93,35.74,31.11,52.86Z"/><path d="m1280,362.94v2.8c-4.17-6.34-8.25-12.73-12.23-19.18-13.08-21.18-25.1-43.04-35.95-65.46-10.2-21.1-19.02-42.83-28.91-64.07-10.17-21.86-21.64-43.18-36.38-62.29-6.57-8.51-13.73-16.76-23.02-22.33-11.39-6.84-24.42-8.12-37.32-5.95-12.06,2.03-23.64,6.44-35.11,10.58-11.09,4.01-22.12,8.2-33.07,12.59-22.07,8.84-43.84,18.45-65.22,28.86-40.61,19.75-79.89,42.35-117.16,67.95-35.84,24.63-69.79,52.06-101.04,82.41-35.22,34.2-64.86,73.08-96.34,110.65-15.49,18.49-31.49,36.56-48.93,53.21-17.33,16.55-36.07,31.49-55.55,45.39-40.17,28.67-83.15,53.09-125.23,78.68-40.44,24.59-80.31,50.37-115.77,81.78-32.83,29.08-63.55,65.81-75.28,109.06h-1.58c2.04-7.64,4.67-15.1,7.85-22.36,18.68-42.61,53.18-76.9,88.77-105.39,37.7-30.19,79.33-54.91,120.59-79.66,44.24-26.53,88.99-52.92,129.11-85.63,39.1-31.88,70.78-70.85,102.52-109.87,30.26-37.2,62.04-72.53,98.21-104.01,33.18-28.88,68.86-54.8,106.19-77.94,39.78-24.65,81.47-46.13,124.4-64.61,21.68-9.33,43.69-17.91,65.96-25.72,21.03-7.37,44.25-13.66,64.76-1.33,17.87,10.73,30.45,30.97,40.89,48.52,12.17,20.45,21.77,42.28,31.32,64.06,18.18,41.48,38.88,81.41,63.52,119.26Z"/><path d="m1280,391.66v2.89c-3.16-4.94-6.26-9.91-9.31-14.95-26.23-43.34-47.77-89.33-69.06-135.28-9.75-21.07-18.44-43.42-30.9-63.06-12.43-19.58-30.68-34.01-53.13-39.92-12.1-3.18-24.67-3.56-36.91-.91-12.1,2.62-23.55,7.69-34.88,12.59-21.44,9.27-42.58,19.21-63.38,29.86-40.52,20.73-79.73,44.11-117.05,70.25-35.94,25.17-70.16,52.9-101.85,83.35-33.47,32.18-62.41,67.87-92.07,103.49-29.44,35.37-61.28,67.78-98.51,94.98-39.56,28.9-82.18,53.23-124.19,78.24-42.22,25.13-84.46,51.05-121.47,83.71-33.7,29.73-65.78,66.4-77.99,110.72h-1.58c2.12-7.8,4.85-15.41,8.17-22.8,19.79-44.19,56.49-79.51,94.07-108.58,39.42-30.51,82.85-55.33,125.58-80.73,42.88-25.48,86.03-51.32,124.38-83.53,37.03-31.1,66.79-68.85,97.55-105.94,28.93-34.88,60.16-67.72,94.39-97.48,33.77-29.37,69.87-55.99,107.57-79.99,39.76-25.3,81.33-47.7,124.14-67.3,20.35-9.33,42-20.92,64.46-23.62,20.81-2.51,42.44,3.86,59.42,16.06,17.4,12.49,27.98,31.05,37,50.09,11.17,23.6,21.92,47.39,33.06,71,18.89,40.01,38.97,79.46,62.49,116.86Z"/><path d="m1280,425.73v2.56c-1.89-2.89-3.76-5.8-5.66-8.69-26.69-40.74-45.73-86.79-62.76-132.3-16.17-43.2-27.14-93.68-69.39-118.98-20.41-12.23-44.68-17.75-68.26-14.23-24.08,3.61-47.62,14.23-69.69,24.2-41.05,18.54-79.73,42.08-115.87,69.03-71.91,53.61-131.99,120.38-194.19,184.38-33.96,34.95-68.76,69.13-106.64,99.8-38.4,31.08-80.06,57.14-122.23,82.55-42.92,25.87-86.6,51.43-125.25,83.64-34.79,28.99-68.51,65.43-81.69,109.93h-1.57c2.45-8.37,5.64-16.5,9.48-24.35,21.35-43.64,59.02-77.87,97.55-105.98,41.59-30.34,86.5-55.75,130.35-82.56,43.39-26.53,84.51-56.21,122.63-90.09,36.28-32.23,69.96-67.14,103.41-102.2,62.12-65.12,125.19-130.16,200.73-179.83,38.76-25.49,80.4-47.06,124.13-62.46,22.25-7.83,44.96-11.36,68.12-5.52,19.26,4.86,37.59,15.03,51.39,29.5,15.27,16.01,24.34,36.28,31.84,56.87,9.08,24.96,17.82,50.02,27.75,74.66,15.37,38.13,33.26,75.75,55.82,110.07Z"/><path d="m1280,461.63v2.47c-3.92-4.89-7.67-9.94-11.22-15.1-26.92-39.09-41.31-84.71-54.51-130.01-7.11-24.37-14.08-48.82-23.07-72.57-7.11-18.78-15.58-37.42-29.49-52.15-33.23-35.17-84.56-32.62-127.02-18.79-22.72,7.4-44.08,18.22-64.82,30.02-20.25,11.53-39.83,24.26-58.7,37.97-77.78,56.51-141.26,129.19-208.31,197.58-34.17,34.85-69.53,68.63-108.02,98.64-39.76,31.01-83.03,56.52-126.5,81.79-42.22,24.54-85.05,49.08-122.72,80.5-33.34,27.81-65.54,62.88-78.04,105.64h-1.56c2.27-7.9,5.24-15.58,8.82-23,20.37-42.27,56.61-75.45,93.9-102.47,39.7-28.77,82.72-52.37,124.9-77.19,45.08-26.53,88.3-55.19,128.18-89.27,38.34-32.77,73.72-68.86,108.58-105.32,66.04-69.08,132.03-139.18,213.05-190.72,38.52-24.51,80.8-47.81,126.57-54.03,21.74-2.96,44.49-1.64,64.73,7.5,17.19,7.77,30.92,21,40.95,36.94,11.37,18.07,18.43,38.85,25.06,59.04,8.24,25.08,15.01,50.63,22.81,75.85,12.93,41.76,29.51,82.37,56.43,116.68Z"/><path d="m1280,484.39v2.37c-4.99-5.85-9.79-11.86-14.37-18.04-27.13-36.57-46.38-78.46-59.62-122.05-7.16-23.57-12.06-47.57-16.98-71.69-4.57-22.42-11.08-44.95-26.17-62.63-13.59-15.93-32.2-27.13-52.53-31.72-24.48-5.53-50-1.37-73.55,6.36-43.12,14.16-83.95,38.14-120.72,64.61-73.62,52.99-132.37,122.77-194.4,188.37-33.26,35.17-67.93,69.15-106.13,98.87-38.62,30.05-80.95,54.45-123.37,78.54-44.54,25.3-89.94,50.19-130.23,82.16-35.66,28.29-70.57,63.85-85.38,108.08h-1.59c2.53-7.65,5.67-15.07,9.37-22.24,22.44-43.57,61.29-77.44,100.79-104.92,41.99-29.23,87.25-53.26,131.48-78.77,44.76-25.83,87.72-53.82,126.88-87.81,36.81-31.95,70.47-67.4,103.5-103.25,61.19-66.4,122.8-133.69,200-181.56,20.02-12.41,40.87-23.48,62.39-33.02,20.93-9.27,42.97-16.87,65.87-18.94,41.15-3.72,81.97,15.15,101.2,53.01,10.58,20.83,13.76,44.18,18.5,66.81,5.11,24.35,11.57,48.42,19.95,71.83,15.04,42.08,36.46,81.54,65.11,115.63Z"/><path d="m1280,497.62v2.25c-5.89-6.35-11.59-12.86-17.08-19.55-29.67-36.16-53.47-77.35-67.81-122.12-6.75-21.09-10.58-42.61-13.48-64.53-2.24-16.85-4.78-33.95-11.22-49.78-7.1-17.45-19.33-31.74-36.01-40.49-19.79-10.37-42.66-12.53-64.57-10.12-46.07,5.07-87.72,28.21-125.67,53.66-80.22,53.81-144.72,126.04-211.41,195.24-34.28,35.56-69.57,70.26-108.12,101.12-36.86,29.5-76.75,54.02-117.87,76.81-44.34,24.57-89.89,47.7-130.94,77.74-37.28,27.29-75.3,63.81-88.48,109.77h-1.56c2.3-8.07,5.39-15.87,9.14-23.4,21.92-43.93,62.06-76.65,102.22-102.89,21.99-14.37,44.85-27.32,67.83-40,20.85-11.5,42.24-22.35,62.61-34.62,21.8-13.14,43.65-25.87,64.43-40.65,21.12-15.01,41.32-31.28,60.77-48.42,37.39-32.93,71.85-69,106.18-105.11,66.87-70.32,135.09-140.49,219.87-188.95,36.6-20.93,80.88-37.4,123.57-31.66,18.64,2.51,37.1,9.84,50.8,23.11,11.91,11.53,19.09,26.78,23.39,42.66,4.63,17.08,6.09,34.74,8.73,52.18,3.74,24.67,10.55,48.81,19.93,71.89,17.44,42.94,43.52,81.9,74.75,115.86Z"/><path d="m1280,518.38v2.14c-6.01-5.87-11.84-11.93-17.46-18.18-30.3-33.71-54.9-73.08-69.21-116.37-7.37-22.31-11.11-45.25-14.57-68.43-3.51-23.51-7.7-47.23-17.74-68.94-9.03-19.55-23.11-35.59-43.82-42.62-20.26-6.88-42.5-4.93-62.89.3-42.99,11.03-81.79,37.13-117.39,62.95-76.11,55.2-139.51,125.11-205.98,191.2-33.07,32.87-67.2,64.75-103.98,93.38-38.2,29.73-79.21,54.49-121.87,77.08-42.43,22.48-85.89,43.8-125.07,71.88-35.55,25.48-71.82,60.76-82.7,104.85h-1.55c1.82-7.46,4.4-14.7,7.63-21.7,19.85-43.04,58.83-74.51,97.78-99.22,42.34-26.84,87.77-48.16,131.52-72.48,42.75-23.76,82.74-51.74,120.13-83.38,37.38-31.62,72.1-66.23,106.47-101.11,65.71-66.7,131.33-134.24,210.6-184.8,35.22-22.47,74.59-44.31,117.4-44.86,19.22-.25,38.82,4.79,53.6,17.66,15.49,13.5,24.2,33.48,29.91,52.87,6.6,22.4,9.02,45.71,12.82,68.67,3.92,23.69,10.26,46.75,19.68,68.83,17.74,41.62,44.69,78.66,76.69,110.28Z"/><path d="m1280,144.54v3.4c-3.41-6.85-6.79-13.72-10.3-20.52-11.18-21.66-24.01-42.36-41.58-59.36-16.77-16.24-36.98-28.76-59.2-35.79-52.1-16.47-107.63-1.79-156.92,17.26-51.86,20.04-102.61,43.71-152.69,67.87-48.88,23.59-97.78,47.91-144.25,76.1-45.21,27.43-86.22,59.69-118.87,101.82-32.3,41.67-56.84,88.69-88.94,130.5-15.54,20.23-32.81,39.11-52.5,55.3-18.35,15.09-38.56,27.33-59.65,38.09-40.3,20.55-83.69,36.21-120.84,62.55-19.75,14-35.81,31.41-48.29,52.27-12.74,21.29-21.96,44.41-33.86,66.15-21.82,39.86-50.25,75.75-82.61,107.44h-2.16c6.35-6.16,12.55-12.48,18.57-18.98,18.39-19.82,35.21-41.16,49.86-63.94,13.07-20.33,23.51-41.87,34.11-63.56,10.93-22.37,23.11-44.27,40.92-61.87,15.14-14.96,33.2-26.6,51.75-36.76,41.16-22.54,85.94-38.19,125.49-63.74,45.77-29.56,78.98-72.23,108.46-117.52,29.05-44.63,56.41-91,95.28-127.96,37.77-35.91,83.17-62.83,128.71-87.37,49.35-26.61,99.76-51.28,150.72-74.56,25.5-11.65,51.18-22.94,77.01-33.81,24.33-10.25,49.07-19.75,74.69-26.15,48.26-12.06,99.94-11.38,142.77,16.71,17.1,11.22,31.88,25.85,43.85,42.48,12.1,16.82,21.27,35.41,30.47,53.95Z"/><path d="m1280,99.32v2.31c-5.72-7.21-11.76-14.17-18.21-20.75-32.86-33.53-76.36-56.31-123-61.56-52.55-5.91-104.75,9.22-153,28.96-50.84,20.8-100.25,45.52-149.39,70.05-47.2,23.57-95.06,46.55-140.65,73.21-21.5,12.58-42.47,26.28-61.61,42.32-19.5,16.34-36.34,35.36-50.98,56.2-28.81,41.03-50.02,87.14-82.81,125.36-32.43,37.79-74.02,66.84-116.78,91.49-22.24,12.83-45.11,24.5-68.26,35.54-22.14,10.56-44.84,20.54-65.21,34.39-20.71,14.08-35.17,32.04-45.04,55.15-9.64,22.59-17.77,45.45-29.31,67.22-21.21,40.04-49.08,76.28-80.82,108.41h-2.13c6.18-6.21,12.22-12.57,18.08-19.09,35.19-39.18,64.25-84.09,83.46-133.38,8-20.53,15.38-41.67,30.19-58.42,15.53-17.57,36.62-29.41,57.24-39.81,23.33-11.77,47.2-22.39,70.36-34.5,22.99-12.02,45.54-24.96,67.13-39.38,21.34-14.25,41.78-29.99,60.3-47.84,19.83-19.12,36.54-40.94,51.35-64.18,27.01-42.38,49.72-87.97,85.92-123.53,35.57-34.94,80.05-59.47,123.83-82.25,49.16-25.59,98.72-50.52,148.63-74.58,47.75-23.02,96.09-47.14,147.12-61.9,48.5-14.03,100.25-17.86,148.32-.06,38.17,14.14,69.76,39.39,95.27,70.62Z"/><path d="m1280,75.14v2.06c-4.97-4.7-10.11-9.22-15.43-13.52-37.22-30.15-82.59-49.89-130.42-53.37-53.47-3.89-105.63,12.17-154.72,31.96-51.56,20.79-102.23,44.11-152.09,68.73-48.37,23.88-96.43,48.95-142.64,76.87-45.17,27.3-86.41,58.87-117.39,102.33-28.83,40.44-50.33,85.77-82.99,123.44-32.21,37.17-72.27,67.08-115.31,90.31-21.85,11.8-44.57,21.62-67.77,30.39-23.64,8.93-48.16,17.35-69.06,31.99-20.59,14.43-35.67,34.62-46.69,57.11-10.44,21.3-17.66,44.01-26.98,65.8-18.41,43.02-43.83,82.63-73.75,118.38h-1.96c6.34-7.52,12.49-15.21,18.4-23.08,15.58-20.73,29.59-42.7,41.6-65.73,12.5-23.93,21.58-49.11,31.68-74.1,8.07-19.98,17.52-39.52,31.35-56.18,15.61-18.78,35.96-31.43,58.05-41.1,23.63-10.35,48.24-18.18,71.78-28.74,23.08-10.35,45.42-22.42,66.61-36.3,44.3-29.02,81.83-65.76,111.11-110.15,27.81-42.17,50.7-87.95,87.1-123.7,37-36.34,82.77-62.52,127.73-87.41,48.25-26.7,97.44-51.67,147.39-74.97,49.12-22.91,99.06-46.4,150.86-62.54,48.59-15.14,100-21.18,149.7-7.66,38.94,10.6,74.29,31.72,103.84,59.18Z"/><path d="m1280,57.07v1.88c-7.09-5.49-14.4-10.68-21.96-15.52C1214.66,15.64,1164.04-.15,1112.45,1.43c-56.26,1.72-108.94,23.27-160.31,44.5-94.85,39.19-191.06,78.97-277.04,135.98-38.93,25.81-75.78,55.55-106.23,91.28-35.03,41.1-58.15,90.53-90.93,133.26-15.56,20.28-33.26,38.83-53.92,53.88-19.77,14.42-41.75,24.91-64.49,33.63-44.19,16.95-92.26,27.45-132.46,53.49-23.03,14.91-40.52,35.76-52.98,60.22-11.88,23.32-19.4,48.47-29.27,72.65-18.76,46-44.71,88.6-75.58,127.3h-1.92c6.89-8.56,13.53-17.31,19.9-26.27,16-22.53,30.31-46.28,42.52-71.11,11.97-24.32,20.73-49.74,30.58-74.95,9.41-24.09,20.88-47.56,38.7-66.54,15.9-16.94,35.81-28.95,56.76-38.46,44.3-20.08,92.56-30.04,136.06-52.07,50.26-25.46,84.48-68.44,114.08-115.43,15.33-24.34,29.97-49.17,47.17-72.24,13.55-18.17,28.83-34.96,45.27-50.48,34.73-32.77,74.33-59.98,115.4-83.97,44.82-26.17,91.68-48.64,139.05-69.64,48.49-21.49,97.45-42.74,147.13-61.28,50.99-19.04,104.53-31.12,158.94-22.18,44.26,7.27,85.56,26.85,121.12,54.07Z"/></svg>