<?xml version="1.0" encoding="UTF-8"?><svg id="slidefrontpage" xmlns="http://www.w3.org/2000/svg" viewBox="0 0 1290 6178"><path d="m1285,4682.49v6.42c-29.62-51.16-52.04-107.56-82.98-157.14-13.45-21.56-28.59-42.11-46.33-60.35-20.97-21.55-45.08-39.77-70.51-55.71-52.17-32.68-109.45-57.83-166.04-81.74-118.16-49.93-241.06-88.65-366.49-115.51-31.27-6.69-62.69-12.65-94.24-17.86-32.3-5.34-64.92-10.42-97.75-10.09-31.68.32-62.74,6.48-91.13,20.81-24.45,12.34-46.11,29.53-65.53,48.73-70.17,69.42-113,170.4-199,222.48v-3.49c3.68-2.28,7.29-4.65,10.84-7.14,91.6-64.06,130.83-178.28,221.06-244.02,21.74-15.84,46.13-28.08,72.35-34.41,30.8-7.44,62.87-6.98,94.2-3.71,63.58,6.66,127.03,20.01,189.21,34.61,125.07,29.38,247.34,70.6,364.67,122.94,55.17,24.6,111.28,50.32,159.89,86.64,42.01,31.4,73.67,71.26,99.46,116.6,23.95,42.09,43.86,88.76,68.32,131.94Z"/><path d="m1285,4702.8v6.93c-29.34-58.04-52.39-120.51-86.83-174.59-16.77-26.34-36.47-50.75-60.01-71.34-24.59-21.5-52.47-38.84-81.11-54.37-59.44-32.22-121.66-59.92-184.45-84.9-125.7-49.99-256.55-87.01-389.81-110.22-64.82-11.28-137.48-26.48-199.54,3.49-49.27,23.8-83.63,69.02-115.28,112.03-15.57,21.16-30.83,42.59-47.66,62.78-19.48,23.38-41.09,44.99-64.43,64.52-16.18,13.55-33.19,26.07-50.88,37.51v-3.54c32.78-21.41,63.11-46.54,90.18-74.85,38.53-40.28,67.63-87.93,103.15-130.66,34.89-41.97,77.55-77.26,133.08-85.63,31.85-4.8,64.22-1.88,95.93,2.54,33.94,4.73,67.73,10.65,101.33,17.32,132.82,26.34,262.88,66.45,387.5,119.41,31.12,13.23,61.9,27.26,92.3,42.08,29.41,14.34,58.74,29.13,86.37,46.73,26.33,16.76,50.86,36.25,71.62,59.64,19.88,22.41,36.34,47.64,50.78,73.82,24.46,44.32,44.28,94.11,67.76,141.3Z"/><path d="m1285,4738.02v6.84c-28.49-57.09-45.87-119.1-76.12-175.39-30.86-57.43-76.62-101.64-131.46-136.24-55.78-35.2-117.18-61.7-178.08-86.61-131-53.59-267.49-93.79-406.64-119.71-65.36-12.18-138.62-26.02-201.7,2.79-53.82,24.58-87.44,75.91-120.2,122.73-33.87,48.42-71.93,92.08-119.31,127.82-14.91,11.24-30.43,21.63-46.49,31.11v-3.44c30.57-18.24,59.2-39.77,85.17-64.1,22.49-21.06,42.78-44.23,61.03-69.05,17.15-23.33,32.94-47.63,50.52-70.65,16.58-21.7,34.84-42.42,56.9-58.72,24.49-18.08,52.94-28.91,83.03-33.09,31.36-4.35,63.24-2.16,94.48,2.11,34.35,4.7,68.48,11.4,102.4,18.5,137.74,28.83,272.52,71.69,401.63,127.66,58.59,25.4,117.47,52.6,169.06,90.69,24.67,18.21,47.54,38.97,66.86,62.82,19.97,24.65,35.61,52.36,48.92,81.07,21.72,46.82,37.53,96.41,60,142.86Z"/><path d="m1285,4743.44v5.55c-7.33-14.43-14.28-29.06-21.11-43.62-25.35-54.06-50.28-108.12-85.99-156.34-39.42-53.24-88.74-96.61-146.13-129.61-60.41-34.75-125.54-62.36-190.37-87.68-65.18-25.45-131.72-47.41-199.25-65.76-62.86-17.07-127.17-33.27-192.2-39.16-58.59-5.29-120.74-1.55-173.28,27.36-55.79,30.71-86.81,87.03-125.95,134.77-41.14,50.18-90.66,93.19-145.72,127.3v-3.45c19.35-12.08,38.01-25.28,55.83-39.5,23.89-19.06,46.31-39.95,66.95-62.47,21.37-23.32,39.92-48.72,58.82-74.02,18.24-24.4,37.46-48.5,61.57-67.4,21.75-17.03,46.92-29.2,73.45-36.74,55.9-15.89,115.7-12.33,172.45-3.24,67.02,10.75,133.35,28.3,198.31,47.79,67.93,20.38,134.76,44.46,200.09,72.07,62.41,26.38,125.95,54.32,181.64,93.37,50.84,35.65,93.21,82.17,126.7,134.31,33.11,51.53,56.1,110.84,84.19,166.47Z"/><path d="m1285,4773.7v6.37c-30.64-54.17-57.8-110.94-90.96-162.46-34.95-54.29-78.54-101.61-129.35-141.41-50.2-39.33-105.9-71.19-163.49-98.33-58.34-27.5-118.82-50.2-179.84-70.98-70.49-24.01-142.37-45-216.18-55.89-67.34-9.93-140.25-11.54-203.07,18.45-60.04,28.66-100.56,83.43-144.54,131.16-44.84,48.66-96.35,90.83-152.57,125.32v-3.38c16.88-10.41,33.33-21.52,49.29-33.29,27.19-20.06,52.96-42.05,77.02-65.77,22.87-22.56,43.64-47.02,65.14-70.86,21.34-23.67,43.7-46.77,69.73-65.35,26-18.55,55.37-31.24,86.52-38.17,66.2-14.73,135.85-5.93,201.49,7.53,72.09,14.78,142.35,37.67,211.5,62.6,59.09,21.31,117.45,45.06,173.29,73.93,55.06,28.47,107.76,62.06,154.46,102.96,49.3,43.18,88.92,94.22,121.99,150.65,23.86,40.71,45.72,84.47,69.57,126.92Z"/><path d="m1285,4788.15v6.53c-30.58-49.87-59.14-101.38-93.32-146.77-79.04-104.96-183.26-189.07-298.02-252.19-58.28-32.05-119.41-58.85-182.24-80.66-64.98-22.56-132.17-41.07-200.81-47.79-68.99-6.75-140.78-.99-203.87,29.67-64.49,31.34-111.73,86.52-162.93,134.97-42.57,40.28-89.16,76.14-138.81,107.06v-3.45c7.22-4.52,14.38-9.15,21.47-13.88,29.75-19.85,58.28-41.51,85.36-64.87,26.75-23.06,51.52-48.16,76.73-72.87,24.57-24.08,49.87-47.69,78.33-67.17,27.76-19,58.44-33.17,90.87-42.09,65.16-17.93,134.32-15.34,200.36-3.87,66.55,11.55,131.74,31.95,194.66,56.27,60.58,23.41,119.35,51.6,175.16,84.85,110.64,65.92,209.84,152.4,283.64,258.42,25.6,36.77,48.9,77.61,73.42,117.84Z"/><path d="m1285,4829.28v5.93c-1.38-2.62-2.76-5.23-4.15-7.84-30.59-57.47-65.86-112.17-106.42-163.14-80.31-100.92-179.09-187.03-289.82-253.13-55.29-33.01-113.57-61.04-173.97-83.37-69.18-25.59-143.59-48.16-218-46.72-145.1,2.8-267.1,97.86-374.94,184.84-36.34,29.31-73.66,59.38-112.7,86.77v-3.47c56.84-40.29,110.28-86.46,164.62-128.27,55.6-42.78,114.22-83.06,179.14-110.41,65.68-27.69,135.2-38.53,205.98-28.27,68.51,9.92,136.05,32.82,199.69,59.63,59.48,25.06,116.6,55.61,170.56,91.02,106.71,70.03,201,159.02,276.54,261.93,31.43,42.81,58.32,88.03,83.47,134.5Z"/><path d="m1285,4841.14v5.85c-35.98-61.09-75.63-119.96-119.86-175.41-80.45-100.85-176.32-189.75-287.2-256.27-54.41-32.64-112.2-59.77-172.5-79.65-64.76-21.36-133.78-36.22-202.22-35.45-74.21.83-144.02,25.94-209.5,59.23-64.92,32.99-125.02,73.54-181.87,118.92-34.75,27.74-70.02,57.35-106.85,84.67v-3.28c55.53-41.52,107.88-88.67,163.36-128.03,57.96-41.12,120.74-77.44,186.95-103.57,32.47-12.82,66.21-22.7,100.84-27.51,36.52-5.06,73.62-4.17,110.15.27,126.85,15.41,248.25,66.8,353.86,137.66,107.74,72.29,199.71,165.5,276.79,269.51,31.71,42.79,60.92,87.3,88.05,133.06Z"/><path d="m1285,4859.2v5.75c-39.61-67.09-85.44-130.52-136.62-189.26-80.1-91.93-173.3-172.5-276.28-237.83-56-35.53-114.93-67.85-177.48-90.29-65.9-23.64-135.13-34.06-204.9-25.84-142.95,16.82-266.8,97.36-380.47,180.17-34.78,25.34-69.04,51.65-104.25,76.51v-3.89c54-38.26,106.22-78.99,160.79-116.45,113.48-77.9,244.02-146.05,385.45-142.19,68.31,1.86,134.57,21.96,196.39,50.13,58.5,26.64,114.2,59.92,167.03,96.45,100.52,69.51,190.8,153.72,267.48,248.86,37.74,46.82,72.13,96.26,102.86,147.88Z"/><path d="m1285,4871.06v6.02c-10.33-16.64-21.18-32.96-32.39-48.98-38.7-55.32-81.47-108.03-126.37-158.42-86.45-96.99-184.53-185.48-297.92-249.93-58.73-33.39-121.82-61.02-187.53-77.27-37.02-9.15-75.11-14.25-113.29-12.98-37.49,1.24-74.61,8.32-110.49,19.07-122.15,36.6-227.68,111.99-331.99,182.73-26.35,17.87-52.95,35.71-80.02,52.81v-3.36c42.54-27.02,84.01-55.89,125.47-83.92,106.82-72.23,221.69-146.63,351.77-166.12,74.51-11.17,148.38,1.8,218.76,26.97,60.96,21.81,118.99,51.4,173.35,86.49,109.92,70.97,204.57,163.46,288.51,263.26,43.45,51.66,85.98,105.85,122.14,163.63Z"/><path d="m1285,4905.81v5.49c-48.85-76.85-103.37-150.09-163.02-218.9-81.29-93.78-171.93-182.46-278.88-246.64-108.53-65.12-236.67-103.35-363.85-87.57-67.08,8.32-128.12,33.87-186.69,66.74-61.56,34.55-121.89,71.44-182.7,107.31-34.98,20.64-69.86,41.49-104.86,62.13v-3.77c53.43-31.49,106.84-63.02,160.26-94.52,60.1-35.45,119.45-74.07,182.97-103.21,57.62-26.43,119.35-40.38,182.76-41.12,126.12-1.49,247.36,45.15,350.73,115.11,104.25,70.55,193.31,162.81,272.97,259.64,46.99,57.11,90.51,117.02,130.31,179.31Z"/><path d="m1285,4921.34v5.24c-49.85-73.17-103.38-143.83-160.33-211.61-84.55-100.61-177.05-197.83-290.2-266.51-111.77-67.84-246.73-105.81-376.92-77.3-66.2,14.49-126.04,47.16-184.88,79.57-61.82,34.05-123.2,68.9-184.12,104.53-27.96,16.35-55.8,32.9-83.55,49.6v-3.57c46.05-27.65,92.36-54.85,138.93-81.59,61.08-35.07,122.25-70.5,184.96-102.58,58.04-29.68,118.58-51.97,184.01-57.1,129.66-10.16,255.76,37.77,361.14,110.53,109.8,75.82,200.24,176.72,283.73,279.87,44.7,55.24,87.14,112.27,127.23,170.92Z"/><path d="m1285,4935.4v5.74c-46.98-73.55-97.75-144.57-155.75-210.07-46.39-52.4-96.15-101.89-147-149.94-47.23-44.64-96.62-87.56-151.51-122.6-54.38-34.71-114.15-60.81-178.03-71.5-66.81-11.18-135.4-5.97-201.12,9.38-133.39,31.15-251.92,101.15-366.97,172.89-26.45,16.49-52.93,33.13-79.62,49.43v-3.41c43.64-26.74,86.77-54.36,130.34-80.86,114.84-69.84,238.14-133.36,373-151.59,65.28-8.82,132.19-5.91,195.54,12.9,60.69,18.02,116.44,49.55,167.26,86.89,52.26,38.4,99.75,82.78,146.14,127.98,51.87,50.55,102.49,102.53,148.44,158.58,43.33,52.85,82.49,108.72,119.28,166.18Z"/><path d="m1285,4953.54v5.79c-10.76-17.19-22.03-34.08-33.76-50.66-40.81-57.7-86.15-112.11-131.33-166.42-43.86-52.72-88.65-104.77-137.02-153.44-47.15-47.43-97.59-93.04-155.25-127.42-113.63-67.76-249.16-74.6-376.04-46.51-130.59,28.92-248.8,93.7-362.4,162.15-28.16,16.97-56.14,34.21-84.2,51.33v-3.53c45.34-27.66,90.48-55.63,136.47-82.2,114.16-65.95,235.22-123.11,367.12-140.97,63.02-8.53,127.59-8.07,189.89,5.47,63.4,13.77,121.45,42.05,173.67,80.25,54.37,39.76,102.93,87.45,148.74,136.65,47.85,51.39,92.66,105.52,137.21,159.76,44.42,54.09,88.16,108.99,125.84,168.08.35.56.71,1.11,1.06,1.67Z"/><path d="m1285,4984.01v5.25c-51.46-77.78-109.22-151.5-166.6-224.9-82.58-105.63-168.27-213.96-285.32-283.31-56.62-33.55-119.3-56.73-185.07-62.95-71.12-6.71-142.67,4.67-211.27,23.11-133.5,35.89-260.63,94.36-377.33,168.1-18.14,11.46-36.24,23.27-54.41,35.08v-3.28c34.7-22.64,69.29-45.35,104.78-65.91,59.57-34.5,121.7-64.55,185.69-89.9,65.55-25.96,133.41-48.27,202.78-61.35,67.72-12.77,137.85-15.74,205.31.28,61.58,14.62,119.04,43.53,170.58,79.89,111.56,78.7,194.04,190.71,276.98,297.32,46.28,59.49,92.1,119.75,133.88,182.57Z"/><path d="m1285,4995.44v5.11c-9.92-13.56-20.13-26.9-30.47-40.08-40.8-52-83.41-102.49-123.15-155.33-76.74-102.05-151.4-211.4-258.84-283.94-114.93-77.61-257.68-96.56-392.84-76.11-142.27,21.53-273.85,85.88-395.74,159.85-26.67,16.19-52.83,33.23-78.96,50.29v-3.83c45.75-29.52,91.75-58.59,139.35-85.16,122.78-68.52,256.53-122.4,398.24-130.77,67.74-4,136.47,2.19,201.6,21.7,61.94,18.55,118.75,49.68,168.84,90.43,101.11,82.28,171.97,194.01,251.32,295.79,39.38,50.52,82.32,99.88,120.65,152.05Z"/><path d="m1285,5000.69v4.72c-50.89-78.59-119.91-147.09-176.13-220.8-39.82-52.21-76.31-107.08-119.88-156.34-22.05-24.92-45.93-48.35-72.45-68.5-28.48-21.64-59.93-38.99-92.62-53.38-130.62-57.49-280.33-70.37-419.01-36.99-125.05,30.09-236.53,97.2-345.28,163.43-18.15,11.06-36.34,22.16-54.63,33.15v-3.42c35.14-21.16,69.99-42.79,105.06-63.71,111.86-66.72,229.25-127.1,359.94-144.65,138.02-18.53,287.69,5.52,408.56,76.56,118.01,69.37,183.99,195.13,268.97,297.55,45.93,55.36,97.07,111.15,137.47,172.38Z"/><path d="m1285,4998.89v5.38c-8.09-11.77-16.85-23.11-26.08-34.08-41.71-49.52-90.16-92.81-131.78-142.47-78.22-93.3-144.85-199.46-242.48-274.5-106.6-81.95-242.53-106.28-374.06-90.4-142.18,17.17-274.18,79.58-398.23,148.02-36,19.86-71.66,40.41-107.37,60.89v-3.4c54.62-31.36,109.17-62.87,165.08-91.8,123.46-63.89,256.57-116.43,397.12-121.08,65.95-2.18,132.71,5.99,195.15,27.85,58.57,20.51,111.06,53.6,157.06,95.03,92.83,83.62,157.83,192.2,241.82,283.85,41.47,45.26,88.19,86.43,123.77,136.71Z"/><path d="m1285,5024.63v5.09c-47.07-78.99-121.79-143.2-180.32-212.65-41.91-49.72-77.74-104.18-119.36-154.13-40.93-49.12-88.28-91.61-144-123.36-56.05-31.93-118.08-52.48-182.05-60.66-65.75-8.41-132.61-4.15-197.52,8.52-132.68,25.91-254.87,85.62-371.95,151.22-28.37,15.89-56.58,32.13-84.8,48.35v-3.42c46.22-26.6,92.43-53.24,139.48-78.29,118.1-62.9,244.4-115.86,378.58-130.16,65.07-6.93,131.35-4.09,194.97,11.75,60.42,15.06,117.91,41.8,168.48,78.11,51.6,37.04,93.27,84.29,131.64,134.51,41.32,54.07,80.83,108.82,127.29,158.74,47.55,51.09,101.74,105.05,139.56,166.38Z"/><path d="m1285,5033.11v9.47c-9.93-26.36-23.41-51.33-41.54-74.05-39.5-49.49-91.76-86.83-134.26-133.54-76.45-84.02-131.77-187.95-221.01-260.07-51.19-41.36-111.19-64.61-176.32-72.73-69.69-8.7-141.47-5.2-210.81,4.94-138.31,20.22-270.92,70.42-394.03,135.61-34.66,18.35-68.44,38.51-102.03,59.08v-4.01c51.55-31.16,103.91-60.79,158.33-86.78,125.88-60.12,261.33-103.35,400.96-113.93,69.27-5.25,141.98-4.81,209.27,14.26,56.97,16.15,106.29,48.53,148.36,89.67,83.86,82.01,139.88,187.7,225.41,268.35,47.45,44.74,100.1,86.2,129.61,145.88,2.91,5.87,5.59,11.83,8.06,17.85Z"/><path d="m1285,2629.31v1.91c-58.61-17.54-121.62-22.08-181.63-30.04-47.78-6.34-95.13-15.46-141.74-27.76-48.23-12.72-94.65-30.3-141.99-45.77-48.63-15.9-97.44-25.25-148.76-20.56-52.1,4.76-103.4,18.47-154.31,30.03-99.04,22.5-197.87,46.47-294.64,77.51-42.34,13.58-87.31,26.44-125.26,50.28-17.31,10.88-33.01,24.63-43.93,42.06-12.93,20.63-17.68,44.83-17.55,68.92.25,48.4,15.98,96.88,27.89,143.38,12.34,48.18,25.06,96.28,35.66,144.88.93,4.28,1.85,8.56,2.74,12.85,9.24,44.04,16.56,88.53,19.88,133.43,3.66,49.67,1.4,98.99-5.69,148.25-7.43,51.56-18.12,102.73-20.81,154.85-2.55,49.41.97,98.86.66,148.28-.3,48.56-5.07,96.69-20.9,142.85-15.01,43.78-37.38,84.54-60.08,124.71-3.16,5.59-6.35,11.21-9.54,16.87v-4.57c13.02-22.99,26.06-45.9,37.86-69.16,22.55-44.44,39.97-90.8,46.3-140.46,6.52-51.1,3.63-102.74,2.76-154.08-.88-51.29,2.82-101.44,10.84-152.11,8.12-51.37,17.37-102.52,18.2-154.68,1.03-65.5-8.29-130.23-21.74-194.18-7.98-37.98-17.42-75.69-27-113.12-12.23-47.77-26.47-95.61-34.93-144.23-7.24-41.58-7.44-86.78,19.12-121.96,23.18-30.71,59.64-47.9,94.74-61.18,46.57-17.61,94.43-32.19,142.28-45.85,100.79-28.78,203.27-52.66,305.83-74.26,47.98-10.1,96.85-17.18,145.77-9.84,49.44,7.42,96.04,26.43,143.12,42.39,48.89,16.57,98.92,29.78,149.63,39.46,45,8.58,90.47,13.4,135.85,19.34,37.11,4.86,75.14,10.85,111.37,21.56Z"/><path d="m1285,2633.22v2.18c-67.76-22.7-142.05-24.13-212.84-30.48-48.99-4.4-96.52-12.87-143.36-28.09-46.14-14.99-91.24-33.55-138.6-44.57-102.81-23.91-208.36.47-309.65,20.72-97.81,19.56-195.49,42.31-288.67,78.46-22.84,8.86-45.73,18.16-67.53,29.38-20.13,10.36-39.63,23.38-52.63,42.32-26.17,38.13-21.68,88.54-16.05,132.01,10.63,82.04,34.55,161.38,53.03,241.85,3.48,15.14,6.77,30.31,9.74,45.56,9.21,47.29,15.36,95.38,14.43,143.64-.96,50.02-10.16,99.3-18,148.56-8.18,51.38-12.17,102.32-12.07,154.34.1,50.16,1.99,100.47-2.62,150.5-4.3,46.54-15.59,91.2-33.79,134.24-17.62,41.65-39.91,81.07-61.39,120.82v-4.65c7.3-13.53,14.64-26.95,21.8-40.32,23.23-43.4,45.24-87.94,58.18-135.63,13.77-50.79,16.02-103.64,16.03-155.99,0-51.39-2.07-102.91,2.52-154.18,4.66-52.09,15.8-103.3,22.27-155.15,6.26-50.1,6.08-100.04-.41-150.1-4.43-34.21-11.25-68.03-18.99-101.64-3.56-15.5-7.33-30.95-11.15-46.37-11.96-48.25-24.57-96.39-33.77-145.26-8.18-43.42-16.83-90.19-10.03-134.34,3.11-20.27,10.37-39.91,23.48-55.88,12.93-15.75,30.34-27.04,48.29-36.27,43.83-22.57,91.26-39.34,138.17-54.19,97.11-30.74,197.53-50.82,297.61-69.11,50.67-9.27,102.07-16.91,153.72-15.49,50.01,1.38,97.6,13.67,144.71,29.74,47.24,16.11,93.88,34.29,143.12,43.5,51.92,9.71,104.84,11.42,157.33,16.15,42.26,3.81,86.2,10.2,127.12,23.74Z"/><path d="m1285,2636.24v2.03c-24.68-6.38-50.41-9.3-75.84-10.78-52.2-3.05-104.09-3.21-155.88-11.43-51.59-8.19-101.74-22.12-150.75-40.08-48.84-17.89-97.4-37.34-149.55-42.92-54.67-5.86-109.79.96-163.71,10.1-51.9,8.81-103.51,19.42-154.73,31.61-51.22,12.19-102.04,26.04-152.37,41.51-25.73,7.9-51.32,16.23-76.77,24.98-22.19,7.63-44.69,15.03-65.85,25.26-21.15,10.23-41.15,23.82-54.76,43.32-13.62,19.51-19.98,43.05-22.06,66.52-4.25,47.83,5.54,97.03,15.36,143.62,11.09,52.62,25.61,104.63,38.1,157.02,10.52,44.18,19.59,88.63,23.93,133.95,4.92,51.39,1.44,102.01-6.26,152.94-7.98,52.79-17.8,105.23-18.34,158.8-1.01,101.28,19.21,204.01-16.96,301.77-22.93,61.97-60.4,116.6-93.56,173.47v-5.2c46.19-79.37,99.7-155.26,110.5-249.11,6.07-52.68,1.83-105.78-.69-158.54-2.5-52.59-1.06-104.07,6.62-156.2,7.91-53.71,18.73-107.19,19.07-161.68.32-53.07-7.94-105.75-19.2-157.49-2.38-10.91-4.91-21.81-7.56-32.71-21.01-86.68-48.63-173.23-53.65-262.43-2.32-41.15,2.9-85.62,31.89-117.24,30.5-33.29,78.15-46.45,119.47-60.51,101.89-34.7,206.08-62.69,311.65-83.7,51.67-10.29,103.92-20.21,156.58-23.48,53.75-3.33,105.4,3.27,156.55,20.06,49.95,16.4,98.17,37.05,149.24,50.07,53.1,13.55,107.38,20.9,162.11,23.07,43.37,1.72,92.64,2.46,137.42,13.4Z"/><path d="m1285,2657.47v2.1c-73.08-22.16-153.42-17.55-228.69-28.07-49.74-6.95-95.93-23.77-142.38-42.17-47.84-18.94-95.85-37.02-147.49-41.75-52.14-4.77-104.76.77-156.53,7-53.96,6.48-107.66,15.2-160.91,26.07-52.26,10.67-104.09,23.42-155.33,38.23-24.56,7.09-48.97,14.66-73.24,22.69-23.06,7.63-46.38,15.28-67.88,26.74-21.1,11.25-39.64,26.43-52.46,46.8-11.74,18.67-18.4,40.08-21.84,61.75-7.48,47.28-.87,96.48,7.8,143.11,9.82,52.82,24.37,104.75,36.97,157.03,11.27,46.76,20.96,93.79,24.31,141.99,7.47,107.4-13.56,213.84-20.6,320.66-3.5,53.09-1.38,106.25-3.41,159.37-1.8,46.97-8.37,93.02-23.52,137.62-23.16,68.19-60.29,130.18-94.8,193.12v-4.72c3.18-5.77,6.36-11.52,9.54-17.25,41.65-75.18,85.61-151.83,99.87-237.78,8.94-53.86,7.21-108.69,7.68-163.07.49-55.37,5.57-110.29,11.54-165.29,5.84-53.84,11.98-107.76,12.9-161.96.93-54.85-5.15-108.74-16.55-162.35-2.86-13.45-6-26.89-9.3-40.34-20.75-84.71-47.51-169.56-47.75-257.08-.11-40.66,7.05-83.91,32.79-116.69,27.93-35.56,72.81-50.16,114.12-63.83,102.32-33.87,207.39-59.45,313.84-76.42,51.64-8.23,103.82-15.21,156.06-18.27,52.73-3.08,104.35.81,154.92,16.71,47.42,14.91,92.4,36.57,139.78,51.6,52.71,16.72,107.28,20.57,162.13,24.13,45.32,2.94,93.76,7.1,138.43,20.32Z"/><path d="m1285,2663.25v2.03c-64.09-17.24-136.68-8.67-201.59-17.31-50.05-6.65-97.5-24.48-144.98-40.85-47.7-16.45-96.06-29.54-146.06-36.8-199.9-29.04-403.03,22.18-588.88,93.2-22.58,8.63-46.48,16.58-66.11,31.09-19.69,14.57-31.94,36.13-39.37,59.11-16.07,49.79-13.98,103.9-5.88,154.94,8.08,50.93,22.2,100.62,33.37,150.9,1.29,5.8,2.52,11.61,3.71,17.44,9.06,44.51,15.14,89.57,18.74,134.87,8.38,105.16,4.02,210.81-2.41,315.93-6.14,100.33-9.37,202.85-34.57,300.64-21.47,83.33-64.53,156.58-105.97,231.06v-4.72c6.87-12.21,13.78-24.35,20.57-36.45,21.91-39.08,43.47-78.57,60.25-120.18,19.19-47.57,30.95-97.67,38.53-148.29,7.72-51.6,11.26-103.7,14.68-155.73,3.57-54.28,7.12-108.57,9.26-162.93,4.26-108.2,2.96-217.28-15.66-324.22-1.74-9.99-3.71-19.98-5.84-29.98-19.37-90.89-51.83-182.27-40.97-275.83,5.02-43.22,18.74-88.89,57.52-113.32,19.24-12.12,41.36-19.58,62.49-27.62,23.64-9,47.42-17.59,71.36-25.72,188.59-64,395.59-101.69,591.98-51.12,50.57,13.03,98.82,33.24,148.88,47.91,25.73,7.53,51.85,13.27,78.55,15.96,26.48,2.66,53.11,2.93,79.69,3.6,36.58.93,73.5,2.77,108.71,12.39Z"/><path d="m1285,2675.36v2.04c-66.33-18.14-141.98-8.02-209.05-18.65-98.07-15.55-187.21-63.79-284.64-81.96-54.13-10.1-109.48-9.35-164.14-4.77-52.38,4.39-104.77,11.02-156.68,19.26-97.5,15.46-197.17,39.52-282.85,90.33-41.89,24.84-76.74,59.1-88.15,107.87-10.7,45.67-2.11,93.6,8.54,138.43,11.69,49.25,25.52,97.73,34.28,147.66.08.48.17.95.24,1.43,8.72,49.94,14.26,100.41,17.3,151.01,6.37,106.01,1.79,212.39-7.59,318.07-9,101.34-19.41,203.83-44.46,302.65-12.25,48.29-28.43,95.56-49.95,140.53-16.1,33.62-34.56,66.02-52.85,98.48v-4.73c5.65-9.95,11.28-19.87,16.77-29.75,23.86-42.94,45.85-86.64,62.22-133.06,17.45-49.5,29.57-100.74,38.71-152.38,18.72-105.7,28.67-213.82,34.5-320.95,5.93-108.98,4.84-218.75-10.2-326.99-2-14.37-4.29-28.65-6.86-42.88-6.85-38.11-15.59-75.76-25.41-113.32-11.52-44.07-23.3-89.36-22.23-135.27,1.03-44.17,16.72-85.1,49.1-115.72,33.8-31.97,78.29-52.76,121-69.93,93.55-37.6,194.04-53.48,293.6-65.48,54.87-6.61,110.13-12.47,165.47-10.32,51.58,2,101.29,12.92,150.33,28.57,48.71,15.54,96.35,34.37,145.65,48,24.96,6.89,50.34,12.44,76.08,15.4,26.96,3.1,54.12,3.47,81.22,4.14,36.95.92,74.44,2.5,110.05,12.29Z"/><path d="m1285,2688.65v2.04c-67.57-21.61-147.26-11.78-215.75-24.78-51.26-9.74-100.43-27.61-149.79-44.06-51.8-17.28-103.97-31.84-158.43-37.66-110.64-11.84-221.93,5.2-330.16,27.53-46.36,9.56-93.12,18.9-138.5,32.55-38.7,11.64-77.19,26.92-109.9,51.1-36.51,26.98-61.71,65.09-69.85,110.01-9.37,51.72,1.51,104.85,12.18,155.48,8.13,38.59,15.37,77.3,21.57,116.14,10.83,67.76,18.52,135.94,22.32,204.67,6.09,110.19,3.1,220.88-9,330.57-11.61,105.21-29.34,211.61-65.03,311.58-22.82,63.96-55.72,122.55-89.66,180.76v-3.97c20.6-35,40.87-70.24,58.33-106.92,23.11-48.52,40.44-99.57,53.87-151.56,28.12-108.82,42.51-221.88,48.97-333.96,6.46-111.94,3.52-224.43-8.79-335.88-3.52-31.86-7.81-63.64-12.87-95.29-4.04-25.36-8.57-50.63-13.6-75.81-10.05-50.29-23.5-100.7-23.97-152.31-.39-44.58,11.07-88.33,39.84-123.12,24.95-30.15,59.31-50.84,94.99-65.89,38.21-16.12,78.6-26.33,118.97-35.33,55.64-12.39,111.45-24.29,167.8-33.02,108.42-16.78,219.49-20.83,326.25,8.04,50.96,13.78,100.21,33,150.75,48.11,25.41,7.59,51.17,14.16,77.37,18.36,28.64,4.59,57.62,5.73,86.55,6.99,38.83,1.68,78.48,3.8,115.54,15.63Z"/><path d="m1285,2697.79v2.5c-16.16-5.49-33.11-9.04-50.03-11.12-52.6-6.47-105.76-2.96-158.04-12.85-52.94-10.02-103.64-28.69-155.22-43.8-50.69-14.84-102.53-25.59-154.95-32.03-103.63-12.73-209.27-9.01-311.74,11.01-50.76,9.92-100.75,23.83-149.28,41.69-44.18,16.25-88.9,35.95-123.88,68.25-35.97,33.21-54.8,77.95-58.85,126.27-4.03,47.99,4.09,96.17,13.09,143.15,5.5,28.7,10.72,57.39,15.52,86.14,11.03,66.09,19.8,132.4,24.54,199.49,13.61,192.62-.38,388.37-51.61,574.94-25.26,91.99-59.65,181.52-103.71,266.17-5.12,9.83-10.42,19.55-15.84,29.18v-4.45c16.12-29.26,31.09-59.14,44.86-89.59,40.86-90.34,71.26-185.28,92.16-282.17,21.17-98.11,32.65-198.22,35.84-298.51,3.16-99.56-1.81-199.33-13.83-298.2-3.94-32.39-8.64-64.69-14.09-96.86-2.98-17.68-6.19-35.32-9.62-52.91-9.17-47.06-19.3-94.36-20.47-142.47-1.09-44.78,6.57-90.52,31.75-128.41,24.79-37.31,63.24-62.67,103.15-81.45,44.96-21.15,92.99-36.62,141.01-49.1,50.67-13.16,102.4-22.24,154.51-27.25,104.11-9.99,209.84-3.61,311.9,19.36,53.03,11.93,104.14,30.07,156.32,45.01,26.79,7.67,53.94,14.28,81.57,18.04,28.38,3.85,57.04,4.29,85.61,5.48,33.48,1.39,67.65,4.01,99.33,14.49Z"/><path d="m1285,2708.52v2.45c-52.46-18.97-115.2-18.76-168.85-23.07-101.61-8.18-195.71-49.58-295.16-68.53-104.05-19.81-211.67-18.41-316.68-7.57-94.81,9.79-192.58,32.46-266.93,95.62-33.34,28.32-60.58,63.91-75.97,105.07-17.37,46.49-19.22,96.91-15.15,145.89,3.3,39.85,10.36,79.21,16.96,118.62,1.81,10.81,3.59,21.63,5.25,32.46,7.8,51,13.72,102.3,17.58,153.75,15.29,203.37-1.56,410.11-59.95,605.96-29.76,99.83-70.15,196.62-121.1,287.42v-4.41c64.92-116.52,112.36-242.81,142.51-372.66,48.56-209.18,52.45-427.3,23.14-639.56-2.87-20.79-6.49-41.8-10.19-62.96-13.44-76.66-27.9-155.16-11.16-231.21,18.7-84.95,82.07-149.49,158.66-186.75,90.73-44.13,196.24-52.83,295.66-56.31,53.22-1.86,106.64-.58,159.57,5.58,51.26,5.97,101.15,17.51,150.69,31.71,50.02,14.32,99.8,30.15,151.14,39.17,52.14,9.17,105.17,7.41,157.53,14.32,21.47,2.84,42.57,7.47,62.45,15.01Z"/><path d="m1285,2718.94v2.26c-2.98-1.13-5.98-2.18-9.01-3.15-45.12-14.5-93.29-14.57-140.03-19.22-109.88-10.93-216.63-40.42-324.52-62.53-109.46-22.43-223.52-37.6-334.5-16.87-88.27,16.49-173.57,58.24-233.52,126.25-30.56,34.67-53.1,75.69-64.66,120.51-13.42,52.07-12.68,106.52-8.14,159.72,1.46,17.06,3.23,34.08,5.13,51.09,4.21,37.81,9.06,75.57,12.49,113.46,4.98,54.92,8.35,110,9.72,165.13,5.24,210.94-19.2,424.99-95.38,622.87-26.44,68.67-58.94,135.25-97.58,197.94v-4.03c53.37-87.31,94.85-182.1,124.83-279.65,65.54-213.24,76.29-439.75,59.59-661.05-3.9-51.72-9.94-103.16-15.76-154.67-.43-3.76-.86-7.53-1.28-11.3-6-53.48-10.5-107.83-3.27-161.42,12.1-89.71,62.68-164.98,136.17-216.59,178.15-125.12,406.59-76.69,603.18-32.48,55.11,12.39,110.3,24.72,166.14,33.44,50.1,7.83,100.67,9.34,150.82,16.22,20.13,2.76,40.49,6.98,59.58,14.07Z"/><path d="m1285,2738.17v2.83c-33.06-18.89-71.13-26.6-109.42-31.07-51.95-6.08-103.54-11.74-155.01-21.41-52.67-9.89-104.92-21.83-157.31-33.11-105.61-22.74-213.37-43.2-321.92-36.95-54.09,3.11-108.74,13.39-157.34,38.2-37.18,18.97-69.65,46.11-96.23,78.18-54.99,66.35-85.13,151.27-97.12,235.82-5,35.3-6.93,70.79-6.89,106.34.09,75.14,8.94,150.54,16.02,225.01,9.58,100.94,13.26,201.42,3.13,302.47-9.36,93.51-28.54,186.01-56.99,275.57-34.03,107.16-81.37,210.04-140.92,305.29v-4.09c23.02-37.03,44.19-75.23,63.43-114.35,42.85-87.12,76.21-178.91,99.5-273.17,23.29-94.27,36.49-191.05,38.93-288.14,2.76-109.58-12.39-217.84-20.67-326.84-2.57-33.8-4.3-67.81-4.3-101.75.01-66.85,6.75-133.45,27.1-197.67,24.8-78.26,68.77-153.02,136.27-201.64,83.1-59.86,190.92-67.3,289.93-60.77,108.39,7.14,214.17,33.65,320.08,56.14,54.87,11.66,110.03,22.35,165.78,28.82,48.64,5.64,99.28,7.25,144.94,26.76,6.64,2.84,12.97,6.02,19.01,9.53Z"/><path d="m1285,2756.97v3c-17.71-13.83-37.65-24.91-60.2-32.16-26.44-8.49-54.2-11.51-81.73-14.04-26.46-2.43-52.85-5.09-79.15-8.94-54.01-7.9-107.45-19.16-160.81-30.55-106.11-22.67-213.6-46.84-322.77-44.43-52.8,1.16-110.37,6.4-159.03,28.43-48.58,21.99-78.17,68.84-107.59,111.15-60.17,86.54-110.98,181.95-120.71,288.57-.58,6.34-1.04,12.67-1.39,19-5.72,104.09,18.27,207.44,25.37,310.97,6.31,92.12,2.84,184.87-9.92,276.32-12.87,92.25-35.24,183.18-66.76,270.82-31.32,87.05-71.67,170.89-120.74,249.33-4.77,7.63-9.63,15.21-14.57,22.74v-4.13c18.72-28.69,36.25-58.16,52.56-88.28,45.56-84.13,81.67-173.32,108-265.28,26.26-91.73,42.8-186.23,49.22-281.42,3.19-47.4,3.88-94.98,1.99-142.45-2.05-51.7-7.92-102.98-14.42-154.28-7.27-57.35-14.61-114.98-13.7-172.9.11-7.17.38-14.31.79-21.44,2.68-46.34,11.74-91.74,27.82-135.52,17.62-47.98,42.15-93.15,69.69-136.1,13.84-21.57,28.47-42.63,43.52-63.37,14.49-19.97,28.99-40.42,47.07-57.34,36.71-34.36,87.52-45.5,135.89-51.97,53.92-7.22,108.6-6.42,162.65-1,108.96,10.93,215.05,39.56,322.43,59.8,28.23,5.32,56.57,10.08,85.05,13.79,27.25,3.56,54.66,5.37,81.96,8.5,43.57,5,84.44,16.67,119.48,43.18Z"/><path d="m1285,2783.21v3.08c-16.59-14.5-34.95-27.03-55.4-36.91-46-22.25-97.39-29.06-147.76-33.3-49.98-4.21-99.71-7.42-149.19-16.12-105.43-18.53-208.65-51.56-315.98-58.19-50.59-3.12-107.8-3.52-154.22,19.62-42.36,21.11-66.81,62.66-90.94,101.39-25.56,41.03-56.88,76.77-87.04,114.36-31.57,39.33-56.63,81.63-70,130.58-6.23,22.81-10.17,45.95-12.4,69.28-7,73.33,2.97,148.52,12.27,220.97,6.09,47.45,12.34,94.91,14.97,142.71,2.52,45.9,2.25,91.95-.73,137.82-5.93,91.44-22.57,182.15-49.13,269.83-26.43,87.27-62.67,171.59-107.99,250.71-20.34,35.53-42.53,69.97-66.46,103.16v-3.78c38.43-53.63,72.27-110.54,101.25-169.81,41.35-84.59,72.76-174.04,93.45-265.89,20.77-92.24,30.69-186.95,28.86-281.5-1.89-98.25-21.16-194.64-28.39-292.42-2.75-37.15-3.33-74.82.21-111.8,5.47-56.96,20.75-112.27,53.04-161.5,27.73-42.28,63.78-78.19,93.26-119.16,26.02-36.14,45.1-77.88,77-109.54,34.11-33.87,79.94-44.83,126.61-47.56,52.6-3.07,105.26,2.43,157.04,11.44,106.75,18.58,210.58,50.17,319,58.88,48.85,3.93,98.28,5.9,146.11,17.44,41.62,10.04,80.05,28.45,112.56,56.21Z"/><path d="m1285,2796.59v2.9c-11.97-10.61-24.85-20.25-38.73-28.7-43.97-26.79-94.51-37.5-145.15-42.79-51.58-5.39-103.39-6.95-154.8-14.22-110.2-15.59-217.62-46.29-327.77-62.15-51.63-7.43-106.9-10.49-150.07,23.92-19.21,15.3-34.61,34.9-50.32,53.6-18.78,22.34-37.56,44.68-56.34,67.02-35.08,41.75-72.69,82.55-102.36,128.45-28.11,43.5-45.08,92.28-51.67,143.57-.38,2.94-.72,5.87-1.04,8.81-10.71,98.61,10.6,197.85,24.94,295.01,13.72,92.89,17.84,185.83,7.45,279.32-10.11,91.05-32.2,180.66-64.43,266.38-32.44,86.25-75.08,168.63-126.33,245.2-13.84,20.68-28.3,40.92-43.38,60.71v-3.69c30.25-39.92,58.03-81.7,83.14-125.02,47.87-82.6,86.05-170.88,112.58-262.61,26.24-90.74,41.02-184.86,42.35-279.35.66-47.4-2.26-94.71-8.21-141.73-6.67-52.75-16.2-105.09-23.35-157.77-7.87-57.95-13.11-118.06-6.86-176.45,4.13-38.56,13.26-76.38,29.95-112.33,21.94-47.23,55.94-87.17,89.18-126.72,36.88-43.88,73.24-88.28,110.74-131.63,15.58-18,32.59-35.52,53.94-46.63,20.27-10.53,43.11-14.66,65.79-15.26,24.49-.65,48.9,2.59,73.06,6.24,27.77,4.18,55.4,9.27,82.94,14.77,55.64,11.11,110.94,23.92,166.7,34.46,55.57,10.51,111.23,17.35,167.63,21.26,50.48,3.5,101.86,6.95,150.15,23.26,33.42,11.29,63.84,29.18,90.27,52.17Z"/><path d="m1285,2823.31v3.07c-6.79-6.74-13.88-13.19-21.29-19.33-36.24-30.01-78.81-49.5-124.85-58.88-54.75-11.15-111.21-10.52-166.73-14.77-56.73-4.35-113.26-11.33-169.35-20.9-56.4-9.63-111.64-23.19-167.28-36.31-51.37-12.12-107.42-18.13-150.8,18.08-32.75,27.34-51.38,67.58-73.35,103.21-25.05,40.61-58.67,72.04-93.09,104.57-18.25,17.25-36.12,35.06-51.14,55.26-14.99,20.17-26.67,42.71-35.25,66.3-6.4,17.59-11.09,35.41-14.39,53.39-16.01,87.16.82,178.04,16.35,264.54,9.26,51.59,17.47,103.25,20.25,155.65,2.54,47.81,1.37,95.79-3.27,143.43-9.21,94.7-32.01,187.85-65.57,276.82-33.8,89.59-78.4,175.01-131.41,254.71-15.56,23.39-31.84,46.29-48.83,68.67v-3.7c32.65-43.23,62.72-88.4,89.9-135.26,49.63-85.56,89.65-176.87,117.09-271.96,27.15-94.07,41.84-191.85,41.13-289.84-.38-52.71-5.69-104.98-14.32-156.95-9.36-56.39-21.33-112.42-27-169.36-4.51-45.33-4.36-92.07,3.89-136.75,9.4-51.03,29.34-99.38,64.92-139.87,33.06-37.63,74.08-67.58,105.35-106.87,27.41-34.42,44.68-75.54,71.52-110.35,11.7-15.16,25.38-28.98,41.9-38.85,20.24-12.1,43.54-17.08,66.96-17.03,26.14.05,51.97,5.61,77.25,11.79,27.53,6.74,54.98,13.69,82.7,19.65,58.7,12.62,118.02,22.36,177.67,29.17,56.67,6.48,113.5,8.37,170.32,12.81,49.86,3.9,99.66,12.53,144.19,36.39,24.52,13.13,46.74,30.04,66.53,49.47Z"/><path d="m1285,2846.08v3.4c-13.81-16.3-28.82-31.51-45.25-45.18-35.31-29.38-76.75-49.77-122.45-56.25-53.1-7.53-107.16,0-160.48.47-104.43.94-209.01-12.94-309.57-41.12-46.74-13.09-102.04-35.96-147.38-6.67-32.8,21.2-47.94,60.63-63.86,94.47-7.96,16.91-16.32,33.72-27.2,48.97-11.74,16.44-25.84,31.03-40.71,44.65-31.03,28.42-65.86,52.97-93.43,85.01-25.74,29.91-40.19,65.43-47.54,103.17-2.12,10.84-3.65,21.87-4.69,33-4.81,51.4-1.64,103.38,4.29,154.54,12.27,105.94,37.34,210.6,38.04,317.68.66,100.4-18.32,200.35-50.95,295.1-46.86,136.04-121.38,259.56-208.82,373.17v-3.55c42.97-55.97,82.77-114.38,117.73-175.71,51.33-90.04,91.95-186.46,115.98-287.42,12.16-51.08,20.04-103.2,22.76-155.65,2.75-53-.51-105.88-7.11-158.49-13.41-106.94-38.63-213.15-36.26-321.53.52-23.62,2.2-47.68,6.56-71.14,4.43-23.91,11.65-47.17,23.24-68.67,20.16-37.37,52.96-65.16,84.98-92.06,32.73-27.5,65.43-55.43,86.58-93.25,18.4-32.89,29.9-70.11,53.38-100.01,10.57-13.47,23.73-24.76,39.6-31.46,21.31-8.99,44.84-8.51,67.23-4.49,25.26,4.52,49.63,13.11,74.33,19.88,25.67,7.03,51.6,13.13,77.71,18.29,53.7,10.62,108.17,17.26,162.84,19.85,53.69,2.54,106.84-1.25,160.46-2.29,47.88-.93,94.85,4.69,137.76,27.17,35.59,18.65,66.16,45.72,92.23,76.12Z"/><path d="m1285,2880.48v3.66c-15.39-21.71-32-42.51-51.23-60.89-36.35-34.74-80.86-54.6-130.63-60.71-49.16-6.03-98.83-1.08-148.05,1.35-106.17,5.24-210.85-10.19-310.9-46.13-45.35-16.3-99.1-36.35-144.05-8.1-30.56,19.21-45.69,54.22-58.21,86.55-12.69,32.77-23.51,67.35-44.32,96.13-25.48,35.24-65.91,52.89-98.6,80.04-33.44,27.77-50.29,64.58-57.9,104.62-9.75,51.28-4.33,107.86.81,157.52,11.33,109.35,32.87,217.54,39.67,327.38,3.37,54.33,2.99,109.02-4.14,163.05-6.11,46.31-17.07,91.9-31.94,136.16-30.05,89.47-75.53,172.99-127.17,251.72-35.44,54.03-73.85,105.98-113.34,157.11v-3.67c55.21-71.58,108.45-144.94,153.88-223.17,48.78-84,88.38-174.11,108.09-269.57,22.27-107.87,14.86-217.97.87-326.39-7.19-55.69-15.91-111.18-22.9-166.9-6.33-50.52-12.63-101.89-11.11-152.91.5-16.71,1.97-33.69,5.03-50.33,4.63-25.27,12.94-49.76,27.07-71.38,25.26-38.63,67.45-57.12,102.08-85.53,31.36-25.73,47.58-60.91,61.72-98.01,12.09-31.73,22.84-65.79,44.72-92.42,25.67-31.27,63.8-40.94,102.89-34.19,25.57,4.42,49.92,13.89,74.27,22.56,25.25,8.99,50.93,16.71,76.96,23.04,54.05,13.14,109.51,20.42,165.12,21.63,51.15,1.11,102.03-4.79,153.14-5.2,47.5-.38,96.24,4.76,138.77,27.46,39.74,21.22,70.34,55.5,96.5,91.5.97,1.34,1.94,2.68,2.9,4.02Z"/><path d="m1285,2922.38v2.5c-17.82-24.75-36.98-48.39-57.5-70.53-32.26-34.82-70.81-64.79-117.62-76.44-50.2-12.48-102.53-4.71-152.95,2.03-50,6.68-99.04,10.81-149.21,3.16-50.19-7.66-98.67-23.42-146.77-39.22-24.26-7.97-48.5-16.01-73.01-23.17-21.95-6.41-46.8-15.49-69.99-11.39-26.68,4.71-34.84,30.61-43.46,52.85-7.73,19.92-14.73,40.11-22.43,60.04-14.39,37.23-31.5,74.74-60.07,103.37-32.48,32.52-79.07,46.09-108.31,82.43-16.6,20.64-27.47,44.07-34.28,68.99-16.29,59.56-9.43,127.59-2.34,186.17,12.85,106.26,36.93,211.07,44.16,318.02,6.87,101.66-6.32,201.65-39.13,298.13-32.43,95.37-80.98,184.4-137.23,267.7-34.32,50.84-71.45,99.63-109.86,147.42v-3.58c56.05-69.87,109.41-142.04,154.95-219.25,52.24-88.58,94.03-184.24,115.53-285.1,10.92-51.26,16.12-103.48,15.5-155.9-.65-55.37-7.07-110.49-15.23-165.2-8.07-54.11-17.83-107.95-25.6-162.11-6.86-47.74-13.17-96.17-12.55-144.5.35-27.36,2.99-55.22,10.08-81.8,3.31-12.42,7.59-24.55,13.07-36.23,8.27-17.65,19.41-33.98,33.42-47.59,16.54-16.07,36.81-27.15,56.34-39.08,20.09-12.27,38.22-26.35,53-44.81,13.67-17.06,24.27-36.39,33.3-56.23,9.14-20.07,16.7-40.82,24.3-61.51,7.23-19.69,13.8-40.25,23.44-58.93,21.96-42.54,74.37-22.93,109.85-12.35,49.85,14.86,98.67,33.06,148.92,46.61,50.37,13.59,101.64,21.36,153.87,17.54,51.92-3.79,103.21-15.55,155.41-15.32,47.65.21,91.98,13.26,130.43,41.71,36.31,26.88,65.44,62.39,92.31,98.37,3.27,4.37,6.49,8.77,9.66,13.2Z"/><path d="m1285,2949.97v4.41c-22.38-32.43-47.16-63.4-76-90.31-32.42-30.25-70.46-55.17-113.43-67.35-52.85-14.98-108.23-8.76-162.14-4.84-51.61,3.74-101.72,2-152.5-8.42-50.6-10.38-99.79-26.37-149.44-40.39-25.18-7.11-51.46-15.87-77.63-18.25-25.57-2.33-47.33,7.78-63.5,27.36-29.46,35.69-31.16,83.74-50.46,124.28-18.89,39.67-56.17,58.41-91.73,80.61-20.29,12.68-38.6,27.38-53.13,46.54-13.63,17.97-23.8,38.43-30.98,59.77-1.52,4.51-2.9,9.05-4.14,13.62-12.43,45.56-11.77,93.63-7.05,140.38,5.71,56.7,15.38,113.04,23.32,169.45,15.05,107.02,27.61,215.34,20.06,323.53-6.61,94.74-30.76,186.76-69.12,273.52-54.91,124.17-134.5,234.93-222.13,338.48v-3.61c104.75-124.13,199.1-259.77,250.62-414.54,33.39-100.31,44.04-204.93,39.53-310.27-4.83-112.92-24.57-224.35-39.66-336.16-7.84-58.05-13.03-122.84,2-180.78,8.69-33.55,24.17-64.8,49.83-91.11,30.71-31.47,74.3-45.28,105.78-75.64,35.52-34.26,37.25-84.44,56.19-127.31,7.68-17.38,18.32-34.26,33.45-46.09,16.93-13.25,36.97-16.54,57.95-13.45,26.18,3.86,52.1,11.98,77.49,19.23s50.65,14.92,76.07,22.01c51.33,14.33,103.78,26.42,157.3,27.34,54.28.94,108.2-8.93,162.49-6.74,46.17,1.87,89.71,14.77,128.68,39.71,36.75,23.52,67.87,54.98,95.02,88.9,9.41,11.76,18.49,23.81,27.26,36.12Z"/><path d="m1285,2975.13v4.3c-24.32-35.97-52.26-69.3-85.45-98.01-35.54-30.75-76.45-55.95-121.25-70.64-50.55-16.58-101.88-15.03-154.25-11.05-28.26,2.15-56.65,4.39-85,2.69-24.25-1.46-48.07-6.25-71.41-12.86-48.89-13.83-95.54-34.91-145.19-46.17-25.75-5.83-54.41-10.79-80.46-3.98-20.68,5.41-36.68,19.18-47.79,37.1-20.29,32.75-25.91,72.14-43.45,106.22-37.73,73.29-124.03,101.38-170.25,167.51-6.06,8.66-11.07,17.6-15.16,26.76-36.76,82.12,0,182.14,16.95,265.53,22.06,108.51,33.99,219.93,32.67,330.72-.64,54.21-5.16,108.55-16.36,161.66-10.63,50.42-27.62,99.29-48.63,146.29-43.38,97.03-102.35,187.04-164.7,272.79-25.98,35.74-52.87,70.8-80.27,105.45v-3.62c45.18-57.19,88.91-115.51,129.44-176.1,59.46-88.9,114.4-183.23,146.41-285.83,33.91-108.69,35.98-223.78,28.26-336.5-3.91-57.09-10.81-113.97-20.68-170.33-9.31-53.22-23.51-105.37-33.17-158.49-8.42-46.23-12.69-95.57,3.34-140.71,1.32-3.71,2.77-7.32,4.35-10.86,14.8-33.24,40.54-59.14,68.76-81.95,31.93-25.82,67.06-48.54,94.11-79.83,27.98-32.37,37.08-72.18,52.44-110.98,13.73-34.7,35.61-64.24,75.07-69.26,23.12-2.93,47.18,1.14,69.71,6.24,25.28,5.73,49.86,14.06,74.28,22.62,50.64,17.75,101.02,35.79,155.3,36.85,56.52,1.11,112.89-10.83,169.38-4.53,89.79,10.01,168.85,64.21,226.6,131.44,13.06,15.21,25.14,31.1,36.4,47.53Z"/><path d="m1285,3005.1v5c-23.32-37.19-49.15-72.98-79.32-104.95-29.7-31.47-63.88-59.45-103.19-78-20.02-9.45-41.27-16.29-63.13-19.89-26.69-4.39-53.79-3.39-80.64-1.24-27.85,2.24-55.61,5.51-83.59,5.62-25.1.1-50.21-1.83-75.01-5.71-26.77-4.18-53.11-10.73-78.79-19.38-24.55-8.26-48.59-18.06-73.48-25.29-42.81-12.42-92.35-16.23-131.08,10.09-19.38,13.17-30.56,32.66-36.82,54.9-6.06,21.5-8.59,44.04-17.77,64.59-31.18,69.84-116.07,90.88-161.37,148.67-9.27,11.82-16.39,24.38-21.74,37.49-28.7,70.3-6.51,156.35,8.82,227.58,22.74,105.66,34.92,213.54,36.15,321.62,1.17,102.79-4.85,208.2-30.36,308.14-12.24,47.96-29.62,94.68-53.77,137.97-25.77,46.2-58.1,88.3-89.65,130.61-48.42,64.94-96.84,129.89-145.26,194.83v-3.74c30.64-41.08,61.27-82.17,91.9-123.25,33.36-44.75,67.53-89.01,99.66-134.66,30.91-43.92,57.45-90.08,75.95-140.63,17.68-48.33,28.9-98.81,36.21-149.69,15.62-108.73,16.79-220.25,8.05-329.63-4.51-56.49-12.01-112.73-22.46-168.42-8.86-47.18-21.18-93.78-27.37-141.44-5.57-42.95-6.38-88.4,9.86-129.29.05-.13.11-.27.16-.4,14.58-36.42,42.19-62.53,73.42-85.03,31.29-22.53,66.11-42.13,91.11-72.11,14.27-17.13,22.69-36.7,27.91-58.27,5.24-21.64,8.43-44.44,19.87-63.94,19.41-33.09,58.72-47.19,95.44-48.01,50.09-1.13,96.64,22.02,143.23,37.14,52.63,17.07,108.2,24.8,163.49,22.66,52.97-2.05,106.03-13.18,158.72-2.03,84.41,17.87,150.33,81.29,200.27,148.29,12.05,16.17,23.57,32.8,34.58,49.8Z"/><path d="m1285,3040.91v4.53c-3.78-6.15-7.58-12.29-11.41-18.41-23.69-37.86-48.98-75.03-79.1-108.13-29.27-32.16-63.48-60.49-103.48-78.21-45.22-20.05-94.8-23.37-143.64-22.42-49.66.97-99.55,5.98-149.12.66-24.49-2.63-48.33-8.14-71.38-16.84-23.68-8.94-46.4-20.22-70.13-29-42.91-15.87-96.99-23.28-133.63,10.54-27.67,25.54-36.75,64.67-48.71,98.9-12.27,35.1-28.46,65.69-60.59,86.28-17.92,11.48-37.59,19.86-55.94,30.57-20.02,11.69-37.1,26.57-49.26,46.48-6.02,9.85-10.78,20.31-14.51,31.14-10.3,29.91-12.8,62.73-12.53,93.96.47,52.95,7.48,105.74,15.94,157.93,16.88,104.1,40.05,207.63,38.5,313.68-.8,54.37-6.75,108.51-14.26,162.32-7.23,51.8-14.94,103.77-27.52,154.59-12.09,48.85-29.37,96.03-54.29,139.85-24.46,42.98-54.46,82.46-84.8,121.39-49.96,64.12-100.05,128.13-150.14,192.15v-3.67c32.98-42.18,65.94-84.37,98.92-126.56,32.93-42.13,66.8-83.72,97.59-127.47,30.38-43.18,56.24-88.89,73.66-138.88,17.33-49.78,27.48-101.7,35.74-153.65,8.74-55.02,16.55-110.34,20.47-165.93,3.92-55.49,2.74-110.82-3.64-166.08-12.34-106.96-39.66-211.85-46.79-319.47-2.86-43.17-3.48-87.97,9.46-129.75.46-1.48.93-2.95,1.43-4.41,5.67-16.81,13.77-32.84,24.97-46.66,13.35-16.46,30.71-28.1,49.2-38.09,20.04-10.83,41.29-20.04,59.25-34.3,15.14-12.03,26.2-27.63,34.52-44.96,16.13-33.64,22.41-71.41,40.89-104,19.61-34.57,53.26-52.51,92.93-51.62,49.1,1.1,91.91,27.14,136.82,43.66,96.65,35.53,199.3,3.66,298.51,19.35,88.91,14.06,154.83,74.83,206.18,145.17,17.75,24.32,34.14,49.65,49.89,75.36Z"/><path d="m1285,3062.26v3.07c-29.17-45.69-60.53-89.97-94.39-131.87-30.34-37.54-65.89-72.44-111.79-89.89-43.73-16.63-91.31-17.15-137.43-14.94-46.62,2.23-93.39,7.56-140.08,3.91-21.51-1.69-42.93-5.32-63.46-12.09-22.62-7.47-43.66-18.78-65.09-29.02-42.46-20.27-99.39-38.54-139.39-2.82-29.27,26.13-36.37,68.42-49.86,103.41-6.26,16.22-13.93,31.92-25.09,45.38-11.96,14.44-27.01,25.93-42.54,36.27-34.8,23.15-74.9,42.03-97.66,78.8-4.81,7.78-8.96,15.99-12.51,24.53-16.49,39.55-20.4,85.97-20.02,127.44.49,53.23,9.73,105.92,20.22,157.96,10.25,50.79,21.95,101.36,29.06,152.73,7.44,53.7,9.14,108.02,6.92,162.15-2.25,54.45-8.37,108.68-16.34,162.58-7.69,51.96-17.03,103.81-31.26,154.42-13.51,48.08-31.71,94.66-55.94,138.38-24.21,43.65-53.35,84.33-83.99,123.66-48.56,62.33-98.99,123.27-149.36,184.22v-4.02c33.63-41.13,67.27-82.24,100.88-123.39,32.81-40.16,65.48-80.56,94.6-123.51,29.34-43.26,54.47-89.07,72.83-138.08,18.77-50.13,31.23-102.39,40.74-154.99,19.84-109.76,32.61-222.93,23.78-334.47-8.47-107.01-43.29-209.81-52.39-316.69-4.26-50.09-2.33-101.38,11.91-149.86,1.84-6.25,3.92-12.46,6.31-18.53,5.88-14.96,13.62-29.14,24.13-41.44,12.22-14.31,27.42-25.71,43.05-36.03,34.71-22.89,74.61-41.93,96.7-78.92,19.66-32.91,24.79-72.03,42.9-105.63,8.21-15.25,19.51-28.89,34.65-37.64,18.58-10.74,40.69-12.87,61.66-10.22,48.6,6.14,88.49,37.52,134.38,52.02,91.66,28.96,188.36-2.45,281.8,8.84,43.82,5.29,83.66,21.53,117.61,49.89,37.09,30.99,65.87,71.09,93.86,110.11,17.47,24.35,34.34,49.12,50.6,74.28Z"/><path d="m1285,3081.53v3.54c-1.73-2.7-3.47-5.39-5.21-8.07-28.83-44.37-59.28-87.67-91.51-129.46-28.9-37.48-62.01-74.15-105.67-94.41-44.72-20.73-94.99-20.66-143.19-17.58-47.29,3.02-95.04,9.19-142.33,2.9-23.8-3.16-46.3-10.2-68.26-19.79-23.68-10.34-46.6-22.72-71.28-30.63-23.85-7.64-50.31-11.36-74.8-4.46-22.05,6.2-39,21.3-51.1,40.32-21.21,33.32-29.23,73.6-53.47,105.22-25.99,33.9-65.14,53.53-98.52,78.93-24.91,18.96-44.43,42.26-58.63,68.96-7.57,14.22-13.62,29.4-18.17,45.41-29.49,103.74,5.11,209.73,23.88,312.01,19.36,105.5,26.34,213.44,18.8,320.49-7.23,102.69-27.91,204.55-63.58,301.19-5.57,15.1-11.5,30.08-17.79,44.9-30.06,71-68.21,138.59-114.12,200.54-27.31,36.84-57.33,71.68-89.94,103.92-17.27,17.08-35.35,34.67-55.11,49.66v-3.12c2.6-2.02,5.18-4.09,7.72-6.19,73.67-60.84,135.52-137.64,184.83-219.15,24.37-40.29,45.79-82.33,64.19-125.66,19.33-45.49,35.32-92.4,47.89-140.19,28.04-106.59,39.31-217.27,36.1-327.35-1.61-55.36-6.87-110.62-15.51-165.33-8.73-55.27-22.52-109.54-31.99-164.67-12.78-74.31-15.59-158.27,19.71-226.46,7.08-13.7,15.71-26.77,26.11-38.99,29.21-34.35,70.54-53.86,104.8-82.27,16.92-14.03,31.01-30.36,41.39-49.79,9.45-17.69,16.4-36.55,24.61-54.82,16.08-35.76,39.4-67.09,80.95-72.48,48.84-6.34,92.52,20.05,135.54,38.67,24.79,10.72,50.25,17.69,77.19,20.16,24.02,2.21,48.21,1.5,72.25.02,47.5-2.93,95.53-9.44,143.03-3.14,45.77,6.06,85.43,26.42,118.84,58.01,35.23,33.33,63.34,74.16,91.2,113.6,16.52,23.37,32.58,47.05,48.2,71.03.99,1.51,1.97,3.02,2.95,4.53Z"/><path d="m1285,2480.78v2.25c-22.68-1.67-45.36-3.33-68.05-5-71.99-5.3-146.03-9.07-214.52-33.94-30.74-11.16-63.14-26.75-86.44-50.24-10.85-10.94-18.38-24.16-20.64-39.52-2.62-17.82,1.07-35.98,4.86-53.35,16.5-75.44,48.2-148.27,53.29-225.96.49-7.38.67-14.73.53-22.02-.57-31.36-6.97-61.83-20.1-90.87-7.5-16.59-16.13-32.73-22.11-49.96-6.18-17.8-8.28-36.27-8.79-55.01-1.04-37.61,2.13-76.16-17.12-110.15-15.44-27.29-40.81-47.61-68.53-61.52-69.72-35-149-26.49-223.99-19.64-76.18,6.95-153.5,8.23-226.79-17.04-33.75-11.63-64.69-28.96-92.92-50.75-29.28-22.6-55.54-48.75-82.66-73.83-51.51-47.64-113-94.85-186.02-96.08v-2.26c14.35.23,28.59,2.17,42.53,5.78,69.08,17.89,121.58,68.95,172.11,116.28,27.47,25.73,55.62,51.18,87.9,70.83,32.51,19.8,68.69,32.78,105.89,40.42,37.68,7.74,76.35,10.07,114.75,8.9,41.91-1.27,83.52-6.94,125.35-9.52,67.82-4.2,139.6,1.26,195.57,43.94,22.03,16.79,40.01,39.11,48.59,65.7,12.18,37.77,4.04,77.99,9.73,116.64,5.58,37.86,28.78,69.33,39.72,105.46,6.17,20.42,8.92,41.5,9.17,62.68.18,14.84-.86,29.71-2.8,44.43-9.93,75.25-41.22,145.48-54.32,220.01-3.57,20.29-4.31,41.79,6.68,60.07,9.58,15.92,25.3,27.35,40.74,37.1,30.69,19.38,65.14,31.94,100.32,40.33,75.25,17.95,154.16,19.67,231.01,25.32,2.35.17,4.71.35,7.06.52Z"/><path d="m1285,2502.51v2.09c-37.42-.94-74.78-3.33-111.93-8.11-36.51-4.69-72.75-11.68-108.11-21.95-34.22-9.93-69.38-22.2-100.07-40.6-27.37-16.41-48.23-40.14-56.02-71.55-7.59-30.66-3.56-63.03,2.8-93.53,7.49-35.93,18.78-70.93,25.71-107.01,6.88-35.78,10.6-72.44,8.09-108.85-.27-3.99-.61-7.97-1.04-11.95-4.29-40.05-18.54-77.43-30.88-115.46-10.6-32.66-16.18-65.45-21.38-99.26-4.64-30.19-10.33-61.87-27.71-87.69-21.2-31.49-57.47-44.43-92.97-52.61-140.66-32.4-294.76,22.69-428.68-43.88-62.96-31.29-111.84-83.08-165.6-127.09-48.99-40.1-107.98-76.26-172.21-79.56v-2.32c6.99.32,13.97,1.05,20.92,2.15,146.69,23.4,221.7,178.2,359.36,221.52,70.55,22.19,145.81,18.09,218.73,16.31,70.07-1.72,146.05-3.55,211.91,24.32,28.78,12.18,50.01,32.99,62.08,61.84,11.68,27.9,15.11,58.44,19.58,88.09,5.43,36.09,15.57,70.09,27.18,104.62,11.14,33.15,20.26,66.22,22.91,100.97.3,3.86.52,7.75.65,11.66,1.32,39.39-4.24,78.75-12.79,117.11-7.76,34.79-18.91,68.8-24.77,104.01-5.54,33.27-6.69,69.49,9.36,100.21,17.63,33.73,52.42,51.58,86.15,65.62,88.52,36.82,183.36,48.59,278.73,50.9Z"/><path d="m1285,2523.13v2.27c-51.75-7.82-103.38-16.36-154.89-25.6-68.57-12.31-144.98-22.05-199.31-69.89-23.66-20.84-40.55-48-45.5-79.39-5.65-35.86,3.06-72.29,13.04-106.58,18.18-62.45,38.41-126.01,35.24-190.94-.7-14.3-2.54-28.67-5.78-43.11-8.48-37.76-24.34-73.31-34.64-110.55-8.46-30.6-12.29-62.21-19.85-93.01-7.71-31.4-19.97-62.38-44.27-84.7-23.57-21.66-54.71-32.05-85.89-36.53-31.54-4.53-63.63-3.56-95.34-1.83-35.8,1.96-71.61,3.92-107.47,3.93-68.08.02-137.88-6.67-200.7-34.69-64.55-28.8-112.48-80.91-165.28-126.11-47.12-40.34-106.02-77.6-169.36-78.1v-2.28c5.7.03,11.41.37,17.11,1.01,69.7,7.81,126.93,53,177.19,98.41,26.67,24.1,52.82,48.95,81.89,70.2,29.17,21.32,61.2,37.71,95.7,48.52,68.05,21.33,140.62,22.45,211.27,19.81,63.45-2.37,131.76-13.19,193.3,7.72,27.34,9.29,51.4,25.91,67.76,49.94,16.93,24.87,24.66,54.58,30.62,83.68,6.85,33.48,12.62,66.67,23.42,99.2,11.92,35.93,26.25,71.37,31,109.19.81,6.42,1.37,12.86,1.69,19.3,1.64,31.78-2.25,63.7-8.81,94.81-8.03,38.07-20.99,74.67-30.95,112.22-9.89,37.28-16.23,77.78-2.17,114.89,12.03,31.71,37.61,56.51,66.28,73.64,31.82,19.01,68.05,29.01,104.07,36.56,38.85,8.15,78.09,14.74,117.22,21.4,34.42,5.86,68.89,11.4,103.41,16.61Z"/><path d="m1285,2551.04v1.84c-100.14-31.52-210.77-36.96-308.17-75.58-31.39-12.45-61.65-29.63-80.7-58.39-17.6-26.55-24.28-58.88-24.41-90.36-.31-77.64,39.66-148.25,47.71-224.73,1.79-16.97,2.33-33.92,1.85-50.82-1.88-66.36-19.62-131.92-40.38-194.69-6.56-19.84-13.49-39.54-20.49-59.23-6.27-17.61-12.37-35.45-21.56-51.8-18.28-32.54-48.63-49.97-84.93-55.45-34.86-5.26-70.36-1.18-105.27,1.46-36.77,2.78-73.61,5.17-110.5,5.44-70.47.51-142.88-6.78-207.35-37.19-67.36-31.78-114.87-89.46-170.71-136.7-42.61-36.05-98.26-67.85-155.09-67.73v-2.27c.41,0,.82,0,1.24.01,71.38.76,131.87,45.58,181.92,92,27.78,25.76,54.43,52.87,84.47,76.05,30.13,23.26,63.62,41.03,99.91,52.6,70.88,22.59,146.75,23.12,220.35,19.23,36.53-1.93,72.98-6.05,109.54-7.36,31.73-1.13,65.58.47,94.4,15.2,30.19,15.43,46.37,44.06,58.04,74.69,14.5,38.05,27.69,76.86,39.41,115.86,15.58,51.85,27.54,105.75,29.11,159.88.8,27.18-1.02,54.41-6.31,81.47-14.63,74.84-53.22,147.42-40.63,225.52,5.75,35.66,22.76,67.98,52.28,89.49,32.27,23.53,72.89,35.67,111,45.94,76.51,20.63,155.79,29.15,231.87,51.52,4.47,1.31,8.94,2.68,13.4,4.1Z"/><path d="m1285,2556.55v2.41c-99.53-29.23-208.55-26.95-304.36-69.92-57.02-25.58-109.21-70.95-116.46-136.37-3.97-35.89,4.9-71.85,14.88-106.06,10.96-37.59,23.56-74.61,28.58-113.61,3.43-26.64,4.08-53.36,2.64-80-2.86-53.85-14.17-107.39-27.93-159.36-9.56-36.13-19.39-72.59-31.62-107.92-10.79-31.15-27.03-62.43-58.28-77.05-34.89-16.31-77.68-11.93-114.87-8.71-40.21,3.48-80.17,9.59-120.45,12.29-72.92,4.88-145.26-6.31-212.03-36.61-31.81-14.44-61.65-32.89-88.81-54.84-29.49-23.85-55.95-51.11-84.12-76.45-45.91-41.3-103.98-80.61-167.17-80.7v-2.21c5.34.02,10.7.32,16.04.89,71.98,7.74,128.19,56.86,178.66,104.48,27.82,26.25,55.61,52.67,87.49,74.04,30.74,20.6,64.3,36.96,99.39,48.69,34.52,11.53,70.52,18.67,106.85,20.96,40.5,2.56,80.97-1.45,121.18-6.03,40.21-4.59,80.8-10.24,121.36-9.2,31.95.81,63.93,8.14,86.13,32.69,20.42,22.57,29.89,52.7,38.44,81.27,11.73,39.17,23.25,78.44,32.62,118.25,9.67,41.1,17.05,83.25,19.3,125.52,1.9,35.69.15,71.46-6.96,106.76-14.47,71.84-57.73,148.07-32.58,222.35,22.1,65.28,89.78,101.55,151.51,121.01,83.1,26.2,176.13,28.88,260.57,53.43Z"/><path d="m1285,2574.78v2.12c-110.42-36-236.99-23.98-337.82-88.18-25.5-16.24-48.68-36.88-65.49-62.17-17.69-26.61-26.35-57.18-25.8-89.11.69-39.67,12.95-77.95,20.96-116.5,8.3-39.96,13.34-80.59,15.13-121.37.68-15.51.89-31.04.63-46.57-1.08-64.43-10.25-128.71-27.37-190.85-17.65-64.01-47.83-133.25-117.91-152.17-35.5-9.59-73.1-6.14-109.1-1.57-34.82,4.43-69.44,9.32-104.55,11-67.19,3.2-136.78-2.44-199.21-29.18-30.63-13.12-58.14-31.46-82.76-53.84-26.41-24-49.65-51.2-75.38-75.89-27.27-26.15-57.63-48.09-92.87-62.21-25.1-10.05-51.59-16.21-78.46-18.39v-2.3c6.74.52,13.47,1.31,20.17,2.36,35.47,5.55,69.92,18.15,100.4,37.14,29.88,18.62,54.88,43.57,79.1,68.84,25.09,26.17,49.9,53.08,79.73,74,28.28,19.84,60.24,33.89,93.5,43,67.89,18.58,139.92,17.67,209.35,9.84,66.68-7.51,144.52-27.48,203.79,15.35,52.94,38.25,71.92,109.33,85.42,169.72,11.38,50.92,17.54,102.99,18.4,155.15.45,27.08-.52,54.18-2.93,81.16-3.5,39.24-10.38,77.89-19.41,116.21-9.5,40.38-20.06,82.67-10.92,124.13,14.35,65.06,72.41,111.04,131.26,135.37,72.67,30.03,152.56,33.55,228.87,48.73,21.14,4.21,42.48,9.4,63.27,16.18Z"/><path d="m1285,2588.91v2.68c-39.87-14.51-81.23-24.85-123.51-31.54-39.58-6.27-79.61-10.86-118.32-21.57-31.03-8.59-60.61-21.65-87.36-39.64-49.2-33.1-89.36-83.05-99.92-142.5-6.85-38.53-1.26-77.75,5.77-115.82,7.44-40.21,15.16-80.1,18.09-120.96,1.59-22.21,1.99-44.42,1.22-66.56-1.84-53.52-10.45-106.64-25.34-158.3-5.4-18.75-11.55-37.27-18.33-55.56-6.53-17.62-12.96-33.51-25.2-47.99-10.43-12.33-22.31-23.37-34.23-34.24-13.49-12.31-28-22.35-45.06-29.09-35.37-13.99-71.8-11.19-108.82-8.41-39.01,2.94-78.07,5.05-117.17,6.19-69.63,2.04-141.13,1.99-203.76-33.02-29.96-16.74-52.9-40.97-73.43-68.11-21.46-28.36-41.27-58.18-69.02-80.94-43.37-35.57-99.68-54.28-155.61-53.34v-2.33c2.52-.05,5.03-.05,7.55,0,64.69.99,128.93,28.1,172.75,76.04,24.25,26.54,42.69,57.73,66.64,84.51,23.96,26.77,53.8,46.13,87.59,58.15,33.49,11.92,69.17,16.97,104.6,17.73,39.34.85,78.97-1.13,118.25-3.17,19.63-1.02,39.24-2.28,58.84-3.74,19.02-1.41,38.05-3.69,57.15-2.83,32.56,1.46,64.91,10.98,90.59,31.58,12.59,10.09,24.49,21.67,35.61,33.34,10.11,10.61,20.17,22.19,25.9,35.83,14.75,35.09,26.38,71.89,35.29,108.87,10.2,42.36,15.99,85.51,17.41,128.84,1.06,31.82-.24,63.73-3.86,95.51-8.78,77.07-40.6,158.53-13.94,235.22,21.09,60.65,72,107.42,129.01,134.45,71.21,33.75,152.21,32.88,227.62,51.45,21.35,5.26,42.38,11.7,63,19.28Z"/><path d="m1285,2595.2v2.05c-33.42-12.31-69.15-19.41-103.55-24.52-72.03-10.7-147.84-15.25-213.72-49.24-56.42-29.1-99.79-81.04-118.34-141.79-10.11-33.08-11.52-67.17-7.06-101.35,5.34-40.95,17.11-80.76,21.72-121.83,3.93-35.04,3.57-70.38.95-105.52-.51-6.86-1.1-13.7-1.77-20.54-3.94-40.23-9.18-80.76-16.66-120.5-11.87-63.15-38.05-125.54-95.31-160.06-64.23-38.72-141.52-28.8-212.47-23.36-72.74,5.58-147.66,6.99-215.83-22.89-64.38-28.21-108.43-83.7-157.93-131.25-42.49-40.81-99.53-79.79-160.03-79.43v-2.28c3.71-.03,7.42.11,11.14.39,71.13,5.4,127.58,55.74,175.09,104.26,24.21,24.72,48.05,50.06,75.32,71.49,30.33,23.84,64.84,40.67,102.26,50.13,75.05,18.97,152.87,8.08,228.87,2.53,65.91-4.81,137.92,5.47,186.99,53.5,46.33,45.34,60.53,109.6,69.69,171.38,5.25,35.44,10.07,71.01,12.6,106.63,3.32,46.55,2.76,93.17-5.81,139.64-7.66,41.53-19.28,82.82-19.2,125.36.07,34.12,8.53,67.98,23.71,98.49,14.67,29.5,35.42,55.88,60.72,77,28.68,23.94,62.93,39.64,98.64,49.95,69.76,20.13,143.18,20.85,213.58,37.84,15.54,3.75,31.16,8.3,46.4,13.92Z"/><path d="m1285,2614.97v2.53c-46.33-16.09-94.65-25.96-143.88-30.21-37.57-3.24-75.61-4.84-112.35-14.01-31.77-7.93-61.37-22.27-87.34-42.21-53.58-41.13-87.88-101.93-102.23-167.38-7.96-36.3-10.03-73.63-7.81-110.68,2.47-41.19,9.56-81.9,13.32-122.97,2.33-25.46,3.31-51.22,2.95-77.04-.79-56.04-7.88-112.31-21.01-166.26-4.29-17.65-11.49-34.3-20.63-49.97-8.95-15.35-19.04-31.11-30.74-44.52-21.81-25-52.97-39.96-84.81-47.59-17.17-4.11-34.77-5.7-52.31-7.43-15.67-1.56-31.37-2.78-47.11-3.18-35.93-.92-71.71,2.97-107.59,4.02-67.64,1.99-138.93-2.75-199.44-35.95-53.46-29.35-90.99-78.83-135.01-119.65-22.65-20.99-47.68-40.06-76.6-51.5-21.65-8.56-44.41-12.07-67.41-13.01v-2.31c3.37.13,6.74.32,10.11.57,32.47,2.44,63.04,11.91,90.59,29.31,24.93,15.74,46.49,36.15,67.14,57.03,21.53,21.77,42.28,44.4,65.48,64.43,26.01,22.44,55.06,40,87.71,50.97,68.92,23.17,142.88,19.2,214.33,14.91,33.11-1.99,65.94-1.08,98.93,2.22,31.85,3.18,63,7.5,92.13,21.66,13.86,6.74,26.85,15.37,37.98,26.06,11.77,11.31,20.91,25.23,29.83,38.8,9.07,13.79,17.21,28.23,23.11,43.67,6.89,18.01,10.31,37.24,13.8,56.13,8.07,43.67,12.4,87.58,13.08,131.59.56,36.83-1.44,73.72-5.92,110.59-4.91,40.35-10.92,80.75-10.51,121.51.37,37.61,5.81,75.3,17.62,111.08,21.62,65.54,66.13,123.66,127.93,155.8,69.33,36.06,150.25,27.25,225.03,41.2,27.74,5.17,55.04,12.47,81.63,21.79Z"/><path d="m447.03,2392.27c-21.76,50.83-63.16,90.74-108.54,120.97-52.79,35.18-112.7,57.33-171.67,79.73-55.92,21.23-111.03,43.71-161.82,75.26v-2.71c3.82-2.4,7.67-4.75,11.55-7.05,56.07-33.32,117.45-55.19,178.09-78.5,57.24-21.99,114.33-46.03,163.44-83.42,44.1-33.58,82.13-78.16,96.35-132.75,15.59-59.86.67-121.46-15.69-179.45-12.2-43.29-25.74-86.75-31.08-131.35-1.87-15.61-2.74-31.35-2.2-47.28,2.17-64.14,22.42-134.05-8.96-194.49-27.15-52.29-87.26-70.86-131.89-104.13-47.76-35.6-80.7-87.45-128.9-122.33-22.68-16.42-48.36-29.14-75.06-37.52-17.84-5.6-36.81-9.49-55.65-9.32v-2.21c3.53-.03,7.07.09,10.61.34,53.3,3.7,105.86,30.3,144.66,66.23,22.55,20.89,42.61,44.24,64.2,66.1,21.97,22.25,45.72,41.24,72.57,57.26,23.91,14.26,48.93,27.29,70.08,45.61,21.22,18.37,35.7,41.85,42.73,69.03,17.02,65.79-6.72,133.11-1.42,199.62.35,4.36.79,8.72,1.33,13.09,13.71,112.41,85.43,226.79,37.27,339.27Z"/><path d="m448.54,2334.99c-7.78,54.34-34.6,103.6-74.06,141.46-37.87,36.33-84.77,61.94-132.88,82.06-76.78,32.11-159.83,50.11-236.6,82.2v-2.48c85.84-35.79,178.7-53.92,263-93.91,46.77-22.19,91.54-51.01,125.07-90.99,36.88-43.98,57.16-100.64,55.51-158.11-1.71-60.11-30.05-114.27-44.47-171.64-5.84-23.24-8.45-46.79-8.73-70.58-.08-6.6.02-13.22.28-19.85,1.27-31.87,5.5-63.51,7.88-95.3,2.25-30.15,3.8-61.84-3.12-91.52-6.46-27.7-22.91-48.69-45.66-65.11-20.39-14.71-43.14-25.67-64.24-39.27-22.71-14.64-42.43-33.09-60.72-52.88-18.5-20.03-35.67-41.24-54.24-61.2-17.07-18.34-35.14-33.83-57.29-45.74-34.1-18.35-73.86-31.15-113.27-34.11v-2.05c1.76.15,3.51.32,5.26.51,47.19,5.1,96.43,21.46,134.83,49.85,20.9,15.45,37.91,36,54.86,55.51,18.65,21.46,37.06,43.27,58.2,62.37,20.52,18.53,43.74,32.18,67.52,45.98,20.67,12,41.82,24.87,57.04,43.69,17.37,21.48,22.81,48.5,24.26,75.47,1.76,32.58-1.56,65.14-4.7,97.53-2.46,25.28-4.88,50.69-4.71,76.12.04,7.03.28,14.07.77,21.11,2.16,30.85,10.42,60.43,20.17,89.64,9.63,28.83,20.42,57.39,26.81,87.18,5.93,27.67,7.25,56.01,3.23,84.06Z"/><path d="m441.2,2335.14c-4.83,26.06-15.77,50.67-30.1,72.87-30.41,47.09-74.71,83.68-121.23,114.05-52.47,34.27-109.55,61.46-169.15,80.81-37.97,12.33-76.92,20.99-115.72,30.24v-2.34c47.93-11.51,95.97-22.36,142.33-39.51,58.57-21.67,114.54-51.02,165.28-87.45,44.82-32.18,87.08-72.53,111.14-122.94,11.82-24.78,18.53-51.9,18-79.43-.57-29.92-9.27-58.87-19.34-86.8-9.95-27.62-21.48-54.74-29.17-83.12-7.02-25.92-9.23-52.02-8.06-78.52.24-5.43.62-10.88,1.13-16.35,5.82-62.06,24.74-127.56,1.93-188.44-20.41-54.49-73.54-82.75-118.67-114.18-24.13-16.8-46.48-35.87-66.17-57.75-19.61-21.79-34.54-47.3-54.33-68.88-9.58-10.44-20.51-19.6-33.28-25.89-14.63-7.19-30.79-10.65-46.82-12.99-21.16-3.08-42.55-4.87-63.97-5.59v-2.2c3.67.13,7.34.29,11.01.49,31.39,1.68,65.77,3.4,95.11,15.72,25.58,10.74,43.29,31.75,59.33,53.58,18.9,25.74,38.26,50.31,62.15,71.7,21.97,19.67,46.59,35.57,70.95,52.03,21.95,14.81,43.9,30.45,61.31,50.62,18.83,21.82,29.9,48.2,34.09,76.62,8.49,57.62-8.69,114.21-11.61,171.51-.4,7.59-.53,15.2-.33,22.82,1.68,62.84,34.52,117.42,49.86,177.06,6.93,26.95,9.43,54.75,4.33,82.26Z"/><path d="m432.37,2312.87c-3.41,30.36-15.9,59.02-31.56,84.98-58.67,97.23-164.12,155.31-267.25,194.62-42.18,16.08-85.36,29.62-128.56,43.08v-2.34c52.25-16.25,104.45-32.66,154.99-53.67,102.57-42.64,208.55-108.33,255.18-213.93,13.34-30.22,19.08-62.54,13.5-95.31-5.14-30.17-17.42-58.5-28.51-86.83-11.22-28.64-20.69-57.47-23.38-88.28-1.23-14.05-1.37-28.12-.91-42.19.68-20.6,2.65-41.2,4.39-61.71,4.7-55.77,7.02-115.89-21.59-166.31-14.24-25.07-35.33-42.52-60.67-55.69-24.2-12.57-50.61-22.65-70.28-42.25-20.67-20.6-31.72-48.21-48.15-71.9-14.91-21.48-34.71-39.32-57.07-52.8-35.12-21.19-76.61-31.79-117.5-29.67v-2.31c51.25-2.63,103.58,14.62,143.09,47.38,20.92,17.34,35.73,38.61,49.24,61.94,7.78,13.42,15.52,27.03,25.63,38.88,9.91,11.63,22.06,20.58,35.31,28.07,24.8,14.02,52.38,23.54,74.16,42.44,19.05,16.52,32.27,38.57,40.5,62.24,20.29,58.35,10.39,119.88,6.34,179.92-.49,7.25-.88,14.51-1.1,21.77-.85,27.44.61,54.88,7.66,81.6,8.02,30.46,21.47,59.08,32.11,88.64,10.33,28.73,17.88,58.9,14.43,89.63Z"/><path d="m413.09,2343.58c-14.65,49.66-54.24,88.79-94.12,119.62-45.28,35.01-95.1,64.69-146.64,89.49-52.47,25.25-107.42,45.23-163.83,59.67-1.16.3-2.33.59-3.5.88v-2.42c11.76-2.95,23.48-6.06,35.1-9.5,55.82-16.53,109.98-38.63,161.42-65.89,49.25-26.1,98.08-56.43,139.78-93.64,37.73-33.66,73.22-78.14,74.86-130.93,1.76-56.42-36.97-102.98-48.49-156.46-7.24-33.61-4.85-67.56-.5-101.4,2.95-22.92,6.81-45.8,9.19-68.48,3.03-28.91,3.88-58.46-2.46-87.01-5.51-24.86-16.1-48.47-30.65-69.35-15.64-22.46-35.69-40.93-58.65-55.71-22.6-14.55-46.57-27.06-65-47.09-18.18-19.76-30.95-43.61-47-64.99-15.38-20.48-34.53-37.5-56.73-50.26-33.46-19.23-72.41-28.69-110.87-26.8v-2.32c48.22-2.32,97.41,13.08,135.37,42.95,20.71,16.3,35.93,36.93,50.42,58.71,15.97,24.01,32.18,46.59,56.14,63.31,22.69,15.84,47.59,28.07,68.22,46.81,19.08,17.35,34.84,38.39,46.07,61.61,11.15,23.05,17.48,47.93,19.17,73.45,1.93,29.23-1.61,58.46-5.64,87.36-1.75,12.59-3.65,25.18-5.26,37.81-2.25,17.49-3.98,35.03-4.13,52.68-.26,29.37,5.14,57.27,15.99,84.53,10.47,26.33,24,51.56,31.6,78.97,6.8,24.53,7.36,49.89.14,74.4Z"/><path d="m475.71,2373.35c-6.1,29.07-18.77,56.27-36.18,80.27-76.91,106.08-213.3,135.3-329.44,177.28-35.84,12.96-70.93,27.88-105.09,44.69v-2.5c43.99-21.41,89.41-39.54,135.85-55.31,63.98-21.72,129.69-40.96,189.02-73.99,49.96-27.82,96.65-66.22,124.04-117.27,65.09-121.28-15.76-249.96-34.91-373.52-1.31-8.45-2.33-16.87-3-25.27-4.59-57.86,4.75-119.36-16.29-174.82-11.15-29.38-31.59-51.93-56.81-70.12-23.33-16.82-48.87-30.39-71.56-48.13-25.56-20-45.96-45.37-67.71-69.22-21.2-23.25-44.55-43.99-71.04-61.05-38.77-24.97-82.34-42.08-127.59-50.42v-2.34c58.02,10.62,113.4,35.75,159.24,72.92,25.3,20.52,46.04,45.33,67.86,69.35,11.27,12.41,22.97,24.51,35.91,35.21,12.08,9.98,25.21,18.59,38.41,27,24.46,15.59,50.03,30.77,69.46,52.71,18.59,21.01,29.35,47.13,34.6,74.46,5.57,29.03,5.69,58.78,5.96,88.23.26,27.37,1.01,54.48,4.83,81.49.77,5.47,1.67,10.93,2.72,16.39,13.29,69.3,42.04,134.74,52.59,204.66,4.96,32.86,6,66.63-.87,99.3Z"/><path d="m403.33,2342.88c-17.5,48.11-55.86,86.11-95.91,116.38-45.25,34.21-95.32,62.03-146.9,85.42-50.51,22.89-102.63,41.57-155.52,57.97v-2.35c63.75-19.76,126.41-42.84,186.17-72.69,49.11-24.52,97.5-53.37,138.93-89.63,38.12-33.36,72.72-76.62,79-128.5,6.9-56.93-22.58-109.41-36.43-162.96-8.01-30.97-8.91-62.19-7.83-93.52,1.01-29.15,3.73-58.4,4.01-87.65.27-27.51-1.76-55.37-9.54-81.88-7.55-25.68-20.89-48.58-39.55-67.75-33.18-34.08-76.57-55.65-111.78-87.34-8.62-7.76-16.72-16.13-23.86-25.29-8.78-11.25-15.81-23.68-23.33-35.77-13.45-21.64-29.77-39.84-51.72-53.09-30.94-18.68-68.31-26.6-104.07-21.89v-2.32c44.95-5.81,92.72,8.07,126.84,38.08,20.77,18.27,32.44,42.65,47.84,65.11,14.3,20.86,33.3,37.64,53.42,52.73,37.67,28.27,81.17,52.2,107.91,92.27,31.5,47.19,31.93,106.68,28.79,161.23-1.03,17.83-2.39,35.69-3.05,53.56-.54,14.49-.63,29,.28,43.5,1.9,30.43,9.89,59.17,19.69,87.9,9.36,27.42,19.7,54.85,23.83,83.67,3.64,25.31,1.53,50.73-7.22,74.81Z"/><path d="m403.66,2302.73c-2.77,50.5-35.95,93.19-73.95,123.76-20.82,16.75-43.58,30.89-66.55,44.48-23.23,13.74-46.76,27-70.75,39.4-58.91,30.46-122.06,56.38-187.41,68.71v-2.08c77.15-14.55,150.81-48.27,219.01-86.14,45.41-25.22,93.18-51.32,129.55-89.06,17.54-18.2,32.14-39.68,40.57-63.63,8.48-24.08,9.45-49.19,3.08-73.89-6.29-24.37-17.76-46.93-26.99-70.22-9.39-23.7-14.93-48.03-16.34-73.5-1.25-22.59.11-45.08,2.03-67.56,2.61-30.62,6.23-61.2,5.65-91.95-.48-25.55-4.2-50.93-13.05-74.97-8.45-22.94-21.01-44.37-36.8-63.03-16.23-19.17-35.91-34.12-56.41-48.41-20.06-13.99-40.38-27.95-56.52-46.57-16.75-19.33-29.19-41.86-44.98-61.92-14.27-18.12-31.73-33.19-51.83-44.52-29.4-16.58-63.29-25.04-96.97-24.25v-2.31c42.95-.98,86.41,13,120.35,39.4,19.16,14.92,33.54,33.87,47.1,53.81,14.96,22,29.94,43.11,50.7,60.07,20.18,16.49,42.8,29.71,62.92,46.29,18.46,15.2,34.32,33.47,46.76,53.89,12.42,20.4,21.43,42.92,26.21,66.33,5.32,26.13,5.53,52.95,4,79.48-1.12,19.44-3.23,39.04-4.92,58.66-3.04,35.15-4.74,70.4,2.99,105,10.96,49.06,45.39,92.76,42.55,144.73Z"/><path d="m488.29,2367.13c-6.55,27.89-18.78,54.2-34.88,77.84-74.51,109.36-207.87,150.12-327.17,189.35-41.08,13.51-81.6,28.14-121.24,44.95v-2.58c49.82-20.97,101.01-38.05,152.46-54.97,116.88-38.45,249.73-87.71,309.82-204.39,61.14-118.7-8.19-244-27.58-364.33-.64-3.97-1.23-7.92-1.75-11.87-4.2-31.62-3.13-63.13-2.24-94.91.87-31.05,1.24-63-7.91-93.01-9.67-31.72-30.81-55.08-56.46-75.16-25.87-20.25-52.11-39.22-76.08-61.81-47.29-44.58-88.85-97.51-144.01-132.88-43.01-27.59-94.4-49.39-146.25-53.94v-2.14c4.89.46,9.77,1.08,14.63,1.85,58.27,9.19,116.3,36.08,161.92,73.34,52.88,43.17,95.02,97.97,148.08,141.05,24.95,20.25,53.35,37.11,74.47,61.7,19.39,22.59,28.98,50.47,32.36,79.73,3.67,31.73,1.07,63.75.56,95.57-.4,24.44,1.37,48.52,5.05,72.48,1.35,8.78,2.96,17.54,4.81,26.3,13.65,64.57,37.3,127.03,45.23,192.78,3.82,31.65,3.49,63.91-3.82,95.05Z"/><path d="m1285,358.08v2.61c-20.53,12.86-40.08,27.29-58.46,43.08-64.01,55-114,126.72-141.71,206.56-33.52,96.58-34.36,199.89-46.68,300.34-4.84,39.48-11.64,79.61-22.67,118.33-13.1,46.01-32.18,90.02-61.05,128.56-27.36,36.53-63.22,65.12-94.15,98.39-16.28,17.5-30.48,36.41-42.08,57.33-11.82,21.31-21.48,43.71-32.85,65.24-19.62,37.16-46.05,68.56-81.6,91.4-33.74,21.67-72.84,34.88-112.75,38.52-87.65,8.01-173.21-30.24-235.44-90.39-58.16-56.21-102.25-130.42-174.9-170.03-54.18-29.54-115.79-31.73-175.66-21.03v-2.15c28.36-5.05,57.2-7.25,85.9-4.97,42.86,3.4,83.06,17.98,117.79,43.33,64.96,47.4,106.53,118.94,167.56,170.61,70.49,59.67,168.21,89.42,258.76,64.3,42.17-11.69,81.53-34.43,111.35-66.64,32.68-35.29,48.11-80.89,71.44-122.09,22.56-39.83,55.8-70.29,88.26-101.88,33.41-32.52,61.69-67.77,81.68-110.14,10.46-22.18,18.75-45.04,25.43-68.36,19.56-68.16,25.45-140.22,32.01-210.57,8.75-93.64,20.77-187.79,65.01-272.22,37.26-71.1,92.43-132.65,158.8-177.76,5.27-3.58,10.61-7.04,16.01-10.37Z"/><path d="m1285,384.32v2.74c-13.4,9.4-26.43,19.33-39,29.81-63.38,52.81-115.96,120.14-143.33,198.55-33.11,94.85-26.24,196.92-37.53,295.36-4.53,39.58-11.58,79.67-23.15,118.22-12.35,41.16-29.84,80.55-54.92,115.67-26.14,36.59-61.26,62.88-93.67,93.38-16.53,15.56-31.12,32.64-42.86,52.11-11.49,19.06-20.64,39.4-29.91,59.6-17.72,38.59-36.82,76.28-69.58,104.4-30.98,26.59-69.06,43.62-108.05,54.76-44.39,12.67-93.44,21.45-139.41,13.52-34.8-6.01-66.72-21.98-95.02-42.72-60.52-44.33-105.49-105.89-162.49-154.22-60.94-51.67-136.79-78.64-216.77-77.06-8.12.16-16.23.61-24.31,1.36v-2.29c21.88-1.96,43.92-1.85,65.71.36,36.48,3.7,72.37,13.29,105.54,28.98,33.65,15.93,63.09,38.56,90.24,63.82,55.22,51.35,102,114.8,167.93,153.42,36.96,21.65,77.71,31.15,120.51,28.43,46.07-2.93,93.72-14.2,135.82-33.29,41.39-18.78,76.53-47.11,100.27-86.18,22.63-37.27,36.12-79.27,59.02-116.38,23.57-38.22,59.1-64.36,91.63-94.33,31.95-29.44,57.05-64.66,75.43-103.99,9.03-19.31,16.43-39.15,22.53-59.35,19.85-65.65,26.03-135.19,29.93-203.48,2.82-49.44,5.23-99.13,14.44-147.9,8.14-43.1,22.3-84.58,43.39-123.09,37.56-68.58,93.77-125.64,157.61-170.21Z"/><path d="m1285,421.02v2.68c-.1.07-.2.13-.3.2-69.33,45.37-133.2,104.31-167.53,181.09-38.53,86.17-34.07,182.96-38.87,275.12-2.31,44.32-6.62,88.89-18.52,131.79-1.59,5.74-3.31,11.44-5.16,17.1-11.57,35.46-28.15,69.28-49.08,100.15-24.83,36.62-56.51,66.66-87.87,97.53-16.68,16.42-33.04,33.3-47.16,52.01-13.04,17.26-23.82,36.06-33.88,55.17-19.55,37.14-36.72,76.13-63.74,108.66-24.9,29.99-57.7,52.28-93.4,67.47-36.31,15.46-75.32,23.92-114.49,27.85-42.84,4.31-87.95,5.08-129.85-6.1-70.91-18.92-116.48-77.12-161.77-130.65-22.89-27.06-46.65-54.08-75.48-75.02-36.31-26.36-78.44-37.44-122.78-40.62-23.31-1.67-46.73-2.05-70.12-1.2v-2.06c42.08-1.84,85.69-.97,126.36,9.69,71.19,18.67,116.91,76.09,162.32,129.84,22.88,27.09,46.54,54.19,75.23,75.34,35.19,25.93,76.05,37.94,119.43,40.51,81.17,4.81,171.65-9.2,239.42-56.69,36.01-25.23,60.82-60.1,81.31-98.47,19.95-37.36,37.06-76.44,63.41-109.94,27.94-35.51,63.11-64.32,93.68-97.41,30.68-33.21,55.66-71.43,73.56-112.95,4.71-10.92,8.8-21.96,12.35-33.11,24.59-76.98,23.83-158.76,27.59-239.28,2.05-44.04,5.7-88.35,16.69-131.18,10.34-40.33,27.75-78.18,51.93-112.08,36.26-50.82,84.48-91.52,136.72-125.44Z"/><path d="m1285,442.62v2.98c-46.79,30.79-88.3,67.53-116.67,119.07-39.89,72.47-46.44,157.27-51.51,238.22-4.73,75.7-7.24,153.73-32.01,226.11-1.18,3.44-2.41,6.87-3.69,10.29-14.35,38.24-35.95,72.47-62.51,103.38-27.94,32.51-59.76,61.34-89.9,91.73-30.93,31.2-58.42,64.34-81.04,102.08-21.93,36.59-40.96,75.13-66.9,109.17-25.46,33.41-57.79,59.44-96.37,76.22-37.7,16.4-78.65,24.28-119.53,26.9-44.47,2.84-90.26.59-133.48-10.83-43.52-11.49-80.69-33.96-113.68-64.25-32.85-30.15-61.56-64.74-96.72-92.36-33.5-26.32-71.84-46.33-112.32-59.53-33.55-10.94-68.53-17.21-103.67-18.63v-2.31c50.32,2.06,100.27,14.01,145.98,35.14,37.38,17.27,70.89,40.82,100.7,69.13,32.75,31.1,62.06,66.19,98.87,92.75,39.31,28.36,86.07,42.32,133.9,47.25,45.41,4.68,92.34,3.16,137.11-6.04,42.83-8.81,84.71-25.57,118.6-53.7,33.54-27.84,56.79-65.15,78.24-102.54,20.93-36.49,41.08-73.29,68.05-105.81,27.4-33.04,59.12-62.09,89.48-92.33,30.65-30.51,60.34-62.67,81.82-100.48,10-17.61,18.09-36.15,24.64-55.23,6.55-19.07,11.57-38.69,15.44-58.47,29.5-150.58-5.77-329.75,102.05-455.24,24.85-28.92,53.92-52.2,85.12-72.67Z"/><path d="m1285,465.31v2.88c-64.18,48.42-119.33,108.3-140.65,187.79-22.67,84.57-11.48,173.34-17.5,259.67-2.68,38.55-8.83,77.1-22.48,113.35-.98,2.61-2,5.2-3.06,7.78-13.87,33.78-33.82,64.6-56.34,93.21-48.43,61.51-108.17,113.22-155.11,175.99-50.26,67.24-77.34,150.91-143.24,205.97-58.79,49.13-136.47,73.99-212.75,72.08-83.23-2.09-163.94-34.54-229.8-84.64-34.8-26.47-64.32-58.74-96.32-88.36-32.15-29.76-67.5-54.62-108.28-71.05-30.23-12.18-62.15-19.86-94.47-22.92v-2.3c47.15,4.48,93.4,18.7,134.6,42.1,37.24,21.15,68.14,50.47,98.54,80.26,31.99,31.34,64.58,61.3,102.86,84.9,73.08,45.04,160.56,68.68,246.32,56.72,81.98-11.44,157.99-53.7,206.53-121.33,25.72-35.84,44.69-75.84,67.62-113.41,20.24-33.15,44.53-63.32,70.49-92.14,51.24-56.9,109.14-109.63,147.81-176.52,8.64-14.94,15.92-30.42,21.93-46.34,8.54-22.54,14.53-45.98,18.23-70.09,6.7-43.62,6.78-87.92,7-131.94.4-82.43,1.43-168.25,44.17-241.57,28.17-48.33,69.27-86.72,113.9-120.09Z"/><path d="m1285,481.75v2.92c-31.44,25.78-60.87,54.55-83.81,88.27-24.41,35.88-39.43,76.42-47.07,119.01-15.54,86.66-4.25,175.33-14.93,262.44-3.11,25.35-8.21,50.45-16.2,74.61-4.77,14.43-10.58,28.53-17.61,42.14-18.48,35.81-43.93,67.44-70.88,97.19-27.97,30.88-57.81,60.03-85.2,91.45-28.96,33.21-53.27,69.67-76.92,106.75-44,68.96-89.04,138.11-160.96,180.86-64.16,38.14-140.86,54.77-215.09,47.86-36.36-3.39-72.18-12.45-105.52-27.38-36.76-16.47-69.91-39.92-101.17-65.1-66.05-53.21-126.4-116.89-206.01-150.09-25.27-10.54-51.71-17.93-78.63-22.17v-2.16c42.02,6.67,82.81,20.9,119.89,42.36,71.95,41.66,128.35,104.19,195.3,152.69,33.06,23.96,68.74,44.02,107.89,56.11,37.11,11.45,76.16,16.22,114.95,14.74,78.29-2.99,156.13-31.73,215.26-83.58,66.09-57.97,104.12-139.37,155.06-209.47,49.12-67.57,115.32-120.51,163.81-188.51,18.5-25.96,33.16-53.87,43.39-83.69,3.56-10.38,6.59-20.99,9.05-31.83,9.79-43.05,11.79-87.4,12.56-131.39,1.47-83.58-2.55-171.4,32.22-249.55,24.12-54.23,65.02-97.3,110.62-134.48Z"/><path d="m1285,342.34v2.79c-16.22,10.16-31.97,21.08-47.14,32.8-61.78,47.71-111.38,108.64-142.26,180.54-61.14,142.37-54.21,301.91-96.24,449.39-2.02,7.08-4.15,14.13-6.41,21.14-8.84,27.4-19.64,54.17-33.06,79.66-19.26,36.55-44.52,68.51-71.81,99.35-29.97,33.86-59.31,67.27-82.85,106.07-21.42,35.29-40.8,72.57-69.82,102.43-53.94,55.5-134.42,80.99-210.62,70.15-40.1-5.71-78.78-20.89-112.46-43.32-33.1-22.05-59.25-51.37-83.74-82.38-25.16-31.86-49.33-65.23-81.01-91.07-33.09-27-73.47-43.39-115.25-51.11-42.57-7.86-85.19-6.64-127.33-.28v-2.17c58.64-8.68,118.43-7.66,174.89,12.99,37.11,13.57,69.16,35.61,96.22,64.28,28.06,29.74,50.89,63.87,77.81,94.59,55.66,63.49,136.14,103.71,221.77,98.3,40.85-2.58,81-15.51,115.66-37.29,37.35-23.47,64.02-56.84,86.79-94.08,21.96-35.92,42.4-71.95,69.51-104.39,29.22-34.96,61.84-67.17,87.46-105.03,24.39-36.04,42.05-75.59,55.39-116.7,10.04-30.92,17.63-62.72,23.81-94.57,28.6-147.28,29.13-308.21,111.72-438.93,40.24-63.69,95.82-113.83,158.97-153.16Z"/><path d="m1285,331.2v2.3c-30.26,19.02-59.16,40.15-86.16,63.3-32.83,28.16-62.34,60.33-84.15,97.86-22.71,39.1-37.35,82.28-48.57,125.91-34.55,134.4-40.62,278-89.38,408.43-7.48,20.02-15.98,39.74-25.73,59.06-18.5,36.66-41.96,69.82-68.24,101.28-28.45,34.05-58.01,66.92-82.47,104.08-22.04,33.51-41.83,68.81-68.27,99.19-25.2,28.96-56.62,51.15-92.56,64.76-71.83,27.22-152.02,17.9-218.13-20.08-33.91-19.48-63.05-45.7-87.19-76.39-25.82-32.81-48.22-67.78-80.39-95-59.11-50.01-136.66-74.68-213.27-78.13-11.91-.54-23.73-.44-35.49.16v-2.51c28.59-1.13,57.3.65,85.52,5.4,71.83,12.08,141.42,44.37,191,98.67,28.94,31.7,50.22,69.56,80.77,99.91,28.78,28.58,63.6,51.31,101.65,65.46,75.63,28.14,163.73,19.21,229.32-29.13,33.98-25.05,58.19-59.96,80.63-95.13,22.28-34.91,44.73-68.86,71.41-100.63,28.48-33.92,58.38-66.73,81.99-104.38,19.07-30.42,34.43-62.98,46.93-96.59,1.78-4.78,3.5-9.58,5.17-14.4,26.45-76.52,39.5-156.83,53.05-236.4,13.89-81.55,26.66-165.8,59.27-242.39,16.38-38.46,38.75-73.45,67.24-104.05,28.63-30.75,61.81-57.11,96.29-80.97,9.77-6.76,19.69-13.29,29.76-19.59Z"/><path d="m1285,318.99v2.67c-27.88,18.06-54.56,37.96-79.79,59.56-60.38,51.67-114,114.86-141.24,190.47-15.66,43.45-21.67,89.49-27.37,135.08-5.6,44.8-12.16,89.39-20.94,133.69-9.02,45.45-19.96,90.53-32.81,135.04-5.19,17.96-10.73,35.89-17.15,53.5-7.85,21.58-17,42.65-28.34,62.66-20.95,36.94-50.67,66.67-78.8,98.04-26.27,29.31-47.98,61.65-69.37,94.58-38.24,58.91-79.55,119.84-147.48,146.69-64.71,25.58-139.01,18.03-201.68-9.81-68.35-30.37-114.7-87.18-165.13-140.04-25.19-26.4-52.02-51.84-83.64-70.43-36.48-21.46-77.99-31.72-120.15-32.53-22.22-.42-44.27,1.41-66.11,4.92v-2.25c38.58-6.33,77.69-7.44,116.16.53,36.83,7.63,70.52,24.18,100.2,47.11,28.59,22.09,53.24,48.72,77.67,75.2,25.19,27.3,50.4,54.97,79.67,78.02,29.5,23.24,63.62,40.6,99.65,51.16,70.37,20.62,149.51,14.46,209.58-30.19,61.08-45.4,93.95-117.04,138.19-176.9,24.44-33.07,54.48-61.18,80.35-93.03,25.23-31.06,43.07-66.44,56.81-103.73,1.63-4.43,3.21-8.89,4.73-13.37,29.34-86.33,48.32-177.11,60.96-267.31,6.24-44.56,10.03-89.6,20.14-133.52,9.11-39.57,24.36-77,45.65-111.57,40.83-66.3,99.57-120.79,162.68-165.59,9.05-6.43,18.24-12.65,27.56-18.65Z"/><path d="m1285,488.02v3.42c-51.9,51.5-92.57,112.48-111.94,186.32-24.13,91.94-6.47,188.02-20.79,281.16-3.68,23.9-9.68,47.39-17.91,70.08-6.12,16.88-13.46,33.31-21.99,49.15-20.45,37.96-47.6,70.55-78.55,100.37-32.72,31.54-65.95,61.6-92.64,98.67-24.64,34.23-45.06,71.21-66.56,107.42-21.16,35.65-43.57,70.9-71.68,101.55-26.8,29.2-58.44,53.95-93.02,73.3-70.58,39.48-152.67,55.55-232.85,44.5-39.56-5.45-78.23-17.15-114.18-34.55-38.08-18.43-71.42-43.5-102.2-72.33-32.21-30.17-62.46-62.38-98.55-88.08-32.59-23.19-68.47-41.94-106.31-54.94-16.59-5.7-33.6-10.25-50.83-13.49v-2.38c30.09,5.72,59.51,15.38,87.2,27.95,34.5,15.65,66.9,35.96,96.07,60.13,34.17,28.31,63.69,61.71,97.6,90.32,66.99,56.55,153.34,88.37,241.06,88.65,84.19.26,167.46-29.7,233.15-82.18,67.08-53.6,105.11-129.32,149.01-201.13,22.18-36.29,46.69-70.53,76.8-100.7,32.57-32.64,68.3-62.07,95.96-99.28,21.08-28.35,38.03-59.77,50.17-92.95,2.75-7.51,5.25-15.12,7.5-22.8,13.29-45.43,16.25-92.65,16.91-139.74.67-46.78-.64-93.78,5.2-140.31,5.02-39.98,16.19-78.58,33.82-114.82,22.97-47.22,53.71-87.74,89.55-123.31Z"/><path d="m1285,297.95v2.57c-27.63,15.05-54.29,31.82-79.41,50.86-62.29,47.2-110.4,108.24-139.6,180.87-56.51,140.57-49.07,296.55-93.16,440.43-5.85,19.11-12.65,37.97-20.6,56.32-6.39,14.75-13.53,29.18-21.53,43.14-20.68,36.08-47.83,67.24-74.87,98.61-14.96,17.35-29.75,34.9-42.92,53.66-11.93,16.98-22.57,34.81-33.31,52.55-20.75,34.28-42.29,69.06-73.06,95.37-57.61,49.27-138.68,64.91-211.94,49.66-79.79-16.6-144.95-65.63-197.78-125.75-27.72-31.54-54.55-64.87-89.79-88.45-33.94-22.7-73.54-35.28-113.75-40.94-29.27-4.12-58.82-4.68-88.28-3.17v-2.31c11.04-.56,22.1-.82,33.16-.71,39.4.39,79.21,5.35,116.48,18.59,37.21,13.22,69.06,35.08,96.72,63.07,28.49,28.83,52.76,61.56,82.16,89.52,59.53,56.64,139.24,95.79,222.7,93.51,39.55-1.08,79.07-11.05,113.71-30.34,37.16-20.69,64.67-51.85,87.73-87.07,22.51-34.39,41.77-70.75,67.11-103.26,27.42-35.19,59.11-66.93,84.8-103.49,15.97-22.73,29.12-46.97,40.09-72.19,18.71-42.97,31.08-88.77,40.27-134.75,28.69-143.58,28.07-301.17,107.34-429.39,45.58-73.72,112.82-126.29,187.73-166.91Z"/><path d="m1285,279.01v1.96c-43.22,21.08-84.28,46.29-120.9,77.81-30.14,25.94-57.09,55.81-78.32,89.51-23,36.5-37.54,76.73-46.06,118.92-9.11,45.12-12.49,91.16-18.6,136.73-6.41,47.76-14.83,95.24-25.26,142.28-10,45.08-21.22,90.22-35.82,134.06-5.55,16.66-11.88,32.99-19.34,48.72-10.25,21.6-22.64,42.06-38.13,60.7-28.41,34.18-61.53,63.34-85.73,101.02-22.52,35.05-40.14,73.09-64.15,107.21-42.25,60.04-108.06,98.75-181.23,106.25-68.71,7.04-132.39-17.42-187.82-56.53-53.86-38.01-99.63-85.93-150.31-127.83-25.53-21.1-52.46-40.83-81.96-56.05-34.12-17.6-70.17-26.93-108.43-29.7-11.94-.86-24.74-1.39-37.94-2.07v-2.01c36.88,1.65,73.55,3.25,108.89,15.29,60.4,20.57,110.38,62.42,157.27,104.3,48.91,43.69,96.71,90.7,155.02,121.91,64.72,34.62,139.13,41.45,208.33,15.65,35.98-13.42,69.02-35.05,94.91-63.49,27.92-30.69,46.86-68.01,67.29-103.77,10.32-18.07,21.09-35.95,33.62-52.59,12.1-16.07,25.92-30.68,39.75-45.24,15.72-16.54,31.55-33.13,44.67-51.87,9.1-12.99,16.89-26.84,23.67-41.18,2.89-6.1,5.6-12.29,8.14-18.53,16.81-41.25,27.98-84.94,38.56-128.12,11.22-45.78,20.53-92.03,27.91-138.59,7.33-46.2,11.43-92.77,18.06-139.05,6-41.91,15.15-83.57,33.26-122.06,45.21-96.05,127.9-158.56,220.65-203.64Z"/><path d="m1285,260.61v2.58c-34.88,20.1-68.54,42.32-100.73,66.51-66.95,50.34-128.51,110.48-151.62,193.45-12.13,43.57-15.39,88.93-20.27,133.72-5.12,46.99-11.5,93.85-19.12,140.5-7.15,43.83-14.65,87.87-25.61,130.94-8.86,34.84-20.61,69.35-38.41,100.69-2.09,3.7-4.28,7.36-6.55,10.96-23.05,36.56-55.95,65.15-81.64,99.65-20.63,27.69-36.55,58.5-52.15,89.19-29.47,57.95-59.73,121.3-117.76,155.87-65.34,38.93-147.92,28.87-214.51-1.34-75.24-34.13-134.53-94.61-195-149.18-30.89-27.88-62.67-55.53-99.07-76.05-18.59-10.48-38.36-18.97-59.11-24.1-22.69-5.61-46.13-6.95-69.41-7.73-9.65-.32-19.35-.56-29.04-.97v-1.89c38.88,1.84,78.69,1.01,114.52,12.9,75.77,25.14,133.58,87.44,191.26,139.62,60.77,54.96,126.85,108.36,208.85,126.04,38.12,8.22,78.54,8.59,115.88-3.59,34.75-11.34,64-33.82,86.96-61.93,43.48-53.22,65.62-119.92,102.45-177.38,21.28-33.21,49.42-60.38,74.33-90.7,10.22-12.45,19.19-25.62,27.08-39.37,13.45-23.43,23.76-48.57,31.75-74.72,12.28-40.18,19.85-81.71,27.15-123.03,8.47-47.91,15.63-96.06,21.46-144.37,9.99-82.92,11.5-169.99,58.9-242.12,43.27-65.84,110.39-115.42,175.77-157.58,14.32-9.24,28.87-18.1,43.64-26.57Z"/><path d="m1285,254.21v2.24c-21.42,10.45-42.76,21.04-63.58,32.53-34.9,19.26-68.62,41.2-97.57,68.79-29.7,28.32-53.32,62.28-71.41,99.02-79.29,161.06-52.83,348.92-115,514.97-7.43,19.85-16.28,38.89-26.34,57.24-11.4,20.77-24.36,40.68-38.61,59.93-27.42,37.02-57.82,71.84-83.23,110.34-24.39,36.94-41.03,78.77-68.03,114-21.36,27.87-49.67,48.95-82.37,61.71-65.19,25.43-141.21,18.22-203.96-10.83-67.94-31.46-117.56-90.76-169.95-142.2-26.68-26.2-54.75-51.57-87.01-70.77-37.93-22.56-78.54-31.73-122.37-34.11-16.76-.91-33.72-1.28-50.57-2.42v-2.22c.74.06,1.49.1,2.23.15,44.5,2.77,89.43,1.54,131.85,17.35,67.36,25.1,117.36,80.12,166.74,129.93,26.46,26.69,53.49,53.17,84.08,75.16,29.71,21.36,63.04,36.83,98.65,45.39,69.62,16.72,149.49,7.55,205.02-40.75,32.87-28.59,51.64-68.25,72.28-105.71,21.85-39.68,49.39-75.11,77.33-110.61,23.77-30.19,46.99-60.79,65.64-94.34,3.61-6.5,7.06-13.12,10.3-19.86,19.65-40.86,32.61-84.6,41.99-128.87,34.21-161.38,21.69-346.42,126.09-484.69,51.09-67.66,123.9-105.1,197.8-141.37Z"/><path d="m1285,242.31v2.68c-14.58,7.09-29.06,14.18-43.1,21.65-74.87,39.83-138.67,96.87-184.68,168.33-23.35,36.27-41.79,75.59-54.59,116.79-13.15,42.31-20.77,86.12-26.44,129.99-11.08,85.67-14.43,173.07-37.41,256.76-8.6,31.33-20.16,61.93-35.62,90.49-4.37,8.09-9.06,16.01-14.09,23.74-26.2,40.33-60.77,74.33-87.76,114.08-25.42,37.46-42.42,79.83-67.51,117.48-23,34.53-53.59,62.15-91.57,79.27-36.01,16.25-76.47,22.82-115.71,17.68-33.87-4.43-65.98-17.64-94.94-35.46-59.67-36.72-106.44-90.33-157.97-136.99-26.46-23.96-54.46-46.67-85.86-63.88-38.63-21.18-79.94-29.4-123.51-33.33-19.7-1.77-39.62-3.17-59.24-5.96v-2.13c48.33,6.92,99.72,5.99,144.67,21.83,64.71,22.8,115.63,71.53,164.09,118.19,49.32,47.5,100.06,98.87,165.47,123.42,77.45,29.07,168.27,9.74,226-50.14,31.53-32.71,50.25-74.83,71.86-114.17,21.74-39.57,50-73.29,78.28-108.21,16.88-20.83,31.96-42.45,44.77-65.42,9.17-16.44,17.18-33.58,23.85-51.62,14.66-39.64,23.44-81.18,29.76-122.89,12.95-85.58,15.65-172.68,34.55-257.35,17.82-79.85,53.2-153.98,106.42-216.36,26.41-30.96,56.68-58.63,89.96-82.04,31.51-22.16,65.85-39.46,100.32-56.43Z"/><path d="m1285,505.14v3.49c-45.33,48.27-80.07,105.02-95.99,172.86-20.72,88.3-4.69,179.86-17.96,269-4.05,27.21-11.34,53.45-21.86,78.51-5.38,12.82-11.6,25.34-18.68,37.51-19.77,34.03-44.66,64.79-70.66,94.2-26.97,30.5-55.36,59.71-82.01,90.49-29.73,34.32-56.86,70.85-81.03,109.29-23.41,37.22-41.98,77.34-66.27,113.98-22.79,34.37-52.18,61.86-87.71,82.77-70.21,41.3-154.02,62.86-235.37,61.65-41.1-.61-82.24-7.34-121.03-21.08-40.04-14.17-76.27-36.24-109.8-62.08-68.01-52.42-125.88-118.69-202.32-159.65-21.36-11.45-44.97-20.52-69.31-26.03v-2.49c35.08,8.16,68.89,23.97,98.81,43.4,72.59,47.16,129.53,114.07,201.12,162.53,72.97,49.4,159.31,69.2,246.78,61.53,43.23-3.8,85.9-13.93,126.4-29.47,40.77-15.65,80.82-36.5,112.81-66.65,31.83-29.98,52.38-68.81,73.14-106.71,21.61-39.45,45.5-77.48,72.52-113.46,50.09-66.71,112.73-122.67,162.68-189.42,18.68-24.97,35.34-51.67,47.68-80.31,3.8-8.81,7.19-17.79,10.11-26.97,14.05-44.25,16.94-90.93,17.65-137.06.7-45.14-.69-90.43,4.09-135.41,4.24-39.86,14.19-78.49,31.19-114.85,19.39-41.46,45.03-77.58,75.02-109.57Z"/><path d="m1285,522.05v2.71c-59.91,70.78-95.19,164-104.72,254.92-8.7,82.96-3.12,169.37-30.06,249.32-1.37,4.1-2.83,8.17-4.39,12.23-27.07,70.63-78.43,127.66-127.34,183.93-26.07,29.99-52,60.29-74.25,93.28-24.66,36.58-44.24,76.22-66.87,114.03-40.47,67.63-95.3,123.59-165.51,160.33-69.99,36.64-149.84,51.43-228.33,42.24-39.54-4.64-78.33-15.11-114.75-31.19-37.6-16.6-71.56-39.68-103.41-65.47-63.64-51.52-120.49-115.07-195.54-150.54-20.3-9.6-42.29-17.37-64.83-22.21v-2.73c34.21,7.42,67.3,21.74,96.12,39.2,71.2,43.13,126.49,107.43,193.61,156.04,69.67,50.46,152.98,78.2,239.21,77.35,81.07-.81,160.32-27.67,225.99-75.04,32.49-23.44,61.55-51.75,85.55-83.84,26.43-35.34,46.56-74.75,68.39-112.95,20.05-35.09,42.67-68.02,68.31-99.27,24.8-30.23,51.21-59.09,76.26-89.12,25.12-30.11,48.99-61.56,67.55-96.2,8.66-16.18,15.79-32.91,21.58-50.07,7.88-23.3,13.31-47.41,16.83-72,12.03-84.07,5.44-170.15,26.96-252.91,17.08-65.66,48.94-129.95,93.64-182.04Z"/><path d="m1285,539.78v3.49c-17.66,20.54-32.72,43.3-44.56,67.75-34.93,72.17-41.98,153.57-48.39,232.34-5.04,62-9.3,125.56-26.47,185.64-4.07,14.25-8.87,28.3-14.58,42.09-14.84,35.82-36.23,67.57-61.63,96.73-28.21,32.4-59.76,61.77-87.17,94.89-53,64.02-90.58,138.8-139.33,205.84-22.99,31.62-48.57,61.68-78.65,86.8-26.67,22.28-56.53,40.65-88.26,54.81-65.03,29-137.73,40.61-208.58,33.74-73.94-7.16-141.52-35.24-200.8-79.62-66.94-50.12-123.79-115.49-198.56-154.66-25.47-13.34-53.91-23.98-83.02-29.55v-2.76c41.68,7.96,82.07,26.61,116.05,49.39,70.54,47.29,127.16,112.46,198.96,158.04,125.97,79.96,295.66,77.13,421.69-1.4,69.24-43.14,116.97-108.91,160.07-176.69,22.07-34.72,43.33-69.99,67.02-103.64,23.89-33.94,51.12-64.55,79.77-94.5,29.38-30.72,59.06-61.76,80.71-98.62,14.89-25.35,25.83-52.7,33.91-80.89,2.72-9.5,5.12-19.09,7.24-28.73,17.18-78.12,17.24-158.64,27.26-237.74,9.46-74.73,28.93-148.86,76.08-209.16,3.62-4.64,7.37-9.17,11.24-13.59Z"/><path d="m1285,214.71v2.52c-4.52,2.16-9.02,4.33-13.49,6.51-33.75,16.48-66.89,34.22-97.18,56.54-32.83,24.19-62.38,52.81-87.81,84.67-53.52,67.04-84.79,145.81-98.71,230.06-15.23,92.18-16.94,185.89-39.58,276.93-10.66,42.9-25.28,84.99-45.76,124.24-5.9,11.3-12.36,22.2-19.23,32.82-17.23,26.66-37,51.57-56.67,76.65-26.25,33.48-49.04,68.17-69.54,105.42-17.68,32.15-35.05,65.02-58.74,93.27-23.09,27.54-52.55,49.1-87.73,58.06-38.61,9.84-79.85,5.02-117.14-7.9-82.27-28.49-141.85-95.83-204.73-152.59-32.12-29-66.32-56.51-105.19-75.98-20.49-10.27-42.12-17.96-64.6-22.5-24.59-4.97-49.68-6.62-74.62-8.8-13.13-1.14-26.29-2.47-39.28-4.49v-2.33c44.7,6.83,92.44,6.19,134.39,18.29,80.05,23.09,140.53,84.43,199.67,139.69,62.67,58.54,134.64,117.86,224.83,119.55,41.41.77,80.76-12.96,111.7-40.63,27.29-24.4,46.73-56.09,64.53-87.71,18.64-33.1,36.02-66.78,58.2-97.74,26.69-37.25,57.51-71.45,82.36-110.03.05-.08.1-.15.15-.23,47.55-73.94,69.91-160.65,82.34-246.82,13.17-91.38,13.77-185.58,42.98-273.99,23.88-72.29,66.02-138.34,120.92-191.01,26.93-25.84,56.91-48.27,89.19-66.97,22.33-12.94,45.48-24.34,68.74-35.5Z"/><path d="m1285,561.64v3.16c-22.21,27.17-38.41,58.7-49.62,91.92-24.52,72.65-27.11,150.59-33.43,226.35-4.06,48.7-9.18,98.51-22.15,145.93-6.49,23.75-14.95,46.91-26.23,69.02-40.52,79.44-119.61,127.54-169.58,200-26.81,38.88-47.94,81.24-72.39,121.56-21.19,34.95-44.46,68.74-70.9,99.93-51.98,61.32-117.76,112.44-197.06,131.59-47.71,11.52-97.39,12.13-146.16,9.72-43.42-2.14-87.46-7.32-128.46-22.47-41.6-15.36-74.01-41.86-103.98-73.93-29.07-31.12-57.39-61.57-92.58-85.98-50.11-34.76-107.63-58.28-167.46-69.85v-2.34c71.91,13.88,140.46,44.9,196.8,91.67,33.6,27.89,59.89,62.92,92.09,92.22,34.76,31.64,77.13,49.96,122.9,59.19,46.4,9.36,95.05,11.52,142.28,10.06,49.02-1.53,97.61-9.97,142.24-30.91,76.33-35.82,135.15-100.23,181.94-168.89,25.14-36.89,46.3-76.03,68.7-114.58,23.41-40.29,49.66-77.34,82.45-110.54,31.94-32.33,66.87-62.22,93.73-99.18,22.54-31.02,38.05-66.4,48.42-103.2.29-1.03.58-2.06.86-3.09,20.2-73.63,21.89-150.79,28.87-226.38,6.63-71.77,17.47-146.25,55.55-208.92,6.97-11.48,14.73-22.13,23.17-32.06Z"/><path d="m1285,191.09v2.56c-49.4,26.6-97.03,56.72-139.51,93.43-27.36,23.65-52.44,50-73.83,79.2-22.31,30.45-40.69,63.57-57.52,97.31-13.23,26.51-24.45,63.69-52.62,78.39-29.3,15.29-61.86-2.92-82.62-23.93-12.65-12.79-23.4-27.32-35.42-40.7-11.49-12.78-23.69-24.95-36.7-36.2-26.58-22.99-56.82-42.6-90.34-53.74-36.19-12.02-71.62-10.53-108.64-3.43-33.65,6.44-67.15,13.12-101.09,4.66-56.56-14.11-99.6-58.34-142.56-94.93-23.55-20.07-48.25-39.89-76.35-53.28-19.4-9.25-39.39-12.31-59.66-3.88-16.86,7.02-31.04,19.17-43.95,31.84-73.24,71.88-105.73,178.66-179.19,249.35v-3.18c41.22-40.54,69.28-92.31,98.95-141.37,15.26-25.24,31.06-50.25,49.33-73.45,18.68-23.72,40.79-48.83,68.16-62.59,13.74-6.91,28.76-9.91,43.98-6.94,16.14,3.14,31.18,11.6,45.01,20.17,24.93,15.46,47.28,34.66,69.36,53.85,43.95,38.21,91.48,82.16,152.67,86.2,39.21,2.58,76.78-12.01,115.6-14.48,31.92-2.03,63.53,5.22,92.41,18.64,29.93,13.9,56.79,33.92,80.67,56.55,12.48,11.82,24.15,24.45,35.19,37.62,11.72,13.99,23.12,28.55,37.67,39.76,14.91,11.5,34.37,19.46,53.46,15.94,18.17-3.35,30.76-17.23,39.86-32.39,9.03-15.05,15.85-31.45,23.65-47.14,8.6-17.33,17.57-34.48,27.27-51.21,35.52-61.32,82.52-112.78,139.23-155.15,33.96-25.38,70.2-47.42,107.53-67.48Z"/><path d="m1285,189.2v2.44c-55.11,25.31-106.15,57.66-151.41,98.35-47.99,43.14-88.89,94.15-120.24,150.57-19.21,34.57-49.97,127.19-106.49,95.84-13.64-7.57-23.47-20.38-33.11-32.3-9.95-12.3-19.79-24.68-29.99-36.78-20.95-24.88-43.61-49.12-71.08-66.91-29.13-18.87-61.83-27.3-96.34-28.24-34.42-.95-68.62,3.99-102.93,5.72-33.22,1.69-67.27.24-98.33-12.81-29.56-12.42-54.12-33.69-77.42-55.2-25.94-23.93-51.35-48.84-82.98-65.27-32.91-17.09-70.79-22.43-104.61-4.67-29.66,15.57-51.3,43.06-68.9,70.84-20.12,31.74-36.68,65.53-55.17,98.21-21.52,38.05-47.2,76.1-81,104.01v-2.79c51.6-43.2,80.68-106.31,112.82-164.17,28.42-51.2,67.39-116.71,133.31-119.64,69.04-3.07,118.37,56.84,165.75,97.72,26.94,23.25,56.59,42.05,92.07,48.61,33.86,6.25,68.62,2.95,102.66.13,32.71-2.7,65.97-5.44,98.52.3,30.7,5.42,58.37,19.5,82.5,39.02,24.48,19.8,45.05,43.9,64.86,68.23,9.96,12.23,19.46,24.97,30.03,36.69,11.75,13.03,26.79,24.74,45.37,22.53,29.58-3.52,46.99-37.17,58.6-60.99,13.73-28.15,28.33-55.51,45.87-81.51,35.31-52.36,79.13-98.93,129.16-137.46,24.73-19.05,50.98-36.13,78.47-50.94,13.09-7.05,26.47-13.44,40.01-19.53Z"/><path d="m1285,195.82v2.46c-54.83,25.26-110.16,49.73-159.17,85.06-55.22,39.82-97.21,94.03-127.04,154.91-7.66,15.62-14.27,31.63-20.67,47.8-4.71,11.9-10.09,24.65-20.15,33.06-24.05,20.13-54.36-2.95-71.54-21.04-20.44-21.52-34.78-47.82-52.29-71.61-20.14-27.36-44.97-48.11-77.88-58.14-69.68-21.23-142.24,1.97-213.12-2.85-34.18-2.33-65.89-12.43-94.53-31.31-27.51-18.12-51.2-41.21-76.46-62.19-27.58-22.91-59.23-43.86-95.09-50.46-35.73-6.57-69.09,5.68-95.18,30.2-23.4,21.99-40.1,49.89-56.6,77.13-16.59,27.39-32.92,54.95-50.66,81.62-20.42,30.68-43.07,60.39-69.62,85.83v-2.85c39.11-37.86,69.04-84.62,97.24-130.87,16.44-26.97,31.85-54.85,50.44-80.43,17.09-23.5,37.97-45.83,65.31-57.15,64.23-26.58,126.93,20.11,173.06,60.16,25.73,22.34,51.48,45.68,82.41,60.67,34.74,16.83,73.49,19.33,111.48,17.55,64.83-3.03,135.83-18.3,196.64,12.67,56.58,28.81,72.81,95.14,120.38,133.36,15.46,12.43,37.9,22.6,55.18,7.49,11.65-10.19,16.66-26.12,22.17-40.05,12.18-30.75,26.97-60.53,44.85-88.37,34.45-53.65,80.09-96.62,134.59-129.45,39.97-24.07,83.27-43.37,126.25-63.2Z"/><path d="m1285,182.18v3.07c-50.32,26.04-99.51,53.79-146.91,85.31-30.7,20.42-61.13,42-86.28,69.19-25.48,27.54-41.85,60.6-57.78,94.19-7.7,16.24-15.44,32.49-24.49,48.04-6.7,11.5-14.49,24.4-27.86,28.83-26.41,8.73-47.98-20.41-59.94-39.56-18.05-28.93-36.25-57.4-62.49-79.77-26.99-23.03-59.57-35.56-94.67-39.31-66.78-7.16-134.02,11.8-200.59.32-33.11-5.71-62.29-20.53-89.17-40.34-28.66-21.13-54.23-46.23-83.7-66.28-29.74-20.23-64.79-36.72-101.62-34.08-34.23,2.46-63.66,22.02-86.76,46.28-22.64,23.78-39.8,52-56.41,80.14-15.45,26.17-30.24,52.74-46.54,78.4-16,25.19-33.82,49.78-54.79,70.9v-2.75c32.5-33.11,56.75-74.44,79.88-114.2,29.79-51.2,58.98-110.6,110.97-142.94,26.28-16.34,56.79-22.06,87.14-15.55,32.99,7.07,62.53,25.63,88.77,46.16,27.73,21.69,53.34,46.23,83.24,65.02,30.2,18.98,63.29,28.33,98.78,30.22,65.61,3.49,132.57-14.49,197.46.92,30.82,7.32,57.97,23.27,80.43,45.47,11.24,11.1,21.24,23.41,30.36,36.3,9.3,13.15,16.92,27.34,26,40.62,8.8,12.87,20.6,27.73,36.3,32.16,19.83,5.6,32.88-10.61,41.9-25.77,18.63-31.32,31.52-65.6,49.46-97.28,35.61-62.88,96.84-102.73,156.72-140.12,32.89-20.54,66.6-39.79,101.01-57.67,3.85-2,7.71-3.97,11.58-5.92Z"/><path d="m1285,179.86v2.45c-61.83,29.11-125.79,55.25-179.85,96.11-55.2,41.74-98.49,98.88-123.48,163.44-9.18,23.71-19.76,59.28-51.36,59.19-12.89-.03-21.96-8.84-28.24-19.27-7.92-13.14-13.98-27.09-22.72-39.79-36.28-52.73-94.78-89.97-158.15-99.54-73.06-11.04-148.34,12.87-220.41-7.53-56.19-15.91-99.42-57.95-146.87-89.68-23.17-15.49-48.23-29.3-75.87-34.6-31.65-6.07-63.5.7-91.15,16.9-62.87,36.83-92.2,105.97-125.49,167.18-15.44,28.38-33.64,57.27-56.41,80.93v-2.97c37.51-39.48,60.26-91.93,86.44-139.22,29.89-53.98,72.09-110.55,136-124.51,55.32-12.08,104.84,17.3,147.89,48.56,23.25,16.89,45.83,34.78,70.36,49.81,28.42,17.42,58.75,28.79,92.05,32.2,70.77,7.23,142.74-13.04,212.42,6.96,57.24,16.43,107.96,55.02,138.68,106.08,7.46,12.4,12.36,28.05,22.87,38.28,15.87,15.45,38.67,5.59,50-10.11,10.18-14.11,14.47-31.75,21.07-47.65,6.14-14.82,13.24-29.25,21.24-43.16,33.22-57.83,81.13-104.57,137.98-139.05,44.24-26.83,94.24-47.95,143-71.01Z"/><path d="m1285,176.35v2.64c-57.23,26.76-117.92,48.62-170.08,81.63-27.94,17.68-53.6,38.83-74.57,64.5-22.58,27.65-39.71,59.22-55.78,90.96-7.3,14.41-13.59,29.89-22.46,43.43-6.21,9.48-15.23,18.56-27.41,18.05-12.15-.52-21.06-10.38-27.8-19.45-9.19-12.37-17.43-25.15-27.74-36.69-42.56-47.68-102.69-79.63-166.2-87.4-72.82-8.9-147.44,15.72-217.85-12.74-64-25.88-111.89-79.37-175.37-106.32-32.18-13.66-67.62-19.37-101.67-9.36-28.18,8.28-52.48,25.82-72.82,46.61-42.52,43.47-67.05,99.16-98.89,150.06-12.16,19.43-25.71,38.66-41.36,55.67v-2.72c27.3-30.08,47.85-67.08,67.26-101.88,27.21-48.78,57.98-100.06,105.74-131.39,23.44-15.37,50.66-24.31,78.82-23.83,32.93.56,64.37,13.12,92.68,29.14,59.63,33.75,109.9,87.65,179.17,101.92,37.76,7.79,76.54,3.82,114.66,1.73,33.64-1.86,67.06-1.65,99.95,6.4,57.99,14.2,111.14,48.12,148.03,95.12,9.18,11.71,16.26,26.08,27.65,35.84,16.18,13.87,32.72,3.88,42.39-11.76,8.83-14.29,15.46-30.16,23.08-45.13,7.63-14.98,15.52-29.84,24.15-44.27,16.9-28.25,36.88-54.41,61.69-76.19,23.82-20.92,50.85-37.83,78.87-52.51,42.23-22.13,90.06-40.5,135.86-62.06Z"/><path d="m1285,170.21v2.88c-55.63,27.69-114.72,50.42-166.88,82.08-50.65,30.73-95.66,70.32-121.26,124.69-10.2,21.67-20.21,48.67-43.38,59.65-25.09,11.89-52.6-2.57-70.21-20.89-11.29-11.75-20.16-25.55-30.09-38.41-10.68-13.85-22.82-25.86-37.93-34.84-27.6-16.4-60.32-22.48-92.04-23.61-37.13-1.33-74.09,3.75-111.17,4.48-34.1.67-67.96-3.35-100.71-13-31.34-9.24-60.88-23.33-88.13-41.31-25.12-16.57-48.66-35.45-74-51.71-25.11-16.12-52.74-30.06-82.91-32.69-31.59-2.76-61.95,7.91-87.68,25.81-57.05,39.7-84.22,106.11-122.77,161.39-15.26,21.9-32.29,42.5-50.84,61.61v-3.17c7.76-8.07,15.24-16.41,22.43-24.98,22.14-26.42,40.46-55.27,58.25-84.71,31.26-51.7,66.34-107.35,125.41-130.15,26.32-10.16,54.74-10.92,81.74-2.96,27.39,8.08,51.93,23.57,75.16,39.78,24.88,17.35,48.76,36.3,75.1,51.48,30.23,17.41,63.35,29.75,97.57,36.49,36.41,7.17,72.93,6.41,109.77,4.01,34-2.22,68.26-4.98,102.15,0,28.19,4.14,56.26,13.55,78.67,31.62,25.84,20.85,38.68,53.63,65.22,73.59,13.67,10.28,31.25,17.44,48.46,12.91,14.27-3.75,24.62-14.56,32.3-26.67,14.64-23.09,23.02-49.22,38.96-71.7,33.06-46.58,81.58-79.43,131.33-105.99,43.55-23.25,91.65-42.79,137.48-65.68Z"/><path d="m1285,163.59v2.95c-58.39,30.94-123.16,53.07-179.29,85.15-50.91,29.1-95.61,66.81-121.38,120.44-9.27,19.3-20.1,45.54-42.86,51.98-25.84,7.31-45.34-16.09-60.47-33.17-21.93-24.75-48.68-44.49-79.37-57.02-33.26-13.59-69.06-17.04-104.71-16.77-36,.27-71.93,3.85-107.95,2.79-33.98-.99-67.44-7.12-99.12-19.64-29.12-11.51-55.02-28.28-79.84-47.17-23.19-17.66-45.66-36.54-70.82-51.4-26-15.36-54.97-25.4-85.5-23.56-32.48,1.97-63.13,16.16-88.98,35.36C93.94,266.14,61.42,358.88,5,425.43v-4.23c66.25-79.05,98.68-190.71,199.64-233.37,25.91-10.95,54.31-15.13,82.06-9.62,27.33,5.42,51.97,19.34,74.56,35.17,24.05,16.85,46.32,36.09,70.43,52.86,27.5,19.12,57.75,33.66,90.18,42.2,70.7,18.63,142.79,1.35,214.42,7.89,31.43,2.87,61.89,11.3,89.5,26.75,12.99,7.26,25.21,15.89,36.39,25.71,11.26,9.87,20.62,21.34,30.86,32.19,10.21,10.82,22.78,22.14,38.56,22.22,14.88.07,26.14-9.93,34.18-21.51,7.41-10.68,12.69-22.66,18.35-34.31,6.09-12.53,13.27-24.43,21.64-35.57,33.44-44.46,81.96-74.73,131.05-99.23,46.89-23.41,99.77-43.27,148.18-68.99Z"/><path d="m1285,153.42v2.9c-42.74,26.04-88.21,48.11-132.94,68.73-26.47,12.21-53.48,23.44-79.47,36.64-27.89,14.18-54.47,31.77-72.71,57.72-14.15,20.13-25.23,45.63-47.86,57.86-24.42,13.19-51.08,3.71-73.24-9.43-28.14-16.68-52.62-37.73-83.51-49.64-31.76-12.23-65.37-16.12-99.19-13.43-35.17,2.79-69.87,10.85-105.27,10.94-32.2.09-64.4-6.32-94.18-18.54-54.78-22.5-93.34-67.22-141.89-99.27-24.31-16.05-51.53-27.78-80.99-28.77-32.23-1.08-63.77,9.72-91.13,26.19C102.91,243.27,65.24,334.63,5,402.16v-3.62c68.57-77.8,109.35-185.87,212.92-222.5,26.74-9.46,55.7-12.19,83.39-5.29,26.3,6.55,49.73,20.86,71.21,37,22.48,16.89,43.26,35.94,65.73,52.86,25.51,19.2,53.45,34.31,84.22,43.19,33.69,9.73,68.17,11.31,102.89,7.47,34.85-3.85,69.58-11.32,104.82-9.37,30.45,1.69,60.48,9.94,87.56,23.96,28.28,14.66,51.8,37.82,81.49,49.86,13.97,5.67,29.37,8.05,43.91,3.01,14.05-4.87,24.49-15.64,33.03-27.41,8.17-11.27,14.88-23.53,23.03-34.82,8.03-11.12,17.64-20.9,28.36-29.43,22.92-18.23,49.76-30.64,76.29-42.59,26.14-11.78,52.28-23.56,78.14-35.94,34.78-16.65,69.71-34.67,103.01-55.12Z"/><path d="m1285,144.3v2.83c-42.82,27.62-89.05,50.68-133.52,72.18-60.81,29.4-122.41,58.38-177.36,98.08-23.13,16.71-45.99,43.68-77.43,39.04-29.2-4.31-51.92-27.16-77.59-39.81-57.69-28.43-125.04-16.72-186.69-14.13-30.28,1.27-61.06.88-90.62-6.51-26.34-6.59-50.4-19.31-72.76-34.47-45.06-30.55-84.31-71.6-135.25-92.73-27.13-11.25-56.66-15.01-85.61-9.43-30.05,5.79-57.65,20.49-81.95,38.74-50.92,38.25-85.67,91.26-123.6,141.39-11.88,15.7-24.29,31.28-37.62,45.93v-2.99c24.34-27.07,45.51-57.33,66.94-86.35,35.16-47.62,74.88-94.8,128.5-122.24,24.63-12.6,51.92-20.19,79.73-19.31,25.8.82,50.54,8.97,73.15,21.1,47.52,25.51,85.32,65.33,131.28,93.24,25.84,15.69,53.68,26.01,83.76,29.72,31.2,3.86,62.77,1.96,94.04,0,59-3.71,120.19-7.73,172.68,24.38,26.55,16.24,57.85,42.58,90.58,26.97,14.36-6.85,26.13-18.65,38.75-28.15,13.1-9.88,26.67-19.12,40.56-27.86,57.03-35.91,118.86-63.15,179.11-93.02,33.73-16.73,68.26-35.28,100.92-56.6Z"/><path d="m1285,133.47v3.16c-43.32,30.86-91.84,54.15-139.2,78.08-32.68,16.51-65.35,33.02-98.03,49.53-32.2,16.27-64.13,33.38-96.8,48.7-13.91,6.51-28.46,12.2-43.81,14.05-15.38,1.84-30.74-.64-45.52-4.91-16.2-4.68-31.75-11.32-47.74-16.63-16.74-5.57-33.96-9.72-51.4-12.4-36.54-5.62-72.29-3.25-108.73,1.64-29.91,4.02-59.66,6.58-89.24-.84-47.07-11.81-87.08-41.68-125.74-69.64-39.24-28.38-80.32-58.79-128.72-68.76-59.71-12.29-115.83,14.1-160.23,52.57-55.22,47.83-94.07,115.89-144.84,169.31v-3.63c21.87-23.36,41.37-49.2,60.62-74.35,34.61-45.24,71.19-90.63,120.33-120.88,44.22-27.22,95.47-36.25,145.22-19.64,45.69,15.26,84.28,45.95,122.93,73.66,39.58,28.37,82.37,57.23,131.94,63.06,34.42,4.05,68.43-4.41,102.58-7.28,33.37-2.81,67.18-.22,99.75,7.55,33.14,7.91,64.42,25.75,98.55,29.09,36.07,3.53,68.33-16.44,99.29-32.09,64.48-32.57,129.02-65,193.42-97.73,36.41-18.5,72.38-37.98,105.37-61.62Z"/><path d="m1285,120.21v2.95c-43.03,31.59-90.46,58.02-137.03,81.7-30.67,15.59-61.67,30.54-92.35,46.1-29.32,14.86-58.31,30.6-88.98,42.56-30.9,12.06-63.81,20.01-97.18,17.69-33.7-2.35-65.75-13.95-98.65-20.65-35.83-7.3-70.83-4.02-106.87-.67-31.58,2.93-63.35,4.18-94.05-5.06-47.28-14.22-86.4-46.5-124.81-76.21-39.86-30.83-83.05-63.65-134.69-69.75-63.48-7.5-123.23,28.47-169.09,68.84-50.14,44.14-90.49,99.22-136.3,148.05v-3.18c54.09-58.01,100.24-124.26,165.25-170.86,46.91-33.64,104.48-56.28,162.33-40.84,46.75,12.47,85.54,44.02,123.06,73.1,39.66,30.74,81.64,63.35,132.16,72.93,35.11,6.66,70.84.82,106.01-2.05,17.46-1.43,35.04-2.17,52.5-.4,16.33,1.65,32.38,5.3,48.27,9.3,34,8.56,67.78,18.08,103.2,14.87,34.8-3.15,67.9-15.95,99.25-30.74,31.14-14.69,61.51-31.05,92.37-46.34,30.82-15.27,61.72-30.41,92.04-46.66,35.23-18.88,70.64-40.21,103.56-64.68Z"/><path d="m1285,86.06v3.04c-40.7,34.48-85.44,64.54-131.2,91.2-28.58,16.65-57.77,32.21-87.23,47.24-28.68,14.64-57.45,29.38-87.35,41.38-29.59,11.87-60.42,20.59-92.33,22.82-34.24,2.39-68.48-1.83-102.41-5.98-34.78-4.25-69.28-7.75-104.37-6.31-32.62,1.33-65.79,4.43-97.91-3.3-47.74-11.5-86.71-43.54-124.25-73.53-40.49-32.34-83.41-65.96-136.35-73.21-61.04-8.36-120.48,18.33-168.72,53.65-57.15,41.86-100.21,99.07-147.88,151.06v-2.68c56.8-61.73,106.87-130.44,181.26-172.78,48.04-27.35,104.62-42.1,159.05-26.56,46.98,13.41,85.21,45.82,122.69,75.68,41.04,32.71,84.58,64.91,138.51,70.11,34.32,3.31,68.73-1.89,103.09-1.09,34.45.81,68.53,6.29,102.72,9.98,34.12,3.68,68.66,5.45,102.59-.83,32.8-6.08,64.05-18.45,94.17-32.5,58.92-27.49,117.05-58.05,172.29-92.35,36.04-22.38,71.13-47.28,103.63-75.04Z"/><path d="m1285,65v3.03c-27.62,24.91-56.9,47.97-87.6,68.97-103.26,70.61-222.53,116.53-346.29,134.45-63.3,9.17-127.64,11.11-191.36,5.45-31.96-2.84-64.98-6.32-94.8-18.92-27.02-11.42-50.19-29.87-72.68-48.33-49.83-40.88-103.29-77.22-168.12-88.48-62.94-10.92-122.71,8.37-173.5,45.55-56.58,41.42-98.8,98.81-145.65,150.79v-3.34c55.62-62.04,104.62-131.21,179.33-171.55,51.67-27.9,109.7-33.76,166.14-17.72,29.3,8.32,57.12,21.52,82.87,37.7,25.57,16.05,48.21,35.74,71.71,54.55,25.79,20.64,52.98,38.55,85.29,47,32.32,8.46,66.6,10.93,99.88,12.62,65.05,3.32,130.51-1.16,194.53-13.17,122.88-23.07,239.74-73.96,339.9-148.85,20.9-15.62,41.04-32.23,60.35-49.75Z"/><path d="m1285,47.43v2.88c-35.3,27.92-72.04,54.29-109.04,79.52-54.93,37.46-112.83,67.74-176.63,86.98-32.3,9.75-65.22,17.31-98.21,24.33-33.11,7.05-66.26,14.18-99.67,19.66-63.5,10.4-129.87,13.93-191.19-8.91-50.38-18.76-93.94-51.26-138.39-80.71-44.56-29.52-92.64-57.97-147-63.03-60.87-5.66-118.93,19.28-167.75,53.76-57.5,40.62-102.9,95.5-152.12,145.65v-2.83c58.21-59.28,110.87-124.79,184.55-166.01,48.1-26.92,103.07-40.86,157.84-29.42,51.38,10.74,96.22,40.09,139.11,68.96,44.79,30.14,90.03,62.24,142.5,77.48,66.4,19.28,136.76,10.07,203.42-2.79,66-12.72,132.97-25.68,196.46-48.16,63.65-22.54,120.6-58.2,175.18-97.41,27.18-19.53,54.49-39.22,80.94-59.95Z"/><path d="m1285,31.99v2.25c-6.26,5.35-12.54,10.67-18.83,15.98-25.33,21.37-50.87,42.55-77.81,61.88-28.27,20.28-58.16,38.49-90.22,52.15-31.54,13.43-64.72,22.43-98.02,30.31-35.26,8.33-70.82,15.48-105.66,25.48-34.22,9.83-67.72,22.02-102.13,31.2-33.75,9-68.75,15.13-103.77,12.18-27.68-2.34-54.35-10.66-79.39-22.49-52.37-24.75-96.92-62.69-145.95-93-25.61-15.84-52.65-29.77-81.71-38.08-35.57-10.19-73.46-12.22-109.94-6.06-57.28,9.68-107,40.36-150.12,78.1-41.01,35.9-77.41,78.11-116.45,116.95v-3.11c47.38-47.38,90.72-99.47,144.59-139.53,46.12-34.3,99.69-56.72,157.73-58.06,33.46-.78,66.9,5.17,98.02,17.46,26.19,10.35,50.6,24.61,74.1,40,47.83,31.34,92.92,68.75,146.47,90.22,29.68,11.9,61.03,17.42,93.02,15.8,36.57-1.86,72.16-11.71,106.95-22.53,33.91-10.55,67.51-21.77,102.04-30.19,34.24-8.35,68.84-15.2,102.88-24.36,34.87-9.39,68.75-21.59,100.52-38.91,30.93-16.85,59.69-37.39,87.3-59.2,22.37-17.67,44.61-35.77,66.38-54.44Z"/><path d="m1285,23.83v3.16c-33.31,29.38-68.43,56.71-105.12,81.68-54.11,36.82-111.64,64.93-176.43,76.54-33.05,5.92-66.51,9.01-99.65,14.35-34.23,5.52-66.84,14.39-98.68,28.19-27.49,11.92-55.22,25.31-85.48,27.98-32.1,2.83-63.72-7.13-92.45-20.62-51.24-24.07-95.95-59.45-143.14-90.24-47.22-30.81-98.96-57.98-156.52-59.9-62.97-2.1-122.35,25.35-172.71,61.07C99.44,185.33,53.69,236.44,5,283.76v-2.66c58.63-56.95,112.81-119.1,184.69-160.04,49.78-28.36,106.67-44.94,164.12-35.79,53.72,8.56,101.25,37.21,145.66,67.14,48.14,32.45,95.37,69.38,150.28,89.82,32.9,12.25,66.6,15.31,100.44,5.06,31.21-9.45,59.75-25.9,90.82-35.78,63.64-20.25,131.55-19.06,195.95-35.85,63.53-16.56,119.98-52.04,172.34-90.61,26.15-19.26,51.41-39.7,75.7-61.22Z"/><path d="m1285,16.33v2.63c-38.22,32.29-77.86,63.01-120.27,89.58-52.35,32.8-108.98,58.73-169.5,72.04-64.98,14.29-132.62,16.39-195.89,38.24-29.88,10.32-58.81,25.82-90.88,27.98-30,2.03-58.7-9.14-84.33-23.77-26.17-14.93-50.4-33.28-74.93-50.69-24.59-17.46-49.31-34.81-75.19-50.32-50.87-30.5-107.83-53.81-168.23-49.76-61.53,4.13-117.46,34.87-165.19,72.16C91.73,182.6,49.77,229.79,5,273.22v-2.7c54.69-53.05,104.94-111.48,169.43-153,47.9-30.84,103.1-51.48,160.79-47.45,56.51,3.95,108.37,29.66,155.44,59.6,25.49,16.21,50.01,33.87,74.63,51.35,24.75,17.58,49.5,35.97,77.04,49.01,31.58,14.96,63.89,18.51,97.53,8.41,31.36-9.41,60.67-23.8,92.61-31.64,64.33-15.8,131.3-17.87,194.95-36.82,59.99-17.86,115.49-48.08,166.77-83.57,31.39-21.73,61.6-45.33,90.81-70.08Z"/><path d="m1285,13.11v2.99c-38.88,34.04-80.94,64.34-126.08,89.53-49.19,27.46-101.99,48.61-156.96,61.15-64.12,14.63-131.94,11.91-192.47,40.3-27.59,12.94-54.58,29.39-85.29,33.59-25.87,3.53-51.48-2.93-74.59-14.44-25.72-12.8-48.45-30.83-70.83-48.63-25.61-20.38-51.49-39.95-79.87-56.35-57.58-33.25-126.51-61.55-194.22-56.22-63.59,5-120.69,38.44-169.46,77.55-45.66,36.62-86.47,81.12-130.23,121.31v-2.55c55.49-50.93,105.89-108.64,169.11-149.87,49.5-32.27,106.66-53.84,166.52-48.45,64.07,5.77,127.47,34.9,180.97,69.47,25.15,16.25,48.06,35.31,71.64,53.68,23.54,18.33,48.43,36.49,76.9,46.33,29.9,10.34,59.78,7.8,88.85-3.96,29.45-11.92,56.35-28.99,87.08-37.81,31.52-9.05,64.34-11.92,96.75-16.03,30.16-3.83,59.93-9.55,89.15-18.01,55.17-15.96,107.63-40.5,156.21-71.03,34.22-21.51,66.5-45.89,96.82-72.55Z"/></svg>