<?xml version="1.0" encoding="UTF-8"?><svg id="slidefrontpage1" xmlns="http://www.w3.org/2000/svg" viewBox="0 0 1280 5029.47"><path d="m1280,344.97v2.61c-20.53,12.86-40.08,27.29-58.46,43.08-64.01,55-114,126.72-141.71,206.56-33.52,96.58-34.36,199.89-46.68,300.34-4.84,39.48-11.64,79.61-22.67,118.33-13.1,46.01-32.18,90.02-61.05,128.56-27.36,36.53-63.22,65.12-94.15,98.39-16.28,17.5-30.48,36.41-42.08,57.33-11.82,21.31-21.48,43.71-32.85,65.24-19.62,37.16-46.05,68.56-81.6,91.4-33.74,21.67-72.84,34.88-112.75,38.52-87.65,8.01-173.21-30.24-235.44-90.39-58.16-56.21-102.25-130.42-174.9-170.03-54.18-29.54-115.79-31.73-175.66-21.03v-2.15c28.36-5.05,57.2-7.25,85.9-4.97,42.86,3.4,83.06,17.98,117.79,43.33,64.96,47.4,106.53,118.94,167.56,170.61,70.49,59.67,168.21,89.42,258.76,64.3,42.17-11.69,81.53-34.43,111.35-66.64,32.68-35.29,48.11-80.89,71.44-122.09,22.56-39.83,55.8-70.29,88.26-101.88,33.41-32.52,61.69-67.77,81.68-110.14,10.46-22.18,18.75-45.04,25.43-68.36,19.56-68.16,25.45-140.22,32.01-210.57,8.75-93.64,20.77-187.79,65.01-272.22,37.26-71.1,92.43-132.65,158.8-177.76,5.27-3.58,10.61-7.04,16.01-10.37Z"/><path d="m1280,371.21v2.74c-13.4,9.4-26.43,19.33-39,29.81-63.38,52.81-115.96,120.14-143.33,198.55-33.11,94.85-26.24,196.92-37.53,295.36-4.53,39.58-11.58,79.67-23.15,118.22-12.35,41.16-29.84,80.55-54.92,115.67-26.14,36.59-61.26,62.88-93.67,93.38-16.53,15.56-31.12,32.64-42.86,52.11-11.49,19.06-20.64,39.4-29.91,59.6-17.72,38.59-36.82,76.28-69.58,104.4-30.98,26.59-69.06,43.62-108.05,54.76-44.39,12.67-93.44,21.45-139.41,13.52-34.8-6.01-66.72-21.98-95.02-42.72-60.52-44.33-105.49-105.89-162.49-154.22-60.94-51.67-136.79-78.64-216.77-77.06-8.12.16-16.23.61-24.31,1.36v-2.29c21.88-1.96,43.92-1.85,65.71.36,36.48,3.7,72.37,13.29,105.54,28.98,33.65,15.93,63.09,38.56,90.24,63.82,55.22,51.35,102,114.8,167.93,153.42,36.96,21.65,77.71,31.15,120.51,28.43,46.07-2.93,93.72-14.2,135.82-33.29,41.39-18.78,76.53-47.11,100.27-86.18,22.63-37.27,36.12-79.27,59.02-116.38,23.57-38.22,59.1-64.36,91.63-94.33,31.95-29.44,57.05-64.66,75.43-103.99,9.03-19.31,16.43-39.15,22.53-59.35,19.85-65.65,26.03-135.19,29.93-203.48,2.82-49.44,5.23-99.13,14.44-147.9,8.14-43.1,22.3-84.58,43.39-123.09,37.56-68.58,93.77-125.64,157.61-170.21Z"/><path d="m1280,407.91v2.68c-.1.07-.2.13-.3.2-69.33,45.37-133.2,104.31-167.53,181.09-38.53,86.17-34.07,182.96-38.87,275.12-2.31,44.32-6.62,88.89-18.52,131.79-1.59,5.74-3.31,11.44-5.16,17.1-11.57,35.46-28.15,69.28-49.08,100.15-24.83,36.62-56.51,66.66-87.87,97.53-16.68,16.42-33.04,33.3-47.16,52.01-13.04,17.26-23.82,36.06-33.88,55.17-19.55,37.14-36.72,76.13-63.74,108.66-24.9,29.99-57.7,52.28-93.4,67.47-36.31,15.46-75.32,23.92-114.49,27.85-42.84,4.31-87.95,5.08-129.85-6.1-70.91-18.92-116.48-77.12-161.77-130.65-22.89-27.06-46.65-54.08-75.48-75.02-36.31-26.36-78.44-37.44-122.78-40.62-23.31-1.67-46.73-2.05-70.12-1.2v-2.06c42.08-1.84,85.69-.97,126.36,9.69,71.19,18.67,116.91,76.09,162.32,129.84,22.88,27.09,46.54,54.19,75.23,75.34,35.19,25.93,76.05,37.94,119.43,40.51,81.17,4.81,171.65-9.2,239.42-56.69,36.01-25.23,60.82-60.1,81.31-98.47,19.95-37.36,37.06-76.44,63.41-109.94,27.94-35.51,63.11-64.32,93.68-97.41,30.68-33.21,55.66-71.43,73.56-112.95,4.71-10.92,8.8-21.96,12.35-33.11,24.59-76.98,23.83-158.76,27.59-239.28,2.05-44.04,5.7-88.35,16.69-131.18,10.34-40.33,27.75-78.18,51.93-112.08,36.26-50.82,84.48-91.52,136.72-125.44Z"/><path d="m1280,429.51v2.98c-46.79,30.79-88.3,67.53-116.67,119.07-39.89,72.47-46.44,157.27-51.51,238.22-4.73,75.7-7.24,153.73-32.01,226.11-1.18,3.44-2.41,6.87-3.69,10.29-14.35,38.24-35.95,72.47-62.51,103.38-27.94,32.51-59.76,61.34-89.9,91.73-30.93,31.2-58.42,64.34-81.04,102.08-21.93,36.59-40.96,75.13-66.9,109.17-25.46,33.41-57.79,59.44-96.37,76.22-37.7,16.4-78.65,24.28-119.53,26.9-44.47,2.84-90.26.59-133.48-10.83-43.52-11.49-80.69-33.96-113.68-64.25-32.85-30.15-61.56-64.74-96.72-92.36-33.5-26.32-71.84-46.33-112.32-59.53-33.55-10.94-68.53-17.21-103.67-18.63v-2.31c50.32,2.06,100.27,14.01,145.98,35.14,37.38,17.27,70.89,40.82,100.7,69.13,32.75,31.1,62.06,66.19,98.87,92.75,39.31,28.36,86.07,42.32,133.9,47.25,45.41,4.68,92.34,3.16,137.11-6.04,42.83-8.81,84.71-25.57,118.6-53.7,33.54-27.84,56.79-65.15,78.24-102.54,20.93-36.49,41.08-73.29,68.05-105.81,27.4-33.04,59.12-62.09,89.48-92.33,30.65-30.51,60.34-62.67,81.82-100.48,10-17.61,18.09-36.15,24.64-55.23,6.55-19.07,11.57-38.69,15.44-58.47,29.5-150.58-5.77-329.75,102.05-455.24,24.85-28.92,53.92-52.2,85.12-72.67Z"/><path d="m1280,452.2v2.88c-64.18,48.42-119.33,108.3-140.65,187.79-22.67,84.57-11.48,173.34-17.5,259.67-2.68,38.55-8.83,77.1-22.48,113.35-.98,2.61-2,5.2-3.06,7.78-13.87,33.78-33.82,64.6-56.34,93.21-48.43,61.51-108.17,113.22-155.11,175.99-50.26,67.24-77.34,150.91-143.24,205.97-58.79,49.13-136.47,73.99-212.75,72.08-83.23-2.09-163.94-34.54-229.8-84.64-34.8-26.47-64.32-58.74-96.32-88.36-32.15-29.76-67.5-54.62-108.28-71.05-30.23-12.18-62.15-19.86-94.47-22.92v-2.3c47.15,4.48,93.4,18.7,134.6,42.1,37.24,21.15,68.14,50.47,98.54,80.26,31.99,31.34,64.58,61.3,102.86,84.9,73.08,45.04,160.56,68.68,246.32,56.72,81.98-11.44,157.99-53.7,206.53-121.33,25.72-35.84,44.69-75.84,67.62-113.41,20.24-33.15,44.53-63.32,70.49-92.14,51.24-56.9,109.14-109.63,147.81-176.52,8.64-14.94,15.92-30.42,21.93-46.34,8.54-22.54,14.53-45.98,18.23-70.09,6.7-43.62,6.78-87.92,7-131.94.4-82.43,1.43-168.25,44.17-241.57,28.17-48.33,69.27-86.72,113.9-120.09Z"/><path d="m1280,468.64v2.92c-31.44,25.78-60.87,54.55-83.81,88.27-24.41,35.88-39.43,76.42-47.07,119.01-15.54,86.66-4.25,175.33-14.93,262.44-3.11,25.35-8.21,50.45-16.2,74.61-4.77,14.43-10.58,28.53-17.61,42.14-18.48,35.81-43.93,67.44-70.88,97.19-27.97,30.88-57.81,60.03-85.2,91.45-28.96,33.21-53.27,69.67-76.92,106.75-44,68.96-89.04,138.11-160.96,180.86-64.16,38.14-140.86,54.77-215.09,47.86-36.36-3.39-72.18-12.45-105.52-27.38-36.76-16.47-69.91-39.92-101.17-65.1-66.05-53.21-126.4-116.89-206.01-150.09-25.27-10.54-51.71-17.93-78.63-22.17v-2.16c42.02,6.67,82.81,20.9,119.89,42.36,71.95,41.66,128.35,104.19,195.3,152.69,33.06,23.96,68.74,44.02,107.89,56.11,37.11,11.45,76.16,16.22,114.95,14.74,78.29-2.99,156.13-31.73,215.26-83.58,66.09-57.97,104.12-139.37,155.06-209.47,49.12-67.57,115.32-120.51,163.81-188.51,18.5-25.96,33.16-53.87,43.39-83.69,3.56-10.38,6.59-20.99,9.05-31.83,9.79-43.05,11.79-87.4,12.56-131.39,1.47-83.58-2.55-171.4,32.22-249.55,24.12-54.23,65.02-97.3,110.62-134.48Z"/><path d="m1280,329.23v2.79c-16.22,10.16-31.97,21.08-47.14,32.8-61.78,47.71-111.38,108.64-142.26,180.54-61.14,142.37-54.21,301.91-96.24,449.39-2.02,7.08-4.15,14.13-6.41,21.14-8.84,27.4-19.64,54.17-33.06,79.66-19.26,36.55-44.52,68.51-71.81,99.35-29.97,33.86-59.31,67.27-82.85,106.07-21.42,35.29-40.8,72.57-69.82,102.43-53.94,55.5-134.42,80.99-210.62,70.15-40.1-5.71-78.78-20.89-112.46-43.32-33.1-22.05-59.25-51.37-83.74-82.38-25.16-31.86-49.33-65.23-81.01-91.07-33.09-27-73.47-43.39-115.25-51.11-42.57-7.86-85.19-6.64-127.33-.28v-2.17c58.64-8.68,118.43-7.66,174.89,12.99,37.11,13.57,69.16,35.61,96.22,64.28,28.06,29.74,50.89,63.87,77.81,94.59,55.66,63.49,136.14,103.71,221.77,98.3,40.85-2.58,81-15.51,115.66-37.29,37.35-23.47,64.02-56.84,86.79-94.08,21.96-35.92,42.4-71.95,69.51-104.39,29.22-34.96,61.84-67.17,87.46-105.03,24.39-36.04,42.05-75.59,55.39-116.7,10.04-30.92,17.63-62.72,23.81-94.57,28.6-147.28,29.13-308.21,111.72-438.93,40.24-63.69,95.82-113.83,158.97-153.16Z"/><path d="m1280,318.09v2.3c-30.26,19.02-59.16,40.15-86.16,63.3-32.83,28.16-62.34,60.33-84.15,97.86-22.71,39.1-37.35,82.28-48.57,125.91-34.55,134.4-40.62,278-89.38,408.43-7.48,20.02-15.98,39.74-25.73,59.06-18.5,36.66-41.96,69.82-68.24,101.28-28.45,34.05-58.01,66.92-82.47,104.08-22.04,33.51-41.83,68.81-68.27,99.19-25.2,28.96-56.62,51.15-92.56,64.76-71.83,27.22-152.02,17.9-218.13-20.08-33.91-19.48-63.05-45.7-87.19-76.39-25.82-32.81-48.22-67.78-80.39-95-59.11-50.01-136.66-74.68-213.27-78.13-11.91-.54-23.73-.44-35.49.16v-2.51c28.59-1.13,57.3.65,85.52,5.4,71.83,12.08,141.42,44.37,191,98.67,28.94,31.7,50.22,69.56,80.77,99.91,28.78,28.58,63.6,51.31,101.65,65.46,75.63,28.14,163.73,19.21,229.32-29.13,33.98-25.05,58.19-59.96,80.63-95.13,22.28-34.91,44.73-68.86,71.41-100.63,28.48-33.92,58.38-66.73,81.99-104.38,19.07-30.42,34.43-62.98,46.93-96.59,1.78-4.78,3.5-9.58,5.17-14.4,26.45-76.52,39.5-156.83,53.05-236.4,13.89-81.55,26.66-165.8,59.27-242.39,16.38-38.46,38.75-73.45,67.24-104.05,28.63-30.75,61.81-57.11,96.29-80.97,9.77-6.76,19.69-13.29,29.76-19.59Z"/><path d="m1280,305.88v2.67c-27.88,18.06-54.56,37.96-79.79,59.56-60.38,51.67-114,114.86-141.24,190.47-15.66,43.45-21.67,89.49-27.37,135.08-5.6,44.8-12.16,89.39-20.94,133.69-9.02,45.45-19.96,90.53-32.81,135.04-5.19,17.96-10.73,35.89-17.15,53.5-7.85,21.58-17,42.65-28.34,62.66-20.95,36.94-50.67,66.67-78.8,98.04-26.27,29.31-47.98,61.65-69.37,94.58-38.24,58.91-79.55,119.84-147.48,146.69-64.71,25.58-139.01,18.03-201.68-9.81-68.35-30.37-114.7-87.18-165.13-140.04-25.19-26.4-52.02-51.84-83.64-70.43-36.48-21.46-77.99-31.72-120.15-32.53-22.22-.42-44.27,1.41-66.11,4.92v-2.25c38.58-6.33,77.69-7.44,116.16.53,36.83,7.63,70.52,24.18,100.2,47.11,28.59,22.09,53.24,48.72,77.67,75.2,25.19,27.3,50.4,54.97,79.67,78.02,29.5,23.24,63.62,40.6,99.65,51.16,70.37,20.62,149.51,14.46,209.58-30.19,61.08-45.4,93.95-117.04,138.19-176.9,24.44-33.07,54.48-61.18,80.35-93.03,25.23-31.06,43.07-66.44,56.81-103.73,1.63-4.43,3.21-8.89,4.73-13.37,29.34-86.33,48.32-177.11,60.96-267.31,6.24-44.56,10.03-89.6,20.14-133.52,9.11-39.57,24.36-77,45.65-111.57,40.83-66.3,99.57-120.79,162.68-165.59,9.05-6.43,18.24-12.65,27.56-18.65Z"/><path d="m1280,474.91v3.42c-51.9,51.5-92.57,112.48-111.94,186.32-24.13,91.94-6.47,188.02-20.79,281.16-3.68,23.9-9.68,47.39-17.91,70.08-6.12,16.88-13.46,33.31-21.99,49.15-20.45,37.96-47.6,70.55-78.55,100.37-32.72,31.54-65.95,61.6-92.64,98.67-24.64,34.23-45.06,71.21-66.56,107.42-21.16,35.65-43.57,70.9-71.68,101.55-26.8,29.2-58.44,53.95-93.02,73.3-70.58,39.48-152.67,55.55-232.85,44.5-39.56-5.45-78.23-17.15-114.18-34.55-38.08-18.43-71.42-43.5-102.2-72.33-32.21-30.17-62.46-62.38-98.55-88.08-32.59-23.19-68.47-41.94-106.31-54.94-16.59-5.7-33.6-10.25-50.83-13.49v-2.38c30.09,5.72,59.51,15.38,87.2,27.95,34.5,15.65,66.9,35.96,96.07,60.13,34.17,28.31,63.69,61.71,97.6,90.32,66.99,56.55,153.34,88.37,241.06,88.65,84.19.26,167.46-29.7,233.15-82.18,67.08-53.6,105.11-129.32,149.01-201.13,22.18-36.29,46.69-70.53,76.8-100.7,32.57-32.64,68.3-62.07,95.96-99.28,21.08-28.35,38.03-59.77,50.17-92.95,2.75-7.51,5.25-15.12,7.5-22.8,13.29-45.43,16.25-92.65,16.91-139.74.67-46.78-.64-93.78,5.2-140.31,5.02-39.98,16.19-78.58,33.82-114.82,22.97-47.22,53.71-87.74,89.55-123.31Z"/><path d="m1280,284.84v2.57c-27.63,15.05-54.29,31.82-79.41,50.86-62.29,47.2-110.4,108.24-139.6,180.87-56.51,140.57-49.07,296.55-93.16,440.43-5.85,19.11-12.65,37.97-20.6,56.32-6.39,14.75-13.53,29.18-21.53,43.14-20.68,36.08-47.83,67.24-74.87,98.61-14.96,17.35-29.75,34.9-42.92,53.66-11.93,16.98-22.57,34.81-33.31,52.55-20.75,34.28-42.29,69.06-73.06,95.37-57.61,49.27-138.68,64.91-211.94,49.66-79.79-16.6-144.95-65.63-197.78-125.75-27.72-31.54-54.55-64.87-89.79-88.45-33.94-22.7-73.54-35.28-113.75-40.94-29.27-4.12-58.82-4.68-88.28-3.17v-2.31c11.04-.56,22.1-.82,33.16-.71,39.4.39,79.21,5.35,116.48,18.59,37.21,13.22,69.06,35.08,96.72,63.07,28.49,28.83,52.76,61.56,82.16,89.52,59.53,56.64,139.24,95.79,222.7,93.51,39.55-1.08,79.07-11.05,113.71-30.34,37.16-20.69,64.67-51.85,87.73-87.07,22.51-34.39,41.77-70.75,67.11-103.26,27.42-35.19,59.11-66.93,84.8-103.49,15.97-22.73,29.12-46.97,40.09-72.19,18.71-42.97,31.08-88.77,40.27-134.75,28.69-143.58,28.07-301.17,107.34-429.39,45.58-73.72,112.82-126.29,187.73-166.91Z"/><path d="m1280,265.9v1.96c-43.22,21.08-84.28,46.29-120.9,77.81-30.14,25.94-57.09,55.81-78.32,89.51-23,36.5-37.54,76.73-46.06,118.92-9.11,45.12-12.49,91.16-18.6,136.73-6.41,47.76-14.83,95.24-25.26,142.28-10,45.08-21.22,90.22-35.82,134.06-5.55,16.66-11.88,32.99-19.34,48.72-10.25,21.6-22.64,42.06-38.13,60.7-28.41,34.18-61.53,63.34-85.73,101.02-22.52,35.05-40.14,73.09-64.15,107.21-42.25,60.04-108.06,98.75-181.23,106.25-68.71,7.04-132.39-17.42-187.82-56.53-53.86-38.01-99.63-85.93-150.31-127.83-25.53-21.1-52.46-40.83-81.96-56.05-34.12-17.6-70.17-26.93-108.43-29.7-11.94-.86-24.74-1.39-37.94-2.07v-2.01c36.88,1.65,73.55,3.25,108.89,15.29,60.4,20.57,110.38,62.42,157.27,104.3,48.91,43.69,96.71,90.7,155.02,121.91,64.72,34.62,139.13,41.45,208.33,15.65,35.98-13.42,69.02-35.05,94.91-63.49,27.92-30.69,46.86-68.01,67.29-103.77,10.32-18.07,21.09-35.95,33.62-52.59,12.1-16.07,25.92-30.68,39.75-45.24,15.72-16.54,31.55-33.13,44.67-51.87,9.1-12.99,16.89-26.84,23.67-41.18,2.89-6.1,5.6-12.29,8.14-18.53,16.81-41.25,27.98-84.94,38.56-128.12,11.22-45.78,20.53-92.03,27.91-138.59,7.33-46.2,11.43-92.77,18.06-139.05,6-41.91,15.15-83.57,33.26-122.06,45.21-96.05,127.9-158.56,220.65-203.64Z"/><path d="m1280,247.5v2.58c-34.88,20.1-68.54,42.32-100.73,66.51-66.95,50.34-128.51,110.48-151.62,193.45-12.13,43.57-15.39,88.93-20.27,133.72-5.12,46.99-11.5,93.85-19.12,140.5-7.15,43.83-14.65,87.87-25.61,130.94-8.86,34.84-20.61,69.35-38.41,100.69-2.09,3.7-4.28,7.36-6.55,10.96-23.05,36.56-55.95,65.15-81.64,99.65-20.63,27.69-36.55,58.5-52.15,89.19-29.47,57.95-59.73,121.3-117.76,155.87-65.34,38.93-147.92,28.87-214.51-1.34-75.24-34.13-134.53-94.61-195-149.18-30.89-27.88-62.67-55.53-99.07-76.05-18.59-10.48-38.36-18.97-59.11-24.1-22.69-5.61-46.13-6.95-69.41-7.73-9.65-.32-19.35-.56-29.04-.97v-1.89c38.88,1.84,78.69,1.01,114.52,12.9,75.77,25.14,133.58,87.44,191.26,139.62,60.77,54.96,126.85,108.36,208.85,126.04,38.12,8.22,78.54,8.59,115.88-3.59,34.75-11.34,64-33.82,86.96-61.93,43.48-53.22,65.62-119.92,102.45-177.38,21.28-33.21,49.42-60.38,74.33-90.7,10.22-12.45,19.19-25.62,27.08-39.37,13.45-23.43,23.76-48.57,31.75-74.72,12.28-40.18,19.85-81.71,27.15-123.03,8.47-47.91,15.63-96.06,21.46-144.37,9.99-82.92,11.5-169.99,58.9-242.12,43.27-65.84,110.39-115.42,175.77-157.58,14.32-9.24,28.87-18.1,43.64-26.57Z"/><path d="m1280,241.1v2.24c-21.42,10.45-42.76,21.04-63.58,32.53-34.9,19.26-68.62,41.2-97.57,68.79-29.7,28.32-53.32,62.28-71.41,99.02-79.29,161.06-52.83,348.92-115,514.97-7.43,19.85-16.28,38.89-26.34,57.24-11.4,20.77-24.36,40.68-38.61,59.93-27.42,37.02-57.82,71.84-83.23,110.34-24.39,36.94-41.03,78.77-68.03,114-21.36,27.87-49.67,48.95-82.37,61.71-65.19,25.43-141.21,18.22-203.96-10.83-67.94-31.46-117.56-90.76-169.95-142.2-26.68-26.2-54.75-51.57-87.01-70.77-37.93-22.56-78.54-31.73-122.37-34.11-16.76-.91-33.72-1.28-50.57-2.42v-2.22c.74.06,1.49.1,2.23.15,44.5,2.77,89.43,1.54,131.85,17.35,67.36,25.1,117.36,80.12,166.74,129.93,26.46,26.69,53.49,53.17,84.08,75.16,29.71,21.36,63.04,36.83,98.65,45.39,69.62,16.72,149.49,7.55,205.02-40.75,32.87-28.59,51.64-68.25,72.28-105.71,21.85-39.68,49.39-75.11,77.33-110.61,23.77-30.19,46.99-60.79,65.64-94.34,3.61-6.5,7.06-13.12,10.3-19.86,19.65-40.86,32.61-84.6,41.99-128.87,34.21-161.38,21.69-346.42,126.09-484.69,51.09-67.66,123.9-105.1,197.8-141.37Z"/><path d="m1280,229.2v2.68c-14.58,7.09-29.06,14.18-43.1,21.65-74.87,39.83-138.67,96.87-184.68,168.33-23.35,36.27-41.79,75.59-54.59,116.79-13.15,42.31-20.77,86.12-26.44,129.99-11.08,85.67-14.43,173.07-37.41,256.76-8.6,31.33-20.16,61.93-35.62,90.49-4.37,8.09-9.06,16.01-14.09,23.74-26.2,40.33-60.77,74.33-87.76,114.08-25.42,37.46-42.42,79.83-67.51,117.48-23,34.53-53.59,62.15-91.57,79.27-36.01,16.25-76.47,22.82-115.71,17.68-33.87-4.43-65.98-17.64-94.94-35.46-59.67-36.72-106.44-90.33-157.97-136.99-26.46-23.96-54.46-46.67-85.86-63.88-38.63-21.18-79.94-29.4-123.51-33.33-19.7-1.77-39.62-3.17-59.24-5.96v-2.13c48.33,6.92,99.72,5.99,144.67,21.83,64.71,22.8,115.63,71.53,164.09,118.19,49.32,47.5,100.06,98.87,165.47,123.42,77.45,29.07,168.27,9.74,226-50.14,31.53-32.71,50.25-74.83,71.86-114.17,21.74-39.57,50-73.29,78.28-108.21,16.88-20.83,31.96-42.45,44.77-65.42,9.17-16.44,17.18-33.58,23.85-51.62,14.66-39.64,23.44-81.18,29.76-122.89,12.95-85.58,15.65-172.68,34.55-257.35,17.82-79.85,53.2-153.98,106.42-216.36,26.41-30.96,56.68-58.63,89.96-82.04,31.51-22.16,65.85-39.46,100.32-56.43Z"/><path d="m1280,492.03v3.49c-45.33,48.27-80.07,105.02-95.99,172.86-20.72,88.3-4.69,179.86-17.96,269-4.05,27.21-11.34,53.45-21.86,78.51-5.38,12.82-11.6,25.34-18.68,37.51-19.77,34.03-44.66,64.79-70.66,94.2-26.97,30.5-55.36,59.71-82.01,90.49-29.73,34.32-56.86,70.85-81.03,109.29-23.41,37.22-41.98,77.34-66.27,113.98-22.79,34.37-52.18,61.86-87.71,82.77-70.21,41.3-154.02,62.86-235.37,61.65-41.1-.61-82.24-7.34-121.03-21.08-40.04-14.17-76.27-36.24-109.8-62.08-68.01-52.42-125.88-118.69-202.32-159.65-21.36-11.45-44.97-20.52-69.31-26.03v-2.49c35.08,8.16,68.89,23.97,98.81,43.4,72.59,47.16,129.53,114.07,201.12,162.53,72.97,49.4,159.31,69.2,246.78,61.53,43.23-3.8,85.9-13.93,126.4-29.47,40.77-15.65,80.82-36.5,112.81-66.65,31.83-29.98,52.38-68.81,73.14-106.71,21.61-39.45,45.5-77.48,72.52-113.46,50.09-66.71,112.73-122.67,162.68-189.42,18.68-24.97,35.34-51.67,47.68-80.31,3.8-8.81,7.19-17.79,10.11-26.97,14.05-44.25,16.94-90.93,17.65-137.06.7-45.14-.69-90.43,4.09-135.41,4.24-39.86,14.19-78.49,31.19-114.85,19.39-41.46,45.03-77.58,75.02-109.57Z"/><path d="m1280,508.94v2.71c-59.91,70.78-95.19,164-104.72,254.92-8.7,82.96-3.12,169.37-30.06,249.32-1.37,4.1-2.83,8.17-4.39,12.23-27.07,70.63-78.43,127.66-127.34,183.93-26.07,29.99-52,60.29-74.25,93.28-24.66,36.58-44.24,76.22-66.87,114.03-40.47,67.63-95.3,123.59-165.51,160.33-69.99,36.64-149.84,51.43-228.33,42.24-39.54-4.64-78.33-15.11-114.75-31.19-37.6-16.6-71.56-39.68-103.41-65.47-63.64-51.52-120.49-115.07-195.54-150.54-20.3-9.6-42.29-17.37-64.83-22.21v-2.73c34.21,7.42,67.3,21.74,96.12,39.2,71.2,43.13,126.49,107.43,193.61,156.04,69.67,50.46,152.98,78.2,239.21,77.35,81.07-.81,160.32-27.67,225.99-75.04,32.49-23.44,61.55-51.75,85.55-83.84,26.43-35.34,46.56-74.75,68.39-112.95,20.05-35.09,42.67-68.02,68.31-99.27,24.8-30.23,51.21-59.09,76.26-89.12,25.12-30.11,48.99-61.56,67.55-96.2,8.66-16.18,15.79-32.91,21.58-50.07,7.88-23.3,13.31-47.41,16.83-72,12.03-84.07,5.44-170.15,26.96-252.91,17.08-65.66,48.94-129.95,93.64-182.04Z"/><path d="m1280,526.67v3.49c-17.66,20.54-32.72,43.3-44.56,67.75-34.93,72.17-41.98,153.57-48.39,232.34-5.04,62-9.3,125.56-26.47,185.64-4.07,14.25-8.87,28.3-14.58,42.09-14.84,35.82-36.23,67.57-61.63,96.73-28.21,32.4-59.76,61.77-87.17,94.89-53,64.02-90.58,138.8-139.33,205.84-22.99,31.62-48.57,61.68-78.65,86.8-26.67,22.28-56.53,40.65-88.26,54.81-65.03,29-137.73,40.61-208.58,33.74-73.94-7.16-141.52-35.24-200.8-79.62-66.94-50.12-123.79-115.49-198.56-154.66-25.47-13.34-53.91-23.98-83.02-29.55v-2.76c41.68,7.96,82.07,26.61,116.05,49.39,70.54,47.29,127.16,112.46,198.96,158.04,125.97,79.96,295.66,77.13,421.69-1.4,69.24-43.14,116.97-108.91,160.07-176.69,22.07-34.72,43.33-69.99,67.02-103.64,23.89-33.94,51.12-64.55,79.77-94.5,29.38-30.72,59.06-61.76,80.71-98.62,14.89-25.35,25.83-52.7,33.91-80.89,2.72-9.5,5.12-19.09,7.24-28.73,17.18-78.12,17.24-158.64,27.26-237.74,9.46-74.73,28.93-148.86,76.08-209.16,3.62-4.64,7.37-9.17,11.24-13.59Z"/><path d="m1280,201.6v2.52c-4.52,2.16-9.02,4.33-13.49,6.51-33.75,16.48-66.89,34.22-97.18,56.54-32.83,24.19-62.38,52.81-87.81,84.67-53.52,67.04-84.79,145.81-98.71,230.06-15.23,92.18-16.94,185.89-39.58,276.93-10.66,42.9-25.28,84.99-45.76,124.24-5.9,11.3-12.36,22.2-19.23,32.82-17.23,26.66-37,51.57-56.67,76.65-26.25,33.48-49.04,68.17-69.54,105.42-17.68,32.15-35.05,65.02-58.74,93.27-23.09,27.54-52.55,49.1-87.73,58.06-38.61,9.84-79.85,5.02-117.14-7.9-82.27-28.49-141.85-95.83-204.73-152.59-32.12-29-66.32-56.51-105.19-75.98-20.49-10.27-42.12-17.96-64.6-22.5-24.59-4.97-49.68-6.62-74.62-8.8-13.13-1.14-26.29-2.47-39.28-4.49v-2.33c44.7,6.83,92.44,6.19,134.39,18.29,80.05,23.09,140.53,84.43,199.67,139.69,62.67,58.54,134.64,117.86,224.83,119.55,41.41.77,80.76-12.96,111.7-40.63,27.29-24.4,46.73-56.09,64.53-87.71,18.64-33.1,36.02-66.78,58.2-97.74,26.69-37.25,57.51-71.45,82.36-110.03.05-.08.1-.15.15-.23,47.55-73.94,69.91-160.65,82.34-246.82,13.17-91.38,13.77-185.58,42.98-273.99,23.88-72.29,66.02-138.34,120.92-191.01,26.93-25.84,56.91-48.27,89.19-66.97,22.33-12.94,45.48-24.34,68.74-35.5Z"/><path d="m1280,548.53v3.16c-22.21,27.17-38.41,58.7-49.62,91.92-24.52,72.65-27.11,150.59-33.43,226.35-4.06,48.7-9.18,98.51-22.15,145.93-6.49,23.75-14.95,46.91-26.23,69.02-40.52,79.44-119.61,127.54-169.58,200-26.81,38.88-47.94,81.24-72.39,121.56-21.19,34.95-44.46,68.74-70.9,99.93-51.98,61.32-117.76,112.44-197.06,131.59-47.71,11.52-97.39,12.13-146.16,9.72-43.42-2.14-87.46-7.32-128.46-22.47-41.6-15.36-74.01-41.86-103.98-73.93-29.07-31.12-57.39-61.57-92.58-85.98-50.11-34.76-107.63-58.28-167.46-69.85v-2.34c71.91,13.88,140.46,44.9,196.8,91.67,33.6,27.89,59.89,62.92,92.09,92.22,34.76,31.64,77.13,49.96,122.9,59.19,46.4,9.36,95.05,11.52,142.28,10.06,49.02-1.53,97.61-9.97,142.24-30.91,76.33-35.82,135.15-100.23,181.94-168.89,25.14-36.89,46.3-76.03,68.7-114.58,23.41-40.29,49.66-77.34,82.45-110.54,31.94-32.33,66.87-62.22,93.73-99.18,22.54-31.02,38.05-66.4,48.42-103.2.29-1.03.58-2.06.86-3.09,20.2-73.63,21.89-150.79,28.87-226.38,6.63-71.77,17.47-146.25,55.55-208.92,6.97-11.48,14.73-22.13,23.17-32.06Z"/><path d="m1280,177.98v2.56c-49.4,26.6-97.03,56.72-139.51,93.43-27.36,23.65-52.44,50-73.83,79.2-22.31,30.45-40.69,63.57-57.52,97.31-13.23,26.51-24.45,63.69-52.62,78.39-29.3,15.29-61.86-2.92-82.62-23.93-12.65-12.79-23.4-27.32-35.42-40.7-11.49-12.78-23.69-24.95-36.7-36.2-26.58-22.99-56.82-42.6-90.34-53.74-36.19-12.02-71.62-10.53-108.64-3.43-33.65,6.44-67.15,13.12-101.09,4.66-56.56-14.11-99.6-58.34-142.56-94.93-23.55-20.07-48.25-39.89-76.35-53.28-19.4-9.25-39.39-12.31-59.66-3.88-16.86,7.02-31.04,19.17-43.95,31.84C105.95,327.16,73.46,433.94,0,504.63v-3.18c41.22-40.54,69.28-92.31,98.95-141.37,15.26-25.24,31.06-50.25,49.33-73.45,18.68-23.72,40.79-48.83,68.16-62.59,13.74-6.91,28.76-9.91,43.98-6.94,16.14,3.14,31.18,11.6,45.01,20.17,24.93,15.46,47.28,34.66,69.36,53.85,43.95,38.21,91.48,82.16,152.67,86.2,39.21,2.58,76.78-12.01,115.6-14.48,31.92-2.03,63.53,5.22,92.41,18.64,29.93,13.9,56.79,33.92,80.67,56.55,12.48,11.82,24.15,24.45,35.19,37.62,11.72,13.99,23.12,28.55,37.67,39.76,14.91,11.5,34.37,19.46,53.46,15.94,18.17-3.35,30.76-17.23,39.86-32.39,9.03-15.05,15.85-31.45,23.65-47.14,8.6-17.33,17.57-34.48,27.27-51.21,35.52-61.32,82.52-112.78,139.23-155.15,33.96-25.38,70.2-47.42,107.53-67.48Z"/><path d="m1280,176.09v2.44c-55.11,25.31-106.15,57.66-151.41,98.35-47.99,43.14-88.89,94.15-120.24,150.57-19.21,34.57-49.97,127.19-106.49,95.84-13.64-7.57-23.47-20.38-33.11-32.3-9.95-12.3-19.79-24.68-29.99-36.78-20.95-24.88-43.61-49.12-71.08-66.91-29.13-18.87-61.83-27.3-96.34-28.24-34.42-.95-68.62,3.99-102.93,5.72-33.22,1.69-67.27.24-98.33-12.81-29.56-12.42-54.12-33.69-77.42-55.2-25.94-23.93-51.35-48.84-82.98-65.27-32.91-17.09-70.79-22.43-104.61-4.67-29.66,15.57-51.3,43.06-68.9,70.84-20.12,31.74-36.68,65.53-55.17,98.21-21.52,38.05-47.2,76.1-81,104.01v-2.79c51.6-43.2,80.68-106.31,112.82-164.17,28.42-51.2,67.39-116.71,133.31-119.64,69.04-3.07,118.37,56.84,165.75,97.72,26.94,23.25,56.59,42.05,92.07,48.61,33.86,6.25,68.62,2.95,102.66.13,32.71-2.7,65.97-5.44,98.52.3,30.7,5.42,58.37,19.5,82.5,39.02,24.48,19.8,45.05,43.9,64.86,68.23,9.96,12.23,19.46,24.97,30.03,36.69,11.75,13.03,26.79,24.74,45.37,22.53,29.58-3.52,46.99-37.17,58.6-60.99,13.73-28.15,28.33-55.51,45.87-81.51,35.31-52.36,79.13-98.93,129.16-137.46,24.73-19.05,50.98-36.13,78.47-50.94,13.09-7.05,26.47-13.44,40.01-19.53Z"/><path d="m1280,182.71v2.46c-54.83,25.26-110.16,49.73-159.17,85.06-55.22,39.82-97.21,94.03-127.04,154.91-7.66,15.62-14.27,31.63-20.67,47.8-4.71,11.9-10.09,24.65-20.15,33.06-24.05,20.13-54.36-2.95-71.54-21.04-20.44-21.52-34.78-47.82-52.29-71.61-20.14-27.36-44.97-48.11-77.88-58.14-69.68-21.23-142.24,1.97-213.12-2.85-34.18-2.33-65.89-12.43-94.53-31.31-27.51-18.12-51.2-41.21-76.46-62.19-27.58-22.91-59.23-43.86-95.09-50.46-35.73-6.57-69.09,5.68-95.18,30.2-23.4,21.99-40.1,49.89-56.6,77.13-16.59,27.39-32.92,54.95-50.66,81.62-20.42,30.68-43.07,60.39-69.62,85.83v-2.85c39.11-37.86,69.04-84.62,97.24-130.87,16.44-26.97,31.85-54.85,50.44-80.43,17.09-23.5,37.97-45.83,65.31-57.15,64.23-26.58,126.93,20.11,173.06,60.16,25.73,22.34,51.48,45.68,82.41,60.67,34.74,16.83,73.49,19.33,111.48,17.55,64.83-3.03,135.83-18.3,196.64,12.67,56.58,28.81,72.81,95.14,120.38,133.36,15.46,12.43,37.9,22.6,55.18,7.49,11.65-10.19,16.66-26.12,22.17-40.05,12.18-30.75,26.97-60.53,44.85-88.37,34.45-53.65,80.09-96.62,134.59-129.45,39.97-24.07,83.27-43.37,126.25-63.2Z"/><path d="m1280,169.07v3.07c-50.32,26.04-99.51,53.79-146.91,85.31-30.7,20.42-61.13,42-86.28,69.19-25.48,27.54-41.85,60.6-57.78,94.19-7.7,16.24-15.44,32.49-24.49,48.04-6.7,11.5-14.49,24.4-27.86,28.83-26.41,8.73-47.98-20.41-59.94-39.56-18.05-28.93-36.25-57.4-62.49-79.77-26.99-23.03-59.57-35.56-94.67-39.31-66.78-7.16-134.02,11.8-200.59.32-33.11-5.71-62.29-20.53-89.17-40.34-28.66-21.13-54.23-46.23-83.7-66.28-29.74-20.23-64.79-36.72-101.62-34.08-34.23,2.46-63.66,22.02-86.76,46.28-22.64,23.78-39.8,52-56.41,80.14-15.45,26.17-30.24,52.74-46.54,78.4-16,25.19-33.82,49.78-54.79,70.9v-2.75c32.5-33.11,56.75-74.44,79.88-114.2,29.79-51.2,58.98-110.6,110.97-142.94,26.28-16.34,56.79-22.06,87.14-15.55,32.99,7.07,62.53,25.63,88.77,46.16,27.73,21.69,53.34,46.23,83.24,65.02,30.2,18.98,63.29,28.33,98.78,30.22,65.61,3.49,132.57-14.49,197.46.92,30.82,7.32,57.97,23.27,80.43,45.47,11.24,11.1,21.24,23.41,30.36,36.3,9.3,13.15,16.92,27.34,26,40.62,8.8,12.87,20.6,27.73,36.3,32.16,19.83,5.6,32.88-10.61,41.9-25.77,18.63-31.32,31.52-65.6,49.46-97.28,35.61-62.88,96.84-102.73,156.72-140.12,32.89-20.54,66.6-39.79,101.01-57.67,3.85-2,7.71-3.97,11.58-5.92Z"/><path d="m1280,166.75v2.45c-61.83,29.11-125.79,55.25-179.85,96.11-55.2,41.74-98.49,98.88-123.48,163.44-9.18,23.71-19.76,59.28-51.36,59.19-12.89-.03-21.96-8.84-28.24-19.27-7.92-13.14-13.98-27.09-22.72-39.79-36.28-52.73-94.78-89.97-158.15-99.54-73.06-11.04-148.34,12.87-220.41-7.53-56.19-15.91-99.42-57.95-146.87-89.68-23.17-15.49-48.23-29.3-75.87-34.6-31.65-6.07-63.5.7-91.15,16.9-62.87,36.83-92.2,105.97-125.49,167.18-15.44,28.38-33.64,57.27-56.41,80.93v-2.97c37.51-39.48,60.26-91.93,86.44-139.22,29.89-53.98,72.09-110.55,136-124.51,55.32-12.08,104.84,17.3,147.89,48.56,23.25,16.89,45.83,34.78,70.36,49.81,28.42,17.42,58.75,28.79,92.05,32.2,70.77,7.23,142.74-13.04,212.42,6.96,57.24,16.43,107.96,55.02,138.68,106.08,7.46,12.4,12.36,28.05,22.87,38.28,15.87,15.45,38.67,5.59,50-10.11,10.18-14.11,14.47-31.75,21.07-47.65,6.14-14.82,13.24-29.25,21.24-43.16,33.22-57.83,81.13-104.57,137.98-139.05,44.24-26.83,94.24-47.95,143-71.01Z"/><path d="m1280,163.24v2.64c-57.23,26.76-117.92,48.62-170.08,81.63-27.94,17.68-53.6,38.83-74.57,64.5-22.58,27.65-39.71,59.22-55.78,90.96-7.3,14.41-13.59,29.89-22.46,43.43-6.21,9.48-15.23,18.56-27.41,18.05-12.15-.52-21.06-10.38-27.8-19.45-9.19-12.37-17.43-25.15-27.74-36.69-42.56-47.68-102.69-79.63-166.2-87.4-72.82-8.9-147.44,15.72-217.85-12.74-64-25.88-111.89-79.37-175.37-106.32-32.18-13.66-67.62-19.37-101.67-9.36-28.18,8.28-52.48,25.82-72.82,46.61-42.52,43.47-67.05,99.16-98.89,150.06-12.16,19.43-25.71,38.66-41.36,55.67v-2.72c27.3-30.08,47.85-67.08,67.26-101.88,27.21-48.78,57.98-100.06,105.74-131.39,23.44-15.37,50.66-24.31,78.82-23.83,32.93.56,64.37,13.12,92.68,29.14,59.63,33.75,109.9,87.65,179.17,101.92,37.76,7.79,76.54,3.82,114.66,1.73,33.64-1.86,67.06-1.65,99.95,6.4,57.99,14.2,111.14,48.12,148.03,95.12,9.18,11.71,16.26,26.08,27.65,35.84,16.18,13.87,32.72,3.88,42.39-11.76,8.83-14.29,15.46-30.16,23.08-45.13,7.63-14.98,15.52-29.84,24.15-44.27,16.9-28.25,36.88-54.41,61.69-76.19,23.82-20.92,50.85-37.83,78.87-52.51,42.23-22.13,90.06-40.5,135.86-62.06Z"/><path d="m1280,157.1v2.88c-55.63,27.69-114.72,50.42-166.88,82.08-50.65,30.73-95.66,70.32-121.26,124.69-10.2,21.67-20.21,48.67-43.38,59.65-25.09,11.89-52.6-2.57-70.21-20.89-11.29-11.75-20.16-25.55-30.09-38.41-10.68-13.85-22.82-25.86-37.93-34.84-27.6-16.4-60.32-22.48-92.04-23.61-37.13-1.33-74.09,3.75-111.17,4.48-34.1.67-67.96-3.35-100.71-13-31.34-9.24-60.88-23.33-88.13-41.31-25.12-16.57-48.66-35.45-74-51.71-25.11-16.12-52.74-30.06-82.91-32.69-31.59-2.76-61.95,7.91-87.68,25.81-57.05,39.7-84.22,106.11-122.77,161.39-15.26,21.9-32.29,42.5-50.84,61.61v-3.17c7.76-8.07,15.24-16.41,22.43-24.98,22.14-26.42,40.46-55.27,58.25-84.71,31.26-51.7,66.34-107.35,125.41-130.15,26.32-10.16,54.74-10.92,81.74-2.96,27.39,8.08,51.93,23.57,75.16,39.78,24.88,17.35,48.76,36.3,75.1,51.48,30.23,17.41,63.35,29.75,97.57,36.49,36.41,7.17,72.93,6.41,109.77,4.01,34-2.22,68.26-4.98,102.15,0,28.19,4.14,56.26,13.55,78.67,31.62,25.84,20.85,38.68,53.63,65.22,73.59,13.67,10.28,31.25,17.44,48.46,12.91,14.27-3.75,24.62-14.56,32.3-26.67,14.64-23.09,23.02-49.22,38.96-71.7,33.06-46.58,81.58-79.43,131.33-105.99,43.55-23.25,91.65-42.79,137.48-65.68Z"/><path d="m1280,150.48v2.95c-58.39,30.94-123.16,53.07-179.29,85.15-50.91,29.1-95.61,66.81-121.38,120.44-9.27,19.3-20.1,45.54-42.86,51.98-25.84,7.31-45.34-16.09-60.47-33.17-21.93-24.75-48.68-44.49-79.37-57.02-33.26-13.59-69.06-17.04-104.71-16.77-36,.27-71.93,3.85-107.95,2.79-33.98-.99-67.44-7.12-99.12-19.64-29.12-11.51-55.02-28.28-79.84-47.17-23.19-17.66-45.66-36.54-70.82-51.4-26-15.36-54.97-25.4-85.5-23.56-32.48,1.97-63.13,16.16-88.98,35.36C88.94,253.03,56.42,345.77,0,412.32v-4.23c66.25-79.05,98.68-190.71,199.64-233.37,25.91-10.95,54.31-15.13,82.06-9.62,27.33,5.42,51.97,19.34,74.56,35.17,24.05,16.85,46.32,36.09,70.43,52.86,27.5,19.12,57.75,33.66,90.18,42.2,70.7,18.63,142.79,1.35,214.42,7.89,31.43,2.87,61.89,11.3,89.5,26.75,12.99,7.26,25.21,15.89,36.39,25.71,11.26,9.87,20.62,21.34,30.86,32.19,10.21,10.82,22.78,22.14,38.56,22.22,14.88.07,26.14-9.93,34.18-21.51,7.41-10.68,12.69-22.66,18.35-34.31,6.09-12.53,13.27-24.43,21.64-35.57,33.44-44.46,81.96-74.73,131.05-99.23,46.89-23.41,99.77-43.27,148.18-68.99Z"/><path d="m1280,140.31v2.9c-42.74,26.04-88.21,48.11-132.94,68.73-26.47,12.21-53.48,23.44-79.47,36.64-27.89,14.18-54.47,31.77-72.71,57.72-14.15,20.13-25.23,45.63-47.86,57.86-24.42,13.19-51.08,3.71-73.24-9.43-28.14-16.68-52.62-37.73-83.51-49.64-31.76-12.23-65.37-16.12-99.19-13.43-35.17,2.79-69.87,10.85-105.27,10.94-32.2.09-64.4-6.32-94.18-18.54-54.78-22.5-93.34-67.22-141.89-99.27-24.31-16.05-51.53-27.78-80.99-28.77-32.23-1.08-63.77,9.72-91.13,26.19C97.91,230.16,60.24,321.52,0,389.05v-3.62c68.57-77.8,109.35-185.87,212.92-222.5,26.74-9.46,55.7-12.19,83.39-5.29,26.3,6.55,49.73,20.86,71.21,37,22.48,16.89,43.26,35.94,65.73,52.86,25.51,19.2,53.45,34.31,84.22,43.19,33.69,9.73,68.17,11.31,102.89,7.47,34.85-3.85,69.58-11.32,104.82-9.37,30.45,1.69,60.48,9.94,87.56,23.96,28.28,14.66,51.8,37.82,81.49,49.86,13.97,5.67,29.37,8.05,43.91,3.01,14.05-4.87,24.49-15.64,33.03-27.41,8.17-11.27,14.88-23.53,23.03-34.82,8.03-11.12,17.64-20.9,28.36-29.43,22.92-18.23,49.76-30.64,76.29-42.59,26.14-11.78,52.28-23.56,78.14-35.94,34.78-16.65,69.71-34.67,103.01-55.12Z"/><path d="m1280,131.19v2.83c-42.82,27.62-89.05,50.68-133.52,72.18-60.81,29.4-122.41,58.38-177.36,98.08-23.13,16.71-45.99,43.68-77.43,39.04-29.2-4.31-51.92-27.16-77.59-39.81-57.69-28.43-125.04-16.72-186.69-14.13-30.28,1.27-61.06.88-90.62-6.51-26.34-6.59-50.4-19.31-72.76-34.47-45.06-30.55-84.31-71.6-135.25-92.73-27.13-11.25-56.66-15.01-85.61-9.43-30.05,5.79-57.65,20.49-81.95,38.74-50.92,38.25-85.67,91.26-123.6,141.39-11.88,15.7-24.29,31.28-37.62,45.93v-2.99c24.34-27.07,45.51-57.33,66.94-86.35,35.16-47.62,74.88-94.8,128.5-122.24,24.63-12.6,51.92-20.19,79.73-19.31,25.8.82,50.54,8.97,73.15,21.1,47.52,25.51,85.32,65.33,131.28,93.24,25.84,15.69,53.68,26.01,83.76,29.72,31.2,3.86,62.77,1.96,94.04,0,59-3.71,120.19-7.73,172.68,24.38,26.55,16.24,57.85,42.58,90.58,26.97,14.36-6.85,26.13-18.65,38.75-28.15,13.1-9.88,26.67-19.12,40.56-27.86,57.03-35.91,118.86-63.15,179.11-93.02,33.73-16.73,68.26-35.28,100.92-56.6Z"/><path d="m1280,120.36v3.16c-43.32,30.86-91.84,54.15-139.2,78.08-32.68,16.51-65.35,33.02-98.03,49.53-32.2,16.27-64.13,33.38-96.8,48.7-13.91,6.51-28.46,12.2-43.81,14.05-15.38,1.84-30.74-.64-45.52-4.91-16.2-4.68-31.75-11.32-47.74-16.63-16.74-5.57-33.96-9.72-51.4-12.4-36.54-5.62-72.29-3.25-108.73,1.64-29.91,4.02-59.66,6.58-89.24-.84-47.07-11.81-87.08-41.68-125.74-69.64-39.24-28.38-80.32-58.79-128.72-68.76-59.71-12.29-115.83,14.1-160.23,52.57C89.62,242.74,50.77,310.8,0,364.22v-3.63c21.87-23.36,41.37-49.2,60.62-74.35,34.61-45.24,71.19-90.63,120.33-120.88,44.22-27.22,95.47-36.25,145.22-19.64,45.69,15.26,84.28,45.95,122.93,73.66,39.58,28.37,82.37,57.23,131.94,63.06,34.42,4.05,68.43-4.41,102.58-7.28,33.37-2.81,67.18-.22,99.75,7.55,33.14,7.91,64.42,25.75,98.55,29.09,36.07,3.53,68.33-16.44,99.29-32.09,64.48-32.57,129.02-65,193.42-97.73,36.41-18.5,72.38-37.98,105.37-61.62Z"/><path d="m1280,107.1v2.95c-43.03,31.59-90.46,58.02-137.03,81.7-30.67,15.59-61.67,30.54-92.35,46.1-29.32,14.86-58.31,30.6-88.98,42.56-30.9,12.06-63.81,20.01-97.18,17.69-33.7-2.35-65.75-13.95-98.65-20.65-35.83-7.3-70.83-4.02-106.87-.67-31.58,2.93-63.35,4.18-94.05-5.06-47.28-14.22-86.4-46.5-124.81-76.21-39.86-30.83-83.05-63.65-134.69-69.75-63.48-7.5-123.23,28.47-169.09,68.84C86.16,238.74,45.81,293.82,0,342.65v-3.18c54.09-58.01,100.24-124.26,165.25-170.86,46.91-33.64,104.48-56.28,162.33-40.84,46.75,12.47,85.54,44.02,123.06,73.1,39.66,30.74,81.64,63.35,132.16,72.93,35.11,6.66,70.84.82,106.01-2.05,17.46-1.43,35.04-2.17,52.5-.4,16.33,1.65,32.38,5.3,48.27,9.3,34,8.56,67.78,18.08,103.2,14.87,34.8-3.15,67.9-15.95,99.25-30.74,31.14-14.69,61.51-31.05,92.37-46.34,30.82-15.27,61.72-30.41,92.04-46.66,35.23-18.88,70.64-40.21,103.56-64.68Z"/><path d="m1280,72.95v3.04c-40.7,34.48-85.44,64.54-131.2,91.2-28.58,16.65-57.77,32.21-87.23,47.24-28.68,14.64-57.45,29.38-87.35,41.38-29.59,11.87-60.42,20.59-92.33,22.82-34.24,2.39-68.48-1.83-102.41-5.98-34.78-4.25-69.28-7.75-104.37-6.31-32.62,1.33-65.79,4.43-97.91-3.3-47.74-11.5-86.71-43.54-124.25-73.53-40.49-32.34-83.41-65.96-136.35-73.21-61.04-8.36-120.48,18.33-168.72,53.65C90.73,211.81,47.67,269.02,0,321.01v-2.68c56.8-61.73,106.87-130.44,181.26-172.78,48.04-27.35,104.62-42.1,159.05-26.56,46.98,13.41,85.21,45.82,122.69,75.68,41.04,32.71,84.58,64.91,138.51,70.11,34.32,3.31,68.73-1.89,103.09-1.09,34.45.81,68.53,6.29,102.72,9.98,34.12,3.68,68.66,5.45,102.59-.83,32.8-6.08,64.05-18.45,94.17-32.5,58.92-27.49,117.05-58.05,172.29-92.35,36.04-22.38,71.13-47.28,103.63-75.04Z"/><path d="m1280,51.89v3.03c-27.62,24.91-56.9,47.97-87.6,68.97-103.26,70.61-222.53,116.53-346.29,134.45-63.3,9.17-127.64,11.11-191.36,5.45-31.96-2.84-64.98-6.32-94.8-18.92-27.02-11.42-50.19-29.87-72.68-48.33-49.83-40.88-103.29-77.22-168.12-88.48-62.94-10.92-122.71,8.37-173.5,45.55C89.07,195.03,46.85,252.42,0,304.4v-3.34c55.62-62.04,104.62-131.21,179.33-171.55,51.67-27.9,109.7-33.76,166.14-17.72,29.3,8.32,57.12,21.52,82.87,37.7,25.57,16.05,48.21,35.74,71.71,54.55,25.79,20.64,52.98,38.55,85.29,47,32.32,8.46,66.6,10.93,99.88,12.62,65.05,3.32,130.51-1.16,194.53-13.17,122.88-23.07,239.74-73.96,339.9-148.85,20.9-15.62,41.04-32.23,60.35-49.75Z"/><path d="m1280,34.32v2.88c-35.3,27.92-72.04,54.29-109.04,79.52-54.93,37.46-112.83,67.74-176.63,86.98-32.3,9.75-65.22,17.31-98.21,24.33-33.11,7.05-66.26,14.18-99.67,19.66-63.5,10.4-129.87,13.93-191.19-8.91-50.38-18.76-93.94-51.26-138.39-80.71-44.56-29.52-92.64-57.97-147-63.03-60.87-5.66-118.93,19.28-167.75,53.76C94.62,189.42,49.22,244.3,0,294.45v-2.83c58.21-59.28,110.87-124.79,184.55-166.01,48.1-26.92,103.07-40.86,157.84-29.42,51.38,10.74,96.22,40.09,139.11,68.96,44.79,30.14,90.03,62.24,142.5,77.48,66.4,19.28,136.76,10.07,203.42-2.79,66-12.72,132.97-25.68,196.46-48.16,63.65-22.54,120.6-58.2,175.18-97.41,27.18-19.53,54.49-39.22,80.94-59.95Z"/><path d="m1280,18.88v2.25c-6.26,5.35-12.54,10.67-18.83,15.98-25.33,21.37-50.87,42.55-77.81,61.88-28.27,20.28-58.16,38.49-90.22,52.15-31.54,13.43-64.72,22.43-98.02,30.31-35.26,8.33-70.82,15.48-105.66,25.48-34.22,9.83-67.72,22.02-102.13,31.2-33.75,9-68.75,15.13-103.77,12.18-27.68-2.34-54.35-10.66-79.39-22.49-52.37-24.75-96.92-62.69-145.95-93-25.61-15.84-52.65-29.77-81.71-38.08-35.57-10.19-73.46-12.22-109.94-6.06-57.28,9.68-107,40.36-150.12,78.1C75.44,204.68,39.04,246.89,0,285.73v-3.11c47.38-47.38,90.72-99.47,144.59-139.53,46.12-34.3,99.69-56.72,157.73-58.06,33.46-.78,66.9,5.17,98.02,17.46,26.19,10.35,50.6,24.61,74.1,40,47.83,31.34,92.92,68.75,146.47,90.22,29.68,11.9,61.03,17.42,93.02,15.8,36.57-1.86,72.16-11.71,106.95-22.53,33.91-10.55,67.51-21.77,102.04-30.19,34.24-8.35,68.84-15.2,102.88-24.36,34.87-9.39,68.75-21.59,100.52-38.91,30.93-16.85,59.69-37.39,87.3-59.2,22.37-17.67,44.61-35.77,66.38-54.44Z"/><path d="m1280,10.72v3.16c-33.31,29.38-68.43,56.71-105.12,81.68-54.11,36.82-111.64,64.93-176.43,76.54-33.05,5.92-66.51,9.01-99.65,14.35-34.23,5.52-66.84,14.39-98.68,28.19-27.49,11.92-55.22,25.31-85.48,27.98-32.1,2.83-63.72-7.13-92.45-20.62-51.24-24.07-95.95-59.45-143.14-90.24-47.22-30.81-98.96-57.98-156.52-59.9-62.97-2.1-122.35,25.35-172.71,61.07C94.44,172.22,48.69,223.33,0,270.65v-2.66c58.63-56.95,112.81-119.1,184.69-160.04,49.78-28.36,106.67-44.94,164.12-35.79,53.72,8.56,101.25,37.21,145.66,67.14,48.14,32.45,95.37,69.38,150.28,89.82,32.9,12.25,66.6,15.31,100.44,5.06,31.21-9.45,59.75-25.9,90.82-35.78,63.64-20.25,131.55-19.06,195.95-35.85,63.53-16.56,119.98-52.04,172.34-90.61,26.15-19.26,51.41-39.7,75.7-61.22Z"/><path d="m1280,3.22v2.63c-38.22,32.29-77.86,63.01-120.27,89.58-52.35,32.8-108.98,58.73-169.5,72.04-64.98,14.29-132.62,16.39-195.89,38.24-29.88,10.32-58.81,25.82-90.88,27.98-30,2.03-58.7-9.14-84.33-23.77-26.17-14.93-50.4-33.28-74.93-50.69-24.59-17.46-49.31-34.81-75.19-50.32-50.87-30.5-107.83-53.81-168.23-49.76-61.53,4.13-117.46,34.87-165.19,72.16C86.73,169.49,44.77,216.68,0,260.11v-2.7c54.69-53.05,104.94-111.48,169.43-153,47.9-30.84,103.1-51.48,160.79-47.45,56.51,3.95,108.37,29.66,155.44,59.6,25.49,16.21,50.01,33.87,74.63,51.35,24.75,17.58,49.5,35.97,77.04,49.01,31.58,14.96,63.89,18.51,97.53,8.41,31.36-9.41,60.67-23.8,92.61-31.64,64.33-15.8,131.3-17.87,194.95-36.82,59.99-17.86,115.49-48.08,166.77-83.57,31.39-21.73,61.6-45.33,90.81-70.08Z"/><path d="m1280,0v2.99c-38.88,34.04-80.94,64.34-126.08,89.53-49.19,27.46-101.99,48.61-156.96,61.15-64.12,14.63-131.94,11.91-192.47,40.3-27.59,12.94-54.58,29.39-85.29,33.59-25.87,3.53-51.48-2.93-74.59-14.44-25.72-12.8-48.45-30.83-70.83-48.63-25.61-20.38-51.49-39.95-79.87-56.35-57.58-33.25-126.51-61.55-194.22-56.22-63.59,5-120.69,38.44-169.46,77.55C84.57,166.09,43.76,210.59,0,250.78v-2.55c55.49-50.93,105.89-108.64,169.11-149.87,49.5-32.27,106.66-53.84,166.52-48.45,64.07,5.77,127.47,34.9,180.97,69.47,25.15,16.25,48.06,35.31,71.64,53.68,23.54,18.33,48.43,36.49,76.9,46.33,29.9,10.34,59.78,7.8,88.85-3.96,29.45-11.92,56.35-28.99,87.08-37.81,31.52-9.05,64.34-11.92,96.75-16.03,30.16-3.83,59.93-9.55,89.15-18.01,55.17-15.96,107.63-40.5,156.21-71.03,34.22-21.51,66.5-45.89,96.82-72.55Z"/></svg>