<?xml version="1.0" encoding="UTF-8"?><svg id="slidefrontpage4" xmlns="http://www.w3.org/2000/svg" viewBox="0 0 1280 5029.47"><path d="m1280,4669.38v6.42c-29.62-51.16-52.04-107.56-82.98-157.14-13.45-21.56-28.59-42.11-46.33-60.35-20.97-21.55-45.08-39.77-70.51-55.71-52.17-32.68-109.45-57.83-166.04-81.74-118.16-49.93-241.06-88.65-366.49-115.51-31.27-6.69-62.69-12.65-94.24-17.86-32.3-5.34-64.92-10.42-97.75-10.09-31.68.32-62.74,6.48-91.13,20.81-24.45,12.34-46.11,29.53-65.53,48.73-70.17,69.42-113,170.4-199,222.48v-3.49c3.68-2.28,7.29-4.65,10.84-7.14,91.6-64.06,130.83-178.28,221.06-244.02,21.74-15.84,46.13-28.08,72.35-34.41,30.8-7.44,62.87-6.98,94.2-3.71,63.58,6.66,127.03,20.01,189.21,34.61,125.07,29.38,247.34,70.6,364.67,122.94,55.17,24.6,111.28,50.32,159.89,86.64,42.01,31.4,73.67,71.26,99.46,116.6,23.95,42.09,43.86,88.76,68.32,131.94Z"/><path d="m1280,4689.69v6.93c-29.34-58.04-52.39-120.51-86.83-174.59-16.77-26.34-36.47-50.75-60.01-71.34-24.59-21.5-52.47-38.84-81.11-54.37-59.44-32.22-121.66-59.92-184.45-84.9-125.7-49.99-256.55-87.01-389.81-110.22-64.82-11.28-137.48-26.48-199.54,3.49-49.27,23.8-83.63,69.02-115.28,112.03-15.57,21.16-30.83,42.59-47.66,62.78-19.48,23.38-41.09,44.99-64.43,64.52-16.18,13.55-33.19,26.07-50.88,37.51v-3.54c32.78-21.41,63.11-46.54,90.18-74.85,38.53-40.28,67.63-87.93,103.15-130.66,34.89-41.97,77.55-77.26,133.08-85.63,31.85-4.8,64.22-1.88,95.93,2.54,33.94,4.73,67.73,10.65,101.33,17.32,132.82,26.34,262.88,66.45,387.5,119.41,31.12,13.23,61.9,27.26,92.3,42.08,29.41,14.34,58.74,29.13,86.37,46.73,26.33,16.76,50.86,36.25,71.62,59.64,19.88,22.41,36.34,47.64,50.78,73.82,24.46,44.32,44.28,94.11,67.76,141.3Z"/><path d="m1280,4724.91v6.84c-28.49-57.09-45.87-119.1-76.12-175.39-30.86-57.43-76.62-101.64-131.46-136.24-55.78-35.2-117.18-61.7-178.08-86.61-131-53.59-267.49-93.79-406.64-119.71-65.36-12.18-138.62-26.02-201.7,2.79-53.82,24.58-87.44,75.91-120.2,122.73-33.87,48.42-71.93,92.08-119.31,127.82-14.91,11.24-30.43,21.63-46.49,31.11v-3.44c30.57-18.24,59.2-39.77,85.17-64.1,22.49-21.06,42.78-44.23,61.03-69.05,17.15-23.33,32.94-47.63,50.52-70.65,16.58-21.7,34.84-42.42,56.9-58.72,24.49-18.08,52.94-28.91,83.03-33.09,31.36-4.35,63.24-2.16,94.48,2.11,34.35,4.7,68.48,11.4,102.4,18.5,137.74,28.83,272.52,71.69,401.63,127.66,58.59,25.4,117.47,52.6,169.06,90.69,24.67,18.21,47.54,38.97,66.86,62.82,19.97,24.65,35.61,52.36,48.92,81.07,21.72,46.82,37.53,96.41,60,142.86Z"/><path d="m1280,4730.33v5.55c-7.33-14.43-14.28-29.06-21.11-43.62-25.35-54.06-50.28-108.12-85.99-156.34-39.42-53.24-88.74-96.61-146.13-129.61-60.41-34.75-125.54-62.36-190.37-87.68-65.18-25.45-131.72-47.41-199.25-65.76-62.86-17.07-127.17-33.27-192.2-39.16-58.59-5.29-120.74-1.55-173.28,27.36-55.79,30.71-86.81,87.03-125.95,134.77-41.14,50.18-90.66,93.19-145.72,127.3v-3.45c19.35-12.08,38.01-25.28,55.83-39.5,23.89-19.06,46.31-39.95,66.95-62.47,21.37-23.32,39.92-48.72,58.82-74.02,18.24-24.4,37.46-48.5,61.57-67.4,21.75-17.03,46.92-29.2,73.45-36.74,55.9-15.89,115.7-12.33,172.45-3.24,67.02,10.75,133.35,28.3,198.31,47.79,67.93,20.38,134.76,44.46,200.09,72.07,62.41,26.38,125.95,54.32,181.64,93.37,50.84,35.65,93.21,82.17,126.7,134.31,33.11,51.53,56.1,110.84,84.19,166.47Z"/><path d="m1280,4760.59v6.37c-30.64-54.17-57.8-110.94-90.96-162.46-34.95-54.29-78.54-101.61-129.35-141.41-50.2-39.33-105.9-71.19-163.49-98.33-58.34-27.5-118.82-50.2-179.84-70.98-70.49-24.01-142.37-45-216.18-55.89-67.34-9.93-140.25-11.54-203.07,18.45-60.04,28.66-100.56,83.43-144.54,131.16-44.84,48.66-96.35,90.83-152.57,125.32v-3.38c16.88-10.41,33.33-21.52,49.29-33.29,27.19-20.06,52.96-42.05,77.02-65.77,22.87-22.56,43.64-47.02,65.14-70.86,21.34-23.67,43.7-46.77,69.73-65.35,26-18.55,55.37-31.24,86.52-38.17,66.2-14.73,135.85-5.93,201.49,7.53,72.09,14.78,142.35,37.67,211.5,62.6,59.09,21.31,117.45,45.06,173.29,73.93,55.06,28.47,107.76,62.06,154.46,102.96,49.3,43.18,88.92,94.22,121.99,150.65,23.86,40.71,45.72,84.47,69.57,126.92Z"/><path d="m1280,4775.04v6.53c-30.58-49.87-59.14-101.38-93.32-146.77-79.04-104.96-183.26-189.07-298.02-252.19-58.28-32.05-119.41-58.85-182.24-80.66-64.98-22.56-132.17-41.07-200.81-47.79-68.99-6.75-140.78-.99-203.87,29.67-64.49,31.34-111.73,86.52-162.93,134.97-42.57,40.28-89.16,76.14-138.81,107.06v-3.45c7.22-4.52,14.38-9.15,21.47-13.88,29.75-19.85,58.28-41.51,85.36-64.87,26.75-23.06,51.52-48.16,76.73-72.87,24.57-24.08,49.87-47.69,78.33-67.17,27.76-19,58.44-33.17,90.87-42.09,65.16-17.93,134.32-15.34,200.36-3.87,66.55,11.55,131.74,31.95,194.66,56.27,60.58,23.41,119.35,51.6,175.16,84.85,110.64,65.92,209.84,152.4,283.64,258.42,25.6,36.77,48.9,77.61,73.42,117.84Z"/><path d="m1280,4816.17v5.93c-1.38-2.62-2.76-5.23-4.15-7.84-30.59-57.47-65.86-112.17-106.42-163.14-80.31-100.92-179.09-187.03-289.82-253.13-55.29-33.01-113.57-61.04-173.97-83.37-69.18-25.59-143.59-48.16-218-46.72-145.1,2.8-267.1,97.86-374.94,184.84-36.34,29.31-73.66,59.38-112.7,86.77v-3.47c56.84-40.29,110.28-86.46,164.62-128.27,55.6-42.78,114.22-83.06,179.14-110.41,65.68-27.69,135.2-38.53,205.98-28.27,68.51,9.92,136.05,32.82,199.69,59.63,59.48,25.06,116.6,55.61,170.56,91.02,106.71,70.03,201,159.02,276.54,261.93,31.43,42.81,58.32,88.03,83.47,134.5Z"/><path d="m1280,4828.03v5.85c-35.98-61.09-75.63-119.96-119.86-175.41-80.45-100.85-176.32-189.75-287.2-256.27-54.41-32.64-112.2-59.77-172.5-79.65-64.76-21.36-133.78-36.22-202.22-35.45-74.21.83-144.02,25.94-209.5,59.23-64.92,32.99-125.02,73.54-181.87,118.92-34.75,27.74-70.02,57.35-106.85,84.67v-3.28c55.53-41.52,107.88-88.67,163.36-128.03,57.96-41.12,120.74-77.44,186.95-103.57,32.47-12.82,66.21-22.7,100.84-27.51,36.52-5.06,73.62-4.17,110.15.27,126.85,15.41,248.25,66.8,353.86,137.66,107.74,72.29,199.71,165.5,276.79,269.51,31.71,42.79,60.92,87.3,88.05,133.06Z"/><path d="m1280,4846.09v5.75c-39.61-67.09-85.44-130.52-136.62-189.26-80.1-91.93-173.3-172.5-276.28-237.83-56-35.53-114.93-67.85-177.48-90.29-65.9-23.64-135.13-34.06-204.9-25.84-142.95,16.82-266.8,97.36-380.47,180.17-34.78,25.34-69.04,51.65-104.25,76.51v-3.89c54-38.26,106.22-78.99,160.79-116.45,113.48-77.9,244.02-146.05,385.45-142.19,68.31,1.86,134.57,21.96,196.39,50.13,58.5,26.64,114.2,59.92,167.03,96.45,100.52,69.51,190.8,153.72,267.48,248.86,37.74,46.82,72.13,96.26,102.86,147.88Z"/><path d="m1280,4857.95v6.02c-10.33-16.64-21.18-32.96-32.39-48.98-38.7-55.32-81.47-108.03-126.37-158.42-86.45-96.99-184.53-185.48-297.92-249.93-58.73-33.39-121.82-61.02-187.53-77.27-37.02-9.15-75.11-14.25-113.29-12.98-37.49,1.24-74.61,8.32-110.49,19.07-122.15,36.6-227.68,111.99-331.99,182.73-26.35,17.87-52.95,35.71-80.02,52.81v-3.36c42.54-27.02,84.01-55.89,125.47-83.92,106.82-72.23,221.69-146.63,351.77-166.12,74.51-11.17,148.38,1.8,218.76,26.97,60.96,21.81,118.99,51.4,173.35,86.49,109.92,70.97,204.57,163.46,288.51,263.26,43.45,51.66,85.98,105.85,122.14,163.63Z"/><path d="m1280,4892.7v5.49c-48.85-76.85-103.37-150.09-163.02-218.9-81.29-93.78-171.93-182.46-278.88-246.64-108.53-65.12-236.67-103.35-363.85-87.57-67.08,8.32-128.12,33.87-186.69,66.74-61.56,34.55-121.89,71.44-182.7,107.31-34.98,20.64-69.86,41.49-104.86,62.13v-3.77c53.43-31.49,106.84-63.02,160.26-94.52,60.1-35.45,119.45-74.07,182.97-103.21,57.62-26.43,119.35-40.38,182.76-41.12,126.12-1.49,247.36,45.15,350.73,115.11,104.25,70.55,193.31,162.81,272.97,259.64,46.99,57.11,90.51,117.02,130.31,179.31Z"/><path d="m1280,4908.23v5.24c-49.85-73.17-103.38-143.83-160.33-211.61-84.55-100.61-177.05-197.83-290.2-266.51-111.77-67.84-246.73-105.81-376.92-77.3-66.2,14.49-126.04,47.16-184.88,79.57-61.82,34.05-123.2,68.9-184.12,104.53-27.96,16.35-55.8,32.9-83.55,49.6v-3.57c46.05-27.65,92.36-54.85,138.93-81.59,61.08-35.07,122.25-70.5,184.96-102.58,58.04-29.68,118.58-51.97,184.01-57.1,129.66-10.16,255.76,37.77,361.14,110.53,109.8,75.82,200.24,176.72,283.73,279.87,44.7,55.24,87.14,112.27,127.23,170.92Z"/><path d="m1280,4922.29v5.74c-46.98-73.55-97.75-144.57-155.75-210.07-46.39-52.4-96.15-101.89-147-149.94-47.23-44.64-96.62-87.56-151.51-122.6-54.38-34.71-114.15-60.81-178.03-71.5-66.81-11.18-135.4-5.97-201.12,9.38-133.39,31.15-251.92,101.15-366.97,172.89-26.45,16.49-52.93,33.13-79.62,49.43v-3.41c43.64-26.74,86.77-54.36,130.34-80.86,114.84-69.84,238.14-133.36,373-151.59,65.28-8.82,132.19-5.91,195.54,12.9,60.69,18.02,116.44,49.55,167.26,86.89,52.26,38.4,99.75,82.78,146.14,127.98,51.87,50.55,102.49,102.53,148.44,158.58,43.33,52.85,82.49,108.72,119.28,166.18Z"/><path d="m1280,4940.43v5.79c-10.76-17.19-22.03-34.08-33.76-50.66-40.81-57.7-86.15-112.11-131.33-166.42-43.86-52.72-88.65-104.77-137.02-153.44-47.15-47.43-97.59-93.04-155.25-127.42-113.63-67.76-249.16-74.6-376.04-46.51-130.59,28.92-248.8,93.7-362.4,162.15-28.16,16.97-56.14,34.21-84.2,51.33v-3.53c45.34-27.66,90.48-55.63,136.47-82.2,114.16-65.95,235.22-123.11,367.12-140.97,63.02-8.53,127.59-8.07,189.89,5.47,63.4,13.77,121.45,42.05,173.67,80.25,54.37,39.76,102.93,87.45,148.74,136.65,47.85,51.39,92.66,105.52,137.21,159.76,44.42,54.09,88.16,108.99,125.84,168.08.35.56.71,1.11,1.06,1.67Z"/><path d="m1280,4970.9v5.25c-51.46-77.78-109.22-151.5-166.6-224.9-82.58-105.63-168.27-213.96-285.32-283.31-56.62-33.55-119.3-56.73-185.07-62.95-71.12-6.71-142.67,4.67-211.27,23.11-133.5,35.89-260.63,94.36-377.33,168.1-18.14,11.46-36.24,23.27-54.41,35.08v-3.28c34.7-22.64,69.29-45.35,104.78-65.91,59.57-34.5,121.7-64.55,185.69-89.9,65.55-25.96,133.41-48.27,202.78-61.35,67.72-12.77,137.85-15.74,205.31.28,61.58,14.62,119.04,43.53,170.58,79.89,111.56,78.7,194.04,190.71,276.98,297.32,46.28,59.49,92.1,119.75,133.88,182.57Z"/><path d="m1280,4982.33v5.11c-9.92-13.56-20.13-26.9-30.47-40.08-40.8-52-83.41-102.49-123.15-155.33-76.74-102.05-151.4-211.4-258.84-283.94-114.93-77.61-257.68-96.56-392.84-76.11-142.27,21.53-273.85,85.88-395.74,159.85-26.67,16.19-52.83,33.23-78.96,50.29v-3.83c45.75-29.52,91.75-58.59,139.35-85.16,122.78-68.52,256.53-122.4,398.24-130.77,67.74-4,136.47,2.19,201.6,21.7,61.94,18.55,118.75,49.68,168.84,90.43,101.11,82.28,171.97,194.01,251.32,295.79,39.38,50.52,82.32,99.88,120.65,152.05Z"/><path d="m1280,4987.58v4.72c-50.89-78.59-119.91-147.09-176.13-220.8-39.82-52.21-76.31-107.08-119.88-156.34-22.05-24.92-45.93-48.35-72.45-68.5-28.48-21.64-59.93-38.99-92.62-53.38-130.62-57.49-280.33-70.37-419.01-36.99-125.05,30.09-236.53,97.2-345.28,163.43-18.15,11.06-36.34,22.16-54.63,33.15v-3.42c35.14-21.16,69.99-42.79,105.06-63.71,111.86-66.72,229.25-127.1,359.94-144.65,138.02-18.53,287.69,5.52,408.56,76.56,118.01,69.37,183.99,195.13,268.97,297.55,45.93,55.36,97.07,111.15,137.47,172.38Z"/><path d="m1280,4985.78v5.38c-8.09-11.77-16.85-23.11-26.08-34.08-41.71-49.52-90.16-92.81-131.78-142.47-78.22-93.3-144.85-199.46-242.48-274.5-106.6-81.95-242.53-106.28-374.06-90.4-142.18,17.17-274.18,79.58-398.23,148.02-36,19.86-71.66,40.41-107.37,60.89v-3.4c54.62-31.36,109.17-62.87,165.08-91.8,123.46-63.89,256.57-116.43,397.12-121.08,65.95-2.18,132.71,5.99,195.15,27.85,58.57,20.51,111.06,53.6,157.06,95.03,92.83,83.62,157.83,192.2,241.82,283.85,41.47,45.26,88.19,86.43,123.77,136.71Z"/><path d="m1280,5011.52v5.09c-47.07-78.99-121.79-143.2-180.32-212.65-41.91-49.72-77.74-104.18-119.36-154.13-40.93-49.12-88.28-91.61-144-123.36-56.05-31.93-118.08-52.48-182.05-60.66-65.75-8.41-132.61-4.15-197.52,8.52-132.68,25.91-254.87,85.62-371.95,151.22-28.37,15.89-56.58,32.13-84.8,48.35v-3.42c46.22-26.6,92.43-53.24,139.48-78.29,118.1-62.9,244.4-115.86,378.58-130.16,65.07-6.93,131.35-4.09,194.97,11.75,60.42,15.06,117.91,41.8,168.48,78.11,51.6,37.04,93.27,84.29,131.64,134.51,41.32,54.07,80.83,108.82,127.29,158.74,47.55,51.09,101.74,105.05,139.56,166.38Z"/><path d="m1280,5020v9.47c-9.93-26.36-23.41-51.33-41.54-74.05-39.5-49.49-91.76-86.83-134.26-133.54-76.45-84.02-131.77-187.95-221.01-260.07-51.19-41.36-111.19-64.61-176.32-72.73-69.69-8.7-141.47-5.2-210.81,4.94-138.31,20.22-270.92,70.42-394.03,135.61-34.66,18.35-68.44,38.51-102.03,59.08v-4.01c51.55-31.16,103.91-60.79,158.33-86.78,125.88-60.12,261.33-103.35,400.96-113.93,69.27-5.25,141.98-4.81,209.27,14.26,56.97,16.15,106.29,48.53,148.36,89.67,83.86,82.01,139.88,187.7,225.41,268.35,47.45,44.74,100.1,86.2,129.61,145.88,2.91,5.87,5.59,11.83,8.06,17.85Z"/></svg>