<?xml version="1.0" encoding="UTF-8"?><svg id="slidefrontpage3" xmlns="http://www.w3.org/2000/svg" viewBox="0 0 1280 5029.47"><path d="m1280,2616.2v1.91c-58.61-17.54-121.62-22.08-181.63-30.04-47.78-6.34-95.13-15.46-141.74-27.76-48.23-12.72-94.65-30.3-141.99-45.77-48.63-15.9-97.44-25.25-148.76-20.56-52.1,4.76-103.4,18.47-154.31,30.03-99.04,22.5-197.87,46.47-294.64,77.51-42.34,13.58-87.31,26.44-125.26,50.28-17.31,10.88-33.01,24.63-43.93,42.06-12.93,20.63-17.68,44.83-17.55,68.92.25,48.4,15.98,96.88,27.89,143.38,12.34,48.18,25.06,96.28,35.66,144.88.93,4.28,1.85,8.56,2.74,12.85,9.24,44.04,16.56,88.53,19.88,133.43,3.66,49.67,1.4,98.99-5.69,148.25-7.43,51.56-18.12,102.73-20.81,154.85-2.55,49.41.97,98.86.66,148.28-.3,48.56-5.07,96.69-20.9,142.85-15.01,43.78-37.38,84.54-60.08,124.71-3.16,5.59-6.35,11.21-9.54,16.87v-4.57c13.02-22.99,26.06-45.9,37.86-69.16,22.55-44.44,39.97-90.8,46.3-140.46,6.52-51.1,3.63-102.74,2.76-154.08-.88-51.29,2.82-101.44,10.84-152.11,8.12-51.37,17.37-102.52,18.2-154.68,1.03-65.5-8.29-130.23-21.74-194.18-7.98-37.98-17.42-75.69-27-113.12-12.23-47.77-26.47-95.61-34.93-144.23-7.24-41.58-7.44-86.78,19.12-121.96,23.18-30.71,59.64-47.9,94.74-61.18,46.57-17.61,94.43-32.19,142.28-45.85,100.79-28.78,203.27-52.66,305.83-74.26,47.98-10.1,96.85-17.18,145.77-9.84,49.44,7.42,96.04,26.43,143.12,42.39,48.89,16.57,98.92,29.78,149.63,39.46,45,8.58,90.47,13.4,135.85,19.34,37.11,4.86,75.14,10.85,111.37,21.56Z"/><path d="m1280,2620.11v2.18c-67.76-22.7-142.05-24.13-212.84-30.48-48.99-4.4-96.52-12.87-143.36-28.09-46.14-14.99-91.24-33.55-138.6-44.57-102.81-23.91-208.36.47-309.65,20.72-97.81,19.56-195.49,42.31-288.67,78.46-22.84,8.86-45.73,18.16-67.53,29.38-20.13,10.36-39.63,23.38-52.63,42.32-26.17,38.13-21.68,88.54-16.05,132.01,10.63,82.04,34.55,161.38,53.03,241.85,3.48,15.14,6.77,30.31,9.74,45.56,9.21,47.29,15.36,95.38,14.43,143.64-.96,50.02-10.16,99.3-18,148.56-8.18,51.38-12.17,102.32-12.07,154.34.1,50.16,1.99,100.47-2.62,150.5-4.3,46.54-15.59,91.2-33.79,134.24-17.62,41.65-39.91,81.07-61.39,120.82v-4.65c7.3-13.53,14.64-26.95,21.8-40.32,23.23-43.4,45.24-87.94,58.18-135.63,13.77-50.79,16.02-103.64,16.03-155.99,0-51.39-2.07-102.91,2.52-154.18,4.66-52.09,15.8-103.3,22.27-155.15,6.26-50.1,6.08-100.04-.41-150.1-4.43-34.21-11.25-68.03-18.99-101.64-3.56-15.5-7.33-30.95-11.15-46.37-11.96-48.25-24.57-96.39-33.77-145.26-8.18-43.42-16.83-90.19-10.03-134.34,3.11-20.27,10.37-39.91,23.48-55.88,12.93-15.75,30.34-27.04,48.29-36.27,43.83-22.57,91.26-39.34,138.17-54.19,97.11-30.74,197.53-50.82,297.61-69.11,50.67-9.27,102.07-16.91,153.72-15.49,50.01,1.38,97.6,13.67,144.71,29.74,47.24,16.11,93.88,34.29,143.12,43.5,51.92,9.71,104.84,11.42,157.33,16.15,42.26,3.81,86.2,10.2,127.12,23.74Z"/><path d="m1280,2623.13v2.03c-24.68-6.38-50.41-9.3-75.84-10.78-52.2-3.05-104.09-3.21-155.88-11.43-51.59-8.19-101.74-22.12-150.75-40.08-48.84-17.89-97.4-37.34-149.55-42.92-54.67-5.86-109.79.96-163.71,10.1-51.9,8.81-103.51,19.42-154.73,31.61-51.22,12.19-102.04,26.04-152.37,41.51-25.73,7.9-51.32,16.23-76.77,24.98-22.19,7.63-44.69,15.03-65.85,25.26-21.15,10.23-41.15,23.82-54.76,43.32-13.62,19.51-19.98,43.05-22.06,66.52-4.25,47.83,5.54,97.03,15.36,143.62,11.09,52.62,25.61,104.63,38.1,157.02,10.52,44.18,19.59,88.63,23.93,133.95,4.92,51.39,1.44,102.01-6.26,152.94-7.98,52.79-17.8,105.23-18.34,158.8-1.01,101.28,19.21,204.01-16.96,301.77-22.93,61.97-60.4,116.6-93.56,173.47v-5.2c46.19-79.37,99.7-155.26,110.5-249.11,6.07-52.68,1.83-105.78-.69-158.54-2.5-52.59-1.06-104.07,6.62-156.2,7.91-53.71,18.73-107.19,19.07-161.68.32-53.07-7.94-105.75-19.2-157.49-2.38-10.91-4.91-21.81-7.56-32.71-21.01-86.68-48.63-173.23-53.65-262.43-2.32-41.15,2.9-85.62,31.89-117.24,30.5-33.29,78.15-46.45,119.47-60.51,101.89-34.7,206.08-62.69,311.65-83.7,51.67-10.29,103.92-20.21,156.58-23.48,53.75-3.33,105.4,3.27,156.55,20.06,49.95,16.4,98.17,37.05,149.24,50.07,53.1,13.55,107.38,20.9,162.11,23.07,43.37,1.72,92.64,2.46,137.42,13.4Z"/><path d="m1280,2644.36v2.1c-73.08-22.16-153.42-17.55-228.69-28.07-49.74-6.95-95.93-23.77-142.38-42.17-47.84-18.94-95.85-37.02-147.49-41.75-52.14-4.77-104.76.77-156.53,7-53.96,6.48-107.66,15.2-160.91,26.07-52.26,10.67-104.09,23.42-155.33,38.23-24.56,7.09-48.97,14.66-73.24,22.69-23.06,7.63-46.38,15.28-67.88,26.74-21.1,11.25-39.64,26.43-52.46,46.8-11.74,18.67-18.4,40.08-21.84,61.75-7.48,47.28-.87,96.48,7.8,143.11,9.82,52.82,24.37,104.75,36.97,157.03,11.27,46.76,20.96,93.79,24.31,141.99,7.47,107.4-13.56,213.84-20.6,320.66-3.5,53.09-1.38,106.25-3.41,159.37-1.8,46.97-8.37,93.02-23.52,137.62-23.16,68.19-60.29,130.18-94.8,193.12v-4.72c3.18-5.77,6.36-11.52,9.54-17.25,41.65-75.18,85.61-151.83,99.87-237.78,8.94-53.86,7.21-108.69,7.68-163.07.49-55.37,5.57-110.29,11.54-165.29,5.84-53.84,11.98-107.76,12.9-161.96.93-54.85-5.15-108.74-16.55-162.35-2.86-13.45-6-26.89-9.3-40.34-20.75-84.71-47.51-169.56-47.75-257.08-.11-40.66,7.05-83.91,32.79-116.69,27.93-35.56,72.81-50.16,114.12-63.83,102.32-33.87,207.39-59.45,313.84-76.42,51.64-8.23,103.82-15.21,156.06-18.27,52.73-3.08,104.35.81,154.92,16.71,47.42,14.91,92.4,36.57,139.78,51.6,52.71,16.72,107.28,20.57,162.13,24.13,45.32,2.94,93.76,7.1,138.43,20.32Z"/><path d="m1280,2650.14v2.03c-64.09-17.24-136.68-8.67-201.59-17.31-50.05-6.65-97.5-24.48-144.98-40.85-47.7-16.45-96.06-29.54-146.06-36.8-199.9-29.04-403.03,22.18-588.88,93.2-22.58,8.63-46.48,16.58-66.11,31.09-19.69,14.57-31.94,36.13-39.37,59.11-16.07,49.79-13.98,103.9-5.88,154.94,8.08,50.93,22.2,100.62,33.37,150.9,1.29,5.8,2.52,11.61,3.71,17.44,9.06,44.51,15.14,89.57,18.74,134.87,8.38,105.16,4.02,210.81-2.41,315.93-6.14,100.33-9.37,202.85-34.57,300.64-21.47,83.33-64.53,156.58-105.97,231.06v-4.72c6.87-12.21,13.78-24.35,20.57-36.45,21.91-39.08,43.47-78.57,60.25-120.18,19.19-47.57,30.95-97.67,38.53-148.29,7.72-51.6,11.26-103.7,14.68-155.73,3.57-54.28,7.12-108.57,9.26-162.93,4.26-108.2,2.96-217.28-15.66-324.22-1.74-9.99-3.71-19.98-5.84-29.98-19.37-90.89-51.83-182.27-40.97-275.83,5.02-43.22,18.74-88.89,57.52-113.32,19.24-12.12,41.36-19.58,62.49-27.62,23.64-9,47.42-17.59,71.36-25.72,188.59-64,395.59-101.69,591.98-51.12,50.57,13.03,98.82,33.24,148.88,47.91,25.73,7.53,51.85,13.27,78.55,15.96,26.48,2.66,53.11,2.93,79.69,3.6,36.58.93,73.5,2.77,108.71,12.39Z"/><path d="m1280,2662.25v2.04c-66.33-18.14-141.98-8.02-209.05-18.65-98.07-15.55-187.21-63.79-284.64-81.96-54.13-10.1-109.48-9.35-164.14-4.77-52.38,4.39-104.77,11.02-156.68,19.26-97.5,15.46-197.17,39.52-282.85,90.33-41.89,24.84-76.74,59.1-88.15,107.87-10.7,45.67-2.11,93.6,8.54,138.43,11.69,49.25,25.52,97.73,34.28,147.66.08.48.17.95.24,1.43,8.72,49.94,14.26,100.41,17.3,151.01,6.37,106.01,1.79,212.39-7.59,318.07-9,101.34-19.41,203.83-44.46,302.65-12.25,48.29-28.43,95.56-49.95,140.53-16.1,33.62-34.56,66.02-52.85,98.48v-4.73c5.65-9.95,11.28-19.87,16.77-29.75,23.86-42.94,45.85-86.64,62.22-133.06,17.45-49.5,29.57-100.74,38.71-152.38,18.72-105.7,28.67-213.82,34.5-320.95,5.93-108.98,4.84-218.75-10.2-326.99-2-14.37-4.29-28.65-6.86-42.88-6.85-38.11-15.59-75.76-25.41-113.32-11.52-44.07-23.3-89.36-22.23-135.27,1.03-44.17,16.72-85.1,49.1-115.72,33.8-31.97,78.29-52.76,121-69.93,93.55-37.6,194.04-53.48,293.6-65.48,54.87-6.61,110.13-12.47,165.47-10.32,51.58,2,101.29,12.92,150.33,28.57,48.71,15.54,96.35,34.37,145.65,48,24.96,6.89,50.34,12.44,76.08,15.4,26.96,3.1,54.12,3.47,81.22,4.14,36.95.92,74.44,2.5,110.05,12.29Z"/><path d="m1280,2675.54v2.04c-67.57-21.61-147.26-11.78-215.75-24.78-51.26-9.74-100.43-27.61-149.79-44.06-51.8-17.28-103.97-31.84-158.43-37.66-110.64-11.84-221.93,5.2-330.16,27.53-46.36,9.56-93.12,18.9-138.5,32.55-38.7,11.64-77.19,26.92-109.9,51.1-36.51,26.98-61.71,65.09-69.85,110.01-9.37,51.72,1.51,104.85,12.18,155.48,8.13,38.59,15.37,77.3,21.57,116.14,10.83,67.76,18.52,135.94,22.32,204.67,6.09,110.19,3.1,220.88-9,330.57-11.61,105.21-29.34,211.61-65.03,311.58-22.82,63.96-55.72,122.55-89.66,180.76v-3.97c20.6-35,40.87-70.24,58.33-106.92,23.11-48.52,40.44-99.57,53.87-151.56,28.12-108.82,42.51-221.88,48.97-333.96,6.46-111.94,3.52-224.43-8.79-335.88-3.52-31.86-7.81-63.64-12.87-95.29-4.04-25.36-8.57-50.63-13.6-75.81-10.05-50.29-23.5-100.7-23.97-152.31-.39-44.58,11.07-88.33,39.84-123.12,24.95-30.15,59.31-50.84,94.99-65.89,38.21-16.12,78.6-26.33,118.97-35.33,55.64-12.39,111.45-24.29,167.8-33.02,108.42-16.78,219.49-20.83,326.25,8.04,50.96,13.78,100.21,33,150.75,48.11,25.41,7.59,51.17,14.16,77.37,18.36,28.64,4.59,57.62,5.73,86.55,6.99,38.83,1.68,78.48,3.8,115.54,15.63Z"/><path d="m1280,2684.68v2.5c-16.16-5.49-33.11-9.04-50.03-11.12-52.6-6.47-105.76-2.96-158.04-12.85-52.94-10.02-103.64-28.69-155.22-43.8-50.69-14.84-102.53-25.59-154.95-32.03-103.63-12.73-209.27-9.01-311.74,11.01-50.76,9.92-100.75,23.83-149.28,41.69-44.18,16.25-88.9,35.95-123.88,68.25-35.97,33.21-54.8,77.95-58.85,126.27-4.03,47.99,4.09,96.17,13.09,143.15,5.5,28.7,10.72,57.39,15.52,86.14,11.03,66.09,19.8,132.4,24.54,199.49,13.61,192.62-.38,388.37-51.61,574.94-25.26,91.99-59.65,181.52-103.71,266.17-5.12,9.83-10.42,19.55-15.84,29.18v-4.45c16.12-29.26,31.09-59.14,44.86-89.59,40.86-90.34,71.26-185.28,92.16-282.17,21.17-98.11,32.65-198.22,35.84-298.51,3.16-99.56-1.81-199.33-13.83-298.2-3.94-32.39-8.64-64.69-14.09-96.86-2.98-17.68-6.19-35.32-9.62-52.91-9.17-47.06-19.3-94.36-20.47-142.47-1.09-44.78,6.57-90.52,31.75-128.41,24.79-37.31,63.24-62.67,103.15-81.45,44.96-21.15,92.99-36.62,141.01-49.1,50.67-13.16,102.4-22.24,154.51-27.25,104.11-9.99,209.84-3.61,311.9,19.36,53.03,11.93,104.14,30.07,156.32,45.01,26.79,7.67,53.94,14.28,81.57,18.04,28.38,3.85,57.04,4.29,85.61,5.48,33.48,1.39,67.65,4.01,99.33,14.49Z"/><path d="m1280,2695.41v2.45c-52.46-18.97-115.2-18.76-168.85-23.07-101.61-8.18-195.71-49.58-295.16-68.53-104.05-19.81-211.67-18.41-316.68-7.57-94.81,9.79-192.58,32.46-266.93,95.62-33.34,28.32-60.58,63.91-75.97,105.07-17.37,46.49-19.22,96.91-15.15,145.89,3.3,39.85,10.36,79.21,16.96,118.62,1.81,10.81,3.59,21.63,5.25,32.46,7.8,51,13.72,102.3,17.58,153.75,15.29,203.37-1.56,410.11-59.95,605.96-29.76,99.83-70.15,196.62-121.1,287.42v-4.41c64.92-116.52,112.36-242.81,142.51-372.66,48.56-209.18,52.45-427.3,23.14-639.56-2.87-20.79-6.49-41.8-10.19-62.96-13.44-76.66-27.9-155.16-11.16-231.21,18.7-84.95,82.07-149.49,158.66-186.75,90.73-44.13,196.24-52.83,295.66-56.31,53.22-1.86,106.64-.58,159.57,5.58,51.26,5.97,101.15,17.51,150.69,31.71,50.02,14.32,99.8,30.15,151.14,39.17,52.14,9.17,105.17,7.41,157.53,14.32,21.47,2.84,42.57,7.47,62.45,15.01Z"/><path d="m1280,2705.83v2.26c-2.98-1.13-5.98-2.18-9.01-3.15-45.12-14.5-93.29-14.57-140.03-19.22-109.88-10.93-216.63-40.42-324.52-62.53-109.46-22.43-223.52-37.6-334.5-16.87-88.27,16.49-173.57,58.24-233.52,126.25-30.56,34.67-53.1,75.69-64.66,120.51-13.42,52.07-12.68,106.52-8.14,159.72,1.46,17.06,3.23,34.08,5.13,51.09,4.21,37.81,9.06,75.57,12.49,113.46,4.98,54.92,8.35,110,9.72,165.13,5.24,210.94-19.2,424.99-95.38,622.87-26.44,68.67-58.94,135.25-97.58,197.94v-4.03c53.37-87.31,94.85-182.1,124.83-279.65,65.54-213.24,76.29-439.75,59.59-661.05-3.9-51.72-9.94-103.16-15.76-154.67-.43-3.76-.86-7.53-1.28-11.3-6-53.48-10.5-107.83-3.27-161.42,12.1-89.71,62.68-164.98,136.17-216.59,178.15-125.12,406.59-76.69,603.18-32.48,55.11,12.39,110.3,24.72,166.14,33.44,50.1,7.83,100.67,9.34,150.82,16.22,20.13,2.76,40.49,6.98,59.58,14.07Z"/><path d="m1280,2725.06v2.83c-33.06-18.89-71.13-26.6-109.42-31.07-51.95-6.08-103.54-11.74-155.01-21.41-52.67-9.89-104.92-21.83-157.31-33.11-105.61-22.74-213.37-43.2-321.92-36.95-54.09,3.11-108.74,13.39-157.34,38.2-37.18,18.97-69.65,46.11-96.23,78.18-54.99,66.35-85.13,151.27-97.12,235.82-5,35.3-6.93,70.79-6.89,106.34.09,75.14,8.94,150.54,16.02,225.01,9.58,100.94,13.26,201.42,3.13,302.47-9.36,93.51-28.54,186.01-56.99,275.57-34.03,107.16-81.37,210.04-140.92,305.29v-4.09c23.02-37.03,44.19-75.23,63.43-114.35,42.85-87.12,76.21-178.91,99.5-273.17,23.29-94.27,36.49-191.05,38.93-288.14,2.76-109.58-12.39-217.84-20.67-326.84-2.57-33.8-4.3-67.81-4.3-101.75.01-66.85,6.75-133.45,27.1-197.67,24.8-78.26,68.77-153.02,136.27-201.64,83.1-59.86,190.92-67.3,289.93-60.77,108.39,7.14,214.17,33.65,320.08,56.14,54.87,11.66,110.03,22.35,165.78,28.82,48.64,5.64,99.28,7.25,144.94,26.76,6.64,2.84,12.97,6.02,19.01,9.53Z"/><path d="m1280,2743.86v3c-17.71-13.83-37.65-24.91-60.2-32.16-26.44-8.49-54.2-11.51-81.73-14.04-26.46-2.43-52.85-5.09-79.15-8.94-54.01-7.9-107.45-19.16-160.81-30.55-106.11-22.67-213.6-46.84-322.77-44.43-52.8,1.16-110.37,6.4-159.03,28.43-48.58,21.99-78.17,68.84-107.59,111.15-60.17,86.54-110.98,181.95-120.71,288.57-.58,6.34-1.04,12.67-1.39,19-5.72,104.09,18.27,207.44,25.37,310.97,6.31,92.12,2.84,184.87-9.92,276.32-12.87,92.25-35.24,183.18-66.76,270.82-31.32,87.05-71.67,170.89-120.74,249.33-4.77,7.63-9.63,15.21-14.57,22.74v-4.13c18.72-28.69,36.25-58.16,52.56-88.28,45.56-84.13,81.67-173.32,108-265.28,26.26-91.73,42.8-186.23,49.22-281.42,3.19-47.4,3.88-94.98,1.99-142.45-2.05-51.7-7.92-102.98-14.42-154.28-7.27-57.35-14.61-114.98-13.7-172.9.11-7.17.38-14.31.79-21.44,2.68-46.34,11.74-91.74,27.82-135.52,17.62-47.98,42.15-93.15,69.69-136.1,13.84-21.57,28.47-42.63,43.52-63.37,14.49-19.97,28.99-40.42,47.07-57.34,36.71-34.36,87.52-45.5,135.89-51.97,53.92-7.22,108.6-6.42,162.65-1,108.96,10.93,215.05,39.56,322.43,59.8,28.23,5.32,56.57,10.08,85.05,13.79,27.25,3.56,54.66,5.37,81.96,8.5,43.57,5,84.44,16.67,119.48,43.18Z"/><path d="m1280,2770.1v3.08c-16.59-14.5-34.95-27.03-55.4-36.91-46-22.25-97.39-29.06-147.76-33.3-49.98-4.21-99.71-7.42-149.19-16.12-105.43-18.53-208.65-51.56-315.98-58.19-50.59-3.12-107.8-3.52-154.22,19.62-42.36,21.11-66.81,62.66-90.94,101.39-25.56,41.03-56.88,76.77-87.04,114.36-31.57,39.33-56.63,81.63-70,130.58-6.23,22.81-10.17,45.95-12.4,69.28-7,73.33,2.97,148.52,12.27,220.97,6.09,47.45,12.34,94.91,14.97,142.71,2.52,45.9,2.25,91.95-.73,137.82-5.93,91.44-22.57,182.15-49.13,269.83-26.43,87.27-62.67,171.59-107.99,250.71-20.34,35.53-42.53,69.97-66.46,103.16v-3.78c38.43-53.63,72.27-110.54,101.25-169.81,41.35-84.59,72.76-174.04,93.45-265.89,20.77-92.24,30.69-186.95,28.86-281.5-1.89-98.25-21.16-194.64-28.39-292.42-2.75-37.15-3.33-74.82.21-111.8,5.47-56.96,20.75-112.27,53.04-161.5,27.73-42.28,63.78-78.19,93.26-119.16,26.02-36.14,45.1-77.88,77-109.54,34.11-33.87,79.94-44.83,126.61-47.56,52.6-3.07,105.26,2.43,157.04,11.44,106.75,18.58,210.58,50.17,319,58.88,48.85,3.93,98.28,5.9,146.11,17.44,41.62,10.04,80.05,28.45,112.56,56.21Z"/><path d="m1280,2783.48v2.9c-11.97-10.61-24.85-20.25-38.73-28.7-43.97-26.79-94.51-37.5-145.15-42.79-51.58-5.39-103.39-6.95-154.8-14.22-110.2-15.59-217.62-46.29-327.77-62.15-51.63-7.43-106.9-10.49-150.07,23.92-19.21,15.3-34.61,34.9-50.32,53.6-18.78,22.34-37.56,44.68-56.34,67.02-35.08,41.75-72.69,82.55-102.36,128.45-28.11,43.5-45.08,92.28-51.67,143.57-.38,2.94-.72,5.87-1.04,8.81-10.71,98.61,10.6,197.85,24.94,295.01,13.72,92.89,17.84,185.83,7.45,279.32-10.11,91.05-32.2,180.66-64.43,266.38-32.44,86.25-75.08,168.63-126.33,245.2-13.84,20.68-28.3,40.92-43.38,60.71v-3.69c30.25-39.92,58.03-81.7,83.14-125.02,47.87-82.6,86.05-170.88,112.58-262.61,26.24-90.74,41.02-184.86,42.35-279.35.66-47.4-2.26-94.71-8.21-141.73-6.67-52.75-16.2-105.09-23.35-157.77-7.87-57.95-13.11-118.06-6.86-176.45,4.13-38.56,13.26-76.38,29.95-112.33,21.94-47.23,55.94-87.17,89.18-126.72,36.88-43.88,73.24-88.28,110.74-131.63,15.58-18,32.59-35.52,53.94-46.63,20.27-10.53,43.11-14.66,65.79-15.26,24.49-.65,48.9,2.59,73.06,6.24,27.77,4.18,55.4,9.27,82.94,14.77,55.64,11.11,110.94,23.92,166.7,34.46,55.57,10.51,111.23,17.35,167.63,21.26,50.48,3.5,101.86,6.95,150.15,23.26,33.42,11.29,63.84,29.18,90.27,52.17Z"/><path d="m1280,2810.2v3.07c-6.79-6.74-13.88-13.19-21.29-19.33-36.24-30.01-78.81-49.5-124.85-58.88-54.75-11.15-111.21-10.52-166.73-14.77-56.73-4.35-113.26-11.33-169.35-20.9-56.4-9.63-111.64-23.19-167.28-36.31-51.37-12.12-107.42-18.13-150.8,18.08-32.75,27.34-51.38,67.58-73.35,103.21-25.05,40.61-58.67,72.04-93.09,104.57-18.25,17.25-36.12,35.06-51.14,55.26-14.99,20.17-26.67,42.71-35.25,66.3-6.4,17.59-11.09,35.41-14.39,53.39-16.01,87.16.82,178.04,16.35,264.54,9.26,51.59,17.47,103.25,20.25,155.65,2.54,47.81,1.37,95.79-3.27,143.43-9.21,94.7-32.01,187.85-65.57,276.82-33.8,89.59-78.4,175.01-131.41,254.71-15.56,23.39-31.84,46.29-48.83,68.67v-3.7c32.65-43.23,62.72-88.4,89.9-135.26,49.63-85.56,89.65-176.87,117.09-271.96,27.15-94.07,41.84-191.85,41.13-289.84-.38-52.71-5.69-104.98-14.32-156.95-9.36-56.39-21.33-112.42-27-169.36-4.51-45.33-4.36-92.07,3.89-136.75,9.4-51.03,29.34-99.38,64.92-139.87,33.06-37.63,74.08-67.58,105.35-106.87,27.41-34.42,44.68-75.54,71.52-110.35,11.7-15.16,25.38-28.98,41.9-38.85,20.24-12.1,43.54-17.08,66.96-17.03,26.14.05,51.97,5.61,77.25,11.79,27.53,6.74,54.98,13.69,82.7,19.65,58.7,12.62,118.02,22.36,177.67,29.17,56.67,6.48,113.5,8.37,170.32,12.81,49.86,3.9,99.66,12.53,144.19,36.39,24.52,13.13,46.74,30.04,66.53,49.47Z"/><path d="m1280,2832.97v3.4c-13.81-16.3-28.82-31.51-45.25-45.18-35.31-29.38-76.75-49.77-122.45-56.25-53.1-7.53-107.16,0-160.48.47-104.43.94-209.01-12.94-309.57-41.12-46.74-13.09-102.04-35.96-147.38-6.67-32.8,21.2-47.94,60.63-63.86,94.47-7.96,16.91-16.32,33.72-27.2,48.97-11.74,16.44-25.84,31.03-40.71,44.65-31.03,28.42-65.86,52.97-93.43,85.01-25.74,29.91-40.19,65.43-47.54,103.17-2.12,10.84-3.65,21.87-4.69,33-4.81,51.4-1.64,103.38,4.29,154.54,12.27,105.94,37.34,210.6,38.04,317.68.66,100.4-18.32,200.35-50.95,295.1-46.86,136.04-121.38,259.56-208.82,373.17v-3.55c42.97-55.97,82.77-114.38,117.73-175.71,51.33-90.04,91.95-186.46,115.98-287.42,12.16-51.08,20.04-103.2,22.76-155.65,2.75-53-.51-105.88-7.11-158.49-13.41-106.94-38.63-213.15-36.26-321.53.52-23.62,2.2-47.68,6.56-71.14,4.43-23.91,11.65-47.17,23.24-68.67,20.16-37.37,52.96-65.16,84.98-92.06,32.73-27.5,65.43-55.43,86.58-93.25,18.4-32.89,29.9-70.11,53.38-100.01,10.57-13.47,23.73-24.76,39.6-31.46,21.31-8.99,44.84-8.51,67.23-4.49,25.26,4.52,49.63,13.11,74.33,19.88,25.67,7.03,51.6,13.13,77.71,18.29,53.7,10.62,108.17,17.26,162.84,19.85,53.69,2.54,106.84-1.25,160.46-2.29,47.88-.93,94.85,4.69,137.76,27.17,35.59,18.65,66.16,45.72,92.23,76.12Z"/><path d="m1280,2867.37v3.66c-15.39-21.71-32-42.51-51.23-60.89-36.35-34.74-80.86-54.6-130.63-60.71-49.16-6.03-98.83-1.08-148.05,1.35-106.17,5.24-210.85-10.19-310.9-46.13-45.35-16.3-99.1-36.35-144.05-8.1-30.56,19.21-45.69,54.22-58.21,86.55-12.69,32.77-23.51,67.35-44.32,96.13-25.48,35.24-65.91,52.89-98.6,80.04-33.44,27.77-50.29,64.58-57.9,104.62-9.75,51.28-4.33,107.86.81,157.52,11.33,109.35,32.87,217.54,39.67,327.38,3.37,54.33,2.99,109.02-4.14,163.05-6.11,46.31-17.07,91.9-31.94,136.16-30.05,89.47-75.53,172.99-127.17,251.72-35.44,54.03-73.85,105.98-113.34,157.11v-3.67c55.21-71.58,108.45-144.94,153.88-223.17,48.78-84,88.38-174.11,108.09-269.57,22.27-107.87,14.86-217.97.87-326.39-7.19-55.69-15.91-111.18-22.9-166.9-6.33-50.52-12.63-101.89-11.11-152.91.5-16.71,1.97-33.69,5.03-50.33,4.63-25.27,12.94-49.76,27.07-71.38,25.26-38.63,67.45-57.12,102.08-85.53,31.36-25.73,47.58-60.91,61.72-98.01,12.09-31.73,22.84-65.79,44.72-92.42,25.67-31.27,63.8-40.94,102.89-34.19,25.57,4.42,49.92,13.89,74.27,22.56,25.25,8.99,50.93,16.71,76.96,23.04,54.05,13.14,109.51,20.42,165.12,21.63,51.15,1.11,102.03-4.79,153.14-5.2,47.5-.38,96.24,4.76,138.77,27.46,39.74,21.22,70.34,55.5,96.5,91.5.97,1.34,1.94,2.68,2.9,4.02Z"/><path d="m1280,2909.27v2.5c-17.82-24.75-36.98-48.39-57.5-70.53-32.26-34.82-70.81-64.79-117.62-76.44-50.2-12.48-102.53-4.71-152.95,2.03-50,6.68-99.04,10.81-149.21,3.16-50.19-7.66-98.67-23.42-146.77-39.22-24.26-7.97-48.5-16.01-73.01-23.17-21.95-6.41-46.8-15.49-69.99-11.39-26.68,4.71-34.84,30.61-43.46,52.85-7.73,19.92-14.73,40.11-22.43,60.04-14.39,37.23-31.5,74.74-60.07,103.37-32.48,32.52-79.07,46.09-108.31,82.43-16.6,20.64-27.47,44.07-34.28,68.99-16.29,59.56-9.43,127.59-2.34,186.17,12.85,106.26,36.93,211.07,44.16,318.02,6.87,101.66-6.32,201.65-39.13,298.13-32.43,95.37-80.98,184.4-137.23,267.7-34.32,50.84-71.45,99.63-109.86,147.42v-3.58c56.05-69.87,109.41-142.04,154.95-219.25,52.24-88.58,94.03-184.24,115.53-285.1,10.92-51.26,16.12-103.48,15.5-155.9-.65-55.37-7.07-110.49-15.23-165.2-8.07-54.11-17.83-107.95-25.6-162.11-6.86-47.74-13.17-96.17-12.55-144.5.35-27.36,2.99-55.22,10.08-81.8,3.31-12.42,7.59-24.55,13.07-36.23,8.27-17.65,19.41-33.98,33.42-47.59,16.54-16.07,36.81-27.15,56.34-39.08,20.09-12.27,38.22-26.35,53-44.81,13.67-17.06,24.27-36.39,33.3-56.23,9.14-20.07,16.7-40.82,24.3-61.51,7.23-19.69,13.8-40.25,23.44-58.93,21.96-42.54,74.37-22.93,109.85-12.35,49.85,14.86,98.67,33.06,148.92,46.61,50.37,13.59,101.64,21.36,153.87,17.54,51.92-3.79,103.21-15.55,155.41-15.32,47.65.21,91.98,13.26,130.43,41.71,36.31,26.88,65.44,62.39,92.31,98.37,3.27,4.37,6.49,8.77,9.66,13.2Z"/><path d="m1280,2936.86v4.41c-22.38-32.43-47.16-63.4-76-90.31-32.42-30.25-70.46-55.17-113.43-67.35-52.85-14.98-108.23-8.76-162.14-4.84-51.61,3.74-101.72,2-152.5-8.42-50.6-10.38-99.79-26.37-149.44-40.39-25.18-7.11-51.46-15.87-77.63-18.25-25.57-2.33-47.33,7.78-63.5,27.36-29.46,35.69-31.16,83.74-50.46,124.28-18.89,39.67-56.17,58.41-91.73,80.61-20.29,12.68-38.6,27.38-53.13,46.54-13.63,17.97-23.8,38.43-30.98,59.77-1.52,4.51-2.9,9.05-4.14,13.62-12.43,45.56-11.77,93.63-7.05,140.38,5.71,56.7,15.38,113.04,23.32,169.45,15.05,107.02,27.61,215.34,20.06,323.53-6.61,94.74-30.76,186.76-69.12,273.52-54.91,124.17-134.5,234.93-222.13,338.48v-3.61c104.75-124.13,199.1-259.77,250.62-414.54,33.39-100.31,44.04-204.93,39.53-310.27-4.83-112.92-24.57-224.35-39.66-336.16-7.84-58.05-13.03-122.84,2-180.78,8.69-33.55,24.17-64.8,49.83-91.11,30.71-31.47,74.3-45.28,105.78-75.64,35.52-34.26,37.25-84.44,56.19-127.31,7.68-17.38,18.32-34.26,33.45-46.09,16.93-13.25,36.97-16.54,57.95-13.45,26.18,3.86,52.1,11.98,77.49,19.23s50.65,14.92,76.07,22.01c51.33,14.33,103.78,26.42,157.3,27.34,54.28.94,108.2-8.93,162.49-6.74,46.17,1.87,89.71,14.77,128.68,39.71,36.75,23.52,67.87,54.98,95.02,88.9,9.41,11.76,18.49,23.81,27.26,36.12Z"/><path d="m1280,2962.02v4.3c-24.32-35.97-52.26-69.3-85.45-98.01-35.54-30.75-76.45-55.95-121.25-70.64-50.55-16.58-101.88-15.03-154.25-11.05-28.26,2.15-56.65,4.39-85,2.69-24.25-1.46-48.07-6.25-71.41-12.86-48.89-13.83-95.54-34.91-145.19-46.17-25.75-5.83-54.41-10.79-80.46-3.98-20.68,5.41-36.68,19.18-47.79,37.1-20.29,32.75-25.91,72.14-43.45,106.22-37.73,73.29-124.03,101.38-170.25,167.51-6.06,8.66-11.07,17.6-15.16,26.76-36.76,82.12,0,182.14,16.95,265.53,22.06,108.51,33.99,219.93,32.67,330.72-.64,54.21-5.16,108.55-16.36,161.66-10.63,50.42-27.62,99.29-48.63,146.29-43.38,97.03-102.35,187.04-164.7,272.79-25.98,35.74-52.87,70.8-80.27,105.45v-3.62c45.18-57.19,88.91-115.51,129.44-176.1,59.46-88.9,114.4-183.23,146.41-285.83,33.91-108.69,35.98-223.78,28.26-336.5-3.91-57.09-10.81-113.97-20.68-170.33-9.31-53.22-23.51-105.37-33.17-158.49-8.42-46.23-12.69-95.57,3.34-140.71,1.32-3.71,2.77-7.32,4.35-10.86,14.8-33.24,40.54-59.14,68.76-81.95,31.93-25.82,67.06-48.54,94.11-79.83,27.98-32.37,37.08-72.18,52.44-110.98,13.73-34.7,35.61-64.24,75.07-69.26,23.12-2.93,47.18,1.14,69.71,6.24,25.28,5.73,49.86,14.06,74.28,22.62,50.64,17.75,101.02,35.79,155.3,36.85,56.52,1.11,112.89-10.83,169.38-4.53,89.79,10.01,168.85,64.21,226.6,131.44,13.06,15.21,25.14,31.1,36.4,47.53Z"/><path d="m1280,2991.99v5c-23.32-37.19-49.15-72.98-79.32-104.95-29.7-31.47-63.88-59.45-103.19-78-20.02-9.45-41.27-16.29-63.13-19.89-26.69-4.39-53.79-3.39-80.64-1.24-27.85,2.24-55.61,5.51-83.59,5.62-25.1.1-50.21-1.83-75.01-5.71-26.77-4.18-53.11-10.73-78.79-19.38-24.55-8.26-48.59-18.06-73.48-25.29-42.81-12.42-92.35-16.23-131.08,10.09-19.38,13.17-30.56,32.66-36.82,54.9-6.06,21.5-8.59,44.04-17.77,64.59-31.18,69.84-116.07,90.88-161.37,148.67-9.27,11.82-16.39,24.38-21.74,37.49-28.7,70.3-6.51,156.35,8.82,227.58,22.74,105.66,34.92,213.54,36.15,321.62,1.17,102.79-4.85,208.2-30.36,308.14-12.24,47.96-29.62,94.68-53.77,137.97-25.77,46.2-58.1,88.3-89.65,130.61-48.42,64.94-96.84,129.89-145.26,194.83v-3.74c30.64-41.08,61.27-82.17,91.9-123.25,33.36-44.75,67.53-89.01,99.66-134.66,30.91-43.92,57.45-90.08,75.95-140.63,17.68-48.33,28.9-98.81,36.21-149.69,15.62-108.73,16.79-220.25,8.05-329.63-4.51-56.49-12.01-112.73-22.46-168.42-8.86-47.18-21.18-93.78-27.37-141.44-5.57-42.95-6.38-88.4,9.86-129.29.05-.13.11-.27.16-.4,14.58-36.42,42.19-62.53,73.42-85.03,31.29-22.53,66.11-42.13,91.11-72.11,14.27-17.13,22.69-36.7,27.91-58.27,5.24-21.64,8.43-44.44,19.87-63.94,19.41-33.09,58.72-47.19,95.44-48.01,50.09-1.13,96.64,22.02,143.23,37.14,52.63,17.07,108.2,24.8,163.49,22.66,52.97-2.05,106.03-13.18,158.72-2.03,84.41,17.87,150.33,81.29,200.27,148.29,12.05,16.17,23.57,32.8,34.58,49.8Z"/><path d="m1280,3027.8v4.53c-3.78-6.15-7.58-12.29-11.41-18.41-23.69-37.86-48.98-75.03-79.1-108.13-29.27-32.16-63.48-60.49-103.48-78.21-45.22-20.05-94.8-23.37-143.64-22.42-49.66.97-99.55,5.98-149.12.66-24.49-2.63-48.33-8.14-71.38-16.84-23.68-8.94-46.4-20.22-70.13-29-42.91-15.87-96.99-23.28-133.63,10.54-27.67,25.54-36.75,64.67-48.71,98.9-12.27,35.1-28.46,65.69-60.59,86.28-17.92,11.48-37.59,19.86-55.94,30.57-20.02,11.69-37.1,26.57-49.26,46.48-6.02,9.85-10.78,20.31-14.51,31.14-10.3,29.91-12.8,62.73-12.53,93.96.47,52.95,7.48,105.74,15.94,157.93,16.88,104.1,40.05,207.63,38.5,313.68-.8,54.37-6.75,108.51-14.26,162.32-7.23,51.8-14.94,103.77-27.52,154.59-12.09,48.85-29.37,96.03-54.29,139.85-24.46,42.98-54.46,82.46-84.8,121.39-49.96,64.12-100.05,128.13-150.14,192.15v-3.67c32.98-42.18,65.94-84.37,98.92-126.56,32.93-42.13,66.8-83.72,97.59-127.47,30.38-43.18,56.24-88.89,73.66-138.88,17.33-49.78,27.48-101.7,35.74-153.65,8.74-55.02,16.55-110.34,20.47-165.93,3.92-55.49,2.74-110.82-3.64-166.08-12.34-106.96-39.66-211.85-46.79-319.47-2.86-43.17-3.48-87.97,9.46-129.75.46-1.48.93-2.95,1.43-4.41,5.67-16.81,13.77-32.84,24.97-46.66,13.35-16.46,30.71-28.1,49.2-38.09,20.04-10.83,41.29-20.04,59.25-34.3,15.14-12.03,26.2-27.63,34.52-44.96,16.13-33.64,22.41-71.41,40.89-104,19.61-34.57,53.26-52.51,92.93-51.62,49.1,1.1,91.91,27.14,136.82,43.66,96.65,35.53,199.3,3.66,298.51,19.35,88.91,14.06,154.83,74.83,206.18,145.17,17.75,24.32,34.14,49.65,49.89,75.36Z"/><path d="m1280,3049.15v3.07c-29.17-45.69-60.53-89.97-94.39-131.87-30.34-37.54-65.89-72.44-111.79-89.89-43.73-16.63-91.31-17.15-137.43-14.94-46.62,2.23-93.39,7.56-140.08,3.91-21.51-1.69-42.93-5.32-63.46-12.09-22.62-7.47-43.66-18.78-65.09-29.02-42.46-20.27-99.39-38.54-139.39-2.82-29.27,26.13-36.37,68.42-49.86,103.41-6.26,16.22-13.93,31.92-25.09,45.38-11.96,14.44-27.01,25.93-42.54,36.27-34.8,23.15-74.9,42.03-97.66,78.8-4.81,7.78-8.96,15.99-12.51,24.53-16.49,39.55-20.4,85.97-20.02,127.44.49,53.23,9.73,105.92,20.22,157.96,10.25,50.79,21.95,101.36,29.06,152.73,7.44,53.7,9.14,108.02,6.92,162.15-2.25,54.45-8.37,108.68-16.34,162.58-7.69,51.96-17.03,103.81-31.26,154.42-13.51,48.08-31.71,94.66-55.94,138.38-24.21,43.65-53.35,84.33-83.99,123.66-48.56,62.33-98.99,123.27-149.36,184.22v-4.02c33.63-41.13,67.27-82.24,100.88-123.39,32.81-40.16,65.48-80.56,94.6-123.51,29.34-43.26,54.47-89.07,72.83-138.08,18.77-50.13,31.23-102.39,40.74-154.99,19.84-109.76,32.61-222.93,23.78-334.47-8.47-107.01-43.29-209.81-52.39-316.69-4.26-50.09-2.33-101.38,11.91-149.86,1.84-6.25,3.92-12.46,6.31-18.53,5.88-14.96,13.62-29.14,24.13-41.44,12.22-14.31,27.42-25.71,43.05-36.03,34.71-22.89,74.61-41.93,96.7-78.92,19.66-32.91,24.79-72.03,42.9-105.63,8.21-15.25,19.51-28.89,34.65-37.64,18.58-10.74,40.69-12.87,61.66-10.22,48.6,6.14,88.49,37.52,134.38,52.02,91.66,28.96,188.36-2.45,281.8,8.84,43.82,5.29,83.66,21.53,117.61,49.89,37.09,30.99,65.87,71.09,93.86,110.11,17.47,24.35,34.34,49.12,50.6,74.28Z"/><path d="m1280,3068.42v3.54c-1.73-2.7-3.47-5.39-5.21-8.07-28.83-44.37-59.28-87.67-91.51-129.46-28.9-37.48-62.01-74.15-105.67-94.41-44.72-20.73-94.99-20.66-143.19-17.58-47.29,3.02-95.04,9.19-142.33,2.9-23.8-3.16-46.3-10.2-68.26-19.79-23.68-10.34-46.6-22.72-71.28-30.63-23.85-7.64-50.31-11.36-74.8-4.46-22.05,6.2-39,21.3-51.1,40.32-21.21,33.32-29.23,73.6-53.47,105.22-25.99,33.9-65.14,53.53-98.52,78.93-24.91,18.96-44.43,42.26-58.63,68.96-7.57,14.22-13.62,29.4-18.17,45.41-29.49,103.74,5.11,209.73,23.88,312.01,19.36,105.5,26.34,213.44,18.8,320.49-7.23,102.69-27.91,204.55-63.58,301.19-5.57,15.1-11.5,30.08-17.79,44.9-30.06,71-68.21,138.59-114.12,200.54-27.31,36.84-57.33,71.68-89.94,103.92-17.27,17.08-35.35,34.67-55.11,49.66v-3.12c2.6-2.02,5.18-4.09,7.72-6.19,73.67-60.84,135.52-137.64,184.83-219.15,24.37-40.29,45.79-82.33,64.19-125.66,19.33-45.49,35.32-92.4,47.89-140.19,28.04-106.59,39.31-217.27,36.1-327.35-1.61-55.36-6.87-110.62-15.51-165.33-8.73-55.27-22.52-109.54-31.99-164.67-12.78-74.31-15.59-158.27,19.71-226.46,7.08-13.7,15.71-26.77,26.11-38.99,29.21-34.35,70.54-53.86,104.8-82.27,16.92-14.03,31.01-30.36,41.39-49.79,9.45-17.69,16.4-36.55,24.61-54.82,16.08-35.76,39.4-67.09,80.95-72.48,48.84-6.34,92.52,20.05,135.54,38.67,24.79,10.72,50.25,17.69,77.19,20.16,24.02,2.21,48.21,1.5,72.25.02,47.5-2.93,95.53-9.44,143.03-3.14,45.77,6.06,85.43,26.42,118.84,58.01,35.23,33.33,63.34,74.16,91.2,113.6,16.52,23.37,32.58,47.05,48.2,71.03.99,1.51,1.97,3.02,2.95,4.53Z"/></svg>