<?xml version="1.0" encoding="UTF-8"?><svg id="slidefrontpage2" xmlns="http://www.w3.org/2000/svg" viewBox="0 0 1280 5029.47"><path d="m1280,2467.67v2.25c-22.68-1.67-45.36-3.33-68.05-5-71.99-5.3-146.03-9.07-214.52-33.94-30.74-11.16-63.14-26.75-86.44-50.24-10.85-10.94-18.38-24.16-20.64-39.52-2.62-17.82,1.07-35.98,4.86-53.35,16.5-75.44,48.2-148.27,53.29-225.96.49-7.38.67-14.73.53-22.02-.57-31.36-6.97-61.83-20.1-90.87-7.5-16.59-16.13-32.73-22.11-49.96-6.18-17.8-8.28-36.27-8.79-55.01-1.04-37.61,2.13-76.16-17.12-110.15-15.44-27.29-40.81-47.61-68.53-61.52-69.72-35-149-26.49-223.99-19.64-76.18,6.95-153.5,8.23-226.79-17.04-33.75-11.63-64.69-28.96-92.92-50.75-29.28-22.6-55.54-48.75-82.66-73.83-51.51-47.64-113-94.85-186.02-96.08v-2.26c14.35.23,28.59,2.17,42.53,5.78,69.08,17.89,121.58,68.95,172.11,116.28,27.47,25.73,55.62,51.18,87.9,70.83,32.51,19.8,68.69,32.78,105.89,40.42,37.68,7.74,76.35,10.07,114.75,8.9,41.91-1.27,83.52-6.94,125.35-9.52,67.82-4.2,139.6,1.26,195.57,43.94,22.03,16.79,40.01,39.11,48.59,65.7,12.18,37.77,4.04,77.99,9.73,116.64,5.58,37.86,28.78,69.33,39.72,105.46,6.17,20.42,8.92,41.5,9.17,62.68.18,14.84-.86,29.71-2.8,44.43-9.93,75.25-41.22,145.48-54.32,220.01-3.57,20.29-4.31,41.79,6.68,60.07,9.58,15.92,25.3,27.35,40.74,37.1,30.69,19.38,65.14,31.94,100.32,40.33,75.25,17.95,154.16,19.67,231.01,25.32,2.35.17,4.71.35,7.06.52Z"/><path d="m1280,2489.4v2.09c-37.42-.94-74.78-3.33-111.93-8.11-36.51-4.69-72.75-11.68-108.11-21.95-34.22-9.93-69.38-22.2-100.07-40.6-27.37-16.41-48.23-40.14-56.02-71.55-7.59-30.66-3.56-63.03,2.8-93.53,7.49-35.93,18.78-70.93,25.71-107.01,6.88-35.78,10.6-72.44,8.09-108.85-.27-3.99-.61-7.97-1.04-11.95-4.29-40.05-18.54-77.43-30.88-115.46-10.6-32.66-16.18-65.45-21.38-99.26-4.64-30.19-10.33-61.87-27.71-87.69-21.2-31.49-57.47-44.43-92.97-52.61-140.66-32.4-294.76,22.69-428.68-43.88-62.96-31.29-111.84-83.08-165.6-127.09-48.99-40.1-107.98-76.26-172.21-79.56v-2.32c6.99.32,13.97,1.05,20.92,2.15,146.69,23.4,221.7,178.2,359.36,221.52,70.55,22.19,145.81,18.09,218.73,16.31,70.07-1.72,146.05-3.55,211.91,24.32,28.78,12.18,50.01,32.99,62.08,61.84,11.68,27.9,15.11,58.44,19.58,88.09,5.43,36.09,15.57,70.09,27.18,104.62,11.14,33.15,20.26,66.22,22.91,100.97.3,3.86.52,7.75.65,11.66,1.32,39.39-4.24,78.75-12.79,117.11-7.76,34.79-18.91,68.8-24.77,104.01-5.54,33.27-6.69,69.49,9.36,100.21,17.63,33.73,52.42,51.58,86.15,65.62,88.52,36.82,183.36,48.59,278.73,50.9Z"/><path d="m1280,2510.02v2.27c-51.75-7.82-103.38-16.36-154.89-25.6-68.57-12.31-144.98-22.05-199.31-69.89-23.66-20.84-40.55-48-45.5-79.39-5.65-35.86,3.06-72.29,13.04-106.58,18.18-62.45,38.41-126.01,35.24-190.94-.7-14.3-2.54-28.67-5.78-43.11-8.48-37.76-24.34-73.31-34.64-110.55-8.46-30.6-12.29-62.21-19.85-93.01-7.71-31.4-19.97-62.38-44.27-84.7-23.57-21.66-54.71-32.05-85.89-36.53-31.54-4.53-63.63-3.56-95.34-1.83-35.8,1.96-71.61,3.92-107.47,3.93-68.08.02-137.88-6.67-200.7-34.69-64.55-28.8-112.48-80.91-165.28-126.11-47.12-40.34-106.02-77.6-169.36-78.1v-2.28c5.7.03,11.41.37,17.11,1.01,69.7,7.81,126.93,53,177.19,98.41,26.67,24.1,52.82,48.95,81.89,70.2,29.17,21.32,61.2,37.71,95.7,48.52,68.05,21.33,140.62,22.45,211.27,19.81,63.45-2.37,131.76-13.19,193.3,7.72,27.34,9.29,51.4,25.91,67.76,49.94,16.93,24.87,24.66,54.58,30.62,83.68,6.85,33.48,12.62,66.67,23.42,99.2,11.92,35.93,26.25,71.37,31,109.19.81,6.42,1.37,12.86,1.69,19.3,1.64,31.78-2.25,63.7-8.81,94.81-8.03,38.07-20.99,74.67-30.95,112.22-9.89,37.28-16.23,77.78-2.17,114.89,12.03,31.71,37.61,56.51,66.28,73.64,31.82,19.01,68.05,29.01,104.07,36.56,38.85,8.15,78.09,14.74,117.22,21.4,34.42,5.86,68.89,11.4,103.41,16.61Z"/><path d="m1280,2537.93v1.84c-100.14-31.52-210.77-36.96-308.17-75.58-31.39-12.45-61.65-29.63-80.7-58.39-17.6-26.55-24.28-58.88-24.41-90.36-.31-77.64,39.66-148.25,47.71-224.73,1.79-16.97,2.33-33.92,1.85-50.82-1.88-66.36-19.62-131.92-40.38-194.69-6.56-19.84-13.49-39.54-20.49-59.23-6.27-17.61-12.37-35.45-21.56-51.8-18.28-32.54-48.63-49.97-84.93-55.45-34.86-5.26-70.36-1.18-105.27,1.46-36.77,2.78-73.61,5.17-110.5,5.44-70.47.51-142.88-6.78-207.35-37.19-67.36-31.78-114.87-89.46-170.71-136.7-42.61-36.05-98.26-67.85-155.09-67.73v-2.27c.41,0,.82,0,1.24.01,71.38.76,131.87,45.58,181.92,92,27.78,25.76,54.43,52.87,84.47,76.05,30.13,23.26,63.62,41.03,99.91,52.6,70.88,22.59,146.75,23.12,220.35,19.23,36.53-1.93,72.98-6.05,109.54-7.36,31.73-1.13,65.58.47,94.4,15.2,30.19,15.43,46.37,44.06,58.04,74.69,14.5,38.05,27.69,76.86,39.41,115.86,15.58,51.85,27.54,105.75,29.11,159.88.8,27.18-1.02,54.41-6.31,81.47-14.63,74.84-53.22,147.42-40.63,225.52,5.75,35.66,22.76,67.98,52.28,89.49,32.27,23.53,72.89,35.67,111,45.94,76.51,20.63,155.79,29.15,231.87,51.52,4.47,1.31,8.94,2.68,13.4,4.1Z"/><path d="m1280,2543.44v2.41c-99.53-29.23-208.55-26.95-304.36-69.92-57.02-25.58-109.21-70.95-116.46-136.37-3.97-35.89,4.9-71.85,14.88-106.06,10.96-37.59,23.56-74.61,28.58-113.61,3.43-26.64,4.08-53.36,2.64-80-2.86-53.85-14.17-107.39-27.93-159.36-9.56-36.13-19.39-72.59-31.62-107.92-10.79-31.15-27.03-62.43-58.28-77.05-34.89-16.31-77.68-11.93-114.87-8.71-40.21,3.48-80.17,9.59-120.45,12.29-72.92,4.88-145.26-6.31-212.03-36.61-31.81-14.44-61.65-32.89-88.81-54.84-29.49-23.85-55.95-51.11-84.12-76.45-45.91-41.3-103.98-80.61-167.17-80.7v-2.21c5.34.02,10.7.32,16.04.89,71.98,7.74,128.19,56.86,178.66,104.48,27.82,26.25,55.61,52.67,87.49,74.04,30.74,20.6,64.3,36.96,99.39,48.69,34.52,11.53,70.52,18.67,106.85,20.96,40.5,2.56,80.97-1.45,121.18-6.03,40.21-4.59,80.8-10.24,121.36-9.2,31.95.81,63.93,8.14,86.13,32.69,20.42,22.57,29.89,52.7,38.44,81.27,11.73,39.17,23.25,78.44,32.62,118.25,9.67,41.1,17.05,83.25,19.3,125.52,1.9,35.69.15,71.46-6.96,106.76-14.47,71.84-57.73,148.07-32.58,222.35,22.1,65.28,89.78,101.55,151.51,121.01,83.1,26.2,176.13,28.88,260.57,53.43Z"/><path d="m1280,2561.67v2.12c-110.42-36-236.99-23.98-337.82-88.18-25.5-16.24-48.68-36.88-65.49-62.17-17.69-26.61-26.35-57.18-25.8-89.11.69-39.67,12.95-77.95,20.96-116.5,8.3-39.96,13.34-80.59,15.13-121.37.68-15.51.89-31.04.63-46.57-1.08-64.43-10.25-128.71-27.37-190.85-17.65-64.01-47.83-133.25-117.91-152.17-35.5-9.59-73.1-6.14-109.1-1.57-34.82,4.43-69.44,9.32-104.55,11-67.19,3.2-136.78-2.44-199.21-29.18-30.63-13.12-58.14-31.46-82.76-53.84-26.41-24-49.65-51.2-75.38-75.89-27.27-26.15-57.63-48.09-92.87-62.21-25.1-10.05-51.59-16.21-78.46-18.39v-2.3c6.74.52,13.47,1.31,20.17,2.36,35.47,5.55,69.92,18.15,100.4,37.14,29.88,18.62,54.88,43.57,79.1,68.84,25.09,26.17,49.9,53.08,79.73,74,28.28,19.84,60.24,33.89,93.5,43,67.89,18.58,139.92,17.67,209.35,9.84,66.68-7.51,144.52-27.48,203.79,15.35,52.94,38.25,71.92,109.33,85.42,169.72,11.38,50.92,17.54,102.99,18.4,155.15.45,27.08-.52,54.18-2.93,81.16-3.5,39.24-10.38,77.89-19.41,116.21-9.5,40.38-20.06,82.67-10.92,124.13,14.35,65.06,72.41,111.04,131.26,135.37,72.67,30.03,152.56,33.55,228.87,48.73,21.14,4.21,42.48,9.4,63.27,16.18Z"/><path d="m1280,2575.8v2.68c-39.87-14.51-81.23-24.85-123.51-31.54-39.58-6.27-79.61-10.86-118.32-21.57-31.03-8.59-60.61-21.65-87.36-39.64-49.2-33.1-89.36-83.05-99.92-142.5-6.85-38.53-1.26-77.75,5.77-115.82,7.44-40.21,15.16-80.1,18.09-120.96,1.59-22.21,1.99-44.42,1.22-66.56-1.84-53.52-10.45-106.64-25.34-158.3-5.4-18.75-11.55-37.27-18.33-55.56-6.53-17.62-12.96-33.51-25.2-47.99-10.43-12.33-22.31-23.37-34.23-34.24-13.49-12.31-28-22.35-45.06-29.09-35.37-13.99-71.8-11.19-108.82-8.41-39.01,2.94-78.07,5.05-117.17,6.19-69.63,2.04-141.13,1.99-203.76-33.02-29.96-16.74-52.9-40.97-73.43-68.11-21.46-28.36-41.27-58.18-69.02-80.94-43.37-35.57-99.68-54.28-155.61-53.34v-2.33c2.52-.05,5.03-.05,7.55,0,64.69.99,128.93,28.1,172.75,76.04,24.25,26.54,42.69,57.73,66.64,84.51,23.96,26.77,53.8,46.13,87.59,58.15,33.49,11.92,69.17,16.97,104.6,17.73,39.34.85,78.97-1.13,118.25-3.17,19.63-1.02,39.24-2.28,58.84-3.74,19.02-1.41,38.05-3.69,57.15-2.83,32.56,1.46,64.91,10.98,90.59,31.58,12.59,10.09,24.49,21.67,35.61,33.34,10.11,10.61,20.17,22.19,25.9,35.83,14.75,35.09,26.38,71.89,35.29,108.87,10.2,42.36,15.99,85.51,17.41,128.84,1.06,31.82-.24,63.73-3.86,95.51-8.78,77.07-40.6,158.53-13.94,235.22,21.09,60.65,72,107.42,129.01,134.45,71.21,33.75,152.21,32.88,227.62,51.45,21.35,5.26,42.38,11.7,63,19.28Z"/><path d="m1280,2582.09v2.05c-33.42-12.31-69.15-19.41-103.55-24.52-72.03-10.7-147.84-15.25-213.72-49.24-56.42-29.1-99.79-81.04-118.34-141.79-10.11-33.08-11.52-67.17-7.06-101.35,5.34-40.95,17.11-80.76,21.72-121.83,3.93-35.04,3.57-70.38.95-105.52-.51-6.86-1.1-13.7-1.77-20.54-3.94-40.23-9.18-80.76-16.66-120.5-11.87-63.15-38.05-125.54-95.31-160.06-64.23-38.72-141.52-28.8-212.47-23.36-72.74,5.58-147.66,6.99-215.83-22.89-64.38-28.21-108.43-83.7-157.93-131.25-42.49-40.81-99.53-79.79-160.03-79.43v-2.28c3.71-.03,7.42.11,11.14.39,71.13,5.4,127.58,55.74,175.09,104.26,24.21,24.72,48.05,50.06,75.32,71.49,30.33,23.84,64.84,40.67,102.26,50.13,75.05,18.97,152.87,8.08,228.87,2.53,65.91-4.81,137.92,5.47,186.99,53.5,46.33,45.34,60.53,109.6,69.69,171.38,5.25,35.44,10.07,71.01,12.6,106.63,3.32,46.55,2.76,93.17-5.81,139.64-7.66,41.53-19.28,82.82-19.2,125.36.07,34.12,8.53,67.98,23.71,98.49,14.67,29.5,35.42,55.88,60.72,77,28.68,23.94,62.93,39.64,98.64,49.95,69.76,20.13,143.18,20.85,213.58,37.84,15.54,3.75,31.16,8.3,46.4,13.92Z"/><path d="m1280,2601.86v2.53c-46.33-16.09-94.65-25.96-143.88-30.21-37.57-3.24-75.61-4.84-112.35-14.01-31.77-7.93-61.37-22.27-87.34-42.21-53.58-41.13-87.88-101.93-102.23-167.38-7.96-36.3-10.03-73.63-7.81-110.68,2.47-41.19,9.56-81.9,13.32-122.97,2.33-25.46,3.31-51.22,2.95-77.04-.79-56.04-7.88-112.31-21.01-166.26-4.29-17.65-11.49-34.3-20.63-49.97-8.95-15.35-19.04-31.11-30.74-44.52-21.81-25-52.97-39.96-84.81-47.59-17.17-4.11-34.77-5.7-52.31-7.43-15.67-1.56-31.37-2.78-47.11-3.18-35.93-.92-71.71,2.97-107.59,4.02-67.64,1.99-138.93-2.75-199.44-35.95-53.46-29.35-90.99-78.83-135.01-119.65-22.65-20.99-47.68-40.06-76.6-51.5-21.65-8.56-44.41-12.07-67.41-13.01v-2.31c3.37.13,6.74.32,10.11.57,32.47,2.44,63.04,11.91,90.59,29.31,24.93,15.74,46.49,36.15,67.14,57.03,21.53,21.77,42.28,44.4,65.48,64.43,26.01,22.44,55.06,40,87.71,50.97,68.92,23.17,142.88,19.2,214.33,14.91,33.11-1.99,65.94-1.08,98.93,2.22,31.85,3.18,63,7.5,92.13,21.66,13.86,6.74,26.85,15.37,37.98,26.06,11.77,11.31,20.91,25.23,29.83,38.8,9.07,13.79,17.21,28.23,23.11,43.67,6.89,18.01,10.31,37.24,13.8,56.13,8.07,43.67,12.4,87.58,13.08,131.59.56,36.83-1.44,73.72-5.92,110.59-4.91,40.35-10.92,80.75-10.51,121.51.37,37.61,5.81,75.3,17.62,111.08,21.62,65.54,66.13,123.66,127.93,155.8,69.33,36.06,150.25,27.25,225.03,41.2,27.74,5.17,55.04,12.47,81.63,21.79Z"/><path d="m442.03,2379.16c-21.76,50.83-63.16,90.74-108.54,120.97-52.79,35.18-112.7,57.33-171.67,79.73-55.92,21.23-111.03,43.71-161.82,75.26v-2.71c3.82-2.4,7.67-4.75,11.55-7.05,56.07-33.32,117.45-55.19,178.09-78.5,57.24-21.99,114.33-46.03,163.44-83.42,44.1-33.58,82.13-78.16,96.35-132.75,15.59-59.86.67-121.46-15.69-179.45-12.2-43.29-25.74-86.75-31.08-131.35-1.87-15.61-2.74-31.35-2.2-47.28,2.17-64.14,22.42-134.05-8.96-194.49-27.15-52.29-87.26-70.86-131.89-104.13-47.76-35.6-80.7-87.45-128.9-122.33-22.68-16.42-48.36-29.14-75.06-37.52-17.84-5.6-36.81-9.49-55.65-9.32v-2.21c3.53-.03,7.07.09,10.61.34,53.3,3.7,105.86,30.3,144.66,66.23,22.55,20.89,42.61,44.24,64.2,66.1,21.97,22.25,45.72,41.24,72.57,57.26,23.91,14.26,48.93,27.29,70.08,45.61,21.22,18.37,35.7,41.85,42.73,69.03,17.02,65.79-6.72,133.11-1.42,199.62.35,4.36.79,8.72,1.33,13.09,13.71,112.41,85.43,226.79,37.27,339.27Z"/><path d="m443.54,2321.88c-7.78,54.34-34.6,103.6-74.06,141.46-37.87,36.33-84.77,61.94-132.88,82.06-76.78,32.11-159.83,50.11-236.6,82.2v-2.48c85.84-35.79,178.7-53.92,263-93.91,46.77-22.19,91.54-51.01,125.07-90.99,36.88-43.98,57.16-100.64,55.51-158.11-1.71-60.11-30.05-114.27-44.47-171.64-5.84-23.24-8.45-46.79-8.73-70.58-.08-6.6.02-13.22.28-19.85,1.27-31.87,5.5-63.51,7.88-95.3,2.25-30.15,3.8-61.84-3.12-91.52-6.46-27.7-22.91-48.69-45.66-65.11-20.39-14.71-43.14-25.67-64.24-39.27-22.71-14.64-42.43-33.09-60.72-52.88-18.5-20.03-35.67-41.24-54.24-61.2-17.07-18.34-35.14-33.83-57.29-45.74-34.1-18.35-73.86-31.15-113.27-34.11v-2.05c1.76.15,3.51.32,5.26.51,47.19,5.1,96.43,21.46,134.83,49.85,20.9,15.45,37.91,36,54.86,55.51,18.65,21.46,37.06,43.27,58.2,62.37,20.52,18.53,43.74,32.18,67.52,45.98,20.67,12,41.82,24.87,57.04,43.69,17.37,21.48,22.81,48.5,24.26,75.47,1.76,32.58-1.56,65.14-4.7,97.53-2.46,25.28-4.88,50.69-4.71,76.12.04,7.03.28,14.07.77,21.11,2.16,30.85,10.42,60.43,20.17,89.64,9.63,28.83,20.42,57.39,26.81,87.18,5.93,27.67,7.25,56.01,3.23,84.06Z"/><path d="m436.2,2322.03c-4.83,26.06-15.77,50.67-30.1,72.87-30.41,47.09-74.71,83.68-121.23,114.05-52.47,34.27-109.55,61.46-169.15,80.81-37.97,12.33-76.92,20.99-115.72,30.24v-2.34c47.93-11.51,95.97-22.36,142.33-39.51,58.57-21.67,114.54-51.02,165.28-87.45,44.82-32.18,87.08-72.53,111.14-122.94,11.82-24.78,18.53-51.9,18-79.43-.57-29.92-9.27-58.87-19.34-86.8-9.95-27.62-21.48-54.74-29.17-83.12-7.02-25.92-9.23-52.02-8.06-78.52.24-5.43.62-10.88,1.13-16.35,5.82-62.06,24.74-127.56,1.93-188.44-20.41-54.49-73.54-82.75-118.67-114.18-24.13-16.8-46.48-35.87-66.17-57.75-19.61-21.79-34.54-47.3-54.33-68.88-9.58-10.44-20.51-19.6-33.28-25.89-14.63-7.19-30.79-10.65-46.82-12.99-21.16-3.08-42.55-4.87-63.97-5.59v-2.2c3.67.13,7.34.29,11.01.49,31.39,1.68,65.77,3.4,95.11,15.72,25.58,10.74,43.29,31.75,59.33,53.58,18.9,25.74,38.26,50.31,62.15,71.7,21.97,19.67,46.59,35.57,70.95,52.03,21.95,14.81,43.9,30.45,61.31,50.62,18.83,21.82,29.9,48.2,34.09,76.62,8.49,57.62-8.69,114.21-11.61,171.51-.4,7.59-.53,15.2-.33,22.82,1.68,62.84,34.52,117.42,49.86,177.06,6.93,26.95,9.43,54.75,4.33,82.26Z"/><path d="m427.37,2299.76c-3.41,30.36-15.9,59.02-31.56,84.98-58.67,97.23-164.12,155.31-267.25,194.62-42.18,16.08-85.36,29.62-128.56,43.08v-2.34c52.25-16.25,104.45-32.66,154.99-53.67,102.57-42.64,208.55-108.33,255.18-213.93,13.34-30.22,19.08-62.54,13.5-95.31-5.14-30.17-17.42-58.5-28.51-86.83-11.22-28.64-20.69-57.47-23.38-88.28-1.23-14.05-1.37-28.12-.91-42.19.68-20.6,2.65-41.2,4.39-61.71,4.7-55.77,7.02-115.89-21.59-166.31-14.24-25.07-35.33-42.52-60.67-55.69-24.2-12.57-50.61-22.65-70.28-42.25-20.67-20.6-31.72-48.21-48.15-71.9-14.91-21.48-34.71-39.32-57.07-52.8-35.12-21.19-76.61-31.79-117.5-29.67v-2.31c51.25-2.63,103.58,14.62,143.09,47.38,20.92,17.34,35.73,38.61,49.24,61.94,7.78,13.42,15.52,27.03,25.63,38.88,9.91,11.63,22.06,20.58,35.31,28.07,24.8,14.02,52.38,23.54,74.16,42.44,19.05,16.52,32.27,38.57,40.5,62.24,20.29,58.35,10.39,119.88,6.34,179.92-.49,7.25-.88,14.51-1.1,21.77-.85,27.44.61,54.88,7.66,81.6,8.02,30.46,21.47,59.08,32.11,88.64,10.33,28.73,17.88,58.9,14.43,89.63Z"/><path d="m408.09,2330.47c-14.65,49.66-54.24,88.79-94.12,119.62-45.28,35.01-95.1,64.69-146.64,89.49-52.47,25.25-107.42,45.23-163.83,59.67-1.16.3-2.33.59-3.5.88v-2.42c11.76-2.95,23.48-6.06,35.1-9.5,55.82-16.53,109.98-38.63,161.42-65.89,49.25-26.1,98.08-56.43,139.78-93.64,37.73-33.66,73.22-78.14,74.86-130.93,1.76-56.42-36.97-102.98-48.49-156.46-7.24-33.61-4.85-67.56-.5-101.4,2.95-22.92,6.81-45.8,9.19-68.48,3.03-28.91,3.88-58.46-2.46-87.01-5.51-24.86-16.1-48.47-30.65-69.35-15.64-22.46-35.69-40.93-58.65-55.71-22.6-14.55-46.57-27.06-65-47.09-18.18-19.76-30.95-43.61-47-64.99-15.38-20.48-34.53-37.5-56.73-50.26-33.46-19.23-72.41-28.69-110.87-26.8v-2.32c48.22-2.32,97.41,13.08,135.37,42.95,20.71,16.3,35.93,36.93,50.42,58.71,15.97,24.01,32.18,46.59,56.14,63.31,22.69,15.84,47.59,28.07,68.22,46.81,19.08,17.35,34.84,38.39,46.07,61.61,11.15,23.05,17.48,47.93,19.17,73.45,1.93,29.23-1.61,58.46-5.64,87.36-1.75,12.59-3.65,25.18-5.26,37.81-2.25,17.49-3.98,35.03-4.13,52.68-.26,29.37,5.14,57.27,15.99,84.53,10.47,26.33,24,51.56,31.6,78.97,6.8,24.53,7.36,49.89.14,74.4Z"/><path d="m470.71,2360.24c-6.1,29.07-18.77,56.27-36.18,80.27-76.91,106.08-213.3,135.3-329.44,177.28-35.84,12.96-70.93,27.88-105.09,44.69v-2.5c43.99-21.41,89.41-39.54,135.85-55.31,63.98-21.72,129.69-40.96,189.02-73.99,49.96-27.82,96.65-66.22,124.04-117.27,65.09-121.28-15.76-249.96-34.91-373.52-1.31-8.45-2.33-16.87-3-25.27-4.59-57.86,4.75-119.36-16.29-174.82-11.15-29.38-31.59-51.93-56.81-70.12-23.33-16.82-48.87-30.39-71.56-48.13-25.56-20-45.96-45.37-67.71-69.22-21.2-23.25-44.55-43.99-71.04-61.05-38.77-24.97-82.34-42.08-127.59-50.42v-2.34c58.02,10.62,113.4,35.75,159.24,72.92,25.3,20.52,46.04,45.33,67.86,69.35,11.27,12.41,22.97,24.51,35.91,35.21,12.08,9.98,25.21,18.59,38.41,27,24.46,15.59,50.03,30.77,69.46,52.71,18.59,21.01,29.35,47.13,34.6,74.46,5.57,29.03,5.69,58.78,5.96,88.23.26,27.37,1.01,54.48,4.83,81.49.77,5.47,1.67,10.93,2.72,16.39,13.29,69.3,42.04,134.74,52.59,204.66,4.96,32.86,6,66.63-.87,99.3Z"/><path d="m398.33,2329.77c-17.5,48.11-55.86,86.11-95.91,116.38-45.25,34.21-95.32,62.03-146.9,85.42-50.51,22.89-102.63,41.57-155.52,57.97v-2.35c63.75-19.76,126.41-42.84,186.17-72.69,49.11-24.52,97.5-53.37,138.93-89.63,38.12-33.36,72.72-76.62,79-128.5,6.9-56.93-22.58-109.41-36.43-162.96-8.01-30.97-8.91-62.19-7.83-93.52,1.01-29.15,3.73-58.4,4.01-87.65.27-27.51-1.76-55.37-9.54-81.88-7.55-25.68-20.89-48.58-39.55-67.75-33.18-34.08-76.57-55.65-111.78-87.34-8.62-7.76-16.72-16.13-23.86-25.29-8.78-11.25-15.81-23.68-23.33-35.77-13.45-21.64-29.77-39.84-51.72-53.09-30.94-18.68-68.31-26.6-104.07-21.89v-2.32c44.95-5.81,92.72,8.07,126.84,38.08,20.77,18.27,32.44,42.65,47.84,65.11,14.3,20.86,33.3,37.64,53.42,52.73,37.67,28.27,81.17,52.2,107.91,92.27,31.5,47.19,31.93,106.68,28.79,161.23-1.03,17.83-2.39,35.69-3.05,53.56-.54,14.49-.63,29,.28,43.5,1.9,30.43,9.89,59.17,19.69,87.9,9.36,27.42,19.7,54.85,23.83,83.67,3.64,25.31,1.53,50.73-7.22,74.81Z"/><path d="m398.66,2289.62c-2.77,50.5-35.95,93.19-73.95,123.76-20.82,16.75-43.58,30.89-66.55,44.48-23.23,13.74-46.76,27-70.75,39.4-58.91,30.46-122.06,56.38-187.41,68.71v-2.08c77.15-14.55,150.81-48.27,219.01-86.14,45.41-25.22,93.18-51.32,129.55-89.06,17.54-18.2,32.14-39.68,40.57-63.63,8.48-24.08,9.45-49.19,3.08-73.89-6.29-24.37-17.76-46.93-26.99-70.22-9.39-23.7-14.93-48.03-16.34-73.5-1.25-22.59.11-45.08,2.03-67.56,2.61-30.62,6.23-61.2,5.65-91.95-.48-25.55-4.2-50.93-13.05-74.97-8.45-22.94-21.01-44.37-36.8-63.03-16.23-19.17-35.91-34.12-56.41-48.41-20.06-13.99-40.38-27.95-56.52-46.57-16.75-19.33-29.19-41.86-44.98-61.92-14.27-18.12-31.73-33.19-51.83-44.52-29.4-16.58-63.29-25.04-96.97-24.25v-2.31c42.95-.98,86.41,13,120.35,39.4,19.16,14.92,33.54,33.87,47.1,53.81,14.96,22,29.94,43.11,50.7,60.07,20.18,16.49,42.8,29.71,62.92,46.29,18.46,15.2,34.32,33.47,46.76,53.89,12.42,20.4,21.43,42.92,26.21,66.33,5.32,26.13,5.53,52.95,4,79.48-1.12,19.44-3.23,39.04-4.92,58.66-3.04,35.15-4.74,70.4,2.99,105,10.96,49.06,45.39,92.76,42.55,144.73Z"/><path d="m483.29,2354.02c-6.55,27.89-18.78,54.2-34.88,77.84-74.51,109.36-207.87,150.12-327.17,189.35-41.08,13.51-81.6,28.14-121.24,44.95v-2.58c49.82-20.97,101.01-38.05,152.46-54.97,116.88-38.45,249.73-87.71,309.82-204.39,61.14-118.7-8.19-244-27.58-364.33-.64-3.97-1.23-7.92-1.75-11.87-4.2-31.62-3.13-63.13-2.24-94.91.87-31.05,1.24-63-7.91-93.01-9.67-31.72-30.81-55.08-56.46-75.16-25.87-20.25-52.11-39.22-76.08-61.81-47.29-44.58-88.85-97.51-144.01-132.88-43.01-27.59-94.4-49.39-146.25-53.94v-2.14c4.89.46,9.77,1.08,14.63,1.85,58.27,9.19,116.3,36.08,161.92,73.34,52.88,43.17,95.02,97.97,148.08,141.05,24.95,20.25,53.35,37.11,74.47,61.7,19.39,22.59,28.98,50.47,32.36,79.73,3.67,31.73,1.07,63.75.56,95.57-.4,24.44,1.37,48.52,5.05,72.48,1.35,8.78,2.96,17.54,4.81,26.3,13.65,64.57,37.3,127.03,45.23,192.78,3.82,31.65,3.49,63.91-3.82,95.05Z"/></svg>