<?xml version="1.0" encoding="UTF-8"?><svg xmlns="http://www.w3.org/2000/svg" xmlns:xlink="http://www.w3.org/1999/xlink" viewBox="0 0 1328.44 853.19"><defs><style>.cls-1{fill:none;}</style><clipPath id="clippath"><path class="cls-1" d="m748.89,798.25c-5.16,0-10.04-.72-14.18-2.27-16.1-6.05-126.53-8.96-127.64-8.99l-5.59-.15,5.23-1.98c.55-.21,54.96-20.96,73.19-35.59,1.64-1.32,3.3-2.61,4.93-3.89,10.16-7.93,19.76-15.41,20.3-24.72.36-6.16-3.22-12.85-10.94-20.47-13.49-13.3-30.47-34.67-45.45-53.53-12.27-15.45-23.87-30.04-31.45-37.55-5.44-5.39-11.08-9.38-16.54-13.24-11.5-8.15-21.44-15.18-25.16-31.91-3.98-17.9,3.1-26.65,10.6-35.91,2.83-3.51,5.77-7.13,8.1-11.33,1.99-3.59,3.46-7.15,4.87-10.6,2.74-6.67,5.1-12.42,10.11-14.49,3.44-1.42,7.69-.98,13.36,1.42,17.97,7.57,46.16,8.89,62.23-2.02,16.63-11.28,37.26-27.11,49.26-49.48,3.09-5.75,5.51-11.58,7.86-17.2,6.87-16.46,12.8-30.69,30.97-30.69h1.61c25.23,0,92.26.03,123.26-12.37,32-12.8,35.24-16.39,43.11-35.54l2.04.83c-8.48,20.64-12.62,24.07-44.33,36.75-31.39,12.55-98.63,12.6-124.08,12.52h-1.61c-16.7,0-22.1,12.94-28.93,29.33-2.37,5.68-4.82,11.55-7.95,17.4-12.23,22.8-33.12,38.84-49.96,50.26-17.32,11.76-46.08,9.92-64.33,2.23-5.01-2.12-8.83-2.57-11.66-1.41-4.16,1.72-6.26,6.82-8.91,13.29-1.37,3.35-2.93,7.14-4.98,10.84-2.43,4.38-5.42,8.07-8.32,11.65-7.15,8.83-13.91,17.18-10.16,34.04,3.54,15.9,13.15,22.71,24.28,30.59,5.53,3.92,11.24,7.96,16.81,13.48,7.68,7.6,19.31,22.24,31.62,37.75,14.94,18.8,31.87,40.12,45.27,53.33,8.2,8.09,12,15.33,11.6,22.16-.6,10.31-10.58,18.09-21.15,26.33-1.63,1.27-3.28,2.56-4.91,3.87-15.38,12.33-54.58,28.37-68.7,33.95,22.84.67,108.37,3.52,122.91,8.98,15.81,5.93,44.15-1.36,53.2-13.71,9.77-13.32,16.35-45.51,9.95-74.3-1.78-8-2.65-15.14-3.43-21.44-2.25-18.28-3.73-30.35-22.89-43.8-6.76-4.75-13.75-9.41-19.93-13.52-19.68-13.12-24.57-16.72-23.54-19.19.65-1.54,3.05-1.39,6.46-.69,4.91,1.01,18.68,2.92,36.12,5.33,44.52,6.17,111.79,15.48,127.26,22.8,22.13,10.46,39,23.44,53.1,40.85,9.59,11.85,38.79,47.92,83.93,60.75,39.45,11.21,72.61,8.56,84.98.15,14.81-10.06,21.28-24.88,19.22-44.03-.78-7.29-.53-12.71-.31-17.49.48-10.62.8-17.63-11.31-34.36-2.73-3.77-6.01-8.09-9.64-12.87-20.09-26.46-50.45-66.45-54.77-101.36-4.63-37.32-9.65-89.4.09-110.71,5.3-11.6,13.98-20.33,22.37-28.77,6.45-6.49,12.53-12.62,16.54-19.53,9.25-15.99,5.46-32.58-2.65-62.96-1.95-7.29-4.29-15.24-6.56-22.93-7.81-26.43-15.88-53.77-12.02-67.48,8.21-29.18,21.41-47.79,39.23-55.32l.86,2.03c-16.93,7.15-30.06,25.78-37.96,53.89-3.68,13.09,4.3,40.12,12.01,66.25,2.27,7.7,4.63,15.67,6.58,22.99,8.26,30.96,12.11,47.89,2.42,64.63-4.15,7.16-10.33,13.39-16.89,19.98-8.26,8.31-16.8,16.9-21.93,28.13-9.51,20.8-4.5,72.47.09,109.53,4.25,34.31,34.39,74.01,54.34,100.29,3.64,4.79,6.93,9.13,9.67,12.91,12.57,17.35,12.23,24.67,11.73,35.75-.22,4.71-.46,10.04.3,17.16,2.15,20.02-4.64,35.53-20.18,46.09-12.41,8.43-44.87,12.07-86.83.15-45.81-13.02-75.34-49.49-85.04-61.48-13.88-17.15-30.51-29.94-52.33-40.25-15.16-7.16-82.24-16.46-126.62-22.6-17.47-2.42-31.28-4.33-36.26-5.35-2.15-.44-3.23-.52-3.74-.46,1.64,2.45,12.23,9.51,22.48,16.35,6.18,4.12,13.18,8.79,19.97,13.55,19.96,14.01,21.57,27.15,23.81,45.33.77,6.25,1.64,13.34,3.39,21.23,6.53,29.39-.27,62.37-10.33,76.08-7.32,9.98-25.73,16.75-41.57,16.75Z"/></clipPath></defs></svg>