<?xml version="1.0" encoding="UTF-8"?><svg id="blockchaindraw" xmlns="http://www.w3.org/2000/svg" viewBox="0 0 1159.81 1019.57"><path d="m1159.81,0v2.38c-.97,1.11-1.94,2.22-2.91,3.33-75.25,85.57-169.83,151.25-261.2,218.18-50.43,36.95-100.67,74.17-151.37,110.75-48.57,35.05-98.44,67.09-150.93,95.94-47.85,26.29-96.54,53.25-133.82,94-38.35,41.92-64.05,93.48-95.92,140.12-60.73,88.9-135.97,166.85-216.72,237.68-46.65,40.91-95.17,79.56-144.48,117.19H0c61.15-46.61,121.11-94.79,177.73-146.84,80.49-74.01,152.82-155.98,210.7-248.96,29.03-46.64,57.48-93.69,100.51-128.95,41.46-33.97,90.09-57.31,136.39-83.72,52.47-29.93,101.46-65.33,150.14-100.98,51.14-37.45,102.28-74.92,153.41-112.38,81.72-59.87,164.42-120.85,230.93-197.74Z"/></svg>