<?xml version="1.0" encoding="UTF-8"?><svg id="blockchaindraw" xmlns="http://www.w3.org/2000/svg" viewBox="0 0 954.52 837.82"><path d="m954.52,831.75v1.41c-12.04,1.12-24.21,1.18-36.23.68-18.62-.77-37.17-2.69-55.79-3.57-17.2-.82-34.36-.32-51.53.94-61.45,4.49-129.84,18.38-185.71-15.8-25.52-15.6-45.25-38.54-65.55-60.09-21.83-23.18-45.39-43.58-74.09-57.85-28.82-14.32-60.7-22.57-92.88-23.8-34.71-1.33-69.92,10.08-104.28,2.07-16.51-3.85-31.9-11.3-46.94-18.94-14.85-7.54-29.49-15.51-43.89-23.89-29.06-16.91-57.15-35.49-84.09-55.6-26.5-19.79-51.9-41.07-76.01-63.71-11.54-10.83-22.85-21.82-29.39-36.49C2.37,464.13.22,449.89.02,435.77c-.21-14.91,1.66-29.77,4.01-44.46,2.38-14.87,4.52-30.27,10.3-44.28,11.65-28.23,40.84-39.27,67.21-50.05,54.25-22.18,111.09-37.22,165.54-58.87,54.77-21.77,106.94-51.4,143.89-98.39,32.38-41.19,51.83-90.27,68.38-139.72h1.56c-1.07,3.15-2.14,6.3-3.22,9.45-19.61,56.88-44.47,113.9-88.29,156.51-40.05,38.93-91.45,62.75-143.28,81.74-54.66,20.01-111.15,35.28-164.26,59.36-14.12,6.4-28.64,13.74-38.2,26.38-9.82,12.99-13.18,29.42-15.96,45.12-5.27,29.86-10.94,62.62-.55,92.03,5.78,16.33,17.09,28.39,29.45,40.08,12.11,11.44,24.54,22.54,37.29,33.27,25.66,21.62,52.56,41.77,80.53,60.32,27.51,18.26,56.04,34.97,85.43,50.01,15.43,7.9,31.17,15.72,48.1,19.81,18.04,4.36,36.46,3.09,54.72,1.11,16.98-1.85,33.82-3.71,50.92-2.99,14.8.63,29.54,2.72,43.93,6.2,29.55,7.13,57.73,20.09,82.22,38.12,23.97,17.63,43.01,40.5,63.62,61.73,21.83,22.49,45.95,41.82,76.51,50.74,62.62,18.26,128.82-2.04,192.48-.59,33.99.78,68.17,6.64,102.17,3.35Z"/></svg>