<?xml version="1.0" encoding="UTF-8"?><svg id="blockchaindraw" xmlns="http://www.w3.org/2000/svg" viewBox="0 0 1222.22 1024"><path d="m1222.22,0c-62.72,86.7-154.47,145.9-241.11,205.99-22.34,15.5-44.58,31.16-66.3,47.51-25.33,19.07-49.64,39.4-74.19,59.44-24.13,19.68-48.58,39.03-74.57,56.22-25.84,17.09-52.99,32.07-79.7,47.73-27.19,15.95-54.06,32.7-78.3,52.95-22.51,18.8-42.65,40.27-61.28,62.87-37.37,45.35-68.9,95.1-104.84,141.53-68.43,88.39-149.61,166.8-239.94,232.62-62.24,45.35-128.81,84.64-198.57,117.14H0c84.43-39.06,164.21-88.17,237.26-145.75,88.54-69.78,166.17-151.87,232.03-243.29,33.77-46.88,66-95.38,106.38-136.98,20.21-20.82,42.44-39.23,66.51-55.42,25.35-17.05,52.08-31.91,78.46-47.29,27.14-15.83,53.52-32.59,78.61-51.52,26.11-19.7,51.06-40.86,76.45-61.46,42.49-34.47,87.32-65.62,132.31-96.71,77.24-53.39,156.51-109.23,212.24-185.58h1.97Z"/></svg>