<?xml version="1.0" encoding="UTF-8"?><svg id="blockchaindraw" xmlns="http://www.w3.org/2000/svg" viewBox="0 0 827.38 1024"><path d="m822.48,692.92c-6.86,33.93-27.34,93.6-73.11,83.97-21.31-4.49-38.43-22.48-51.8-38.57-14.21-17.09-25.61-36.34-34.93-56.49-19.26-41.61-30.04-86.48-41.3-130.73-23.15-91.01-52.28-181.5-98.25-263.8-22.68-40.6-49.51-79-81.31-113-32.73-34.99-71.82-69.75-117.65-85.96-42.51-15.04-97.53-10.14-125.69,29.18-15.78,22.03-19.96,50.49-22,76.85-2.17,27.81-.84,55.8,2.61,83.45,13.67,109.32,59.51,213.17,60.29,324.35.35,50-9.74,99.09-33.67,143.24-22.94,42.31-55.27,78.54-87.52,113.89-43.71,47.91-93.56,102.29-116.76,164.7H0c29.99-82.78,100.75-143.47,155.94-209.85,32.2-38.72,59.99-81.39,72.62-130.68,13.4-52.28,10.69-107.22,2.03-160.03-17.84-108.82-63.77-214.8-55.82-326.81,1.7-23.94,5.04-49.14,16.58-70.56,9.74-18.07,25.68-31.45,44.59-39.17,42.42-17.33,88.46-4.85,126.05,18.16,39.36,24.11,73.59,57.64,102.73,93.18,28.89,35.22,53.14,74.07,73.69,114.69,42.21,83.43,67.57,172.92,90.82,263.07,11.61,44.99,24.43,90.65,48.21,130.95,20.15,34.15,68.7,96.51,111.14,56.18,17.27-16.41,25.55-40.82,30.88-63.42,6.22-26.33,7.62-53.64,5.41-80.56-4.48-54.37-23.91-106.04-48.96-154.09-25-47.95-54.91-93.46-85.04-138.3-31.12-46.31-63.87-91.45-97.72-135.81-43.85-57.44-92.2-119.97-110.52-190.95h1.52c.52,2.05,1.08,4.09,1.67,6.12,13.67,47.42,40.02,90.14,68.39,130.07,30.04,42.28,62.62,82.69,92.85,124.85,32.74,45.65,64.09,92.33,93.7,140.08,27.46,44.27,53.11,90.22,69.41,139.89,15.95,48.61,22.53,101.4,12.31,151.91Z"/></svg>