<?xml version="1.0" encoding="UTF-8"?><svg id="blockchaindraw" xmlns="http://www.w3.org/2000/svg" viewBox="0 0 1175.21 1024"><path d="m1175.21,0c-3.21,3.39-6.44,6.76-9.69,10.12-78.94,81.61-166.61,154.29-257.74,221.83-46.34,34.34-93.63,67.39-141.35,99.78-47.04,31.91-94.88,62.65-141.83,94.68-46.74,31.88-92.29,66.42-129.32,109.54-38.03,44.29-67.27,95.24-102.55,141.62-65.18,85.71-144.02,159.98-227.94,227.07-52.45,41.93-106.92,81.18-162.15,119.36H0c67.81-46.82,134.54-95.25,197.71-148.23,83.6-70.12,160.08-148.45,222.23-238.4,32.26-46.69,62.85-94.39,104.09-133.88,39.67-38,85.29-69.01,130.96-99.25,95.38-63.14,190.63-126.58,281.71-195.87,83.68-63.65,163.86-132.21,236.42-208.37h2.09Z"/></svg>