<?xml version="1.0" encoding="UTF-8"?><svg id="blockchaindraw" xmlns="http://www.w3.org/2000/svg" viewBox="0 0 1009.27 728.39"><path d="m1009.27,412.31v2c-57.19-46.97-102.24-108.04-130.1-176.7-14.05-34.63-27.38-77.1-63.16-95.31-23.01-11.72-51.49-11.31-76.7-12.85-26.13-1.59-52.3-2.42-78.48-2.48-26.88-.06-53.77.68-80.6,2.24-12.36.71-25.7.7-37.1,6.14-10.18,4.86-17.16,14.06-21.76,24.12-16.6,36.32-9.05,81.43,12.25,114.11,11.21,17.21,26.37,30.99,44.43,40.73,9.67,5.22,19.78,9.69,28.85,15.95,8.26,5.7,14.93,12.97,20.54,21.26,13.11,19.38,23.35,41.28,32.67,62.68,9.05,20.78,16.82,42.12,23.24,63.85,13.17,44.62,20.72,90.91,22.3,137.41.75,22.09.95,44.86-2.14,66.8-2.32,16.49-8.28,34.59-24.35,42.37-17.7,8.58-38.68.98-54.66-7.91-17.2-9.57-32.5-22.26-45.87-36.66-27.78-29.9-47.48-66.28-65.93-102.38-11.57-22.65-23-45.38-34.5-68.07-10.97-21.65-21.09-44.08-33.6-64.91-12.03-20.02-28.07-35.44-50.87-42.14-21.44-6.3-44.19-5.7-66.31-5.99-48.68-.66-97.94-6.9-145.65-16.54-41.3-8.35-82.89-21.75-115.99-48.74C6.36,282.83-12.06,197.26,7.52,125.22,20.82,76.32,50,33.97,87.13,0h2.26C36.17,48.64-.75,115.38,1.6,189.18c1.23,38.95,12.91,78.02,35.81,109.78,25.3,35.09,63.24,56.7,103.95,69.37,20.68,6.44,41.94,10.81,63.29,14.36,24.98,4.16,50.13,7.58,75.36,9.86,24,2.17,47.93,2.11,71.99,2.91,19.99.66,40.76,2.76,58.69,12.32,17.95,9.56,29.86,26.14,39.46,43.59,12.05,21.91,22.82,44.59,34.12,66.9,20.21,39.91,39.15,81,63.38,118.7,22.07,34.35,51.46,69.13,90.4,84.65,10.24,4.08,21.81,6.68,32.78,4.29,10.97-2.39,19.38-9.91,24.35-19.79,9.4-18.65,8.82-42.07,9.19-62.42,1.72-94.02-21.26-188.42-66.21-271.03-5.7-10.48-11.52-21.2-19.51-30.14-7.75-8.68-17.62-14.61-27.85-19.93-17.51-9.11-33.68-18.25-46.96-33.17-23.96-26.93-36.28-64.35-31.97-100.24,2.1-17.45,7.77-37.07,21.4-49.09,7.23-6.37,16.23-9.35,25.64-10.68,11.92-1.7,24.14-1.93,36.15-2.49,52.3-2.45,104.74-1.83,156.96,1.86,22.14,1.56,46.07,2.18,66.09,12.91,15.49,8.3,27.14,21.84,36.05,36.74,9.6,16.06,16.39,33.6,23.3,50.91,7.79,19.51,16.38,38.58,26.62,56.94,26.85,48.13,62.76,91.01,105.19,126.02Z"/></svg>