<?xml version="1.0" encoding="UTF-8"?><svg id="blockchaindraw" xmlns="http://www.w3.org/2000/svg" viewBox="0 0 959.24 853.76"><path d="m959.24,848.47v1.65c-45.75,3.76-92.95-3.63-138.54-4.81-34.47-.89-68.22,4.39-102.46,7.19-30.22,2.47-61.85,2.39-89.97-10.41-26.7-12.15-45.47-34.89-62.9-57.67-18.97-24.8-37.77-48.63-64.3-65.82-53.81-34.86-118.37-40.4-180.77-40.95-17.69-.16-35.39-1.06-52.55-5.7-15.81-4.29-30.81-11.17-45.07-19.17-31.49-17.66-60.78-39.64-90.28-60.39-28.05-19.73-57.04-38.89-83.36-60.91-23.03-19.27-42.82-42.89-47.51-73.43-2.62-17.05-1.32-34.45-.16-51.58.97-14.49,2.28-29.06,5.58-43.24,3.18-13.7,8.34-27.12,16.98-38.34,8.81-11.47,20.85-19.53,33.9-25.46,13.4-6.08,27.61-10.23,41.63-14.62,14.57-4.56,29.16-9.04,43.73-13.61,29.22-9.16,58.37-18.68,86.85-29.97,56.11-22.25,110.47-52.2,150.6-98.23,36.05-41.34,58.08-91.91,77.04-143h1.58c-1.31,3.5-2.62,6.99-3.95,10.48-22.12,58-49.94,114.67-96.59,156.98-43.09,39.08-96.65,64.09-150.85,83.76-28.3,10.28-57.06,19.22-85.8,28.13-14.05,4.36-28.15,8.61-42.11,13.24-15.37,5.1-30.82,11.14-43.49,21.49-24.49,20-30.37,52.82-32.87,82.61-2.84,33.7-5.53,68.69,13.69,98.35,17.33,26.73,44.73,45.2,70.13,63.5,30.09,21.67,60.42,43.01,90.99,64.01,27.91,19.17,56.66,38.98,89.74,47.95,33.43,9.07,68.95,4.45,103.16,7.22,56.95,4.61,116.08,20.87,158.2,61.48,21.14,20.38,36.48,45.72,55.89,67.6,9.82,11.08,20.8,21.28,33.63,28.8,14.02,8.24,29.74,12.98,45.8,15.11,32.11,4.26,64.64-.82,96.58-4.18,35.4-3.72,70.24-2.7,105.68-.06,29.75,2.22,61.42,4.49,92.15,2Z"/></svg>