<?xml version="1.0" encoding="UTF-8"?><svg id="blockchaindraw" xmlns="http://www.w3.org/2000/svg" viewBox="0 0 220.78 712.23"><path d="m220.78,0v1.47c-.75,0-1.51,0-2.26.01-33.66.24-67.83,3.97-100.43,12.52-27.37,7.18-54.92,19.84-69.78,45.19-7.74,13.19-11.78,28.23-14.03,43.26-2.53,16.9-2.95,34.13-1.36,51.15,3.12,33.44,15.21,64.11,29.3,94.29,13.2,28.27,27.27,56.41,34.06,87.07,6.72,30.36,6.78,61.8,2.62,92.52-8.81,64.93-35.51,125.21-60.62,185.12-13.62,32.5-26.97,65.62-36.64,99.63H0c11.92-42.07,29.53-82.68,46.45-122.85,25.71-61.06,50.91-124.5,53.59-191.53,1.32-33.05-3.76-65.55-15.58-96.46-11.45-29.95-27.35-57.96-38.76-87.92-11.83-31.07-17.2-64.11-14.49-97.32,2.34-28.73,10.11-58.52,32.78-78,21.28-18.26,49.73-25.59,76.67-30.65C167.08,2.54,193.92.05,220.78,0Z"/></svg>