<?xml version="1.0" encoding="UTF-8"?><svg id="blockchaindraw" xmlns="http://www.w3.org/2000/svg" viewBox="0 0 971.16 842.77"><path d="m971.16,831.75v1.54c-58.01,14.47-118.95,1.59-177.84-.62-18.47-.69-37.02-.34-55.35,2.19-16.6,2.29-32.98,6.15-49.7,7.52-25.96,2.11-49.86-4.37-70.82-19.8-38.82-28.57-61.47-73.72-100.12-102.54-48.99-36.54-112.52-28.64-169.92-31.01-28.8-1.19-57.72-5.05-84.05-17.43-30.85-14.51-57.66-37.25-84.86-57.46-29.72-22.09-59.45-44.19-89.17-66.28-14.73-10.95-29.45-21.9-44.18-32.84-11.67-8.68-24.35-17.02-33.55-28.47C2.48,475.2-.47,461.76.06,447.41c.66-17.85,3.76-35.76,5.87-53.48,1.98-16.61,3-33.68,6.37-50.07,2.74-13.35,9.31-23.98,20.87-31.37,12.3-7.86,26.92-12.04,40.52-16.99,17.26-6.28,34.51-12.56,51.77-18.85,34.51-12.56,69.02-25.13,103.53-37.69,57.72-21.02,123.6-39.6,164.33-88.81,21.53-25.99,35.78-58.02,49.44-88.61,9.03-20.22,17.32-40.75,24.89-61.54h1.6c-1.26,3.48-2.54,6.95-3.85,10.42-11.84,31.43-25.31,62.29-40.54,92.23-13.83,27.19-30.25,52.56-54.23,71.89-22.27,17.95-48.29,30.49-74.68,41.13-30.77,12.4-62.24,23.16-93.4,34.51-34.19,12.45-68.38,24.89-102.58,37.34-16.12,5.87-32.38,11.46-48.37,17.69-14.65,5.71-29.1,13.61-35.05,29.08-2.89,7.52-3.87,15.62-4.83,23.58-1.08,9.01-2.14,18.03-3.22,27.04-2.08,17.45-4.41,34.9-6.19,52.38-1.78,17.51-.78,34.69,10.84,48.82,9.93,12.06,23.61,20.81,36.03,30.04,57.54,42.77,114.55,86.38,172.73,128.28,13.15,9.47,26.72,18.49,41.38,25.48,14.06,6.7,29.02,11.09,44.35,13.74,29.29,5.06,59.17,4.25,88.78,4.67,28.19.41,57.03,1.69,83.98,10.77,23.38,7.87,42.94,22.01,60.09,39.49,16.83,17.15,31.31,36.39,47.38,54.23,15.54,17.24,33.08,33.76,55.04,42.33,31.04,12.13,63.1,2.66,94.66-1.73,34.74-4.82,69.87-1.83,104.62,1.24,42.08,3.71,87.49,7.38,128.97-2.9Z"/></svg>