<?xml version="1.0" encoding="UTF-8"?><svg id="blockchaindraw" xmlns="http://www.w3.org/2000/svg" viewBox="0 0 454.93 1024"><path d="m454.93,1024h-1.61c-24.27-55.46-50.5-110.06-78.62-163.66-39.84-75.95-83.47-149.9-130.7-221.48-46.49-70.46-96.72-138.51-140.04-211.03C61.85,357.33,26.56,282.23,10,201.38-3.61,134.9-4.43,65.2,14.44,0h1.46C-6.68,77.06-1.05,159.92,20,236.68c22.12,80.64,62.02,154.81,106.64,225.04,44.88,70.63,94.54,138.08,139.58,208.62,45.96,71.98,88.32,146.25,126.89,222.45,21.84,43.14,42.45,86.9,61.82,131.21Z"/></svg>