<?xml version="1.0" encoding="UTF-8"?><svg id="blockchaindraw" xmlns="http://www.w3.org/2000/svg" viewBox="0 0 754.11 1024"><path d="m754.11,1024h-2.43c-25.35-15.51-52.17-28.61-79.98-39.02-28.59-10.71-58.24-18.6-88.39-23.39-34.15-5.42-68.77-6.19-103.13-9.52-31.52-3.05-62.96-8.54-92.09-21.4-22.14-9.78-42.47-23.17-61.25-38.35-39.82-32.18-72.74-71.75-108.2-108.42-34.88-36.09-73.41-70.9-121.09-88.82-23.76-8.93-50.55-11.88-72.16-25.93-9.91-6.44-17.84-15.42-21.95-26.6-5.1-13.89-3.83-29.17-.74-43.36,3.56-16.32,9.46-32.13,14.7-47.96,5.57-16.82,11.18-33.63,16.88-50.4,11.52-33.87,23.45-67.6,36.36-100.97,12.53-32.36,25.98-64.39,40.84-95.76,14.52-30.67,29.51-62.29,49.65-89.75,18.86-25.74,43.66-42.98,71.79-57.39,28.79-14.75,57.59-28.77,84.8-46.41,47.21-30.6,89.88-67.94,126.57-110.55h1.99c-4.92,5.76-9.95,11.42-15.09,16.98-42.69,46.16-92.79,85.48-147.8,115.91-27.45,15.19-57.12,26.81-82.96,44.78-28.05,19.52-46.39,47.57-62.39,77.18-33.59,62.15-60.25,127.78-84.11,194.19-11.98,33.34-23.27,66.94-34.41,100.57-5.27,15.9-11.19,31.76-14.95,48.1-3.8,16.47-5.25,34.65,2.83,50.13,12.96,24.83,43.15,31.59,67.86,38.57,23.66,6.68,45.8,16.15,66.53,29.45,41.43,26.58,74.98,63.43,108.26,99.22,34.24,36.83,69.15,74.64,112.66,100.7,24.72,14.81,51.61,24.47,79.93,29.71,34.57,6.4,69.82,7.19,104.76,10.29,73.56,6.53,144.53,30.01,206.71,68.22Z"/></svg>