<?xml version="1.0" encoding="UTF-8"?><svg id="blockchaindraw" xmlns="http://www.w3.org/2000/svg" viewBox="0 0 230.38 718.76"><path d="m230.38.03v1.47c-.66-.01-1.32-.02-1.98-.02-35.21-.25-71.06,3.81-104.96,13.49-29.62,8.45-57.97,23.33-74.33,50.44-14.89,24.65-18.61,54.68-15.85,82.94,3.22,33,16.04,64.15,29.71,94.04,14,30.61,29.7,60.86,38.65,93.47,8.82,32.18,9.73,65.89,5.25,98.84-9.14,67.22-38.73,128.98-66.66,190.02-14.02,30.64-27.88,61.9-38.54,94.04H0c13.11-39.62,31.12-77.82,48.45-115.57,29.07-63.31,57.9-129.94,59.54-200.72.82-35.46-6.83-69.18-20.28-101.85-13.11-31.86-29.65-62.24-41.68-94.56-10.63-28.59-17.28-58.73-14.43-89.36,2.53-27.1,12.71-53.8,32.86-72.68,22.36-20.94,52.88-30.24,82.25-36.17C174.24,2.3,202.32-.29,230.38.03Z"/></svg>