<?xml version="1.0" encoding="UTF-8"?><svg id="blockchaindraw" xmlns="http://www.w3.org/2000/svg" viewBox="0 0 854.81 1024"><path d="m847.53,710.66c-9.79,36.63-36.02,78.21-76.42,85.2-44.18,7.66-73.41-34.41-92.61-67.61-23.58-40.79-39.04-85.63-51.67-130.84-13.08-46.84-23.27-94.44-36.72-141.19-13.07-45.39-29.95-89.54-51.76-131.47-21.55-41.41-47.57-80.54-78.09-115.88-15.03-17.41-31.14-33.88-48.28-49.22-18.1-16.2-37.26-31.82-58.54-43.67-21.1-11.75-44.69-19.32-69.05-17.72-23.48,1.54-45.71,11.85-59.7,31.15-26.42,36.48-20.66,88.33-18.99,130.63,2.2,56.21,5.97,112.36,11.3,168.36,2.67,28,5.72,55.97,9.16,83.88,3.25,26.36,7.14,52.66,9.42,79.12,4.34,50.34,1.45,100.99-22.64,146.41-23.13,43.62-58.82,79.55-91.87,115.64-46.01,50.24-94.85,106.2-119.59,170.55H0c32.33-85.81,102.93-150.18,162.13-218.24,33.74-38.78,62.72-80.98,70.76-132.81,8.22-53.01-1.58-106.87-8.09-159.51-6.9-55.82-12.25-111.84-16.04-167.97-1.9-28.06-3.4-56.15-4.52-84.26-.93-23.5-2.34-47.22-.38-70.72,1.6-19.22,5.54-38.86,15.48-55.64,9.96-16.83,25.73-28.96,44.47-34.5,44.71-13.2,88.48,9.53,123.02,36.32,72.35,56.15,128.13,132.2,166.39,214.98,19.53,42.25,33.92,86.36,45.8,131.3,12.4,46.96,22.73,94.49,37.15,140.91,14.15,45.55,32.42,90.94,60.43,129.9,13.41,18.65,31.19,36.74,54.81,40.72,22.36,3.78,43.72-6.8,59.51-22.01,35.47-34.19,44.78-87.2,41.93-134.52-3.16-52.5-21.82-102.45-46.72-148.32-25.32-46.64-56.59-89.82-86.69-133.43-31.97-46.32-64.03-92.58-95.91-138.97-44.56-64.85-90.33-138.05-98.11-217.23h1.61c.44,4.45,1,8.89,1.67,13.31,7.96,52.39,30.95,100.86,58.37,145.7,28.35,46.36,60.51,90.45,91.36,135.14,31.2,45.19,63.08,90,93.28,135.86,27.85,42.3,53.67,86.75,68.89,135.32,14.62,46.68,19.68,97.61,6.93,145.33Z"/></svg>