<?xml version="1.0" encoding="UTF-8"?><svg id="blockchaindraw" xmlns="http://www.w3.org/2000/svg" viewBox="0 0 964.42 851.7"><path d="m964.42,850.3v1.4c-3.94-.4-7.85-.91-11.73-1.52-35.71-5.58-70-16.64-106.47-16.67-65.01-.05-134.07,23.29-196.74-3.3-49.66-21.07-82.25-66.85-121.47-101.73-21.62-19.23-45.85-35.2-74.13-42.51-34.28-8.85-69.7-5.62-103.88,1.81-16.74,3.63-33.78,7.65-51.04,6.72-16-.87-30.81-6.78-44.64-14.58-30.68-17.32-59.72-38.43-88.35-58.9-28.66-20.49-56.71-41.83-84.11-63.97-13.94-11.26-27.7-22.73-41.29-34.41-11.42-9.8-23.15-19.93-30.8-33.09C1.92,476.04-.05,460.31,0,444.93c.06-18.04,1.88-36.19,3.97-54.09,1.98-16.89,4.03-34.12,8.12-50.65,3.38-13.63,9.47-25.8,20.8-34.46,12.16-9.3,27.26-14.53,41.28-20.31,17.06-7.03,34.2-13.86,51.43-20.48,33.69-12.94,67.73-24.85,101.91-36.44,31.51-10.68,63.17-21.87,91.97-38.78,27.11-15.93,50.18-37.24,68.82-62.5,28.21-38.2,46.33-82.45,61.85-127.22h1.54c-.57,1.66-1.16,3.31-1.74,4.97-18.84,53.3-42.02,107.32-81.85,148.53-44.35,45.9-105.34,64.42-164.06,84.54-34.26,11.74-68.25,24.31-101.91,37.68-16.67,6.62-33.5,13.1-49.81,20.57-14.84,6.8-27.92,15.84-34.54,31.3-6.53,15.26-8.23,32.79-10.5,49.08-2.54,18.31-4.35,36.74-5.35,55.2-.94,17.31-.93,35.4,6.34,51.51,6.56,14.52,18.71,25.54,30.54,35.77,53.57,46.35,110.06,89.37,168.8,128.96,14.28,9.63,28.59,19.38,43.41,28.16,15.38,9.11,31.79,16.24,49.89,16.81,18.16.58,35.93-4.06,53.56-7.8,15.78-3.34,31.76-5.66,47.91-6.14,30.23-.89,60.51,4.72,87.13,19.45,22.71,12.56,42,30.3,60.28,48.5,18.82,18.74,36.84,38.43,57.51,55.21,22.85,18.55,48.65,31.78,77.93,36.48,32.95,5.28,66.54,1.15,99.43-2.41,32.97-3.57,66.05-6.62,99.02-1.45,26.96,4.21,53.55,12.57,80.74,15.38Z"/></svg>