<?xml version="1.0" encoding="UTF-8"?><svg id="blockchaindraw" xmlns="http://www.w3.org/2000/svg" viewBox="0 0 770.08 1024"><path d="m770.08,1024h-2.77c-34.19-21.19-71.29-37.69-109.95-48.77-61.96-17.75-126.48-17.57-189.85-26.6-30.31-4.32-60.47-11.03-88.64-23.27-24.02-10.45-45.86-25.05-65.88-41.85-39.67-33.28-72.12-73.97-108.61-110.5-18-18.02-37.07-35.15-58.3-49.3-21.85-14.55-45.31-23.86-70.13-31.99-21.51-7.04-45.36-14.5-61.13-31.71-20.62-22.5-15.63-52.88-9.29-80.08,15.76-67.55,35.78-134.12,59.85-199.18,11.93-32.26,24.87-64.15,38.78-95.61,12.68-28.7,25.3-58.53,45.39-82.98,19.39-23.63,45.72-39.67,72.34-53.94,27.07-14.51,54.18-28.52,79.78-45.58,43.35-28.9,82.76-63.51,117.1-102.64h2.03c-2.68,3.08-5.39,6.12-8.13,9.14-41.17,45.26-89.37,84.14-142.36,114.75-26.3,15.19-54.23,27.58-79.64,44.31-12.71,8.37-24.73,17.89-35,29.16-11.28,12.37-20.24,26.63-28.03,41.38-15.9,30.09-29.01,61.92-41.81,93.42-12.92,31.81-24.86,64.02-35.79,96.57-10.94,32.54-20.86,65.43-29.76,98.59-4.36,16.24-8.48,32.55-12.34,48.92-3.95,16.74-8.38,34.15-6.27,51.47,3.55,29.26,27.52,45.14,52.91,54.98,22.9,8.87,46.79,14.6,68.75,25.87,44.62,22.9,79.8,59.9,113.45,96.28,34.69,37.5,69.22,76.75,113.17,103.73,54.1,33.22,117.69,39.69,179.54,45.23,31,2.77,62.1,5.44,92.69,11.42,29.34,5.74,58.05,14.6,85.57,26.26,21.62,9.16,42.48,20.05,62.33,32.52Z"/></svg>