<?xml version="1.0" encoding="UTF-8"?><svg id="blockchaindraw" xmlns="http://www.w3.org/2000/svg" viewBox="0 0 1022.3 725.81"><path d="m1022.3,427.52v2.05c-58.49-37.72-91.83-105.5-121.45-167.19-9.49-19.78-18.73-39.89-30-58.75-11.19-18.73-25.39-35.66-45.62-44.9-21.25-9.7-45.88-12.53-68.79-15.74-25.32-3.56-50.83-5.76-76.38-6.64-24.54-.84-49.12-.44-73.61,1.2-12.35.82-25.32,1.17-37.37,4.16-11.87,2.94-20.69,10.17-26.51,20.86-22.07,40.6,3.58,87.73,31.76,117.61,15.08,15.99,31.99,30.09,47.77,45.36,13.89,13.43,26.54,28,37.58,43.87,21.89,31.47,37.37,67.06,47.42,103.97,10.31,37.81,15.11,77,15.97,116.14.43,19.68-.15,39.38-1.62,59.01-.75,10.03-1.72,20.03-2.92,30.01-1.06,8.86-2.23,17.91-5.62,26.24-6.07,14.9-19.68,23.27-35.76,20.51-19.12-3.28-34.55-17.03-47.79-30.25-29.67-29.61-53.78-64.25-75.02-100.27-21.88-37.08-40.79-75.78-60.8-113.87-9.55-18.19-19.71-36.38-33.36-51.85-14.51-16.46-32.59-27.93-53.88-33.45-21.42-5.56-43.79-5.76-65.77-6.54-24.08-.84-48.02-3.09-71.86-6.55-24.21-3.52-48.25-8.13-72.2-13.12-23.44-4.88-47.07-9.46-70.2-15.67-20.16-5.43-39.91-12.88-57.08-24.99-13.78-9.72-25.67-21.95-35.41-35.7C13.52,264.42,2.56,229.59.4,194.75-4.09,122.74,30.19,55.78,73.72,0h1.87c-6.78,8.62-13.3,17.46-19.46,26.55C32.37,61.56,13.4,100.46,5.41,142.25c-7.08,37.05-4.4,75.62,9.01,110.97,12.97,34.19,36.36,64.75,68.76,82.46,20.46,11.19,43.29,16.97,65.9,22,23.63,5.25,47.31,10.34,71.08,14.96,24.63,4.79,49.41,8.95,74.36,11.68,22.95,2.51,45.91,2.94,68.95,4.11,20.09,1.02,40.57,3.21,59.28,11.1,17.97,7.58,32.64,20.49,44.53,35.77,11.91,15.29,21.11,32.44,30.03,49.58,9.67,18.57,19.14,37.24,28.87,55.77,19.66,37.46,40.42,74.56,65.75,108.54,12.88,17.29,26.97,33.71,42.48,48.71,14.05,13.59,34.82,30.5,55.97,25.76,22.49-5.04,25.13-31.44,27.25-50.23,2.18-19.49,3.53-39.08,3.94-58.69,1.62-77.73-11.28-158.49-51.38-226.2-10.01-16.9-21.66-32.82-34.9-47.34-14.47-15.88-30.88-29.79-46.48-44.52-28.25-26.67-55.64-59.72-55.76-100.73-.06-17.24,5.59-37,19.57-48.16,7.06-5.64,15.87-7.91,24.67-9.12,11.79-1.63,23.77-2.34,35.64-3.03,48.37-2.79,97.01-.76,144.98,6.05,22.1,3.14,45.51,6,66.18,14.91,17.58,7.58,31.09,20.79,41.79,36.44,11.99,17.53,21.04,37.08,30.27,56.14,9.75,20.11,19.2,40.38,29.52,60.21,19.81,38.11,43.19,74.96,76.3,102.94,6.45,5.45,13.25,10.55,20.33,15.19Z"/></svg>