<?xml version="1.0" encoding="UTF-8"?><svg id="blockchaindraw" xmlns="http://www.w3.org/2000/svg" viewBox="0 0 456.95 1024"><path d="m456.95,1024h-1.57c-20.45-49.87-44.14-98.42-69.75-145.83-41.04-75.97-86.94-149.16-133.14-222.06-46.37-73.15-93.15-146.11-135.93-221.44C72.04,356.29,28.78,274.42,9.58,185.64-3.6,124.75-4.25,59.53,14.34,0h1.44C-7.56,73.97-.21,155.27,22.5,228.8c26.48,85.76,71.53,165.38,116.92,242.35,43.67,74.07,90.53,146.19,136.32,218.95,45.35,72.05,89.78,144.83,128.73,220.58,19.05,37.03,36.73,74.79,52.48,113.32Z"/></svg>