<?xml version="1.0" encoding="UTF-8"?><svg id="blockchaindraw" xmlns="http://www.w3.org/2000/svg" viewBox="0 0 455.8 1024"><path d="m455.8,1024h-1.52c-20.23-56.44-45.94-110.92-74.55-163.58-40.19-73.97-86.23-144.52-132.51-214.77-46.98-71.3-94.31-142.49-136.15-216.98-40.32-71.79-76.44-146.95-96.3-227.22C-1.55,135.52-6.17,65.95,10.28,0h1.42C-8.09,78.04,2.51,160.39,26.08,236.39c24.8,79.95,64.08,154.77,106.52,226.62,43.27,73.27,91.04,143.74,137.62,214.92,45.46,69.46,89.84,139.8,127.71,213.75,21.95,42.87,41.67,86.98,57.87,132.32Z"/></svg>