<?xml version="1.0" encoding="UTF-8"?><svg id="blockchaindraw" xmlns="http://www.w3.org/2000/svg" viewBox="0 0 1098.77 972.11"><path d="m1098.77,594.54v1.51c-6.26,1.7-12.47,3.58-18.64,5.62-73.55,24.41-137.67,69.89-198.85,116.26-62.45,47.33-124.23,97.15-195.86,130.16-73.12,33.68-152.63,49.7-227.97,77.32-38.45,14.09-76.34,30.37-116.42,39.41-35.04,7.91-71.33,9.37-106.91,4.44-70.35-9.76-138.06-44.34-183.56-99.46-21.47-26.02-37.64-56.5-45.22-89.47-8.48-36.83-6.46-75.57,3.27-111.94,19.29-72.11,68.46-131.78,125.22-178.4,30.87-25.35,63.86-48.27,90.66-78.19,25.71-28.72,46-61.89,62.82-96.46,9.06-18.62,18.7-38.56,18.98-59.69.24-19.02-8.91-35.4-22.07-48.54-12.57-12.55-27.65-22.17-42.24-32.16-17.22-11.78-34.27-23.83-51.13-36.14-33.05-24.14-65.68-49.07-96.98-75.45C72.52,45.36,51.67,25.16,39.32,0h1.65c5.21,10.48,11.92,20.18,19.6,29.15,24.59,28.74,56.47,51.67,86.24,74.69,33.57,25.96,67.96,50.83,103.07,74.68,24.18,16.43,52.63,35.94,57.25,67.2,2.71,18.36-3.34,36.65-10.57,53.27-7.67,17.65-16.55,34.87-26.24,51.49-18.8,32.27-41.62,61.98-69.43,87.01-29.21,26.28-61.95,48.31-90.72,75.13-55.53,51.77-99.64,118.91-107.46,195.92-3.89,38.34,1.77,77.24,18.25,112.19,14.83,31.43,37.23,58.96,63.71,81.33,56.62,47.81,132.02,71.89,205.83,68.22,40.07-2,78.29-13.4,115.72-27.19,37.77-13.92,75.17-28.18,113.69-39.95,38.52-11.78,77.38-22.61,115.29-36.28,37.63-13.56,73.57-30.54,107.7-51.41,66.29-40.53,125.06-91.76,188.59-136.24,51.28-35.91,106.73-68.07,167.28-84.67Z"/></svg>