<?xml version="1.0" encoding="UTF-8"?><svg id="blockchaindraw" xmlns="http://www.w3.org/2000/svg" viewBox="0 0 1280 534.47"><path d="m1280,81.89v1.65c-77.23,29.78-157.49,51.7-239.13,65.36-45.72,7.64-91.87,12.71-138.16,15.1-47.19,2.45-99.21-2.22-142.47,20.35-17.64,9.21-33.61,22.83-42.96,40.62-9.37,17.82-10.41,38.17-5.82,57.51,8.52,35.96,31.32,66.51,42.95,101.37,11.13,33.34,7.58,67.4-13.73,95.92-20.66,27.65-53.11,46.55-86.98,52.45-41.32,7.19-83.94-3.73-121.54-20.63-38.76-17.41-75.01-41.31-108.42-67.45-31.87-24.93-61.28-53.24-85.85-85.46-25.44-33.37-44.27-70.46-57.01-110.4-13.9-43.58-21.98-88.78-35.97-132.34-12.5-38.92-30.48-85.27-68.36-106.18C160.23.75,141.26-1.21,123.64,5.22c-18.18,6.62-32.67,21.76-32.69,41.93-.03,23.49,15.52,46.35,26.44,66.31,10.65,19.46,21.61,38.78,30.94,58.92,17.23,37.19,27.56,77.2,19.11,118.11-8.39,40.6-31.57,77.13-59.64,107.04-30.15,32.13-67.22,57.31-107.8,74.01v-1.55c64.1-26.54,121.1-74.7,151.23-137.08,10.1-20.92,16.78-43.67,17.8-66.95.96-21.98-3.28-43.77-10.44-64.48-14.63-42.37-40.32-79.43-59.47-119.68-7.59-15.96-13.76-34.64-6.17-51.78,5.63-12.72,17.45-21.62,30.29-26.25,33.22-11.97,64.8,6.12,85.07,32.25,25.7,33.14,38.02,75.93,48.51,115.86,11.7,44.48,20.72,90.03,38.96,132.46,33.36,77.58,96.11,138.49,165.24,184.98,69.28,46.58,164.36,91.76,243.69,41.38,32.12-20.4,56.84-54.99,54.78-94.34-2.01-38.25-25.12-71.27-39.83-105.45-13.32-30.95-18.99-65.41,1.27-94.86,22.1-32.11,60.96-45.32,98.07-49.51,24.21-2.73,48.63-2.48,72.94-3.53,23.35-1,46.66-2.67,69.91-5.02,47.77-4.83,95.26-12.49,142.13-22.89,59.92-13.3,118.79-31.11,176.02-53.21Z"/></svg>