<?xml version="1.0" encoding="UTF-8"?><svg id="blockchaindraw" xmlns="http://www.w3.org/2000/svg" viewBox="0 0 1098.09 957.09"><path d="m1098.09,576.49v1.4c-66.07,24.24-124.83,64.86-181.03,106.55-62.12,46.08-122.68,94.8-191.01,131.6-77.73,41.86-161.88,69.79-245.55,97.07-81.77,26.66-166.95,54.83-253.93,39.76-71.73-12.43-139.96-51.19-182.28-111.17-41.98-59.5-55.85-139.16-34.1-208.92,21.33-68.39,76.89-114.35,132.3-155.58,29.02-21.59,58.59-42.67,85.13-67.33,29.16-27.08,53.33-58.79,69.75-95.17,9.01-19.96,18.79-43.54,18.21-65.78-.48-18.88-10.37-35.2-23.57-48.1-12.94-12.65-28.4-22.43-43.83-31.74-16.53-9.98-32.94-20.13-48.89-31.02C144.92,100.93,94.37,55.99,59.35,0h1.71c4.19,6.71,8.63,13.28,13.28,19.7,46.29,63.79,110.88,109.28,177.39,149.77,26.26,15.99,57.48,36.34,64.13,68.73,4.1,19.92-2.86,40.56-9.72,59.08-7.02,18.92-16.07,37.09-26.94,54.1-39.06,61.09-101.01,99.74-157.22,143.19-28,21.65-55.2,45.07-76.57,73.49-22.4,29.8-36.8,64.46-41.78,101.43-10.23,75.93,17.49,153.88,72.49,206.95,54.66,52.74,131.27,80.57,206.84,79.29,46.86-.8,92.82-11.71,137.5-25.11,42.58-12.76,84.83-26.88,126.87-41.29,81.89-28.07,162.1-60.88,234.74-108.53,63.14-41.41,121.02-90.18,183.28-132.83,41.56-28.47,85.57-54.17,132.74-71.48Z"/></svg>