<?xml version="1.0" encoding="UTF-8"?><svg id="blockchaindraw" xmlns="http://www.w3.org/2000/svg" viewBox="0 0 1280 553.58"><path d="m1280,101.93v1.61c-82.33,26.97-166.66,47.83-252.07,62.36-46.75,7.96-93.82,14.02-141.06,18.16-39.02,3.42-82.54,1.55-118.64,19.04-17.86,8.65-32.15,23.12-38.04,42.37-6.63,21.68-2.28,45.06,4.29,66.21,12.4,39.96,32.09,77.09,36.92,119.25,4.18,36.56-5.41,73.85-35.46,97.17-26.6,20.65-62.18,26.76-95.09,25.26-40.32-1.85-79.92-15.38-116.09-32.65-39.86-19.05-77.15-43.64-112.41-70.16-65.48-49.27-122.55-110.08-148.59-189.24-13.85-42.09-20.61-86.04-31.87-128.81-5.78-21.96-12.76-43.68-22.46-64.24-9.36-19.82-21.2-39.84-39.14-53.07C152.04,1.72,125.22-3.81,105.34,9.61c-15.59,10.52-21.56,29.46-21.35,47.54.49,42.56,32.61,72.37,53.62,106.27,43.99,70.98,18.4,165.99-30.12,227.81-28.43,36.22-65.87,63.27-107.49,81.32v-1.63c65.17-28.86,119.32-80.26,144.43-148.6,15.08-41.06,20.32-89.63,5.12-131.44-14.26-39.24-50.22-66.63-62.66-106.55-8.56-27.46-5.99-65.37,23.41-79.27,36.31-17.17,71.62,12.46,89.45,41.84,46.18,76.08,42.27,170.46,79.65,250.12,36.25,77.27,104.44,134.39,174.11,180.81,38,25.32,78.48,47.79,122.21,61.54,37.77,11.88,78.62,17.61,117.48,7.43,38.58-10.11,69.3-37.66,76.13-78.07,7.15-42.23-9.07-85.54-24.36-124.19-13.89-35.09-31.03-78.94-9.47-114.64,17.41-28.83,52.59-37.84,83.82-41.76,20.57-2.58,41.35-3.36,62-5.1,24.06-2.03,48.07-4.56,72.02-7.59,48.3-6.1,96.34-14.23,143.96-24.33,61.74-13.09,122.74-29.53,182.7-49.19Z"/></svg>