<?xml version="1.0" encoding="UTF-8"?><svg id="blockchaindraw" xmlns="http://www.w3.org/2000/svg" viewBox="0 0 731.08 1024"><path d="m731.08,1024h-3.16c-28.63-14.98-58.74-27.12-89.77-36.14-57.04-16.59-116.06-19.15-174.65-26.55-55.96-7.07-111.23-20.53-156.31-56.15-22.61-17.86-42.06-39.25-61.12-60.73-19.88-22.41-39.78-44.68-61.73-65.11-22.66-21.09-46.85-40.52-72.32-58.1-24.8-17.11-50.84-31.64-77.39-45.8-10.48-5.6-21.17-12.13-27.72-22.36-7.35-11.48-7.76-25.53-6.11-38.66,1.83-14.56,5.52-28.97,8.78-43.26,3.6-15.7,7.43-31.36,11.5-46.95,16.65-63.71,37.28-126.39,61.73-187.54,11.33-28.32,22.96-56.79,36.93-83.93,12.44-24.16,27.71-47.49,48.93-64.85,23.07-18.88,51.51-29.5,77.65-43.25,25.8-13.57,50.62-29,74.23-46.09,39.34-28.5,75.24-61.64,106.81-98.53h2.01c-2.07,2.43-4.16,4.85-6.27,7.25-37.3,42.44-80.48,79.71-127.88,110.46-24.77,16.07-50.68,29.8-77.23,42.66-27.07,13.12-51.91,27.89-70.92,51.74-17.88,22.42-30.22,48.66-41.72,74.75-13.39,30.39-25.82,61.21-37.27,92.38-22.33,60.84-40.93,123.04-55.63,186.16-3.51,15.06-7.32,30.22-9.66,45.52-2.38,15.58-2.25,32.51,8.27,45.29,8.94,10.86,22.34,16.85,34.53,23.21,13.46,7.02,26.67,14.52,39.59,22.5,50.06,30.87,95.73,68.64,135.55,111.92,39.56,43,75.75,90.82,129.72,116.66,52.61,25.18,112.02,29.54,169.18,35.33,28.63,2.91,57.3,6.11,85.47,12.15,27.96,5.99,55.38,14.5,81.85,25.33,15.05,6.16,29.78,13.07,44.13,20.69Z"/></svg>