<?xml version="1.0" encoding="UTF-8"?><svg id="blockchaindraw" xmlns="http://www.w3.org/2000/svg" viewBox="0 0 1016.37 720.67"><path d="m1016.37,396.47v1.7c-32.68-16.12-59.13-42.58-78.86-73.1-11.19-17.32-20.35-35.88-28.14-54.95-7.88-19.29-13.77-39.25-20.89-58.82-7.03-19.34-15.75-38.64-30.13-53.71-14.37-15.06-33.57-24.16-53.6-29.05-46.02-11.24-93.87-.73-140.55-3.83-42.42-2.82-92.2-11.66-127.96,17.92-33.34,27.58-27.93,75.1-15.19,111.68,6.33,18.18,15.07,36.75,29.48,49.96,7.28,6.67,15.79,11.31,25.33,13.83,9.42,2.49,19.52,3.56,27.73,9.24,7.22,4.99,12.06,12.58,16.27,20.11,5.42,9.7,10.55,19.58,15.65,29.46,10.48,20.31,20.44,40.9,29.51,61.88,17.71,40.96,32.2,83.59,39.58,127.69,3.64,21.74,5.53,43.78,5.19,65.83-.3,18.99-1.17,39.23-7.56,57.3-4.98,14.08-14.5,27.45-30.03,30.4-19.2,3.65-37.89-8.6-52.19-19.94-32.95-26.13-55.22-63.36-76.08-99.2-11.98-20.59-23.36-41.54-34.1-62.81-9.88-19.57-18.66-39.66-28.46-59.25-8.85-17.69-19.24-35.18-34.38-48.23-16.39-14.11-37.21-20.84-58.29-24-21.77-3.26-43.95-3.3-65.9-4.21-23.88-1-47.76-2.27-71.54-4.79-42.49-4.49-84.99-13-124.08-30.75-34.2-15.53-65.95-37.95-89.09-67.81C13.87,267.77,1.33,229.42.11,190.04-2.15,117.68,32.18,52.02,80.12,0h1.95c-6.34,6.77-12.44,13.77-18.25,21C11.42,86.19-17.57,176.13,15.41,256.94c31.5,77.18,112.61,117.61,190.28,132.51,46.51,8.92,93.97,10.54,141.17,12.36,38.03,1.46,78.97,4.6,107.17,33.34,13.12,13.36,22.36,29.98,30.5,46.69,9.59,19.66,18.51,39.61,28.44,59.11,20.33,39.9,42.05,80.29,68.8,116.32,12.77,17.2,27.38,33.29,44.79,45.91,17.29,12.53,42.28,24.23,60.93,7.54,13.57-12.14,17.24-32.41,19.07-49.63,2.32-21.92,2.29-44.05.27-65.99-4.16-45.15-16.65-89.18-33.11-131.29-8.42-21.54-17.92-42.65-28.08-63.42-9.62-19.67-19.04-40.26-30.94-58.67-6.33-9.81-14.4-15.98-25.73-18.99-9.24-2.45-18.58-3.83-27.08-8.45-14.98-8.13-25.48-22.5-33.02-37.43-15.62-30.93-26.73-72.2-14.33-105.99,12.63-34.45,48.91-49.04,83.17-50.92,24.32-1.33,48.49,2.4,72.73,3.64,24.27,1.23,48.49-.9,72.75-1.55,38.57-1.03,81.35,2.74,111.38,29.79,28.97,26.11,37.19,66.7,50.03,101.81,14.65,40.06,34.78,79.32,65.47,109.53,13.58,13.35,29.24,24.83,46.3,33.31Z"/></svg>