<?xml version="1.0" encoding="UTF-8"?><svg id="blockchaindraw" xmlns="http://www.w3.org/2000/svg" viewBox="0 0 762.31 1024"><path d="m762.31,1024h-3.43c-22.1-10.54-45.11-19.19-68.7-25.77-57.8-16.13-117.96-20.31-177.17-28.45-57.18-7.86-115.36-19.61-165.36-49.89-53.03-32.11-91.68-82.78-134.73-126.34-21.38-21.62-43.82-42.4-68.71-59.95-24.45-17.24-50.6-29.44-78.78-39.21-23.27-8.06-48.73-17.91-59.58-41.93-11.67-25.85-3.43-56.03,3.57-81.95,17.81-66,39.34-130.99,64.41-194.59,12.43-31.52,25.74-62.7,39.9-93.48,12.54-27.27,25.54-54.79,44-78.65,19.04-24.63,43.66-41.22,71.11-55.28,28.17-14.44,55.94-28.47,81.61-47.18,40.13-29.26,75.01-64.73,108.47-101.33h2c-1.05,1.16-2.11,2.31-3.17,3.47-41.58,45.26-85.96,89.22-139.19,120.71-26.58,15.71-55.72,26.91-81.33,44.27-25.96,17.61-44.79,42.34-59.87,69.53-15.81,28.49-28.79,58.7-41.62,88.62-13.59,31.68-26.28,63.75-38.05,96.15-11.55,31.79-22.22,63.89-31.99,96.27-4.99,16.53-9.75,33.14-14.27,49.8-3.97,14.67-7.99,29.45-9.32,44.63-1.35,15.29.16,31.25,8.39,44.57,7.45,12.05,19.37,20.07,32.02,25.91,12.15,5.6,25.01,9.44,37.57,13.99,13.28,4.81,26.12,10.72,38.44,17.63,50.75,28.5,91.18,71.66,130.55,113.74,21.97,23.47,43.76,47.35,68.75,67.67,23.85,19.39,50.67,34.33,79.47,45.02,55.26,20.52,114.57,26.33,172.68,33.44,58.14,7.11,116.09,15.94,170.48,38.7,7.38,3.09,14.66,6.38,21.85,9.88Z"/></svg>