<?xml version="1.0" encoding="UTF-8"?><svg id="blockchaindraw" xmlns="http://www.w3.org/2000/svg" viewBox="0 0 1023.47 734.18"><path d="m1023.47,421.62v1.74c-66.07-39.41-106.81-110.17-135.47-180.19-8.5-20.75-15.09-42.94-27.23-61.96-11.92-18.68-29.75-30.95-50.73-37.53-19.46-6.11-40.07-7.72-60.36-8.42-24.41-.84-48.87-1.01-73.3-1.47-25.65-.49-51.41-1.73-77.05-1.33-21.92.34-41.25,7.22-54.27,25.52-10.51,14.77-15.33,33.52-14.09,51.54,1.48,21.61,11.83,41.92,25.08,58.67,27.19,34.37,67.88,52.59,98.29,83.35,31.33,31.71,45.3,75.8,56.08,117.97,12.17,47.63,19.13,96.59,20.76,145.73.75,22.74,1.5,46.39-1.77,68.97-2.72,18.79-11.22,35.75-29.01,44.13-38.02,17.91-77.85-8.8-104.97-34.06-28.92-26.95-50.73-60.46-68.8-95.39-18.67-36.1-33.64-73.93-49.62-111.26-7.95-18.57-15.22-39.54-29.59-54.28-17.36-17.8-43.24-17.82-66.41-19.31-90.42-5.8-186.57-4.48-268.51-48.75-32.76-17.71-62.67-42.06-83.55-73.15C5.12,256.66-2.61,215.31.75,173.07,5.56,112.5,25.14,52.03,57.48,0h1.77C38.03,34.14,22.6,71.77,12.81,110.73c-11.21,44.62-17.62,93.81-3.23,138.44,24.78,76.81,101.7,123.71,176.16,142.54,48.21,12.19,98.05,15.44,147.53,18.14,23.77,1.29,47.7,2.03,71.39,4.48,19.63,2.02,36.88,8.12,49.2,24.22,11.77,15.4,18.59,34.57,26.13,52.26,7.86,18.45,15.52,36.99,23.53,55.38,15.91,36.5,33.27,72.77,56.55,105.22,11.61,16.17,24.7,31.3,39.5,44.63,16.55,14.9,35.66,29,57.62,34.42,20.38,5.03,44.63,1.11,58.65-15.74,14.78-17.79,13.76-44.28,14.12-66.06.81-49.72-3.87-99.52-13.94-148.22-9.15-44.29-20.74-92.08-47.33-129.49-25.86-36.39-67.87-54.78-99.13-85.55-25.87-25.47-46.14-60.64-38.59-98.05,3.15-15.61,10.78-30.75,22.83-41.36,14.81-13.05,33.45-15.25,52.5-15.02,49.15.58,98.49.88,147.6,2.95,36.81,1.55,77.88,7.51,102.27,38.24,12.73,16.04,19.52,35.69,26.86,54.53,8.47,21.76,17.62,43.29,28.15,64.15,25.79,51.14,63.26,100.79,112.29,130.78Z"/></svg>