<?xml version="1.0" encoding="UTF-8"?><svg id="blockchaindraw" xmlns="http://www.w3.org/2000/svg" viewBox="0 0 847.81 1024"><path d="m838.67,698.48c-6.48,20.26-16.86,41.89-33.53,55.74-16.46,13.68-36.55,13.17-54.39,2.24-35.21-21.59-55.01-63.39-67.58-101.1-14.92-44.78-23.58-91.42-37.78-136.46-16.09-51.01-35.87-100.8-57.78-149.57-20.59-45.84-42.24-91.64-68.39-134.61-49.03-80.55-124.47-156.44-223.62-164.27-11.88-.93-24.65-1.47-36.36,1.03-13.48,2.89-22.79,12-30.14,23.19-13.45,20.46-22.22,43.95-27.55,67.76-11.39,50.95-6.72,103.56,1.4,154.61,8.59,53.96,18.98,107.42,24.6,161.82,5.63,54.48,8.75,109.63,7.38,164.41-.63,25.33-3.16,50.85-11.48,74.93-7.24,20.96-18.34,40.36-31.27,58.3-26.88,37.32-60.85,68.86-91.3,103.15-38.42,43.27-75.03,91.27-99.06,144.35H0c31.57-70.42,84.54-130.07,137.09-185.73,32.41-34.33,65.9-70.29,82.97-115.12,9.33-24.49,12.46-50.57,13.28-76.62.85-26.98.15-54.08-.99-81.05-2.38-56.26-8.08-112.39-17.08-167.98-8.5-52.46-20.38-104.71-21.91-158.02-1.32-46.5,5.58-94.66,28.53-135.74,5.21-9.33,11.14-18.9,19.61-25.64,7.98-6.35,17.48-8.67,27.49-9.39,21.95-1.58,44.37,1.32,65.54,7.13,92.17,25.32,155.64,102.38,200.26,182.7,24.77,44.6,46.35,91.19,66.42,138.07,20.51,47.92,38.74,96.87,53.2,146.98,12.56,43.48,20.41,88.61,37.28,130.75,8.32,20.79,19.09,40.8,33.82,57.77,15,17.28,38.12,37.38,62.85,29.83,23.3-7.11,37.45-33.5,45.62-54.66,8.85-22.9,12.41-47.59,12.25-72.06-.32-50.37-15.85-99.64-37.87-144.53-45.55-92.83-118.67-168.09-174.25-254.56-47.25-73.52-84.9-153.07-111.99-236.13h1.54c3.73,11.44,7.66,22.82,11.8,34.12,35.04,95.76,84.67,184.79,145.43,266.53,59.95,80.66,128.18,159.93,155.67,258.79,12.47,44.84,16.49,94.13,2.11,139.04Z"/></svg>