<?xml version="1.0" encoding="UTF-8"?><svg id="blockchaindraw" xmlns="http://www.w3.org/2000/svg" viewBox="0 0 1280 559.33"><path d="m1280,106.1v1.61c-88.3,28.82-178.76,51.02-270.37,66.36-46.16,7.73-92.62,13.73-139.23,17.95-21.63,1.97-43.37,2.85-64.96,5.09-17.83,1.86-36.43,5.07-52.36,13.73-18.84,10.25-29.02,27.82-29.04,49.34,0,23.71,7.37,47.66,14.37,70.1,12.61,40.45,28.22,81.12,25.62,124.25-2.2,36.31-18.99,69.18-51.04,87.62-30.82,17.75-68.34,20.73-102.68,13.56-43.37-9.07-82.23-31.99-119.89-54.35-33.69-20.01-67.01-40.84-98.12-64.71-29.71-22.79-57.5-48.46-80.01-78.5-24.95-33.3-40.29-70.49-49.99-110.78-5.49-22.78-9.79-45.84-15.78-68.51-5.85-22.14-13.21-43.89-22-65.03-9.1-21.9-19.76-43.17-31.85-63.57-10.47-17.68-22.73-36.98-42.48-45.22-19.41-8.1-40.45-1.03-55.18,12.93-15.17,14.37-22.84,34.16-21.79,54.96,1.14,22.48,11.07,43.6,23.93,61.72,12.27,17.28,29.1,30.72,41.09,48.13,11.6,16.83,14.16,36.95,14.52,56.93.36,19.68-1.64,39.4-5.79,58.63-8.22,38.1-24.93,74.39-48.76,105.24-25.86,33.49-59.99,59.66-98.21,76.81v-1.62c61.37-28.02,110.41-79.36,134.56-143.58,7.44-19.77,12.53-40.44,15-61.42,2.44-20.72,3.26-42.9-1.18-63.4-5.1-23.61-21.36-38.7-37.01-55.82-13.23-14.47-24.8-30.83-32.17-49.08-13.37-33.17-8.95-71.56,21.14-93.93,12.04-8.95,27.35-13.79,42.28-10.52,17.15,3.75,30.07,16.85,39.94,30.63,25.37,35.45,43.69,77.66,57.18,118.94,14.36,43.94,19.61,90.31,34.75,133.99,26.78,77.24,89.66,133.02,155.76,177.36,34.37,23.07,70.12,44.99,106.81,64.19,38.06,19.92,80.33,35.65,123.97,30.86,40.12-4.41,77.98-25.81,93.46-64.51,16.38-40.94,6.15-86.71-6.44-127.11-6.82-21.85-14.52-43.47-19.8-65.76-4.68-19.75-9.55-42.74-1.74-62.31,11.77-29.53,46.6-37.9,74.95-41.25,21.06-2.48,42.34-3.18,63.46-5.04,23.28-2.04,46.52-4.52,69.71-7.44,48.12-6.06,96.01-14.02,143.51-23.82,68.23-14.09,135.64-32.02,201.86-53.65Z"/></svg>