<?xml version="1.0" encoding="UTF-8"?><svg id="blockchaindraw" xmlns="http://www.w3.org/2000/svg" viewBox="0 0 1280 541.19"><path d="m1280,89.91v1.74c-76.01,35.32-157.31,58.61-239.9,72.44-44.19,7.4-88.81,12.12-133.54,14.54-46.67,2.52-96.94.28-140.06,21.25-35.61,17.33-65.3,51.6-61.73,93.24,3.46,40.34,31.24,73.38,41.71,111.71,9.18,33.62,1.1,69.48-20.77,96.54-25.74,31.86-65.37,42.13-104.98,39.4-39.21-2.7-78.45-14.35-114.47-29.71-35.22-15.03-68.38-34.94-97.96-59.28-29.37-24.17-55.16-52.79-75.45-84.99-22.9-36.33-37.34-76.83-49.11-117.92-12.49-43.61-22.34-88.07-38.15-130.67-14.72-39.63-35.18-83.04-73.28-105.11C139.53-5.91,89-2.76,70.5,34.62c-20.37,41.15,6.88,86.33,29.74,119.71,11.9,17.38,24.12,34.81,32,54.47,8.41,20.99,11.09,43.87,9.83,66.35-2.16,38.52-15.25,76.2-36.21,108.5-20.47,31.54-48.56,58.17-81.63,76.18-7.89,4.3-15.98,8.11-24.23,11.52v-1.86c27.5-11.71,52.83-27.58,74.37-49.21,28.06-28.19,48.81-63.66,59.18-102.09,5.85-21.72,8.55-44.5,6.81-66.97-1.9-24.62-10.19-47.15-22.93-68.17-20.97-34.6-49.94-65.81-54.54-107.7C59.03,40.31,77.8,8.62,113.46,1.56c35.64-7.06,68.75,10.66,91.28,37.44,26.36,31.31,41.01,71.77,52.95,110.36,13.42,43.37,22.96,87.86,37.27,130.97,13.66,41.14,32.4,79.98,59.25,114.17,24.38,31.03,53.99,57.83,86.82,79.67,33.04,22,69.35,39.08,107.31,50.65,41.75,12.72,90.38,22.98,132.67,7.18,37.53-14.01,64.1-50.68,67.56-90.39,3.57-40.92-21.18-75.41-35.75-111.7-6.88-17.14-11.54-35.51-9.26-54.09,2.01-16.35,9.34-31.52,19.68-44.23,25.22-30.99,63.82-44.41,102.29-49.41,23.46-3.04,47.14-3.44,70.75-4.53,22.32-1.04,44.61-2.63,66.85-4.84,46.16-4.59,92.07-11.83,137.3-22.14,61.75-14.08,122.2-34.05,179.57-60.76Z"/></svg>