<?xml version="1.0" encoding="UTF-8"?><svg id="blockchaindraw" xmlns="http://www.w3.org/2000/svg" viewBox="0 0 214.41 702.34"><path d="m214.41.01v1.47c-.23-.01-.47-.01-.7-.01-34.02-.19-68.07,4.21-100.92,13.05-26.64,7.18-57.49,17.37-72.14,42.76-8.18,14.18-9.28,30.95-9.74,46.94-.48,16.93-.93,33.94.5,50.84,2.71,31.87,14.8,61.12,28.44,89.71,13,27.25,27.12,54.32,34.57,83.76,7.73,30.56,8.2,62.45,4.01,93.59-8.8,65.35-36.67,125.62-62.13,185.76-12.99,30.7-25.6,62.18-34.62,94.46H0c11.04-39.58,27.53-77.88,43.64-115.45,26.51-61.81,53.59-126.07,55.81-194.29,1.08-33.07-4.79-65.17-17.2-95.8-11.64-28.74-27.16-55.74-38.44-84.63-5.55-14.22-10.03-28.9-12.35-44.01-2.61-17-2.68-34.24-2.34-51.39.3-15.55.08-31.62,4.5-46.68,3.77-12.81,11.46-23.64,21.86-31.94,10.24-8.16,22.28-13.79,34.55-18.2,15.33-5.51,31.28-9.52,47.25-12.68C162.68,2.23,188.54-.18,214.41.01Z"/></svg>