<?xml version="1.0" encoding="UTF-8"?><svg id="blockchaindraw" xmlns="http://www.w3.org/2000/svg" viewBox="0 0 1088.67 947.56"><path d="m1088.67,608.79v1.47c-76.39,22.19-141.44,71.52-202.62,120.77-32.32,26.02-64.36,52.49-98.43,76.23-34.56,24.08-71.27,44.29-110.29,60.18-40.12,16.33-81.76,28.56-123.65,39.42-44.05,11.42-88.41,22.17-133.27,29.95-81.62,14.16-167.77,17.83-246.76-10.94-63.36-23.08-122.1-66.13-152.27-127.75-17.34-35.4-24.26-75.54-20.3-114.74,3.56-35.33,16.25-68.84,35.6-98.5,35.14-53.86,87.87-93.04,137.02-133.21,25.19-20.59,50.12-41.69,72.41-65.45,23.99-25.55,48-55.82,57.52-90.12,5.8-20.91,4.6-42.77-7.45-61.28-11.09-17.04-28.1-29.3-44.3-41.1-29.77-21.69-60.51-42.02-90.49-63.43C110.32,93.84,60.23,53.2,26.32,0h1.71c4.58,7.19,9.47,14.19,14.66,20.98,45.05,58.98,108.28,100.54,168.58,142.25,14.85,10.27,29.66,20.6,44.22,31.27,14.31,10.49,28.84,21.41,39.42,35.86,23.75,32.45,12.29,72.49-6.91,104.11-33.64,55.4-85.83,96-135.42,136.28-49.15,39.92-100.25,82.02-128.91,139.86-35.94,72.52-26.99,160.7,22.67,224.52,43.44,55.82,110.82,90.23,179.35,103.64,89.44,17.49,181.71,1.58,269.18-18.94,84.81-19.9,171.31-41.8,247.45-85.48,72.9-41.81,133.64-100.69,201.34-149.83,43.98-31.92,92.63-60.54,145.01-75.73Z"/></svg>