<?xml version="1.0" encoding="UTF-8"?><svg id="blockchaindraw" xmlns="http://www.w3.org/2000/svg" viewBox="0 0 235.77 724.71"><path d="m235.77.74v1.47c-2.45-.18-4.9-.33-7.36-.44-35.16-1.61-70.58,3.11-104.08,13.94-30.76,9.94-61.7,24.99-78.04,54.33-16.37,29.41-17.81,65.46-12.37,98,5.65,33.81,18.68,65.88,32.44,97.09,13.77,31.24,29.66,62.17,38.54,95.27,8.51,31.73,7.85,64.56.85,96.51-7.2,32.89-20.18,64.2-33.97,94.8-14.39,31.9-29.5,63.43-42.51,95.95-10.14,25.35-19.38,51.06-27.68,77.05H0c11.27-35.25,24.23-69.95,38.82-103.96,27.26-63.56,65.05-126.63,70.4-197.03,1.33-17.44.39-35.01-3.19-52.14-3.68-17.62-9.91-34.59-16.84-51.16-13.4-32.04-29.01-63.14-41.08-95.74-11.55-31.2-19.91-64.2-18.27-97.71,1.5-30.75,11.54-61.88,35.38-82.56,24.1-20.91,57.33-31.45,88-37.97C180.33.68,208.16-1.2,235.77.74Z"/></svg>