<?xml version="1.0" encoding="UTF-8"?><svg id="blockchaindraw" xmlns="http://www.w3.org/2000/svg" viewBox="0 0 1109.63 982.47"><path d="m1109.63,599.94v1.47c-4.32,1.14-8.62,2.38-12.89,3.72-74.69,23.36-137.87,71.85-198.12,120.12-30.18,24.19-60.18,48.68-91.9,70.85-33.19,23.2-68.27,42.89-105.56,58.69-37.25,15.78-75.76,28.29-114.2,40.8-42.07,13.69-84.15,27.38-126.22,41.07-40.61,13.22-81.14,28.38-122.67,38.45-19.65,4.77-39.75,7.76-60.01,7.32-19.86-.44-39.58-3.82-58.72-9.06-68.65-18.78-133.46-58.85-176.83-115.77-23.05-30.25-38.69-65-41.76-103.17-1.66-20.68-.33-41.48,1.68-62.08,1.89-19.46,4.56-38.96,10.1-57.75,10.11-34.36,31.33-62.49,56.75-87.15,27.24-26.42,57.29-49.83,85.02-75.75,29.59-27.65,57.84-56.73,84.62-87.1,25.35-28.74,53.36-59.14,65.94-96.08,6.11-17.96,7.61-37.13,2.83-55.59-4.54-17.48-14.07-33.33-25.72-46.98-24.8-29.05-58.66-47.23-90.83-66.76-30.78-18.69-58.79-40.02-80.73-68.89-11.79-15.52-21.63-32.44-29.31-50.3h1.57c.86,1.98,1.75,3.95,2.67,5.91,14.92,31.89,36.86,60.48,64.07,82.84,30.81,25.31,67.59,41.77,99.7,65.21,25.6,18.68,49.29,43.5,58.83,74.41,10.48,33.91-1.1,67.83-19.62,96.59-20.57,31.93-47.33,60.42-73.2,88.07-27.42,29.31-56.25,57.31-86.34,83.87-27.05,23.88-55.96,46.15-79.35,73.82-12.11,14.33-22.54,30.18-29.65,47.59-7.74,18.97-11.71,39.22-14.26,59.47-5.12,40.81-7.72,83.67,6.71,122.94,13.02,35.42,36.86,66.53,64.25,92.13,26.41,24.67,57.1,44.58,89.94,59.6,37.14,16.99,78.04,29.17,119.19,28.5,42.29-.69,82.76-15.81,122.5-28.74,41.71-13.57,83.42-27.14,125.13-40.72,78.49-25.54,159.9-47.97,231.52-90.08,67.46-39.66,124.77-93.55,187.56-139.74,47.65-35.06,99.98-66.48,157.31-81.73Z"/></svg>