<?xml version="1.0" encoding="UTF-8"?><svg id="blockchaindraw" xmlns="http://www.w3.org/2000/svg" viewBox="0 0 851.86 1024"><path d="m849.34,673.19c-3.03,20.45-9.03,40.51-18.4,58.96-9.12,17.96-21.67,37.04-38.79,48.27-38.82,25.45-80.88-19.69-100.12-50.07-25.31-39.95-38.57-87.36-52.28-132.19-30.47-99.64-54.51-202.82-103.37-295.61-40.75-77.39-100-149.52-179.91-188.4-41.01-19.95-99.72-40.21-134.2,1.55-34.53,41.82-25.14,102.99-20.95,152.76,9.63,114.25,19.29,228.5,28.9,342.76,2.2,26.16,4.4,52.8-.5,78.8-4.4,23.32-15.21,44.59-28.92,63.77-13.68,19.13-29.9,36.24-45.97,53.35-16.26,17.3-32.26,34.85-47.67,52.92-42.04,49.29-80.95,103.78-105.38,163.94H0c31.72-78.85,87.43-146.54,144.75-208.27,32.56-35.07,70.16-70.69,81.95-118.85,6.52-26.64,4.61-54.37,2.37-81.41-2.37-28.66-4.83-57.31-7.24-85.97-4.82-57.13-9.63-114.25-14.45-171.38-2.39-28.38-4.78-56.75-7.18-85.13-2.25-26.73-5.4-53.66-4.27-80.53,1.77-42.24,19.12-94.87,67.23-102.1,22.75-3.42,46,3.2,67.17,11.01,19.53,7.21,38.26,16.54,55.89,27.59,73.24,45.88,126.58,118.98,163.1,196.16,45.12,95.31,68.01,198.9,100.08,298.87,14.22,44.33,28.94,91.97,60.26,127.61,15.19,17.27,39.6,38.55,64.4,34.58,22.95-3.67,39.38-26.61,50.36-45.24,46.35-78.65,25.3-179.75-16.92-255.18-48.96-87.49-123.48-157.11-179.21-240-50.8-75.57-90.16-158.66-116.62-245.76h1.55c4.53,14.91,9.43,29.71,14.72,44.37,34.56,95.87,85.26,184.88,148.7,264.53,59.29,74.45,129.75,146.26,160.02,238.65,13.17,40.2,18.91,83.6,12.68,125.64Z"/></svg>