<?xml version="1.0" encoding="UTF-8"?><svg id="blockchaindraw" xmlns="http://www.w3.org/2000/svg" viewBox="0 0 446.3 1024"><path d="m446.3,1024h-1.46c-16.44-59.79-41.29-117.21-70.36-171.93-38.79-73-85.31-141.43-132.25-209.35-48.07-69.54-96.73-138.89-138.15-212.69C64.02,358.65,31.21,282.85,13.57,202.67-1.06,136.16-4.87,67.01,7.16,0h1.44C-5.87,79.42,2.52,161.51,24.16,238.84c22.57,80.63,59.72,156.01,102.81,227.5,43.33,71.91,92.41,140.1,139.77,209.36,46.31,67.74,91.04,136.86,126.93,210.8,21.46,44.22,39.65,90.16,52.63,137.5Z"/></svg>