<?xml version="1.0" encoding="UTF-8"?><svg id="blockchaindraw" xmlns="http://www.w3.org/2000/svg" viewBox="0 0 1203.02 1024"><path d="m1203.02,0c-1.87,2.41-3.78,4.8-5.7,7.18-69.7,86.15-163.12,148.28-252.31,212.21-23.45,16.81-46.76,33.82-69.54,51.53-24.75,19.25-48.54,39.68-73.2,59.04-24.69,19.39-50.56,36.69-77.59,52.63-27.62,16.28-55.73,31.83-81.95,50.34-93.9,66.3-160.49,162.04-231.65,250.48-71.39,88.72-152.4,168.63-243.86,236.64-52.03,38.69-106.93,73.46-164.12,103.95H0c71.19-37.77,138.84-82.21,201.81-132.49,44.37-35.42,86.41-73.75,125.74-114.69,39.4-41.01,75.25-85,110.39-129.65,35.07-44.56,69.85-89.5,108.67-130.91,38.88-41.47,81.82-77.92,130.49-107.44,27.35-16.59,55.54-31.79,82.25-49.44,27.14-17.93,52.27-38.63,77.4-59.24,43.71-35.87,89.26-69.09,135.3-101.88,82.22-58.55,166.19-118.49,229.02-198.26h1.95Z"/></svg>