<?xml version="1.0" encoding="UTF-8"?><svg xmlns="http://www.w3.org/2000/svg" xmlns:xlink="http://www.w3.org/1999/xlink" viewBox="0 0 527.14 527.14"><defs><style>.cls-1{fill:none;}</style><clipPath id="clippath"><path class="cls-1" d="m507.33,213.02c-37.25-3.4-73.68-17.02-103.84-39.19-14.8-10.88-27.57-24.03-39.93-37.53-11.71-12.79-24-25.3-39.09-34.1-30.43-17.75-68.45-21.45-100.57-5.89-14.18,6.87-26.77,17.17-35.9,30.04-9.82,13.85-15.07,30.7-15.22,47.65-.14,16.39,4.58,32.91,14.02,46.37,9.5,13.55,23.4,23.13,37.99,30.51,16.75,8.48,34.6,14.5,51.72,22.15,14.91,6.66,30.67,14.51,40.65,27.91,20.39,27.37,8.35,70.1-19,88.02-14.33,9.39-32.62,11.47-48.91,6.49-15.34-4.69-27.95-15.42-34.62-30.04-3.78-8.28-6.1-17.13-9.68-25.49-3.39-7.92-7.72-15.38-13.06-22.15-10.34-13.1-23.72-23.56-38.06-31.94-32.01-18.72-69.53-28.1-106.53-28.08-9.54,0-19.06.67-28.51,1.93-.96.13-.97,1.66,0,1.53,38.29-5.11,77.87.13,113.38,15.41,16.25,6.99,31.89,16.12,45.12,27.94,6.51,5.82,12.48,12.33,17.38,19.57,5.07,7.49,8.85,15.68,11.9,24.17,2.96,8.24,5.5,16.8,10.12,24.32,3.74,6.09,8.71,11.35,14.48,15.54,12.45,9.05,28.41,12.92,43.64,10.93,31.86-4.16,53.88-34.41,53.93-65.58.02-15.98-6.01-30.92-17.89-41.72-12.24-11.12-28.03-17.9-43.12-24.19-32.03-13.34-69.98-25.06-85.97-58.97-7.59-16.1-9.33-34.68-5.49-52.01,3.75-16.95,12.88-32.1,25.7-43.75,13.01-11.81,29.27-19.8,46.5-23.18,18.11-3.55,36.91-1.77,54.31,4.21,17.3,5.94,32.3,15.98,45.41,28.61,12.81,12.35,24.05,26.2,37.17,38.26,26.78,24.61,59.98,41.72,95.47,49.63,8.73,1.95,17.58,3.3,26.49,4.12.98.09.97-1.44,0-1.53h0Z"/></clipPath><clipPath id="clippath-2"><path class="cls-1" d="m508.82,217.82c-36.71-5.76-73.62-17.04-104.5-38.24-15.09-10.36-28.16-23.23-40.29-36.87-11.46-12.88-22.99-26.03-37.48-35.61-29.03-19.19-67.18-23.98-98.97-8.73-14.31,6.86-26.96,17.45-35.83,30.64-9.49,14.09-14.24,31.21-13.57,48.17.63,15.96,6.06,31.76,15.9,44.41,10.31,13.25,25.09,22.15,40.16,29.05,16.69,7.64,34.32,13.11,50.76,21.31,14.99,7.47,29.8,17.4,39.18,31.59,19.76,29.9,4.53,70.99-23.24,90.15-14.12,9.75-32.43,13.93-49.18,9.41-15.81-4.27-27.67-16.57-36.02-30.13-9.42-15.31-15.93-32.28-26.83-46.68-10.23-13.52-23.12-24.9-37.45-33.91-31.44-19.77-68.78-27.34-105.55-27.27-9.57.02-19.12.55-28.64,1.46-.97.09-.98,1.62,0,1.53,38.23-3.65,77.99-.91,113.43,14.94,16.18,7.24,31.25,17.06,43.97,29.44,6.42,6.24,12.25,13.12,17.18,20.6,4.92,7.46,8.97,15.44,13.06,23.37,7.4,14.33,15.23,28.88,28.25,38.92,12.46,9.61,28.13,12.9,43.54,10.08,31.3-5.73,55.73-35.79,57.94-67.11,1.16-16.5-4.7-31.93-15.81-44.06-11.36-12.39-26.44-20.94-41.67-27.65-31.44-13.86-69.98-22.75-87.96-55.17-8.45-15.24-11.33-33.31-8.47-50.47,2.87-17.2,11.38-32.85,23.94-44.89,12.65-12.13,28.76-20.36,45.97-23.64,17.95-3.42,36.63-1.39,53.68,5.03,17.06,6.43,31.37,17.23,43.96,30.25,12.33,12.75,23.41,26.6,36.65,38.47,27.15,24.35,61.01,39.18,96.19,47.73,9.02,2.19,18.13,3.96,27.3,5.4.96.15,1.37-1.32.41-1.47h0Z"/></clipPath><clipPath id="clippath-4"><path class="cls-1" d="m509.7,222.6c-37.68-4.03-74.17-17.61-105.42-39.02-15.01-10.28-28.6-22.44-40.84-35.89-11.73-12.89-22.99-26.51-37.59-36.31-28.62-19.21-66.44-23.73-97.61-7.88-13.98,7.11-26.19,18-34.26,31.5-8.66,14.49-12.16,31.9-10.04,48.62,1.97,15.49,9.03,30.02,19.9,41.22,11.73,12.09,27.24,19.53,42.7,25.67,31.35,12.44,70.19,21.63,86.45,54.65,7.92,16.09,8.53,35.52,2.7,52.36-5.49,15.84-16.85,29.31-30.9,38.29-15.07,9.63-33.74,14.9-51.62,12.13-8.99-1.39-17.5-5.05-24.34-11.09-6.48-5.73-11.36-12.97-15.58-20.46-8.59-15.21-14.87-31.64-25.65-45.55-10.29-13.28-23.05-24.58-37.21-33.6-31.45-20.04-68.98-27.94-105.97-26.66-9.33.32-18.63,1.23-27.87,2.59-.97.14-.56,1.61.41,1.47,38.37-5.64,78.67-2.75,114.16,13.79,15.93,7.42,30.7,17.41,43.22,29.77,6.22,6.14,11.97,12.86,16.8,20.15,4.85,7.33,8.76,15.22,12.65,23.08,7.29,14.73,14.9,30.96,29.01,40.41,13.99,9.37,32.24,10.03,48.15,6,31.65-8,57.48-34.97,59.93-68.12,1.22-16.56-3.34-33.24-13.54-46.41-10.05-12.97-24.18-21.66-38.98-28.26-31.11-13.86-69.96-20.39-90.74-50.12-9.85-14.09-14.07-31.32-12.39-48.4,1.72-17.43,9.61-33.61,21.98-45.96,12.28-12.26,28.24-20.49,45.27-23.72,17.83-3.39,36.35-1.13,53.16,5.57,16.88,6.73,30.63,17.94,42.93,31.1,12.24,13.1,23.75,26.61,37.55,38.16,27.93,23.38,61.5,39.95,97,48.02,8.76,1.99,17.64,3.45,26.57,4.4.97.1.97-1.42,0-1.53h0Z"/></clipPath><clipPath id="clippath-6"><path class="cls-1" d="m510.73,226.96c-38.12-2.9-75.16-15.71-107.19-36.54-15.07-9.8-29-21.35-41.09-34.66-11.73-12.92-22.11-27.28-35.94-38.12-25.89-20.28-63.61-25.83-93.39-10.87-29.11,14.63-45.62,49.11-39.52,81.04,2.96,15.52,11.76,29.16,23.72,39.32,13.16,11.18,29.42,17.98,45.4,24.05,16.56,6.28,33.86,11.66,48.82,21.38,14.38,9.34,24.07,23.05,27.9,39.8,7.68,33.59-6.69,73.05-37.3,90.36-15.57,8.81-34.63,11.24-52,7.11-16.35-3.89-30.28-13.97-39.6-27.89-9.56-14.28-15.05-30.84-25.15-44.81-9.82-13.61-22.47-25.06-36.63-34.02-31.28-19.79-68.81-26.53-105.38-24.45-9.27.53-18.49,1.62-27.65,3.13-.97.16-.56,1.63.41,1.47,37.89-6.25,78.01-4.71,113.43,11.27,16,7.22,30.79,17.2,43.06,29.79,6.18,6.35,11.73,13.34,16.32,20.93,4.45,7.36,8.03,15.18,11.92,22.84,7.36,14.49,16.4,27.63,30.72,35.97,13.82,8.05,30.31,10.71,46.07,8.48,16.18-2.29,31.04-10.02,42.22-21.92,11.22-11.95,18.57-27.31,21.54-43.39,2.97-16.07,1.83-33.32-4.88-48.35-6.74-15.1-18.95-25.46-33.42-32.93-30.68-15.85-68.85-20.64-92.73-47.71-11.58-13.12-17.32-29.95-16.42-47.42.88-17.17,7.64-34.04,19.15-46.83,23.8-26.48,64.31-30.27,95.54-15.55,16.04,7.56,28.19,19.95,39.58,33.23,11.52,13.44,23.09,26.41,37.01,37.47,28.53,22.66,62.51,38.49,98.24,45.63,9,1.8,18.1,3.03,27.24,3.73.98.07.97-1.45,0-1.53h0Z"/></clipPath><clipPath id="clippath-8"><path class="cls-1" d="m511.95,231.88c-38.13-3.31-75.21-16.05-107.5-36.58-15.27-9.71-29.47-21.09-41.92-34.24-12.21-12.9-23.01-27.31-37.03-38.4-25.98-20.53-63.9-27.46-93.45-10.16-27.89,16.33-43.11,52.17-30.76,82.89,12.93,32.14,46.49,48.24,77.2,58.93,14.98,5.22,31.32,9.05,44.21,18.73,14.06,10.56,20.94,27.93,23.04,44.93,2.15,17.47-.04,35.9-7.47,51.94-6.98,15.08-18.83,27.64-33.39,35.62-31.56,17.29-72,9.43-95.38-17.7-11.69-13.56-18.7-30.27-28.19-45.28-8.83-13.96-19.99-26.49-33.55-36.02-30.29-21.28-68.24-27.89-104.55-23.52-9.27,1.12-18.44,2.92-27.47,5.28-.95.25-.55,1.72.41,1.47,37.18-9.75,77.87-9.48,112.95,7.57,15.77,7.66,29.66,18.4,40.8,31.96,11.26,13.71,18.57,29.77,27.84,44.76,8.59,13.88,19.48,25.76,34.11,33.37,14.7,7.64,31.59,10.57,47.99,8.13,16.28-2.42,31.5-10.15,43.27-21.62,11.81-11.51,19.47-26.45,22.81-42.54,3.34-16.08,2.95-33.46-1.98-49.18-4.75-15.13-14.07-27.7-28.08-35.35-14.17-7.73-30.35-11.42-45.4-17.06-16.77-6.29-33.27-14.18-46.74-26.2-12.88-11.49-22.91-26.73-24.91-44.18-1.98-17.33,3.73-34.85,14.45-48.46,10.55-13.41,25.54-22.39,42.32-25.47,17.48-3.22,35.84-.32,51.76,7.46,16.15,7.89,28.57,20.55,40.34,33.84,11.91,13.44,23.96,26.34,38.23,37.35,28.93,22.33,63.05,37.98,98.85,45.31,8.98,1.84,18.06,3.14,27.2,3.93.98.08.97-1.44,0-1.53h0Z"/></clipPath><clipPath id="clippath-10"><path class="cls-1" d="m512.38,235.79c-37.75-2.27-74.65-13.99-107-33.54-15.46-9.34-29.9-20.4-42.56-33.3-12.51-12.76-23.41-27.15-37.07-38.75-24.74-21.01-60.65-30.91-90.63-14.82-12.98,6.97-23.79,18.47-28.97,32.35-5.65,15.11-3.66,32.02,3.04,46.45,6.78,14.61,18.42,26.43,31.79,35.18,14.91,9.77,31.9,15,48.52,21.01,15.36,5.56,30.61,12.42,41.77,24.76,11.8,13.05,17.17,30.74,18.11,48.05,1.85,33.94-11.84,70.73-43.32,87.04-16.11,8.35-35.36,11.06-53.11,7.27-16.28-3.47-30.57-12.74-41.82-24.8-12.27-13.15-21.39-28.73-31.93-43.2-9.85-13.52-21.13-26.07-34.9-35.7-29.21-20.42-66.67-28.75-101.82-23.2-8.87,1.4-17.57,3.72-25.96,6.92-.91.35-.51,1.82.41,1.47,35.11-13.35,75.4-10.7,109.02,5.78,15.88,7.79,29.66,18.66,41.24,32,11.56,13.31,20.56,28.48,31.03,42.61,9.68,13.07,20.86,25.09,35.43,32.72,14.6,7.65,31.3,10.08,47.56,7.68,15.98-2.37,31.16-9.37,42.86-20.58,11.85-11.35,19.53-26.33,23.55-42.12,7.94-31.16,3.34-69.18-23.11-90.37-12.67-10.15-28.02-15.51-43.15-20.82-17.01-5.96-33.81-12.44-47.96-23.92-13.12-10.63-23.39-24.82-27.35-41.4-3.98-16.7-.56-33.96,10.16-47.45,10.43-13.12,25.85-21.44,42.41-23.62,17.28-2.27,34.71,1.97,49.8,10.44,15.61,8.77,27.68,21.85,39.48,35.06,11.78,13.19,23.97,25.61,38.21,36.18,29.19,21.67,63.48,36.55,99.26,42.95,8.94,1.6,17.96,2.66,27.02,3.2.98.06.98-1.47,0-1.53h0Z"/></clipPath><clipPath id="clippath-12"><path class="cls-1" d="m513.66,240.32c-37.86-2.5-74.89-13.97-107.7-32.99-15.66-9.08-30.39-19.81-43.52-32.29-13.23-12.58-24.84-26.79-38.42-39.01-11.89-10.7-25.76-19.65-41.57-23.06-15.47-3.34-32.41-2.28-46.46,5.46-12.76,7.02-21.91,19.66-24.93,33.87-3.34,15.71.22,32.5,8.24,46.26s20.49,24.5,34.16,32.41c7.61,4.4,15.68,7.91,23.95,10.9,8.73,3.15,17.71,5.61,26.37,8.97,15.8,6.14,29.29,16.59,38.53,30.89,9.53,14.76,14.31,32.48,14.46,49.99.29,34.41-17.58,69.45-48.89,85.28-15.97,8.08-34.86,11-52.38,6.91-16.65-3.89-31.1-14.03-43.07-25.93-24.97-24.81-40.77-57.8-69.58-78.92-28.47-20.88-66.03-28.68-100.63-22.45-8.84,1.59-17.47,4.14-25.77,7.58-.89.37-.5,1.85.41,1.47,34.53-14.31,75.05-12.42,108.37,4.4,15.77,7.96,29,19.4,40.51,32.7,11.63,13.43,21.49,28.27,32.74,42,10.57,12.9,22.62,24.98,37.34,33.08,14.46,7.96,30.82,10.95,47.17,8.59,33.22-4.79,59.27-29.66,69.85-60.89,10.62-31.36,5.79-68.85-16.45-94.15-5.06-5.75-10.95-10.78-17.45-14.82-7.16-4.46-15.05-7.5-23.02-10.17-17.29-5.78-34.44-11.28-49.59-21.75-14.03-9.7-25.8-22.93-31.39-39.24-5.39-15.72-5.04-33.66,3.65-48.13,8.72-14.52,24.18-22.74,40.8-24.29,17.14-1.6,34.01,3.16,48.4,12.41,14.85,9.55,26.74,22.9,38.76,35.65,12.29,13.03,25.18,25.19,39.84,35.54,29.9,21.13,64.54,35.64,100.6,42.01,8.82,1.56,17.72,2.62,26.66,3.21.98.06.98-1.46,0-1.53h0Z"/></clipPath><clipPath id="clippath-14"><path class="cls-1" d="m514.19,244.19c-37.97-2.65-75.17-13.69-108.66-31.75-16.21-8.74-31.56-19.11-45.68-30.95-14.32-12.01-26.44-26.04-39.72-39.11-11.46-11.27-24.61-21.8-40.3-26.34-15.26-4.41-31.98-1.92-44.73,7.75-11.43,8.67-18.63,22.05-20.07,36.28-1.56,15.49,3.7,31.09,13.52,43.05,22.4,27.3,60.87,31.67,89.85,48.95,14.08,8.4,25.46,20.44,32.91,35.06,8.19,16.09,11.68,34.47,10.64,52.45-2.01,34.49-21.15,66.92-53.05,81.52-16.66,7.63-35.76,10.33-53.85,7.3-16.73-2.8-32.09-10.92-44.38-22.53-12.8-12.1-22.25-27.08-32.24-41.44-9.79-14.07-20.4-27.85-33.96-38.53-27.55-21.68-64.8-30.54-99.25-24.76-9.06,1.52-17.9,4.09-26.36,7.66-.89.38-.5,1.85.41,1.47,34.48-14.52,75.11-11.7,107.88,6.08,15.7,8.51,28.56,20.59,39.52,34.59,10.71,13.68,19.6,28.68,30.44,42.26,10.37,13,22.79,24.23,38.18,30.91,15.11,6.56,31.88,8.35,48.14,6.02,16.21-2.33,31.77-8.81,44.62-18.99,12.72-10.08,22.26-23.58,28.22-38.63,12.37-31.23,9.38-69.19-10.12-96.92-9.32-13.25-22-22.82-36.43-29.94-15.78-7.79-32.7-12.95-48.57-20.57-15.27-7.33-29.68-17.35-37.92-32.57-7.76-14.33-9.28-31.78-3.01-46.95,6.27-15.15,19.92-26.58,36.14-29.43,17.5-3.07,34.41,4.16,48.14,14.57,14.44,10.95,25.86,25.15,38.73,37.78,12.83,12.59,26.93,23.88,41.99,33.68,30.86,20.09,65.8,34.01,102.09,40.31,8.9,1.54,17.87,2.62,26.88,3.25.98.07.98-1.46,0-1.53h0Z"/></clipPath><clipPath id="clippath-16"><path class="cls-1" d="m515.07,248.16c-37.89-2.26-75.12-12.75-108.77-30.28-16.28-8.48-31.79-18.55-45.96-30.22s-26.23-24.79-38.54-38.04c-10.64-11.44-22.73-22.46-38.2-26.59-14.89-3.98-31.63-1.93-44.61,6.57-12.21,8-20.37,21.55-21.93,36.05-1.59,14.83,4.48,29.36,15.09,39.63,6.05,5.85,13.4,10.26,20.74,14.28,8.17,4.47,16.51,8.67,24.95,12.59,15.91,7.39,32.89,12.75,48.01,21.77,7.38,4.4,14.17,9.75,19.64,16.41,5.76,7.01,9.67,15.29,12.5,23.86,5.86,17.74,8.52,37.01,6.09,55.61-4.44,34.04-27.84,64.94-59.55,78.2-32.76,13.71-73.71,6.96-100.12-16.91-12.88-11.64-21.54-26.76-31.13-41.02-9.54-14.18-20.43-27.72-33.81-38.48-27.23-21.91-63.55-30.03-97.59-22.1-8.49,1.98-16.7,4.97-24.5,8.88-.88.44-.11,1.76.77,1.32,33.23-16.66,74.11-15.34,106.22,3.35,15.07,8.78,27.59,21.09,38.23,34.81,10.45,13.48,18.58,28.58,29.21,41.92s23.16,22.89,38.45,29.16c15.86,6.5,33.42,8.99,50.44,6.89,33.14-4.08,61.84-26.4,76.1-56.31,7.38-15.47,10.38-32.44,9.51-49.52-.88-17.22-4.77-35.61-13.09-50.84-8.01-14.67-21.4-24.47-36.17-31.66-7.62-3.71-15.51-6.82-23.34-10.04-8.73-3.6-17.32-7.51-25.77-11.74-15.31-7.66-32.47-15.58-42.12-30.41-8.89-13.67-9.83-30.88-2.62-45.5,7.32-14.84,21.65-24.5,37.95-26.69,17.29-2.32,33.4,3.85,46.51,14.92,6.28,5.3,11.81,11.36,17.36,17.4,6.05,6.59,12.21,13.09,18.64,19.33,12.89,12.5,27.01,23.6,42.2,33.18,31.12,19.62,66.22,33.01,102.55,38.85,8.82,1.42,17.71,2.38,26.63,2.91.98.06.98-1.47,0-1.53h0Z"/></clipPath><clipPath id="clippath-18"><path class="cls-1" d="m513.82,253.29c-38.37-2.45-76.02-13.31-109.98-31.3-16.5-8.74-32.13-19.14-46.51-31.05-7.01-5.8-13.72-11.96-20.09-18.45-6.37-6.48-12.18-13.45-18.29-20.17-5.74-6.31-11.92-12.2-19.3-16.55-6.84-4.03-14.42-6.74-22.28-7.93-14.4-2.17-29.98.55-41.57,9.77-11.26,8.96-15.5,23.34-13.05,37.27,2.59,14.73,12.04,26.87,23.76,35.69,13.58,10.21,29.67,16.11,45.39,22.14,16.56,6.35,32.73,13.33,46.09,25.3,26.93,24.12,39.84,62.89,32.07,98.28-7.53,34.28-33.88,63.6-66.62,75.84-34.31,12.82-75.14,5.59-103.48-17.47-13.22-10.75-22.86-24.53-31.74-38.9-8.99-14.56-17.94-29.43-31.02-40.75-25.98-22.48-62.81-29.44-95.15-17.76-8.04,2.9-15.65,6.86-22.66,11.74-.8.56-.04,1.88.77,1.32,30.28-21.07,70.58-22.82,102.37-3.99,15.31,9.07,26.57,22.23,36.14,37.03,9.05,14,17.03,28.69,28.32,41.09,23.06,25.34,58.04,38.59,92.13,34.95,33.64-3.59,63.94-24.34,80.88-53.43,17.93-30.78,17.93-68.69,1.46-100.1-7.48-14.27-18.17-26.68-31.3-36.04-14.28-10.19-30.99-15.84-47.18-22.15-15.62-6.09-31.49-13.17-43.54-25.17-11.03-10.99-18.09-26.69-15.3-42.45,2.85-16.11,16.29-26.74,31.72-30.12,16.09-3.52,33.32.29,46.81,9.6,7.51,5.19,13.64,12.05,19.62,18.88,5.99,6.85,12.08,13.57,18.62,19.89,12.99,12.56,27.27,23.8,42.49,33.54,31.35,20.06,66.78,33.83,103.52,39.91,8.9,1.47,17.88,2.49,26.89,3.06.98.06.98-1.46,0-1.53h0Z"/></clipPath><clipPath id="clippath-20"><path class="cls-1" d="m516.18,257.06c-36.8-.46-73.31-9.5-106.22-25.96-16.31-8.16-31.74-18.12-45.82-29.73-13.93-11.49-25.89-24.95-38.82-37.49-11.97-11.61-25.52-23.02-41.62-28.3-13.28-4.35-29.53-4.77-41.51,3.35-13.08,8.86-16.29,25.55-11.86,40.03,5.01,16.38,18.91,27.7,33.62,35.31,17.43,9.02,36.82,13.46,54.17,22.64,14.62,7.73,27.18,19.08,36.75,32.55,18.77,26.42,26.12,60.76,17.13,92.16-8.78,30.66-31.64,56.95-60.56,70.27-17.55,8.08-36.96,10.61-56.14,9.4-18.9-1.19-38.28-5.52-54.41-15.82s-25.37-25.11-34.38-40.62c-8.76-15.09-17.26-30.26-29.76-42.64-11.99-11.88-26.76-21.19-43.16-25.55-15.9-4.23-33.27-3.41-48.54,2.83-7.31,2.98-14.01,7.21-19.8,12.57-.72.67.36,1.75,1.08,1.08,12.83-11.89,30.25-17.69,47.61-17.57,17.56.11,34.44,6.51,48.64,16.65,14.75,10.54,25.7,24.64,34.89,40.09,8.79,14.79,16.63,30.52,28.68,43.03,12.38,12.84,28.83,20.44,46.07,24.28,19.15,4.28,39.64,4.96,58.86.74,30.2-6.63,56.54-27.16,71.93-53.78,15.87-27.46,18.49-60.24,7.74-90.03-5.28-14.63-13.49-28.19-24.1-39.58-11.5-12.35-25.48-21.11-41.02-27.49-17.69-7.25-36.56-12.28-52.38-23.42-14.3-10.07-25.19-25.98-23.09-44.16.97-8.37,5.16-16.13,12.03-21.1,6.15-4.45,13.74-6.43,21.25-6.68,17.06-.57,32.57,7.28,45.73,17.53,14.02,10.92,25.71,24.42,38.37,36.81,12.73,12.46,26.78,23.53,41.92,32.93,30.32,18.82,64.72,31.03,100.14,35.41,8.82,1.09,17.7,1.68,26.58,1.79.98.01.98-1.51,0-1.53h0Z"/></clipPath><clipPath id="clippath-22"><path class="cls-1" d="m506.19,207.53c-19.09-.55-38.08-4.62-55.61-12.24-16.51-7.18-31.46-17.47-44.97-29.3-27.12-23.74-49.7-53.51-81.36-71.69-30.51-17.51-67.89-20.57-100.39-6.55-14.56,6.28-27.75,15.97-37.44,28.58-10.17,13.23-16.28,29.36-18.16,45.9-1.91,16.74.57,34.1,7.81,49.36,6.89,14.52,18.32,26.07,31.75,34.7,14.99,9.64,31.95,15.64,48.45,22.12,16.23,6.37,33.01,13.18,46.5,24.52,13.11,11.03,20.95,26.67,19.45,44.04-1.41,16.27-10.14,31.85-22.6,42.26-13.01,10.87-30.83,15.68-47.44,11.75-15.59-3.68-28.1-14.36-34.85-28.77-3.9-8.34-6.56-17.18-10.61-25.46-3.88-7.93-8.6-15.41-14.05-22.35-10.41-13.26-23.32-24.48-37.52-33.5-31.34-19.91-68.32-28.33-105.03-30.5-9.54-.56-19.09-.71-28.65-.57-.98.01-.98,1.54,0,1.53,38.38-.55,77.75,3.72,112.94,19.99,32.55,15.05,60.89,40.4,74.51,74.09,3.26,8.06,5.89,16.53,10.51,23.96,3.67,5.89,8.55,10.98,14.24,14.96,12.45,8.71,28.29,11.51,43.03,8.03,29.89-7.05,52.55-39.69,46.13-70.28-7.15-34.08-45.56-47.17-74.1-58.26-16.7-6.49-33.69-13.25-47.93-24.38-13.63-10.65-23.5-24.82-28.23-41.51-9.59-33.86,1.37-72.22,28.67-94.72,27.77-22.89,67.57-28.56,101.3-17.11,35.22,11.96,60.18,40.68,85.96,65.96,12.85,12.61,26.31,24.63,41.65,34.15,15.31,9.51,32.18,16.28,49.86,19.85,8.63,1.74,17.39,2.71,26.19,2.97.98.03.98-1.5,0-1.53h0Z"/></clipPath><clipPath id="clippath-24"><path class="cls-1" d="m505.81,201.75c-18.37-.4-36.58-4.22-53.54-11.28-16.2-6.74-30.93-16.64-43.93-28.36-26.25-23.66-46.97-53.97-78.22-71.68-30.3-17.17-68.36-21.42-100.99-8.38-29.99,11.98-54.68,37.92-62.5,69.58-7.97,32.29,1.98,68.11,26.77,90.54,26.73,24.19,63.99,30.67,95.51,46.24,7.66,3.79,15.22,8.24,21.03,14.61,5.79,6.35,8.9,14.58,9.69,23.07,1.52,16.31-4.31,33.22-15.53,45.15-11.14,11.84-27.61,17.57-43.7,15.46-8.88-1.16-17.57-4.63-24.44-10.44-6.55-5.55-11.24-12.8-15.08-20.4-4.1-8.11-7.32-16.63-11.5-24.7-3.99-7.72-8.7-15.02-14.1-21.82-10.35-13.02-23.03-24.15-36.96-33.21-30.41-19.77-66.23-29.1-102.06-32.33-9.27-.84-18.57-1.26-27.87-1.4-.98-.01-.98,1.51,0,1.53,37.58.55,75.87,6.13,109.97,22.7,15.57,7.57,30.1,17.34,42.62,29.33,12.91,12.35,23.14,26.87,30.55,43.12,6.81,14.92,12.84,31.32,26.93,41.02,12.96,8.92,30.3,10.86,45.14,5.96s25.98-15.88,32.27-29.71c6.12-13.45,7.89-30.13,1.9-43.95-6.68-15.42-22.89-23.27-37.46-29.62-16.79-7.31-34.29-12.82-51.03-20.26-15.64-6.95-30.72-15.78-42.07-28.82-11.22-12.88-18.26-28.96-20.74-45.83-2.65-18.01-.01-36.62,7.81-53.08,7.27-15.31,18.6-28.56,32.29-38.52,29.38-21.38,67.73-25.43,101.83-13.89,17.17,5.82,32.33,15.55,45.85,27.51,13.46,11.91,25.29,25.47,37.76,38.39,12.08,12.52,24.91,24.26,39.78,33.4,14.89,9.15,31.43,15.53,48.58,18.88,8.39,1.64,16.91,2.54,25.46,2.72.98.02.98-1.5,0-1.53h0Z"/></clipPath><clipPath id="clippath-26"><path class="cls-1" d="m505.35,196.54c-36.48,1.31-72.54-12.75-98.39-38.52-12.96-12.91-23.53-27.94-35.93-41.35-11.44-12.39-24.48-23.44-39.4-31.42-31.33-16.76-69.6-20.87-102.93-7.58-30.41,12.12-56.07,37.71-64.99,69.61-9.02,32.26-.27,69.8,23.63,93.62,25.36,25.26,62.58,28.69,92.72,45.58,14.04,7.86,27.49,19.44,32.55,35.23,4.95,15.46.95,33.33-9.58,45.58-10.52,12.26-27.58,17.87-43.4,14.94-15.75-2.91-28.51-13.59-35.61-27.72-4.14-8.24-7.02-17.05-10.94-25.39-3.79-8.06-8.36-15.74-13.69-22.88-10.15-13.61-22.73-25.29-36.7-34.91-30.25-20.82-66.29-31.08-102.47-35.18-9.46-1.07-18.97-1.73-28.49-2.09-.98-.04-.98,1.49,0,1.53,38.04,1.44,76.65,7.88,110.78,25.47,15.89,8.19,30.63,18.7,43.14,31.49,12.77,13.05,22.57,28.26,29.49,45.13,3.29,8.02,6.22,16.38,10.99,23.67,3.86,5.89,8.9,11,14.77,14.89,12.35,8.2,27.96,10.45,42.1,5.94,29.86-9.53,42.38-46.85,25.29-72.83-19.06-28.97-56.43-35.04-86.04-47.87-16.03-6.94-30.88-16.36-41.52-30.46-10.46-13.86-16.74-30.78-18.49-48.02-1.84-18.19,1.46-36.6,9.83-52.87,7.86-15.27,19.66-28.4,33.67-38.29,30.28-21.37,69.02-25.71,103.97-14.28,16.98,5.55,32.49,14.6,45.96,26.31,13.53,11.76,24.47,25.84,35.95,39.51,11.18,13.32,23.32,25.51,38.18,34.71,14.92,9.24,31.69,15.49,49.01,18.33,8.76,1.43,17.63,1.99,26.51,1.67.98-.04.98-1.56,0-1.53h0Z"/></clipPath><clipPath id="clippath-28"><path class="cls-1" d="m516.09,260.26c-37.75.48-75.44-8.74-108.76-26.48-16.72-8.91-31.9-20.05-46.15-32.49-14.13-12.34-27.49-25.55-41.93-37.53-13.5-11.21-28.48-22.9-45.87-27.06-7.64-1.83-15.85-1.99-23.18,1.13-6.47,2.75-11.58,7.82-14.57,14.16-6.15,13.01-3.79,28.59,4.21,40.22,9.38,13.65,24.47,22.02,39.47,28.13,17.9,7.29,36.54,12.51,52.76,23.38,14.14,9.47,26.47,21.87,35.64,36.23,9.05,14.16,15.05,30.44,15.64,47.33.61,17.12-2.91,34.25-9.97,49.84-14.01,30.92-41,55.91-73.31,66.55-16.74,5.51-34.64,7.4-52.15,5.45-18.11-2.02-36.48-8.13-50.91-19.5-14.86-11.71-23.71-29.03-33.73-44.68-9.38-14.65-19.48-29.09-32.13-41.14-11.57-11.02-25.17-19.73-40.8-23.59-14.02-3.46-29.35-3.35-42.8,2.3-6.56,2.76-12.43,6.82-17.28,12.02-.67.72.41,1.8,1.08,1.08,22.31-23.94,61.01-18.7,85.63-1.51,14.64,10.23,26.26,24.14,36.4,38.69,5.07,7.28,9.82,14.78,14.51,22.3,4.88,7.83,9.67,15.75,15.45,22.95,22.18,27.65,60.75,36.77,94.71,32.22,33.36-4.47,62.96-22.58,83.05-49.45,19.07-25.51,29.13-59.84,21.25-91.31-7.89-31.5-31.9-58.61-60.32-73.56-17.21-9.06-36.44-13.39-53.72-22.28-14.48-7.44-29.01-18.91-33.32-35.37-3.84-14.68.8-32.63,15.71-39.05,16.92-7.29,36.17,2.78,49.99,12.26,30.97,21.23,55.11,50.82,86.28,71.81,30.36,20.44,65.77,33.25,102.15,37.19,8.96.97,17.97,1.38,26.98,1.27.98-.01.98-1.54,0-1.53h0Z"/></clipPath></defs></svg>