<?xml version="1.0" encoding="UTF-8"?><svg id="slidefrontpage" xmlns="http://www.w3.org/2000/svg" viewBox="0 0 1280 1555.94"><path d="m1280,106.95v2.5c-16.16-5.49-33.11-9.04-50.03-11.12-52.6-6.47-105.76-2.96-158.04-12.85-52.94-10.02-103.64-28.69-155.22-43.8-50.69-14.84-102.53-25.59-154.95-32.03-103.63-12.73-209.27-9.01-311.74,11.01-50.76,9.92-100.75,23.83-149.28,41.69-44.18,16.25-88.9,35.95-123.88,68.25-35.97,33.21-54.8,77.95-58.85,126.27-4.03,47.99,4.09,96.17,13.09,143.15,5.5,28.7,10.72,57.39,15.52,86.14,11.03,66.09,19.8,132.4,24.54,199.49,13.61,192.62-.38,388.37-51.61,574.94-25.26,91.99-59.65,181.52-103.71,266.17-5.12,9.83-10.42,19.55-15.84,29.18v-4.45c16.12-29.26,31.09-59.14,44.86-89.59,40.86-90.34,71.26-185.28,92.16-282.17,21.17-98.11,32.65-198.22,35.84-298.51,3.16-99.56-1.81-199.33-13.83-298.2-3.94-32.39-8.64-64.69-14.09-96.86-2.98-17.68-6.19-35.32-9.62-52.91-9.17-47.06-19.3-94.36-20.47-142.47-1.09-44.78,6.57-90.52,31.75-128.41,24.79-37.31,63.24-62.67,103.15-81.45,44.96-21.15,92.99-36.62,141.01-49.1,50.67-13.16,102.4-22.24,154.51-27.25,104.11-9.99,209.84-3.61,311.9,19.36,53.03,11.93,104.14,30.07,156.32,45.01,26.79,7.67,53.94,14.28,81.57,18.04,28.38,3.85,57.04,4.29,85.61,5.48,33.48,1.39,67.65,4.01,99.33,14.49Z"/></svg>