<?xml version="1.0" encoding="UTF-8"?><svg id="slidefrontpage" xmlns="http://www.w3.org/2000/svg" viewBox="0 0 1280 534.92"><path d="m1280,528.08v6.84c-28.49-57.09-45.87-119.1-76.12-175.39-30.86-57.43-76.62-101.64-131.46-136.24-55.78-35.2-117.18-61.7-178.08-86.61-131-53.59-267.49-93.79-406.64-119.71-65.36-12.18-138.62-26.02-201.7,2.79-53.82,24.58-87.44,75.91-120.2,122.73-33.87,48.42-71.93,92.08-119.31,127.82-14.91,11.24-30.43,21.63-46.49,31.11v-3.44c30.57-18.24,59.2-39.77,85.17-64.1,22.49-21.06,42.78-44.23,61.03-69.05,17.15-23.33,32.94-47.63,50.52-70.65,16.58-21.7,34.84-42.42,56.9-58.72,24.49-18.08,52.94-28.91,83.03-33.09,31.36-4.35,63.24-2.16,94.48,2.11,34.35,4.7,68.48,11.4,102.4,18.5,137.74,28.83,272.52,71.69,401.63,127.66,58.59,25.4,117.47,52.6,169.06,90.69,24.67,18.21,47.54,38.97,66.86,62.82,19.97,24.65,35.61,52.36,48.92,81.07,21.72,46.82,37.53,96.41,60,142.86Z"/></svg>