<?xml version="1.0" encoding="UTF-8"?><svg id="slidefrontpage" xmlns="http://www.w3.org/2000/svg" viewBox="0 0 1280 563.36"><path d="m1280,557.57v5.79c-10.76-17.19-22.03-34.08-33.76-50.66-40.81-57.7-86.15-112.11-131.33-166.42-43.86-52.72-88.65-104.77-137.02-153.44-47.15-47.43-97.59-93.04-155.25-127.42C709.01-2.34,573.48-9.18,446.6,18.91c-130.59,28.92-248.8,93.7-362.4,162.15-28.16,16.97-56.14,34.21-84.2,51.33v-3.53c45.34-27.66,90.48-55.63,136.47-82.2C250.63,80.71,371.69,23.55,503.59,5.69c63.02-8.53,127.59-8.07,189.89,5.47,63.4,13.77,121.45,42.05,173.67,80.25,54.37,39.76,102.93,87.45,148.74,136.65,47.85,51.39,92.66,105.52,137.21,159.76,44.42,54.09,88.16,108.99,125.84,168.08.35.56.71,1.11,1.06,1.67Z"/></svg>