<?xml version="1.0" encoding="UTF-8"?><svg id="slidefrontpage" xmlns="http://www.w3.org/2000/svg" viewBox="0 0 1280 1099.3"><path d="m1280,1097.18v2.12c-110.42-36-236.99-23.98-337.82-88.18-25.5-16.24-48.68-36.88-65.49-62.17-17.69-26.61-26.35-57.18-25.8-89.11.69-39.67,12.95-77.95,20.96-116.5,8.3-39.96,13.34-80.59,15.13-121.37.68-15.51.89-31.04.63-46.57-1.08-64.43-10.25-128.71-27.37-190.85-17.65-64.01-47.83-133.25-117.91-152.17-35.5-9.59-73.1-6.14-109.1-1.57-34.82,4.43-69.44,9.32-104.55,11-67.19,3.2-136.78-2.44-199.21-29.18-30.63-13.12-58.14-31.46-82.76-53.84-26.41-24-49.65-51.2-75.38-75.89-27.27-26.15-57.63-48.09-92.87-62.21C53.36,10.64,26.87,4.48,0,2.3V0c6.74.52,13.47,1.31,20.17,2.36,35.47,5.55,69.92,18.15,100.4,37.14,29.88,18.62,54.88,43.57,79.1,68.84,25.09,26.17,49.9,53.08,79.73,74,28.28,19.84,60.24,33.89,93.5,43,67.89,18.58,139.92,17.67,209.35,9.84,66.68-7.51,144.52-27.48,203.79,15.35,52.94,38.25,71.92,109.33,85.42,169.72,11.38,50.92,17.54,102.99,18.4,155.15.45,27.08-.52,54.18-2.93,81.16-3.5,39.24-10.38,77.89-19.41,116.21-9.5,40.38-20.06,82.67-10.92,124.13,14.35,65.06,72.41,111.04,131.26,135.37,72.67,30.03,152.56,33.55,228.87,48.73,21.14,4.21,42.48,9.4,63.27,16.18Z"/></svg>