<?xml version="1.0" encoding="UTF-8"?><svg id="slidefrontpage" xmlns="http://www.w3.org/2000/svg" viewBox="0 0 1280 1655.53"><path d="m1280,283.57v4.53c-3.78-6.15-7.58-12.29-11.41-18.41-23.69-37.86-48.98-75.03-79.1-108.13-29.27-32.16-63.48-60.49-103.48-78.21-45.22-20.05-94.8-23.37-143.64-22.42-49.66.97-99.55,5.98-149.12.66-24.49-2.63-48.33-8.14-71.38-16.84-23.68-8.94-46.4-20.22-70.13-29-42.91-15.87-96.99-23.28-133.63,10.54-27.67,25.54-36.75,64.67-48.71,98.9-12.27,35.1-28.46,65.69-60.59,86.28-17.92,11.48-37.59,19.86-55.94,30.57-20.02,11.69-37.1,26.57-49.26,46.48-6.02,9.85-10.78,20.31-14.51,31.14-10.3,29.91-12.8,62.73-12.53,93.96.47,52.95,7.48,105.74,15.94,157.93,16.88,104.1,40.05,207.63,38.5,313.68-.8,54.37-6.75,108.51-14.26,162.32-7.23,51.8-14.94,103.77-27.52,154.59-12.09,48.85-29.37,96.03-54.29,139.85-24.46,42.98-54.46,82.46-84.8,121.39-49.96,64.12-100.05,128.13-150.14,192.15v-3.67c32.98-42.18,65.94-84.37,98.92-126.56,32.93-42.13,66.8-83.72,97.59-127.47,30.38-43.18,56.24-88.89,73.66-138.88,17.33-49.78,27.48-101.7,35.74-153.65,8.74-55.02,16.55-110.34,20.47-165.93,3.92-55.49,2.74-110.82-3.64-166.08-12.34-106.96-39.66-211.85-46.79-319.47-2.86-43.17-3.48-87.97,9.46-129.75.46-1.48.93-2.95,1.43-4.41,5.67-16.81,13.77-32.84,24.97-46.66,13.35-16.46,30.71-28.1,49.2-38.09,20.04-10.83,41.29-20.04,59.25-34.3,15.14-12.03,26.2-27.63,34.52-44.96,16.13-33.64,22.41-71.41,40.89-104C515.28,17.08,548.93-.86,588.6.03c49.1,1.1,91.91,27.14,136.82,43.66,96.65,35.53,199.3,3.66,298.51,19.35,88.91,14.06,154.83,74.83,206.18,145.17,17.75,24.32,34.14,49.65,49.89,75.36Z"/></svg>