<?xml version="1.0" encoding="UTF-8"?><svg id="slidefrontpage" xmlns="http://www.w3.org/2000/svg" viewBox="0 0 1280 1151.42"><path d="m1280,0v2.61c-20.53,12.86-40.08,27.29-58.46,43.08-64.01,55-114,126.72-141.71,206.56-33.52,96.58-34.36,199.89-46.68,300.34-4.84,39.48-11.64,79.61-22.67,118.33-13.1,46.01-32.18,90.02-61.05,128.56-27.36,36.53-63.22,65.12-94.15,98.39-16.28,17.5-30.48,36.41-42.08,57.33-11.82,21.31-21.48,43.71-32.85,65.24-19.62,37.16-46.05,68.56-81.6,91.4-33.74,21.67-72.84,34.88-112.75,38.52-87.65,8.01-173.21-30.24-235.44-90.39-58.16-56.21-102.25-130.42-174.9-170.03-54.18-29.54-115.79-31.73-175.66-21.03v-2.15c28.36-5.05,57.2-7.25,85.9-4.97,42.86,3.4,83.06,17.98,117.79,43.33,64.96,47.4,106.53,118.94,167.56,170.61,70.49,59.67,168.21,89.42,258.76,64.3,42.17-11.69,81.53-34.43,111.35-66.64,32.68-35.29,48.11-80.89,71.44-122.09,22.56-39.83,55.8-70.29,88.26-101.88,33.41-32.52,61.69-67.77,81.68-110.14,10.46-22.18,18.75-45.04,25.43-68.36,19.56-68.16,25.45-140.22,32.01-210.57,8.75-93.64,20.77-187.79,65.01-272.22,37.26-71.1,92.43-132.65,158.8-177.76,5.27-3.58,10.61-7.04,16.01-10.37Z"/></svg>