<?xml version="1.0" encoding="UTF-8"?><svg id="slidefrontpage" xmlns="http://www.w3.org/2000/svg" viewBox="0 0 1280 558.13"><path d="m1280,553.04v5.09c-47.07-78.99-121.79-143.2-180.32-212.65-41.91-49.72-77.74-104.18-119.36-154.13-40.93-49.12-88.28-91.61-144-123.36-56.05-31.93-118.08-52.48-182.05-60.66-65.75-8.41-132.61-4.15-197.52,8.52-132.68,25.91-254.87,85.62-371.95,151.22-28.37,15.89-56.58,32.13-84.8,48.35v-3.42c46.22-26.6,92.43-53.24,139.48-78.29C257.58,70.81,383.88,17.85,518.06,3.55c65.07-6.93,131.35-4.09,194.97,11.75,60.42,15.06,117.91,41.8,168.48,78.11,51.6,37.04,93.27,84.29,131.64,134.51,41.32,54.07,80.83,108.82,127.29,158.74,47.55,51.09,101.74,105.05,139.56,166.38Z"/></svg>