<?xml version="1.0" encoding="UTF-8"?><svg id="slidefrontpage" xmlns="http://www.w3.org/2000/svg" viewBox="0 0 1280 1115.65"><path d="m1280,0v2.71c-59.91,70.78-95.19,164-104.72,254.92-8.7,82.96-3.12,169.37-30.06,249.32-1.37,4.1-2.83,8.17-4.39,12.23-27.07,70.63-78.43,127.66-127.34,183.93-26.07,29.99-52,60.29-74.25,93.28-24.66,36.58-44.24,76.22-66.87,114.03-40.47,67.63-95.3,123.59-165.51,160.33-69.99,36.64-149.84,51.43-228.33,42.24-39.54-4.64-78.33-15.11-114.75-31.19-37.6-16.6-71.56-39.68-103.41-65.47-63.64-51.52-120.49-115.07-195.54-150.54-20.3-9.6-42.29-17.37-64.83-22.21v-2.73c34.21,7.42,67.3,21.74,96.12,39.2,71.2,43.13,126.49,107.43,193.61,156.04,69.67,50.46,152.98,78.2,239.21,77.35,81.07-.81,160.32-27.67,225.99-75.04,32.49-23.44,61.55-51.75,85.55-83.84,26.43-35.34,46.56-74.75,68.39-112.95,20.05-35.09,42.67-68.02,68.31-99.27,24.8-30.23,51.21-59.09,76.26-89.12,25.12-30.11,48.99-61.56,67.55-96.2,8.66-16.18,15.79-32.91,21.58-50.07,7.88-23.3,13.31-47.41,16.83-72,12.03-84.07,5.44-170.15,26.96-252.91,17.08-65.66,48.94-129.95,93.64-182.04Z"/></svg>