<?xml version="1.0" encoding="UTF-8"?><svg id="slidefrontpage" xmlns="http://www.w3.org/2000/svg" viewBox="0 0 1280 1570.37"><path d="m1280,123.2v2.83c-33.06-18.89-71.13-26.6-109.42-31.07-51.95-6.08-103.54-11.74-155.01-21.41-52.67-9.89-104.92-21.83-157.31-33.11C752.65,17.7,644.89-2.76,536.34,3.49c-54.09,3.11-108.74,13.39-157.34,38.2-37.18,18.97-69.65,46.11-96.23,78.18-54.99,66.35-85.13,151.27-97.12,235.82-5,35.3-6.93,70.79-6.89,106.34.09,75.14,8.94,150.54,16.02,225.01,9.58,100.94,13.26,201.42,3.13,302.47-9.36,93.51-28.54,186.01-56.99,275.57-34.03,107.16-81.37,210.04-140.92,305.29v-4.09c23.02-37.03,44.19-75.23,63.43-114.35,42.85-87.12,76.21-178.91,99.5-273.17,23.29-94.27,36.49-191.05,38.93-288.14,2.76-109.58-12.39-217.84-20.67-326.84-2.57-33.8-4.3-67.81-4.3-101.75.01-66.85,6.75-133.45,27.1-197.67,24.8-78.26,68.77-153.02,136.27-201.64C423.36,2.86,531.18-4.58,630.19,1.95c108.39,7.14,214.17,33.65,320.08,56.14,54.87,11.66,110.03,22.35,165.78,28.82,48.64,5.64,99.28,7.25,144.94,26.76,6.64,2.84,12.97,6.02,19.01,9.53Z"/></svg>