<?xml version="1.0" encoding="UTF-8"?><svg id="slidefrontpage" xmlns="http://www.w3.org/2000/svg" viewBox="0 0 1280 1129.65"><path d="m1280,0v2.57c-27.63,15.05-54.29,31.82-79.41,50.86-62.29,47.2-110.4,108.24-139.6,180.87-56.51,140.57-49.07,296.55-93.16,440.43-5.85,19.11-12.65,37.97-20.6,56.32-6.39,14.75-13.53,29.18-21.53,43.14-20.68,36.08-47.83,67.24-74.87,98.61-14.96,17.35-29.75,34.9-42.92,53.66-11.93,16.98-22.57,34.81-33.31,52.55-20.75,34.28-42.29,69.06-73.06,95.37-57.61,49.27-138.68,64.91-211.94,49.66-79.79-16.6-144.95-65.63-197.78-125.75-27.72-31.54-54.55-64.87-89.79-88.45-33.94-22.7-73.54-35.28-113.75-40.94-29.27-4.12-58.82-4.68-88.28-3.17v-2.31c11.04-.56,22.1-.82,33.16-.71,39.4.39,79.21,5.35,116.48,18.59,37.21,13.22,69.06,35.08,96.72,63.07,28.49,28.83,52.76,61.56,82.16,89.52,59.53,56.64,139.24,95.79,222.7,93.51,39.55-1.08,79.07-11.05,113.71-30.34,37.16-20.69,64.67-51.85,87.73-87.07,22.51-34.39,41.77-70.75,67.11-103.26,27.42-35.19,59.11-66.93,84.8-103.49,15.97-22.73,29.12-46.97,40.09-72.19,18.71-42.97,31.08-88.77,40.27-134.75,28.69-143.58,28.07-301.17,107.34-429.39,45.58-73.72,112.82-126.29,187.73-166.91Z"/></svg>