<?xml version="1.0" encoding="UTF-8"?><svg id="slidefrontpage" xmlns="http://www.w3.org/2000/svg" viewBox="0 0 1280 538.6"><path d="m1280,532.23v6.37c-30.64-54.17-57.8-110.94-90.96-162.46-34.95-54.29-78.54-101.61-129.35-141.41-50.2-39.33-105.9-71.19-163.49-98.33-58.34-27.5-118.82-50.2-179.84-70.98-70.49-24.01-142.37-45-216.18-55.89C432.84-.4,359.93-2.01,297.11,27.98c-60.04,28.66-100.56,83.43-144.54,131.16C107.73,207.8,56.22,249.97,0,284.46v-3.38c16.88-10.41,33.33-21.52,49.29-33.29,27.19-20.06,52.96-42.05,77.02-65.77,22.87-22.56,43.64-47.02,65.14-70.86,21.34-23.67,43.7-46.77,69.73-65.35,26-18.55,55.37-31.24,86.52-38.17,66.2-14.73,135.85-5.93,201.49,7.53,72.09,14.78,142.35,37.67,211.5,62.6,59.09,21.31,117.45,45.06,173.29,73.93,55.06,28.47,107.76,62.06,154.46,102.96,49.3,43.18,88.92,94.22,121.99,150.65,23.86,40.71,45.72,84.47,69.57,126.92Z"/></svg>