<?xml version="1.0" encoding="UTF-8"?><svg id="slidefrontpage" xmlns="http://www.w3.org/2000/svg" viewBox="0 0 1280 512.24"><path d="m1280,505.31v6.93c-29.34-58.04-52.39-120.51-86.83-174.59-16.77-26.34-36.47-50.75-60.01-71.34-24.59-21.5-52.47-38.84-81.11-54.37-59.44-32.22-121.66-59.92-184.45-84.9-125.7-49.99-256.55-87.01-389.81-110.22-64.82-11.28-137.48-26.48-199.54,3.49-49.27,23.8-83.63,69.02-115.28,112.03-15.57,21.16-30.83,42.59-47.66,62.78-19.48,23.38-41.09,44.99-64.43,64.52-16.18,13.55-33.19,26.07-50.88,37.51v-3.54c32.78-21.41,63.11-46.54,90.18-74.85,38.53-40.28,67.63-87.93,103.15-130.66C228.22,46.13,270.88,10.84,326.41,2.47c31.85-4.8,64.22-1.88,95.93,2.54,33.94,4.73,67.73,10.65,101.33,17.32,132.82,26.34,262.88,66.45,387.5,119.41,31.12,13.23,61.9,27.26,92.3,42.08,29.41,14.34,58.74,29.13,86.37,46.73,26.33,16.76,50.86,36.25,71.62,59.64,19.88,22.41,36.34,47.64,50.78,73.82,24.46,44.32,44.28,94.11,67.76,141.3Z"/></svg>