<?xml version="1.0" encoding="UTF-8"?><svg id="slidefrontpage" xmlns="http://www.w3.org/2000/svg" viewBox="0 0 1280 1140.65"><path d="m1280,0v2.68c-14.58,7.09-29.06,14.18-43.1,21.65-74.87,39.83-138.67,96.87-184.68,168.33-23.35,36.27-41.79,75.59-54.59,116.79-13.15,42.31-20.77,86.12-26.44,129.99-11.08,85.67-14.43,173.07-37.41,256.76-8.6,31.33-20.16,61.93-35.62,90.49-4.37,8.09-9.06,16.01-14.09,23.74-26.2,40.33-60.77,74.33-87.76,114.08-25.42,37.46-42.42,79.83-67.51,117.48-23,34.53-53.59,62.15-91.57,79.27-36.01,16.25-76.47,22.82-115.71,17.68-33.87-4.43-65.98-17.64-94.94-35.46-59.67-36.72-106.44-90.33-157.97-136.99-26.46-23.96-54.46-46.67-85.86-63.88-38.63-21.18-79.94-29.4-123.51-33.33-19.7-1.77-39.62-3.17-59.24-5.96v-2.13c48.33,6.92,99.72,5.99,144.67,21.83,64.71,22.8,115.63,71.53,164.09,118.19,49.32,47.5,100.06,98.87,165.47,123.42,77.45,29.07,168.27,9.74,226-50.14,31.53-32.71,50.25-74.83,71.86-114.17,21.74-39.57,50-73.29,78.28-108.21,16.88-20.83,31.96-42.45,44.77-65.42,9.17-16.44,17.18-33.58,23.85-51.62,14.66-39.64,23.44-81.18,29.76-122.89,12.95-85.58,15.65-172.68,34.55-257.35,17.82-79.85,53.2-153.98,106.42-216.36,26.41-30.96,56.68-58.63,89.96-82.04,31.51-22.16,65.85-39.46,100.32-56.43Z"/></svg>