<?xml version="1.0" encoding="UTF-8"?><svg id="slidefrontpage" xmlns="http://www.w3.org/2000/svg" viewBox="0 0 1280 1579.72"><path d="m1280,129.51v3c-17.71-13.83-37.65-24.91-60.2-32.16-26.44-8.49-54.2-11.51-81.73-14.04-26.46-2.43-52.85-5.09-79.15-8.94-54.01-7.9-107.45-19.16-160.81-30.55C792,24.15,684.51-.02,575.34,2.39c-52.8,1.16-110.37,6.4-159.03,28.43-48.58,21.99-78.17,68.84-107.59,111.15-60.17,86.54-110.98,181.95-120.71,288.57-.58,6.34-1.04,12.67-1.39,19-5.72,104.09,18.27,207.44,25.37,310.97,6.31,92.12,2.84,184.87-9.92,276.32-12.87,92.25-35.24,183.18-66.76,270.82-31.32,87.05-71.67,170.89-120.74,249.33-4.77,7.63-9.63,15.21-14.57,22.74v-4.13c18.72-28.69,36.25-58.16,52.56-88.28,45.56-84.13,81.67-173.32,108-265.28,26.26-91.73,42.8-186.23,49.22-281.42,3.19-47.4,3.88-94.98,1.99-142.45-2.05-51.7-7.92-102.98-14.42-154.28-7.27-57.35-14.61-114.98-13.7-172.9.11-7.17.38-14.31.79-21.44,2.68-46.34,11.74-91.74,27.82-135.52,17.62-47.98,42.15-93.15,69.69-136.1,13.84-21.57,28.47-42.63,43.52-63.37,14.49-19.97,28.99-40.42,47.07-57.34,36.71-34.36,87.52-45.5,135.89-51.97,53.92-7.22,108.6-6.42,162.65-1,108.96,10.93,215.05,39.56,322.43,59.8,28.23,5.32,56.57,10.08,85.05,13.79,27.25,3.56,54.66,5.37,81.96,8.5,43.57,5,84.44,16.67,119.48,43.18Z"/></svg>