<?xml version="1.0" encoding="UTF-8"?><svg id="slidefrontpage" xmlns="http://www.w3.org/2000/svg" viewBox="0 0 1280 501.41"><path d="m1280,494.99v6.42c-29.62-51.16-52.04-107.56-82.98-157.14-13.45-21.56-28.59-42.11-46.33-60.35-20.97-21.55-45.08-39.77-70.51-55.71-52.17-32.68-109.45-57.83-166.04-81.74-118.16-49.93-241.06-88.65-366.49-115.51-31.27-6.69-62.69-12.65-94.24-17.86-32.3-5.34-64.92-10.42-97.75-10.09-31.68.32-62.74,6.48-91.13,20.81-24.45,12.34-46.11,29.53-65.53,48.73C128.83,141.97,86,242.95,0,295.03v-3.49c3.68-2.28,7.29-4.65,10.84-7.14C102.44,220.34,141.67,106.12,231.9,40.38c21.74-15.84,46.13-28.08,72.35-34.41,30.8-7.44,62.87-6.98,94.2-3.71,63.58,6.66,127.03,20.01,189.21,34.61,125.07,29.38,247.34,70.6,364.67,122.94,55.17,24.6,111.28,50.32,159.89,86.64,42.01,31.4,73.67,71.26,99.46,116.6,23.95,42.09,43.86,88.76,68.32,131.94Z"/></svg>