<?xml version="1.0" encoding="UTF-8"?><svg id="slidefrontpage" xmlns="http://www.w3.org/2000/svg" viewBox="0 0 1280 567.92"><path d="m1280,562.68v5.24c-49.85-73.17-103.38-143.83-160.33-211.61-84.55-100.61-177.05-197.83-290.2-266.51C717.7,21.96,582.74-16.01,452.55,12.5c-66.2,14.49-126.04,47.16-184.88,79.57-61.82,34.05-123.2,68.9-184.12,104.53-27.96,16.35-55.8,32.9-83.55,49.6v-3.57c46.05-27.65,92.36-54.85,138.93-81.59,61.08-35.07,122.25-70.5,184.96-102.58C381.93,28.78,442.47,6.49,507.9,1.36c129.66-10.16,255.76,37.77,361.14,110.53,109.8,75.82,200.24,176.72,283.73,279.87,44.7,55.24,87.14,112.27,127.23,170.92Z"/></svg>