<?xml version="1.0" encoding="UTF-8"?><svg id="slidefrontpage" xmlns="http://www.w3.org/2000/svg" viewBox="0 0 1280 1554.65"><path d="m1280,106.58v2.45c-52.46-18.97-115.2-18.76-168.85-23.07-101.61-8.18-195.71-49.58-295.16-68.53C711.94-2.38,604.32-.98,499.31,9.86c-94.81,9.79-192.58,32.46-266.93,95.62-33.34,28.32-60.58,63.91-75.97,105.07-17.37,46.49-19.22,96.91-15.15,145.89,3.3,39.85,10.36,79.21,16.96,118.62,1.81,10.81,3.59,21.63,5.25,32.46,7.8,51,13.72,102.3,17.58,153.75,15.29,203.37-1.56,410.11-59.95,605.96-29.76,99.83-70.15,196.62-121.1,287.42v-4.41c64.92-116.52,112.36-242.81,142.51-372.66,48.56-209.18,52.45-427.3,23.14-639.56-2.87-20.79-6.49-41.8-10.19-62.96-13.44-76.66-27.9-155.16-11.16-231.21,18.7-84.95,82.07-149.49,158.66-186.75C393.69,12.97,499.2,4.27,598.62.79c53.22-1.86,106.64-.58,159.57,5.58,51.26,5.97,101.15,17.51,150.69,31.71,50.02,14.32,99.8,30.15,151.14,39.17,52.14,9.17,105.17,7.41,157.53,14.32,21.47,2.84,42.57,7.47,62.45,15.01Z"/></svg>