<?xml version="1.0" encoding="UTF-8"?><svg id="slidefrontpage" xmlns="http://www.w3.org/2000/svg" viewBox="0 0 1280 1119.35"><path d="m1280,0v3.42c-51.9,51.5-92.57,112.48-111.94,186.32-24.13,91.94-6.47,188.02-20.79,281.16-3.68,23.9-9.68,47.39-17.91,70.08-6.12,16.88-13.46,33.31-21.99,49.15-20.45,37.96-47.6,70.55-78.55,100.37-32.72,31.54-65.95,61.6-92.64,98.67-24.64,34.23-45.06,71.21-66.56,107.42-21.16,35.65-43.57,70.9-71.68,101.55-26.8,29.2-58.44,53.95-93.02,73.3-70.58,39.48-152.67,55.55-232.85,44.5-39.56-5.45-78.23-17.15-114.18-34.55-38.08-18.43-71.42-43.5-102.2-72.33-32.21-30.17-62.46-62.38-98.55-88.08-32.59-23.19-68.47-41.94-106.31-54.94-16.59-5.7-33.6-10.25-50.83-13.49v-2.38c30.09,5.72,59.51,15.38,87.2,27.95,34.5,15.65,66.9,35.96,96.07,60.13,34.17,28.31,63.69,61.71,97.6,90.32,66.99,56.55,153.34,88.37,241.06,88.65,84.19.26,167.46-29.7,233.15-82.18,67.08-53.6,105.11-129.32,149.01-201.13,22.18-36.29,46.69-70.53,76.8-100.7,32.57-32.64,68.3-62.07,95.96-99.28,21.08-28.35,38.03-59.77,50.17-92.95,2.75-7.51,5.25-15.12,7.5-22.8,13.29-45.43,16.25-92.65,16.91-139.74.67-46.78-.64-93.78,5.2-140.31,5.02-39.98,16.19-78.58,33.82-114.82,22.97-47.22,53.71-87.74,89.55-123.31Z"/></svg>