<?xml version="1.0" encoding="UTF-8"?><svg id="slidefrontpage" xmlns="http://www.w3.org/2000/svg" viewBox="0 0 1280 1149.49"><path d="m1280,0v2.58c-34.88,20.1-68.54,42.32-100.73,66.51-66.95,50.34-128.51,110.48-151.62,193.45-12.13,43.57-15.39,88.93-20.27,133.72-5.12,46.99-11.5,93.85-19.12,140.5-7.15,43.83-14.65,87.87-25.61,130.94-8.86,34.84-20.61,69.35-38.41,100.69-2.09,3.7-4.28,7.36-6.55,10.96-23.05,36.56-55.95,65.15-81.64,99.65-20.63,27.69-36.55,58.5-52.15,89.19-29.47,57.95-59.73,121.3-117.76,155.87-65.34,38.93-147.92,28.87-214.51-1.34-75.24-34.13-134.53-94.61-195-149.18-30.89-27.88-62.67-55.53-99.07-76.05-18.59-10.48-38.36-18.97-59.11-24.1-22.69-5.61-46.13-6.95-69.41-7.73-9.65-.32-19.35-.56-29.04-.97v-1.89c38.88,1.84,78.69,1.01,114.52,12.9,75.77,25.14,133.58,87.44,191.26,139.62,60.77,54.96,126.85,108.36,208.85,126.04,38.12,8.22,78.54,8.59,115.88-3.59,34.75-11.34,64-33.82,86.96-61.93,43.48-53.22,65.62-119.92,102.45-177.38,21.28-33.21,49.42-60.38,74.33-90.7,10.22-12.45,19.19-25.62,27.08-39.37,13.45-23.43,23.76-48.57,31.75-74.72,12.28-40.18,19.85-81.71,27.15-123.03,8.47-47.91,15.63-96.06,21.46-144.37,9.99-82.92,11.5-169.99,58.9-242.12,43.27-65.84,110.39-115.42,175.77-157.58,14.32-9.24,28.87-18.1,43.64-26.57Z"/></svg>