<?xml version="1.0" encoding="UTF-8"?><svg id="slidefrontpage" xmlns="http://www.w3.org/2000/svg" viewBox="0 0 1280 1469.13"><path d="m1280,107.44v2.03c-24.68-6.38-50.41-9.3-75.84-10.78-52.2-3.05-104.09-3.21-155.88-11.43-51.59-8.19-101.74-22.12-150.75-40.08-48.84-17.89-97.4-37.34-149.55-42.92-54.67-5.86-109.79.96-163.71,10.1-51.9,8.81-103.51,19.42-154.73,31.61-51.22,12.19-102.04,26.04-152.37,41.51-25.73,7.9-51.32,16.23-76.77,24.98-22.19,7.63-44.69,15.03-65.85,25.26-21.15,10.23-41.15,23.82-54.76,43.32-13.62,19.51-19.98,43.05-22.06,66.52-4.25,47.83,5.54,97.03,15.36,143.62,11.09,52.62,25.61,104.63,38.1,157.02,10.52,44.18,19.59,88.63,23.93,133.95,4.92,51.39,1.44,102.01-6.26,152.94-7.98,52.79-17.8,105.23-18.34,158.8-1.01,101.28,19.21,204.01-16.96,301.77-22.93,61.97-60.4,116.6-93.56,173.47v-5.2c46.19-79.37,99.7-155.26,110.5-249.11,6.07-52.68,1.83-105.78-.69-158.54-2.5-52.59-1.06-104.07,6.62-156.2,7.91-53.71,18.73-107.19,19.07-161.68.32-53.07-7.94-105.75-19.2-157.49-2.38-10.91-4.91-21.81-7.56-32.71-21.01-86.68-48.63-173.23-53.65-262.43-2.32-41.15,2.9-85.62,31.89-117.24,30.5-33.29,78.15-46.45,119.47-60.51,101.89-34.7,206.08-62.69,311.65-83.7,51.67-10.29,103.92-20.21,156.58-23.48,53.75-3.33,105.4,3.27,156.55,20.06,49.95,16.4,98.17,37.05,149.24,50.07,53.1,13.55,107.38,20.9,162.11,23.07,43.37,1.72,92.64,2.46,137.42,13.4Z"/></svg>