<?xml version="1.0" encoding="UTF-8"?><svg id="slidefrontpage" xmlns="http://www.w3.org/2000/svg" viewBox="0 0 1280 1152.92"><path d="m1280,0v2.52c-4.52,2.16-9.02,4.33-13.49,6.51-33.75,16.48-66.89,34.22-97.18,56.54-32.83,24.19-62.38,52.81-87.81,84.67-53.52,67.04-84.79,145.81-98.71,230.06-15.23,92.18-16.94,185.89-39.58,276.93-10.66,42.9-25.28,84.99-45.76,124.24-5.9,11.3-12.36,22.2-19.23,32.82-17.23,26.66-37,51.57-56.67,76.65-26.25,33.48-49.04,68.17-69.54,105.42-17.68,32.15-35.05,65.02-58.74,93.27-23.09,27.54-52.55,49.1-87.73,58.06-38.61,9.84-79.85,5.02-117.14-7.9-82.27-28.49-141.85-95.83-204.73-152.59-32.12-29-66.32-56.51-105.19-75.98-20.49-10.27-42.12-17.96-64.6-22.5-24.59-4.97-49.68-6.62-74.62-8.8-13.13-1.14-26.29-2.47-39.28-4.49v-2.33c44.7,6.83,92.44,6.19,134.39,18.29,80.05,23.09,140.53,84.43,199.67,139.69,62.67,58.54,134.64,117.86,224.83,119.55,41.41.77,80.76-12.96,111.7-40.63,27.29-24.4,46.73-56.09,64.53-87.71,18.64-33.1,36.02-66.78,58.2-97.74,26.69-37.25,57.51-71.45,82.36-110.03.05-.08.1-.15.15-.23,47.55-73.94,69.91-160.65,82.34-246.82,13.17-91.38,13.77-185.58,42.98-273.99,23.88-72.29,66.02-138.34,120.92-191.01,26.93-25.84,56.91-48.27,89.19-66.97,22.33-12.94,45.48-24.34,68.74-35.5Z"/></svg>