<?xml version="1.0" encoding="UTF-8"?><svg id="slidefrontpage" xmlns="http://www.w3.org/2000/svg" viewBox="0 0 1280 1141.81"><path d="m1280,0v2.3c-30.26,19.02-59.16,40.15-86.16,63.3-32.83,28.16-62.34,60.33-84.15,97.86-22.71,39.1-37.35,82.28-48.57,125.91-34.55,134.4-40.62,278-89.38,408.43-7.48,20.02-15.98,39.74-25.73,59.06-18.5,36.66-41.96,69.82-68.24,101.28-28.45,34.05-58.01,66.92-82.47,104.08-22.04,33.51-41.83,68.81-68.27,99.19-25.2,28.96-56.62,51.15-92.56,64.76-71.83,27.22-152.02,17.9-218.13-20.08-33.91-19.48-63.05-45.7-87.19-76.39-25.82-32.81-48.22-67.78-80.39-95-59.11-50.01-136.66-74.68-213.27-78.13-11.91-.54-23.73-.44-35.49.16v-2.51c28.59-1.13,57.3.65,85.52,5.4,71.83,12.08,141.42,44.37,191,98.67,28.94,31.7,50.22,69.56,80.77,99.91,28.78,28.58,63.6,51.31,101.65,65.46,75.63,28.14,163.73,19.21,229.32-29.13,33.98-25.05,58.19-59.96,80.63-95.13,22.28-34.91,44.73-68.86,71.41-100.63,28.48-33.92,58.38-66.73,81.99-104.38,19.07-30.42,34.43-62.98,46.93-96.59,1.78-4.78,3.5-9.58,5.17-14.4,26.45-76.52,39.5-156.83,53.05-236.4,13.89-81.55,26.66-165.8,59.27-242.39,16.38-38.46,38.75-73.45,67.24-104.05,28.63-30.75,61.81-57.11,96.29-80.97,9.77-6.76,19.69-13.29,29.76-19.59Z"/></svg>