<?xml version="1.0" encoding="UTF-8"?><svg id="slidefrontpage" xmlns="http://www.w3.org/2000/svg" viewBox="0 0 1280 549.16"><path d="m1280,543.78v5.38c-8.09-11.77-16.85-23.11-26.08-34.08-41.71-49.52-90.16-92.81-131.78-142.47-78.22-93.3-144.85-199.46-242.48-274.5C773.06,16.16,637.13-8.17,505.6,7.71,363.42,24.88,231.42,87.29,107.37,155.73c-36,19.86-71.66,40.41-107.37,60.89v-3.4c54.62-31.36,109.17-62.87,165.08-91.8C288.54,57.53,421.65,4.99,562.2.34c65.95-2.18,132.71,5.99,195.15,27.85,58.57,20.51,111.06,53.6,157.06,95.03,92.83,83.62,157.83,192.2,241.82,283.85,41.47,45.26,88.19,86.43,123.77,136.71Z"/></svg>