<?xml version="1.0" encoding="UTF-8"?><svg id="slidefrontpage" xmlns="http://www.w3.org/2000/svg" viewBox="0 0 458.46 1132.51"><path d="m442.03,856.55c-21.76,50.83-63.16,90.74-108.54,120.97-52.79,35.18-112.7,57.33-171.67,79.73-55.92,21.23-111.03,43.71-161.82,75.26v-2.71c3.82-2.4,7.67-4.75,11.55-7.05,56.07-33.32,117.45-55.19,178.09-78.5,57.24-21.99,114.33-46.03,163.44-83.42,44.1-33.58,82.13-78.16,96.35-132.75,15.59-59.86.67-121.46-15.69-179.45-12.2-43.29-25.74-86.75-31.08-131.35-1.87-15.61-2.74-31.35-2.2-47.28,2.17-64.14,22.42-134.05-8.96-194.49-27.15-52.29-87.26-70.86-131.89-104.13-47.76-35.6-80.7-87.45-128.9-122.33-22.68-16.42-48.36-29.14-75.06-37.52C37.81,5.93,18.84,2.04,0,2.21V0c3.53-.03,7.07.09,10.61.34,53.3,3.7,105.86,30.3,144.66,66.23,22.55,20.89,42.61,44.24,64.2,66.1,21.97,22.25,45.72,41.24,72.57,57.26,23.91,14.26,48.93,27.29,70.08,45.61,21.22,18.37,35.7,41.85,42.73,69.03,17.02,65.79-6.72,133.11-1.42,199.62.35,4.36.79,8.72,1.33,13.09,13.71,112.41,85.43,226.79,37.27,339.27Z"/></svg>