<?xml version="1.0" encoding="UTF-8"?><svg id="slidefrontpage" xmlns="http://www.w3.org/2000/svg" viewBox="0 0 1280 1566.18"><path d="m1280,161.77v3.4c-13.81-16.3-28.82-31.51-45.25-45.18-35.31-29.38-76.75-49.77-122.45-56.25-53.1-7.53-107.16,0-160.48.47-104.43.94-209.01-12.94-309.57-41.12-46.74-13.09-102.04-35.96-147.38-6.67-32.8,21.2-47.94,60.63-63.86,94.47-7.96,16.91-16.32,33.72-27.2,48.97-11.74,16.44-25.84,31.03-40.71,44.65-31.03,28.42-65.86,52.97-93.43,85.01-25.74,29.91-40.19,65.43-47.54,103.17-2.12,10.84-3.65,21.87-4.69,33-4.81,51.4-1.64,103.38,4.29,154.54,12.27,105.94,37.34,210.6,38.04,317.68.66,100.4-18.32,200.35-50.95,295.1-46.86,136.04-121.38,259.56-208.82,373.17v-3.55c42.97-55.97,82.77-114.38,117.73-175.71,51.33-90.04,91.95-186.46,115.98-287.42,12.16-51.08,20.04-103.2,22.76-155.65,2.75-53-.51-105.88-7.11-158.49-13.41-106.94-38.63-213.15-36.26-321.53.52-23.62,2.2-47.68,6.56-71.14,4.43-23.91,11.65-47.17,23.24-68.67,20.16-37.37,52.96-65.16,84.98-92.06,32.73-27.5,65.43-55.43,86.58-93.25,18.4-32.89,29.9-70.11,53.38-100.01,10.57-13.47,23.73-24.76,39.6-31.46,21.31-8.99,44.84-8.51,67.23-4.49,25.26,4.52,49.63,13.11,74.33,19.88,25.67,7.03,51.6,13.13,77.71,18.29,53.7,10.62,108.17,17.26,162.84,19.85,53.69,2.54,106.84-1.25,160.46-2.29,47.88-.93,94.85,4.69,137.76,27.17,35.59,18.65,66.16,45.72,92.23,76.12Z"/></svg>