<?xml version="1.0" encoding="UTF-8"?><svg id="slidefrontpage" xmlns="http://www.w3.org/2000/svg" viewBox="0 0 1280 1600.04"><path d="m1280,227.65v4.41c-22.38-32.43-47.16-63.4-76-90.31-32.42-30.25-70.46-55.17-113.43-67.35-52.85-14.98-108.23-8.76-162.14-4.84-51.61,3.74-101.72,2-152.5-8.42-50.6-10.38-99.79-26.37-149.44-40.39-25.18-7.11-51.46-15.87-77.63-18.25-25.57-2.33-47.33,7.78-63.5,27.36-29.46,35.69-31.16,83.74-50.46,124.28-18.89,39.67-56.17,58.41-91.73,80.61-20.29,12.68-38.6,27.38-53.13,46.54-13.63,17.97-23.8,38.43-30.98,59.77-1.52,4.51-2.9,9.05-4.14,13.62-12.43,45.56-11.77,93.63-7.05,140.38,5.71,56.7,15.38,113.04,23.32,169.45,15.05,107.02,27.61,215.34,20.06,323.53-6.61,94.74-30.76,186.76-69.12,273.52-54.91,124.17-134.5,234.93-222.13,338.48v-3.61c104.75-124.13,199.1-259.77,250.62-414.54,33.39-100.31,44.04-204.93,39.53-310.27-4.83-112.92-24.57-224.35-39.66-336.16-7.84-58.05-13.03-122.84,2-180.78,8.69-33.55,24.17-64.8,49.83-91.11,30.71-31.47,74.3-45.28,105.78-75.64,35.52-34.26,37.25-84.44,56.19-127.31,7.68-17.38,18.32-34.26,33.45-46.09,16.93-13.25,36.97-16.54,57.95-13.45,26.18,3.86,52.1,11.98,77.49,19.23s50.65,14.92,76.07,22.01c51.33,14.33,103.78,26.42,157.3,27.34,54.28.94,108.2-8.93,162.49-6.74,46.17,1.87,89.71,14.77,128.68,39.71,36.75,23.52,67.87,54.98,95.02,88.9,9.41,11.76,18.49,23.81,27.26,36.12Z"/></svg>