<?xml version="1.0" encoding="UTF-8"?><svg id="slidefrontpage" xmlns="http://www.w3.org/2000/svg" viewBox="0 0 1280 1103.77"><path d="m1280,1101.09v2.68c-39.87-14.51-81.23-24.85-123.51-31.54-39.58-6.27-79.61-10.86-118.32-21.57-31.03-8.59-60.61-21.65-87.36-39.64-49.2-33.1-89.36-83.05-99.92-142.5-6.85-38.53-1.26-77.75,5.77-115.82,7.44-40.21,15.16-80.1,18.09-120.96,1.59-22.21,1.99-44.42,1.22-66.56-1.84-53.52-10.45-106.64-25.34-158.3-5.4-18.75-11.55-37.27-18.33-55.56-6.53-17.62-12.96-33.51-25.2-47.99-10.43-12.33-22.31-23.37-34.23-34.24-13.49-12.31-28-22.35-45.06-29.09-35.37-13.99-71.8-11.19-108.82-8.41-39.01,2.94-78.07,5.05-117.17,6.19-69.63,2.04-141.13,1.99-203.76-33.02-29.96-16.74-52.9-40.97-73.43-68.11-21.46-28.36-41.27-58.18-69.02-80.94C112.24,20.14,55.93,1.43,0,2.37V.04C2.52-.01,5.03-.01,7.55.03c64.69.99,128.93,28.1,172.75,76.04,24.25,26.54,42.69,57.73,66.64,84.51,23.96,26.77,53.8,46.13,87.59,58.15,33.49,11.92,69.17,16.97,104.6,17.73,39.34.85,78.97-1.13,118.25-3.17,19.63-1.02,39.24-2.28,58.84-3.74,19.02-1.41,38.05-3.69,57.15-2.83,32.56,1.46,64.91,10.98,90.59,31.58,12.59,10.09,24.49,21.67,35.61,33.34,10.11,10.61,20.17,22.19,25.9,35.83,14.75,35.09,26.38,71.89,35.29,108.87,10.2,42.36,15.99,85.51,17.41,128.84,1.06,31.82-.24,63.73-3.86,95.51-8.78,77.07-40.6,158.53-13.94,235.22,21.09,60.65,72,107.42,129.01,134.45,71.21,33.75,152.21,32.88,227.62,51.45,21.35,5.26,42.38,11.7,63,19.28Z"/></svg>