<?xml version="1.0" encoding="UTF-8"?><svg id="slidefrontpage" xmlns="http://www.w3.org/2000/svg" viewBox="0 0 1280 1563.82"><path d="m1280,144.83v3.08c-16.59-14.5-34.95-27.03-55.4-36.91-46-22.25-97.39-29.06-147.76-33.3-49.98-4.21-99.71-7.42-149.19-16.12-105.43-18.53-208.65-51.56-315.98-58.19-50.59-3.12-107.8-3.52-154.22,19.62-42.36,21.11-66.81,62.66-90.94,101.39-25.56,41.03-56.88,76.77-87.04,114.36-31.57,39.33-56.63,81.63-70,130.58-6.23,22.81-10.17,45.95-12.4,69.28-7,73.33,2.97,148.52,12.27,220.97,6.09,47.45,12.34,94.91,14.97,142.71,2.52,45.9,2.25,91.95-.73,137.82-5.93,91.44-22.57,182.15-49.13,269.83-26.43,87.27-62.67,171.59-107.99,250.71-20.34,35.53-42.53,69.97-66.46,103.16v-3.78c38.43-53.63,72.27-110.54,101.25-169.81,41.35-84.59,72.76-174.04,93.45-265.89,20.77-92.24,30.69-186.95,28.86-281.5-1.89-98.25-21.16-194.64-28.39-292.42-2.75-37.15-3.33-74.82.21-111.8,5.47-56.96,20.75-112.27,53.04-161.5,27.73-42.28,63.78-78.19,93.26-119.16,26.02-36.14,45.1-77.88,77-109.54C452.79,14.55,498.62,3.59,545.29.86c52.6-3.07,105.26,2.43,157.04,11.44,106.75,18.58,210.58,50.17,319,58.88,48.85,3.93,98.28,5.9,146.11,17.44,41.62,10.04,80.05,28.45,112.56,56.21Z"/></svg>