<?xml version="1.0" encoding="UTF-8"?><svg id="slidefrontpage" xmlns="http://www.w3.org/2000/svg" viewBox="0 0 1280 566.24"><path d="m1280,561.13v5.11c-9.92-13.56-20.13-26.9-30.47-40.08-40.8-52-83.41-102.49-123.15-155.33-76.74-102.05-151.4-211.4-258.84-283.94C752.61,9.28,609.86-9.67,474.7,10.78,332.43,32.31,200.85,96.65,78.96,170.63c-26.67,16.19-52.83,33.23-78.96,50.29v-3.83c45.75-29.52,91.75-58.59,139.35-85.16C262.13,63.4,395.88,9.53,537.59,1.15c67.74-4,136.47,2.19,201.6,21.7,61.94,18.55,118.75,49.68,168.84,90.43,101.11,82.28,171.97,194.01,251.32,295.79,39.38,50.52,82.32,99.88,120.65,152.05Z"/></svg>