<?xml version="1.0" encoding="UTF-8"?><svg id="slidefrontpage" xmlns="http://www.w3.org/2000/svg" viewBox="0 0 1280 1568.59"><path d="m1280,111.13v2.26c-2.98-1.13-5.98-2.18-9.01-3.15-45.12-14.5-93.29-14.57-140.03-19.22-109.88-10.93-216.63-40.42-324.52-62.53-109.46-22.43-223.52-37.6-334.5-16.87-88.27,16.49-173.57,58.24-233.52,126.25-30.56,34.67-53.1,75.69-64.66,120.51-13.42,52.07-12.68,106.52-8.14,159.72,1.46,17.06,3.23,34.08,5.13,51.09,4.21,37.81,9.06,75.57,12.49,113.46,4.98,54.92,8.35,110,9.72,165.13,5.24,210.94-19.2,424.99-95.38,622.87-26.44,68.67-58.94,135.25-97.58,197.94v-4.03c53.37-87.31,94.85-182.1,124.83-279.65,65.54-213.24,76.29-439.75,59.59-661.05-3.9-51.72-9.94-103.16-15.76-154.67-.43-3.76-.86-7.53-1.28-11.3-6-53.48-10.5-107.83-3.27-161.42,12.1-89.71,62.68-164.98,136.17-216.59C478.43-45.24,706.87,3.19,903.46,47.4c55.11,12.39,110.3,24.72,166.14,33.44,50.1,7.83,100.67,9.34,150.82,16.22,20.13,2.76,40.49,6.98,59.58,14.07Z"/></svg>