<?xml version="1.0" encoding="UTF-8"?><svg id="slidefrontpage" xmlns="http://www.w3.org/2000/svg" viewBox="0 0 1280 1107.26"><path d="m1280,0v2.98c-46.79,30.79-88.3,67.53-116.67,119.07-39.89,72.47-46.44,157.27-51.51,238.22-4.73,75.7-7.24,153.73-32.01,226.11-1.18,3.44-2.41,6.87-3.69,10.29-14.35,38.24-35.95,72.47-62.51,103.38-27.94,32.51-59.76,61.34-89.9,91.73-30.93,31.2-58.42,64.34-81.04,102.08-21.93,36.59-40.96,75.13-66.9,109.17-25.46,33.41-57.79,59.44-96.37,76.22-37.7,16.4-78.65,24.28-119.53,26.9-44.47,2.84-90.26.59-133.48-10.83-43.52-11.49-80.69-33.96-113.68-64.25-32.85-30.15-61.56-64.74-96.72-92.36-33.5-26.32-71.84-46.33-112.32-59.53-33.55-10.94-68.53-17.21-103.67-18.63v-2.31c50.32,2.06,100.27,14.01,145.98,35.14,37.38,17.27,70.89,40.82,100.7,69.13,32.75,31.1,62.06,66.19,98.87,92.75,39.31,28.36,86.07,42.32,133.9,47.25,45.41,4.68,92.34,3.16,137.11-6.04,42.83-8.81,84.71-25.57,118.6-53.7,33.54-27.84,56.79-65.15,78.24-102.54,20.93-36.49,41.08-73.29,68.05-105.81,27.4-33.04,59.12-62.09,89.48-92.33,30.65-30.51,60.34-62.67,81.82-100.48,10-17.61,18.09-36.15,24.64-55.23,6.55-19.07,11.57-38.69,15.44-58.47,29.5-150.58-5.77-329.75,102.05-455.24,24.85-28.92,53.92-52.2,85.12-72.67Z"/></svg>