<?xml version="1.0" encoding="UTF-8"?><svg id="slidefrontpage" xmlns="http://www.w3.org/2000/svg" viewBox="0 0 1280 1576.51"><path d="m1280,187.05v3.66c-15.39-21.71-32-42.51-51.23-60.89-36.35-34.74-80.86-54.6-130.63-60.71-49.16-6.03-98.83-1.08-148.05,1.35-106.17,5.24-210.85-10.19-310.9-46.13-45.35-16.3-99.1-36.35-144.05-8.1-30.56,19.21-45.69,54.22-58.21,86.55-12.69,32.77-23.51,67.35-44.32,96.13-25.48,35.24-65.91,52.89-98.6,80.04-33.44,27.77-50.29,64.58-57.9,104.62-9.75,51.28-4.33,107.86.81,157.52,11.33,109.35,32.87,217.54,39.67,327.38,3.37,54.33,2.99,109.02-4.14,163.05-6.11,46.31-17.07,91.9-31.94,136.16-30.05,89.47-75.53,172.99-127.17,251.72-35.44,54.03-73.85,105.98-113.34,157.11v-3.67c55.21-71.58,108.45-144.94,153.88-223.17,48.78-84,88.38-174.11,108.09-269.57,22.27-107.87,14.86-217.97.87-326.39-7.19-55.69-15.91-111.18-22.9-166.9-6.33-50.52-12.63-101.89-11.11-152.91.5-16.71,1.97-33.69,5.03-50.33,4.63-25.27,12.94-49.76,27.07-71.38,25.26-38.63,67.45-57.12,102.08-85.53,31.36-25.73,47.58-60.91,61.72-98.01,12.09-31.73,22.84-65.79,44.72-92.42,25.67-31.27,63.8-40.94,102.89-34.19,25.57,4.42,49.92,13.89,74.27,22.56,25.25,8.99,50.93,16.71,76.96,23.04,54.05,13.14,109.51,20.42,165.12,21.63,51.15,1.11,102.03-4.79,153.14-5.2,47.5-.38,96.24,4.76,138.77,27.46,39.74,21.22,70.34,55.5,96.5,91.5.97,1.34,1.94,2.68,2.9,4.02Z"/></svg>