<?xml version="1.0" encoding="UTF-8"?><svg id="slidefrontpage" xmlns="http://www.w3.org/2000/svg" viewBox="0 0 1280 243.86"><path d="m1280,0v3.16c-43.32,30.86-91.84,54.15-139.2,78.08-32.68,16.51-65.35,33.02-98.03,49.53-32.2,16.27-64.13,33.38-96.8,48.7-13.91,6.51-28.46,12.2-43.81,14.05-15.38,1.84-30.74-.64-45.52-4.91-16.2-4.68-31.75-11.32-47.74-16.63-16.74-5.57-33.96-9.72-51.4-12.4-36.54-5.62-72.29-3.25-108.73,1.64-29.91,4.02-59.66,6.58-89.24-.84-47.07-11.81-87.08-41.68-125.74-69.64-39.24-28.38-80.32-58.79-128.72-68.76-59.71-12.29-115.83,14.1-160.23,52.57C89.62,122.38,50.77,190.44,0,243.86v-3.63c21.87-23.36,41.37-49.2,60.62-74.35,34.61-45.24,71.19-90.63,120.33-120.88,44.22-27.22,95.47-36.25,145.22-19.64,45.69,15.26,84.28,45.95,122.93,73.66,39.58,28.37,82.37,57.23,131.94,63.06,34.42,4.05,68.43-4.41,102.58-7.28,33.37-2.81,67.18-.22,99.75,7.55,33.14,7.91,64.42,25.75,98.55,29.09,36.07,3.53,68.33-16.44,99.29-32.09,64.48-32.57,129.02-65,193.42-97.73,36.41-18.5,72.38-37.98,105.37-61.62Z"/></svg>