<?xml version="1.0" encoding="UTF-8"?><svg id="slidefrontpage" xmlns="http://www.w3.org/2000/svg" viewBox="0 0 407.25 1013.93"><path d="m398.33,754.16c-17.5,48.11-55.86,86.11-95.91,116.38-45.25,34.21-95.32,62.03-146.9,85.42-50.51,22.89-102.63,41.57-155.52,57.97v-2.35c63.75-19.76,126.41-42.84,186.17-72.69,49.11-24.52,97.5-53.37,138.93-89.63,38.12-33.36,72.72-76.62,79-128.5,6.9-56.93-22.58-109.41-36.43-162.96-8.01-30.97-8.91-62.19-7.83-93.52,1.01-29.15,3.73-58.4,4.01-87.65.27-27.51-1.76-55.37-9.54-81.88-7.55-25.68-20.89-48.58-39.55-67.75-33.18-34.08-76.57-55.65-111.78-87.34-8.62-7.76-16.72-16.13-23.86-25.29-8.78-11.25-15.81-23.68-23.33-35.77-13.45-21.64-29.77-39.84-51.72-53.09C73.13,6.83,35.76-1.09,0,3.62V1.3c44.95-5.81,92.72,8.07,126.84,38.08,20.77,18.27,32.44,42.65,47.84,65.11,14.3,20.86,33.3,37.64,53.42,52.73,37.67,28.27,81.17,52.2,107.91,92.27,31.5,47.19,31.93,106.68,28.79,161.23-1.03,17.83-2.39,35.69-3.05,53.56-.54,14.49-.63,29,.28,43.5,1.9,30.43,9.89,59.17,19.69,87.9,9.36,27.42,19.7,54.85,23.83,83.67,3.64,25.31,1.53,50.73-7.22,74.81Z"/></svg>