<?xml version="1.0" encoding="UTF-8"?><svg id="slidefrontpage" xmlns="http://www.w3.org/2000/svg" viewBox="0 0 1280 1097.52"><path d="m1280,1095.11v2.41c-99.53-29.23-208.55-26.95-304.36-69.92-57.02-25.58-109.21-70.95-116.46-136.37-3.97-35.89,4.9-71.85,14.88-106.06,10.96-37.59,23.56-74.61,28.58-113.61,3.43-26.64,4.08-53.36,2.64-80-2.86-53.85-14.17-107.39-27.93-159.36-9.56-36.13-19.39-72.59-31.62-107.92-10.79-31.15-27.03-62.43-58.28-77.05-34.89-16.31-77.68-11.93-114.87-8.71-40.21,3.48-80.17,9.59-120.45,12.29-72.92,4.88-145.26-6.31-212.03-36.61-31.81-14.44-61.65-32.89-88.81-54.84-29.49-23.85-55.95-51.11-84.12-76.45C121.26,41.61,63.19,2.3,0,2.21V0c5.34.02,10.7.32,16.04.89,71.98,7.74,128.19,56.86,178.66,104.48,27.82,26.25,55.61,52.67,87.49,74.04,30.74,20.6,64.3,36.96,99.39,48.69,34.52,11.53,70.52,18.67,106.85,20.96,40.5,2.56,80.97-1.45,121.18-6.03,40.21-4.59,80.8-10.24,121.36-9.2,31.95.81,63.93,8.14,86.13,32.69,20.42,22.57,29.89,52.7,38.44,81.27,11.73,39.17,23.25,78.44,32.62,118.25,9.67,41.1,17.05,83.25,19.3,125.52,1.9,35.69.15,71.46-6.96,106.76-14.47,71.84-57.73,148.07-32.58,222.35,22.1,65.28,89.78,101.55,151.51,121.01,83.1,26.2,176.13,28.88,260.57,53.43Z"/></svg>