<?xml version="1.0" encoding="UTF-8"?><svg id="slidefrontpage" xmlns="http://www.w3.org/2000/svg" viewBox="0 0 1280 559.58"><path d="m1280,554.09v5.49c-48.85-76.85-103.37-150.09-163.02-218.9-81.29-93.78-171.93-182.46-278.88-246.64C729.57,28.92,601.43-9.31,474.25,6.47c-67.08,8.32-128.12,33.87-186.69,66.74-61.56,34.55-121.89,71.44-182.7,107.31-34.98,20.64-69.86,41.49-104.86,62.13v-3.77c53.43-31.49,106.84-63.02,160.26-94.52,60.1-35.45,119.45-74.07,182.97-103.21C400.85,14.72,462.58.77,525.99.03c126.12-1.49,247.36,45.15,350.73,115.11,104.25,70.55,193.31,162.81,272.97,259.64,46.99,57.11,90.51,117.02,130.31,179.31Z"/></svg>