<?xml version="1.0" encoding="UTF-8"?><svg id="slidefrontpage" xmlns="http://www.w3.org/2000/svg" viewBox="0 0 1280 1521.23"><path d="m1280,108.85v2.04c-66.33-18.14-141.98-8.02-209.05-18.65-98.07-15.55-187.21-63.79-284.64-81.96C732.18.18,676.83.93,622.17,5.51c-52.38,4.39-104.77,11.02-156.68,19.26-97.5,15.46-197.17,39.52-282.85,90.33-41.89,24.84-76.74,59.1-88.15,107.87-10.7,45.67-2.11,93.6,8.54,138.43,11.69,49.25,25.52,97.73,34.28,147.66.08.48.17.95.24,1.43,8.72,49.94,14.26,100.41,17.3,151.01,6.37,106.01,1.79,212.39-7.59,318.07-9,101.34-19.41,203.83-44.46,302.65-12.25,48.29-28.43,95.56-49.95,140.53-16.1,33.62-34.56,66.02-52.85,98.48v-4.73c5.65-9.95,11.28-19.87,16.77-29.75,23.86-42.94,45.85-86.64,62.22-133.06,17.45-49.5,29.57-100.74,38.71-152.38,18.72-105.7,28.67-213.82,34.5-320.95,5.93-108.98,4.84-218.75-10.2-326.99-2-14.37-4.29-28.65-6.86-42.88-6.85-38.11-15.59-75.76-25.41-113.32-11.52-44.07-23.3-89.36-22.23-135.27,1.03-44.17,16.72-85.1,49.1-115.72,33.8-31.97,78.29-52.76,121-69.93,93.55-37.6,194.04-53.48,293.6-65.48,54.87-6.61,110.13-12.47,165.47-10.32,51.58,2,101.29,12.92,150.33,28.57,48.71,15.54,96.35,34.37,145.65,48,24.96,6.89,50.34,12.44,76.08,15.4,26.96,3.1,54.12,3.47,81.22,4.14,36.95.92,74.44,2.5,110.05,12.29Z"/></svg>