<?xml version="1.0" encoding="UTF-8"?><svg id="slidefrontpage" xmlns="http://www.w3.org/2000/svg" viewBox="0 0 475.58 1123.96"><path d="m470.71,821.72c-6.1,29.07-18.77,56.27-36.18,80.27-76.91,106.08-213.3,135.3-329.44,177.28-35.84,12.96-70.93,27.88-105.09,44.69v-2.5c43.99-21.41,89.41-39.54,135.85-55.31,63.98-21.72,129.69-40.96,189.02-73.99,49.96-27.82,96.65-66.22,124.04-117.27,65.09-121.28-15.76-249.96-34.91-373.52-1.31-8.45-2.33-16.87-3-25.27-4.59-57.86,4.75-119.36-16.29-174.82-11.15-29.38-31.59-51.93-56.81-70.12-23.33-16.82-48.87-30.39-71.56-48.13-25.56-20-45.96-45.37-67.71-69.22-21.2-23.25-44.55-43.99-71.04-61.05C88.82,27.79,45.25,10.68,0,2.34V0c58.02,10.62,113.4,35.75,159.24,72.92,25.3,20.52,46.04,45.33,67.86,69.35,11.27,12.41,22.97,24.51,35.91,35.21,12.08,9.98,25.21,18.59,38.41,27,24.46,15.59,50.03,30.77,69.46,52.71,18.59,21.01,29.35,47.13,34.6,74.46,5.57,29.03,5.69,58.78,5.96,88.23.26,27.37,1.01,54.48,4.83,81.49.77,5.47,1.67,10.93,2.72,16.39,13.29,69.3,42.04,134.74,52.59,204.66,4.96,32.86,6,66.63-.87,99.3Z"/></svg>