<?xml version="1.0" encoding="UTF-8"?><svg id="slidefrontpage" xmlns="http://www.w3.org/2000/svg" viewBox="0 0 1280 1454.74"><path d="m1280,113.3v2.18c-67.76-22.7-142.05-24.13-212.84-30.48-48.99-4.4-96.52-12.87-143.36-28.09-46.14-14.99-91.24-33.55-138.6-44.57-102.81-23.91-208.36.47-309.65,20.72-97.81,19.56-195.49,42.31-288.67,78.46-22.84,8.86-45.73,18.16-67.53,29.38-20.13,10.36-39.63,23.38-52.63,42.32-26.17,38.13-21.68,88.54-16.05,132.01,10.63,82.04,34.55,161.38,53.03,241.85,3.48,15.14,6.77,30.31,9.74,45.56,9.21,47.29,15.36,95.38,14.43,143.64-.96,50.02-10.16,99.3-18,148.56-8.18,51.38-12.17,102.32-12.07,154.34.1,50.16,1.99,100.47-2.62,150.5-4.3,46.54-15.59,91.2-33.79,134.24-17.62,41.65-39.91,81.07-61.39,120.82v-4.65c7.3-13.53,14.64-26.95,21.8-40.32,23.23-43.4,45.24-87.94,58.18-135.63,13.77-50.79,16.02-103.64,16.03-155.99,0-51.39-2.07-102.91,2.52-154.18,4.66-52.09,15.8-103.3,22.27-155.15,6.26-50.1,6.08-100.04-.41-150.1-4.43-34.21-11.25-68.03-18.99-101.64-3.56-15.5-7.33-30.95-11.15-46.37-11.96-48.25-24.57-96.39-33.77-145.26-8.18-43.42-16.83-90.19-10.03-134.34,3.11-20.27,10.37-39.91,23.48-55.88,12.93-15.75,30.34-27.04,48.29-36.27,43.83-22.57,91.26-39.34,138.17-54.19,97.11-30.74,197.53-50.82,297.61-69.11C604.67,6.39,656.07-1.25,707.72.17c50.01,1.38,97.6,13.67,144.71,29.74,47.24,16.11,93.88,34.29,143.12,43.5,51.92,9.71,104.84,11.42,157.33,16.15,42.26,3.81,86.2,10.2,127.12,23.74Z"/></svg>