<?xml version="1.0" encoding="UTF-8"?><svg id="slidefrontpage" xmlns="http://www.w3.org/2000/svg" viewBox="0 0 1280 1115.03"><path d="m1280,0v2.92c-31.44,25.78-60.87,54.55-83.81,88.27-24.41,35.88-39.43,76.42-47.07,119.01-15.54,86.66-4.25,175.33-14.93,262.44-3.11,25.35-8.21,50.45-16.2,74.61-4.77,14.43-10.58,28.53-17.61,42.14-18.48,35.81-43.93,67.44-70.88,97.19-27.97,30.88-57.81,60.03-85.2,91.45-28.96,33.21-53.27,69.67-76.92,106.75-44,68.96-89.04,138.11-160.96,180.86-64.16,38.14-140.86,54.77-215.09,47.86-36.36-3.39-72.18-12.45-105.52-27.38-36.76-16.47-69.91-39.92-101.17-65.1-66.05-53.21-126.4-116.89-206.01-150.09-25.27-10.54-51.71-17.93-78.63-22.17v-2.16c42.02,6.67,82.81,20.9,119.89,42.36,71.95,41.66,128.35,104.19,195.3,152.69,33.06,23.96,68.74,44.02,107.89,56.11,37.11,11.45,76.16,16.22,114.95,14.74,78.29-2.99,156.13-31.73,215.26-83.58,66.09-57.97,104.12-139.37,155.06-209.47,49.12-67.57,115.32-120.51,163.81-188.51,18.5-25.96,33.16-53.87,43.39-83.69,3.56-10.38,6.59-20.99,9.05-31.83,9.79-43.05,11.79-87.4,12.56-131.39,1.47-83.58-2.55-171.4,32.22-249.55,24.12-54.23,65.02-97.3,110.62-134.48Z"/></svg>