<?xml version="1.0" encoding="UTF-8"?><svg id="slidefrontpage" xmlns="http://www.w3.org/2000/svg" viewBox="0 0 1280 563.04"><path d="m1280,557.3v5.74c-46.98-73.55-97.75-144.57-155.75-210.07-46.39-52.4-96.15-101.89-147-149.94-47.23-44.64-96.62-87.56-151.51-122.6-54.38-34.71-114.15-60.81-178.03-71.5-66.81-11.18-135.4-5.97-201.12,9.38-133.39,31.15-251.92,101.15-366.97,172.89-26.45,16.49-52.93,33.13-79.62,49.43v-3.41c43.64-26.74,86.77-54.36,130.34-80.86C245.18,86.52,368.48,23,503.34,4.77c65.28-8.82,132.19-5.91,195.54,12.9,60.69,18.02,116.44,49.55,167.26,86.89,52.26,38.4,99.75,82.78,146.14,127.98,51.87,50.55,102.49,102.53,148.44,158.58,43.33,52.85,82.49,108.72,119.28,166.18Z"/></svg>