<?xml version="1.0" encoding="UTF-8"?><svg id="slidefrontpage" xmlns="http://www.w3.org/2000/svg" viewBox="0 0 1280 330.22"><path d="m1280,0v3.07c-50.32,26.04-99.51,53.79-146.91,85.31-30.7,20.42-61.13,42-86.28,69.19-25.48,27.54-41.85,60.6-57.78,94.19-7.7,16.24-15.44,32.49-24.49,48.04-6.7,11.5-14.49,24.4-27.86,28.83-26.41,8.73-47.98-20.41-59.94-39.56-18.05-28.93-36.25-57.4-62.49-79.77-26.99-23.03-59.57-35.56-94.67-39.31-66.78-7.16-134.02,11.8-200.59.32-33.11-5.71-62.29-20.53-89.17-40.34-28.66-21.13-54.23-46.23-83.7-66.28-29.74-20.23-64.79-36.72-101.62-34.08-34.23,2.46-63.66,22.02-86.76,46.28-22.64,23.78-39.8,52-56.41,80.14-15.45,26.17-30.24,52.74-46.54,78.4-16,25.19-33.82,49.78-54.79,70.9v-2.75c32.5-33.11,56.75-74.44,79.88-114.2,29.79-51.2,58.98-110.6,110.97-142.94,26.28-16.34,56.79-22.06,87.14-15.55,32.99,7.07,62.53,25.63,88.77,46.16,27.73,21.69,53.34,46.23,83.24,65.02,30.2,18.98,63.29,28.33,98.78,30.22,65.61,3.49,132.57-14.49,197.46.92,30.82,7.32,57.97,23.27,80.43,45.47,11.24,11.1,21.24,23.41,30.36,36.3,9.3,13.15,16.92,27.34,26,40.62,8.8,12.87,20.6,27.73,36.3,32.16,19.83,5.6,32.88-10.61,41.9-25.77,18.63-31.32,31.52-65.6,49.46-97.28,35.61-62.88,96.84-102.73,156.72-140.12,32.89-20.54,66.6-39.79,101.01-57.67,3.85-2,7.71-3.97,11.58-5.92Z"/></svg>