<?xml version="1.0" encoding="UTF-8"?><svg id="slidefrontpage" xmlns="http://www.w3.org/2000/svg" viewBox="0 0 428.22 1065.45"><path d="m427.37,742.77c-3.41,30.36-15.9,59.02-31.56,84.98-58.67,97.23-164.12,155.31-267.25,194.62-42.18,16.08-85.36,29.62-128.56,43.08v-2.34c52.25-16.25,104.45-32.66,154.99-53.67,102.57-42.64,208.55-108.33,255.18-213.93,13.34-30.22,19.08-62.54,13.5-95.31-5.14-30.17-17.42-58.5-28.51-86.83-11.22-28.64-20.69-57.47-23.38-88.28-1.23-14.05-1.37-28.12-.91-42.19.68-20.6,2.65-41.2,4.39-61.71,4.7-55.77,7.02-115.89-21.59-166.31-14.24-25.07-35.33-42.52-60.67-55.69-24.2-12.57-50.61-22.65-70.28-42.25-20.67-20.6-31.72-48.21-48.15-71.9-14.91-21.48-34.71-39.32-57.07-52.8C82.38,11.05,40.89.45,0,2.57V.26c51.25-2.63,103.58,14.62,143.09,47.38,20.92,17.34,35.73,38.61,49.24,61.94,7.78,13.42,15.52,27.03,25.63,38.88,9.91,11.63,22.06,20.58,35.31,28.07,24.8,14.02,52.38,23.54,74.16,42.44,19.05,16.52,32.27,38.57,40.5,62.24,20.29,58.35,10.39,119.88,6.34,179.92-.49,7.25-.88,14.51-1.1,21.77-.85,27.44.61,54.88,7.66,81.6,8.02,30.46,21.47,59.08,32.11,88.64,10.33,28.73,17.88,58.9,14.43,89.63Z"/></svg>