<?xml version="1.0" encoding="UTF-8"?><svg id="slidefrontpage" xmlns="http://www.w3.org/2000/svg" viewBox="0 0 1280 1486.02"><path d="m1280,113.73v2.1c-73.08-22.16-153.42-17.55-228.69-28.07-49.74-6.95-95.93-23.77-142.38-42.17-47.84-18.94-95.85-37.02-147.49-41.75-52.14-4.77-104.76.77-156.53,7-53.96,6.48-107.66,15.2-160.91,26.07-52.26,10.67-104.09,23.42-155.33,38.23-24.56,7.09-48.97,14.66-73.24,22.69-23.06,7.63-46.38,15.28-67.88,26.74-21.1,11.25-39.64,26.43-52.46,46.8-11.74,18.67-18.4,40.08-21.84,61.75-7.48,47.28-.87,96.48,7.8,143.11,9.82,52.82,24.37,104.75,36.97,157.03,11.27,46.76,20.96,93.79,24.31,141.99,7.47,107.4-13.56,213.84-20.6,320.66-3.5,53.09-1.38,106.25-3.41,159.37-1.8,46.97-8.37,93.02-23.52,137.62-23.16,68.19-60.29,130.18-94.8,193.12v-4.72c3.18-5.77,6.36-11.52,9.54-17.25,41.65-75.18,85.61-151.83,99.87-237.78,8.94-53.86,7.21-108.69,7.68-163.07.49-55.37,5.57-110.29,11.54-165.29,5.84-53.84,11.98-107.76,12.9-161.96.93-54.85-5.15-108.74-16.55-162.35-2.86-13.45-6-26.89-9.3-40.34-20.75-84.71-47.51-169.56-47.75-257.08-.11-40.66,7.05-83.91,32.79-116.69,27.93-35.56,72.81-50.16,114.12-63.83,102.32-33.87,207.39-59.45,313.84-76.42,51.64-8.23,103.82-15.21,156.06-18.27,52.73-3.08,104.35.81,154.92,16.71,47.42,14.91,92.4,36.57,139.78,51.6,52.71,16.72,107.28,20.57,162.13,24.13,45.32,2.94,93.76,7.1,138.43,20.32Z"/></svg>