<?xml version="1.0" encoding="UTF-8"?><svg id="slidefrontpage" xmlns="http://www.w3.org/2000/svg" viewBox="0 0 1280 260.13"><path d="m1280,0v2.88c-35.3,27.92-72.04,54.29-109.04,79.52-54.93,37.46-112.83,67.74-176.63,86.98-32.3,9.75-65.22,17.31-98.21,24.33-33.11,7.05-66.26,14.18-99.67,19.66-63.5,10.4-129.87,13.93-191.19-8.91-50.38-18.76-93.94-51.26-138.39-80.71-44.56-29.52-92.64-57.97-147-63.03-60.87-5.66-118.93,19.28-167.75,53.76C94.62,155.1,49.22,209.98,0,260.13v-2.83c58.21-59.28,110.87-124.79,184.55-166.01,48.1-26.92,103.07-40.86,157.84-29.42,51.38,10.74,96.22,40.09,139.11,68.96,44.79,30.14,90.03,62.24,142.5,77.48,66.4,19.28,136.76,10.07,203.42-2.79,66-12.72,132.97-25.68,196.46-48.16,63.65-22.54,120.6-58.2,175.18-97.41,27.18-19.53,54.49-39.22,80.94-59.95Z"/></svg>