<?xml version="1.0" encoding="UTF-8"?><svg id="slidefrontpage" xmlns="http://www.w3.org/2000/svg" viewBox="0 0 1280 241.11"><path d="m1280,0v2.83c-42.82,27.62-89.05,50.68-133.52,72.18-60.81,29.4-122.41,58.38-177.36,98.08-23.13,16.71-45.99,43.68-77.43,39.04-29.2-4.31-51.92-27.16-77.59-39.81-57.69-28.43-125.04-16.72-186.69-14.13-30.28,1.27-61.06.88-90.62-6.51-26.34-6.59-50.4-19.31-72.76-34.47-45.06-30.55-84.31-71.6-135.25-92.73-27.13-11.25-56.66-15.01-85.61-9.43-30.05,5.79-57.65,20.49-81.95,38.74-50.92,38.25-85.67,91.26-123.6,141.39-11.88,15.7-24.29,31.28-37.62,45.93v-2.99c24.34-27.07,45.51-57.33,66.94-86.35,35.16-47.62,74.88-94.8,128.5-122.24,24.63-12.6,51.92-20.19,79.73-19.31,25.8.82,50.54,8.97,73.15,21.1,47.52,25.51,85.32,65.33,131.28,93.24,25.84,15.69,53.68,26.01,83.76,29.72,31.2,3.86,62.77,1.96,94.04,0,59-3.71,120.19-7.73,172.68,24.38,26.55,16.24,57.85,42.58,90.58,26.97,14.36-6.85,26.13-18.65,38.75-28.15,13.1-9.88,26.67-19.12,40.56-27.86,57.03-35.91,118.86-63.15,179.11-93.02,33.73-16.73,68.26-35.28,100.92-56.6Z"/></svg>