<?xml version="1.0" encoding="UTF-8"?><svg id="slidefrontpage" xmlns="http://www.w3.org/2000/svg" viewBox="0 0 1280 557.21"><path d="m1280,552.49v4.72c-50.89-78.59-119.91-147.09-176.13-220.8-39.82-52.21-76.31-107.08-119.88-156.34-22.05-24.92-45.93-48.35-72.45-68.5-28.48-21.64-59.93-38.99-92.62-53.38C688.3.7,538.59-12.18,399.91,21.2c-125.05,30.09-236.53,97.2-345.28,163.43-18.15,11.06-36.34,22.16-54.63,33.15v-3.42c35.14-21.16,69.99-42.79,105.06-63.71C216.92,83.93,334.31,23.55,465,6c138.02-18.53,287.69,5.52,408.56,76.56,118.01,69.37,183.99,195.13,268.97,297.55,45.93,55.36,97.07,111.15,137.47,172.38Z"/></svg>