<?xml version="1.0" encoding="UTF-8"?><svg id="slidefrontpage" xmlns="http://www.w3.org/2000/svg" viewBox="0 0 1280 1677.43"><path d="m1280,303.84v3.54c-1.73-2.7-3.47-5.39-5.21-8.07-28.83-44.37-59.28-87.67-91.51-129.46-28.9-37.48-62.01-74.15-105.67-94.41-44.72-20.73-94.99-20.66-143.19-17.58-47.29,3.02-95.04,9.19-142.33,2.9-23.8-3.16-46.3-10.2-68.26-19.79-23.68-10.34-46.6-22.72-71.28-30.63-23.85-7.64-50.31-11.36-74.8-4.46-22.05,6.2-39,21.3-51.1,40.32-21.21,33.32-29.23,73.6-53.47,105.22-25.99,33.9-65.14,53.53-98.52,78.93-24.91,18.96-44.43,42.26-58.63,68.96-7.57,14.22-13.62,29.4-18.17,45.41-29.49,103.74,5.11,209.73,23.88,312.01,19.36,105.5,26.34,213.44,18.8,320.49-7.23,102.69-27.91,204.55-63.58,301.19-5.57,15.1-11.5,30.08-17.79,44.9-30.06,71-68.21,138.59-114.12,200.54-27.31,36.84-57.33,71.68-89.94,103.92-17.27,17.08-35.35,34.67-55.11,49.66v-3.12c2.6-2.02,5.18-4.09,7.72-6.19,73.67-60.84,135.52-137.64,184.83-219.15,24.37-40.29,45.79-82.33,64.19-125.66,19.33-45.49,35.32-92.4,47.89-140.19,28.04-106.59,39.31-217.27,36.1-327.35-1.61-55.36-6.87-110.62-15.51-165.33-8.73-55.27-22.52-109.54-31.99-164.67-12.78-74.31-15.59-158.27,19.71-226.46,7.08-13.7,15.71-26.77,26.11-38.99,29.21-34.35,70.54-53.86,104.8-82.27,16.92-14.03,31.01-30.36,41.39-49.79,9.45-17.69,16.4-36.55,24.61-54.82,16.08-35.76,39.4-67.09,80.95-72.48,48.84-6.34,92.52,20.05,135.54,38.67,24.79,10.72,50.25,17.69,77.19,20.16,24.02,2.21,48.21,1.5,72.25.02,47.5-2.93,95.53-9.44,143.03-3.14,45.77,6.06,85.43,26.42,118.84,58.01,35.23,33.33,63.34,74.16,91.2,113.6,16.52,23.37,32.58,47.05,48.2,71.03.99,1.51,1.97,3.02,2.95,4.53Z"/></svg>