<?xml version="1.0" encoding="UTF-8"?><svg id="slidefrontpage" xmlns="http://www.w3.org/2000/svg" viewBox="0 0 1280 1106.04"><path d="m1280,0v3.49c-17.66,20.54-32.72,43.3-44.56,67.75-34.93,72.17-41.98,153.57-48.39,232.34-5.04,62-9.3,125.56-26.47,185.64-4.07,14.25-8.87,28.3-14.58,42.09-14.84,35.82-36.23,67.57-61.63,96.73-28.21,32.4-59.76,61.77-87.17,94.89-53,64.02-90.58,138.8-139.33,205.84-22.99,31.62-48.57,61.68-78.65,86.8-26.67,22.28-56.53,40.65-88.26,54.81-65.03,29-137.73,40.61-208.58,33.74-73.94-7.16-141.52-35.24-200.8-79.62-66.94-50.12-123.79-115.49-198.56-154.66-25.47-13.34-53.91-23.98-83.02-29.55v-2.76c41.68,7.96,82.07,26.61,116.05,49.39,70.54,47.29,127.16,112.46,198.96,158.04,125.97,79.96,295.66,77.13,421.69-1.4,69.24-43.14,116.97-108.91,160.07-176.69,22.07-34.72,43.33-69.99,67.02-103.64,23.89-33.94,51.12-64.55,79.77-94.5,29.38-30.72,59.06-61.76,80.71-98.62,14.89-25.35,25.83-52.7,33.91-80.89,2.72-9.5,5.12-19.09,7.24-28.73,17.18-78.12,17.24-158.64,27.26-237.74,9.46-74.73,28.93-148.86,76.08-209.16,3.62-4.64,7.37-9.17,11.24-13.59Z"/></svg>