<?xml version="1.0" encoding="UTF-8"?><svg id="slidefrontpage" xmlns="http://www.w3.org/2000/svg" viewBox="0 0 1280 248.74"><path d="m1280,0v2.9c-42.74,26.04-88.21,48.11-132.94,68.73-26.47,12.21-53.48,23.44-79.47,36.64-27.89,14.18-54.47,31.77-72.71,57.72-14.15,20.13-25.23,45.63-47.86,57.86-24.42,13.19-51.08,3.71-73.24-9.43-28.14-16.68-52.62-37.73-83.51-49.64-31.76-12.23-65.37-16.12-99.19-13.43-35.17,2.79-69.87,10.85-105.27,10.94-32.2.09-64.4-6.32-94.18-18.54-54.78-22.5-93.34-67.22-141.89-99.27-24.31-16.05-51.53-27.78-80.99-28.77-32.23-1.08-63.77,9.72-91.13,26.19C97.91,89.85,60.24,181.21,0,248.74v-3.62C68.57,167.32,109.35,59.25,212.92,22.62c26.74-9.46,55.7-12.19,83.39-5.29,26.3,6.55,49.73,20.86,71.21,37,22.48,16.89,43.26,35.94,65.73,52.86,25.51,19.2,53.45,34.31,84.22,43.19,33.69,9.73,68.17,11.31,102.89,7.47,34.85-3.85,69.58-11.32,104.82-9.37,30.45,1.69,60.48,9.94,87.56,23.96,28.28,14.66,51.8,37.82,81.49,49.86,13.97,5.67,29.37,8.05,43.91,3.01,14.05-4.87,24.49-15.64,33.03-27.41,8.17-11.27,14.88-23.53,23.03-34.82,8.03-11.12,17.64-20.9,28.36-29.43,22.92-18.23,49.76-30.64,76.29-42.59,26.14-11.78,52.28-23.56,78.14-35.94,34.78-16.65,69.71-34.67,103.01-55.12Z"/></svg>