<?xml version="1.0" encoding="UTF-8"?><svg id="slidefrontpage" xmlns="http://www.w3.org/2000/svg" viewBox="0 0 1280 356.56"><path d="m1280,0v2.56c-49.4,26.6-97.03,56.72-139.51,93.43-27.36,23.65-52.44,50-73.83,79.2-22.31,30.45-40.69,63.57-57.52,97.31-13.23,26.51-24.45,63.69-52.62,78.39-29.3,15.29-61.86-2.92-82.62-23.93-12.65-12.79-23.4-27.32-35.42-40.7-11.49-12.78-23.69-24.95-36.7-36.2-26.58-22.99-56.82-42.6-90.34-53.74-36.19-12.02-71.62-10.53-108.64-3.43-33.65,6.44-67.15,13.12-101.09,4.66-56.56-14.11-99.6-58.34-142.56-94.93-23.55-20.07-48.25-39.89-76.35-53.28-19.4-9.25-39.39-12.31-59.66-3.88-16.86,7.02-31.04,19.17-43.95,31.84C105.95,149.18,73.46,255.96,0,326.65v-3.18c41.22-40.54,69.28-92.31,98.95-141.37,15.26-25.24,31.06-50.25,49.33-73.45,18.68-23.72,40.79-48.83,68.16-62.59,13.74-6.91,28.76-9.91,43.98-6.94,16.14,3.14,31.18,11.6,45.01,20.17,24.93,15.46,47.28,34.66,69.36,53.85,43.95,38.21,91.48,82.16,152.67,86.2,39.21,2.58,76.78-12.01,115.6-14.48,31.92-2.03,63.53,5.22,92.41,18.64,29.93,13.9,56.79,33.92,80.67,56.55,12.48,11.82,24.15,24.45,35.19,37.62,11.72,13.99,23.12,28.55,37.67,39.76,14.91,11.5,34.37,19.46,53.46,15.94,18.17-3.35,30.76-17.23,39.86-32.39,9.03-15.05,15.85-31.45,23.65-47.14,8.6-17.33,17.57-34.48,27.27-51.21,35.52-61.32,82.52-112.78,139.23-155.15,33.96-25.38,70.2-47.42,107.53-67.48Z"/></svg>