<?xml version="1.0" encoding="UTF-8"?><svg id="slidefrontpage" xmlns="http://www.w3.org/2000/svg" viewBox="0 0 1280 1127.63"><path d="m1280,0v2.67c-27.88,18.06-54.56,37.96-79.79,59.56-60.38,51.67-114,114.86-141.24,190.47-15.66,43.45-21.67,89.49-27.37,135.08-5.6,44.8-12.16,89.39-20.94,133.69-9.02,45.45-19.96,90.53-32.81,135.04-5.19,17.96-10.73,35.89-17.15,53.5-7.85,21.58-17,42.65-28.34,62.66-20.95,36.94-50.67,66.67-78.8,98.04-26.27,29.31-47.98,61.65-69.37,94.58-38.24,58.91-79.55,119.84-147.48,146.69-64.71,25.58-139.01,18.03-201.68-9.81-68.35-30.37-114.7-87.18-165.13-140.04-25.19-26.4-52.02-51.84-83.64-70.43-36.48-21.46-77.99-31.72-120.15-32.53-22.22-.42-44.27,1.41-66.11,4.92v-2.25c38.58-6.33,77.69-7.44,116.16.53,36.83,7.63,70.52,24.18,100.2,47.11,28.59,22.09,53.24,48.72,77.67,75.2,25.19,27.3,50.4,54.97,79.67,78.02,29.5,23.24,63.62,40.6,99.65,51.16,70.37,20.62,149.51,14.46,209.58-30.19,61.08-45.4,93.95-117.04,138.19-176.9,24.44-33.07,54.48-61.18,80.35-93.03,25.23-31.06,43.07-66.44,56.81-103.73,1.63-4.43,3.21-8.89,4.73-13.37,29.34-86.33,48.32-177.11,60.96-267.31,6.24-44.56,10.03-89.6,20.14-133.52,9.11-39.57,24.36-77,45.65-111.57,40.83-66.3,99.57-120.79,162.68-165.59,9.05-6.43,18.24-12.65,27.56-18.65Z"/></svg>