<?xml version="1.0" encoding="UTF-8"?><svg id="slidefrontpage" xmlns="http://www.w3.org/2000/svg" viewBox="0 0 1280 549.79"><path d="m1280,543.94v5.85c-35.98-61.09-75.63-119.96-119.86-175.41-80.45-100.85-176.32-189.75-287.2-256.27-54.41-32.64-112.2-59.77-172.5-79.65C635.68,17.1,566.66,2.24,498.22,3.01c-74.21.83-144.02,25.94-209.5,59.23-64.92,32.99-125.02,73.54-181.87,118.92-34.75,27.74-70.02,57.35-106.85,84.67v-3.28c55.53-41.52,107.88-88.67,163.36-128.03,57.96-41.12,120.74-77.44,186.95-103.57,32.47-12.82,66.21-22.7,100.84-27.51,36.52-5.06,73.62-4.17,110.15.27,126.85,15.41,248.25,66.8,353.86,137.66,107.74,72.29,199.71,165.5,276.79,269.51,31.71,42.79,60.92,87.3,88.05,133.06Z"/></svg>