<?xml version="1.0" encoding="UTF-8"?><svg id="slidefrontpage" xmlns="http://www.w3.org/2000/svg" viewBox="0 0 1280 1588.01"><path d="m1280,215.95v2.5c-17.82-24.75-36.98-48.39-57.5-70.53-32.26-34.82-70.81-64.79-117.62-76.44-50.2-12.48-102.53-4.71-152.95,2.03-50,6.68-99.04,10.81-149.21,3.16-50.19-7.66-98.67-23.42-146.77-39.22-24.26-7.97-48.5-16.01-73.01-23.17-21.95-6.41-46.8-15.49-69.99-11.39-26.68,4.71-34.84,30.61-43.46,52.85-7.73,19.92-14.73,40.11-22.43,60.04-14.39,37.23-31.5,74.74-60.07,103.37-32.48,32.52-79.07,46.09-108.31,82.43-16.6,20.64-27.47,44.07-34.28,68.99-16.29,59.56-9.43,127.59-2.34,186.17,12.85,106.26,36.93,211.07,44.16,318.02,6.87,101.66-6.32,201.65-39.13,298.13-32.43,95.37-80.98,184.4-137.23,267.7-34.32,50.84-71.45,99.63-109.86,147.42v-3.58c56.05-69.87,109.41-142.04,154.95-219.25,52.24-88.58,94.03-184.24,115.53-285.1,10.92-51.26,16.12-103.48,15.5-155.9-.65-55.37-7.07-110.49-15.23-165.2-8.07-54.11-17.83-107.95-25.6-162.11-6.86-47.74-13.17-96.17-12.55-144.5.35-27.36,2.99-55.22,10.08-81.8,3.31-12.42,7.59-24.55,13.07-36.23,8.27-17.65,19.41-33.98,33.42-47.59,16.54-16.07,36.81-27.15,56.34-39.08,20.09-12.27,38.22-26.35,53-44.81,13.67-17.06,24.27-36.39,33.3-56.23,9.14-20.07,16.7-40.82,24.3-61.51,7.23-19.69,13.8-40.25,23.44-58.93,21.96-42.54,74.37-22.93,109.85-12.35,49.85,14.86,98.67,33.06,148.92,46.61,50.37,13.59,101.64,21.36,153.87,17.54,51.92-3.79,103.21-15.55,155.41-15.32,47.65.21,91.98,13.26,130.43,41.71,36.31,26.88,65.44,62.39,92.31,98.37,3.27,4.37,6.49,8.77,9.66,13.2Z"/></svg>