<?xml version="1.0" encoding="UTF-8"?><svg id="slidefrontpage" xmlns="http://www.w3.org/2000/svg" viewBox="0 0 1280 1499.58"><path d="m1280,103.33v2.03c-64.09-17.24-136.68-8.67-201.59-17.31-50.05-6.65-97.5-24.48-144.98-40.85-47.7-16.45-96.06-29.54-146.06-36.8-199.9-29.04-403.03,22.18-588.88,93.2-22.58,8.63-46.48,16.58-66.11,31.09-19.69,14.57-31.94,36.13-39.37,59.11-16.07,49.79-13.98,103.9-5.88,154.94,8.08,50.93,22.2,100.62,33.37,150.9,1.29,5.8,2.52,11.61,3.71,17.44,9.06,44.51,15.14,89.57,18.74,134.87,8.38,105.16,4.02,210.81-2.41,315.93-6.14,100.33-9.37,202.85-34.57,300.64-21.47,83.33-64.53,156.58-105.97,231.06v-4.72c6.87-12.21,13.78-24.35,20.57-36.45,21.91-39.08,43.47-78.57,60.25-120.18,19.19-47.57,30.95-97.67,38.53-148.29,7.72-51.6,11.26-103.7,14.68-155.73,3.57-54.28,7.12-108.57,9.26-162.93,4.26-108.2,2.96-217.28-15.66-324.22-1.74-9.99-3.71-19.98-5.84-29.98-19.37-90.89-51.83-182.27-40.97-275.83,5.02-43.22,18.74-88.89,57.52-113.32,19.24-12.12,41.36-19.58,62.49-27.62,23.64-9,47.42-17.59,71.36-25.72C460.78,10.59,667.78-27.1,864.17,23.47c50.57,13.03,98.82,33.24,148.88,47.91,25.73,7.53,51.85,13.27,78.55,15.96,26.48,2.66,53.11,2.93,79.69,3.6,36.58.93,73.5,2.77,108.71,12.39Z"/></svg>