<?xml version="1.0" encoding="UTF-8"?><svg id="slidefrontpage" xmlns="http://www.w3.org/2000/svg" viewBox="0 0 1280 1057.14"><path d="m1280,1054.89v2.25c-22.68-1.67-45.36-3.33-68.05-5-71.99-5.3-146.03-9.07-214.52-33.94-30.74-11.16-63.14-26.75-86.44-50.24-10.85-10.94-18.38-24.16-20.64-39.52-2.62-17.82,1.07-35.98,4.86-53.35,16.5-75.44,48.2-148.27,53.29-225.96.49-7.38.67-14.73.53-22.02-.57-31.36-6.97-61.83-20.1-90.87-7.5-16.59-16.13-32.73-22.11-49.96-6.18-17.8-8.28-36.27-8.79-55.01-1.04-37.61,2.13-76.16-17.12-110.15-15.44-27.29-40.81-47.61-68.53-61.52-69.72-35-149-26.49-223.99-19.64-76.18,6.95-153.5,8.23-226.79-17.04-33.75-11.63-64.69-28.96-92.92-50.75-29.28-22.6-55.54-48.75-82.66-73.83C134.51,50.7,73.02,3.49,0,2.26V0c14.35.23,28.59,2.17,42.53,5.78,69.08,17.89,121.58,68.95,172.11,116.28,27.47,25.73,55.62,51.18,87.9,70.83,32.51,19.8,68.69,32.78,105.89,40.42,37.68,7.74,76.35,10.07,114.75,8.9,41.91-1.27,83.52-6.94,125.35-9.52,67.82-4.2,139.6,1.26,195.57,43.94,22.03,16.79,40.01,39.11,48.59,65.7,12.18,37.77,4.04,77.99,9.73,116.64,5.58,37.86,28.78,69.33,39.72,105.46,6.17,20.42,8.92,41.5,9.17,62.68.18,14.84-.86,29.71-2.8,44.43-9.93,75.25-41.22,145.48-54.32,220.01-3.57,20.29-4.31,41.79,6.68,60.07,9.58,15.92,25.3,27.35,40.74,37.1,30.69,19.38,65.14,31.94,100.32,40.33,75.25,17.95,154.16,19.67,231.01,25.32,2.35.17,4.71.35,7.06.52Z"/></svg>