<?xml version="1.0" encoding="UTF-8"?><svg id="slidefrontpage" xmlns="http://www.w3.org/2000/svg" viewBox="0 0 1280 1113.8"><path d="m1280,0v3.49c-45.33,48.27-80.07,105.02-95.99,172.86-20.72,88.3-4.69,179.86-17.96,269-4.05,27.21-11.34,53.45-21.86,78.51-5.38,12.82-11.6,25.34-18.68,37.51-19.77,34.03-44.66,64.79-70.66,94.2-26.97,30.5-55.36,59.71-82.01,90.49-29.73,34.32-56.86,70.85-81.03,109.29-23.41,37.22-41.98,77.34-66.27,113.98-22.79,34.37-52.18,61.86-87.71,82.77-70.21,41.3-154.02,62.86-235.37,61.65-41.1-.61-82.24-7.34-121.03-21.08-40.04-14.17-76.27-36.24-109.8-62.08-68.01-52.42-125.88-118.69-202.32-159.65-21.36-11.45-44.97-20.52-69.31-26.03v-2.49c35.08,8.16,68.89,23.97,98.81,43.4,72.59,47.16,129.53,114.07,201.12,162.53,72.97,49.4,159.31,69.2,246.78,61.53,43.23-3.8,85.9-13.93,126.4-29.47,40.77-15.65,80.82-36.5,112.81-66.65,31.83-29.98,52.38-68.81,73.14-106.71,21.61-39.45,45.5-77.48,72.52-113.46,50.09-66.71,112.73-122.67,162.68-189.42,18.68-24.97,35.34-51.67,47.68-80.31,3.8-8.81,7.19-17.79,10.11-26.97,14.05-44.25,16.94-90.93,17.65-137.06.7-45.14-.69-90.43,4.09-135.41,4.24-39.86,14.19-78.49,31.19-114.85,19.39-41.46,45.03-77.58,75.02-109.57Z"/></svg>