<?xml version="1.0" encoding="UTF-8"?><svg id="slidefrontpage" xmlns="http://www.w3.org/2000/svg" viewBox="0 0 1280 1674.45"><path d="m1280,296.17v3.07c-29.17-45.69-60.53-89.97-94.39-131.87-30.34-37.54-65.89-72.44-111.79-89.89-43.73-16.63-91.31-17.15-137.43-14.94-46.62,2.23-93.39,7.56-140.08,3.91-21.51-1.69-42.93-5.32-63.46-12.09-22.62-7.47-43.66-18.78-65.09-29.02-42.46-20.27-99.39-38.54-139.39-2.82-29.27,26.13-36.37,68.42-49.86,103.41-6.26,16.22-13.93,31.92-25.09,45.38-11.96,14.44-27.01,25.93-42.54,36.27-34.8,23.15-74.9,42.03-97.66,78.8-4.81,7.78-8.96,15.99-12.51,24.53-16.49,39.55-20.4,85.97-20.02,127.44.49,53.23,9.73,105.92,20.22,157.96,10.25,50.79,21.95,101.36,29.06,152.73,7.44,53.7,9.14,108.02,6.92,162.15-2.25,54.45-8.37,108.68-16.34,162.58-7.69,51.96-17.03,103.81-31.26,154.42-13.51,48.08-31.71,94.66-55.94,138.38-24.21,43.65-53.35,84.33-83.99,123.66-48.56,62.33-98.99,123.27-149.36,184.22v-4.02c33.63-41.13,67.27-82.24,100.88-123.39,32.81-40.16,65.48-80.56,94.6-123.51,29.34-43.26,54.47-89.07,72.83-138.08,18.77-50.13,31.23-102.39,40.74-154.99,19.84-109.76,32.61-222.93,23.78-334.47-8.47-107.01-43.29-209.81-52.39-316.69-4.26-50.09-2.33-101.38,11.91-149.86,1.84-6.25,3.92-12.46,6.31-18.53,5.88-14.96,13.62-29.14,24.13-41.44,12.22-14.31,27.42-25.71,43.05-36.03,34.71-22.89,74.61-41.93,96.7-78.92,19.66-32.91,24.79-72.03,42.9-105.63,8.21-15.25,19.51-28.89,34.65-37.64,18.58-10.74,40.69-12.87,61.66-10.22,48.6,6.14,88.49,37.52,134.38,52.02,91.66,28.96,188.36-2.45,281.8,8.84,43.82,5.29,83.66,21.53,117.61,49.89,37.09,30.99,65.87,71.09,93.86,110.11,17.47,24.35,34.34,49.12,50.6,74.28Z"/></svg>