<?xml version="1.0" encoding="UTF-8"?><svg id="slidefrontpage" xmlns="http://www.w3.org/2000/svg" viewBox="0 0 1280 1141.14"><path d="m1280,0v2.74c-13.4,9.4-26.43,19.33-39,29.81-63.38,52.81-115.96,120.14-143.33,198.55-33.11,94.85-26.24,196.92-37.53,295.36-4.53,39.58-11.58,79.67-23.15,118.22-12.35,41.16-29.84,80.55-54.92,115.67-26.14,36.59-61.26,62.88-93.67,93.38-16.53,15.56-31.12,32.64-42.86,52.11-11.49,19.06-20.64,39.4-29.91,59.6-17.72,38.59-36.82,76.28-69.58,104.4-30.98,26.59-69.06,43.62-108.05,54.76-44.39,12.67-93.44,21.45-139.41,13.52-34.8-6.01-66.72-21.98-95.02-42.72-60.52-44.33-105.49-105.89-162.49-154.22-60.94-51.67-136.79-78.64-216.77-77.06-8.12.16-16.23.61-24.31,1.36v-2.29c21.88-1.96,43.92-1.85,65.71.36,36.48,3.7,72.37,13.29,105.54,28.98,33.65,15.93,63.09,38.56,90.24,63.82,55.22,51.35,102,114.8,167.93,153.42,36.96,21.65,77.71,31.15,120.51,28.43,46.07-2.93,93.72-14.2,135.82-33.29,41.39-18.78,76.53-47.11,100.27-86.18,22.63-37.27,36.12-79.27,59.02-116.38,23.57-38.22,59.1-64.36,91.63-94.33,31.95-29.44,57.05-64.66,75.43-103.99,9.03-19.31,16.43-39.15,22.53-59.35,19.85-65.65,26.03-135.19,29.93-203.48,2.82-49.44,5.23-99.13,14.44-147.9,8.14-43.1,22.3-84.58,43.39-123.09,37.56-68.58,93.77-125.64,157.61-170.21Z"/></svg>