<?xml version="1.0" encoding="UTF-8"?><svg id="slidefrontpage" xmlns="http://www.w3.org/2000/svg" viewBox="0 0 1280 556.82"><path d="m1280,550.88v5.93c-1.38-2.62-2.76-5.23-4.15-7.84-30.59-57.47-65.86-112.17-106.42-163.14-80.31-100.92-179.09-187.03-289.82-253.13-55.29-33.01-113.57-61.04-173.97-83.37C636.46,23.75,562.05,1.17,487.64,2.61,342.54,5.42,220.54,100.48,112.7,187.46c-36.34,29.31-73.66,59.38-112.7,86.77v-3.47c56.84-40.29,110.28-86.46,164.62-128.27,55.6-42.78,114.22-83.06,179.14-110.41C409.44,4.38,478.96-6.45,549.74,3.81c68.51,9.92,136.05,32.82,199.69,59.63,59.48,25.06,116.6,55.61,170.56,91.02,106.71,70.03,201,159.02,276.54,261.93,31.43,42.81,58.32,88.03,83.47,134.5Z"/></svg>