<?xml version="1.0" encoding="UTF-8"?><svg id="slidefrontpage" xmlns="http://www.w3.org/2000/svg" viewBox="0 0 1280 266.85"><path d="m1280,0v2.25c-6.26,5.35-12.54,10.67-18.83,15.98-25.33,21.37-50.87,42.55-77.81,61.88-28.27,20.28-58.16,38.49-90.22,52.15-31.54,13.43-64.72,22.43-98.02,30.31-35.26,8.33-70.82,15.48-105.66,25.48-34.22,9.83-67.72,22.02-102.13,31.2-33.75,9-68.75,15.13-103.77,12.18-27.68-2.34-54.35-10.66-79.39-22.49-52.37-24.75-96.92-62.69-145.95-93-25.61-15.84-52.65-29.77-81.71-38.08-35.57-10.19-73.46-12.22-109.94-6.06-57.28,9.68-107,40.36-150.12,78.1C75.44,185.8,39.04,228.01,0,266.85v-3.11c47.38-47.38,90.72-99.47,144.59-139.53,46.12-34.3,99.69-56.72,157.73-58.06,33.46-.78,66.9,5.17,98.02,17.46,26.19,10.35,50.6,24.61,74.1,40,47.83,31.34,92.92,68.75,146.47,90.22,29.68,11.9,61.03,17.42,93.02,15.8,36.57-1.86,72.16-11.71,106.95-22.53,33.91-10.55,67.51-21.77,102.04-30.19,34.24-8.35,68.84-15.2,102.88-24.36,34.87-9.39,68.75-21.59,100.52-38.91,30.93-16.85,59.69-37.39,87.3-59.2,22.37-17.67,44.61-35.77,66.38-54.44Z"/></svg>