<?xml version="1.0" encoding="UTF-8"?><svg id="slidefrontpage" xmlns="http://www.w3.org/2000/svg" viewBox="0 0 1280 1126.37"><path d="m1280,0v1.96c-43.22,21.08-84.28,46.29-120.9,77.81-30.14,25.94-57.09,55.81-78.32,89.51-23,36.5-37.54,76.73-46.06,118.92-9.11,45.12-12.49,91.16-18.6,136.73-6.41,47.76-14.83,95.24-25.26,142.28-10,45.08-21.22,90.22-35.82,134.06-5.55,16.66-11.88,32.99-19.34,48.72-10.25,21.6-22.64,42.06-38.13,60.7-28.41,34.18-61.53,63.34-85.73,101.02-22.52,35.05-40.14,73.09-64.15,107.21-42.25,60.04-108.06,98.75-181.23,106.25-68.71,7.04-132.39-17.42-187.82-56.53-53.86-38.01-99.63-85.93-150.31-127.83-25.53-21.1-52.46-40.83-81.96-56.05-34.12-17.6-70.17-26.93-108.43-29.7-11.94-.86-24.74-1.39-37.94-2.07v-2.01c36.88,1.65,73.55,3.25,108.89,15.29,60.4,20.57,110.38,62.42,157.27,104.3,48.91,43.69,96.71,90.7,155.02,121.91,64.72,34.62,139.13,41.45,208.33,15.65,35.98-13.42,69.02-35.05,94.91-63.49,27.92-30.69,46.86-68.01,67.29-103.77,10.32-18.07,21.09-35.95,33.62-52.59,12.1-16.07,25.92-30.68,39.75-45.24,15.72-16.54,31.55-33.13,44.67-51.87,9.1-12.99,16.89-26.84,23.67-41.18,2.89-6.1,5.6-12.29,8.14-18.53,16.81-41.25,27.98-84.94,38.56-128.12,11.22-45.78,20.53-92.03,27.91-138.59,7.33-46.2,11.43-92.77,18.06-139.05,6-41.91,15.15-83.57,33.26-122.06,45.21-96.05,127.9-158.56,220.65-203.64Z"/></svg>