<?xml version="1.0" encoding="UTF-8"?><svg id="slidefrontpage" xmlns="http://www.w3.org/2000/svg" viewBox="0 0 438.9 1072.38"><path d="m436.2,774.41c-4.83,26.06-15.77,50.67-30.1,72.87-30.41,47.09-74.71,83.68-121.23,114.05-52.47,34.27-109.55,61.46-169.15,80.81-37.97,12.33-76.92,20.99-115.72,30.24v-2.34c47.93-11.51,95.97-22.36,142.33-39.51,58.57-21.67,114.54-51.02,165.28-87.45,44.82-32.18,87.08-72.53,111.14-122.94,11.82-24.78,18.53-51.9,18-79.43-.57-29.92-9.27-58.87-19.34-86.8-9.95-27.62-21.48-54.74-29.17-83.12-7.02-25.92-9.23-52.02-8.06-78.52.24-5.43.62-10.88,1.13-16.35,5.82-62.06,24.74-127.56,1.93-188.44-20.41-54.49-73.54-82.75-118.67-114.18-24.13-16.8-46.48-35.87-66.17-57.75-19.61-21.79-34.54-47.3-54.33-68.88-9.58-10.44-20.51-19.6-33.28-25.89-14.63-7.19-30.79-10.65-46.82-12.99C42.81,4.71,21.42,2.92,0,2.2V0c3.67.13,7.34.29,11.01.49,31.39,1.68,65.77,3.4,95.11,15.72,25.58,10.74,43.29,31.75,59.33,53.58,18.9,25.74,38.26,50.31,62.15,71.7,21.97,19.67,46.59,35.57,70.95,52.03,21.95,14.81,43.9,30.45,61.31,50.62,18.83,21.82,29.9,48.2,34.09,76.62,8.49,57.62-8.69,114.21-11.61,171.51-.4,7.59-.53,15.2-.33,22.82,1.68,62.84,34.52,117.42,49.86,177.06,6.93,26.95,9.43,54.75,4.33,82.26Z"/></svg>