<?xml version="1.0" encoding="UTF-8"?><svg id="slidefrontpage" xmlns="http://www.w3.org/2000/svg" viewBox="0 0 1280 1104.56"><path d="m1280,1102.51v2.05c-33.42-12.31-69.15-19.41-103.55-24.52-72.03-10.7-147.84-15.25-213.72-49.24-56.42-29.1-99.79-81.04-118.34-141.79-10.11-33.08-11.52-67.17-7.06-101.35,5.34-40.95,17.11-80.76,21.72-121.83,3.93-35.04,3.57-70.38.95-105.52-.51-6.86-1.1-13.7-1.77-20.54-3.94-40.23-9.18-80.76-16.66-120.5-11.87-63.15-38.05-125.54-95.31-160.06-64.23-38.72-141.52-28.8-212.47-23.36-72.74,5.58-147.66,6.99-215.83-22.89-64.38-28.21-108.43-83.7-157.93-131.25C117.54,40.9,60.5,1.92,0,2.28V0c3.71-.03,7.42.11,11.14.39,71.13,5.4,127.58,55.74,175.09,104.26,24.21,24.72,48.05,50.06,75.32,71.49,30.33,23.84,64.84,40.67,102.26,50.13,75.05,18.97,152.87,8.08,228.87,2.53,65.91-4.81,137.92,5.47,186.99,53.5,46.33,45.34,60.53,109.6,69.69,171.38,5.25,35.44,10.07,71.01,12.6,106.63,3.32,46.55,2.76,93.17-5.81,139.64-7.66,41.53-19.28,82.82-19.2,125.36.07,34.12,8.53,67.98,23.71,98.49,14.67,29.5,35.42,55.88,60.72,77,28.68,23.94,62.93,39.64,98.64,49.95,69.76,20.13,143.18,20.85,213.58,37.84,15.54,3.75,31.16,8.3,46.4,13.92Z"/></svg>