<?xml version="1.0" encoding="UTF-8"?><svg id="slidefrontpage" xmlns="http://www.w3.org/2000/svg" viewBox="0 0 1280 1101.85"><path d="m1280,1099.32v2.53c-46.33-16.09-94.65-25.96-143.88-30.21-37.57-3.24-75.61-4.84-112.35-14.01-31.77-7.93-61.37-22.27-87.34-42.21-53.58-41.13-87.88-101.93-102.23-167.38-7.96-36.3-10.03-73.63-7.81-110.68,2.47-41.19,9.56-81.9,13.32-122.97,2.33-25.46,3.31-51.22,2.95-77.04-.79-56.04-7.88-112.31-21.01-166.26-4.29-17.65-11.49-34.3-20.63-49.97-8.95-15.35-19.04-31.11-30.74-44.52-21.81-25-52.97-39.96-84.81-47.59-17.17-4.11-34.77-5.7-52.31-7.43-15.67-1.56-31.37-2.78-47.11-3.18-35.93-.92-71.71,2.97-107.59,4.02-67.64,1.99-138.93-2.75-199.44-35.95-53.46-29.35-90.99-78.83-135.01-119.65-22.65-20.99-47.68-40.06-76.6-51.5C45.76,6.76,23,3.25,0,2.31V0c3.37.13,6.74.32,10.11.57,32.47,2.44,63.04,11.91,90.59,29.31,24.93,15.74,46.49,36.15,67.14,57.03,21.53,21.77,42.28,44.4,65.48,64.43,26.01,22.44,55.06,40,87.71,50.97,68.92,23.17,142.88,19.2,214.33,14.91,33.11-1.99,65.94-1.08,98.93,2.22,31.85,3.18,63,7.5,92.13,21.66,13.86,6.74,26.85,15.37,37.98,26.06,11.77,11.31,20.91,25.23,29.83,38.8,9.07,13.79,17.21,28.23,23.11,43.67,6.89,18.01,10.31,37.24,13.8,56.13,8.07,43.67,12.4,87.58,13.08,131.59.56,36.83-1.44,73.72-5.92,110.59-4.91,40.35-10.92,80.75-10.51,121.51.37,37.61,5.81,75.3,17.62,111.08,21.62,65.54,66.13,123.66,127.93,155.8,69.33,36.06,150.25,27.25,225.03,41.2,27.74,5.17,55.04,12.47,81.63,21.79Z"/></svg>