<?xml version="1.0" encoding="UTF-8"?><svg id="slidefrontpage" xmlns="http://www.w3.org/2000/svg" viewBox="0 0 398.83 984.06"><path d="m398.66,707.71c-2.77,50.5-35.95,93.19-73.95,123.76-20.82,16.75-43.58,30.89-66.55,44.48-23.23,13.74-46.76,27-70.75,39.4-58.91,30.46-122.06,56.38-187.41,68.71v-2.08c77.15-14.55,150.81-48.27,219.01-86.14,45.41-25.22,93.18-51.32,129.55-89.06,17.54-18.2,32.14-39.68,40.57-63.63,8.48-24.08,9.45-49.19,3.08-73.89-6.29-24.37-17.76-46.93-26.99-70.22-9.39-23.7-14.93-48.03-16.34-73.5-1.25-22.59.11-45.08,2.03-67.56,2.61-30.62,6.23-61.2,5.65-91.95-.48-25.55-4.2-50.93-13.05-74.97-8.45-22.94-21.01-44.37-36.8-63.03-16.23-19.17-35.91-34.12-56.41-48.41-20.06-13.99-40.38-27.95-56.52-46.57-16.75-19.33-29.19-41.86-44.98-61.92-14.27-18.12-31.73-33.19-51.83-44.52C67.57,10.03,33.68,1.57,0,2.36V.05c42.95-.98,86.41,13,120.35,39.4,19.16,14.92,33.54,33.87,47.1,53.81,14.96,22,29.94,43.11,50.7,60.07,20.18,16.49,42.8,29.71,62.92,46.29,18.46,15.2,34.32,33.47,46.76,53.89,12.42,20.4,21.43,42.92,26.21,66.33,5.32,26.13,5.53,52.95,4,79.48-1.12,19.44-3.23,39.04-4.92,58.66-3.04,35.15-4.74,70.4,2.99,105,10.96,49.06,45.39,92.76,42.55,144.73Z"/></svg>