<?xml version="1.0" encoding="UTF-8"?><svg id="slidefrontpage" xmlns="http://www.w3.org/2000/svg" viewBox="0 0 1280 1079.38"><path d="m1280,1077.11v2.27c-51.75-7.82-103.38-16.36-154.89-25.6-68.57-12.31-144.98-22.05-199.31-69.89-23.66-20.84-40.55-48-45.5-79.39-5.65-35.86,3.06-72.29,13.04-106.58,18.18-62.45,38.41-126.01,35.24-190.94-.7-14.3-2.54-28.67-5.78-43.11-8.48-37.76-24.34-73.31-34.64-110.55-8.46-30.6-12.29-62.21-19.85-93.01-7.71-31.4-19.97-62.38-44.27-84.7-23.57-21.66-54.71-32.05-85.89-36.53-31.54-4.53-63.63-3.56-95.34-1.83-35.8,1.96-71.61,3.92-107.47,3.93-68.08.02-137.88-6.67-200.7-34.69-64.55-28.8-112.48-80.91-165.28-126.11C122.24,40.04,63.34,2.78,0,2.28V0c5.7.03,11.41.37,17.11,1.01,69.7,7.81,126.93,53,177.19,98.41,26.67,24.1,52.82,48.95,81.89,70.2,29.17,21.32,61.2,37.71,95.7,48.52,68.05,21.33,140.62,22.45,211.27,19.81,63.45-2.37,131.76-13.19,193.3,7.72,27.34,9.29,51.4,25.91,67.76,49.94,16.93,24.87,24.66,54.58,30.62,83.68,6.85,33.48,12.62,66.67,23.42,99.2,11.92,35.93,26.25,71.37,31,109.19.81,6.42,1.37,12.86,1.69,19.3,1.64,31.78-2.25,63.7-8.81,94.81-8.03,38.07-20.99,74.67-30.95,112.22-9.89,37.28-16.23,77.78-2.17,114.89,12.03,31.71,37.61,56.51,66.28,73.64,31.82,19.01,68.05,29.01,104.07,36.56,38.85,8.15,78.09,14.74,117.22,21.4,34.42,5.86,68.89,11.4,103.41,16.61Z"/></svg>