<?xml version="1.0" encoding="UTF-8"?><svg id="slidefrontpage" xmlns="http://www.w3.org/2000/svg" viewBox="0 0 1280 256.89"><path d="m1280,0v2.63c-38.22,32.29-77.86,63.01-120.27,89.58-52.35,32.8-108.98,58.73-169.5,72.04-64.98,14.29-132.62,16.39-195.89,38.24-29.88,10.32-58.81,25.82-90.88,27.98-30,2.03-58.7-9.14-84.33-23.77-26.17-14.93-50.4-33.28-74.93-50.69-24.59-17.46-49.31-34.81-75.19-50.32-50.87-30.5-107.83-53.81-168.23-49.76-61.53,4.13-117.46,34.87-165.19,72.16C86.73,166.27,44.77,213.46,0,256.89v-2.7c54.69-53.05,104.94-111.48,169.43-153,47.9-30.84,103.1-51.48,160.79-47.45,56.51,3.95,108.37,29.66,155.44,59.6,25.49,16.21,50.01,33.87,74.63,51.35,24.75,17.58,49.5,35.97,77.04,49.01,31.58,14.96,63.89,18.51,97.53,8.41,31.36-9.41,60.67-23.8,92.61-31.64,64.33-15.8,131.3-17.87,194.95-36.82,59.99-17.86,115.49-48.08,166.77-83.57,31.39-21.73,61.6-45.33,90.81-70.08Z"/></svg>