<?xml version="1.0" encoding="UTF-8"?><svg id="slidefrontpage" xmlns="http://www.w3.org/2000/svg" viewBox="0 0 1280 1526.19"><path d="m1280,110.26v2.04c-67.57-21.61-147.26-11.78-215.75-24.78-51.26-9.74-100.43-27.61-149.79-44.06-51.8-17.28-103.97-31.84-158.43-37.66-110.64-11.84-221.93,5.2-330.16,27.53-46.36,9.56-93.12,18.9-138.5,32.55-38.7,11.64-77.19,26.92-109.9,51.1-36.51,26.98-61.71,65.09-69.85,110.01-9.37,51.72,1.51,104.85,12.18,155.48,8.13,38.59,15.37,77.3,21.57,116.14,10.83,67.76,18.52,135.94,22.32,204.67,6.09,110.19,3.1,220.88-9,330.57-11.61,105.21-29.34,211.61-65.03,311.58-22.82,63.96-55.72,122.55-89.66,180.76v-3.97c20.6-35,40.87-70.24,58.33-106.92,23.11-48.52,40.44-99.57,53.87-151.56,28.12-108.82,42.51-221.88,48.97-333.96,6.46-111.94,3.52-224.43-8.79-335.88-3.52-31.86-7.81-63.64-12.87-95.29-4.04-25.36-8.57-50.63-13.6-75.81-10.05-50.29-23.5-100.7-23.97-152.31-.39-44.58,11.07-88.33,39.84-123.12,24.95-30.15,59.31-50.84,94.99-65.89,38.21-16.12,78.6-26.33,118.97-35.33,55.64-12.39,111.45-24.29,167.8-33.02,108.42-16.78,219.49-20.83,326.25,8.04,50.96,13.78,100.21,33,150.75,48.11,25.41,7.59,51.17,14.16,77.37,18.36,28.64,4.59,57.62,5.73,86.55,6.99,38.83,1.68,78.48,3.8,115.54,15.63Z"/></svg>