<?xml version="1.0" encoding="UTF-8"?><svg id="slidefrontpage" xmlns="http://www.w3.org/2000/svg" viewBox="0 0 445.85 1094.74"><path d="m443.54,789.02c-7.78,54.34-34.6,103.6-74.06,141.46-37.87,36.33-84.77,61.94-132.88,82.06-76.78,32.11-159.83,50.11-236.6,82.2v-2.48c85.84-35.79,178.7-53.92,263-93.91,46.77-22.19,91.54-51.01,125.07-90.99,36.88-43.98,57.16-100.64,55.51-158.11-1.71-60.11-30.05-114.27-44.47-171.64-5.84-23.24-8.45-46.79-8.73-70.58-.08-6.6.02-13.22.28-19.85,1.27-31.87,5.5-63.51,7.88-95.3,2.25-30.15,3.8-61.84-3.12-91.52-6.46-27.7-22.91-48.69-45.66-65.11-20.39-14.71-43.14-25.67-64.24-39.27-22.71-14.64-42.43-33.09-60.72-52.88-18.5-20.03-35.67-41.24-54.24-61.2-17.07-18.34-35.14-33.83-57.29-45.74C79.17,17.81,39.41,5.01,0,2.05V0c1.76.15,3.51.32,5.26.51,47.19,5.1,96.43,21.46,134.83,49.85,20.9,15.45,37.91,36,54.86,55.51,18.65,21.46,37.06,43.27,58.2,62.37,20.52,18.53,43.74,32.18,67.52,45.98,20.67,12,41.82,24.87,57.04,43.69,17.37,21.48,22.81,48.5,24.26,75.47,1.76,32.58-1.56,65.14-4.7,97.53-2.46,25.28-4.88,50.69-4.71,76.12.04,7.03.28,14.07.77,21.11,2.16,30.85,10.42,60.43,20.17,89.64,9.63,28.83,20.42,57.39,26.81,87.18,5.93,27.67,7.25,56.01,3.23,84.06Z"/></svg>