<?xml version="1.0" encoding="UTF-8"?><svg id="slidefrontpage" xmlns="http://www.w3.org/2000/svg" viewBox="0 0 1280 550.41"><path d="m1280,544.39v6.02c-10.33-16.64-21.18-32.96-32.39-48.98-38.7-55.32-81.47-108.03-126.37-158.42-86.45-96.99-184.53-185.48-297.92-249.93-58.73-33.39-121.82-61.02-187.53-77.27-37.02-9.15-75.11-14.25-113.29-12.98-37.49,1.24-74.61,8.32-110.49,19.07-122.15,36.6-227.68,111.99-331.99,182.73-26.35,17.87-52.95,35.71-80.02,52.81v-3.36c42.54-27.02,84.01-55.89,125.47-83.92C232.29,97.93,347.16,23.53,477.24,4.04c74.51-11.17,148.38,1.8,218.76,26.97,60.96,21.81,118.99,51.4,173.35,86.49,109.92,70.97,204.57,163.46,288.51,263.26,43.45,51.66,85.98,105.85,122.14,163.63Z"/></svg>