<?xml version="1.0" encoding="UTF-8"?><svg id="slidefrontpage" xmlns="http://www.w3.org/2000/svg" viewBox="0 0 1280 248.06"><path d="m1280,0v3.04c-40.7,34.48-85.44,64.54-131.2,91.2-28.58,16.65-57.77,32.21-87.23,47.24-28.68,14.64-57.45,29.38-87.35,41.38-29.59,11.87-60.42,20.59-92.33,22.82-34.24,2.39-68.48-1.83-102.41-5.98-34.78-4.25-69.28-7.75-104.37-6.31-32.62,1.33-65.79,4.43-97.91-3.3-47.74-11.5-86.71-43.54-124.25-73.53-40.49-32.34-83.41-65.96-136.35-73.21-61.04-8.36-120.48,18.33-168.72,53.65C90.73,138.86,47.67,196.07,0,248.06v-2.68c56.8-61.73,106.87-130.44,181.26-172.78,48.04-27.35,104.62-42.1,159.05-26.56,46.98,13.41,85.21,45.82,122.69,75.68,41.04,32.71,84.58,64.91,138.51,70.11,34.32,3.31,68.73-1.89,103.09-1.09,34.45.81,68.53,6.29,102.72,9.98,34.12,3.68,68.66,5.45,102.59-.83,32.8-6.08,64.05-18.45,94.17-32.5,58.92-27.49,117.05-58.05,172.29-92.35,36.04-22.38,71.13-47.28,103.63-75.04Z"/></svg>