<?xml version="1.0" encoding="UTF-8"?><svg id="slidefrontpage" xmlns="http://www.w3.org/2000/svg" viewBox="0 0 1280 1118.82"><path d="m1280,0v2.88c-64.18,48.42-119.33,108.3-140.65,187.79-22.67,84.57-11.48,173.34-17.5,259.67-2.68,38.55-8.83,77.1-22.48,113.35-.98,2.61-2,5.2-3.06,7.78-13.87,33.78-33.82,64.6-56.34,93.21-48.43,61.51-108.17,113.22-155.11,175.99-50.26,67.24-77.34,150.91-143.24,205.97-58.79,49.13-136.47,73.99-212.75,72.08-83.23-2.09-163.94-34.54-229.8-84.64-34.8-26.47-64.32-58.74-96.32-88.36-32.15-29.76-67.5-54.62-108.28-71.05-30.23-12.18-62.15-19.86-94.47-22.92v-2.3c47.15,4.48,93.4,18.7,134.6,42.1,37.24,21.15,68.14,50.47,98.54,80.26,31.99,31.34,64.58,61.3,102.86,84.9,73.08,45.04,160.56,68.68,246.32,56.72,81.98-11.44,157.99-53.7,206.53-121.33,25.72-35.84,44.69-75.84,67.62-113.41,20.24-33.15,44.53-63.32,70.49-92.14,51.24-56.9,109.14-109.63,147.81-176.52,8.64-14.94,15.92-30.42,21.93-46.34,8.54-22.54,14.53-45.98,18.23-70.09,6.7-43.62,6.78-87.92,7-131.94.4-82.43,1.43-168.25,44.17-241.57,28.17-48.33,69.27-86.72,113.9-120.09Z"/></svg>