<?xml version="1.0" encoding="UTF-8"?><svg id="slidefrontpage" xmlns="http://www.w3.org/2000/svg" viewBox="0 0 1280 331.1"><path d="m1280,0v2.46c-54.83,25.26-110.16,49.73-159.17,85.06-55.22,39.82-97.21,94.03-127.04,154.91-7.66,15.62-14.27,31.63-20.67,47.8-4.71,11.9-10.09,24.65-20.15,33.06-24.05,20.13-54.36-2.95-71.54-21.04-20.44-21.52-34.78-47.82-52.29-71.61-20.14-27.36-44.97-48.11-77.88-58.14-69.68-21.23-142.24,1.97-213.12-2.85-34.18-2.33-65.89-12.43-94.53-31.31-27.51-18.12-51.2-41.21-76.46-62.19-27.58-22.91-59.23-43.86-95.09-50.46-35.73-6.57-69.09,5.68-95.18,30.2-23.4,21.99-40.1,49.89-56.6,77.13-16.59,27.39-32.92,54.95-50.66,81.62-20.42,30.68-43.07,60.39-69.62,85.83v-2.85c39.11-37.86,69.04-84.62,97.24-130.87,16.44-26.97,31.85-54.85,50.44-80.43,17.09-23.5,37.97-45.83,65.31-57.15,64.23-26.58,126.93,20.11,173.06,60.16,25.73,22.34,51.48,45.68,82.41,60.67,34.74,16.83,73.49,19.33,111.48,17.55,64.83-3.03,135.83-18.3,196.64,12.67,56.58,28.81,72.81,95.14,120.38,133.36,15.46,12.43,37.9,22.6,55.18,7.49,11.65-10.19,16.66-26.12,22.17-40.05,12.18-30.75,26.97-60.53,44.85-88.37,34.45-53.65,80.09-96.62,134.59-129.45,39.97-24.07,83.27-43.37,126.25-63.2Z"/></svg>