<?xml version="1.0" encoding="UTF-8"?><svg id="slidefrontpage" xmlns="http://www.w3.org/2000/svg" viewBox="0 0 1280 1442.71"><path d="m1280,125.78v1.91c-58.61-17.54-121.62-22.08-181.63-30.04-47.78-6.34-95.13-15.46-141.74-27.76-48.23-12.72-94.65-30.3-141.99-45.77-48.63-15.9-97.44-25.25-148.76-20.56-52.1,4.76-103.4,18.47-154.31,30.03-99.04,22.5-197.87,46.47-294.64,77.51-42.34,13.58-87.31,26.44-125.26,50.28-17.31,10.88-33.01,24.63-43.93,42.06-12.93,20.63-17.68,44.83-17.55,68.92.25,48.4,15.98,96.88,27.89,143.38,12.34,48.18,25.06,96.28,35.66,144.88.93,4.28,1.85,8.56,2.74,12.85,9.24,44.04,16.56,88.53,19.88,133.43,3.66,49.67,1.4,98.99-5.69,148.25-7.43,51.56-18.12,102.73-20.81,154.85-2.55,49.41.97,98.86.66,148.28-.3,48.56-5.07,96.69-20.9,142.85-15.01,43.78-37.38,84.54-60.08,124.71-3.16,5.59-6.35,11.21-9.54,16.87v-4.57c13.02-22.99,26.06-45.9,37.86-69.16,22.55-44.44,39.97-90.8,46.3-140.46,6.52-51.1,3.63-102.74,2.76-154.08-.88-51.29,2.82-101.44,10.84-152.11,8.12-51.37,17.37-102.52,18.2-154.68,1.03-65.5-8.29-130.23-21.74-194.18-7.98-37.98-17.42-75.69-27-113.12-12.23-47.77-26.47-95.61-34.93-144.23-7.24-41.58-7.44-86.78,19.12-121.96,23.18-30.71,59.64-47.9,94.74-61.18,46.57-17.61,94.43-32.19,142.28-45.85,100.79-28.78,203.27-52.66,305.83-74.26,47.98-10.1,96.85-17.18,145.77-9.84,49.44,7.42,96.04,26.43,143.12,42.39,48.89,16.57,98.92,29.78,149.63,39.46,45,8.58,90.47,13.4,135.85,19.34,37.11,4.86,75.14,10.85,111.37,21.56Z"/></svg>