<?xml version="1.0" encoding="UTF-8"?><svg id="slidefrontpage" xmlns="http://www.w3.org/2000/svg" viewBox="0 0 1280 261.9"><path d="m1280,0v2.95c-58.39,30.94-123.16,53.07-179.29,85.15-50.91,29.1-95.61,66.81-121.38,120.44-9.27,19.3-20.1,45.54-42.86,51.98-25.84,7.31-45.34-16.09-60.47-33.17-21.93-24.75-48.68-44.49-79.37-57.02-33.26-13.59-69.06-17.04-104.71-16.77-36,.27-71.93,3.85-107.95,2.79-33.98-.99-67.44-7.12-99.12-19.64-29.12-11.51-55.02-28.28-79.84-47.17-23.19-17.66-45.66-36.54-70.82-51.4-26-15.36-54.97-25.4-85.5-23.56-32.48,1.97-63.13,16.16-88.98,35.36C88.94,102.55,56.42,195.29,0,261.84v-4.23C66.25,178.56,98.68,66.9,199.64,24.24c25.91-10.95,54.31-15.13,82.06-9.62,27.33,5.42,51.97,19.34,74.56,35.17,24.05,16.85,46.32,36.09,70.43,52.86,27.5,19.12,57.75,33.66,90.18,42.2,70.7,18.63,142.79,1.35,214.42,7.89,31.43,2.87,61.89,11.3,89.5,26.75,12.99,7.26,25.21,15.89,36.39,25.71,11.26,9.87,20.62,21.34,30.86,32.19,10.21,10.82,22.78,22.14,38.56,22.22,14.88.07,26.14-9.93,34.18-21.51,7.41-10.68,12.69-22.66,18.35-34.31,6.09-12.53,13.27-24.43,21.64-35.57,33.44-44.46,81.96-74.73,131.05-99.23,46.89-23.41,99.77-43.27,148.18-68.99Z"/></svg>