<?xml version="1.0" encoding="UTF-8"?><svg id="slidefrontpage" xmlns="http://www.w3.org/2000/svg" viewBox="0 0 1280 548.35"><path d="m1280,538.88v9.47c-9.93-26.36-23.41-51.33-41.54-74.05-39.5-49.49-91.76-86.83-134.26-133.54-76.45-84.02-131.77-187.95-221.01-260.07-51.19-41.36-111.19-64.61-176.32-72.73-69.69-8.7-141.47-5.2-210.81,4.94C357.75,33.12,225.14,83.32,102.03,148.51c-34.66,18.35-68.44,38.51-102.03,59.08v-4.01c51.55-31.16,103.91-60.79,158.33-86.78C284.21,56.68,419.66,13.45,559.29,2.87c69.27-5.25,141.98-4.81,209.27,14.26,56.97,16.15,106.29,48.53,148.36,89.67,83.86,82.01,139.88,187.7,225.41,268.35,47.45,44.74,100.1,86.2,129.61,145.88,2.91,5.87,5.59,11.83,8.06,17.85Z"/></svg>