<?xml version="1.0" encoding="UTF-8"?><svg id="slidefrontpage" xmlns="http://www.w3.org/2000/svg" viewBox="0 0 1280 1146.77"><path d="m1280,0v2.79c-16.22,10.16-31.97,21.08-47.14,32.8-61.78,47.71-111.38,108.64-142.26,180.54-61.14,142.37-54.21,301.91-96.24,449.39-2.02,7.08-4.15,14.13-6.41,21.14-8.84,27.4-19.64,54.17-33.06,79.66-19.26,36.55-44.52,68.51-71.81,99.35-29.97,33.86-59.31,67.27-82.85,106.07-21.42,35.29-40.8,72.57-69.82,102.43-53.94,55.5-134.42,80.99-210.62,70.15-40.1-5.71-78.78-20.89-112.46-43.32-33.1-22.05-59.25-51.37-83.74-82.38-25.16-31.86-49.33-65.23-81.01-91.07-33.09-27-73.47-43.39-115.25-51.11-42.57-7.86-85.19-6.64-127.33-.28v-2.17c58.64-8.68,118.43-7.66,174.89,12.99,37.11,13.57,69.16,35.61,96.22,64.28,28.06,29.74,50.89,63.87,77.81,94.59,55.66,63.49,136.14,103.71,221.77,98.3,40.85-2.58,81-15.51,115.66-37.29,37.35-23.47,64.02-56.84,86.79-94.08,21.96-35.92,42.4-71.95,69.51-104.39,29.22-34.96,61.84-67.17,87.46-105.03,24.39-36.04,42.05-75.59,55.39-116.7,10.04-30.92,17.63-62.72,23.81-94.57,28.6-147.28,29.13-308.21,111.72-438.93,40.24-63.69,95.82-113.83,158.97-153.16Z"/></svg>