<?xml version="1.0" encoding="UTF-8"?><svg id="slidefrontpage" xmlns="http://www.w3.org/2000/svg" viewBox="0 0 1280 353.58"><path d="m1280,0v2.44c-55.11,25.31-106.15,57.66-151.41,98.35-47.99,43.14-88.89,94.15-120.24,150.57-19.21,34.57-49.97,127.19-106.49,95.84-13.64-7.57-23.47-20.38-33.11-32.3-9.95-12.3-19.79-24.68-29.99-36.78-20.95-24.88-43.61-49.12-71.08-66.91-29.13-18.87-61.83-27.3-96.34-28.24-34.42-.95-68.62,3.99-102.93,5.72-33.22,1.69-67.27.24-98.33-12.81-29.56-12.42-54.12-33.69-77.42-55.2-25.94-23.93-51.35-48.84-82.98-65.27-32.91-17.09-70.79-22.43-104.61-4.67-29.66,15.57-51.3,43.06-68.9,70.84-20.12,31.74-36.68,65.53-55.17,98.21-21.52,38.05-47.2,76.1-81,104.01v-2.79c51.6-43.2,80.68-106.31,112.82-164.17,28.42-51.2,67.39-116.71,133.31-119.64,69.04-3.07,118.37,56.84,165.75,97.72,26.94,23.25,56.59,42.05,92.07,48.61,33.86,6.25,68.62,2.95,102.66.13,32.71-2.7,65.97-5.44,98.52.3,30.7,5.42,58.37,19.5,82.5,39.02,24.48,19.8,45.05,43.9,64.86,68.23,9.96,12.23,19.46,24.97,30.03,36.69,11.75,13.03,26.79,24.74,45.37,22.53,29.58-3.52,46.99-37.17,58.6-60.99,13.73-28.15,28.33-55.51,45.87-81.51,35.31-52.36,79.13-98.93,129.16-137.46,24.73-19.05,50.98-36.13,78.47-50.94,13.09-7.05,26.47-13.44,40.01-19.53Z"/></svg>