<?xml version="1.0" encoding="UTF-8"?><svg id="slidefrontpage" xmlns="http://www.w3.org/2000/svg" viewBox="0 0 1280 1098.04"><path d="m1280,1096.2v1.84c-100.14-31.52-210.77-36.96-308.17-75.58-31.39-12.45-61.65-29.63-80.7-58.39-17.6-26.55-24.28-58.88-24.41-90.36-.31-77.64,39.66-148.25,47.71-224.73,1.79-16.97,2.33-33.92,1.85-50.82-1.88-66.36-19.62-131.92-40.38-194.69-6.56-19.84-13.49-39.54-20.49-59.23-6.27-17.61-12.37-35.45-21.56-51.8-18.28-32.54-48.63-49.97-84.93-55.45-34.86-5.26-70.36-1.18-105.27,1.46-36.77,2.78-73.61,5.17-110.5,5.44-70.47.51-142.88-6.78-207.35-37.19-67.36-31.78-114.87-89.46-170.71-136.7C112.48,33.95,56.83,2.15,0,2.27V0c.41,0,.82,0,1.24.01,71.38.76,131.87,45.58,181.92,92,27.78,25.76,54.43,52.87,84.47,76.05,30.13,23.26,63.62,41.03,99.91,52.6,70.88,22.59,146.75,23.12,220.35,19.23,36.53-1.93,72.98-6.05,109.54-7.36,31.73-1.13,65.58.47,94.4,15.2,30.19,15.43,46.37,44.06,58.04,74.69,14.5,38.05,27.69,76.86,39.41,115.86,15.58,51.85,27.54,105.75,29.11,159.88.8,27.18-1.02,54.41-6.31,81.47-14.63,74.84-53.22,147.42-40.63,225.52,5.75,35.66,22.76,67.98,52.28,89.49,32.27,23.53,72.89,35.67,111,45.94,76.51,20.63,155.79,29.15,231.87,51.52,4.47,1.31,8.94,2.68,13.4,4.1Z"/></svg>