<?xml version="1.0" encoding="UTF-8"?><svg id="slidefrontpage" xmlns="http://www.w3.org/2000/svg" viewBox="0 0 1280 321.19"><path d="m1280,0v2.45c-61.83,29.11-125.79,55.25-179.85,96.11-55.2,41.74-98.49,98.88-123.48,163.44-9.18,23.71-19.76,59.28-51.36,59.19-12.89-.03-21.96-8.84-28.24-19.27-7.92-13.14-13.98-27.09-22.72-39.79-36.28-52.73-94.78-89.97-158.15-99.54-73.06-11.04-148.34,12.87-220.41-7.53-56.19-15.91-99.42-57.95-146.87-89.68-23.17-15.49-48.23-29.3-75.87-34.6-31.65-6.07-63.5.7-91.15,16.9-62.87,36.83-92.2,105.97-125.49,167.18-15.44,28.38-33.64,57.27-56.41,80.93v-2.97c37.51-39.48,60.26-91.93,86.44-139.22,29.89-53.98,72.09-110.55,136-124.51,55.32-12.08,104.84,17.3,147.89,48.56,23.25,16.89,45.83,34.78,70.36,49.81,28.42,17.42,58.75,28.79,92.05,32.2,70.77,7.23,142.74-13.04,212.42,6.96,57.24,16.43,107.96,55.02,138.68,106.08,7.46,12.4,12.36,28.05,22.87,38.28,15.87,15.45,38.67,5.59,50-10.11,10.18-14.11,14.47-31.75,21.07-47.65,6.14-14.82,13.24-29.25,21.24-43.16,33.22-57.83,81.13-104.57,137.98-139.05,44.24-26.83,94.24-47.95,143-71.01Z"/></svg>