<?xml version="1.0" encoding="UTF-8"?><svg id="slidefrontpage" xmlns="http://www.w3.org/2000/svg" viewBox="0 0 1280 533.01"><path d="m1280,526.48v6.53c-30.58-49.87-59.14-101.38-93.32-146.77-79.04-104.96-183.26-189.07-298.02-252.19-58.28-32.05-119.41-58.85-182.24-80.66-64.98-22.56-132.17-41.07-200.81-47.79-68.99-6.75-140.78-.99-203.87,29.67-64.49,31.34-111.73,86.52-162.93,134.97C96.24,210.52,49.65,246.38,0,277.3v-3.45c7.22-4.52,14.38-9.15,21.47-13.88,29.75-19.85,58.28-41.51,85.36-64.87,26.75-23.06,51.52-48.16,76.73-72.87,24.57-24.08,49.87-47.69,78.33-67.17,27.76-19,58.44-33.17,90.87-42.09,65.16-17.93,134.32-15.34,200.36-3.87,66.55,11.55,131.74,31.95,194.66,56.27,60.58,23.41,119.35,51.6,175.16,84.85,110.64,65.92,209.84,152.4,283.64,258.42,25.6,36.77,48.9,77.61,73.42,117.84Z"/></svg>