<?xml version="1.0" encoding="UTF-8"?><svg id="slidefrontpage" xmlns="http://www.w3.org/2000/svg" viewBox="0 0 413.28 1032.48"><path d="m408.09,762.82c-14.65,49.66-54.24,88.79-94.12,119.62-45.28,35.01-95.1,64.69-146.64,89.49-52.47,25.25-107.42,45.23-163.83,59.67-1.16.3-2.33.59-3.5.88v-2.42c11.76-2.95,23.48-6.06,35.1-9.5,55.82-16.53,109.98-38.63,161.42-65.89,49.25-26.1,98.08-56.43,139.78-93.64,37.73-33.66,73.22-78.14,74.86-130.93,1.76-56.42-36.97-102.98-48.49-156.46-7.24-33.61-4.85-67.56-.5-101.4,2.95-22.92,6.81-45.8,9.19-68.48,3.03-28.91,3.88-58.46-2.46-87.01-5.51-24.86-16.1-48.47-30.65-69.35-15.64-22.46-35.69-40.93-58.65-55.71-22.6-14.55-46.57-27.06-65-47.09-18.18-19.76-30.95-43.61-47-64.99-15.38-20.48-34.53-37.5-56.73-50.26C77.41,10.12,38.46.66,0,2.55V.23c48.22-2.32,97.41,13.08,135.37,42.95,20.71,16.3,35.93,36.93,50.42,58.71,15.97,24.01,32.18,46.59,56.14,63.31,22.69,15.84,47.59,28.07,68.22,46.81,19.08,17.35,34.84,38.39,46.07,61.61,11.15,23.05,17.48,47.93,19.17,73.45,1.93,29.23-1.61,58.46-5.64,87.36-1.75,12.59-3.65,25.18-5.26,37.81-2.25,17.49-3.98,35.03-4.13,52.68-.26,29.37,5.14,57.27,15.99,84.53,10.47,26.33,24,51.56,31.6,78.97,6.8,24.53,7.36,49.89.14,74.4Z"/></svg>