<?xml version="1.0" encoding="UTF-8"?><svg id="slidefrontpage" xmlns="http://www.w3.org/2000/svg" viewBox="0 0 1280 1579.27"><path d="m1280,152.24v2.9c-11.97-10.61-24.85-20.25-38.73-28.7-43.97-26.79-94.51-37.5-145.15-42.79-51.58-5.39-103.39-6.95-154.8-14.22-110.2-15.59-217.62-46.29-327.77-62.15-51.63-7.43-106.9-10.49-150.07,23.92-19.21,15.3-34.61,34.9-50.32,53.6-18.78,22.34-37.56,44.68-56.34,67.02-35.08,41.75-72.69,82.55-102.36,128.45-28.11,43.5-45.08,92.28-51.67,143.57-.38,2.94-.72,5.87-1.04,8.81-10.71,98.61,10.6,197.85,24.94,295.01,13.72,92.89,17.84,185.83,7.45,279.32-10.11,91.05-32.2,180.66-64.43,266.38-32.44,86.25-75.08,168.63-126.33,245.2-13.84,20.68-28.3,40.92-43.38,60.71v-3.69c30.25-39.92,58.03-81.7,83.14-125.02,47.87-82.6,86.05-170.88,112.58-262.61,26.24-90.74,41.02-184.86,42.35-279.35.66-47.4-2.26-94.71-8.21-141.73-6.67-52.75-16.2-105.09-23.35-157.77-7.87-57.95-13.11-118.06-6.86-176.45,4.13-38.56,13.26-76.38,29.95-112.33,21.94-47.23,55.94-87.17,89.18-126.72,36.88-43.88,73.24-88.28,110.74-131.63,15.58-18,32.59-35.52,53.94-46.63C503.73,4.81,526.57.68,549.25.08c24.49-.65,48.9,2.59,73.06,6.24,27.77,4.18,55.4,9.27,82.94,14.77,55.64,11.11,110.94,23.92,166.7,34.46,55.57,10.51,111.23,17.35,167.63,21.26,50.48,3.5,101.86,6.95,150.15,23.26,33.42,11.29,63.84,29.18,90.27,52.17Z"/></svg>