<?xml version="1.0" encoding="UTF-8"?><svg id="slidefrontpage" xmlns="http://www.w3.org/2000/svg" viewBox="0 0 1280 259.93"><path d="m1280,0v3.16c-33.31,29.38-68.43,56.71-105.12,81.68-54.11,36.82-111.64,64.93-176.43,76.54-33.05,5.92-66.51,9.01-99.65,14.35-34.23,5.52-66.84,14.39-98.68,28.19-27.49,11.92-55.22,25.31-85.48,27.98-32.1,2.83-63.72-7.13-92.45-20.62-51.24-24.07-95.95-59.45-143.14-90.24-47.22-30.81-98.96-57.98-156.52-59.9-62.97-2.1-122.35,25.35-172.71,61.07C94.44,161.5,48.69,212.61,0,259.93v-2.66c58.63-56.95,112.81-119.1,184.69-160.04,49.78-28.36,106.67-44.94,164.12-35.79,53.72,8.56,101.25,37.21,145.66,67.14,48.14,32.45,95.37,69.38,150.28,89.82,32.9,12.25,66.6,15.31,100.44,5.06,31.21-9.45,59.75-25.9,90.82-35.78,63.64-20.25,131.55-19.06,195.95-35.85,63.53-16.56,119.98-52.04,172.34-90.61,26.15-19.26,51.41-39.7,75.7-61.22Z"/></svg>