<?xml version="1.0" encoding="UTF-8"?><svg id="slidefrontpage" xmlns="http://www.w3.org/2000/svg" viewBox="0 0 1280 250.78"><path d="m1280,0v2.99c-38.88,34.04-80.94,64.34-126.08,89.53-49.19,27.46-101.99,48.61-156.96,61.15-64.12,14.63-131.94,11.91-192.47,40.3-27.59,12.94-54.58,29.39-85.29,33.59-25.87,3.53-51.48-2.93-74.59-14.44-25.72-12.8-48.45-30.83-70.83-48.63-25.61-20.38-51.49-39.95-79.87-56.35-57.58-33.25-126.51-61.55-194.22-56.22-63.59,5-120.69,38.44-169.46,77.55C84.57,166.09,43.76,210.59,0,250.78v-2.55c55.49-50.93,105.89-108.64,169.11-149.87,49.5-32.27,106.66-53.84,166.52-48.45,64.07,5.77,127.47,34.9,180.97,69.47,25.15,16.25,48.06,35.31,71.64,53.68,23.54,18.33,48.43,36.49,76.9,46.33,29.9,10.34,59.78,7.8,88.85-3.96,29.45-11.92,56.35-28.99,87.08-37.81,31.52-9.05,64.34-11.92,96.75-16.03,30.16-3.83,59.93-9.55,89.15-18.01,55.17-15.96,107.63-40.5,156.21-71.03,34.22-21.51,66.5-45.89,96.82-72.55Z"/></svg>