<?xml version="1.0" encoding="UTF-8"?><svg id="slidefrontpage" xmlns="http://www.w3.org/2000/svg" viewBox="0 0 1280 1071.42"><path d="m1280,1069.33v2.09c-37.42-.94-74.78-3.33-111.93-8.11-36.51-4.69-72.75-11.68-108.11-21.95-34.22-9.93-69.38-22.2-100.07-40.6-27.37-16.41-48.23-40.14-56.02-71.55-7.59-30.66-3.56-63.03,2.8-93.53,7.49-35.93,18.78-70.93,25.71-107.01,6.88-35.78,10.6-72.44,8.09-108.85-.27-3.99-.61-7.97-1.04-11.95-4.29-40.05-18.54-77.43-30.88-115.46-10.6-32.66-16.18-65.45-21.38-99.26-4.64-30.19-10.33-61.87-27.71-87.69-21.2-31.49-57.47-44.43-92.97-52.61-140.66-32.4-294.76,22.69-428.68-43.88-62.96-31.29-111.84-83.08-165.6-127.09C123.22,41.78,64.23,5.62,0,2.32V0c6.99.32,13.97,1.05,20.92,2.15,146.69,23.4,221.7,178.2,359.36,221.52,70.55,22.19,145.81,18.09,218.73,16.31,70.07-1.72,146.05-3.55,211.91,24.32,28.78,12.18,50.01,32.99,62.08,61.84,11.68,27.9,15.11,58.44,19.58,88.09,5.43,36.09,15.57,70.09,27.18,104.62,11.14,33.15,20.26,66.22,22.91,100.97.3,3.86.52,7.75.65,11.66,1.32,39.39-4.24,78.75-12.79,117.11-7.76,34.79-18.91,68.8-24.77,104.01-5.54,33.27-6.69,69.49,9.36,100.21,17.63,33.73,52.42,51.58,86.15,65.62,88.52,36.82,183.36,48.59,278.73,50.9Z"/></svg>