<?xml version="1.0" encoding="UTF-8"?><svg id="slidefrontpage" xmlns="http://www.w3.org/2000/svg" viewBox="0 0 1280 1625.44"><path d="m1280,241.13v4.3c-24.32-35.97-52.26-69.3-85.45-98.01-35.54-30.75-76.45-55.95-121.25-70.64-50.55-16.58-101.88-15.03-154.25-11.05-28.26,2.15-56.65,4.39-85,2.69-24.25-1.46-48.07-6.25-71.41-12.86-48.89-13.83-95.54-34.91-145.19-46.17-25.75-5.83-54.41-10.79-80.46-3.98-20.68,5.41-36.68,19.18-47.79,37.1-20.29,32.75-25.91,72.14-43.45,106.22-37.73,73.29-124.03,101.38-170.25,167.51-6.06,8.66-11.07,17.6-15.16,26.76-36.76,82.12,0,182.14,16.95,265.53,22.06,108.51,33.99,219.93,32.67,330.72-.64,54.21-5.16,108.55-16.36,161.66-10.63,50.42-27.62,99.29-48.63,146.29-43.38,97.03-102.35,187.04-164.7,272.79-25.98,35.74-52.87,70.8-80.27,105.45v-3.62c45.18-57.19,88.91-115.51,129.44-176.1,59.46-88.9,114.4-183.23,146.41-285.83,33.91-108.69,35.98-223.78,28.26-336.5-3.91-57.09-10.81-113.97-20.68-170.33-9.31-53.22-23.51-105.37-33.17-158.49-8.42-46.23-12.69-95.57,3.34-140.71,1.32-3.71,2.77-7.32,4.35-10.86,14.8-33.24,40.54-59.14,68.76-81.95,31.93-25.82,67.06-48.54,94.11-79.83,27.98-32.37,37.08-72.18,52.44-110.98,13.73-34.7,35.61-64.24,75.07-69.26,23.12-2.93,47.18,1.14,69.71,6.24,25.28,5.73,49.86,14.06,74.28,22.62,50.64,17.75,101.02,35.79,155.3,36.85,56.52,1.11,112.89-10.83,169.38-4.53,89.79,10.01,168.85,64.21,226.6,131.44,13.06,15.21,25.14,31.1,36.4,47.53Z"/></svg>