<?xml version="1.0" encoding="UTF-8"?><svg id="slidefrontpage" xmlns="http://www.w3.org/2000/svg" viewBox="0 0 489.52 1151.99"><path d="m483.29,839.85c-6.55,27.89-18.78,54.2-34.88,77.84-74.51,109.36-207.87,150.12-327.17,189.35-41.08,13.51-81.6,28.14-121.24,44.95v-2.58c49.82-20.97,101.01-38.05,152.46-54.97,116.88-38.45,249.73-87.71,309.82-204.39,61.14-118.7-8.19-244-27.58-364.33-.64-3.97-1.23-7.92-1.75-11.87-4.2-31.62-3.13-63.13-2.24-94.91.87-31.05,1.24-63-7.91-93.01-9.67-31.72-30.81-55.08-56.46-75.16-25.87-20.25-52.11-39.22-76.08-61.81-47.29-44.58-88.85-97.51-144.01-132.88C103.24,28.49,51.85,6.69,0,2.14V0c4.89.46,9.77,1.08,14.63,1.85,58.27,9.19,116.3,36.08,161.92,73.34,52.88,43.17,95.02,97.97,148.08,141.05,24.95,20.25,53.35,37.11,74.47,61.7,19.39,22.59,28.98,50.47,32.36,79.73,3.67,31.73,1.07,63.75.56,95.57-.4,24.44,1.37,48.52,5.05,72.48,1.35,8.78,2.96,17.54,4.81,26.3,13.65,64.57,37.3,127.03,45.23,192.78,3.82,31.65,3.49,63.91-3.82,95.05Z"/></svg>