<?xml version="1.0" encoding="UTF-8"?><svg id="slidefrontpage" xmlns="http://www.w3.org/2000/svg" viewBox="0 0 1280 252.51"><path d="m1280,0v3.03c-27.62,24.91-56.9,47.97-87.6,68.97-103.26,70.61-222.53,116.53-346.29,134.45-63.3,9.17-127.64,11.11-191.36,5.45-31.96-2.84-64.98-6.32-94.8-18.92-27.02-11.42-50.19-29.87-72.68-48.33-49.83-40.88-103.29-77.22-168.12-88.48-62.94-10.92-122.71,8.37-173.5,45.55C89.07,143.14,46.85,200.53,0,252.51v-3.34c55.62-62.04,104.62-131.21,179.33-171.55,51.67-27.9,109.7-33.76,166.14-17.72,29.3,8.32,57.12,21.52,82.87,37.7,25.57,16.05,48.21,35.74,71.71,54.55,25.79,20.64,52.98,38.55,85.29,47,32.32,8.46,66.6,10.93,99.88,12.62,65.05,3.32,130.51-1.16,194.53-13.17,122.88-23.07,239.74-73.96,339.9-148.85,20.9-15.62,41.04-32.23,60.35-49.75Z"/></svg>