<?xml version="1.0" encoding="UTF-8"?><svg id="slidefrontpage" xmlns="http://www.w3.org/2000/svg" viewBox="0 0 1280 235.55"><path d="m1280,0v2.95c-43.03,31.59-90.46,58.02-137.03,81.7-30.67,15.59-61.67,30.54-92.35,46.1-29.32,14.86-58.31,30.6-88.98,42.56-30.9,12.06-63.81,20.01-97.18,17.69-33.7-2.35-65.75-13.95-98.65-20.65-35.83-7.3-70.83-4.02-106.87-.67-31.58,2.93-63.35,4.18-94.05-5.06-47.28-14.22-86.4-46.5-124.81-76.21-39.86-30.83-83.05-63.65-134.69-69.75-63.48-7.5-123.23,28.47-169.09,68.84C86.16,131.64,45.81,186.72,0,235.55v-3.18c54.09-58.01,100.24-124.26,165.25-170.86,46.91-33.64,104.48-56.28,162.33-40.84,46.75,12.47,85.54,44.02,123.06,73.1,39.66,30.74,81.64,63.35,132.16,72.93,35.11,6.66,70.84.82,106.01-2.05,17.46-1.43,35.04-2.17,52.5-.4,16.33,1.65,32.38,5.3,48.27,9.3,34,8.56,67.78,18.08,103.2,14.87,34.8-3.15,67.9-15.95,99.25-30.74,31.14-14.69,61.51-31.05,92.37-46.34,30.82-15.27,61.72-30.41,92.04-46.66,35.23-18.88,70.64-40.21,103.56-64.68Z"/></svg>