<?xml version="1.0" encoding="UTF-8"?><svg id="slidefrontpage" xmlns="http://www.w3.org/2000/svg" viewBox="0 0 1280 1100.32"><path d="m1280,0v3.16c-22.21,27.17-38.41,58.7-49.62,91.92-24.52,72.65-27.11,150.59-33.43,226.35-4.06,48.7-9.18,98.51-22.15,145.93-6.49,23.75-14.95,46.91-26.23,69.02-40.52,79.44-119.61,127.54-169.58,200-26.81,38.88-47.94,81.24-72.39,121.56-21.19,34.95-44.46,68.74-70.9,99.93-51.98,61.32-117.76,112.44-197.06,131.59-47.71,11.52-97.39,12.13-146.16,9.72-43.42-2.14-87.46-7.32-128.46-22.47-41.6-15.36-74.01-41.86-103.98-73.93-29.07-31.12-57.39-61.57-92.58-85.98-50.11-34.76-107.63-58.28-167.46-69.85v-2.34c71.91,13.88,140.46,44.9,196.8,91.67,33.6,27.89,59.89,62.92,92.09,92.22,34.76,31.64,77.13,49.96,122.9,59.19,46.4,9.36,95.05,11.52,142.28,10.06,49.02-1.53,97.61-9.97,142.24-30.91,76.33-35.82,135.15-100.23,181.94-168.89,25.14-36.89,46.3-76.03,68.7-114.58,23.41-40.29,49.66-77.34,82.45-110.54,31.94-32.33,66.87-62.22,93.73-99.18,22.54-31.02,38.05-66.4,48.42-103.2.29-1.03.58-2.06.86-3.09,20.2-73.63,21.89-150.79,28.87-226.38,6.63-71.77,17.47-146.25,55.55-208.92,6.97-11.48,14.73-22.13,23.17-32.06Z"/></svg>