<?xml version="1.0" encoding="UTF-8"?><svg id="slidefrontpage" xmlns="http://www.w3.org/2000/svg" viewBox="0 0 1280 273.63"><path d="m1280,0v2.88c-55.63,27.69-114.72,50.42-166.88,82.08-50.65,30.73-95.66,70.32-121.26,124.69-10.2,21.67-20.21,48.67-43.38,59.65-25.09,11.89-52.6-2.57-70.21-20.89-11.29-11.75-20.16-25.55-30.09-38.41-10.68-13.85-22.82-25.86-37.93-34.84-27.6-16.4-60.32-22.48-92.04-23.61-37.13-1.33-74.09,3.75-111.17,4.48-34.1.67-67.96-3.35-100.71-13-31.34-9.24-60.88-23.33-88.13-41.31-25.12-16.57-48.66-35.45-74-51.71-25.11-16.12-52.74-30.06-82.91-32.69-31.59-2.76-61.95,7.91-87.68,25.81-57.05,39.7-84.22,106.11-122.77,161.39-15.26,21.9-32.29,42.5-50.84,61.61v-3.17c7.76-8.07,15.24-16.41,22.43-24.98,22.14-26.42,40.46-55.27,58.25-84.71,31.26-51.7,66.34-107.35,125.41-130.15,26.32-10.16,54.74-10.92,81.74-2.96,27.39,8.08,51.93,23.57,75.16,39.78,24.88,17.35,48.76,36.3,75.1,51.48,30.23,17.41,63.35,29.75,97.57,36.49,36.41,7.17,72.93,6.41,109.77,4.01,34-2.22,68.26-4.98,102.15,0,28.19,4.14,56.26,13.55,78.67,31.62,25.84,20.85,38.68,53.63,65.22,73.59,13.67,10.28,31.25,17.44,48.46,12.91,14.27-3.75,24.62-14.56,32.3-26.67,14.64-23.09,23.02-49.22,38.96-71.7,33.06-46.58,81.58-79.43,131.33-105.99,43.55-23.25,91.65-42.79,137.48-65.68Z"/></svg>