<?xml version="1.0" encoding="UTF-8"?><svg id="slidefrontpage" xmlns="http://www.w3.org/2000/svg" viewBox="0 0 1280 1119.76"><path d="m1280,0v2.68c-.1.07-.2.13-.3.2-69.33,45.37-133.2,104.31-167.53,181.09-38.53,86.17-34.07,182.96-38.87,275.12-2.31,44.32-6.62,88.89-18.52,131.79-1.59,5.74-3.31,11.44-5.16,17.1-11.57,35.46-28.15,69.28-49.08,100.15-24.83,36.62-56.51,66.66-87.87,97.53-16.68,16.42-33.04,33.3-47.16,52.01-13.04,17.26-23.82,36.06-33.88,55.17-19.55,37.14-36.72,76.13-63.74,108.66-24.9,29.99-57.7,52.28-93.4,67.47-36.31,15.46-75.32,23.92-114.49,27.85-42.84,4.31-87.95,5.08-129.85-6.1-70.91-18.92-116.48-77.12-161.77-130.65-22.89-27.06-46.65-54.08-75.48-75.02-36.31-26.36-78.44-37.44-122.78-40.62-23.31-1.67-46.73-2.05-70.12-1.2v-2.06c42.08-1.84,85.69-.97,126.36,9.69,71.19,18.67,116.91,76.09,162.32,129.84,22.88,27.09,46.54,54.19,75.23,75.34,35.19,25.93,76.05,37.94,119.43,40.51,81.17,4.81,171.65-9.2,239.42-56.69,36.01-25.23,60.82-60.1,81.31-98.47,19.95-37.36,37.06-76.44,63.41-109.94,27.94-35.51,63.11-64.32,93.68-97.41,30.68-33.21,55.66-71.43,73.56-112.95,4.71-10.92,8.8-21.96,12.35-33.11,24.59-76.98,23.83-158.76,27.59-239.28,2.05-44.04,5.7-88.35,16.69-131.18,10.34-40.33,27.75-78.18,51.93-112.08,36.26-50.82,84.48-91.52,136.72-125.44Z"/></svg>