<?xml version="1.0" encoding="UTF-8"?><svg id="slidefrontpage" xmlns="http://www.w3.org/2000/svg" viewBox="0 0 1280 1648.55"><path d="m1280,255.9v5c-23.32-37.19-49.15-72.98-79.32-104.95-29.7-31.47-63.88-59.45-103.19-78-20.02-9.45-41.27-16.29-63.13-19.89-26.69-4.39-53.79-3.39-80.64-1.24-27.85,2.24-55.61,5.51-83.59,5.62-25.1.1-50.21-1.83-75.01-5.71-26.77-4.18-53.11-10.73-78.79-19.38-24.55-8.26-48.59-18.06-73.48-25.29-42.81-12.42-92.35-16.23-131.08,10.09-19.38,13.17-30.56,32.66-36.82,54.9-6.06,21.5-8.59,44.04-17.77,64.59-31.18,69.84-116.07,90.88-161.37,148.67-9.27,11.82-16.39,24.38-21.74,37.49-28.7,70.3-6.51,156.35,8.82,227.58,22.74,105.66,34.92,213.54,36.15,321.62,1.17,102.79-4.85,208.2-30.36,308.14-12.24,47.96-29.62,94.68-53.77,137.97-25.77,46.2-58.1,88.3-89.65,130.61-48.42,64.94-96.84,129.89-145.26,194.83v-3.74c30.64-41.08,61.27-82.17,91.9-123.25,33.36-44.75,67.53-89.01,99.66-134.66,30.91-43.92,57.45-90.08,75.95-140.63,17.68-48.33,28.9-98.81,36.21-149.69,15.62-108.73,16.79-220.25,8.05-329.63-4.51-56.49-12.01-112.73-22.46-168.42-8.86-47.18-21.18-93.78-27.37-141.44-5.57-42.95-6.38-88.4,9.86-129.29.05-.13.11-.27.16-.4,14.58-36.42,42.19-62.53,73.42-85.03,31.29-22.53,66.11-42.13,91.11-72.11,14.27-17.13,22.69-36.7,27.91-58.27,5.24-21.64,8.43-44.44,19.87-63.94C503.68,14.96,542.99.86,579.71.04c50.09-1.13,96.64,22.02,143.23,37.14,52.63,17.07,108.2,24.8,163.49,22.66,52.97-2.05,106.03-13.18,158.72-2.03,84.41,17.87,150.33,81.29,200.27,148.29,12.05,16.17,23.57,32.8,34.58,49.8Z"/></svg>