<?xml version="1.0" encoding="UTF-8"?><svg id="slidefrontpage" xmlns="http://www.w3.org/2000/svg" viewBox="0 0 1280 1136.34"><path d="m1280,0v2.24c-21.42,10.45-42.76,21.04-63.58,32.53-34.9,19.26-68.62,41.2-97.57,68.79-29.7,28.32-53.32,62.28-71.41,99.02-79.29,161.06-52.83,348.92-115,514.97-7.43,19.85-16.28,38.89-26.34,57.24-11.4,20.77-24.36,40.68-38.61,59.93-27.42,37.02-57.82,71.84-83.23,110.34-24.39,36.94-41.03,78.77-68.03,114-21.36,27.87-49.67,48.95-82.37,61.71-65.19,25.43-141.21,18.22-203.96-10.83-67.94-31.46-117.56-90.76-169.95-142.2-26.68-26.2-54.75-51.57-87.01-70.77-37.93-22.56-78.54-31.73-122.37-34.11-16.76-.91-33.72-1.28-50.57-2.42v-2.22c.74.06,1.49.1,2.23.15,44.5,2.77,89.43,1.54,131.85,17.35,67.36,25.1,117.36,80.12,166.74,129.93,26.46,26.69,53.49,53.17,84.08,75.16,29.71,21.36,63.04,36.83,98.65,45.39,69.62,16.72,149.49,7.55,205.02-40.75,32.87-28.59,51.64-68.25,72.28-105.71,21.85-39.68,49.39-75.11,77.33-110.61,23.77-30.19,46.99-60.79,65.64-94.34,3.61-6.5,7.06-13.12,10.3-19.86,19.65-40.86,32.61-84.6,41.99-128.87,34.21-161.38,21.69-346.42,126.09-484.69,51.09-67.66,123.9-105.1,197.8-141.37Z"/></svg>