<?xml version="1.0" encoding="UTF-8"?><svg id="slidefrontpage" xmlns="http://www.w3.org/2000/svg" viewBox="0 0 1280 575.99"><path d="m1280,570.74v5.25c-51.46-77.78-109.22-151.5-166.6-224.9-82.58-105.63-168.27-213.96-285.32-283.31-56.62-33.55-119.3-56.73-185.07-62.95-71.12-6.71-142.67,4.67-211.27,23.11C298.24,63.83,171.11,122.3,54.41,196.04c-18.14,11.46-36.24,23.27-54.41,35.08v-3.28c34.7-22.64,69.29-45.35,104.78-65.91,59.57-34.5,121.7-64.55,185.69-89.9,65.55-25.96,133.41-48.27,202.78-61.35,67.72-12.77,137.85-15.74,205.31.28,61.58,14.62,119.04,43.53,170.58,79.89,111.56,78.7,194.04,190.71,276.98,297.32,46.28,59.49,92.1,119.75,133.88,182.57Z"/></svg>