<?xml version="1.0" encoding="UTF-8"?><svg id="slidefrontpage" xmlns="http://www.w3.org/2000/svg" viewBox="0 0 1280 1576.79"><path d="m1280,159.28v3.07c-6.79-6.74-13.88-13.19-21.29-19.33-36.24-30.01-78.81-49.5-124.85-58.88-54.75-11.15-111.21-10.52-166.73-14.77-56.73-4.35-113.26-11.33-169.35-20.9-56.4-9.63-111.64-23.19-167.28-36.31C579.13.04,523.08-5.97,479.7,30.24c-32.75,27.34-51.38,67.58-73.35,103.21-25.05,40.61-58.67,72.04-93.09,104.57-18.25,17.25-36.12,35.06-51.14,55.26-14.99,20.17-26.67,42.71-35.25,66.3-6.4,17.59-11.09,35.41-14.39,53.39-16.01,87.16.82,178.04,16.35,264.54,9.26,51.59,17.47,103.25,20.25,155.65,2.54,47.81,1.37,95.79-3.27,143.43-9.21,94.7-32.01,187.85-65.57,276.82-33.8,89.59-78.4,175.01-131.41,254.71-15.56,23.39-31.84,46.29-48.83,68.67v-3.7c32.65-43.23,62.72-88.4,89.9-135.26,49.63-85.56,89.65-176.87,117.09-271.96,27.15-94.07,41.84-191.85,41.13-289.84-.38-52.71-5.69-104.98-14.32-156.95-9.36-56.39-21.33-112.42-27-169.36-4.51-45.33-4.36-92.07,3.89-136.75,9.4-51.03,29.34-99.38,64.92-139.87,33.06-37.63,74.08-67.58,105.35-106.87,27.41-34.42,44.68-75.54,71.52-110.35,11.7-15.16,25.38-28.98,41.9-38.85C514.62,4.93,537.92-.05,561.34,0c26.14.05,51.97,5.61,77.25,11.79,27.53,6.74,54.98,13.69,82.7,19.65,58.7,12.62,118.02,22.36,177.67,29.17,56.67,6.48,113.5,8.37,170.32,12.81,49.86,3.9,99.66,12.53,144.19,36.39,24.52,13.13,46.74,30.04,66.53,49.47Z"/></svg>