<?xml version="1.0" encoding="UTF-8"?><svg id="slidefrontpage" xmlns="http://www.w3.org/2000/svg" viewBox="0 0 1280 301.23"><path d="m1280,0v2.64c-57.23,26.76-117.92,48.62-170.08,81.63-27.94,17.68-53.6,38.83-74.57,64.5-22.58,27.65-39.71,59.22-55.78,90.96-7.3,14.41-13.59,29.89-22.46,43.43-6.21,9.48-15.23,18.56-27.41,18.05-12.15-.52-21.06-10.38-27.8-19.45-9.19-12.37-17.43-25.15-27.74-36.69-42.56-47.68-102.69-79.63-166.2-87.4-72.82-8.9-147.44,15.72-217.85-12.74-64-25.88-111.89-79.37-175.37-106.32-32.18-13.66-67.62-19.37-101.67-9.36-28.18,8.28-52.48,25.82-72.82,46.61-42.52,43.47-67.05,99.16-98.89,150.06-12.16,19.43-25.71,38.66-41.36,55.67v-2.72c27.3-30.08,47.85-67.08,67.26-101.88,27.21-48.78,57.98-100.06,105.74-131.39,23.44-15.37,50.66-24.31,78.82-23.83,32.93.56,64.37,13.12,92.68,29.14,59.63,33.75,109.9,87.65,179.17,101.92,37.76,7.79,76.54,3.82,114.66,1.73,33.64-1.86,67.06-1.65,99.95,6.4,57.99,14.2,111.14,48.12,148.03,95.12,9.18,11.71,16.26,26.08,27.65,35.84,16.18,13.87,32.72,3.88,42.39-11.76,8.83-14.29,15.46-30.16,23.08-45.13,7.63-14.98,15.52-29.84,24.15-44.27,16.9-28.25,36.88-54.41,61.69-76.19,23.82-20.92,50.85-37.83,78.87-52.51,42.23-22.13,90.06-40.5,135.86-62.06Z"/></svg>