<?xml version="1.0" encoding="UTF-8"?><svg id="slidefrontpage" xmlns="http://www.w3.org/2000/svg" viewBox="0 0 1280 549.23"><path d="m1280,543.48v5.75c-39.61-67.09-85.44-130.52-136.62-189.26-80.1-91.93-173.3-172.5-276.28-237.83-56-35.53-114.93-67.85-177.48-90.29C623.72,8.21,554.49-2.21,484.72,6.01,341.77,22.83,217.92,103.37,104.25,186.18c-34.78,25.34-69.04,51.65-104.25,76.51v-3.89c54-38.26,106.22-78.99,160.79-116.45C274.27,64.45,404.81-3.7,546.24.16c68.31,1.86,134.57,21.96,196.39,50.13,58.5,26.64,114.2,59.92,167.03,96.45,100.52,69.51,190.8,153.72,267.48,248.86,37.74,46.82,72.13,96.26,102.86,147.88Z"/></svg>