<?xml version="1.0" encoding="UTF-8"?><svg id="slidefrontpage" xmlns="http://www.w3.org/2000/svg" viewBox="0 0 1280 527.31"><path d="m1280,521.76v5.55c-7.33-14.43-14.28-29.06-21.11-43.62-25.35-54.06-50.28-108.12-85.99-156.34-39.42-53.24-88.74-96.61-146.13-129.61-60.41-34.75-125.54-62.36-190.37-87.68-65.18-25.45-131.72-47.41-199.25-65.76-62.86-17.07-127.17-33.27-192.2-39.16-58.59-5.29-120.74-1.55-173.28,27.36-55.79,30.71-86.81,87.03-125.95,134.77C104.58,217.45,55.06,260.46,0,294.57v-3.45c19.35-12.08,38.01-25.28,55.83-39.5,23.89-19.06,46.31-39.95,66.95-62.47,21.37-23.32,39.92-48.72,58.82-74.02,18.24-24.4,37.46-48.5,61.57-67.4,21.75-17.03,46.92-29.2,73.45-36.74,55.9-15.89,115.7-12.33,172.45-3.24,67.02,10.75,133.35,28.3,198.31,47.79,67.93,20.38,134.76,44.46,200.09,72.07,62.41,26.38,125.95,54.32,181.64,93.37,50.84,35.65,93.21,82.17,126.7,134.31,33.11,51.53,56.1,110.84,84.19,166.47Z"/></svg>