<?xml version="1.0" encoding="UTF-8"?><svg id="blockchaindraw" xmlns="http://www.w3.org/2000/svg" viewBox="0 0 1280 1024"><path d="m1280,311.77v1.47c-.75,0-1.51,0-2.26.01-33.66.24-67.83,3.97-100.43,12.52-27.37,7.18-54.92,19.84-69.78,45.19-7.74,13.19-11.78,28.23-14.03,43.26-2.53,16.9-2.95,34.13-1.36,51.15,3.12,33.44,15.21,64.11,29.3,94.29,13.2,28.27,27.27,56.41,34.06,87.07,6.72,30.36,6.78,61.8,2.62,92.52-8.81,64.93-35.51,125.21-60.62,185.12-13.62,32.5-26.97,65.62-36.64,99.63h-1.64c11.92-42.07,29.53-82.68,46.45-122.85,25.71-61.06,50.91-124.5,53.59-191.53,1.32-33.05-3.76-65.55-15.58-96.46-11.45-29.95-27.35-57.96-38.76-87.92-11.83-31.07-17.2-64.11-14.49-97.32,2.34-28.73,10.11-58.52,32.78-78,21.28-18.26,49.73-25.59,76.67-30.65,26.42-4.96,53.26-7.45,80.12-7.5Z"/><path d="m1280,412.31v2c-57.19-46.97-102.24-108.04-130.1-176.7-14.05-34.63-27.38-77.1-63.16-95.31-23.01-11.72-51.49-11.31-76.7-12.85-26.13-1.59-52.3-2.42-78.48-2.48-26.88-.06-53.77.68-80.6,2.24-12.36.71-25.7.7-37.1,6.14-10.18,4.86-17.16,14.06-21.76,24.12-16.6,36.32-9.05,81.43,12.25,114.11,11.21,17.21,26.37,30.99,44.43,40.73,9.67,5.22,19.78,9.69,28.85,15.95,8.26,5.7,14.93,12.97,20.54,21.26,13.11,19.38,23.35,41.28,32.67,62.68,9.05,20.78,16.82,42.12,23.24,63.85,13.17,44.62,20.72,90.91,22.3,137.41.75,22.09.95,44.86-2.14,66.8-2.32,16.49-8.28,34.59-24.35,42.37-17.7,8.58-38.68.98-54.66-7.91-17.2-9.57-32.5-22.26-45.87-36.66-27.78-29.9-47.48-66.28-65.93-102.38-11.57-22.65-23-45.38-34.5-68.07-10.97-21.65-21.09-44.08-33.6-64.91-12.03-20.02-28.07-35.44-50.87-42.14-21.44-6.3-44.19-5.7-66.31-5.99-48.68-.66-97.94-6.9-145.65-16.54-41.3-8.35-82.89-21.75-115.99-48.74-59.42-48.46-77.84-134.03-58.26-206.07,13.3-48.9,42.48-91.25,79.61-125.22h2.26c-53.22,48.64-90.14,115.38-87.79,189.18,1.23,38.95,12.91,78.02,35.81,109.78,25.3,35.09,63.24,56.7,103.95,69.37,20.68,6.44,41.94,10.81,63.29,14.36,24.98,4.16,50.13,7.58,75.36,9.86,24,2.17,47.93,2.11,71.99,2.91,19.99.66,40.76,2.76,58.69,12.32,17.95,9.56,29.86,26.14,39.46,43.59,12.05,21.91,22.82,44.59,34.12,66.9,20.21,39.91,39.15,81,63.38,118.7,22.07,34.35,51.46,69.13,90.4,84.65,10.24,4.08,21.81,6.68,32.78,4.29,10.97-2.39,19.38-9.91,24.35-19.79,9.4-18.65,8.82-42.07,9.19-62.42,1.72-94.02-21.26-188.42-66.21-271.03-5.7-10.48-11.52-21.2-19.51-30.14-7.75-8.68-17.62-14.61-27.85-19.93-17.51-9.11-33.68-18.25-46.96-33.17-23.96-26.93-36.28-64.35-31.97-100.24,2.1-17.45,7.77-37.07,21.4-49.09,7.23-6.37,16.23-9.35,25.64-10.68,11.92-1.7,24.14-1.93,36.15-2.49,52.3-2.45,104.74-1.83,156.96,1.86,22.14,1.56,46.07,2.18,66.09,12.91,15.49,8.3,27.14,21.84,36.05,36.74,9.6,16.06,16.39,33.6,23.3,50.91,7.79,19.51,16.38,38.58,26.62,56.94,26.85,48.13,62.76,91.01,105.19,126.02Z"/><path d="m820.4,1024h-2.43c-25.35-15.51-52.17-28.61-79.98-39.02-28.59-10.71-58.24-18.6-88.39-23.39-34.15-5.42-68.77-6.19-103.13-9.52-31.52-3.05-62.96-8.54-92.09-21.4-22.14-9.78-42.47-23.17-61.25-38.35-39.82-32.18-72.74-71.75-108.2-108.42-34.88-36.09-73.41-70.9-121.09-88.82-23.76-8.93-50.55-11.88-72.16-25.93-9.91-6.44-17.84-15.42-21.95-26.6-5.1-13.89-3.83-29.17-.74-43.36,3.56-16.32,9.46-32.13,14.7-47.96,5.57-16.82,11.18-33.63,16.88-50.4,11.52-33.87,23.45-67.6,36.36-100.97,12.53-32.36,25.98-64.39,40.84-95.76,14.52-30.67,29.51-62.29,49.65-89.75,18.86-25.74,43.66-42.98,71.79-57.39,28.79-14.75,57.59-28.77,84.8-46.41,47.21-30.6,89.88-67.94,126.57-110.55h1.99c-4.92,5.76-9.95,11.42-15.09,16.98-42.69,46.16-92.79,85.48-147.8,115.91-27.45,15.19-57.12,26.81-82.96,44.78-28.05,19.52-46.39,47.57-62.39,77.18-33.59,62.15-60.25,127.78-84.11,194.19-11.98,33.34-23.27,66.94-34.41,100.57-5.27,15.9-11.19,31.76-14.95,48.1-3.8,16.47-5.25,34.65,2.83,50.13,12.96,24.83,43.15,31.59,67.86,38.57,23.66,6.68,45.8,16.15,66.53,29.45,41.43,26.58,74.98,63.43,108.26,99.22,34.24,36.83,69.15,74.64,112.66,100.7,24.72,14.81,51.61,24.47,79.93,29.71,34.57,6.4,69.82,7.19,104.76,10.29,73.56,6.53,144.53,30.01,206.71,68.22Z"/><path d="m1126.6,1024h-1.57c-20.45-49.87-44.14-98.42-69.75-145.83-41.04-75.97-86.94-149.16-133.14-222.06-46.37-73.15-93.15-146.11-135.93-221.44-44.52-78.38-87.78-160.25-106.98-249.03-13.18-60.89-13.83-126.11,4.76-185.64h1.44c-23.34,73.97-15.99,155.27,6.72,228.8,26.48,85.76,71.53,165.38,116.92,242.35,43.67,74.07,90.53,146.19,136.32,218.95,45.35,72.05,89.78,144.83,128.73,220.58,19.05,37.03,36.73,74.79,52.48,113.32Z"/><path d="m1280,831.75v1.54c-58.01,14.47-118.95,1.59-177.84-.62-18.47-.69-37.02-.34-55.35,2.19-16.6,2.29-32.98,6.15-49.7,7.52-25.96,2.11-49.86-4.37-70.82-19.8-38.82-28.57-61.47-73.72-100.12-102.54-48.99-36.54-112.52-28.64-169.92-31.01-28.8-1.19-57.72-5.05-84.05-17.43-30.85-14.51-57.66-37.25-84.86-57.46-29.72-22.09-59.45-44.19-89.17-66.28-14.73-10.95-29.45-21.9-44.18-32.84-11.67-8.68-24.35-17.02-33.55-28.47-9.12-11.35-12.07-24.79-11.54-39.14.66-17.85,3.76-35.76,5.87-53.48,1.98-16.61,3-33.68,6.37-50.07,2.74-13.35,9.31-23.98,20.87-31.37,12.3-7.86,26.92-12.04,40.52-16.99,17.26-6.28,34.51-12.56,51.77-18.85,34.51-12.56,69.02-25.13,103.53-37.69,57.72-21.02,123.6-39.6,164.33-88.81,21.53-25.99,35.78-58.02,49.44-88.61,9.03-20.22,17.32-40.75,24.89-61.54h1.6c-1.26,3.48-2.54,6.95-3.85,10.42-11.84,31.43-25.31,62.29-40.54,92.23-13.83,27.19-30.25,52.56-54.23,71.89-22.27,17.95-48.29,30.49-74.68,41.13-30.77,12.4-62.24,23.16-93.4,34.51-34.19,12.45-68.38,24.89-102.58,37.34-16.12,5.87-32.38,11.46-48.37,17.69-14.65,5.71-29.1,13.61-35.05,29.08-2.89,7.52-3.87,15.62-4.83,23.58-1.08,9.01-2.14,18.03-3.22,27.04-2.08,17.45-4.41,34.9-6.19,52.38-1.78,17.51-.78,34.69,10.84,48.82,9.93,12.06,23.61,20.81,36.03,30.04,57.54,42.77,114.55,86.38,172.73,128.28,13.15,9.47,26.72,18.49,41.38,25.48,14.06,6.7,29.02,11.09,44.35,13.74,29.29,5.06,59.17,4.25,88.78,4.67,28.19.41,57.03,1.69,83.98,10.77,23.38,7.87,42.94,22.01,60.09,39.49,16.83,17.15,31.31,36.39,47.38,54.23,15.54,17.24,33.08,33.76,55.04,42.33,31.04,12.13,63.1,2.66,94.66-1.73,34.74-4.82,69.87-1.83,104.62,1.24,42.08,3.71,87.49,7.38,128.97-2.9Z"/><path d="m1269.11,0c-1.87,2.41-3.78,4.8-5.7,7.18-69.7,86.15-163.12,148.28-252.31,212.21-23.45,16.81-46.76,33.82-69.54,51.53-24.75,19.25-48.54,39.68-73.2,59.04-24.69,19.39-50.56,36.69-77.59,52.63-27.62,16.28-55.73,31.83-81.95,50.34-93.9,66.3-160.49,162.04-231.65,250.48-71.39,88.72-152.4,168.63-243.86,236.64-52.03,38.69-106.93,73.46-164.12,103.95h-3.1c71.19-37.77,138.84-82.21,201.81-132.49,44.37-35.42,86.41-73.75,125.74-114.69,39.4-41.01,75.25-85,110.39-129.65,35.07-44.56,69.85-89.5,108.67-130.91,38.88-41.47,81.82-77.92,130.49-107.44,27.35-16.59,55.54-31.79,82.25-49.44,27.14-17.93,52.27-38.63,77.4-59.24,43.71-35.87,89.26-69.09,135.3-101.88,82.22-58.55,166.19-118.49,229.02-198.26h1.95Z"/><path d="m1280,594.54v1.51c-6.26,1.7-12.47,3.58-18.64,5.62-73.55,24.41-137.67,69.89-198.85,116.26-62.45,47.33-124.23,97.15-195.86,130.16-73.12,33.68-152.63,49.7-227.97,77.32-38.45,14.09-76.34,30.37-116.42,39.41-35.04,7.91-71.33,9.37-106.91,4.44-70.35-9.76-138.06-44.34-183.56-99.46-21.47-26.02-37.64-56.5-45.22-89.47-8.48-36.83-6.46-75.57,3.27-111.94,19.29-72.11,68.46-131.78,125.22-178.4,30.87-25.35,63.86-48.27,90.66-78.19,25.71-28.72,46-61.89,62.82-96.46,9.06-18.62,18.7-38.56,18.98-59.69.24-19.02-8.91-35.4-22.07-48.54-12.57-12.55-27.65-22.17-42.24-32.16-17.22-11.78-34.27-23.83-51.13-36.14-33.05-24.14-65.68-49.07-96.98-75.45-21.35-18-42.2-38.2-54.55-63.36h1.65c5.21,10.48,11.92,20.18,19.6,29.15,24.59,28.74,56.47,51.67,86.24,74.69,33.57,25.96,67.96,50.83,103.07,74.68,24.18,16.43,52.63,35.94,57.25,67.2,2.71,18.36-3.34,36.65-10.57,53.27-7.67,17.65-16.55,34.87-26.24,51.49-18.8,32.27-41.62,61.98-69.43,87.01-29.21,26.28-61.95,48.31-90.72,75.13-55.53,51.77-99.64,118.91-107.46,195.92-3.89,38.34,1.77,77.24,18.25,112.19,14.83,31.43,37.23,58.96,63.71,81.33,56.62,47.81,132.02,71.89,205.83,68.22,40.07-2,78.29-13.4,115.72-27.19,37.77-13.92,75.17-28.18,113.69-39.95,38.52-11.78,77.38-22.61,115.29-36.28,37.63-13.56,73.57-30.54,107.7-51.41,66.29-40.53,125.06-91.76,188.59-136.24,51.28-35.91,106.73-68.07,167.28-84.67Z"/><path d="m1238.45,673.19c-3.03,20.45-9.03,40.51-18.4,58.96-9.12,17.96-21.67,37.04-38.79,48.27-38.82,25.45-80.88-19.69-100.12-50.07-25.31-39.95-38.57-87.36-52.28-132.19-30.47-99.64-54.51-202.82-103.37-295.61-40.75-77.39-100-149.52-179.91-188.4-41.01-19.95-99.72-40.21-134.2,1.55-34.53,41.82-25.14,102.99-20.95,152.76,9.63,114.25,19.29,228.5,28.9,342.76,2.2,26.16,4.4,52.8-.5,78.8-4.4,23.32-15.21,44.59-28.92,63.77-13.68,19.13-29.9,36.24-45.97,53.35-16.26,17.3-32.26,34.85-47.67,52.92-42.04,49.29-80.95,103.78-105.38,163.94h-1.78c31.72-78.85,87.43-146.54,144.75-208.27,32.56-35.07,70.16-70.69,81.95-118.85,6.52-26.64,4.61-54.37,2.37-81.41-2.37-28.66-4.83-57.31-7.24-85.97-4.82-57.13-9.63-114.25-14.45-171.38-2.39-28.38-4.78-56.75-7.18-85.13-2.25-26.73-5.4-53.66-4.27-80.53,1.77-42.24,19.12-94.87,67.23-102.1,22.75-3.42,46,3.2,67.17,11.01,19.53,7.21,38.26,16.54,55.89,27.59,73.24,45.88,126.58,118.98,163.1,196.16,45.12,95.31,68.01,198.9,100.08,298.87,14.22,44.33,28.94,91.97,60.26,127.61,15.19,17.27,39.6,38.55,64.4,34.58,22.95-3.67,39.38-26.61,50.36-45.24,46.35-78.65,25.3-179.75-16.92-255.18-48.96-87.49-123.48-157.11-179.21-240-50.8-75.57-90.16-158.66-116.62-245.76h1.55c4.53,14.91,9.43,29.71,14.72,44.37,34.56,95.87,85.26,184.88,148.7,264.53,59.29,74.45,129.75,146.26,160.02,238.65,13.17,40.2,18.91,83.6,12.68,125.64Z"/><path d="m1280,369.12v1.61c-88.3,28.82-178.76,51.02-270.37,66.36-46.16,7.73-92.62,13.73-139.23,17.95-21.63,1.97-43.37,2.85-64.96,5.09-17.83,1.86-36.43,5.07-52.36,13.73-18.84,10.25-29.02,27.82-29.04,49.34,0,23.71,7.37,47.66,14.37,70.1,12.61,40.45,28.22,81.12,25.62,124.25-2.2,36.31-18.99,69.18-51.04,87.62-30.82,17.75-68.34,20.73-102.68,13.56-43.37-9.07-82.23-31.99-119.89-54.35-33.69-20.01-67.01-40.84-98.12-64.71-29.71-22.79-57.5-48.46-80.01-78.5-24.95-33.3-40.29-70.49-49.99-110.78-5.49-22.78-9.79-45.84-15.78-68.51-5.85-22.14-13.21-43.89-22-65.03-9.1-21.9-19.76-43.17-31.85-63.57-10.47-17.68-22.73-36.98-42.48-45.22-19.41-8.1-40.45-1.03-55.18,12.93-15.17,14.37-22.84,34.16-21.79,54.96,1.14,22.48,11.07,43.6,23.93,61.72,12.27,17.28,29.1,30.72,41.09,48.13,11.6,16.83,14.16,36.95,14.52,56.93.36,19.68-1.64,39.4-5.79,58.63-8.22,38.1-24.93,74.39-48.76,105.24-25.86,33.49-59.99,59.66-98.21,76.81v-1.62c61.37-28.02,110.41-79.36,134.56-143.58,7.44-19.77,12.53-40.44,15-61.42,2.44-20.72,3.26-42.9-1.18-63.4-5.1-23.61-21.36-38.7-37.01-55.82-13.23-14.47-24.8-30.83-32.17-49.08-13.37-33.17-8.95-71.56,21.14-93.93,12.04-8.95,27.35-13.79,42.28-10.52,17.15,3.75,30.07,16.85,39.94,30.63,25.37,35.45,43.69,77.66,57.18,118.94,14.36,43.94,19.61,90.31,34.75,133.99,26.78,77.24,89.66,133.02,155.76,177.36,34.37,23.07,70.12,44.99,106.81,64.19,38.06,19.92,80.33,35.65,123.97,30.86,40.12-4.41,77.98-25.81,93.46-64.51,16.38-40.94,6.15-86.71-6.44-127.11-6.82-21.85-14.52-43.47-19.8-65.76-4.68-19.75-9.55-42.74-1.74-62.31,11.77-29.53,46.6-37.9,74.95-41.25,21.06-2.48,42.34-3.18,63.46-5.04,23.28-2.04,46.52-4.52,69.71-7.44,48.12-6.06,96.01-14.02,143.51-23.82,68.23-14.09,135.64-32.02,201.86-53.65Z"/><path d="m1117.21,1024h-1.52c-20.23-56.44-45.94-110.92-74.55-163.58-40.19-73.97-86.23-144.52-132.51-214.77-46.98-71.3-94.31-142.49-136.15-216.98-40.32-71.79-76.44-146.95-96.3-227.22-16.32-65.93-20.94-135.5-4.49-201.45h1.42c-19.79,78.04-9.19,160.39,14.38,236.39,24.8,79.95,64.08,154.77,106.52,226.62,43.27,73.27,91.04,143.74,137.62,214.92,45.46,69.46,89.84,139.8,127.71,213.75,21.95,42.87,41.67,86.98,57.87,132.32Z"/><path d="m1102.93,1024h-1.46c-16.44-59.79-41.29-117.21-70.36-171.93-38.79-73-85.31-141.43-132.25-209.35-48.07-69.54-96.73-138.89-138.15-212.69-40.06-71.38-72.87-147.18-90.51-227.36-14.63-66.51-18.44-135.66-6.41-202.67h1.44c-14.47,79.42-6.08,161.51,15.56,238.84,22.57,80.63,59.72,156.01,102.81,227.5,43.33,71.91,92.41,140.1,139.77,209.36,46.31,67.74,91.04,136.86,126.93,210.8,21.46,44.22,39.65,90.16,52.63,137.5Z"/><path d="m1131.5,1024h-1.61c-24.27-55.46-50.5-110.06-78.62-163.66-39.84-75.95-83.47-149.9-130.7-221.48-46.49-70.46-96.72-138.51-140.04-211.03-42.11-70.5-77.4-145.6-93.96-226.45-13.61-66.48-14.43-136.18,4.44-201.38h1.46c-22.58,77.06-16.95,159.92,4.1,236.68,22.12,80.64,62.02,154.81,106.64,225.04,44.88,70.63,94.54,138.08,139.58,208.62,45.96,71.98,88.32,146.25,126.89,222.45,21.84,43.14,42.45,86.9,61.82,131.21Z"/><path d="m848.88,1024h-2.77c-34.19-21.19-71.29-37.69-109.95-48.77-61.96-17.75-126.48-17.57-189.85-26.6-30.31-4.32-60.47-11.03-88.64-23.27-24.02-10.45-45.86-25.05-65.88-41.85-39.67-33.28-72.12-73.97-108.61-110.5-18-18.02-37.07-35.15-58.3-49.3-21.85-14.55-45.31-23.86-70.13-31.99-21.51-7.04-45.36-14.5-61.13-31.71-20.62-22.5-15.63-52.88-9.29-80.08,15.76-67.55,35.78-134.12,59.85-199.18,11.93-32.26,24.87-64.15,38.78-95.61,12.68-28.7,25.3-58.53,45.39-82.98,19.39-23.63,45.72-39.67,72.34-53.94,27.07-14.51,54.18-28.52,79.78-45.58,43.35-28.9,82.76-63.51,117.1-102.64h2.03c-2.68,3.08-5.39,6.12-8.13,9.14-41.17,45.26-89.37,84.14-142.36,114.75-26.3,15.19-54.23,27.58-79.64,44.31-12.71,8.37-24.73,17.89-35,29.16-11.28,12.37-20.24,26.63-28.03,41.38-15.9,30.09-29.01,61.92-41.81,93.42-12.92,31.81-24.86,64.02-35.79,96.57-10.94,32.54-20.86,65.43-29.76,98.59-4.36,16.24-8.48,32.55-12.34,48.92-3.95,16.74-8.38,34.15-6.27,51.47,3.55,29.26,27.52,45.14,52.91,54.98,22.9,8.87,46.79,14.6,68.75,25.87,44.62,22.9,79.8,59.9,113.45,96.28,34.69,37.5,69.22,76.75,113.17,103.73,54.1,33.22,117.69,39.69,179.54,45.23,31,2.77,62.1,5.44,92.69,11.42,29.34,5.74,58.05,14.6,85.57,26.26,21.62,9.16,42.48,20.05,62.33,32.52Z"/><path d="m818.73,1024h-3.16c-28.63-14.98-58.74-27.12-89.77-36.14-57.04-16.59-116.06-19.15-174.65-26.55-55.96-7.07-111.23-20.53-156.31-56.15-22.61-17.86-42.06-39.25-61.12-60.73-19.88-22.41-39.78-44.68-61.73-65.11-22.66-21.09-46.85-40.52-72.32-58.1-24.8-17.11-50.84-31.64-77.39-45.8-10.48-5.6-21.17-12.13-27.72-22.36-7.35-11.48-7.76-25.53-6.11-38.66,1.83-14.56,5.52-28.97,8.78-43.26,3.6-15.7,7.43-31.36,11.5-46.95,16.65-63.71,37.28-126.39,61.73-187.54,11.33-28.32,22.96-56.79,36.93-83.93,12.44-24.16,27.71-47.49,48.93-64.85,23.07-18.88,51.51-29.5,77.65-43.25,25.8-13.57,50.62-29,74.23-46.09,39.34-28.5,75.24-61.64,106.81-98.53h2.01c-2.07,2.43-4.16,4.85-6.27,7.25-37.3,42.44-80.48,79.71-127.88,110.46-24.77,16.07-50.68,29.8-77.23,42.66-27.07,13.12-51.91,27.89-70.92,51.74-17.88,22.42-30.22,48.66-41.72,74.75-13.39,30.39-25.82,61.21-37.27,92.38-22.33,60.84-40.93,123.04-55.63,186.16-3.51,15.06-7.32,30.22-9.66,45.52-2.38,15.58-2.25,32.51,8.27,45.29,8.94,10.86,22.34,16.85,34.53,23.21,13.46,7.02,26.67,14.52,39.59,22.5,50.06,30.87,95.73,68.64,135.55,111.92,39.56,43,75.75,90.82,129.72,116.66,52.61,25.18,112.02,29.54,169.18,35.33,28.63,2.91,57.3,6.11,85.47,12.15,27.96,5.99,55.38,14.5,81.85,25.33,15.05,6.16,29.78,13.07,44.13,20.69Z"/><path d="m826.69,1024h-3.43c-22.1-10.54-45.11-19.19-68.7-25.77-57.8-16.13-117.96-20.31-177.17-28.45-57.18-7.86-115.36-19.61-165.36-49.89-53.03-32.11-91.68-82.78-134.73-126.34-21.38-21.62-43.82-42.4-68.71-59.95-24.45-17.24-50.6-29.44-78.78-39.21-23.27-8.06-48.73-17.91-59.58-41.93-11.67-25.85-3.43-56.03,3.57-81.95,17.81-66,39.34-130.99,64.41-194.59,12.43-31.52,25.74-62.7,39.9-93.48,12.54-27.27,25.54-54.79,44-78.65,19.04-24.63,43.66-41.22,71.11-55.28,28.17-14.44,55.94-28.47,81.61-47.18,40.13-29.26,75.01-64.73,108.47-101.33h2c-1.05,1.16-2.11,2.31-3.17,3.47-41.58,45.26-85.96,89.22-139.19,120.71-26.58,15.71-55.72,26.91-81.33,44.27-25.96,17.61-44.79,42.34-59.87,69.53-15.81,28.49-28.79,58.7-41.62,88.62-13.59,31.68-26.28,63.75-38.05,96.15-11.55,31.79-22.22,63.89-31.99,96.27-4.99,16.53-9.75,33.14-14.27,49.8-3.97,14.67-7.99,29.45-9.32,44.63-1.35,15.29.16,31.25,8.39,44.57,7.45,12.05,19.37,20.07,32.02,25.91,12.15,5.6,25.01,9.44,37.57,13.99,13.28,4.81,26.12,10.72,38.44,17.63,50.75,28.5,91.18,71.66,130.55,113.74,21.97,23.47,43.76,47.35,68.75,67.67,23.85,19.39,50.67,34.33,79.47,45.02,55.26,20.52,114.57,26.33,172.68,33.44,58.14,7.11,116.09,15.94,170.48,38.7,7.38,3.09,14.66,6.38,21.85,9.88Z"/><path d="m1280,305.27v1.47c-.66-.01-1.32-.02-1.98-.02-35.21-.25-71.06,3.81-104.96,13.49-29.62,8.45-57.97,23.33-74.33,50.44-14.89,24.65-18.61,54.68-15.85,82.94,3.22,33,16.04,64.15,29.71,94.04,14,30.61,29.7,60.86,38.65,93.47,8.82,32.18,9.73,65.89,5.25,98.84-9.14,67.22-38.73,128.98-66.66,190.02-14.02,30.64-27.88,61.9-38.54,94.04h-1.67c13.11-39.62,31.12-77.82,48.45-115.57,29.07-63.31,57.9-129.94,59.54-200.72.82-35.46-6.83-69.18-20.28-101.85-13.11-31.86-29.65-62.24-41.68-94.56-10.63-28.59-17.28-58.73-14.43-89.36,2.53-27.1,12.71-53.8,32.86-72.68,22.36-20.94,52.88-30.24,82.25-36.17,27.53-5.55,55.61-8.14,83.67-7.82Z"/><path d="m1280,321.67v1.47c-.23-.01-.47-.01-.7-.01-34.02-.19-68.07,4.21-100.92,13.05-26.64,7.18-57.49,17.37-72.14,42.76-8.18,14.18-9.28,30.95-9.74,46.94-.48,16.93-.93,33.94.5,50.84,2.71,31.87,14.8,61.12,28.44,89.71,13,27.25,27.12,54.32,34.57,83.76,7.73,30.56,8.2,62.45,4.01,93.59-8.8,65.35-36.67,125.62-62.13,185.76-12.99,30.7-25.6,62.18-34.62,94.46h-1.68c11.04-39.58,27.53-77.88,43.64-115.45,26.51-61.81,53.59-126.07,55.81-194.29,1.08-33.07-4.79-65.17-17.2-95.8-11.64-28.74-27.16-55.74-38.44-84.63-5.55-14.22-10.03-28.9-12.35-44.01-2.61-17-2.68-34.24-2.34-51.39.3-15.55.08-31.62,4.5-46.68,3.77-12.81,11.46-23.64,21.86-31.94,10.24-8.16,22.28-13.79,34.55-18.2,15.33-5.51,31.28-9.52,47.25-12.68,25.4-5.04,51.26-7.45,77.13-7.26Z"/><path d="m1280,300.03v1.47c-2.45-.18-4.9-.33-7.36-.44-35.16-1.61-70.58,3.11-104.08,13.94-30.76,9.94-61.7,24.99-78.04,54.33-16.37,29.41-17.81,65.46-12.37,98,5.65,33.81,18.68,65.88,32.44,97.09,13.77,31.24,29.66,62.17,38.54,95.27,8.51,31.73,7.85,64.56.85,96.51-7.2,32.89-20.18,64.2-33.97,94.8-14.39,31.9-29.5,63.43-42.51,95.95-10.14,25.35-19.38,51.06-27.68,77.05h-1.59c11.27-35.25,24.23-69.95,38.82-103.96,27.26-63.56,65.05-126.63,70.4-197.03,1.33-17.44.39-35.01-3.19-52.14-3.68-17.62-9.91-34.59-16.84-51.16-13.4-32.04-29.01-63.14-41.08-95.74-11.55-31.2-19.91-64.2-18.27-97.71,1.5-30.75,11.54-61.88,35.38-82.56,24.1-20.91,57.33-31.45,88-37.97,27.11-5.76,54.94-7.64,82.55-5.7Z"/><path d="m1280,396.47v1.7c-32.68-16.12-59.13-42.58-78.86-73.1-11.19-17.32-20.35-35.88-28.14-54.95-7.88-19.29-13.77-39.25-20.89-58.82-7.03-19.34-15.75-38.64-30.13-53.71-14.37-15.06-33.57-24.16-53.6-29.05-46.02-11.24-93.87-.73-140.55-3.83-42.42-2.82-92.2-11.66-127.96,17.92-33.34,27.58-27.93,75.1-15.19,111.68,6.33,18.18,15.07,36.75,29.48,49.96,7.28,6.67,15.79,11.31,25.33,13.83,9.42,2.49,19.52,3.56,27.73,9.24,7.22,4.99,12.06,12.58,16.27,20.11,5.42,9.7,10.55,19.58,15.65,29.46,10.48,20.31,20.44,40.9,29.51,61.88,17.71,40.96,32.2,83.59,39.58,127.69,3.64,21.74,5.53,43.78,5.19,65.83-.3,18.99-1.17,39.23-7.56,57.3-4.98,14.08-14.5,27.45-30.03,30.4-19.2,3.65-37.89-8.6-52.19-19.94-32.95-26.13-55.22-63.36-76.08-99.2-11.98-20.59-23.36-41.54-34.1-62.81-9.88-19.57-18.66-39.66-28.46-59.25-8.85-17.69-19.24-35.18-34.38-48.23-16.39-14.11-37.21-20.84-58.29-24-21.77-3.26-43.95-3.3-65.9-4.21-23.88-1-47.76-2.27-71.54-4.79-42.49-4.49-84.99-13-124.08-30.75-34.2-15.53-65.95-37.95-89.09-67.81-24.22-31.25-36.76-69.6-37.98-108.98-2.26-72.36,32.07-138.02,80.01-190.04h1.95c-6.34,6.77-12.44,13.77-18.25,21-52.4,65.19-81.39,155.13-48.41,235.94,31.5,77.18,112.61,117.61,190.28,132.51,46.51,8.92,93.97,10.54,141.17,12.36,38.03,1.46,78.97,4.6,107.17,33.34,13.12,13.36,22.36,29.98,30.5,46.69,9.59,19.66,18.51,39.61,28.44,59.11,20.33,39.9,42.05,80.29,68.8,116.32,12.77,17.2,27.38,33.29,44.79,45.91,17.29,12.53,42.28,24.23,60.93,7.54,13.57-12.14,17.24-32.41,19.07-49.63,2.32-21.92,2.29-44.05.27-65.99-4.16-45.15-16.65-89.18-33.11-131.29-8.42-21.54-17.92-42.65-28.08-63.42-9.62-19.67-19.04-40.26-30.94-58.67-6.33-9.81-14.4-15.98-25.73-18.99-9.24-2.45-18.58-3.83-27.08-8.45-14.98-8.13-25.48-22.5-33.02-37.43-15.62-30.93-26.73-72.2-14.33-105.99,12.63-34.45,48.91-49.04,83.17-50.92,24.32-1.33,48.49,2.4,72.73,3.64,24.27,1.23,48.49-.9,72.75-1.55,38.57-1.03,81.35,2.74,111.38,29.79,28.97,26.11,37.19,66.7,50.03,101.81,14.65,40.06,34.78,79.32,65.47,109.53,13.58,13.35,29.24,24.83,46.3,33.31Z"/><path d="m1280,427.52v2.05c-58.49-37.72-91.83-105.5-121.45-167.19-9.49-19.78-18.73-39.89-30-58.75-11.19-18.73-25.39-35.66-45.62-44.9-21.25-9.7-45.88-12.53-68.79-15.74-25.32-3.56-50.83-5.76-76.38-6.64-24.54-.84-49.12-.44-73.61,1.2-12.35.82-25.32,1.17-37.37,4.16-11.87,2.94-20.69,10.17-26.51,20.86-22.07,40.6,3.58,87.73,31.76,117.61,15.08,15.99,31.99,30.09,47.77,45.36,13.89,13.43,26.54,28,37.58,43.87,21.89,31.47,37.37,67.06,47.42,103.97,10.31,37.81,15.11,77,15.97,116.14.43,19.68-.15,39.38-1.62,59.01-.75,10.03-1.72,20.03-2.92,30.01-1.06,8.86-2.23,17.91-5.62,26.24-6.07,14.9-19.68,23.27-35.76,20.51-19.12-3.28-34.55-17.03-47.79-30.25-29.67-29.61-53.78-64.25-75.02-100.27-21.88-37.08-40.79-75.78-60.8-113.87-9.55-18.19-19.71-36.38-33.36-51.85-14.51-16.46-32.59-27.93-53.88-33.45-21.42-5.56-43.79-5.76-65.77-6.54-24.08-.84-48.02-3.09-71.86-6.55-24.21-3.52-48.25-8.13-72.2-13.12-23.44-4.88-47.07-9.46-70.2-15.67-20.16-5.43-39.91-12.88-57.08-24.99-13.78-9.72-25.67-21.95-35.41-35.7-20.26-28.61-31.22-63.44-33.38-98.28-4.49-72.01,29.79-138.97,73.32-194.75h1.87c-6.78,8.62-13.3,17.46-19.46,26.55-23.76,35.01-42.73,73.91-50.72,115.7-7.08,37.05-4.4,75.62,9.01,110.97,12.97,34.19,36.36,64.75,68.76,82.46,20.46,11.19,43.29,16.97,65.9,22,23.63,5.25,47.31,10.34,71.08,14.96,24.63,4.79,49.41,8.95,74.36,11.68,22.95,2.51,45.91,2.94,68.95,4.11,20.09,1.02,40.57,3.21,59.28,11.1,17.97,7.58,32.64,20.49,44.53,35.77,11.91,15.29,21.11,32.44,30.03,49.58,9.67,18.57,19.14,37.24,28.87,55.77,19.66,37.46,40.42,74.56,65.75,108.54,12.88,17.29,26.97,33.71,42.48,48.71,14.05,13.59,34.82,30.5,55.97,25.76,22.49-5.04,25.13-31.44,27.25-50.23,2.18-19.49,3.53-39.08,3.94-58.69,1.62-77.73-11.28-158.49-51.38-226.2-10.01-16.9-21.66-32.82-34.9-47.34-14.47-15.88-30.88-29.79-46.48-44.52-28.25-26.67-55.64-59.72-55.76-100.73-.06-17.24,5.59-37,19.57-48.16,7.06-5.64,15.87-7.91,24.67-9.12,11.79-1.63,23.77-2.34,35.64-3.03,48.37-2.79,97.01-.76,144.98,6.05,22.1,3.14,45.51,6,66.18,14.91,17.58,7.58,31.09,20.79,41.79,36.44,11.99,17.53,21.04,37.08,30.27,56.14,9.75,20.11,19.2,40.38,29.52,60.21,19.81,38.11,43.19,74.96,76.3,102.94,6.45,5.45,13.25,10.55,20.33,15.19Z"/><path d="m1280,421.62v1.74c-66.07-39.41-106.81-110.17-135.47-180.19-8.5-20.75-15.09-42.94-27.23-61.96-11.92-18.68-29.75-30.95-50.73-37.53-19.46-6.11-40.07-7.72-60.36-8.42-24.41-.84-48.87-1.01-73.3-1.47-25.65-.49-51.41-1.73-77.05-1.33-21.92.34-41.25,7.22-54.27,25.52-10.51,14.77-15.33,33.52-14.09,51.54,1.48,21.61,11.83,41.92,25.08,58.67,27.19,34.37,67.88,52.59,98.29,83.35,31.33,31.71,45.3,75.8,56.08,117.97,12.17,47.63,19.13,96.59,20.76,145.73.75,22.74,1.5,46.39-1.77,68.97-2.72,18.79-11.22,35.75-29.01,44.13-38.02,17.91-77.85-8.8-104.97-34.06-28.92-26.95-50.73-60.46-68.8-95.39-18.67-36.1-33.64-73.93-49.62-111.26-7.95-18.57-15.22-39.54-29.59-54.28-17.36-17.8-43.24-17.82-66.41-19.31-90.42-5.8-186.57-4.48-268.51-48.75-32.76-17.71-62.67-42.06-83.55-73.15-23.83-35.48-31.56-76.83-28.2-119.07,4.81-60.57,24.39-121.04,56.73-173.07h1.77c-21.22,34.14-36.65,71.77-46.44,110.73-11.21,44.62-17.62,93.81-3.23,138.44,24.78,76.81,101.7,123.71,176.16,142.54,48.21,12.19,98.05,15.44,147.53,18.14,23.77,1.29,47.7,2.03,71.39,4.48,19.63,2.02,36.88,8.12,49.2,24.22,11.77,15.4,18.59,34.57,26.13,52.26,7.86,18.45,15.52,36.99,23.53,55.38,15.91,36.5,33.27,72.77,56.55,105.22,11.61,16.17,24.7,31.3,39.5,44.63,16.55,14.9,35.66,29,57.62,34.42,20.38,5.03,44.63,1.11,58.65-15.74,14.78-17.79,13.76-44.28,14.12-66.06.81-49.72-3.87-99.52-13.94-148.22-9.15-44.29-20.74-92.08-47.33-129.49-25.86-36.39-67.87-54.78-99.13-85.55-25.87-25.47-46.14-60.64-38.59-98.05,3.15-15.61,10.78-30.75,22.83-41.36,14.81-13.05,33.45-15.25,52.5-15.02,49.15.58,98.49.88,147.6,2.95,36.81,1.55,77.88,7.51,102.27,38.24,12.73,16.04,19.52,35.69,26.86,54.53,8.47,21.76,17.62,43.29,28.15,64.15,25.79,51.14,63.26,100.79,112.29,130.78Z"/><path d="m1276.35,0c-3.21,3.39-6.44,6.76-9.69,10.12-78.94,81.61-166.61,154.29-257.74,221.83-46.34,34.34-93.63,67.39-141.35,99.78-47.04,31.91-94.88,62.65-141.83,94.68-46.74,31.88-92.29,66.42-129.32,109.54-38.03,44.29-67.27,95.24-102.55,141.62-65.18,85.71-144.02,159.98-227.94,227.07-52.45,41.93-106.92,81.18-162.15,119.36h-2.64c67.81-46.82,134.54-95.25,197.71-148.23,83.6-70.12,160.08-148.45,222.23-238.4,32.26-46.69,62.85-94.39,104.09-133.88,39.67-38,85.29-69.01,130.96-99.25,95.38-63.14,190.63-126.58,281.71-195.87,83.68-63.65,163.86-132.21,236.42-208.37h2.09Z"/><path d="m1256.05,0c-62.72,86.7-154.47,145.9-241.11,205.99-22.34,15.5-44.58,31.16-66.3,47.51-25.33,19.07-49.64,39.4-74.19,59.44-24.13,19.68-48.58,39.03-74.57,56.22-25.84,17.09-52.99,32.07-79.7,47.73-27.19,15.95-54.06,32.7-78.3,52.95-22.51,18.8-42.65,40.27-61.28,62.87-37.37,45.35-68.9,95.1-104.84,141.53-68.43,88.39-149.61,166.8-239.94,232.62-62.24,45.35-128.81,84.64-198.57,117.14h-3.42c84.43-39.06,164.21-88.17,237.26-145.75,88.54-69.78,166.17-151.87,232.03-243.29,33.77-46.88,66-95.38,106.38-136.98,20.21-20.82,42.44-39.23,66.51-55.42,25.35-17.05,52.08-31.91,78.46-47.29,27.14-15.83,53.52-32.59,78.61-51.52,26.11-19.7,51.06-40.86,76.45-61.46,42.49-34.47,87.32-65.62,132.31-96.71,77.24-53.39,156.51-109.23,212.24-185.58h1.97Z"/><path d="m1280,4.43v2.38c-.97,1.11-1.94,2.22-2.91,3.33-75.25,85.57-169.83,151.25-261.2,218.18-50.43,36.95-100.67,74.17-151.37,110.75-48.57,35.05-98.44,67.09-150.93,95.94-47.85,26.29-96.54,53.25-133.82,94-38.35,41.92-64.05,93.48-95.92,140.12-60.73,88.9-135.97,166.85-216.72,237.68-46.65,40.91-95.17,79.56-144.48,117.19h-2.46c61.15-46.61,121.11-94.79,177.73-146.84,80.49-74.01,152.82-155.98,210.7-248.96,29.03-46.64,57.48-93.69,100.51-128.95,41.46-33.97,90.09-57.31,136.39-83.72,52.47-29.93,101.46-65.33,150.14-100.98,51.14-37.45,102.28-74.92,153.41-112.38,81.72-59.87,164.42-120.85,230.93-197.74Z"/><path d="m1280,850.3v1.4c-3.94-.4-7.85-.91-11.73-1.52-35.71-5.58-70-16.64-106.47-16.67-65.01-.05-134.07,23.29-196.74-3.3-49.66-21.07-82.25-66.85-121.47-101.73-21.62-19.23-45.85-35.2-74.13-42.51-34.28-8.85-69.7-5.62-103.88,1.81-16.74,3.63-33.78,7.65-51.04,6.72-16-.87-30.81-6.78-44.64-14.58-30.68-17.32-59.72-38.43-88.35-58.9-28.66-20.49-56.71-41.83-84.11-63.97-13.94-11.26-27.7-22.73-41.29-34.41-11.42-9.8-23.15-19.93-30.8-33.09-7.85-13.51-9.82-29.24-9.77-44.62.06-18.04,1.88-36.19,3.97-54.09,1.98-16.89,4.03-34.12,8.12-50.65,3.38-13.63,9.47-25.8,20.8-34.46,12.16-9.3,27.26-14.53,41.28-20.31,17.06-7.03,34.2-13.86,51.43-20.48,33.69-12.94,67.73-24.85,101.91-36.44,31.51-10.68,63.17-21.87,91.97-38.78,27.11-15.93,50.18-37.24,68.82-62.5,28.21-38.2,46.33-82.45,61.85-127.22h1.54c-.57,1.66-1.16,3.31-1.74,4.97-18.84,53.3-42.02,107.32-81.85,148.53-44.35,45.9-105.34,64.42-164.06,84.54-34.26,11.74-68.25,24.31-101.91,37.68-16.67,6.62-33.5,13.1-49.81,20.57-14.84,6.8-27.92,15.84-34.54,31.3-6.53,15.26-8.23,32.79-10.5,49.08-2.54,18.31-4.35,36.74-5.35,55.2-.94,17.31-.93,35.4,6.34,51.51,6.56,14.52,18.71,25.54,30.54,35.77,53.57,46.35,110.06,89.37,168.8,128.96,14.28,9.63,28.59,19.38,43.41,28.16,15.38,9.11,31.79,16.24,49.89,16.81,18.16.58,35.93-4.06,53.56-7.8,15.78-3.34,31.76-5.66,47.91-6.14,30.23-.89,60.51,4.72,87.13,19.45,22.71,12.56,42,30.3,60.28,48.5,18.82,18.74,36.84,38.43,57.51,55.21,22.85,18.55,48.65,31.78,77.93,36.48,32.95,5.28,66.54,1.15,99.43-2.41,32.97-3.57,66.05-6.62,99.02-1.45,26.96,4.21,53.55,12.57,80.74,15.38Z"/><path d="m1280,848.47v1.65c-45.75,3.76-92.95-3.63-138.54-4.81-34.47-.89-68.22,4.39-102.46,7.19-30.22,2.47-61.85,2.39-89.97-10.41-26.7-12.15-45.47-34.89-62.9-57.67-18.97-24.8-37.77-48.63-64.3-65.82-53.81-34.86-118.37-40.4-180.77-40.95-17.69-.16-35.39-1.06-52.55-5.7-15.81-4.29-30.81-11.17-45.07-19.17-31.49-17.66-60.78-39.64-90.28-60.39-28.05-19.73-57.04-38.89-83.36-60.91-23.03-19.27-42.82-42.89-47.51-73.43-2.62-17.05-1.32-34.45-.16-51.58.97-14.49,2.28-29.06,5.58-43.24,3.18-13.7,8.34-27.12,16.98-38.34,8.81-11.47,20.85-19.53,33.9-25.46,13.4-6.08,27.61-10.23,41.63-14.62,14.57-4.56,29.16-9.04,43.73-13.61,29.22-9.16,58.37-18.68,86.85-29.97,56.11-22.25,110.47-52.2,150.6-98.23,36.05-41.34,58.08-91.91,77.04-143h1.58c-1.31,3.5-2.62,6.99-3.95,10.48-22.12,58-49.94,114.67-96.59,156.98-43.09,39.08-96.65,64.09-150.85,83.76-28.3,10.28-57.06,19.22-85.8,28.13-14.05,4.36-28.15,8.61-42.11,13.24-15.37,5.1-30.82,11.14-43.49,21.49-24.49,20-30.37,52.82-32.87,82.61-2.84,33.7-5.53,68.69,13.69,98.35,17.33,26.73,44.73,45.2,70.13,63.5,30.09,21.67,60.42,43.01,90.99,64.01,27.91,19.17,56.66,38.98,89.74,47.95,33.43,9.07,68.95,4.45,103.16,7.22,56.95,4.61,116.08,20.87,158.2,61.48,21.14,20.38,36.48,45.72,55.89,67.6,9.82,11.08,20.8,21.28,33.63,28.8,14.02,8.24,29.74,12.98,45.8,15.11,32.11,4.26,64.64-.82,96.58-4.18,35.4-3.72,70.24-2.7,105.68-.06,29.75,2.22,61.42,4.49,92.15,2Z"/><path d="m1280,831.75v1.41c-12.04,1.12-24.21,1.18-36.23.68-18.62-.77-37.17-2.69-55.79-3.57-17.2-.82-34.36-.32-51.53.94-61.45,4.49-129.84,18.38-185.71-15.8-25.52-15.6-45.25-38.54-65.55-60.09-21.83-23.18-45.39-43.58-74.09-57.85-28.82-14.32-60.7-22.57-92.88-23.8-34.71-1.33-69.92,10.08-104.28,2.07-16.51-3.85-31.9-11.3-46.94-18.94-14.85-7.54-29.49-15.51-43.89-23.89-29.06-16.91-57.15-35.49-84.09-55.6-26.5-19.79-51.9-41.07-76.01-63.71-11.54-10.83-22.85-21.82-29.39-36.49-5.77-12.98-7.92-27.22-8.12-41.34-.21-14.91,1.66-29.77,4.01-44.46,2.38-14.87,4.52-30.27,10.3-44.28,11.65-28.23,40.84-39.27,67.21-50.05,54.25-22.18,111.09-37.22,165.54-58.87,54.77-21.77,106.94-51.4,143.89-98.39,32.38-41.19,51.83-90.27,68.38-139.72h1.56c-1.07,3.15-2.14,6.3-3.22,9.45-19.61,56.88-44.47,113.9-88.29,156.51-40.05,38.93-91.45,62.75-143.28,81.74-54.66,20.01-111.15,35.28-164.26,59.36-14.12,6.4-28.64,13.74-38.2,26.38-9.82,12.99-13.18,29.42-15.96,45.12-5.27,29.86-10.94,62.62-.55,92.03,5.78,16.33,17.09,28.39,29.45,40.08,12.11,11.44,24.54,22.54,37.29,33.27,25.66,21.62,52.56,41.77,80.53,60.32,27.51,18.26,56.04,34.97,85.43,50.01,15.43,7.9,31.17,15.72,48.1,19.81,18.04,4.36,36.46,3.09,54.72,1.11,16.98-1.85,33.82-3.71,50.92-2.99,14.8.63,29.54,2.72,43.93,6.2,29.55,7.13,57.73,20.09,82.22,38.12,23.97,17.63,43.01,40.5,63.62,61.73,21.83,22.49,45.95,41.82,76.51,50.74,62.62,18.26,128.82-2.04,192.48-.59,33.99.78,68.17,6.64,102.17,3.35Z"/><path d="m1240.75,710.66c-9.79,36.63-36.02,78.21-76.42,85.2-44.18,7.66-73.41-34.41-92.61-67.61-23.58-40.79-39.04-85.63-51.67-130.84-13.08-46.84-23.27-94.44-36.72-141.19-13.07-45.39-29.95-89.54-51.76-131.47-21.55-41.41-47.57-80.54-78.09-115.88-15.03-17.41-31.14-33.88-48.28-49.22-18.1-16.2-37.26-31.82-58.54-43.67-21.1-11.75-44.69-19.32-69.05-17.72-23.48,1.54-45.71,11.85-59.7,31.15-26.42,36.48-20.66,88.33-18.99,130.63,2.2,56.21,5.97,112.36,11.3,168.36,2.67,28,5.72,55.97,9.16,83.88,3.25,26.36,7.14,52.66,9.42,79.12,4.34,50.34,1.45,100.99-22.64,146.41-23.13,43.62-58.82,79.55-91.87,115.64-46.01,50.24-94.85,106.2-119.59,170.55h-1.48c32.33-85.81,102.93-150.18,162.13-218.24,33.74-38.78,62.72-80.98,70.76-132.81,8.22-53.01-1.58-106.87-8.09-159.51-6.9-55.82-12.25-111.84-16.04-167.97-1.9-28.06-3.4-56.15-4.52-84.26-.93-23.5-2.34-47.22-.38-70.72,1.6-19.22,5.54-38.86,15.48-55.64,9.96-16.83,25.73-28.96,44.47-34.5,44.71-13.2,88.48,9.53,123.02,36.32,72.35,56.15,128.13,132.2,166.39,214.98,19.53,42.25,33.92,86.36,45.8,131.3,12.4,46.96,22.73,94.49,37.15,140.91,14.15,45.55,32.42,90.94,60.43,129.9,13.41,18.65,31.19,36.74,54.81,40.72,22.36,3.78,43.72-6.8,59.51-22.01,35.47-34.19,44.78-87.2,41.93-134.52-3.16-52.5-21.82-102.45-46.72-148.32-25.32-46.64-56.59-89.82-86.69-133.43-31.97-46.32-64.03-92.58-95.91-138.97-44.56-64.85-90.33-138.05-98.11-217.23h1.61c.44,4.45,1,8.89,1.67,13.31,7.96,52.39,30.95,100.86,58.37,145.7,28.35,46.36,60.51,90.45,91.36,135.14,31.2,45.19,63.08,90,93.28,135.86,27.85,42.3,53.67,86.75,68.89,135.32,14.62,46.68,19.68,97.61,6.93,145.33Z"/><path d="m1223.48,692.92c-6.86,33.93-27.34,93.6-73.11,83.97-21.31-4.49-38.43-22.48-51.8-38.57-14.21-17.09-25.61-36.34-34.93-56.49-19.26-41.61-30.04-86.48-41.3-130.73-23.15-91.01-52.28-181.5-98.25-263.8-22.68-40.6-49.51-79-81.31-113-32.73-34.99-71.82-69.75-117.65-85.96-42.51-15.04-97.53-10.14-125.69,29.18-15.78,22.03-19.96,50.49-22,76.85-2.17,27.81-.84,55.8,2.61,83.45,13.67,109.32,59.51,213.17,60.29,324.35.35,50-9.74,99.09-33.67,143.24-22.94,42.31-55.27,78.54-87.52,113.89-43.71,47.91-93.56,102.29-116.76,164.7h-1.39c29.99-82.78,100.75-143.47,155.94-209.85,32.2-38.72,59.99-81.39,72.62-130.68,13.4-52.28,10.69-107.22,2.03-160.03-17.84-108.82-63.77-214.8-55.82-326.81,1.7-23.94,5.04-49.14,16.58-70.56,9.74-18.07,25.68-31.45,44.59-39.17,42.42-17.33,88.46-4.85,126.05,18.16,39.36,24.11,73.59,57.64,102.73,93.18,28.89,35.22,53.14,74.07,73.69,114.69,42.21,83.43,67.57,172.92,90.82,263.07,11.61,44.99,24.43,90.65,48.21,130.95,20.15,34.15,68.7,96.51,111.14,56.18,17.27-16.41,25.55-40.82,30.88-63.42,6.22-26.33,7.62-53.64,5.41-80.56-4.48-54.37-23.91-106.04-48.96-154.09-25-47.95-54.91-93.46-85.04-138.3-31.12-46.31-63.87-91.45-97.72-135.81-43.85-57.44-92.2-119.97-110.52-190.95h1.52c.52,2.05,1.08,4.09,1.67,6.12,13.67,47.42,40.02,90.14,68.39,130.07,30.04,42.28,62.62,82.69,92.85,124.85,32.74,45.65,64.09,92.33,93.7,140.08,27.46,44.27,53.11,90.22,69.41,139.89,15.95,48.61,22.53,101.4,12.31,151.91Z"/><path d="m1211.95,698.48c-6.48,20.26-16.86,41.89-33.53,55.74-16.46,13.68-36.55,13.17-54.39,2.24-35.21-21.59-55.01-63.39-67.58-101.1-14.92-44.78-23.58-91.42-37.78-136.46-16.09-51.01-35.87-100.8-57.78-149.57-20.59-45.84-42.24-91.64-68.39-134.61-49.03-80.55-124.47-156.44-223.62-164.27-11.88-.93-24.65-1.47-36.36,1.03-13.48,2.89-22.79,12-30.14,23.19-13.45,20.46-22.22,43.95-27.55,67.76-11.39,50.95-6.72,103.56,1.4,154.61,8.59,53.96,18.98,107.42,24.6,161.82,5.63,54.48,8.75,109.63,7.38,164.41-.63,25.33-3.16,50.85-11.48,74.93-7.24,20.96-18.34,40.36-31.27,58.3-26.88,37.32-60.85,68.86-91.3,103.15-38.42,43.27-75.03,91.27-99.06,144.35h-1.82c31.57-70.42,84.54-130.07,137.09-185.73,32.41-34.33,65.9-70.29,82.97-115.12,9.33-24.49,12.46-50.57,13.28-76.62.85-26.98.15-54.08-.99-81.05-2.38-56.26-8.08-112.39-17.08-167.98-8.5-52.46-20.38-104.71-21.91-158.02-1.32-46.5,5.58-94.66,28.53-135.74,5.21-9.33,11.14-18.9,19.61-25.64,7.98-6.35,17.48-8.67,27.49-9.39,21.95-1.58,44.37,1.32,65.54,7.13,92.17,25.32,155.64,102.38,200.26,182.7,24.77,44.6,46.35,91.19,66.42,138.07,20.51,47.92,38.74,96.87,53.2,146.98,12.56,43.48,20.41,88.61,37.28,130.75,8.32,20.79,19.09,40.8,33.82,57.77,15,17.28,38.12,37.38,62.85,29.83,23.3-7.11,37.45-33.5,45.62-54.66,8.85-22.9,12.41-47.59,12.25-72.06-.32-50.37-15.85-99.64-37.87-144.53-45.55-92.83-118.67-168.09-174.25-254.56-47.25-73.52-84.9-153.07-111.99-236.13h1.54c3.73,11.44,7.66,22.82,11.8,34.12,35.04,95.76,84.67,184.79,145.43,266.53,59.95,80.66,128.18,159.93,155.67,258.79,12.47,44.84,16.49,94.13,2.11,139.04Z"/><path d="m1280,378.16v1.61c-82.33,26.97-166.66,47.83-252.07,62.36-46.75,7.96-93.82,14.02-141.06,18.16-39.02,3.42-82.54,1.55-118.64,19.04-17.86,8.65-32.15,23.12-38.04,42.37-6.63,21.68-2.28,45.06,4.29,66.21,12.4,39.96,32.09,77.09,36.92,119.25,4.18,36.56-5.41,73.85-35.46,97.17-26.6,20.65-62.18,26.76-95.09,25.26-40.32-1.85-79.92-15.38-116.09-32.65-39.86-19.05-77.15-43.64-112.41-70.16-65.48-49.27-122.55-110.08-148.59-189.24-13.85-42.09-20.61-86.04-31.87-128.81-5.78-21.96-12.76-43.68-22.46-64.24-9.36-19.82-21.2-39.84-39.14-53.07-18.25-13.47-45.07-19-64.95-5.58-15.59,10.52-21.56,29.46-21.35,47.54.49,42.56,32.61,72.37,53.62,106.27,43.99,70.98,18.4,165.99-30.12,227.81-28.43,36.22-65.87,63.27-107.49,81.32v-1.63c65.17-28.86,119.32-80.26,144.43-148.6,15.08-41.06,20.32-89.63,5.12-131.44-14.26-39.24-50.22-66.63-62.66-106.55-8.56-27.46-5.99-65.37,23.41-79.27,36.31-17.17,71.62,12.46,89.45,41.84,46.18,76.08,42.27,170.46,79.65,250.12,36.25,77.27,104.44,134.39,174.11,180.81,38,25.32,78.48,47.79,122.21,61.54,37.77,11.88,78.62,17.61,117.48,7.43,38.58-10.11,69.3-37.66,76.13-78.07,7.15-42.23-9.07-85.54-24.36-124.19-13.89-35.09-31.03-78.94-9.47-114.64,17.41-28.83,52.59-37.84,83.82-41.76,20.57-2.58,41.35-3.36,62-5.1,24.06-2.03,48.07-4.56,72.02-7.59,48.3-6.1,96.34-14.23,143.96-24.33,61.74-13.09,122.74-29.53,182.7-49.19Z"/><path d="m1280,365.81v1.65c-77.23,29.78-157.49,51.7-239.13,65.36-45.72,7.64-91.87,12.71-138.16,15.1-47.19,2.45-99.21-2.22-142.47,20.35-17.64,9.21-33.61,22.83-42.96,40.62-9.37,17.82-10.41,38.17-5.82,57.51,8.52,35.96,31.32,66.51,42.95,101.37,11.13,33.34,7.58,67.4-13.73,95.92-20.66,27.65-53.11,46.55-86.98,52.45-41.32,7.19-83.94-3.73-121.54-20.63-38.76-17.41-75.01-41.31-108.42-67.45-31.87-24.93-61.28-53.24-85.85-85.46-25.44-33.37-44.27-70.46-57.01-110.4-13.9-43.58-21.98-88.78-35.97-132.34-12.5-38.92-30.48-85.27-68.36-106.18-16.32-9.01-35.29-10.97-52.91-4.54-18.18,6.62-32.67,21.76-32.69,41.93-.03,23.49,15.52,46.35,26.44,66.31,10.65,19.46,21.61,38.78,30.94,58.92,17.23,37.19,27.56,77.2,19.11,118.11-8.39,40.6-31.57,77.13-59.64,107.04-30.15,32.13-67.22,57.31-107.8,74.01v-1.55c64.1-26.54,121.1-74.7,151.23-137.08,10.1-20.92,16.78-43.67,17.8-66.95.96-21.98-3.28-43.77-10.44-64.48-14.63-42.37-40.32-79.43-59.47-119.68-7.59-15.96-13.76-34.64-6.17-51.78,5.63-12.72,17.45-21.62,30.29-26.25,33.22-11.97,64.8,6.12,85.07,32.25,25.7,33.14,38.02,75.93,48.51,115.86,11.7,44.48,20.72,90.03,38.96,132.46,33.36,77.58,96.11,138.49,165.24,184.98,69.28,46.58,164.36,91.76,243.69,41.38,32.12-20.4,56.84-54.99,54.78-94.34-2.01-38.25-25.12-71.27-39.83-105.45-13.32-30.95-18.99-65.41,1.27-94.86,22.1-32.11,60.96-45.32,98.07-49.51,24.21-2.73,48.63-2.48,72.94-3.53,23.35-1,46.66-2.67,69.91-5.02,47.77-4.83,95.26-12.49,142.13-22.89,59.92-13.3,118.79-31.11,176.02-53.21Z"/><path d="m1280,351.3v1.74c-76.01,35.32-157.31,58.61-239.9,72.44-44.19,7.4-88.81,12.12-133.54,14.54-46.67,2.52-96.94.28-140.06,21.25-35.61,17.33-65.3,51.6-61.73,93.24,3.46,40.34,31.24,73.38,41.71,111.71,9.18,33.62,1.1,69.48-20.77,96.54-25.74,31.86-65.37,42.13-104.98,39.4-39.21-2.7-78.45-14.35-114.47-29.71-35.22-15.03-68.38-34.94-97.96-59.28-29.37-24.17-55.16-52.79-75.45-84.99-22.9-36.33-37.34-76.83-49.11-117.92-12.49-43.61-22.34-88.07-38.15-130.67-14.72-39.63-35.18-83.04-73.28-105.11-32.78-19-83.31-15.85-101.81,21.53-20.37,41.15,6.88,86.33,29.74,119.71,11.9,17.38,24.12,34.81,32,54.47,8.41,20.99,11.09,43.87,9.83,66.35-2.16,38.52-15.25,76.2-36.21,108.5-20.47,31.54-48.56,58.17-81.63,76.18-7.89,4.3-15.98,8.11-24.23,11.52v-1.86c27.5-11.71,52.83-27.58,74.37-49.21,28.06-28.19,48.81-63.66,59.18-102.09,5.85-21.72,8.55-44.5,6.81-66.97-1.9-24.62-10.19-47.15-22.93-68.17-20.97-34.6-49.94-65.81-54.54-107.7-3.86-35.04,14.91-66.73,50.57-73.79,35.64-7.06,68.75,10.66,91.28,37.44,26.36,31.31,41.01,71.77,52.95,110.36,13.42,43.37,22.96,87.86,37.27,130.97,13.66,41.14,32.4,79.98,59.25,114.17,24.38,31.03,53.99,57.83,86.82,79.67,33.04,22,69.35,39.08,107.31,50.65,41.75,12.72,90.38,22.98,132.67,7.18,37.53-14.01,64.1-50.68,67.56-90.39,3.57-40.92-21.18-75.41-35.75-111.7-6.88-17.14-11.54-35.51-9.26-54.09,2.01-16.35,9.34-31.52,19.68-44.23,25.22-30.99,63.82-44.41,102.29-49.41,23.46-3.04,47.14-3.44,70.75-4.53,22.32-1.04,44.61-2.63,66.85-4.84,46.16-4.59,92.07-11.83,137.3-22.14,61.75-14.08,122.2-34.05,179.57-60.76Z"/><path d="m1280,599.94v1.47c-4.32,1.14-8.62,2.38-12.89,3.72-74.69,23.36-137.87,71.85-198.12,120.12-30.18,24.19-60.18,48.68-91.9,70.85-33.19,23.2-68.27,42.89-105.56,58.69-37.25,15.78-75.76,28.29-114.2,40.8-42.07,13.69-84.15,27.38-126.22,41.07-40.61,13.22-81.14,28.38-122.67,38.45-19.65,4.77-39.75,7.76-60.01,7.32-19.86-.44-39.58-3.82-58.72-9.06-68.65-18.78-133.46-58.85-176.83-115.77-23.05-30.25-38.69-65-41.76-103.17-1.66-20.68-.33-41.48,1.68-62.08,1.89-19.46,4.56-38.96,10.1-57.75,10.11-34.36,31.33-62.49,56.75-87.15,27.24-26.42,57.29-49.83,85.02-75.75,29.59-27.65,57.84-56.73,84.62-87.1,25.35-28.74,53.36-59.14,65.94-96.08,6.11-17.96,7.61-37.13,2.83-55.59-4.54-17.48-14.07-33.33-25.72-46.98-24.8-29.05-58.66-47.23-90.83-66.76-30.78-18.69-58.79-40.02-80.73-68.89-11.79-15.52-21.63-32.44-29.31-50.3h1.57c.86,1.98,1.75,3.95,2.67,5.91,14.92,31.89,36.86,60.48,64.07,82.84,30.81,25.31,67.59,41.77,99.7,65.21,25.6,18.68,49.29,43.5,58.83,74.41,10.48,33.91-1.1,67.83-19.62,96.59-20.57,31.93-47.33,60.42-73.2,88.07-27.42,29.31-56.25,57.31-86.34,83.87-27.05,23.88-55.96,46.15-79.35,73.82-12.11,14.33-22.54,30.18-29.65,47.59-7.74,18.97-11.71,39.22-14.26,59.47-5.12,40.81-7.72,83.67,6.71,122.94,13.02,35.42,36.86,66.53,64.25,92.13,26.41,24.67,57.1,44.58,89.94,59.6,37.14,16.99,78.04,29.17,119.19,28.5,42.29-.69,82.76-15.81,122.5-28.74,41.71-13.57,83.42-27.14,125.13-40.72,78.49-25.54,159.9-47.97,231.52-90.08,67.46-39.66,124.77-93.55,187.56-139.74,47.65-35.06,99.98-66.48,157.31-81.73Z"/><path d="m1280,576.49v1.4c-66.07,24.24-124.83,64.86-181.03,106.55-62.12,46.08-122.68,94.8-191.01,131.6-77.73,41.86-161.88,69.79-245.55,97.07-81.77,26.66-166.95,54.83-253.93,39.76-71.73-12.43-139.96-51.19-182.28-111.17-41.98-59.5-55.85-139.16-34.1-208.92,21.33-68.39,76.89-114.35,132.3-155.58,29.02-21.59,58.59-42.67,85.13-67.33,29.16-27.08,53.33-58.79,69.75-95.17,9.01-19.96,18.79-43.54,18.21-65.78-.48-18.88-10.37-35.2-23.57-48.1-12.94-12.65-28.4-22.43-43.83-31.74-16.53-9.98-32.94-20.13-48.89-31.02C326.83,100.93,276.28,55.99,241.26,0h1.71c4.19,6.71,8.63,13.28,13.28,19.7,46.29,63.79,110.88,109.28,177.39,149.77,26.26,15.99,57.48,36.34,64.13,68.73,4.1,19.92-2.86,40.56-9.72,59.08-7.02,18.92-16.07,37.09-26.94,54.1-39.06,61.09-101.01,99.74-157.22,143.19-28,21.65-55.2,45.07-76.57,73.49-22.4,29.8-36.8,64.46-41.78,101.43-10.23,75.93,17.49,153.88,72.49,206.95,54.66,52.74,131.27,80.57,206.84,79.29,46.86-.8,92.82-11.71,137.5-25.11,42.58-12.76,84.83-26.88,126.87-41.29,81.89-28.07,162.1-60.88,234.74-108.53,63.14-41.41,121.02-90.18,183.28-132.83,41.56-28.47,85.57-54.17,132.74-71.48Z"/><path d="m1280,608.79v1.47c-76.39,22.19-141.44,71.52-202.62,120.77-32.32,26.02-64.36,52.49-98.43,76.23-34.56,24.08-71.27,44.29-110.29,60.18-40.12,16.33-81.76,28.56-123.65,39.42-44.05,11.42-88.41,22.17-133.27,29.95-81.62,14.16-167.77,17.83-246.76-10.94-63.36-23.08-122.1-66.13-152.27-127.75-17.34-35.4-24.26-75.54-20.3-114.74,3.56-35.33,16.25-68.84,35.6-98.5,35.14-53.86,87.87-93.04,137.02-133.21,25.19-20.59,50.12-41.69,72.41-65.45,23.99-25.55,48-55.82,57.52-90.12,5.8-20.91,4.6-42.77-7.45-61.28-11.09-17.04-28.1-29.3-44.3-41.1-29.77-21.69-60.51-42.02-90.49-63.43C301.65,93.84,251.56,53.2,217.65,0h1.71c4.58,7.19,9.47,14.19,14.66,20.98,45.05,58.98,108.28,100.54,168.58,142.25,14.85,10.27,29.66,20.6,44.22,31.27,14.31,10.49,28.84,21.41,39.42,35.86,23.75,32.45,12.29,72.49-6.91,104.11-33.64,55.4-85.83,96-135.42,136.28-49.15,39.92-100.25,82.02-128.91,139.86-35.94,72.52-26.99,160.7,22.67,224.52,43.44,55.82,110.82,90.23,179.35,103.64,89.44,17.49,181.71,1.58,269.18-18.94,84.81-19.9,171.31-41.8,247.45-85.48,72.9-41.81,133.64-100.69,201.34-149.83,43.98-31.92,92.63-60.54,145.01-75.73Z"/></svg>