<?xml version="1.0" encoding="UTF-8"?><svg id="Calque_1" xmlns="http://www.w3.org/2000/svg" viewBox="0 0 851.89 1043.86"><defs><style>.cls-1{fill:none;stroke:#1d1d1b;stroke-miterlimit:10;stroke-width:2px;}</style></defs><path class="cls-1" d="m243.48,862.44s17.79,18.31,33.71,65.12c15.92,46.82,61.27,101.12,115.8,111.42,54.54,10.3,137.94-2.81,155.73-6.55,17.79-3.75,70.08-35.75,79.05-70.22,8.97-34.48-17.25-31.83-36.74-58.44-19.49-26.61-55.56-60.28-72.27-101.67-16.71-41.39-5.62-102.06,2.81-128.32,8.43-26.26,93.63-80.48,103-110.44,9.36-29.96-2.81-68.35-23.41-119.85-20.6-51.5-83.33-103.93-133.89-133.42-50.56-29.49-310.86-20.65-310.86-20.65"/></svg>