<?xml version="1.0" encoding="UTF-8"?><svg id="Calque_1" xmlns="http://www.w3.org/2000/svg" viewBox="0 0 1245.02 1096.58"><defs><style>.cls-1{fill:none;stroke:#1d1d1b;stroke-miterlimit:10;stroke-width:2px;}</style></defs><path class="cls-1" d="m330.44,656.45s-66.48-39.33-115.17-49.62c-48.69-10.3-142.32-69.29-180.71-37.45-13.21,10.95-22.76,34.43-29.6,60.52,0,0-7.83,35.86-1.45,50.42s17.24,24.18,27.34,27.95,53.3,14.58,61.66,15.98,31.7,2.74,31.7,2.74c10.24-.12,19,.2,25.24,1.15,0,0,85.94,11.66,107.21,18,21.27,6.35,193.75,71.68,214.97,78.76,0,0,125.06,47.42,143.63,65.75,18.57,18.33,7.67,64.06,27.4,103.82,19.73,39.76,59.19,78.13,144.68,92.38,85.49,14.24,146.87,11.24,189.62-10.27,42.75-21.52,80.22-36.81,90.53-66.43,10.31-29.62,16.89-48.01,10.31-70.05-6.58-22.04-28.34-59.98-53.63-87.04s-48.3-42.84-60.36-68.38c-12.06-25.54-21.95-104.8-21.95-104.8"/></svg>