<?xml version="1.0" encoding="UTF-8"?><svg id="Calque_1" xmlns="http://www.w3.org/2000/svg" viewBox="0 0 1328.19 980.22"><defs><style>.cls-1{fill:none;stroke:#1d1d1b;stroke-miterlimit:10;stroke-width:2px;}</style></defs><path class="cls-1" d="m117.73,979.48s-61.8-57.54-74.91-82.82c-13.11-25.28-46.82-102.06-41.2-136.7,5.62-34.64,2.81-84.27,14.98-110.49,12.17-26.22,29.78-55.67,35.02-83.33,5.25-27.67,82.95-96.44,122.28-110.49,39.33-14.04,124.53-33.71,149.81-29.96,25.28,3.75,115.17,32.77,140.45,44.01,25.28,11.24,79.74,28.94,88.09,42.56,8.35,13.62,29.67-6.59,35.86-32.53,6.2-25.94,74.35-107.4,89.43-117.7,15.08-10.3,68.08-32.66,93.07-31.31,25,1.35,107.4.05,142.04,11,34.64,10.95,82.4,64.74,82.4,64.74"/></svg>