<?xml version="1.0" encoding="UTF-8"?><svg id="Calque_1" xmlns="http://www.w3.org/2000/svg" viewBox="0 0 1155.58 995.2"><defs><style>.cls-1{fill:none;stroke:#1d1d1b;stroke-miterlimit:10;stroke-width:2px;}</style></defs><path class="cls-1" d="m854.28,994.47s18.47-17.3,32.77-43.49c14.31-26.19,55.91-129.44,46.21-166.31-9.7-36.87-69.62-152.04-88.35-211.96-18.73-59.92-32.77-87.08-22.47-121.72,10.3-34.64,20.51-51.39,5.62-73.03-14.89-21.64-37.45-45.88-75.84-56.18-38.39-10.3-133.89-9.35-166.67-11.7-32.77-2.35-67.41-1.01-91.76-5.15-24.35-4.14-41.2-8.43-66.48,0-25.28,8.43-119.85,10.31-145.13,5.15s-107.68-21.14-130.15-30.47c-22.47-9.33-82.31,7.52-110.91,21.57C12.53,315.21-1.22,347.04,1.29,368.07"/></svg>