<?xml version="1.0" encoding="UTF-8"?><svg id="Calque_1" xmlns="http://www.w3.org/2000/svg" viewBox="0 0 1367.29 1004.8"><defs><style>.cls-1{fill:none;stroke:#1d1d1b;stroke-miterlimit:10;stroke-width:2px;}</style></defs><path class="cls-1" d="m758.88,862.44s-81.21-43.76-134.04-59.74c-52.84-15.98-141.29-40.08-153.12-14.07-11.82,26-58.34,78.49-58.34,78.49,0,0-38.78,82.57-50.15,103.57-11.37,21-42.87,36.75-65.62,32.37-22.75-4.37-138.24-18.37-167.11-16.62-28.87,1.75-86.81-37.62-98.52-58.62-11.72-21-30.97-132.4-30.97-181.69s9.62-136.79,21-180.54c11.38-43.75,69.09-155.74,88.79-172.36,19.7-16.62,74.35-32.97,102.22-25.16"/></svg>