<?xml version="1.0" encoding="UTF-8"?><svg id="Calque_1" xmlns="http://www.w3.org/2000/svg" viewBox="0 0 1321.6 1044.01"><defs><style>.cls-1{fill:none;stroke:#1d1d1b;stroke-miterlimit:10;stroke-width:2px;}</style></defs><path class="cls-1" d="m626.11,289.42s14.98,12.69,13.11,26.73c-1.87,14.04-.94,22.12-29.96,37.28-29.03,15.16-76.86,22.65-116.61,19.84-39.75-2.81-142.39-31.83-169.25-37.45-26.86-5.62-101.77,41.2-122.37,59.92-20.6,18.73-134.83,142.32-148.87,176.03-14.04,33.71-27.15,73.79-37.45,84.69s-17.79,86.66-11.24,110.06c6.55,23.41,35.58,55.24,55.24,67.42,19.66,12.17,107.68,21.54,140.45,21.54s134.44,54.31,154.3,74.91c19.86,20.6,111.95,112.93,111.95,112.93"/></svg>