<?xml version="1.0" encoding="UTF-8"?><svg id="Calque_1" xmlns="http://www.w3.org/2000/svg" viewBox="0 0 933.38 862.47"><defs><style>.cls-1{fill:none;stroke:#1d1d1b;stroke-miterlimit:10;stroke-width:2px;}</style></defs><path class="cls-1" d="m600.25,406.46s-55.62-2.18-84.86-10.78c-29.24-8.6-95.9-26.36-121.25-22.36-25.35,4-55.55,16.34-95.45,49.88-39.9,33.54-52.45,60.19-75.78,80.83-23.33,20.64-79,28.38-109.96,37.84-30.96,9.46-111.79,38.7-111.95,59.86-.16,21.16,25.1,37.31,67.06,88.04,41.97,50.73,78.42,38.7,113.5,49.08,35.08,10.39,111.1,38.63,127.95,56.18,16.85,17.55,15.45,67.42,15.45,67.42"/></svg>