<?xml version="1.0" encoding="UTF-8"?><svg id="Calque_1" xmlns="http://www.w3.org/2000/svg" viewBox="0 0 1361.48 980.42"><defs><style>.cls-1{fill:none;stroke:#1d1d1b;stroke-miterlimit:10;stroke-width:2px;}</style></defs><path class="cls-1" d="m666.34,289.19s-30.3,24.15-53.71,31.64c-23.41,7.49-113.29-1.87-158.52-6.55-45.22-4.68-67.14-22.47-90.83-30.9-23.7-8.43-89.6,15.92-116.24,26.69-26.64,10.77-121.3,85.67-141.9,100.65-20.6,14.98-57.12,96.44-67.42,127.34-10.3,30.9-34.64,147.94-36.52,208.08-1.87,60.14,9.36,119.64,14.98,138.36,5.62,18.73,17.79,28.09,30.9,44.01,13.11,15.92,103.93,50.98,103.93,50.98"/></svg>