<?xml version="1.0" encoding="UTF-8"?><svg id="Calque_1" xmlns="http://www.w3.org/2000/svg" viewBox="0 0 851.89 679.95"><defs><style>.cls-1{fill:none;stroke:#1d1d1b;stroke-miterlimit:10;stroke-width:2px;}</style></defs><path class="cls-1" d="m548.72,679.86s4.98-58.67-13.35-69.11c-18.33-10.44-26.66-16.44-36.98-37.08-10.32-20.64-24.94-87.71-18.06-116.09,6.88-28.38,23.22-42.07,4.3-51.13-18.92-9.06-133.31-39.34-163.38-38.39-30.07.95-88.57,30.19-115.23,57.7-26.66,27.52-45.12,40.42-57.39,61.05-12.26,20.64-31.18,44.72-19.14,57.61,12.04,12.9,52.45,8.58,76.53,9.02,24.08.44,97.38.11,111.79,11.62,14.41,11.51,18.36,30.51,18.36,30.51"/></svg>