<?xml version="1.0" encoding="UTF-8"?><svg id="Calque_1" xmlns="http://www.w3.org/2000/svg" viewBox="0 0 1336.32 980.29"><defs><style>.cls-1{fill:none;stroke:#1d1d1b;stroke-miterlimit:10;stroke-width:2px;}</style></defs><path class="cls-1" d="m820.61,595.59c-28.66-42.75-196.63-38.81-219.1-29.45-22.47,9.36-63.67,70.22-70.22,81.46-6.55,11.24-38.22,29.7-51.5,19.86-13.28-9.84-26.22-34.84-35.58-56.71-9.36-21.87-.94-31.5,35.58-57.3,36.52-25.8,64.61-24.77,67.42-37.51,2.81-12.75-18.73-14.41-59.92-30.32-41.2-15.92-139.51-50.56-170.41-52.43-30.9-1.87-140.45,34.64-161.05,41.2-20.6,6.55-109.55,54.15-109.55,93.63s-12.17,32.77-27.15,73.92C4.14,683.09-.34,741.63,1.33,774.95c1.66,33.32,17.79,87.08,37.45,120.79,19.66,33.71,87.08,83.75,87.08,83.75"/></svg>