<?xml version="1.0" encoding="UTF-8"?><svg id="Calque_1" xmlns="http://www.w3.org/2000/svg" viewBox="0 0 856.86 1044.1"><defs><style>.cls-1{fill:none;stroke:#1d1d1b;stroke-miterlimit:10;stroke-width:2px;}</style></defs><path class="cls-1" d="m.33,1043.15c93.63-32.35,145.13-10.72,159.18-23.67,14.05-12.95,11.23-31.99,9.63-54.46-1.6-22.47-15.26-49.62-27.43-62.73-12.17-13.11-77.71-66.48-89.89-79.85-12.17-13.37-13.11-14.72-5.62-17.53,7.49-2.81,80.52,29.03,107.4,39.33,26.88,10.3,146.34,72.1,163.2,93.63,16.85,21.54,38.39,53.37,63.67,71.16,25.28,17.79,59.92,7.49,114.23,7.49s67.42-9.36,86.29-22.05c18.88-12.69,36.21-30.7,25.43-36.94-10.78-6.24-6.85,2.81-15.28,17.82-8.43,15.01-35.58,19.11-35.58,19.11"/></svg>