<?xml version="1.0" encoding="UTF-8"?><svg id="Calque_1" xmlns="http://www.w3.org/2000/svg" viewBox="0 0 1210.47 1087.84"><defs><style>.cls-1{fill:none;stroke:#1d1d1b;stroke-miterlimit:10;stroke-width:2px;}</style></defs><path class="cls-1" d="m0,979.48s99.25.51,123.59,8.94c24.34,8.43,55.23-.09,63.67-8.94s9.37-25.7,29.03-19.15c19.66,6.55,92.7,83.9,110.49,92.04,17.79,8.14,44.94,16.57,58.99,8.14,14.04-8.43,44.94-21.54,68.82-25.28,23.88-3.75,55.71-17.79,56.65-30.9.94-13.11,5.62-64.61-14.04-86.14-19.66-21.54-99.25-84.27-110.49-100.19-11.24-15.92-27.48-37.68-10.46-33.35,17.02,4.33,193.91,53.09,210.37,82.46,16.46,29.37,10.44,40.78,15.28,66.06,4.85,25.28,25.45,88.86,56.34,109.97,30.9,21.11,118.91,45.46,181.65,43.59,62.73-1.87,141.1-37.45,160.44-58.05,19.34-20.6,34.32-44.94,32.44-69.29-1.87-24.34.55-37.25-32.44-74.91-33-37.65-86.47-91.76-91.15-124.53-4.68-32.77-1.87-80.1-1.87-80.1"/></svg>