<?xml version="1.0" encoding="UTF-8"?><svg id="Calque_1" xmlns="http://www.w3.org/2000/svg" viewBox="0 0 1160.52 680.75"><defs><style>.cls-1{fill:none;stroke:#1d1d1b;stroke-miterlimit:10;stroke-width:2px;}</style></defs><path class="cls-1" d="m6.23,368.07c-8.57-13.46-7.27-41.33,8.79-58,16.06-16.67,39.06-20.08,90.15-33.16,51.09-13.08,71.4-.05,101.43,11.26,30.03,11.31,131.84,17.56,177.98,14.94,46.14-2.62,47.48-12.25,72.68-21.48,25.2-9.23,93.79-8.27,137.43-11.77,43.63-3.5,197.85,13.12,228.47,29.75,30.62,16.62,60.37,48.12,90.24,91.87,29.87,43.75,45.38,125.12,46.57,150.49,1.19,25.37-16.06,62.12-32.34,85.92-16.27,23.8-70.28,51.97-70.28,51.97"/></svg>