<?xml version="1.0" encoding="UTF-8"?><svg id="Calque_1" xmlns="http://www.w3.org/2000/svg" viewBox="0 0 1348.44 941.09"><defs><style>.cls-1{fill:none;stroke:#1d1d1b;stroke-miterlimit:10;stroke-width:2px;}</style></defs><path class="cls-1" d="m1015.31,406.46s-66.48-24.77-115.05-38.39c-48.57-13.62-88.23-13.77-132.14,0-43.91,13.77-79.59,50.14-107.4,78.23-27.81,28.09-70.5,42.13-88.22,34.64-17.72-7.49-22.55-23.41-53.02-42.13-30.47-18.73-181.14-46.82-208.29-48.69-27.15-1.87-83.86,18.97-102,33.71-18.14,14.74-94.39,104.03-111.33,139.51-12.98,27.18-20.28,64.36-19.97,93.12.15,13.56,9.32,62.97,15.89,71.83s11.11,10.01,16.13,11.67,29.03,5.48,29.03,5.48c60.91,8.8,162.94,24.4,191.91,34.11,42.13,14.12,69.29,14.12,63.67,28.17-5.62,14.04-58.05,100.19-78.65,106.74-20.6,6.55-136.7-5.71-155.43,8.85-18.73,14.56-31.83,21.71-48.69,12.99-16.85-8.73-80.48-36.76-102.14-106.54-21.66-69.78,1.01-236.06,29.1-310.32,28.09-74.26,48.69-102.16,79.59-120.89,30.9-18.73,58.08-30.47,75.84-30.48"/></svg>