<?xml version="1.0" encoding="UTF-8"?><svg id="Calque_1" xmlns="http://www.w3.org/2000/svg" viewBox="0 0 1257.5 994.61"><defs><style>.cls-1{fill:none;stroke:#1d1d1b;stroke-miterlimit:10;stroke-width:2px;}</style></defs><path class="cls-1" d="m956.2,994.47s7.49-51.67,4.68-70.52c-2.81-18.85-22.47-56.3-41.2-81.58-18.73-25.28-39.33-47.75-36.52-84.27,2.81-36.52-.94-74.99,17.79-101.64,18.73-26.64,37.45-43.59,30.9-60.86-6.55-17.28-23.41-52.13-25.28-79.65-1.87-27.51-3.75-45.3.94-68.71,4.68-23.41,14.04-35.58-15.92-47.75-29.96-12.17-130.15-43.07-171.35-36.52-41.2,6.55-116.1,46.82-138.58,81.46-22.47,34.64-73.94,52.43-91.28,48.69-17.34-3.75-29.59-26.22-61.85-39.33-32.26-13.11-165.22-52.43-189.56-51.5-24.34.94-79.17,5.24-105.8,23.41-26.63,18.17-101.12,116.1-107.68,136.7-6.55,20.6-26.47,92.55-24.34,121.72,0,0,.62,27.49,15.72,35.21s24.17,13.58,52.84,16.35,72.87,12.23,84.08,13.74,19.57,2.78,34.74,4.04c36.96,3.06,65.97,5.59,70.75,6.5,14.69,2.81,63.02,26.22,64.9,42.13,1.87,15.92-19.66,43.07-29.03,60.35-9.36,17.28-30.9,50.14-53.37,66.99-22.47,16.85-46.82,22.47-66.48,14.04-19.66-8.43-67.42-2.81-91.76,3.75-24.34,6.55-36.52,32.26-36.52,32.26"/></svg>