<?xml version="1.0" encoding="UTF-8"?><svg id="Calque_1" xmlns="http://www.w3.org/2000/svg" viewBox="0 0 954.5 1027.22"><defs><style>.cls-1{fill:none;stroke:#1d1d1b;stroke-miterlimit:10;stroke-width:2px;}</style></defs><path class="cls-1" d="m653.2,994.47s22.47-8.85,31.83-26.64c9.36-17.79,10.9-26.22,19.03-23.41,8.13,2.81,16.55,13.11,7.19,27.15-9.36,14.04-41.36,47.75-73.58,49.62-32.22,1.87-137.09,10.3-155.82,0-18.73-10.3-47.75-30.9-70.22-73.03-22.47-42.13-65.54-66.48-88.95-76.78s-139.38-62.58-167.6-69.29c-28.22-6.7-78.68-2.11-98.31,12.17s-23.18,46.72-35.47,52.86c-12.29,6.13-20.71,0-20.71,0"/></svg>