<?xml version="1.0" encoding="UTF-8"?><svg id="Calque_1" xmlns="http://www.w3.org/2000/svg" viewBox="0 0 955.76 1098.76"><defs><style>.cls-1{fill:none;stroke:#1d1d1b;stroke-miterlimit:10;stroke-width:2px;}</style></defs><path class="cls-1" d="m652.59,679.86s27.94,99.22,44.56,121.97c16.62,22.75,74.37,84.87,87.49,109.37,13.12,24.5-.87,67.37-6.43,92.6-5.55,25.23-43.44,57.01-96.81,83.04-53.37,26.03-227.49-1.53-257.23-10.27-29.75-8.74-75.25-63.88-84.87-87.5-9.62-23.62-12.25-81.37-22.75-93.62-10.5-12.25-83.99-44.62-154.59-73.01-70.6-28.39-110.52,17.89-116.64,30.6-6.12,12.71-17.5,25.78-33.1,25.17-15.6-.61-10.36-11.09-10.36-11.09"/></svg>