<?xml version="1.0" encoding="UTF-8"?><svg id="Calque_1" xmlns="http://www.w3.org/2000/svg" viewBox="0 0 856.74 1092.23"><defs><style>.cls-1{fill:none;stroke:#1d1d1b;stroke-miterlimit:10;stroke-width:2px;}</style></defs><path class="cls-1" d="m553.57,679.86s2.13,49.27,7.29,77.84c5.16,28.56,40.82,74.42,79.97,109.43,39.15,35.01,42.14,72.02,42.14,84.05s-.38,50.33-22.36,75.04c-21.98,24.71-89.94,57.39-105.16,57.39s-47.49,14.74-125.29,3.23c-77.81-11.51-65.7-14.51-94.25-28.17-28.55-13.67-58.52-37.35-75.68-69.65-17.16-32.3-23.31-73.13-33.42-89.43-10.11-16.3-96.76-49.39-112.24-50.92-15.48-1.53-26.92.19-14.75,9.65,12.17,9.46,53.16,26.66,69.21,66.21,16.05,39.56,12.32,79.97,0,93.73-12.32,13.76-14.96,17.41-41.56,17.2-26.6-.21-78.23-2.65-127.26,7.7"/></svg>