<?xml version="1.0" encoding="UTF-8"?><svg id="Calque_1" xmlns="http://www.w3.org/2000/svg" viewBox="0 0 889.63 1044.09"><defs><style>.cls-1{fill:none;stroke:#1d1d1b;stroke-miterlimit:10;stroke-width:2px;}</style></defs><path class="cls-1" d="m373.92,595.59c-8.29,20.19-12.04,23.81-44.5,36.79-32.46,12.98-103.71,12.67-127.51,12.67s-26.08,24.94-38.53,48.16c-12.45,23.22-33.98,39.56-50.49,50.76-16.51,11.2-45.12,10.29-64.41,2.17-19.29-8.13-18.83,8.13-27.43,23.61-8.6,15.48-24.4,22.66-18.92,47.3,5.48,24.64,24.94,28.38,42.14,45.41,17.2,17.03,53.31,68.1,78.26,92.7,24.95,24.6,4.29,36.46-14.63,51.62-18.92,15.17-74.8,36.39-74.8,36.39"/></svg>