<?xml version="1.0" encoding="UTF-8"?><svg id="Calque_1" xmlns="http://www.w3.org/2000/svg" viewBox="0 0 922.51 1053.38"><defs><style>.cls-1{fill:none;stroke:#1d1d1b;stroke-miterlimit:10;stroke-width:2px;}</style></defs><path class="cls-1" d="m619.34,679.87c-20.71,16.47-38.39,73.97-17.79,120.78,20.61,46.82,65.56,87.92,97.38,122.66,31.84,34.74,1.87,67.41-35.57,95.51-37.46,28.08-175.37,47.75-235.02,20.59-59.65-27.15-82.39-88.95-94.57-126.41-12.18-37.44-14.05-92.69-29.03-123.59-14.98-30.9-120.79-57.11-181.64-70.23-60.87-13.11-105.81-84.26-115.17-102.06-9.36-17.79-11.23-29.95,7.21-53.36,18.13-23.02,104.96-46.02,107.89-46.8.04-.01.07-.01.07-.01"/></svg>