<?xml version="1.0" encoding="UTF-8"?><svg id="Calque_1" xmlns="http://www.w3.org/2000/svg" viewBox="0 0 1264.42 867.42"><defs><style>.cls-1{fill:none;stroke:#1d1d1b;stroke-miterlimit:10;stroke-width:2px;}</style></defs><path class="cls-1" d="m568.94,289.42s18.73,8.94,24.34,27.67c5.62,18.73-24.34,42.04-51.5,50.98-27.15,8.94-30.9,22.05-88.01,15.5-57.12-6.55-159.97-43.68-191.95-41.85-31.97,1.83-90.74,40.91-111.85,60.57-21.11,19.66-111,132.96-124.11,159.17-13.11,26.22-21.54,79.98-24.34,106-.39,3.65-.55,7.69-.52,11.93,0,0,1.73,39.75,24.1,51.19s51.71,12.68,107.67,20.7c66.62,9.55,139.01,18.02,156.21,28.27,33.87,20.19,30.81,24.64,31.83,37.53,1.02,12.89-10.3,50.05-10.3,50.05"/></svg>