<?xml version="1.0" encoding="UTF-8"?><svg id="Calque_1" xmlns="http://www.w3.org/2000/svg" viewBox="0 0 954.27 1035.28"><defs><style>.cls-1{fill:none;stroke:#1d1d1b;stroke-miterlimit:10;stroke-width:2px;}</style></defs><path class="cls-1" d="m.36,867.13c28.61-10.91,27.15-34.78,52.43-56.6,25.28-21.82,44.84-12.36,78.65-15.5s75.84,25.8,128.82,42.65c52.98,16.85,110.87,47.75,128.18,85.63,17.3,37.87,51.33,88.89,77.27,102.57,25.94,13.68,136.7,8.43,175.09,0s66.65-28.8,76.99-54.31c10.34-25.51-3.02-29.03-22.68-52.43-19.66-23.41-89.89-101.12-93.63-180.2-3.75-79.08,40.26-97.89,62.46-122.23,22.2-24.34,49.9-58.05,53.86-90.82,3.96-32.77-14.26-82.4-53.86-131.08-39.6-48.69-108.34-80.52-133.62-89.89-25.28-9.36-200.37-11.24-232.21-9.03-31.83,2.21-39.33-6.47-39.33-6.47"/></svg>