<?xml version="1.0" encoding="UTF-8"?><svg id="Calque_1" xmlns="http://www.w3.org/2000/svg" viewBox="0 0 1211.43 995.5"><defs><style>.cls-1{fill:none;stroke:#1d1d1b;stroke-miterlimit:10;stroke-width:2px;}</style></defs><path class="cls-1" d="m910.13,994.47c-27.15,1.36-113.29-35.07-127.34-65.03-14.04-29.96-8.43-132.02-10.3-166.67-1.87-34.64-27.15-77.71-44.01-106.32-16.85-28.6-52.43-44.43-82.89-45.7-30.45-1.27-137.15,1.27-156.81,20.93-19.66,19.66-35.58,47.75-48.69,65.46-13.11,17.71-77.71,36.6-102.06,41.79-24.34,5.19-66.27,52.64-76.84,75.33,0,0-26.15,58.99-47.98,88.01-21.82,29.03-64.32,38.39-83.98,29.03-19.66-9.36-73.03-3.75-95.5,3.75-22.47,7.49-32.77,44.43-32.77,44.43"/></svg>