<?xml version="1.0" encoding="UTF-8"?><svg id="Calque_1" xmlns="http://www.w3.org/2000/svg" viewBox="0 0 851.89 976.35"><defs><style>.cls-1{fill:none;stroke:#1d1d1b;stroke-miterlimit:10;stroke-width:2px;}</style></defs><path class="cls-1" d="m156.4,289.42s7.49,9.88,82.4,11.75c74.91,1.87,186.57-.31,216.22,15.43,29.66,15.73,128.09,92.14,142.39,158.73,14.3,66.59-12.42,99.74-31.83,120.27-19.42,20.53-61.8,50.98-68.35,78.18s-16.85,72.93-4.68,105.77c12.17,32.85,29.03,58.03,45.88,82.89,16.85,24.86,26.6,31.32,23.13,60.86-3.47,29.54,3.08,51.08-12.83,52.01-15.92.94-50.56-17.79-62.73-32.77-12.17-14.98-27.29-41.29-30.97-80.1-3.68-38.81,1.94-137.8-11.64-175.38-13.58-37.58-60.55-80.46-107.21-91.47"/></svg>