<?xml version="1.0" encoding="UTF-8"?><svg id="Calque_1" xmlns="http://www.w3.org/2000/svg" viewBox="0 0 957.75 1007.76"><defs><style>.cls-1{fill:none;stroke:#1d1d1b;stroke-miterlimit:10;stroke-width:2px;}</style></defs><path class="cls-1" d="m3.84,867.13s-5.79,6.45-.85,19.57c4.94,13.12,46.06-3.28,53.94-19.57,7.87-16.3,45.12-54.68,112.87-34.29,67.75,20.39,231.86,55.62,254.61,82.74,22.75,27.12,53.21,63.55,85.16,78.89,31.96,15.34,99.15,13.57,115.05,9.34,15.9-4.23,30.9-31.84,29.96-48.66-.94-16.82,1.69-42.19-15.81-66.69-17.5-24.5-63.87-86.56-64.75-108.9-.87-22.34-6.12-81.59,5.25-105.77,11.37-24.19,34.26-40.65,42-63.29,7.74-22.65-14-47.97-20.12-91.05s-7.87-68.12,1.75-85.08c9.62-16.95,21.72-27.9,21.72-27.9"/></svg>