<?xml version="1.0" encoding="UTF-8"?><svg id="Calque_1" xmlns="http://www.w3.org/2000/svg" viewBox="0 0 856.56 1055.61"><defs><style>.cls-1{fill:none;stroke:#1d1d1b;stroke-miterlimit:10;stroke-width:2px;}</style></defs><path class="cls-1" d="m.03,1043.15s113.53,2.94,130.28,9.23c16.75,6.29,45.99-1.45,55.45-14.35,9.46-12.9,17.2-45.58,10.32-76.53-6.88-30.96-.29-48.16-27.23-67.07-26.94-18.92-56.14-35.59-38.53-31.98,17.61,3.61,144.21,18.22,166.04,28.54,21.83,10.32,39.03,23.22,53.65,41.28,14.62,18.06,42.99,49.98,85.99,62.2,43,12.22,75.61,8.04,87.44,0,11.83-8.04,22.63-21.79,20.05-45.86-2.58-24.08,6.02-28.38-12.04-53.31-18.06-24.94-60.19-74.11-65.35-115.74-5.16-41.63-9.46-91.4,0-112.09,9.46-20.69,30.1-32.73,39.56-49.07,9.46-16.34,6.02-32.7-2.58-64.94-8.6-32.23-23.9-73.7-18.92-91.43,4.99-17.73,15.79-45.66,39.28-55.58"/></svg>