<?xml version="1.0" encoding="UTF-8"?><svg id="Calque_1" xmlns="http://www.w3.org/2000/svg" viewBox="0 0 1155 605.28"><defs><style>.cls-1{fill:none;stroke:#1d1d1b;stroke-miterlimit:10;stroke-width:2px;}</style></defs><path class="cls-1" d="m.71,368.07c39.26,39.9,99.8,11,126.4,10.09,26.6-.91,152.46,30,186.73,41.81,34.27,11.82,52.99,33.63,74.05,49.08,21.06,15.45,50.04-10.8,63.85-21.81,13.81-11.01,50.45-6.85,47.8,6.36-2.65,13.21-27.27,27.27-38.55,43.63-11.28,16.36-13.95,32.05,21.28,42.72,7.61.61,11.98.62,11.98.62,0,0,108,4.83,128.91,16.65,20.91,11.82,16.12,38.37,16.12,38.37"/></svg>