<?xml version="1.0" encoding="UTF-8"?><svg id="Calque_1" xmlns="http://www.w3.org/2000/svg" viewBox="0 0 1210.62 1054.29"><defs><style>.cls-1{fill:none;stroke:#1d1d1b;stroke-miterlimit:10;stroke-width:2px;}</style></defs><path class="cls-1" d="m.15,979.48s62.73-9.78,88.01-6.98c25.28,2.81,55.08,11.14,72.95,6.98,17.87-4.17,33.79-27.57,45.96-31.32,12.17-3.75,55.47,29.96,70.34,42.13,14.87,12.17,52.32,56.75,71.05,62.08,18.73,5.33,45.88-14.33,68.35-19.95,22.47-5.62,53.37-5.62,69.29-15.92,15.92-10.3,21.54-31.83,16.85-52.43-4.68-20.6-28.09-54.31-45.88-71.16-17.79-16.85-73.17-62.73-87.61-84.27-14.45-21.54-32.24-41.2-9.76-37.45,22.47,3.75,80.52,18.63,106.74,23.83,26.22,5.2,135.77,67.42,135.77,67.42"/></svg>