<?xml version="1.0" encoding="UTF-8"?><svg id="Calque_1" xmlns="http://www.w3.org/2000/svg" viewBox="0 0 1173.39 605.28"><defs><style>.cls-1{fill:none;stroke:#1d1d1b;stroke-miterlimit:10;stroke-width:2px;}</style></defs><path class="cls-1" d="m477.9,289.42s8.59,8.94,1.48,30.48c-7.1,21.54-56.73,41.2-85.75,40.26-29.03-.94-123.36-4.68-153.44-12.17-30.08-7.49-83.45-38.39-100.3-29.96-16.85,8.43-100.2,73.97-120.79,103-20.59,29.03-24.34,31.83-7.48,26.22,16.85-5.62,126.4-37.45,149.81-32.77,23.41,4.68,173.22,44.94,191.01,58.05,17.79,13.11,34.16,28.52,49.62,32.77,15.47,4.25,30.9-44.01,37.45-60.86,6.55-16.85,63.48-81.81,83.24-91s61.89-36.34,108.71-35.41c46.82.94,134.83,9.01,165.73,35.41,30.9,26.39,43.07,53.03,43.07,53.03"/></svg>