<?xml version="1.0" encoding="UTF-8"?><svg id="Calque_1" xmlns="http://www.w3.org/2000/svg" viewBox="0 0 1239.1 863.26"><defs><style>.cls-1{fill:none;stroke:#1d1d1b;stroke-miterlimit:10;stroke-width:2px;}</style></defs><path class="cls-1" d="m723.39,595.59s-27.22,18.68-50.11,22.99c-22.89,4.31-99.7,3.75-128.18,9.32s-33.32,26.26-46.43,45.88c-13.11,19.62-35.58,45.93-61.52,55.29-25.94,9.36-63.01.94-75.18-6.55-12.17-7.49-29.03-36.52-51.5-57-22.47-20.48-201.31-84.39-225.65-92.82-24.34-8.43-46.82,4.68-64.61,22.89-5.98,6.12-12.16,24.29-17.74,45.72,0,0-5.9,29.46,5.95,43.61s42.79,26.11,65,28.11,26.43.75,26.43.75c34.11.24,71.12,2.67,89.75,6.97,28.45,6.58,142.15,40.51,173.13,42.75,30.98,2.23,131.05-1.36,165.9,25.13s102.06,73.81,102.06,73.81"/></svg>