<?xml version="1.0" encoding="UTF-8"?><svg id="Calque_1" xmlns="http://www.w3.org/2000/svg" viewBox="0 0 1313.89 1028.88"><defs><style>.cls-1{fill:none;stroke:#1d1d1b;stroke-miterlimit:10;stroke-width:2px;}</style></defs><path class="cls-1" d="m705.48,862.44s-19.49,38-42.23,35.42c-22.74-2.58-77.72-55.2-125.3-56.75-47.58-1.56-90.93,1.5-102.11,11.93-11.18,10.43,11.01-.75,36.89,27.63,25.88,28.38,68.02,67.07,70.6,85.13,2.58,18.06-9.57,32.05-28.86,40.96-19.29,8.91-33.89,26.6-57.12,19.46-23.23-7.14-62.24-71.43-75.84-86.13-13.6-14.7-84.97-63.28-109.05-72.96-24.08-9.68-67.1-23.43-104.06-23.43s-92.73,3.08-110.85-13.94c-18.12-17.02-48.22-35.08-53.38-59.15-5.16-24.08-11.33-149.96,46.3-263.99,29.38-58.47,43.99-48.16,80.97-92.01,36.98-43.86,28.17-46.53,28.17-46.53"/></svg>