<?xml version="1.0" encoding="UTF-8"?><svg id="Calque_5" xmlns="http://www.w3.org/2000/svg" viewBox="0 0 1338.44 1121.39"><defs><style>.cls-1{fill:#1d1d1b;}</style></defs><path class="cls-1" d="m362.02,965.33c-2.04-.79-49.94-19.35-57.13-28.08-1.78-2.16-3.52-4.09-5.2-5.96-5.08-5.64-9.47-10.51-11.82-18.33-3.13-10.43-9.26-42.72-8.22-75.93,1-32,14.04-96.13,20.02-114.08s25.79-61.76,37.11-69.99c2.45-1.78,6.8-5.1,12.3-9.3,20.2-15.42,54.02-41.23,65.5-45.87,11.54-4.67,50.27-19.51,64.03-14.62,3.86,1.37,7.65,3.2,11.66,5.14,9.66,4.67,20.6,9.95,37.95,11.75l.43.04c23.86,2.47,73.5,7.61,86.14,3.57,12.57-4.02,29.07-17.1,29.23-17.23l.68.86c-.17.13-16.82,13.33-29.58,17.42-12.85,4.11-60.82-.85-86.59-3.52l-.43-.04c-17.54-1.82-28.57-7.15-38.31-11.85-3.98-1.92-7.74-3.74-11.55-5.09-5.51-1.96-15.9-.82-30.89,3.38-13.03,3.65-25.87,8.6-32.37,11.23-11.35,4.59-45.09,30.34-65.25,45.72-5.51,4.21-9.87,7.53-12.32,9.32-11.14,8.1-30.97,52.21-36.71,69.45-5.96,17.89-18.97,81.85-19.97,113.77-1.02,32.75,5.19,65.61,8.18,75.58,2.27,7.58,6.59,12.37,11.58,17.91,1.69,1.88,3.44,3.82,5.23,5.99,7,8.51,56.18,27.56,56.68,27.75l-.39,1.02Z"/></svg>