<?xml version="1.0" encoding="UTF-8"?><svg id="Calque_5" xmlns="http://www.w3.org/2000/svg" viewBox="0 0 1338.44 1121.39"><defs><style>.cls-1{fill:#1d1d1b;}</style></defs><path class="cls-1" d="m692.4,900.76l-1.1-.03c0-.27.65-27.18-8.31-36.52-8.88-9.25-49.54-24.61-69.81-30.61-5.08-1.5-10.14-2.13-15.49-2.8-14.72-1.83-29.94-3.72-46.92-24.25-7.8-9.43-14.59-16.72-20.05-22.59-10.87-11.67-16.85-18.1-16.8-25.97.11-14.32,61.06-33.11,61.68-33.29,4.59-1.4,10.18-2.74,16.1-4.15,16.25-3.89,34.68-8.29,43.9-16.45,5.31-4.7,9.53-9.89,14.41-15.89,6.73-8.28,14.35-17.66,27.1-28.37,19.13-16.08,35.82-24.79,52.53-27.43,15.45-2.44,58.21,9.78,66.62,12.26,15.76,4.64,46.02,5.87,46.33,5.88l-.04,1.09c-.31-.01-30.7-1.25-46.59-5.92-8.37-2.46-50.92-14.63-66.14-12.23-16.5,2.61-33.03,11.24-51.99,27.19-12.66,10.64-20.25,19.98-26.95,28.23-4.91,6.04-9.15,11.26-14.53,16.02-9.43,8.34-27.99,12.78-44.37,16.69-5.9,1.41-11.48,2.74-16.04,4.14-9.12,2.79-24.26,8.11-36.9,13.96-15.67,7.24-23.97,13.57-24,18.3-.06,7.43,5.83,13.75,16.5,25.22,5.47,5.87,12.27,13.18,20.09,22.63,16.71,20.2,31.71,22.06,46.21,23.86,5.4.67,10.5,1.3,15.67,2.83,19.17,5.68,60.84,21.06,70.29,30.9,3.91,4.07,6.55,11.6,7.84,22.37.95,7.97.78,14.86.77,14.93Z"/></svg>