<?xml version="1.0" encoding="UTF-8"?><svg id="Calque_5" xmlns="http://www.w3.org/2000/svg" viewBox="0 0 1338.44 1121.39"><defs><style>.cls-1{fill:#1d1d1b;}</style></defs><path class="cls-1" d="m798.1,1005.32c-16.93,0-32.78-2.11-43.93-7.19-34.58-15.74-46.84-53.44-52.07-69.54-2.92-8.98-4.78-19.94-6.58-30.54-2.31-13.56-4.69-27.59-9.28-37.06-5.95-12.27-40.21-25.46-99.07-38.15-14.33-3.09-28.6-12.22-42.39-27.14-10.57-11.44-18.2-23.62-21.04-29.02-5.39-10.25-6.1-16.99,4-29.81,9.67-12.28,54.25-24.45,59.3-25.8l.23-.04v1.1-.55l.14.53-.09.02c-5.02,1.34-49.28,13.42-58.73,25.42-9.72,12.34-9.06,18.8-3.89,28.62,2.81,5.35,10.38,17.43,20.87,28.78,13.64,14.75,27.71,23.77,41.82,26.81,23.64,5.1,43.56,10.34,59.2,15.59,23.3,7.82,36.97,15.61,40.63,23.16,4.66,9.61,7.06,23.71,9.37,37.35,1.79,10.56,3.65,21.48,6.55,30.38,5.19,15.96,17.34,53.34,51.48,68.88,14.74,6.71,39.75,8.77,68.61,5.66,26.26-2.83,49.62-9.46,59.51-16.87,22.56-16.93,25.95-27.21,26.53-33.47.57-6.17-1.83-12.23-7.13-18.01-3.33-3.64-6.88-7.35-10.64-11.29-15.76-16.5-33.61-35.2-42.78-56.02-5.12-11.63-6.41-25.7-3.65-39.62,2.39-12,7.58-22.41,13.55-27.16l.68.86c-11.45,9.11-20.52,40.62-9.58,65.48,9.09,20.64,26.87,39.27,42.57,55.7,3.76,3.94,7.32,7.66,10.65,11.31,5.52,6.02,8.01,12.37,7.41,18.86-1.24,13.35-15.06,25.31-26.96,34.24-13.48,10.11-51.53,18.52-85.3,18.52Z"/></svg>