<?xml version="1.0" encoding="UTF-8"?><svg id="Calque_5" xmlns="http://www.w3.org/2000/svg" viewBox="0 0 1338.44 1121.39"><defs><style>.cls-1{fill:#1d1d1b;}</style></defs><path class="cls-1" d="m800.68,1000.08c-9.48,0-18.85-.59-27.08-2.15-13.94-2.63-27.75-10.64-39.92-23.16-10.66-10.96-19.37-24.89-23.9-38.2-8.56-25.19-18.23-35.35-18.33-35.45l.79-.76c.1.1,9.93,10.41,18.58,35.86,4.48,13.17,13.1,26.94,23.65,37.79,8.38,8.62,22,19.57,39.34,22.85,29.47,5.56,75.29-1.53,85.05-3.59,10.06-2.12,38.06-19.58,42.86-38.05,3.09-11.9-1.44-15.29-8.31-20.43-3.71-2.78-7.92-5.93-11.71-11.1-3.09-4.21-6.97-8.79-11.08-13.64-10.33-12.18-22.03-25.98-28.56-42.14-9.32-23.08-3.08-56.29,1.52-70.63,2.27-7.08,14.18-17.49,26.79-28.52,13.27-11.6,26.99-23.6,29.59-31.94,4.88-15.61-1-35.75-12.8-65.25-5.11-12.77-15.61-26.9-30.37-40.85-12.51-11.83-27.68-23.17-42.71-31.93-14.2-8.28-59.61-10.9-95.21-11.63-38.63-.8-74.34.39-74.69.4l-.04-1.09c5.83-.2,142.99-4.66,170.49,11.38,15.1,8.81,30.33,20.2,42.91,32.08,14.87,14.06,25.47,28.32,30.63,41.24,4.98,12.44,9.94,25.57,12.59,37.31,2.63,11.69,2.71,20.8.24,28.67-2.7,8.64-16.54,20.74-29.92,32.44-12.49,10.92-24.29,21.24-26.47,28.03-9.67,30.14-6.23,58.31-1.55,69.89,6.46,16,18.1,29.73,28.37,41.85,4.12,4.86,8.02,9.46,11.13,13.7,3.7,5.05,7.83,8.14,11.49,10.87,6.7,5.01,12,8.98,8.72,21.59-4.91,18.86-33.45,36.69-43.7,38.85-7.57,1.59-33.37,5.74-58.4,5.74Z"/></svg>