<?xml version="1.0" encoding="UTF-8"?><svg id="Calque_5" xmlns="http://www.w3.org/2000/svg" viewBox="0 0 1338.44 1121.39"><defs><style>.cls-1{fill:#1d1d1b;}</style></defs><path class="cls-1" d="m556.15,1000.21l-.3-1.05c.59-.17,59.36-16.87,63.17-35.71.84-4.17-1.16-8.22-5.95-12.04-10.6-8.45-20.1-20.47-30.16-33.2-19.31-24.44-41.19-52.13-80.45-69.77-18.26-8.2-42.59-13.53-74.39-16.28l-1.72-.15c-8.08-.69-24.89-2.13-48.65-5.1-25.78-3.22-32.52-13.75-35.4-18.25l-.03-.05c-2.81-4.39-1.35-17.27-1.29-17.82,3.48-25.02,7.71-42.61,12.55-52.29,5.7-11.4,23.55-26.72,47.76-40.98,23.07-13.59,45.76-22.38,57.82-22.38,25.43,0,127.31,35.56,128.34,35.92l-.36,1.03c-1.02-.36-102.73-35.85-127.98-35.85-11.88,0-34.36,8.72-57.27,22.22-23.67,13.95-41.81,29.48-47.34,40.53-4.79,9.58-8.98,27.06-12.44,51.94-.01.12-1.48,13.03,1.12,17.09l.03.05c2.79,4.37,9.34,14.59,34.61,17.75,23.74,2.96,40.54,4.4,48.61,5.1l1.72.15c31.93,2.77,56.38,8.12,74.75,16.37,39.51,17.74,61.48,45.55,80.86,70.09,10.02,12.68,19.48,24.66,29.98,33.02,5.14,4.09,7.27,8.5,6.34,13.11-3.94,19.49-61.5,35.86-63.95,36.55Z"/></svg>