<?xml version="1.0" encoding="UTF-8"?><svg id="Calque_5" xmlns="http://www.w3.org/2000/svg" viewBox="0 0 1338.44 1121.39"><defs><style>.cls-1{fill:#1d1d1b;}</style></defs><path class="cls-1" d="m742.07,754.78c-.04-.15-4.23-15.19-23.89-17.12-7.24-.71-20.3-.93-34.13-1.17-26.25-.44-53.39-.9-57.1-4.53-5.24-5.11,7.01-23.78,20.01-42.46l1.02-1.47c9.34-13.45,49.5-43.44,62.28-46.5,1.36-.33,2.73-.68,4.1-1.03,11.09-2.86,23.65-6.09,45.96,1.04,24.65,7.89,74.76,11.42,82.08,9.03l.34,1.04c-7.41,2.43-57.96-1.09-82.75-9.02-22-7.04-34.41-3.85-45.35-1.03-1.39.36-2.75.71-4.12,1.04-12.3,2.95-52.62,33.09-61.63,46.06l-1.02,1.47c-8.79,12.64-25.15,36.16-20.14,41.05,3.4,3.32,32.76,3.82,56.36,4.22,13.86.23,26.94.46,34.22,1.17,20.44,2,24.8,17.77,24.84,17.93l-1.06.28Z"/></svg>