<?xml version="1.0" encoding="UTF-8"?><svg id="Calque_5" xmlns="http://www.w3.org/2000/svg" viewBox="0 0 1338.44 1121.39"><defs><style>.cls-1{fill:#1d1d1b;}</style></defs><path class="cls-1" d="m355.72,943.8c-2.68,0-5.34-.71-8.1-2.14-.57-.3-1.25-.64-2.01-1.02-11.76-5.91-43-21.59-54.18-57.64-3.16-10.18-7.65-34.66-2.27-84.25,3.56-32.76,10.54-65.71,18.21-86.01,14.64-38.72,25.7-55.49,43.8-66.46,18.09-10.97,32.55-16.76,41.81-16.76v1.1c-9.06,0-23.32,5.74-41.24,16.61-17.86,10.83-28.8,27.46-43.35,65.91-14.87,39.31-27.92,130.9-15.92,169.55,11.05,35.6,41.98,51.13,53.63,56.98.77.38,1.44.73,2.02,1.02,8.68,4.49,15.32,1.3,26.07-7.06,6.25-4.86,31.08-4.41,52.98-4.01,14.3.26,27.8.5,32.29-.92,10.88-3.46,39.27-49.49,42.72-58.12.46-1.14.48-2.09.07-2.9-1.33-2.62-7.02-4.1-15.64-6.33-5.23-1.36-11.73-3.04-18.95-5.46-15.92-5.33-72.6-13.98-104.98-18.65-.55-.09-13.23-2.11-15.99-3.02l-.4-.13c-2.66-.87-5.18-1.7-8.7-6.45-3.68-4.97-8.73-32.1-8.81-39.65-.18-16.76,4.13-36.87,10.99-51.22,9.59-20.1,51.6-68.85,61.1-76.57,10.29-8.36,41.68-19.58,56.23-18.58,13.85.96,96.99,16.1,114.29,26.74,8.69,5.34,13.66,10.33,17.65,14.34,3.76,3.77,6.72,6.75,11.3,8.69,4.63,1.96,12.73,1.14,21.67-2.19,9.73-3.62,18.97-9.53,26.02-16.66l.48-.48c15.43-15.58,34.63-34.98,58.55-42.48,24.05-7.54,45.78-7.55,72.66,0,26.31,7.38,62.67,20.9,63.03,21.03l-.38,1.03c-.36-.14-36.68-13.64-62.95-21-26.66-7.48-48.2-7.48-72.04,0-23.66,7.42-42.75,26.71-58.1,42.21l-.48.48c-12.76,12.89-30.77,20.21-42.27,20.21-2.58,0-4.84-.37-6.63-1.13-4.78-2.02-7.81-5.07-11.65-8.92-3.95-3.97-8.87-8.91-17.45-14.18-16.02-9.84-97.88-25.48-113.79-26.58-14.35-.98-45.31,10.08-55.46,18.33-9.46,7.68-51.26,56.2-60.81,76.19-6.79,14.22-11.06,34.14-10.88,50.74.08,7.25,5.1,34.29,8.59,39.01,3.32,4.47,5.56,5.21,8.16,6.06l.4.13c2.67.89,15.68,2.96,15.81,2.98,32.4,4.68,89.16,13.34,105.16,18.7,7.19,2.41,13.67,4.09,18.88,5.44,8.91,2.31,14.79,3.84,16.34,6.9.56,1.11.55,2.35-.03,3.8-2.84,7.1-31.83,55.08-43.4,58.76-4.66,1.48-17.63,1.25-32.64.97-20.65-.37-46.34-.84-52.29,3.78-4.49,3.49-9.27,6.92-13.88,8.42-1.79.58-3.54.88-5.27.88Z"/></svg>