<?xml version="1.0" encoding="UTF-8"?><svg id="Calque_5" xmlns="http://www.w3.org/2000/svg" viewBox="0 0 1338.44 1121.39"><defs><style>.cls-1{fill:#1d1d1b;}</style></defs><path class="cls-1" d="m796.15,995.37c-13.46,0-31.58-.79-38.93-4.67-13.83-7.3-32.5-34.42-42.55-56.42-9.6-21.02-42.38-37.85-69.85-46.59-10.81-3.44-21.01-7.89-30-11.81-15.47-6.75-28.83-12.58-40.32-11.51-5.41.5-10.23.42-14.49.34-10.4-.18-18.61-.33-28.27,8.01-5.8,5.01-8.94,10.11-11.97,15.05-4.13,6.72-7.7,12.53-16.9,16.04l-.39-1.02c8.85-3.37,12.33-9.03,16.35-15.59,2.93-4.77,6.26-10.18,12.19-15.3,9.98-8.61,18.37-8.47,29-8.28,4.23.07,9.02.16,14.37-.34,11.77-1.09,25.25,4.79,40.86,11.6,9.41,4.11,19.13,8.35,29.89,11.77,27.69,8.81,60.76,25.83,70.51,47.17,9.97,21.83,28.43,48.71,42.06,55.9,13.94,7.35,74.27,4.61,95.49-.05,20.51-4.5,36.12-15.49,41.76-29.4,4.27-10.53,1.13-13.79-5.74-20.93-1.96-2.04-4.19-4.35-6.59-7.22-.65-.77-1.4-1.65-2.23-2.63-12.92-15.17-47.22-55.48-49.16-96.35-1.66-35.13,13.79-48.73,26.21-59.65,2.97-2.62,5.79-5.09,8.13-7.66,12.55-13.76,27.22-31.81,29.35-49.42,2.29-18.93-8.97-46.28-29.37-71.36-20.25-24.9-55.36-42.54-72.92-49.05-14.04-5.2-110.03-6.08-126.91-4.91-17.5,1.21-21.81-3.53-21.98-3.73l.83-.72s4.26,4.52,21.08,3.35c16.92-1.17,113.22-.26,127.36,4.98,17.66,6.54,52.99,24.3,73.39,49.38,20.58,25.31,31.93,52.96,29.61,72.18-2.16,17.92-16.97,36.15-29.63,50.03-2.39,2.62-5.22,5.11-8.22,7.75-12.24,10.77-27.48,24.18-25.84,58.78,1.92,40.5,36.05,80.6,48.9,95.7.84.98,1.59,1.86,2.24,2.64,2.38,2.84,4.59,5.13,6.54,7.16,6.77,7.04,10.5,10.92,5.96,22.1-5.78,14.24-21.68,25.48-42.54,30.06-10.77,2.36-31.1,4.19-50.6,4.55-2.03.04-4.29.06-6.71.06Z"/></svg>