<?xml version="1.0" encoding="UTF-8"?><svg id="Calque_5" xmlns="http://www.w3.org/2000/svg" viewBox="0 0 1338.44 1121.39"><defs><style>.cls-1{fill:#1d1d1b;}</style></defs><path class="cls-1" d="m361.92,965.28c-.36-.24-36.6-23.73-53.34-35.9-15.92-11.58-18.32-23.79-21.95-42.28-.27-1.35-.54-2.74-.82-4.15-4.29-21.41-1.43-83.23,3.59-103.07,4.68-18.47,17.19-38.79,33.47-54.35,11.83-11.3,64.11-3.34,92.19.93,6.58,1,11.78,1.79,14.34,1.99,8.06.63,20.92-4.22,34.54-9.35,8-3.02,16.28-6.13,23.56-8.07,19.19-5.09,96.5-.23,99.79-.02l-.07,1.09c-.8-.05-80.42-5.06-99.44-.02-7.23,1.92-15.48,5.03-23.46,8.03-13.74,5.18-26.71,10.06-35.01,9.41-2.6-.2-7.82-1-14.42-2-25.91-3.94-79.84-12.15-91.27-1.22-16.14,15.42-28.54,35.54-33.17,53.82-4.88,19.27-7.76,81.76-3.58,102.59.28,1.42.56,2.81.82,4.16,3.58,18.23,5.95,30.28,21.52,41.6,16.71,12.15,52.93,35.63,53.29,35.87l-.6.92Z"/></svg>