<?xml version="1.0" encoding="UTF-8"?><svg id="Calque_5" xmlns="http://www.w3.org/2000/svg" viewBox="0 0 1338.44 1121.39"><defs><style>.cls-1{fill:#1d1d1b;}</style></defs><path class="cls-1" d="m743.14,754.73l-1.08-.19c.03-.14,2.41-14.24-8.56-20.44-11.2-6.33-69.74-9.02-70.33-9.04,0,0-2.44,0-6.58-.34l-.11-.02c-8.98-2.72-14.1-6.2-15.66-10.65-1.3-3.71-.12-8.02,3.72-13.58,2.69-3.91,6.7-7.53,10.58-11.02,4.96-4.48,9.65-8.72,10.44-12.66.3-1.51-.47-2.84-2.29-3.95-5.26-3.21-17.6-3.31-23,1-.57.46-1.2.97-1.86,1.51-7.96,6.47-22.76,18.52-33.76,10.45-3.07-2.26-6.01-4.72-9.12-7.32-8.65-7.25-17.59-14.75-31.28-19.47-19.12-6.59-87.58-23.36-102.04-22.86-3.48.12-8.04,1.13-13.33,2.29-16.79,3.71-39.79,8.79-56.29-7.98l.78-.77c16.08,16.34,38.73,11.33,55.27,7.68,5.34-1.18,9.95-2.2,13.53-2.32,14.52-.5,83.26,16.31,102.43,22.92,13.88,4.79,23.31,12.69,31.63,19.67,3.09,2.6,6.02,5.05,9.06,7.28,10.31,7.56,24.69-4.13,32.42-10.42.67-.54,1.29-1.05,1.87-1.51,5.81-4.63,18.59-4.54,24.25-1.08,2.23,1.36,3.19,3.12,2.8,5.1-.86,4.3-5.68,8.65-10.78,13.26-3.83,3.46-7.79,7.03-10.41,10.83-3.62,5.24-4.75,9.25-3.58,12.59,1.43,4.08,6.3,7.33,14.89,9.94,4.05.33,6.43.34,6.46.34,2.44.11,59.42,2.72,70.85,9.18,11.65,6.58,9.12,21.43,9.1,21.58Z"/></svg>