<?xml version="1.0" encoding="UTF-8"?><svg id="Calque_5" xmlns="http://www.w3.org/2000/svg" viewBox="0 0 1338.44 1121.39"><defs><style>.cls-1{fill:#1d1d1b;}</style></defs><path class="cls-1" d="m859.29,801.22l-.63-.9c.1-.07,10.48-7.42,21.73-18.66,10.35-10.35,23.58-26.23,27.78-43.05,4.13-16.5-.21-42.62-11.31-68.15-12.69-29.18-32.08-53.56-54.59-68.65-25.57-17.13-78.03-20.11-117.53-19.58-42.86.57-80.12,5.27-80.49,5.31l-.14-1.09c.37-.05,37.69-4.75,80.61-5.32,39.66-.53,92.35,2.47,118.16,19.77,22.68,15.2,42.21,39.75,54.99,69.12,11.2,25.74,15.55,52.13,11.37,68.85-2.36,9.42-9.14,24.63-28.08,43.57-11.31,11.31-21.76,18.7-21.86,18.77Z"/></svg>