<?xml version="1.0" encoding="UTF-8"?><svg id="Calque_5" xmlns="http://www.w3.org/2000/svg" viewBox="0 0 1338.44 1121.39"><defs><style>.cls-1{fill:#1d1d1b;}</style></defs><path class="cls-1" d="m443.75,978.69c-1.56,0-3.09-.13-4.55-.42-11.89-2.29-75.3-10.06-91.36-9.09-.36.02-.72.03-1.09.03-16.49,0-46.98-20.97-53.36-32.41-6.52-11.69-17.02-73.21-17.02-99.74,0-28.12,5.6-76.23,11.51-98.98,6.33-24.33,37.79-85.37,48.79-94.65,11.3-9.53,41.28-18.14,56.47-13.89l-.3,1.05c-14.62-4.1-44.59,4.5-55.46,13.67-10.62,8.96-42.31,70.51-48.44,94.09-5.9,22.69-11.48,70.66-11.48,98.71,0,26.42,10.42,87.62,16.89,99.21,6.25,11.21,37.92,32.74,53.43,31.82,16.13-.98,79.71,6.82,91.63,9.11,12.05,2.32,29.23-6.16,35.34-17.45,6.15-11.35,27.23-56.22,27.44-56.68l.09-.13c.25-.29,25.49-28.84,31.85-42.84,2.99-6.57,14.13-8.23,34.08-5.08,17.11,2.7,36.96,8.42,50.41,12.49,28.65,8.66,73.05,32.51,73.49,32.75l-.52.96c-.44-.24-44.74-24.03-73.29-32.67-13.42-4.06-33.23-9.76-50.26-12.46-19.12-3.02-30.19-1.52-32.91,4.45-6.29,13.84-30.67,41.57-31.98,43.05-.96,2.04-21.39,45.49-27.44,56.66-5.68,10.49-19.96,18.42-31.96,18.42Z"/></svg>