<?xml version="1.0" encoding="UTF-8"?><svg id="Calque_5" xmlns="http://www.w3.org/2000/svg" viewBox="0 0 1338.44 1121.39"><defs><style>.cls-1{fill:#1d1d1b;}</style></defs><path class="cls-1" d="m825.32,1028.97c-14.85,0-31.75-1.62-51.04-4.83-39.88-6.64-65.92-23.28-79.61-50.87-5.34-10.77-6.61-22.27-7.73-32.42-1.14-10.35-2.13-19.3-7.17-24.27-9.97-9.84-77.77-35.62-78.45-35.88-4.87-1.62-24.05-8.76-46.25-17.03-30.32-11.28-64.68-24.07-71.41-26.08-11.47-3.42-58.14-9.77-58.61-9.84-3.19-.49-7.81-.7-13.74-.63-.56-.03-12.9-.75-17.45-1.51-4.76-.79-28.43-6.75-33.86-8.77-6.32-2.35-12.03-8.18-15.28-15.6-3.53-8.04.58-27.13.76-27.94,4.42-16.84,9.93-28.08,16.39-33.44,14.79-12.27,43.83-.52,69.44,9.85,11.21,4.53,21.79,8.82,29.96,10.55,26.44,5.59,62.86,27.02,63.22,27.23l-.56.94c-.36-.21-36.63-21.55-62.89-27.11-8.26-1.75-18.89-6.05-30.14-10.6-25.33-10.25-54.04-21.87-68.33-10.02-6.28,5.21-11.67,16.26-16.03,32.85-.04.17-4.21,19.53-.82,27.25,3.13,7.14,8.61,12.76,14.66,15.01,5.4,2.01,28.92,7.93,33.66,8.72,4.49.75,17.17,1.49,17.3,1.49,5.95-.08,10.63.14,13.87.64.46.06,47.22,6.43,58.77,9.87,6.77,2.02,41.15,14.82,71.48,26.11,22.19,8.26,41.36,15.4,46.24,17.02,2.82,1.07,68.72,26.13,78.85,36.13,5.32,5.25,6.32,14.37,7.49,24.93,1.11,10.06,2.37,21.47,7.62,32.06,13.52,27.25,39.3,43.7,78.81,50.28,47.37,7.89,80.25,6.12,103.48-5.57,2.7-1.36,5.37-2.68,7.98-3.97,19.53-9.64,36.39-17.97,41.31-32.1l.2-.58c5.58-16.02,8.94-25.68,5.43-37.44-3.48-11.66-15.37-32.6-29.24-47.44-4.28-4.58-8.39-8.52-12.36-12.33-8.69-8.32-16.19-15.51-20.78-25.25-6.56-13.9-11.84-55.77-12.06-57.54l1.09-.14c.05.43,5.48,43.47,11.97,57.21,4.51,9.56,11.94,16.68,20.55,24.93,3.98,3.82,8.1,7.76,12.4,12.37,14.51,15.53,26.02,36.25,29.49,47.87,3.61,12.09,0,22.44-5.45,38.11l-.2.58c-5.07,14.55-22.12,22.97-41.86,32.72-2.61,1.29-5.27,2.6-7.97,3.96-13.95,7.02-31.31,10.5-53.11,10.5Z"/></svg>