<?xml version="1.0" encoding="UTF-8"?><svg id="Calque_5" xmlns="http://www.w3.org/2000/svg" viewBox="0 0 1338.44 1121.39"><defs><style>.cls-1{fill:#1d1d1b;}</style></defs><path class="cls-1" d="m556.18,1000.2l-.36-1.04c31.62-10.92,54.23-10.64,69.2-10.45,9.01.11,14.96.19,17.77-2.39,6.86-6.32,6.15-15.59,5.33-26.33-.08-1-.15-2.02-.23-3.05-.87-12.2-8.24-26.87-14.87-34.01-3.23-3.48-13.7-12.45-23.83-21.13-10.8-9.25-21.96-18.82-25.39-22.59-4.58-5.03-6.14-6.84-5.78-8.34.26-1.06,1.47-1.6,2.92-2.14,3.02-1.14,20.96,6.01,44.1,15.46,6.09,2.49,11.36,4.64,15.09,6.07,14.89,5.71,80.19,39.43,89.59,51.44,1.65,2.1,3.36,4.37,5.18,6.77,8.14,10.75,18.26,24.13,29.57,32.08,9.59,6.75,21.72,5.99,38.51,4.94,6.99-.44,14.91-.94,23.71-.94,29.13,0,36.41-4.9,46.48-11.67l.46-.31c9.25-6.22,15.62-13.17,15.5-16.91-.03-1.02-.54-1.8-1.54-2.38-1.49-.86-2.43-1.16-2.97-.96-.67.26-1.07,1.5-1.62,3.23-.59,1.85-1.4,4.37-3.03,7.28-4.69,8.36-19.26,10.64-19.88,10.74l-.16-1.08c.15-.02,14.66-2.3,19.08-10.19,1.58-2.81,2.36-5.28,2.94-7.08.67-2.09,1.11-3.47,2.27-3.92.91-.35,2.04-.05,3.91,1.03,1.34.77,2.04,1.88,2.09,3.3.17,5.14-8.5,12.83-15.98,17.86l-.46.31c-10.24,6.88-17.63,11.86-47.1,11.86-8.77,0-16.67.5-23.65.93-17.01,1.07-29.3,1.84-39.21-5.14-11.45-8.05-21.63-21.51-29.81-32.32-1.81-2.39-3.52-4.66-5.16-6.75-9.07-11.59-74.69-45.56-89.12-51.09-3.74-1.43-9.01-3.59-15.11-6.08-16.11-6.58-40.44-16.53-43.3-15.45-1.26.47-2.12.89-2.24,1.37-.24,1.01,2.18,3.67,5.53,7.35,3.39,3.72,14.52,13.26,25.3,22.5,10.61,9.1,20.64,17.69,23.91,21.22,6.76,7.28,14.28,22.24,15.16,34.68.07,1.03.15,2.04.23,3.04.84,11.02,1.57,20.54-5.68,27.22-3.12,2.88-9.25,2.8-18.52,2.68-14.89-.19-37.38-.47-68.83,10.39Z"/></svg>