<?xml version="1.0" encoding="UTF-8"?><svg id="Calque_5" xmlns="http://www.w3.org/2000/svg" viewBox="0 0 1338.44 1121.39"><defs><style>.cls-1{fill:#1d1d1b;}</style></defs><path class="cls-1" d="m821.78,980.33c-14.18,0-31.69-1.66-42.44-6.81-17.52-8.41-34.35-28.48-46.64-43.13l-.17-.21c-9.06-10.8-60.14-24.13-101.19-34.84-14.48-3.78-28.16-7.35-37.95-10.29-37.21-11.2-57.11,10.13-61.15,18.49-3.46,7.17-17.65,13.97-25.31,13.63-3.46-.16-4.75-1.69-5.23-2.95-2.79-7.41.43-11.12.57-11.28l.82.73-.41-.37.41.36c-.12.14-2.9,3.41-.36,10.16.52,1.39,1.95,2.14,4.25,2.25,7.26.34,21.06-6.34,24.27-13.01,4.14-8.57,24.51-30.48,62.45-19.06,9.76,2.94,23.43,6.5,37.91,10.28,41.2,10.75,92.47,24.12,101.75,35.19l.17.21c12.22,14.57,28.96,34.54,46.27,42.85,17.37,8.34,54.27,7.3,62.61,5.08,8.53-2.27,16.5-17.09,16-26.08-.08-1.45-.11-3.02-.15-4.67-.19-9.08-.43-20.38-8.41-31.55-.92-1.28-1.98-2.75-3.14-4.37-11.17-15.49-31.97-44.32-32.41-55.55-.07-1.7-.18-3.77-.31-6.17-.82-15.14-2.19-40.48,3.23-52,2.95-6.27,7.28-11.58,11.48-16.73,4.77-5.85,9.27-11.37,11.49-17.87,2.32-6.8-.37-14.14-3.78-23.44-2.71-7.4-5.79-15.79-7.26-26.15-3.48-24.45-4.21-37.71,1.02-46.93,5.25-9.25,11.94-15.35,12-15.41l.73.81c-.07.06-6.62,6.05-11.78,15.14-5.08,8.94-4.33,22.03-.89,46.23,1.46,10.25,4.51,18.58,7.21,25.93,3.48,9.5,6.24,17.01,3.79,24.17-2.28,6.68-6.85,12.28-11.68,18.21-4.15,5.09-8.44,10.36-11.33,16.5-5.3,11.27-3.94,36.44-3.13,51.47.13,2.4.24,4.48.31,6.18.43,10.9,21.1,39.56,32.2,54.95,1.17,1.62,2.23,3.09,3.15,4.37,8.18,11.45,8.43,23.42,8.61,32.17.03,1.65.07,3.2.15,4.63.25,4.53-1.59,10.74-4.82,16.21-3.46,5.88-7.83,9.88-11.99,10.99-3.48.93-11.47,1.67-20.93,1.67Z"/></svg>