<?xml version="1.0" encoding="UTF-8"?><svg id="Calque_5" xmlns="http://www.w3.org/2000/svg" viewBox="0 0 1338.44 1121.39"><defs><style>.cls-1{fill:#1d1d1b;}</style></defs><path class="cls-1" d="m691.53,901.19c-.37-.26-37.02-26.08-55.89-40.42-15.27-11.6-53.93-12.57-77.03-13.15-5.49-.14-10.23-.26-13.51-.49-11.82-.85-45.48-10.08-70.07-16.82-10.75-2.95-20.04-5.49-24.81-6.6-9.37-2.16-28.57-3.66-48.95-3.8-.54.12-3.59.58-14.58-.41-11.97-1.08-29.27-7.59-35.96-15.58-6.58-7.86-3.51-23.67-3.38-24.34,3.59-13.78,6.9-22.28,9.86-25.31,12.16-12.45,24.26-16.71,35.94-12.67,1.09.38,110.47,38.84,123.74,50.93,6.18,5.63,11.53,12.37,16.26,18.32,4.61,5.81,8.6,10.82,11.85,12.83,6.34,3.9,26.44,8.68,40.69,3.54,15.85-5.72,28.65-22.93,33.41-30.06,1.54-2.3,2.88-4.65,4.17-6.92,4.69-8.23,9.13-16,21.6-18.44,8.36-1.64,24-2.3,39.13-2.94,12.98-.55,25.25-1.07,31.06-2.16,12.28-2.31,27.08-12.4,27.23-12.5l.62.9c-.15.1-15.14,10.32-27.65,12.67-5.89,1.11-18.19,1.63-31.21,2.18-15.09.64-30.68,1.3-38.96,2.92-11.98,2.34-16.09,9.56-20.86,17.91-1.3,2.28-2.65,4.65-4.21,6.98-4.83,7.22-17.8,24.65-33.95,30.48-14.57,5.26-35.15.36-41.64-3.64-3.42-2.1-7.46-7.19-12.14-13.08-4.7-5.91-10.03-12.62-16.14-18.19-11.64-10.61-101.69-43.21-123.36-50.7-11.25-3.89-22.96.28-34.8,12.4-2.82,2.89-6.05,11.23-9.58,24.79-.02.13-3.09,15.93,3.15,23.39,6.51,7.78,23.47,14.14,35.22,15.19,11.74,1.06,14.18.46,14.28.43l.15-.02c20.48.14,39.81,1.65,49.26,3.83,4.78,1.11,14.08,3.66,24.85,6.61,24.54,6.73,58.15,15.94,69.85,16.78,3.25.23,7.98.35,13.46.49,23.23.58,62.12,1.56,77.67,13.38,18.86,14.33,55.49,40.14,55.86,40.4l-.63.9Z"/></svg>