<?xml version="1.0" encoding="UTF-8"?><svg id="Calque_5" xmlns="http://www.w3.org/2000/svg" viewBox="0 0 1338.44 1121.39"><defs><style>.cls-1{fill:#1d1d1b;}</style></defs><path class="cls-1" d="m556.19,1000.19l-.39-1.02c.31-.12,30.63-11.68,40.81-19.84.91-.73,1.84-1.45,2.75-2.16,5.68-4.43,11.04-8.61,11.34-13.83.2-3.45-1.8-7.2-6.12-11.46-7.52-7.41-16.97-19.32-25.32-29.82-6.84-8.61-13.3-16.74-17.53-20.93-3.04-3.01-6.18-5.24-9.23-7.39-6.4-4.53-11.93-8.44-13.99-17.74-2.21-9.94,1.72-14.81,5.89-19.95,1.58-1.95,3.22-3.98,4.52-6.33,1.11-2,1.93-3.99,2.72-5.92,1.52-3.7,2.83-6.9,5.6-8.04,1.88-.78,4.3-.52,7.39.79,10.03,4.23,25.77,4.96,34.74-1.13,9.27-6.29,20.78-15.12,27.47-27.6,1.72-3.21,3.07-6.45,4.38-9.59,3.82-9.15,7.12-17.06,17.2-17.06h.9c14.05,0,51.42.01,68.71-6.9,17.86-7.14,19.67-9.15,24.06-19.84l1.01.42c-4.71,11.48-7.02,13.39-24.67,20.44-17.48,6.99-54.98,6.98-69.11,6.98h-.9c-9.35,0-12.37,7.23-16.19,16.39-1.32,3.16-2.68,6.43-4.43,9.69-6.81,12.69-18.44,21.62-27.82,27.98-5.49,3.73-12.47,4.59-17.36,4.66-6.34.09-13.06-1.16-18.42-3.42-2.82-1.19-4.96-1.44-6.55-.79-2.34.97-3.52,3.82-5,7.44-.76,1.86-1.63,3.97-2.77,6.03-1.35,2.43-3.02,4.49-4.63,6.48-4,4.94-7.77,9.6-5.67,19.03,1.98,8.89,7.34,12.69,13.56,17.09,3.08,2.18,6.26,4.43,9.36,7.51,4.27,4.23,10.76,12.39,17.62,21.03,8.33,10.48,17.76,22.36,25.23,29.72,4.56,4.49,6.66,8.51,6.44,12.3-.33,5.71-5.88,10.04-11.76,14.63-.91.71-1.83,1.42-2.74,2.15-10.31,8.26-39.85,19.53-41.1,20.01Z"/></svg>