<?xml version="1.0" encoding="UTF-8"?><svg id="Calque_5" xmlns="http://www.w3.org/2000/svg" viewBox="0 0 1338.44 1121.39"><defs><style>.cls-1{fill:#1d1d1b;}</style></defs><path class="cls-1" d="m555.82,1000.18c-19.04-16.61-69.68-59.81-75.22-60.16-3.38-.23-7.47,3.34-12.22,7.47-4.56,3.96-9.73,8.45-15.73,10.95-7.33,3.06-14.63,1.49-23.07-.33-5.89-1.27-12.57-2.7-20.2-2.7-18.15,0-46.7,9.84-46.98,9.94l-.36-1.03c.29-.1,29.01-10,47.34-10,7.75,0,14.49,1.45,20.43,2.73,8.26,1.78,15.4,3.31,22.42.39,5.84-2.43,10.94-6.86,15.44-10.77,4.93-4.28,9.18-7.97,13.01-7.73,7.04.45,73.06,57.98,75.87,60.43l-.72.83Z"/></svg>