<?xml version="1.0" encoding="UTF-8"?><svg id="Calque_5" xmlns="http://www.w3.org/2000/svg" viewBox="0 0 1338.44 1121.39"><defs><style>.cls-1{fill:#1d1d1b;}</style></defs><path class="cls-1" d="m792.07,990.97c-12.2,0-22.3-.71-26.15-2.83-16.17-8.89-29.18-22.42-38.67-40.21-12.88-24.15-38.17-37.27-48.44-41.79-1.48-.65-3.64-1.61-6.32-2.8-19.62-8.72-71.74-31.87-85.35-35.11-15.05-3.57-42.63-1.24-53.38,6.57-5.69,4.14-8.87,11.15-11.68,17.33-2.44,5.38-4.55,10.02-7.82,11.65-6.94,3.47-11.71.1-11.91-.05l.64-.89c.18.13,4.45,3.11,10.77-.05,2.92-1.46,4.95-5.94,7.31-11.13,2.86-6.31,6.11-13.45,12.03-17.77,5.04-3.67,14.3-6.49,25.41-7.74,10.49-1.18,21.28-.81,28.86.99,13.72,3.26,64.05,25.62,85.55,35.17,2.68,1.19,4.83,2.15,6.31,2.8,10.38,4.57,35.92,17.83,48.96,42.28,9.38,17.59,22.25,30.97,38.23,39.76,8.86,4.87,54.82,1.88,76.91.45,3.19-.21,5.95-.39,8.11-.51,9.49-.55,18.58-6.27,24.53-10.97,6.84-5.4,12.63-11.91,15.33-15.96,2.04-3.06,2.65-6.08,1.76-8.72-.97-2.88-3.44-4.64-5.42-5.32-2.91-1.01-3.92.75-6.98,7.02-.79,1.62-1.68,3.45-2.78,5.53-5.16,9.81-17.2,14.64-17.71,14.84l-.4-1.02c.12-.05,12.18-4.89,17.15-14.33,1.09-2.07,1.98-3.89,2.76-5.5,2.9-5.96,4.36-8.95,8.32-7.58,2.23.77,5.01,2.75,6.1,6.01.7,2.08.94,5.44-1.89,9.68-2.55,3.82-8.15,10.36-15.57,16.21-6.08,4.8-15.37,10.63-25.14,11.2-2.16.13-4.91.3-8.1.51-13.84.9-34.58,2.25-51.36,2.25Z"/></svg>