<?xml version="1.0" encoding="UTF-8"?><svg id="Calque_5" xmlns="http://www.w3.org/2000/svg" viewBox="0 0 1338.44 1121.39"><defs><style>.cls-1{fill:#1d1d1b;}</style></defs><path class="cls-1" d="m587.11,712.1c-1.02-.32-102.15-31.69-124.81-27.16-9.25,1.85-15.07,4.18-20.7,6.44-8.32,3.34-16.18,6.49-33.71,7.41-9.75.51-20.05,1.94-29.14,3.2-15.99,2.21-25.12,3.32-26.71.4-.6-1.1-.08-2.57,1.58-4.5,10.37-12,39.82-53.95,38.83-67.78l1.09-.08c1.06,14.82-29.63,57.62-39.09,68.58-1.29,1.5-1.79,2.62-1.45,3.26,1.31,2.4,13.1.77,25.6-.96,9.11-1.26,19.44-2.69,29.23-3.21,17.36-.91,25.13-4.03,33.36-7.33,5.68-2.28,11.55-4.63,20.9-6.5,22.95-4.59,121.18,25.88,125.35,27.18l-.33,1.05Z"/></svg>