<?xml version="1.0" encoding="UTF-8"?><svg id="Calque_5" xmlns="http://www.w3.org/2000/svg" viewBox="0 0 1338.44 1121.39"><defs><style>.cls-1{fill:#1d1d1b;}</style></defs><path class="cls-1" d="m503.09,903.67l-.81-.74c.4-.44,39.97-43.77,43.64-59.97,2.73-12.04,13.2-9.79,22.44-7.8,4.01.86,7.79,1.68,10.75,1.35,9.86-1.1,34.23-16.62,39.33-26.53.69-1.35,1.42-2.8,2.17-4.3,5.05-10.09,11.33-22.65,19.07-26.17,5.8-2.63,22.55-3.39,37.32-4.06,7.64-.35,14.85-.67,19.47-1.22,13.43-1.6,34.18-6.84,37.45-11.75,3.45-5.18,8.18-8.19,8.38-8.31l.58.93s-4.73,3.02-8.05,7.99c-3.58,5.37-24.88,10.64-38.24,12.23-4.65.55-11.89.88-19.55,1.23-14.67.66-31.3,1.41-36.91,3.96-7.39,3.35-13.57,15.72-18.54,25.66-.76,1.51-1.48,2.97-2.18,4.32-5.34,10.37-29.87,25.96-40.19,27.11-3.14.35-7.01-.48-11.11-1.36-9.17-1.97-18.65-4.01-21.14,6.97-1.57,6.93-9.44,19.22-23.4,36.53-10.37,12.85-20.4,23.83-20.5,23.94Z"/></svg>