<?xml version="1.0" encoding="UTF-8"?><svg id="Calque_5" xmlns="http://www.w3.org/2000/svg" viewBox="0 0 1338.44 1121.39"><defs><style>.cls-1{fill:#1d1d1b;}</style></defs><path class="cls-1" d="m833.52,1030.13c-11.54,0-23.51-.73-34.09-1.66-29.14-2.56-57.33-7.52-65.68-9.97-16.58-4.87-41.57-35.33-46.82-48.22-2.4-5.89-4.01-15.61-5.57-25.01-1.84-11.08-3.74-22.53-6.79-26.1-4.81-5.61-36.37-20.5-84.43-39.82-38.03-15.29-59.81,9.52-63.17,16.49-4.39,9.11-11.36,14.38-18.64,14.09-3.15-.12-5.21-.98-6.14-2.55-1.16-1.96-.05-4.22,0-4.31l.98.49s-.89,1.83-.03,3.27c.72,1.21,2.53,1.9,5.23,2.01,10.15.37,16.04-10.21,17.61-13.47,3.44-7.15,25.75-32.63,64.56-17.03,18.06,7.26,77.56,31.62,84.85,40.13,3.26,3.8,5.1,14.89,7.04,26.63,1.55,9.34,3.15,19,5.5,24.77,5.19,12.73,29.81,42.79,46.11,47.59,8.3,2.44,36.39,7.38,65.46,9.93,46.39,4.07,66.38-.08,74.98-4.27,29.57-14.42,49.76-31.69,52.71-45.09.47-2.13,1.05-4.5,1.67-7.01,3.33-13.57,7.89-32.15,1.91-43.31-4.46-8.33-18.34-24.57-30.58-38.9-7.13-8.34-13.86-16.23-17.29-20.91-9.06-12.39-23.86-64.73-24.48-66.95l1.05-.3c.15.54,15.37,54.37,24.31,66.6,3.4,4.65,10.12,12.52,17.23,20.85,12.28,14.37,26.19,30.66,30.71,39.1,6.18,11.53,1.56,30.35-1.81,44.09-.61,2.5-1.19,4.86-1.66,6.99-3.02,13.71-23.44,31.28-53.3,45.84-9.31,4.54-24.94,6.04-41.47,6.04Z"/></svg>