<?xml version="1.0" encoding="UTF-8"?><svg id="Calque_5" xmlns="http://www.w3.org/2000/svg" viewBox="0 0 1338.44 1121.39"><defs><style>.cls-1{fill:#1d1d1b;}</style></defs><path class="cls-1" d="m523.84,788.35c-.19-.18-19.22-18.54-40.98-37.54-28.75-25.1-49.16-39.91-59.04-42.82-25.52-7.53-60.71-1.85-72.28.02-6.68,1.08-10.5,1.3-11.56-.58-1.39-2.47,2.31-7.49,14.13-21.33,6.23-7.3,13.18-14.95,19.9-22.35,12.45-13.7,24.2-26.64,28.2-33.95,6.21-11.35,57.24-40.85,71.91-36.66,5.46,1.56,11.08,3.78,17.02,6.13,9.6,3.8,20.48,8.1,33.17,10.49,20.21,3.81,93.55,3.83,103.25.03,9.39-3.68,16.02-22.78,16.09-22.97l1.04.35c-.28.81-6.86,19.76-16.72,23.63-9.79,3.84-83.55,3.86-103.86.03-12.79-2.41-23.72-6.74-33.37-10.55-5.92-2.34-11.51-4.55-16.92-6.1-6.15-1.76-20.82,2.99-38.3,12.39-15.89,8.55-29.5,18.53-32.35,23.75-4.06,7.42-15.86,20.41-28.35,34.16-6.71,7.39-13.66,15.03-19.88,22.32-8.93,10.46-15.16,18.03-14.01,20.08.78,1.39,5.47.84,10.43.04,8.73-1.41,20.39-3.1,33.16-3.66,15.67-.69,29,.55,39.6,3.67,24.18,7.13,97.36,77.62,100.47,80.62l-.76.79Z"/></svg>