<?xml version="1.0" encoding="UTF-8"?><svg id="Calque_5" xmlns="http://www.w3.org/2000/svg" viewBox="0 0 1338.44 1121.39"><defs><style>.cls-1{fill:#1d1d1b;}</style></defs><path class="cls-1" d="m843.09,651.25l-1.04-.33c.04-.14,4.21-13.77-7.02-23.73-11.29-10-30.36-18.43-48.59-21.47-18.06-3.01-80.74-4.5-99.52-4.88-9.83-.2-29.31-3-46.49-5.47-15.27-2.2-29.7-4.27-35.45-4.28-13.4-.02-58.54-.35-76.89-3.55-7.58-1.32-16.69-3.75-25.51-6.11-12.99-3.47-26.42-7.06-35.53-7.28-16.94-.42-47.28,3.44-61.69,13.3-15.21,10.41-22.45,20.72-21.73,25.54.75,5.02,9.71,16.62,9.8,16.74l-.87.67c-.38-.49-9.23-11.95-10.02-17.25-.74-4.99,5.88-15.45,22.19-26.6,16.01-10.95,48.91-13.82,62.34-13.49,9.23.23,22.73,3.83,35.78,7.32,8.79,2.35,17.89,4.78,25.42,6.09,18.27,3.18,63.33,3.51,76.71,3.53,5.83.01,20.3,2.09,35.61,4.29,17.15,2.47,36.6,5.26,46.36,5.46,18.8.38,81.54,1.87,99.68,4.89,18.41,3.07,37.7,11.6,49.13,21.73,11.78,10.44,7.39,24.74,7.34,24.88Z"/></svg>