<?xml version="1.0" encoding="UTF-8"?><svg id="Calque_5" xmlns="http://www.w3.org/2000/svg" viewBox="0 0 1338.44 1121.39"><defs><style>.cls-1{fill:#1d1d1b;}</style></defs><path class="cls-1" d="m556.69,1005.77c-1.36,0-2.67-.16-3.91-.51-7.14-2.03-18.91-14.03-28.36-23.67-4.38-4.47-8.17-8.33-10.73-10.42-14.19-11.62-32.67-24.61-38-22.97-2.8.86-6.12,3.83-9.63,6.97-4.65,4.16-9.92,8.87-15.57,10.19-6.84,1.59-16.5-.05-26.74-1.79-4.46-.76-9.08-1.54-13.39-2.02-13.61-1.51-47.7,3.76-48.04,3.82l-.17-1.08c.34-.05,34.58-5.35,48.33-3.82,4.34.48,8.97,1.27,13.45,2.03,10.12,1.72,19.69,3.34,26.31,1.8,5.37-1.25,10.53-5.87,15.09-9.94,3.61-3.22,7.01-6.27,10.04-7.2,7.42-2.28,33.8,18.9,39.02,23.17,2.61,2.14,6.41,6.01,10.82,10.5,9.37,9.55,21.03,21.43,27.88,23.38,6.37,1.81,14.87-1.94,23.09-5.58,4.7-2.08,9.57-4.23,14.05-5.35,4.38-1.1,9.42-1.81,14.29-2.51,8.82-1.26,17.95-2.56,23.48-6.14,8.02-5.19,11.63-16.49,8.99-28.13-2.49-10.97-15.23-29.47-24.96-38.68-2.55-2.42-6.54-5.94-11.15-10.02-13.09-11.59-31.03-27.45-36.9-36.21-1.3-1.93-2.64-3.83-3.93-5.67-4.78-6.77-8.55-12.11-6.98-14.63.8-1.28,2.75-1.62,6.11-1.06,6.88,1.15,19.84,4.2,32.38,7.15,10.15,2.39,19.74,4.65,26.08,5.9,14.28,2.83,72.04,35.58,74.5,36.97l-.54.95c-.6-.34-60.07-34.05-74.17-36.85-6.36-1.26-15.96-3.52-26.12-5.91-12.52-2.95-25.47-5.99-32.31-7.13-2.75-.46-4.48-.27-5,.56-1.19,1.9,2.76,7.49,6.94,13.41,1.3,1.84,2.65,3.75,3.95,5.69,5.79,8.63,23.66,24.45,36.71,36,4.62,4.09,8.61,7.62,11.18,10.05,12.29,11.64,23.18,30.02,25.28,39.24,2.75,12.08-1.06,23.85-9.46,29.29-5.73,3.71-14.98,5.03-23.92,6.3-4.84.69-9.85,1.4-14.18,2.49-4.39,1.1-9.21,3.23-13.87,5.29-6.85,3.03-13.9,6.14-19.92,6.14Z"/></svg>