<?xml version="1.0" encoding="UTF-8"?><svg id="Calque_5" xmlns="http://www.w3.org/2000/svg" viewBox="0 0 1338.44 1121.39"><defs><style>.cls-1{fill:#1d1d1b;}</style></defs><path class="cls-1" d="m691.46,901.13c-.38-.38-38.14-38-61.87-49.11-13.87-6.49-34.38-8.24-52.48-9.78-13.48-1.15-26.21-2.24-35.12-5.06-11.41-3.62-31.45-15.11-46.4-24.67-18.49-11.82-32.79-22.74-36.42-27.83-4.03-5.65-3.42-9-2.19-10.82,2.43-3.6,9.23-4.36,18.65-2.08,15.74,3.81,48.43,15.53,48.76,15.65l-.37,1.03c-.33-.12-32.96-11.82-48.64-15.62-8.82-2.13-15.36-1.53-17.49,1.63-1.48,2.2-.73,5.51,2.17,9.57,7.44,10.42,61.17,45.4,82.26,52.09,8.79,2.79,21.46,3.87,34.88,5.01,18.19,1.55,38.81,3.31,52.85,9.88,23.9,11.19,61.8,48.94,62.18,49.32l-.77.77Z"/></svg>