<?xml version="1.0" encoding="UTF-8"?><svg id="Calque_5" xmlns="http://www.w3.org/2000/svg" viewBox="0 0 1338.44 1121.39"><defs><style>.cls-1{fill:#1d1d1b;}</style></defs><path class="cls-1" d="m361.91,965.27c-1.95-1.34-47.89-33.06-57.07-50.02-9.15-16.89-16.98-55.48-16.98-75.23v-.42c0-19.53,0-37.98,3.56-56.58,3.5-18.33,29.44-90.19,38.55-106.79,8.9-16.22,37.19-35.42,44.29-39.68,7.68-4.61,18.51-6.99,18.62-7.01l.23,1.07c-.11.02-10.77,2.37-18.29,6.88-7.04,4.22-35.11,23.26-43.89,39.27-9.08,16.55-34.94,88.2-38.43,106.47-3.54,18.5-3.54,36.9-3.54,56.38v.42c0,19.62,7.78,57.95,16.85,74.71,9.06,16.73,56.26,49.32,56.73,49.64l-.62.9Z"/></svg>