<?xml version="1.0" encoding="UTF-8"?><svg id="Calque_5" xmlns="http://www.w3.org/2000/svg" viewBox="0 0 1338.44 1121.39"><defs><style>.cls-1{fill:#1d1d1b;}</style></defs><path class="cls-1" d="m859.52,800.82l-1.09-.09c.03-.32,2.58-31.84-7.04-37.31-10.13-5.77-14.82-9.24-20.46-20.53-5.64-11.28-13.79-47.99-9.93-63.93,1.21-4.99,2.99-9.25,4.41-12.67,3.11-7.45,4.82-11.55-1.76-14.71-10.6-5.08-73.02-21.46-89.2-20.96-16.49.52-48.14,16.38-62.71,31.43-4.91,5.06-9.33,9.25-13.24,12.94-7.64,7.23-13.68,12.94-18.11,20.38-1.06,1.79-2.24,3.67-3.38,5.48-6.11,9.72-12.43,19.77-7.17,25.41,5.04,5.4,20.11,5.09,32.21,4.84,3.35-.07,6.52-.13,9.3-.08,1.31.02,2.89.04,4.68.07,16.1.2,49.6.62,56.85,6.42,7.95,6.35,10.16,16.59,10.25,17.02l-1.07.22c-.02-.1-2.22-10.29-9.86-16.39-6.96-5.56-40.21-5.98-56.18-6.18-1.79-.02-3.37-.04-4.69-.07-2.76-.05-5.92.01-9.26.08-12.97.26-27.66.56-33.04-5.19-5.84-6.25.71-16.67,7.04-26.74,1.14-1.81,2.31-3.68,3.37-5.45,4.5-7.57,10.59-13.33,18.29-20.62,3.9-3.69,8.31-7.86,13.2-12.91,14.73-15.2,46.76-31.23,63.46-31.76,16.31-.51,79.05,15.97,89.71,21.07,7.53,3.6,5.45,8.58,2.3,16.12-1.49,3.56-3.17,7.59-4.36,12.5-3.74,15.43,4.41,52.31,9.84,63.19,5.54,11.07,9.89,14.3,20.03,20.07,10.22,5.82,7.7,37.03,7.58,38.36Z"/></svg>