<?xml version="1.0" encoding="UTF-8"?><svg id="Calque_5" xmlns="http://www.w3.org/2000/svg" viewBox="0 0 1338.44 1121.39"><defs><style>.cls-1{fill:#1d1d1b;}</style></defs><path class="cls-1" d="m807.94,982.15c-11.46,0-24.74-.53-30.91-2.69-13.11-4.6-31.45-25.21-42.41-37.53-1.37-1.54-2.61-2.93-3.7-4.14-9.23-10.2-29.33-30.98-39.33-36.57l.53-.96c10.13,5.66,30.34,26.54,39.61,36.79,1.1,1.21,2.34,2.61,3.71,4.15,10.89,12.24,29.11,32.72,41.95,37.22,8.26,2.89,29.82,2.79,41.94,2.47,17.56-.47,33.07-1.76,36.45-2.49,10.31-2.21,10.95-3.66,10.98-3.93.01-.15-.25-.51-1.33-.95-2.79-1.14-4.01-.94-4.49-.72-.34.15-.41.36-.41.37l-1.06-.28c.02-.07.18-.66.92-1.04,1.13-.58,2.97-.36,5.46.66.52.21,2.11.86,2.01,2.06-.1,1.12-1.54,2.69-11.84,4.9-3.87.83-20.37,2.08-36.65,2.51-3.27.09-7.22.16-11.42.16Z"/></svg>