<?xml version="1.0" encoding="UTF-8"?><svg id="Calque_5" xmlns="http://www.w3.org/2000/svg" viewBox="0 0 1338.44 1121.39"><defs><style>.cls-1{fill:#1d1d1b;}</style></defs><path class="cls-1" d="m503.09,903.67l-.8-.74c.33-.35,32.61-35.53,23.82-50.71-5.55-9.58-20.86-17.36-35.67-24.89-9.22-4.69-18.75-9.53-26.01-14.83-18.42-13.44-21.25-34.43-14.56-47.34,2.68-5.18,16.11-2.96,39.91,6.6,17.52,7.04,34.52,15.63,34.69,15.72l-.5.98c-18.71-9.48-68.33-32.07-73.13-22.79-6.48,12.51-3.7,32.87,14.23,45.96,7.19,5.25,16.69,10.07,25.87,14.74,14.95,7.6,30.4,15.46,36.12,25.32,3.89,6.71,1.01,17.52-8.55,32.14-7.05,10.79-15.33,19.77-15.42,19.86Z"/></svg>