<?xml version="1.0" encoding="UTF-8"?><svg id="Calque_5" xmlns="http://www.w3.org/2000/svg" viewBox="0 0 1338.44 1121.39"><defs><style>.cls-1{fill:#1d1d1b;}</style></defs><path class="cls-1" d="m860.48,973.28l-.97-.52c.41-.77,40.85-77.19,34.8-116.03-3.5-22.47-19.04-53.84-32.74-81.52-10.3-20.8-20.03-40.45-23.12-53.26-3.73-15.44-2.55-33.93-.91-46.72,1.78-13.84,4.47-24.19,4.5-24.29l1.06.28c-.03.1-2.71,10.39-4.47,24.17-1.63,12.7-2.8,31.03.89,46.31,3.06,12.69,12.77,32.29,23.04,53.03,13.74,27.75,29.32,59.2,32.85,81.84,1.76,11.32.57,33.22-15.15,73.27-9.39,23.91-19.66,43.25-19.76,43.44Z"/></svg>