<?xml version="1.0" encoding="UTF-8"?><svg id="Calque_5" xmlns="http://www.w3.org/2000/svg" viewBox="0 0 1338.44 1121.39"><defs><style>.cls-1{fill:#1d1d1b;}</style></defs><path class="cls-1" d="m859.76,973.51c-.1-.05-9.86-4.84-20.64-11.76-14.52-9.32-23.87-17.86-27.79-25.39-6.76-12.98-9.59-52.21-12.08-86.83-.94-13.08-1.83-25.43-2.84-34.61-3.62-32.86-38.63-61.34-54.05-69.29-7.19-3.7-28.87-5.69-57.99-5.32-26.34.34-50.38,2.54-58.46,5.35-10.93,3.81-21.49,17.98-30.81,30.49-4.99,6.7-9.71,13.03-14.1,17.32-13.29,12.97-24.68,5.36-37.13-5.1-12.8-10.75-18.85-37.57-13.47-48.34,5.17-10.33,54.97-28.22,57.09-28.98l.37,1.03c-.51.18-51.5,18.5-56.47,28.44-2.43,4.87-2.44,13.78-.02,23.27,2.61,10.23,7.43,18.88,13.21,23.75,12.04,10.11,23.03,17.48,35.66,5.15,4.33-4.23,9.02-10.52,13.99-17.19,9.41-12.63,20.08-26.95,31.33-30.87,16.98-5.92,100.71-8.53,117.31.03,15.58,8.03,50.96,36.85,54.63,70.15,1.01,9.19,1.9,21.56,2.85,34.65,2.36,32.8,5.3,73.62,11.96,86.4,9.16,17.58,47.56,36.48,47.94,36.67l-.48.98Z"/></svg>