<?xml version="1.0" encoding="UTF-8"?><svg id="Calque_5" xmlns="http://www.w3.org/2000/svg" viewBox="0 0 1338.44 1121.39"><defs><style>.cls-1{fill:#1d1d1b;}</style></defs><path class="cls-1" d="m692.32,901.02l-.94-.57c.07-.12,7.19-12.18,4.17-28.25-3.14-16.74-5.94-21.44-15.74-26.45-6.88-3.52-23.38-9.3-47.71-16.72-5.42-1.65-8.5-2.99-9.22-5.33-.62-2,.55-4.58,4.02-8.9,2.81-3.5,4.2-8.37,5.53-13.08,1.87-6.57,3.63-12.78,9.1-14.29,3.2-.89,10.66-1.11,20.11-1.4,17.12-.52,40.58-1.24,53.31-6.52,19.66-8.15,24.52-11.43,27.11-24.97l1.08.21c-2.69,14.07-7.67,17.44-27.77,25.78-12.92,5.36-36.48,6.08-53.69,6.6-9.38.29-16.78.51-19.85,1.36-4.87,1.35-6.55,7.27-8.34,13.54-1.37,4.82-2.79,9.8-5.73,13.47-3.17,3.95-4.31,6.31-3.83,7.9.57,1.86,3.55,3.09,8.49,4.6,24.39,7.44,40.95,13.25,47.89,16.79,10.08,5.15,13.13,10.24,16.32,27.22,3.09,16.49-4.24,28.89-4.31,29.01Z"/></svg>