<?xml version="1.0" encoding="UTF-8"?><svg id="Calque_5" xmlns="http://www.w3.org/2000/svg" viewBox="0 0 1338.44 1121.39"><defs><style>.cls-1{fill:#1d1d1b;}</style></defs><path class="cls-1" d="m555.79,1000.15c-.5-.51-50.55-50.69-61.3-61.84-11.12-11.53-66.8-40.84-84.09-40.84s-66.1-5.01-77.18-11.87c-11.22-6.95-26.98-24.72-30.48-37.23-3.72-13.27.57-54.74,6.28-60.78,3.95-4.18,8.81-16.7,13.94-29.95,2.09-5.39,4.25-10.96,6.45-16.25,4.44-10.64,26.65-36.78,39.5-51.41,17.56-19.99,36.3-39.85,42.14-45.16,5.39-4.9,18.22-13.85,32.32-21.48,9.37-5.07,26.39-13.29,35.16-11.46,4.26.89,11.8,2.81,21.34,5.23,23.56,5.98,55.83,14.18,71.25,15.27,22.23,1.57,48.37-2.87,63.55-10.8,14.58-7.61,15.09-11.71,15.93-18.5.06-.49.12-.98.19-1.5.97-7.3-6.91-14.08-6.99-14.15l.71-.84c.34.29,8.42,7.23,7.37,15.13-.07.51-.13,1-.19,1.49-.85,6.9-1.41,11.46-16.5,19.34-15.59,8.14-41.37,12.53-64.14,10.92-15.52-1.1-47.84-9.3-71.44-15.3-9.15-2.32-17.06-4.33-21.3-5.22-14.82-3.1-56.13,23.24-66.52,32.68-5.82,5.29-24.52,25.1-42.06,45.07-22.11,25.18-36.07,43.33-39.32,51.11-2.2,5.27-4.36,10.84-6.44,16.22-5.18,13.36-10.07,25.97-14.17,30.31-5.41,5.73-9.58,47.04-6.02,59.74,3.44,12.27,18.95,29.75,30.01,36.59,10.93,6.76,59.4,11.71,76.61,11.71,8,0,24.88,6.11,45.14,16.34,18.11,9.14,34.45,19.36,39.74,24.84,10.74,11.15,60.78,61.32,61.29,61.83l-.78.77Z"/></svg>