<?xml version="1.0" encoding="UTF-8"?><svg id="Calque_5" xmlns="http://www.w3.org/2000/svg" viewBox="0 0 1338.44 1121.39"><defs><style>.cls-1{fill:#1d1d1b;}</style></defs><path class="cls-1" d="m561.86,991.87c-1.9,0-3.89-.29-6.02-.94-9.21-2.83-22.61-21.41-32.4-34.97-3.88-5.38-7.24-10.03-9.37-12.34-7.25-7.84-46.44-34.56-59.51-39.81-7.47-3-33.63-12.79-56.77-12.79-2.58,0-5.31.03-8.19.06-19.63.19-44.06.44-52.87-7.84-2.46-2.31-5.29-4.63-8.29-7.08-8.88-7.27-18.93-15.5-21.1-25.59-1.51-7.05-2.91-27.93-.23-53.97,2.37-23.05,8.74-57.53,25.62-90.93,9.89-19.68,16.66-25.14,25.23-32.05,5.31-4.28,11.34-9.14,19.17-18.43,14.84-17.6,15.98-22.81,15.78-24.23-.04-.31-.15-.39-.15-.39,0,0,.02.01.06.02l.32-1.05c.09.03.58.21.79.93.65,2.19-1.59,8.39-15.95,25.42-7.9,9.37-13.97,14.26-19.32,18.58-8.47,6.83-15.16,12.22-24.94,31.69-16.8,33.25-23.15,67.59-25.51,90.55-2.67,25.92-1.29,46.65.21,53.63,2.08,9.71,11.98,17.82,20.72,24.97,3.01,2.47,5.86,4.8,8.35,7.13,8.49,7.98,32.68,7.74,52.11,7.54,2.89-.03,5.62-.06,8.2-.06,23.34,0,49.67,9.85,57.18,12.87,13.52,5.43,52.4,31.97,59.9,40.08,2.18,2.35,5.55,7.03,9.45,12.44,9.69,13.44,22.97,31.84,31.83,34.57,8.92,2.74,15.47-1.39,22.41-5.78,2.7-1.71,5.49-3.47,8.47-4.85,11.26-5.2,16.76-12.96,15.49-21.85-1.04-7.31-14.86-21.62-27.06-34.24-4.12-4.27-8.02-8.3-11.46-12.08-7.82-8.58-14.95-10.44-18.78-11.45-1.89-.49-2.93-.77-3.15-1.63-.2-.79.5-1.63,1.76-2.82,7.96-7.43,42.02-7.15,56.3-6.68,16.01.52,33.44,11.45,47.45,20.23,8.82,5.53,16.44,10.3,21.19,10.84,11.93,1.34,22.47-18.9,22.57-19.1l.97.5c-.03.05-2.74,5.31-6.96,10.33-5.65,6.72-11.44,9.96-16.71,9.36-5-.57-12.71-5.4-21.65-11-13.9-8.71-31.2-19.55-46.91-20.07-29.44-.96-50.19,1.43-55.51,6.39-1.43,1.34-1.46,1.69-1.45,1.75.1.25,1.36.57,2.36.84,3.94,1.03,11.27,2.95,19.31,11.77,3.43,3.76,7.32,7.79,11.44,12.05,12.91,13.37,26.26,27.18,27.35,34.85,1.34,9.41-4.38,17.58-16.12,23-2.92,1.35-5.68,3.09-8.35,4.78-5.53,3.5-10.83,6.84-17.29,6.84Z"/></svg>