<?xml version="1.0" encoding="UTF-8"?><svg id="Calque_5" xmlns="http://www.w3.org/2000/svg" viewBox="0 0 1338.44 1121.39"><defs><style>.cls-1{fill:#1d1d1b;}</style></defs><path class="cls-1" d="m565.21,810.77c-4.91,0-8.25-1.46-15.62-4.68l-2-.87c-7.79-3.39-14.06-11.26-20.12-18.88-4.37-5.49-8.49-10.67-12.78-13.56-6.8-4.59-19.8-15.78-20.32-25.28-.17-3.02.96-5.59,3.36-7.63,10.23-8.7,86.19-28,89.42-28.82l.27,1.06c-.79.2-78.94,20.06-88.98,28.59-2.12,1.8-3.12,4.07-2.97,6.73.47,8.42,12.12,19.23,19.84,24.44,4.42,2.99,8.6,8.23,13.02,13.79,5.98,7.51,12.16,15.27,19.7,18.56l2,.87c11.39,4.98,12.85,5.62,25.36,3.35,8.22-1.49,17.29-15.07,26.07-28.21,5.19-7.76,10.08-15.09,14.66-19.71,12.38-12.5,90.59-20.84,126.7-6.39l-.41,1.02c-15.89-6.36-42.68-8.92-71.66-6.87-26.36,1.87-48,7.1-53.86,13.01-4.5,4.54-9.37,11.83-14.52,19.55-8.9,13.33-18.11,27.1-26.78,28.68-4.54.82-7.69,1.26-10.37,1.26Z"/></svg>