<?xml version="1.0" encoding="UTF-8"?><svg id="Calque_5" xmlns="http://www.w3.org/2000/svg" viewBox="0 0 1338.44 1121.39"><defs><style>.cls-1{fill:#1d1d1b;}</style></defs><path class="cls-1" d="m361.85,965.22c-1.38-1.29-33.99-31.72-41.12-45.49-5.6-10.8-25.85-55.21-22.61-75.18,1.11-6.86,1.63-14.98,2.13-22.83.9-14.04,1.82-28.56,6.11-37.8,1.67-3.59,3.48-7.21,5.4-11.05,5.7-11.38,11.59-23.15,13.73-34.45,1.35-7.14,11.32-19.6,26.65-33.35,14.91-13.37,30.49-23.93,40.65-27.56,21.85-7.8,68.38-18.49,82.29-16.43,13.38,1.98,62.63,17.73,77.04,24.14,3.62,1.61,8.39,3.48,13.43,5.46,14.8,5.81,31.57,12.4,35.04,18.05,1.02,1.66,2.43,2.36,4.19,2.07,5.39-.86,12.14-10.08,14.44-19.73,3.33-13.95,40.61-58.91,49.19-64.77,8.1-5.53,37.33-17.99,51.3-17.24,3.05.16,7.75.26,13.21.37,19.87.4,49.89,1,64.7,5.68,18.89,5.97,44.29,34.4,45.36,35.6l-.82.73c-.26-.29-26.26-29.41-44.87-35.29-14.66-4.63-44.59-5.23-64.39-5.63-5.46-.11-10.18-.2-13.24-.37-13.75-.74-42.62,11.58-50.62,17.05-8.51,5.81-45.45,50.32-48.74,64.12-2.44,10.21-9.46,19.62-15.33,20.55-2.21.35-4.05-.54-5.3-2.58-3.28-5.34-20.59-12.14-34.51-17.61-5.06-1.99-9.83-3.86-13.48-5.48-14.37-6.38-63.43-22.08-76.75-24.05-13.76-2.04-60.01,8.61-81.76,16.38-22.14,7.91-63.84,45.52-66.6,60.08-2.17,11.44-8.1,23.28-13.83,34.73-1.92,3.83-3.73,7.45-5.39,11.02-4.2,9.05-5.12,23.47-6.01,37.41-.5,7.88-1.02,16.03-2.14,22.94-2.9,17.91,13.91,57.93,22.5,74.51,7.05,13.6,40.56,44.88,40.9,45.19l-.75.8Z"/></svg>