<?xml version="1.0" encoding="UTF-8"?><svg id="Calque_5" xmlns="http://www.w3.org/2000/svg" viewBox="0 0 1338.44 1121.39"><defs><style>.cls-1{fill:#1d1d1b;}</style></defs><path class="cls-1" d="m859.81,973.54c-.34-.12-34.1-12.5-47.36-25.76-9.81-9.81-12.74-46.02-15.58-81.03-1.1-13.53-2.13-26.31-3.54-37.71-5.04-40.81-50.58-73.63-51.04-73.95l.63-.89c.12.08,11.72,8.39,23.8,21.67,11.16,12.28,25.03,31.45,27.69,53.04,1.41,11.42,2.45,24.21,3.55,37.75,2.82,34.82,5.74,70.82,15.27,80.34,13.09,13.09,46.63,25.38,46.96,25.5l-.37,1.03Z"/></svg>