<?xml version="1.0" encoding="UTF-8"?><svg id="Calque_5" xmlns="http://www.w3.org/2000/svg" viewBox="0 0 1338.44 1121.39"><defs><style>.cls-1{fill:#1d1d1b;}</style></defs><path class="cls-1" d="m524.21,788.51l-.33-.13v.02c-1.01-.74-100.18-73.76-121.25-76.27-21.25-2.53-67.4,8.69-73.49,11.74-1.5.75-2.37.29-2.83-.24-1.83-2.08-.17-8.69.63-11.43,1.64-5.64,4.31-11.54,7.14-15.78,6.27-9.4,36.13-39.73,53.38-56.97,6.61-6.62,5.1-9.01,5.08-9.04l.87-.67c.24.3,2.15,3.15-5.16,10.47-17.22,17.22-47.03,47.49-53.25,56.82-6.12,9.19-9.97,23.49-7.86,25.88.12.14.46.52,1.52-.02,6.15-3.07,52.69-14.4,74.11-11.85,21.69,2.58,120.76,75.74,121.75,76.48l.05.05-.36.38v.57Z"/></svg>