<?xml version="1.0" encoding="UTF-8"?><svg id="Calque_5" xmlns="http://www.w3.org/2000/svg" viewBox="0 0 1338.44 1121.39"><defs><style>.cls-1{fill:#1d1d1b;}</style></defs><path class="cls-1" d="m503.21,903.46l-1.05-.32c.05-.17,5.26-17.14,13.94-27.87,8.44-10.42,5.1-16.93-.54-24.97-2.04-2.92-12.48-8.54-24.57-15.06-20.82-11.21-46.72-25.17-54.46-37.51-12.26-19.54-13.57-32.7-4.52-45.41,6.87-9.66,35.52-18.84,58.55-26.22,6.37-2.04,12.39-3.97,17.07-5.65,20.86-7.46,79.04-9.41,79.63-9.43l.04,1.09c-.58.02-58.6,1.96-79.29,9.37-4.71,1.68-10.73,3.61-17.11,5.66-21.66,6.94-51.33,16.44-57.99,25.81-8.74,12.29-7.42,25.09,4.56,44.2,7.59,12.1,34.44,26.57,54.06,37.13,12.71,6.85,22.76,12.26,24.95,15.39,5.72,8.17,9.39,15.29.49,26.29-8.55,10.56-13.69,27.33-13.74,27.5Z"/></svg>