<?xml version="1.0" encoding="UTF-8"?><svg id="Calque_5" xmlns="http://www.w3.org/2000/svg" viewBox="0 0 1338.44 1121.39"><defs><style>.cls-1{fill:#1d1d1b;}</style></defs><path class="cls-1" d="m503.21,903.46l-1.05-.32c.06-.2,6.16-20.33,5.62-27.2-.05-.65-.08-1.26-.12-1.84-.3-5.58-.45-8.38-17.05-18.28-7.76-4.63-36.59-8.63-67.12-12.86-5.98-.83-12.17-1.69-18.2-2.55-7.06-1.01-13.4-1.83-19-2.56-19.09-2.47-30.62-3.97-40.12-8.83-5.15-2.63-9.11-8.41-11.47-16.7-1.76-6.21-2.02-11.73-2.02-11.79-.02-2.48.08-4.69.29-6.61,1.61-14.9,6.24-43.93,13.38-58.22,7.04-14.09,56.03-76.09,68.07-87.31,11.57-10.77,43.78-32.29,61.58-33.31,9.22-.52,29.11,4.81,50.16,10.45,19.71,5.29,40.1,10.75,55.02,12.46,23.2,2.66,30.23-.65,38.38-4.49,2.84-1.34,5.78-2.72,9.57-3.97,15.47-5.09,30.67-17.83,27.84-27.24-2.97-9.89-12.94-14.76-13.04-14.81l.47-.99c.43.2,10.51,5.12,13.62,15.48,3.09,10.29-12.57,23.33-28.55,28.59-3.73,1.23-6.64,2.6-9.45,3.92-8.3,3.91-15.46,7.28-38.97,4.59-15.01-1.72-35.43-7.2-55.18-12.49-20.97-5.62-40.78-10.94-49.82-10.42-17.54,1-49.43,22.34-60.89,33.02-12,11.18-60.82,72.96-67.83,86.99-7.08,14.15-11.67,43.02-13.27,57.85-.2,1.88-.3,4.06-.28,6.47,0,.19,1.08,21.5,12.89,27.54,9.34,4.78,20.79,6.26,39.77,8.72,5.6.73,11.94,1.55,19.01,2.56,6.03.86,12.22,1.72,18.2,2.55,30.64,4.25,59.57,8.26,67.53,13,17.1,10.19,17.26,13.19,17.58,19.16.03.57.06,1.18.11,1.82.56,7.08-5.41,26.77-5.66,27.6Z"/></svg>