<?xml version="1.0" encoding="UTF-8"?><svg id="Calque_5" xmlns="http://www.w3.org/2000/svg" viewBox="0 0 1338.44 1121.39"><defs><style>.cls-1{fill:#1d1d1b;}</style></defs><path class="cls-1" d="m815.03,1018.49c-26.19,0-55.73-5.2-80.37-18.33-24.55-13.07-35.03-39.44-39.49-59.25-4.83-21.42-3.87-40.02-3.86-40.2l1.09.06c-.01.18-.96,18.65,3.84,39.93,4.42,19.58,14.76,45.63,38.93,58.5,24.5,13.05,53.87,18.22,79.87,18.22,23.33,0,43.96-4.16,55.97-10.54,29.54-15.67,46.14-30.94,50.75-46.67,2.43-8.29,1.32-16.65-3.3-24.86-4.97-8.83-13.77-18.75-23.08-29.25-25.34-28.57-56.88-64.12-36.91-105.57l.99.47c-8.74,18.14-8.27,36.67,1.43,56.65,8.47,17.44,22.73,33.52,35.32,47.71,9.35,10.54,18.19,20.5,23.22,29.44,4.77,8.48,5.91,17.12,3.39,25.7-4.7,16.03-21.48,31.51-51.29,47.33-12.12,6.43-32.96,10.64-56.5,10.64Z"/></svg>