<?xml version="1.0" encoding="UTF-8"?><svg id="Calque_5" xmlns="http://www.w3.org/2000/svg" viewBox="0 0 1338.44 1121.39"><defs><style>.cls-1{fill:#1d1d1b;}</style></defs><path class="cls-1" d="m691.49,901.16c-.53-.45-53.14-45.01-93.99-46.52-33.62-1.25-106.94-26.77-135.45-58.13-8.63-9.49-12.73-18.93-12.2-28.06.6-10.25,8.25-19.65,22.74-27.93,11.5-6.57,27.34-12.48,47.07-17.55,33.55-8.63,67.22-11.9,67.56-11.93l.1,1.09c-.34.03-33.93,3.3-67.4,11.91-30.75,7.91-67.67,22.04-68.98,44.48-.51,8.82,3.5,18,11.92,27.26,28.34,31.17,101.24,56.53,134.68,57.77,11.91.44,32.5,4.96,63,23.98,18.22,11.36,31.53,22.68,31.66,22.8l-.71.83Z"/></svg>