<?xml version="1.0" encoding="UTF-8"?><svg id="Calque_5" xmlns="http://www.w3.org/2000/svg" viewBox="0 0 1338.44 1121.39"><defs><style>.cls-1{fill:#1d1d1b;}</style></defs><path class="cls-1" d="m560.15,825.92c-8.58,0-17.24-5.86-25.27-17.19-7.04-9.93-11.21-20.7-11.25-20.81l1.02-.39c.04.11,4.17,10.76,11.13,20.58,6.37,8.97,16.48,19.07,28.51,16.23,12.18-2.88,23.72-9.12,32.49-17.58,9.73-9.38,16-21.32,18.14-34.52,1.96-12.1,24.11-18.82,65.82-19.97,30.88-.86,61.59,1.8,61.9,1.83l-.1,1.09c-1.22-.11-122.07-10.4-126.55,17.23-2.18,13.44-8.56,25.59-18.46,35.13-8.91,8.59-20.63,14.93-33,17.86-1.46.34-2.93.52-4.39.52Z"/></svg>