<?xml version="1.0" encoding="UTF-8"?><svg id="Calque_5" xmlns="http://www.w3.org/2000/svg" viewBox="0 0 1338.44 1121.39"><defs><style>.cls-1{fill:#1d1d1b;}</style></defs><path class="cls-1" d="m603.71,705.89c-.4,0-.8-.05-1.21-.16-6.49-1.78-13.2-7.05-20.3-12.62-2.29-1.79-4.66-3.65-7.05-5.41-9.55-7.04-90.45-28.91-104.36-31.69-12.66-2.53-72.21,14.75-81.74,17.92-4.18,1.39-5.68,1.71-6.32.84-.86-1.16.77-3.43,6.17-10.96,1.08-1.5,2.28-3.18,3.62-5.07,11.44-16.12,56.96-51.88,66.34-56.56,6.11-3.05,20.28,2.83,34,8.51,7.9,3.28,15.37,6.37,21.3,7.85,17.31,4.31,72.92,6.29,83.9,6.65.38.01.77.02,1.16.02,16.32,0,41.6-10.58,45.26-21.69,3.72-11.28-.64-16.09-.69-16.14l.79-.76c.2.21,4.88,5.27.94,17.24-1.82,5.53-8.85,11.35-19.27,15.96-9.57,4.23-20.38,6.71-28.22,6.45-10.99-.35-66.71-2.34-84.13-6.68-6.01-1.5-13.51-4.61-21.45-7.9-13.48-5.59-27.43-11.38-33.09-8.55-9.08,4.54-54.88,40.64-65.93,56.22-1.34,1.89-2.55,3.58-3.63,5.08-3.59,5.01-6.43,8.96-6.17,9.69.45.3,3.7-.78,5.09-1.24,9.57-3.19,69.43-20.54,82.3-17.96,11.37,2.27,94.76,24.48,104.8,31.88,2.41,1.77,4.78,3.63,7.08,5.43,7.01,5.5,13.64,10.69,19.92,12.42,6.95,1.91,14.62-18.89,18.31-28.89.59-1.59,1.09-2.96,1.54-4.1,1.99-5.11,11.57-17.07,20.18-26.65,11.15-12.4,20.74-21.17,25.67-23.47,1.85-.86,4.04-2,6.59-3.32,6.26-3.26,14.06-7.31,23.14-10.59,10.79-3.9,20.62-5.71,30.04-5.52,7.7.15,27.85.9,48.72,4.47,20.55,3.52,34.8,8.58,42.36,15.04,16.82,14.36,23.66,29.08,23.72,29.22l-1,.46c-.07-.14-6.82-14.65-23.44-28.85-7.41-6.33-21.49-11.31-41.84-14.8-20.79-3.56-40.88-4.3-48.56-4.46-.42,0-.84-.01-1.26-.01-20.61,0-39.82,9.99-51.38,16-2.55,1.33-4.76,2.48-6.63,3.34-10.34,4.81-41.62,40.09-45.29,49.52-.44,1.13-.94,2.5-1.53,4.08-4.16,11.27-10.98,29.73-18.42,29.73Z"/></svg>