<?xml version="1.0" encoding="UTF-8"?><svg id="Calque_5" xmlns="http://www.w3.org/2000/svg" viewBox="0 0 1338.44 1121.39"><defs><style>.cls-1{fill:#1d1d1b;}</style></defs><path class="cls-1" d="m555.78,1000.14c-.24-.26-24.11-26.05-56.62-51-19.08-14.65-37.36-26.14-54.32-34.17-21.17-10.01-40.33-14.61-56.96-13.69-32.7,1.83-59.04-7.07-76.15-25.73-16.17-17.63-23.19-43.48-19.26-70.92,3.42-23.84,13.28-56.13,26.38-86.38,13.47-31.11,27.48-53.7,38.43-61.97,22.81-17.23,35.25-26.57,35.37-26.66l.66.88c-.12.09-12.57,9.43-35.37,26.66-10.64,8.04-24.88,31.05-38.08,61.53-13.06,30.17-22.89,62.35-26.3,86.1-3.88,27.11,3.03,52.63,18.98,70.02,16.89,18.41,42.92,27.18,75.28,25.38,16.81-.95,36.16,3.7,57.49,13.79,17.04,8.06,35.38,19.6,54.53,34.29,32.58,25.01,56.5,50.85,56.74,51.11l-.81.74Z"/></svg>