<?xml version="1.0" encoding="UTF-8"?><svg id="Calque_5" xmlns="http://www.w3.org/2000/svg" viewBox="0 0 1338.44 1121.39"><defs><style>.cls-1{fill:#1d1d1b;}</style></defs><path class="cls-1" d="m860.37,973.42l-.75-.8c.1-.09,10.14-9.58,17.84-23.68,8.52-15.59,30.43-70.98,25.25-90.66-2.52-9.58-11.45-29.27-20.9-50.11-10.36-22.84-22.09-48.72-27.46-65.91-1.92-6.15-3.78-11.76-5.43-16.71-7.18-21.63-11.51-34.68-6.88-50.26,1-3.37,2.02-6.49,2.92-9.25,4.23-12.94,6.78-20.74.23-30.27-14.73-21.42-30.58-27.69-41.21-30.54-15.02-4.03-46.33-4.91-69.19-5.55-9.06-.25-16.88-.47-21.95-.84-7.05-.5-14.25-.7-21.22-.88-10.77-.29-20.95-.56-29.07-1.94-1.24-.21-2.45-.42-3.63-.63-11.22-1.97-20.08-3.53-32.5.61-13.59,4.53-65.29,5.78-79.74,2.84-1.5-.31-3.36-.68-5.51-1.11-17.8-3.58-54.83-11.03-65.85-15.6-11.81-4.9-44.1,3.85-60.27,11.79-11.73,5.76-23.29,21.19-21.51,36.07l-1.09.13c-1.43-11.96,6.62-29.58,22.11-37.19,8.36-4.1,20.52-8.22,31.74-10.75,13.39-3.01,23.85-3.4,29.43-1.08,10.92,4.53,47.88,11.97,65.64,15.54,2.15.43,4.01.81,5.51,1.11,14.35,2.93,65.69,1.69,79.18-2.81,12.68-4.23,21.66-2.65,33.03-.65,1.18.21,2.39.42,3.63.63,8.05,1.37,18.19,1.64,28.92,1.93,6.98.19,14.2.38,21.27.89,5.05.36,12.86.58,21.91.83,22.92.64,54.3,1.52,69.45,5.59,22.56,6.05,34.68,20.58,41.83,30.98,6.86,9.97,4.24,17.97-.09,31.23-.9,2.75-1.92,5.87-2.91,9.22-4.53,15.24-.24,28.18,6.87,49.6,1.64,4.95,3.51,10.56,5.43,16.72,5.35,17.13,17.08,42.98,27.42,65.79,9.47,20.89,18.42,40.62,20.96,50.29,5.25,19.95-16.78,75.77-25.35,91.46-7.79,14.25-17.95,23.85-18.05,23.95Z"/></svg>