<?xml version="1.0" encoding="UTF-8"?><svg id="Calque_5" xmlns="http://www.w3.org/2000/svg" viewBox="0 0 1338.44 1121.39"><defs><style>.cls-1{fill:#1d1d1b;}</style></defs><path class="cls-1" d="m556.19,1000.19l-.39-1.02c.39-.15,39.46-14.91,59.11-16.44,18.75-1.46,18.5-9.59,17.99-25.78l-.04-1.34c-.26-8.7-9.66-17.5-23.9-30.81-12.85-12.02-28.83-26.98-44.98-48.33-23.02-30.44-31.76-29.77-41.87-29-4.8.37-10.24.78-17.62-2.09-10.95-4.27-30.17-16.15-47.84-29.57-28.02-21.28-34.15-31.99-35.49-35.6-6.21-16.83,3.33-26.63,22.19-43.91,15.47-14.19,45.79-18.99,65.84-22.16,4-.63,7.46-1.18,10.29-1.73,16.79-3.23,67.28-1.39,67.79-1.37l-.04,1.09c-.51-.02-50.88-1.85-67.54,1.35-2.85.55-6.32,1.1-10.33,1.73-19.93,3.16-50.04,7.93-65.27,21.89-18.5,16.95-27.87,26.56-21.9,42.73,6.13,16.59,60.55,55.9,82.7,64.53,7.14,2.78,12.22,2.4,17.14,2.02,10.43-.79,19.44-1.48,42.82,29.43,16.09,21.27,32.04,36.2,44.86,48.19,14.43,13.51,23.96,22.43,24.24,31.58l.04,1.34c.49,15.82.79,25.37-19,26.91-19.49,1.51-58.41,16.22-58.8,16.37Z"/></svg>