<?xml version="1.0" encoding="UTF-8"?><svg id="Calque_5" xmlns="http://www.w3.org/2000/svg" viewBox="0 0 1338.44 1121.39"><defs><style>.cls-1{fill:#1d1d1b;}</style></defs><path class="cls-1" d="m556.19,1000.19l-.37-1.03c.58-.21,57.92-21.08,66.96-30.12,2.83-2.83,4.11-5.22,4.03-7.52-.15-4.1-4.57-7.92-11.26-13.69-.96-.83-1.96-1.69-3-2.6-9.74-8.52-27.86-24.37-51.88-61.63-15.02-23.29-47.43-39.29-71.09-50.96-11.95-5.9-22.27-10.99-27.74-15.63-15.97-13.55-26.38-36.05-25.31-54.72.1-1.67.86-2.94,2.28-3.75,13.17-7.59,82.71,27.43,85.66,28.93l-.49.98c-.72-.36-71.96-36.25-84.62-28.96-1.09.63-1.66,1.57-1.73,2.87-1.05,18.35,9.2,40.48,24.93,53.82,5.37,4.56,15.64,9.62,27.52,15.49,23.78,11.73,56.35,27.8,71.53,51.35,23.94,37.13,41.98,52.92,51.68,61.4,1.04.91,2.03,1.77,2.99,2.59,6.9,5.96,11.47,9.9,11.63,14.48.1,2.63-1.28,5.27-4.34,8.33-9.21,9.21-64.99,29.51-67.36,30.37Z"/></svg>