<?xml version="1.0" encoding="UTF-8"?><svg id="Calque_5" xmlns="http://www.w3.org/2000/svg" viewBox="0 0 1338.44 1121.39"><defs><style>.cls-1{fill:#1d1d1b;}</style></defs><path class="cls-1" d="m636.84,1000.78c-1.31,0-2.58-.19-3.8-.58-11.54-3.71-76.35-.01-77.01.03l-.06-1.09c2.68-.16,65.67-3.75,77.41.03,4.76,1.53,9.55-.53,12.72-2.52,7.08-4.45,12.71-12.51,13.32-16.96,1.07-7.72-1.43-40.65-6.41-47.45-4.97-6.77-25.06-26.28-33.26-31.01-3.51-2.02-4.83-3.31-4.55-4.44.34-1.37,2.75-1.57,6.68-1.73,1.51-.07,6.44.66,13.26,1.65,17.45,2.55,46.65,6.81,56.53,3.52l.35,1.04c-10.13,3.38-39.49-.91-57.04-3.48-6.51-.95-11.65-1.7-13.06-1.64-1.5.06-5.5.23-5.66.9,0,.03-.15.82,4.03,3.23,8.29,4.78,28.58,24.48,33.6,31.31,5.5,7.5,7.58,41.28,6.61,48.25-.65,4.69-6.49,13.12-13.83,17.73-3.4,2.14-6.74,3.22-9.85,3.22Z"/></svg>