<?xml version="1.0" encoding="UTF-8"?><svg id="Calque_5" xmlns="http://www.w3.org/2000/svg" viewBox="0 0 1338.44 1121.39"><defs><style>.cls-1{fill:#1d1d1b;}</style></defs><path class="cls-1" d="m858.31,963.1c-9.48,0-27.8-10.4-34.11-18.16-6.66-8.19-15.02-22.5-17.07-44.15-.67-7.1-.78-17.61-.9-29.78-.23-23.38-.52-52.47-5.44-66.1-3.6-9.97-11.77-21-22.4-30.27-11.16-9.72-23.91-16.63-35.91-19.46l.25-1.07c12.17,2.87,25.09,9.87,36.37,19.7,10.77,9.38,19.05,20.58,22.71,30.72,4.99,13.81,5.28,43.01,5.51,66.47.12,12.15.22,22.64.89,29.69,2.03,21.37,10.27,35.49,16.83,43.56,6.72,8.27,25.71,18.22,33.89,17.74,5.33-.31,5.65-4.98,5.8-14.65.06-3.95.14-8.42.71-13.34,1.55-13.2-1.71-17.72-8.19-26.73-1.31-1.82-2.8-3.89-4.38-6.22-8.6-12.68-18.34-27.06-25.18-45.5-6.96-18.79-.54-45.43,2.54-58.23,2.65-11.01,15.48-22.63,26.8-32.87,4.06-3.67,7.89-7.14,10.76-10.18,8.29-8.76,25.53-26.99,17.29-65.36-4.22-19.65-21.73-40-35.67-53.62-15.49-15.13-33.2-28.25-42.01-32.92-12.99-6.89-55.3-7.45-92.63-7.95-9.05-.12-17.6-.23-25.51-.43-40.81-1.02-45.36-6.42-45.53-6.65l.87-.66-.44.33.42-.35c.19.21,5,5.24,44.7,6.23,7.91.2,16.45.31,25.5.43,37.45.5,79.91,1.06,93.13,8.08,8.87,4.7,26.69,17.91,42.26,33.1,14.05,13.72,31.7,34.26,35.98,54.17,3.51,16.33,2.91,30.3-1.82,42.69-3.94,10.33-10.18,17.75-15.75,23.65-2.9,3.07-6.75,6.55-10.82,10.24-10.64,9.64-23.89,21.63-26.47,32.32-3.06,12.7-9.43,39.12-2.58,57.59,6.79,18.32,16.5,32.64,25.06,45.27,1.57,2.32,3.05,4.38,4.36,6.19,6.44,8.95,9.99,13.88,8.39,27.5-.57,4.87-.64,9.31-.71,13.23-.14,8.9-.25,15.34-6.83,15.73-.23.01-.46.02-.7.02Z"/></svg>