<?xml version="1.0" encoding="UTF-8"?><svg id="Calque_5" xmlns="http://www.w3.org/2000/svg" viewBox="0 0 1338.44 1121.39"><defs><style>.cls-1{fill:#1d1d1b;}</style></defs><path class="cls-1" d="m897.88,879.86c-.17,0-.35-.02-.53-.06-2.39-.52-4.54-4.43-7.51-9.84-1.6-2.9-3.4-6.19-5.49-9.33-4.29-6.46-8.34-19.72-11.92-31.42-2.04-6.66-3.96-12.95-5.63-16.94-4.31-10.34-7.86-10.95-7.89-10.95l.11-1.09c.42.04,4.23.69,8.79,11.62,1.69,4.04,3.62,10.36,5.66,17.04,3.56,11.63,7.59,24.81,11.79,31.13,2.11,3.18,3.93,6.49,5.53,9.41,2.62,4.77,4.88,8.89,6.79,9.3.43.09.83-.01,1.27-.34,3.28-2.46,1.51-17.61-1.93-31.31-1.45-5.79-11.53-26.9-22.2-49.25-10.83-22.68-22.03-46.14-25.88-56.99-7.67-21.64-9.15-26.81-10.57-43.31-1.39-16.21,3.7-46.25,3.76-46.55l1.08.18c-.05.3-5.13,30.2-3.74,46.27,1.41,16.38,2.88,21.52,10.51,43.04,3.83,10.79,15.01,34.22,25.83,56.88,10.7,22.4,20.8,43.56,22.28,49.45.73,2.89,6.94,28.39,1.52,32.45-.52.39-1.07.59-1.63.59Z"/></svg>