<?xml version="1.0" encoding="UTF-8"?><svg id="Calque_5" xmlns="http://www.w3.org/2000/svg" viewBox="0 0 1338.44 1121.39"><defs><style>.cls-1{fill:#1d1d1b;}</style></defs><path class="cls-1" d="m859.22,801.26l-.51-.97c.29-.15,29.55-15.51,38.28-28.28,9.22-13.49,18.25-33.17,17.61-46.71-.64-13.72-9.15-58.3-25.4-82.11-17.09-25.03-33.18-41.42-49.21-50.13-16.74-9.08-100.8-18.14-124.78-16.22-7.51.6-16.21.96-25.42,1.33-19.81.81-40.3,1.64-49.68,5.08-4.06,1.49-6.95,2.98-9.75,4.42-6.61,3.41-12.32,6.35-30.2,7.37-24.83,1.41-80.75-1.84-97.67-8.21-2.1-.79-4.12-1.6-6.08-2.39-13.35-5.35-24.89-9.97-49.12-3.76-4.28,1.1-8.27,2.09-11.8,2.96-19.95,4.94-29.96,7.43-37.3,15.04-8.46,8.78-9.48,23.65-4.75,31.08l-.92.59c-4.95-7.78-3.92-23.3,4.88-32.43,7.56-7.84,17.67-10.35,37.83-15.35,3.52-.87,7.52-1.86,11.79-2.96,24.58-6.29,36.27-1.61,49.8,3.81,1.95.78,3.97,1.59,6.06,2.38,7.37,2.78,23.86,5.3,45.26,6.92,19.16,1.45,39.56,1.93,51.96,1.23,17.65-1,23.26-3.9,29.76-7.25,2.83-1.46,5.75-2.97,9.88-4.48,9.54-3.49,30.12-4.33,50.01-5.15,9.2-.38,17.88-.73,25.37-1.33,24.07-1.93,108.55,7.21,125.39,16.35,16.19,8.79,32.41,25.3,49.6,50.47,16.38,23.99,24.94,68.87,25.59,82.68.47,9.94-4.86,28.45-17.8,47.38-8.89,13-37.47,28-38.68,28.63Z"/></svg>