<?xml version="1.0" encoding="UTF-8"?><svg id="Calque_5" xmlns="http://www.w3.org/2000/svg" viewBox="0 0 1338.44 1121.39"><defs><style>.cls-1{fill:#1d1d1b;}</style></defs><path class="cls-1" d="m635.03,1006.51c-2.87,0-5.58-.4-7.89-1.26-8.98-3.37-70.53-5-71.15-5.02l.03-1.1c2.54.07,62.36,1.65,71.51,5.09,8.83,3.32,24.67-.77,29.72-7.67,5.45-7.43,9.13-25.4,5.56-41.46-.99-4.45-1.48-8.43-1.91-11.94-1.21-9.83-2.08-16.94-12.78-24.45-3.77-2.65-7.66-5.24-11.1-7.53-10.94-7.29-13.65-9.28-13.09-10.62.29-.71,1.28-.81,3.52-.34,2.74.56,10.4,1.62,20.1,2.96,24.82,3.44,62.32,8.63,70.94,12.7,12.32,5.82,21.72,13.05,29.57,22.75,21.63,26.72,40.58,32.1,46.8,33.87,16.65,4.73,38.29,6.28,47.42.07,8.27-5.62,11.89-13.9,10.74-24.6-.43-4.05-.3-7.07-.18-9.74.27-5.93.45-9.85-6.31-19.19-1.52-2.09-3.39-4.56-5.37-7.17-11.19-14.74-28.1-37.02-30.51-56.45-2.58-20.79-5.38-49.8.05-61.66,2.95-6.45,7.78-11.31,12.45-16.01,3.6-3.62,6.99-7.04,9.23-10.9,5.17-8.93,3.05-18.19-1.47-35.14-1.08-4.06-2.39-8.5-3.66-12.78-4.35-14.72-8.84-29.94-6.7-37.56,4.5-16.01,12.05-26.66,21.82-30.78l.43,1.01c-9.45,3.99-16.78,14.39-21.19,30.07-2.06,7.31,2.39,22.38,6.69,36.96,1.27,4.29,2.58,8.73,3.67,12.81,4.6,17.23,6.75,26.66,1.36,35.97-2.31,3.98-5.75,7.45-9.4,11.12-4.61,4.63-9.37,9.43-12.23,15.7-5.31,11.61-2.52,40.41.05,61.07,2.37,19.14,19.18,41.28,30.3,55.92,1.98,2.61,3.86,5.08,5.38,7.19,6.99,9.65,6.8,13.72,6.52,19.88-.12,2.62-.26,5.6.17,9.57,1.19,11.13-2.58,19.75-11.21,25.62-6.9,4.69-24.97,6.71-48.33.07-25.51-7.25-41.95-27.56-47.36-34.24-7.74-9.56-17.02-16.7-29.18-22.45-8.46-4-45.87-9.18-70.62-12.61-9.72-1.35-17.4-2.41-20.17-2.98-1.37-.28-1.96-.28-2.21-.25.71,1.29,6.75,5.32,12.61,9.22,3.44,2.29,7.35,4.9,11.12,7.55,11.1,7.79,12,15.1,13.24,25.22.43,3.49.91,7.44,1.89,11.84,2.2,9.91,1.51,18.99.54,24.87-1.19,7.21-3.54,13.74-6.28,17.48-4.07,5.55-14.3,9.31-23.11,9.31Z"/></svg>