<?xml version="1.0" encoding="UTF-8"?><svg id="Calque_5" xmlns="http://www.w3.org/2000/svg" viewBox="0 0 1338.44 1121.39"><defs><style>.cls-1{fill:#1d1d1b;}</style></defs><path class="cls-1" d="m859.22,973.59c-15.25,0-61.56-19.12-69.44-35.94-5.65-12.05-5.54-45.14-5.47-69.31.03-9.12.05-16.99-.23-22.15-1.02-18.93-14.86-42.42-24.02-57.96-9.55-16.2-29.45-24.11-44.93-24.75-20.25-.84-75.42,1.28-85.45,11.3-7.43,7.43-13.87,17.06-19.55,25.56-2.49,3.73-4.85,7.25-7.05,10.22-7.45,10.06-43.8,20.45-56.2,23.09-5.81,1.24-14.41,7.39-23.58,16.88-7.95,8.22-15.23,17.89-18.11,24.07-.14.31-14.48,32.53-26.33,48.29-11.74,15.61-35.12,21.55-46.65,16.06-10.2-4.86-39.12-2.18-51.88,2.08-11.88,3.96-17.53,23.75-17.59,23.95l-1.05-.29c.23-.84,5.86-20.55,18.3-24.7,11.77-3.92,41.42-7.4,52.7-2.03,5.25,2.5,13.73,2.46,22.15-.09,9.53-2.89,17.75-8.44,23.15-15.63,11.77-15.66,26.06-47.76,26.2-48.08,5.54-11.89,28.69-38.62,42.46-41.56,15.55-3.32,48.91-13.7,55.55-22.67,2.19-2.96,4.54-6.46,7.02-10.18,5.71-8.54,12.18-18.21,19.69-25.72,11.11-11.11,70.46-12.28,86.27-11.62,15.78.66,36.07,8.73,45.83,25.29,9.21,15.63,23.13,39.26,24.17,58.46.28,5.18.26,13.07.23,22.21-.08,24.06-.18,57.01,5.36,68.84,3.33,7.1,15.25,16.06,31.91,23.97,14.78,7.02,30.11,11.69,37.29,11.32l.05,1.09c-.26.01-.53.02-.8.02Z"/></svg>