<?xml version="1.0" encoding="UTF-8"?><svg id="Calque_5" xmlns="http://www.w3.org/2000/svg" viewBox="0 0 1338.44 1121.39"><defs><style>.cls-1{fill:#1d1d1b;}</style></defs><path class="cls-1" d="m860.5,973.24l-1-.44c13.12-30.05,10.75-57.49,10.72-57.77-1.01-6.98-8.06-13.8-15.53-21.02-3.6-3.48-7.32-7.07-10.49-10.82-6.16-7.29-7.22-23.22-7.31-32.07-.13-13.63,1.85-28.66,5.15-39.23,3.98-12.74,12.47-18.65,23.2-26.14,7.43-5.18,15.84-11.04,24.6-20.44,22.44-24.1,18.28-53.27,5.13-89.67-6.54-18.1-18.42-35.14-35.31-50.63-13.99-12.84-31.06-24.05-48.08-31.59-16.06-7.11-60.73-8.33-95.38-8.1-37.58.25-71.79,2.21-72.13,2.23l-.06-1.09c.34-.02,34.57-1.98,72.18-2.23,50.55-.32,82.79,2.43,95.83,8.2,17.12,7.58,34.3,18.87,48.38,31.78,17.02,15.62,28.99,32.8,35.6,51.07,7.74,21.42,11.17,37.77,10.78,51.46-.43,15.26-5.71,28.12-16.14,39.32-8.83,9.48-17.3,15.39-24.77,20.59-10.57,7.37-18.91,13.18-22.78,25.56-6.84,21.87-7.3,59.34,1.95,70.27,3.14,3.71,6.84,7.29,10.41,10.74,7.61,7.35,14.79,14.3,15.86,21.68.03.3,2.43,28.03-10.81,58.33Z"/></svg>