<?xml version="1.0" encoding="UTF-8"?><svg id="Calque_5" xmlns="http://www.w3.org/2000/svg" viewBox="0 0 1338.44 1121.39"><defs><style>.cls-1{fill:#1d1d1b;}</style></defs><path class="cls-1" d="m567.05,803.42c-6.42,0-13.7-1.82-21.54-5.48-16.85-7.88-31.92-26.8-38.17-36.74-7.37-11.72-5.63-13.54,4.01-23.69l.15-.16c9.74-10.25,72.94-25.65,75.63-26.3l.26,1.06c-.65.16-65.57,15.97-75.09,25.99l-.15.16c-9.56,10.07-10.79,11.36-3.88,22.36,6.18,9.84,21.08,28.56,37.7,36.33,8.33,3.9,16.28,5.75,23,5.36,7.6-.44,13.6-3.65,17.85-9.55,4.06-5.63,10.81-24.68,18.64-46.73,9.8-27.61,20.9-58.91,30.05-73.21,8.44-13.18,20.88-26.89,34.14-37.62,14.7-11.89,28.94-18.82,40.1-19.54,21.6-1.38,82.92-1.56,106.96,13.93,22.93,14.78,26.21,20.98,26.34,21.23l-.98.49c-.03-.06-3.42-6.28-25.95-20.8-12.49-8.05-35.54-11.51-52.68-12.99-20.56-1.78-41.18-1.56-53.62-.77-10.94.7-24.96,7.55-39.48,19.3-13.17,10.65-25.53,24.27-33.91,37.36-9.08,14.19-20.16,45.42-29.94,72.98-7.85,22.13-14.63,41.24-18.78,47-4.79,6.65-11.93,10.02-20.66,10.02Z"/></svg>