<?xml version="1.0" encoding="UTF-8"?><svg id="Calque_5" xmlns="http://www.w3.org/2000/svg" viewBox="0 0 1338.44 1121.39"><defs><style>.cls-1{fill:#1d1d1b;}</style></defs><path class="cls-1" d="m565.62,817.13c-1.6,0-3.22-.13-4.84-.39-11.09-1.79-20.59-9.46-26.61-15.58-6.5-6.61-10.45-12.9-10.49-12.96l.93-.58c.15.25,15.66,24.71,36.35,28.04,8.99,1.45,17.73-1.29,25.97-8.13,13.32-11.07,19.71-32.79,27.12-57.94,5.39-18.3,11.49-39.05,21.27-58.32,11.24-22.15,25.61-38.96,43.93-51.4,15.75-10.7,34.16-16.78,54.72-18.09,16.43-1.04,34.26.94,52.99,5.9,31.88,8.45,55.66,22.79,55.89,22.94l-.57.94c-.24-.14-23.9-14.42-55.63-22.82-18.62-4.93-36.32-6.9-52.63-5.86-20.36,1.3-38.58,7.32-54.16,17.9-18.17,12.34-32.42,29.02-43.57,50.99-9.73,19.19-15.82,39.88-21.2,58.13-7.45,25.32-13.89,47.19-27.47,58.47-7.01,5.83-14.39,8.76-22,8.76Z"/></svg>