<?xml version="1.0" encoding="UTF-8"?><svg id="Calque_5" xmlns="http://www.w3.org/2000/svg" viewBox="0 0 1338.44 1121.39"><defs><style>.cls-1{fill:#1d1d1b;}</style></defs><path class="cls-1" d="m361.9,965.26c-.37-.27-37.12-27.68-47.82-46.02-10.41-17.85-19.64-47.63-20.58-66.38-.82-16.33,1.11-49.25,9.77-73.04,3.29-9.02,6.34-13.89,8.79-17.8,3.64-5.8,6.04-9.63,6.04-22.48,0-11.86,14.13-24.4,25.99-32.84,13.29-9.46,28.5-17.08,34.37-18.95.96-.31,2.28-.73,3.9-1.26,17.04-5.51,68.89-22.28,84.47-21.32,16.92,1.03,71.27,20.17,93.47,28.74,6.46,2.5,12.12,4.38,16.67,5.89,11.77,3.92,17.68,5.88,16.48,11.34-.83,3.76-5.19,5.43-11.8,7.96-6.48,2.47-15.35,5.86-25.33,12.91-21.98,15.52-23.78,20.23-19.29,30.71,4.73,11.04,11.91,25.35,19.3,30.82,1.92,1.42,4.83,1.78,8.43,1.04,7.62-1.56,16.6-7.71,18.96-11.75,3.9-6.69,26.44-39.72,38.71-44.83,12.13-5.05,104.68-7.46,120.62,16.32l-.91.61c-3.8-5.67-16.76-15.62-60.83-18.52-25.81-1.7-52.15-.03-58.46,2.6-12.02,5.01-34.31,37.73-38.19,44.37-2.52,4.32-11.67,10.63-19.69,12.27-3.97.81-7.1.4-9.31-1.24-7.59-5.62-14.88-20.11-19.66-31.27-5.22-12.19-.5-17.79,19.67-32.03,10.09-7.13,19.04-10.54,25.57-13.04,6.28-2.4,10.42-3.98,11.12-7.17.95-4.32-3.84-6.1-15.75-10.06-4.56-1.52-10.24-3.4-16.72-5.91-22.14-8.56-76.34-27.65-93.14-28.67-15.37-.93-67.08,15.78-84.07,21.27-1.62.52-2.94.95-3.91,1.26-11.38,3.62-59.6,29.55-59.6,50.74,0,13.17-2.47,17.11-6.21,23.07-2.43,3.87-5.45,8.68-8.69,17.59-8.6,23.63-10.52,56.37-9.71,72.61.93,18.61,10.09,48.16,20.43,65.88,10.59,18.15,47.16,45.42,47.53,45.69l-.65.88Z"/></svg>