<?xml version="1.0" encoding="UTF-8"?><svg id="Calque_5" xmlns="http://www.w3.org/2000/svg" viewBox="0 0 1338.44 1121.39"><defs><style>.cls-1{fill:#1d1d1b;}</style></defs><path class="cls-1" d="m821.76,1026.56c-8.39,0-18.41-.64-30.44-2.42-32.95-4.87-36.54-6.97-43.7-11.15-2.11-1.23-4.5-2.62-8.06-4.33-18.15-8.69-33.35-22.68-41.68-38.37-5.14-9.67-8.44-20.58-11.35-30.21-2.39-7.9-4.45-14.72-6.93-18.72-5.47-8.82-52.69-26.8-61.04-27.63-6.98-.69-9.86.05-10.23.98-.12.31-.12,1.25,2.54,3.33,1.36,1.06,3.45,2.33,5.87,3.81,9.41,5.74,25.16,15.34,32.2,32.67,8.65,21.31,6.93,44.04-.1,51.89l-.46.51c-6.49,7.25-8.24,9.21-22.71,9.09-1.82-.01-3.86-.05-6.08-.08-15.95-.26-40.05-.66-63.47,4.29l-.23-1.07c23.55-4.97,47.72-4.58,63.72-4.31,2.22.04,4.25.07,6.07.08,13.98.1,15.5-1.59,21.89-8.72l.46-.51c6.81-7.61,8.4-29.81-.1-50.75-6.9-17-22.46-26.48-31.75-32.15-2.45-1.49-4.56-2.78-5.97-3.88-2.43-1.88-3.37-3.39-2.89-4.6.71-1.78,4.53-2.34,11.35-1.66,8.44.83,56.28,19.14,61.86,28.14,2.56,4.13,4.64,11.01,7.05,18.98,2.9,9.58,6.18,20.43,11.27,30.01,8.23,15.49,23.24,29.31,41.19,37.9,3.6,1.72,6.01,3.13,8.13,4.37,7.04,4.11,10.57,6.17,43.31,11.01,31.91,4.72,49.64,1.38,60.23-.61,3.45-.65,6.17-1.16,8.29-1.16,7.87,0,45.14-17.71,57.17-31.24,8.03-9.03,12.1-22.73,12.1-40.72,0-7.56-2.23-27.14-22.89-45.61-23.23-20.77-41.31-45.54-43.96-60.22-2.8-15.5-3.99-42.42-4-42.69l1.09-.05c.01.27,1.2,27.12,3.98,42.54,2.61,14.47,20.55,38.98,43.61,59.6,20.99,18.77,23.25,38.72,23.25,46.43,0,18.27-4.17,32.21-12.38,41.45-12.49,14.04-49.77,31.6-57.99,31.6-2.02,0-4.7.5-8.09,1.14-6.66,1.26-16.14,3.04-30.15,3.04Z"/></svg>