<?xml version="1.0" encoding="UTF-8"?><svg id="Calque_5" xmlns="http://www.w3.org/2000/svg" viewBox="0 0 1338.44 1121.39"><defs><style>.cls-1{fill:#1d1d1b;}</style></defs><path class="cls-1" d="m362.22,965.37c-.17,0-16.92-.17-34.52-4.05-23.43-5.16-37.73-14.53-41.36-27.1-4.49-15.59-9.46-51.16-11.81-84.57-3.91-55.52.6-76.42,3.63-83.93,4.58-11.36,20.46-23.16,43.55-32.36,27.73-11.05,67.87-18.25,90.47-7.92,16.89,7.72,40.05,21.79,60.48,34.2,22.84,13.87,44.41,26.98,51.62,27.78l-.12,1.09c-7.46-.83-28.13-13.39-52.07-27.93-20.4-12.4-43.53-26.45-60.36-34.14-22.3-10.19-62.08-3.03-89.61,7.94-22.82,9.09-38.47,20.67-42.94,31.75-7.24,17.95-4.89,64.33-3.55,83.45,2.35,33.35,7.3,68.82,11.77,84.34,4.43,15.36,24.48,22.8,40.52,26.33,17.49,3.85,34.15,4.03,34.31,4.03v1.1Z"/></svg>