<?xml version="1.0" encoding="UTF-8"?><svg id="Calque_5" xmlns="http://www.w3.org/2000/svg" viewBox="0 0 1338.44 1121.39"><defs><style>.cls-1{fill:#1d1d1b;}</style></defs><path class="cls-1" d="m798.4,1013.59c-25.38,0-47.27-7.68-65.11-22.85-17.95-15.26-27.24-34.55-31.18-44.69-5.42-13.93-6.2-23.9-6.96-33.55-.75-9.6-1.53-19.53-6.88-33.47-6.28-16.37-32.69-28.46-47.87-34.2-20.73-7.85-46.16-13.6-61.85-13.99-15.28-.38-29.4-11.98-38.55-21.64-9.88-10.43-16.26-20.91-16.32-21.01l.94-.57c.25.41,25.38,41.41,53.96,42.12,13.36.33,37.77,4.81,62.21,14.06,15.35,5.81,42.07,18.07,48.51,34.84,5.41,14.09,6.19,24.1,6.95,33.78.75,9.57,1.53,19.46,6.89,33.24,3.91,10.04,13.11,29.15,30.87,44.25,18.31,15.57,40.94,23.17,67.29,22.56,26.67-.61,53.83-6.94,76.47-17.82,19.29-9.27,32.91-20.76,35.55-29.97,4.57-15.98-3.04-34.4-20.34-49.27-16.21-13.94-40.7-46.51-43.76-67.9-3.06-21.45,9.15-46.72,9.28-46.97l.98.48c-.12.25-12.19,25.22-9.18,46.33,2.97,20.82,27.68,53.72,43.39,67.22,17.63,15.16,25.36,34,20.68,50.4-2.72,9.5-16.56,21.25-36.12,30.66-22.78,10.95-50.09,17.32-76.92,17.93-.98.02-1.95.03-2.91.03Z"/></svg>