<?xml version="1.0" encoding="UTF-8"?><svg id="Calque_5" xmlns="http://www.w3.org/2000/svg" viewBox="0 0 1338.44 1121.39"><defs><style>.cls-1{fill:#1d1d1b;}</style></defs><path class="cls-1" d="m818.26,1024.15c-34.02,0-79.47-12.75-95.96-24.01-9.36-6.4-16.57-19.56-20.97-29.48-5.4-12.19-8.82-24.36-10.11-31.08-.85-4.44-1.09-8.05-1.32-11.54-.48-7.3-.9-13.61-6.99-24.46-8.47-15.11-97.63-40.51-114.84-44.89-1.69-.43-2.81-.38-3.18.15-1.35,1.97,4.54,10.29,8.44,15.79l1.04,1.48c3.26,4.62,17.51,16.82,31.28,28.62,11.87,10.17,24.15,20.69,29.16,26.18,10.5,11.5,8.54,37.95,7.9,46.64l-.07.93c-.56,7.82-18.71,15.42-31.48,17.42-13.42,2.11-30.3,9.46-37.48,13.77-9.29,5.57-27.46-1.98-32.81-4.43-4.54-2.08-15.38-12.1-26.85-22.71-13.06-12.07-27.86-25.76-33.59-27.67-7.4-2.47-9.57,1.29-12.09,5.64-.95,1.64-1.93,3.33-3.23,4.7-4.99,5.24-22.07,9.66-35.43,5.04-13.09-4.53-66.95-4.86-67.49-4.87v-1.1c2.23.01,54.59.34,67.85,4.93,12.76,4.42,29.6.16,34.28-4.76,1.22-1.28,2.16-2.91,3.08-4.5,2.52-4.36,5.13-8.88,13.38-6.13,5.95,1.98,20.2,15.16,33.98,27.9,11.41,10.55,22.18,20.51,26.56,22.51,10.77,4.93,24.77,8.69,31.79,4.49,7.25-4.35,24.31-11.78,37.88-13.91,13.46-2.11,30.09-9.9,30.55-16.42l.07-.94c.64-8.57,2.57-34.66-7.62-45.82-4.97-5.44-17.22-15.93-29.07-26.08-13.83-11.84-28.13-24.09-31.47-28.82l-1.04-1.47c-5.99-8.46-10.11-14.63-8.45-17.04.67-.97,2.09-1.17,4.35-.59,1.05.27,105.99,28.4,115.52,45.41,6.2,11.07,6.63,17.49,7.12,24.92.23,3.46.47,7.03,1.31,11.41,2.69,14.04,14.14,48.6,30.62,59.86,16.97,11.6,64.99,24.79,99.13,23.77,15.37-.46,34.07-4.72,52.65-12.01,15.78-6.19,29.44-13.88,34.81-19.6,12.57-13.4,18.5-26.02,17.62-37.52-.1-1.28-.17-2.5-.25-3.68-.7-11.15-1.16-18.51-17.38-37.02-2.9-3.31-6.06-6.82-9.41-10.53-17.13-19.03-38.45-42.7-40.63-57.93-2.54-17.79-1.05-43.71-1.03-43.97l1.09.07c-.02.26-1.5,26.07,1.02,43.75,2.13,14.9,23.33,38.44,40.36,57.35,3.35,3.72,6.51,7.23,9.42,10.54,7.7,8.79,12.24,15.47,14.72,21.64,2.28,5.69,2.58,10.48,2.93,16.02.07,1.17.15,2.39.25,3.66.91,11.82-5.12,24.72-17.91,38.35-5.47,5.83-19.29,13.63-35.21,19.87-18.7,7.33-37.52,11.62-53.01,12.08-1.25.04-2.53.06-3.82.06Z"/></svg>