<?xml version="1.0" encoding="UTF-8"?><svg id="Calque_5" xmlns="http://www.w3.org/2000/svg" viewBox="0 0 1338.44 1121.39"><defs><style>.cls-1{fill:#1d1d1b;}</style></defs><path class="cls-1" d="m859.87,973.55c-1.85-.44-45.47-11.04-59.02-30.46-8.79-12.61-9.41-36.35-10.06-61.49-.37-14.27-.75-29.02-2.59-42.82-5.27-39.54-34.83-65.69-45.96-75.53-9.66-8.54-45.49-6.63-69.19-5.36-8.57.46-15.97.85-20.18.65-14.2-.67-26.67,7.94-32.59,22.45-5.36,13.12-31.4,34.03-55.71,40.31-9.75,2.52-19.93-2.46-29.44-14.39-7.12-8.93-11.44-18.74-11.48-18.84l1-.44c.04.1,4.31,9.79,11.35,18.61,11.65,14.6,21.82,15.67,28.3,14,19.51-5.04,48.71-24.34,54.97-39.66,6.11-14.95,18.99-23.82,33.66-23.13,4.15.19,11.53-.2,20.07-.65,25.31-1.35,59.98-3.2,69.97,5.64,11.21,9.92,40.99,36.26,46.32,76.21,1.85,13.86,2.23,28.64,2.6,42.94.65,24.97,1.26,48.55,9.86,60.89,6.94,9.95,22.42,17.58,34.18,22.23,12.79,5.05,24.08,7.77,24.19,7.8l-.25,1.07Z"/></svg>