<?xml version="1.0" encoding="UTF-8"?><svg id="Calque_5" xmlns="http://www.w3.org/2000/svg" viewBox="0 0 1338.44 1121.39"><defs><style>.cls-1{fill:#1d1d1b;}</style></defs><path class="cls-1" d="m392.43,630.11c-.06-.73-.98-18.06,50.62-34.4,30.71-9.73,40.62-5.32,53.17.27,8.89,3.96,18.97,8.44,38.65,9.37,1.28.06,5.48.46,5.65.48.75.08,74.4,7.69,85.38-.29,11.05-8.04,17.73-18.71,17.8-18.81l.93.58c-.07.11-6.85,10.95-18.09,19.12-11.32,8.23-83.09.82-86.14.5-.04,0-4.34-.42-5.6-.48-19.89-.94-30.07-5.47-39.05-9.46-12.34-5.49-22.08-9.83-52.39-.22-50.57,16.02-49.87,33.1-49.86,33.27l-1.09.09Z"/></svg>