<?xml version="1.0" encoding="UTF-8"?><svg id="Calque_5" xmlns="http://www.w3.org/2000/svg" viewBox="0 0 1338.44 1121.39"><defs><style>.cls-1{fill:#1d1d1b;}</style></defs><path class="cls-1" d="m860.54,973.1l-1.08-.16c.04-.28,4.07-28.33,2.56-38.45-1.45-9.74-11.52-29.67-22.45-44.42-1.08-1.45-2.16-2.89-3.25-4.32-9.38-12.39-18.24-24.09-16.85-42.19.34-4.47.51-9.07.67-13.51.58-15.92,1.12-30.96,9.17-42.41,2.32-3.29,4.59-6.26,6.78-9.13,7.4-9.66,12.74-16.64,10.07-23.69-.72-1.9-1.65-4.15-2.74-6.76-4.35-10.5-10.31-24.88-11.14-37-.09-1.35-.18-2.65-.27-3.92-.9-12.83-1.55-22.1.79-33.85.41-2.07.88-3.93,1.34-5.74,2.33-9.27,3.61-14.37-9.72-19.79-16.97-6.89-71.43-23.48-93.52-19.96-22.75,3.62-63.45,25.78-75.5,44.36-7.42,11.44-19.64,18.32-26.27,21.41-9.41,4.38-19.17,6.59-24.28,5.49-4.58-.99-8.55-4.31-13.15-8.16-5.12-4.28-11.49-9.62-20.81-13.4-18.35-7.46-90.74-28.66-103.56-28.16-12.43.48-42.92,2.67-57.64,12.72-14.08,9.61-55.05,62.95-58.74,74.56-2.93,9.21-14.5,49.97-13.3,66.44,0,.17.43,14.8,8.31,18.83.72.37,1.42.73,2.1,1.08,7.21,3.74,12.41,6.44,26.64,7.81,10.67,1.03,24.97,3.7,35.42,5.65,4.84.9,8.67,1.62,10.63,1.88l2.41.33c5.05.69,9.41,1.28,16.58,1.88,24.55,2.03,36.52,3.13,38.8,3.57,8.07,1.54,34.89,14.36,35.97,23.54.77,6.59-5.39,16.32-10.83,24.91-1.94,3.06-3.77,5.96-5.13,8.46-5.03,9.28-16.88,27.48-29.37,36.86-12.72,9.54-26.18,12.37-36.94,7.75-10.48-4.49-36.14-1.62-49.88,2.08-12.92,3.48-19.57,17.23-19.64,17.37l-.99-.47c.07-.14,6.93-14.34,20.35-17.96,13.89-3.74,39.9-6.61,50.6-2.02,10.39,4.45,23.46,1.67,35.85-7.62,12.35-9.26,24.08-27.3,29.07-36.5,1.37-2.54,3.22-5.44,5.17-8.52,5.34-8.43,11.39-17.99,10.66-24.19-.94-7.99-26.55-20.96-35.09-22.59-2.87-.55-22.18-2.19-38.68-3.55-7.2-.6-11.57-1.19-16.64-1.88l-2.41-.33c-1.99-.27-5.83-.98-10.69-1.89-10.43-1.94-24.71-4.6-35.32-5.63-14.44-1.4-20-4.28-27.04-7.93-.68-.35-1.37-.71-2.09-1.08-8.46-4.32-8.89-19.13-8.9-19.75-1.21-16.62,10.41-57.58,13.35-66.82,3.72-11.7,44.99-65.46,59.17-75.13,14.96-10.21,45.7-12.43,58.22-12.91,13.29-.5,85.12,20.56,104.01,28.24,9.47,3.85,15.92,9.24,21.1,13.57,4.67,3.91,8.36,7,12.68,7.93,9.44,2.04,37.42-7.95,49.4-26.42,12.19-18.79,53.28-41.19,76.24-44.84,22.3-3.55,77.06,13.1,94.11,20.03,14.22,5.78,12.69,11.86,10.37,21.07-.45,1.79-.92,3.65-1.32,5.69-2.32,11.6-1.67,20.81-.78,33.55.09,1.27.18,2.57.27,3.92.81,11.94,6.73,26.23,11.06,36.66,1.09,2.62,2.02,4.88,2.75,6.79,2.89,7.61-2.9,15.17-10.22,24.74-2.19,2.86-4.45,5.82-6.76,9.09-7.86,11.18-8.4,26.06-8.97,41.82-.16,4.45-.33,9.06-.67,13.56-1.36,17.68,7.38,29.22,16.63,41.44,1.09,1.43,2.18,2.87,3.26,4.33,9.61,12.98,21.01,33.84,22.66,44.91,1.53,10.28-2.4,37.61-2.56,38.77Z"/></svg>