<?xml version="1.0" encoding="UTF-8"?><svg id="Calque_5" xmlns="http://www.w3.org/2000/svg" viewBox="0 0 1338.44 1121.39"><defs><style>.cls-1{fill:#1d1d1b;}</style></defs><path class="cls-1" d="m587.06,712.08c-.92-.38-92.4-38.41-111.05-38.92-37.84-1.02-56.83,7.93-61.75,10.7-16.28,9.16-43.88,12.44-48.52,11.86-.43-.05-.77-.3-.94-.69-1.79-4.15,20.22-34.61,24.66-40.67,4.89-6.7,17.48-20.31,31.16-32.34,11.72-10.3,28.07-22.87,39.45-24.24,10.95-1.32,23.56,3.67,35.76,8.5,10.91,4.32,22.19,8.79,32.33,8.82,7.04.02,17.41.97,28.38,1.98,22.63,2.07,50.8,4.65,63.03.18,16.05-5.86,23.47-15.19,24.05-30.27l1.09.04c-.6,15.58-8.24,25.22-24.77,31.25-12.46,4.55-39.58,2.07-63.5-.12-10.95-1-21.29-1.95-28.28-1.97-10.35-.04-21.73-4.54-32.73-8.9-12.07-4.78-24.56-9.72-35.23-8.43-20.41,2.47-60.34,43.12-69.86,56.14-2.28,3.12-10.21,14.06-16.61,24.07-8.9,13.91-8.04,15.43-7.91,15.55,4.47.56,32.12-2.84,47.9-11.71,7.51-4.22,17.68-7.28,30.24-9.1,12.54-1.81,24.36-1.94,32.07-1.74,18.85.51,107.67,37.43,111.44,39l-.42,1.01Z"/></svg>