<?xml version="1.0" encoding="UTF-8"?><svg id="Calque_1" xmlns="http://www.w3.org/2000/svg" viewBox="0 0 1226 1024"><path d="m119.23,1024h1.19c2.69-4.8,5.47-9.54,8.38-14.19,17.72-28.29,39.16-53.96,63.35-76.34,47.42-43.86,105.53-75.12,167.43-88.72,78.41-17.23,158.71-5.02,237.85-2.73,48.23,1.4,98.34-.94,144.95-15.26,19.08-5.86,37.58-13.72,55.12-24.15,30.95-18.41,56.87-44.43,86.62-64.69,15.17-10.33,31.27-18.37,48.33-24.61,17.41-6.37,35.25-11.34,52.51-18.14,57.42-22.61,99.33-74.31,113.48-136.94,15.8-69.95-4.84-142.78-44.55-199.66-36.35-52.07-87.12-96.37-107-159.3C925.77,132.46,947.86,60.63,978.37,0h-1.2c-2.61,5.26-5.13,10.56-7.56,15.91-29.47,64.8-46.08,139.73-14.61,207.23,27.41,58.79,77.85,100.77,110.71,155.74,37.78,63.23,49.71,144.99,20.23,214.4-12.93,30.44-33.09,57.72-58.83,77.33-29.69,22.62-65.29,30.19-99.13,43.1-32.86,12.54-59.8,34.07-87.27,56.2-29.08,23.42-59.13,42.9-94.38,54.33-1.32.42-2.63.84-3.96,1.25-69.48,21.42-143.01,15.97-214.36,11.78-73.59-4.33-147.75-5.82-217.98,21.13-57.77,22.16-110.16,59.65-150.96,107.99-15.13,17.93-28.16,37.26-39.84,57.62Z"/><path d="m135.57,1024h1.2c18.69-26.57,39.76-51.34,63.07-73.53,47.23-44.94,104.51-79.48,167.5-92.25,75.97-15.39,152.91,2.6,229.14,5.24,48.73,1.69,99.28-1.73,145.9-17.8,14.8-5.1,29.19-11.47,43.01-19.36,30.58-17.45,54.19-43.78,81.94-65.3,28.76-22.3,62.18-31.51,95.89-42.06,31.08-9.73,60.22-22.63,83.7-46.82,21.91-22.59,37.69-51.04,49.51-80.61,13.18-32.99,24-69.15,21.88-105.33-1.67-28.62-11.26-55.8-24.46-80.67-28.89-54.38-72.29-98.42-101.33-152.73-28.89-53.98-36.82-117.43-24.94-177.9C972.71,48.74,981.48,23.38,993.58,0h-1.39c-17.29,33.69-27.64,71.36-30.4,109.49-2.1,29,.21,58.4,7.32,86.53,7.38,29.18,20.37,55.88,36.21,80.94,32.54,51.5,76.41,96.58,99.26,154.34,12.54,31.72,15.86,65.24,9.29,98.98-6.78,34.85-19.84,69.74-37.4,100.14-17,29.42-39.98,54.88-69.6,70.24-31.25,16.22-66.16,21.86-98.46,35.17-15.86,6.54-30.48,15.25-44.07,26.05-13.47,10.7-25.9,22.73-38.9,34.03-24.84,21.61-52.57,37.84-83.07,48.45-2.23.78-4.48,1.53-6.74,2.25-66.21,20.98-136.28,17.46-204.28,10.88-39.23-3.8-78.64-8.06-118.1-6.06-33.26,1.69-65.91,8.46-97.04,20.94-57.94,23.24-108.66,63.7-150,111.86-10.92,12.73-21.05,26.04-30.65,39.78Z"/><path d="m167.39,1024h1.56c10.33-14.34,20.92-28.46,32.23-41.94,42.11-50.2,93.9-94.71,156.08-113.34,69.15-20.7,141.48-6.01,211.4,1.26,35.46,3.69,71.35,5.69,106.79.67,22.86-3.24,45.36-9.26,66.93-17.85,9.56-3.8,18.93-8.11,28.07-12.9,30.38-15.94,56.46-38.25,83.6-59.37,14.01-10.9,28.43-21.34,43.95-29.74,15.12-8.18,31.13-14.35,47.21-20.1,30.7-10.98,62.49-20.59,89.65-39.85,23.57-16.71,42.48-39.7,56.84-65.34,14.66-26.18,24.82-54.98,31.83-84.38,8.13-34.09,13.78-70.5,9.34-105.61-7.44-58.7-48.06-101.62-83.36-144.31-17.51-21.18-34.61-43.26-46.35-68.63-15.45-33.37-17.31-69.74-13.88-106.16C993.02,76.86,1000.91,37.78,1012.58,0h-1.2c-5.14,16.73-9.54,33.71-13.17,50.88-7.59,35.85-13.47,73.83-11.27,110.65,1.77,29.82,11.14,57.28,26.36,82.38,14.31,23.58,32.26,44.42,49.8,65.34,17.77,21.17,35.63,42.66,49.03,67.26,16.78,30.82,22.87,64.5,20.53,99.83-2.28,34.42-9.73,69.24-21.04,101.62-10.4,29.76-24.91,58.33-45.09,82.08-22.13,26.05-50.01,42.8-80.91,54.86-30.08,11.74-61.53,20.07-90.05,35.89-30.39,16.86-56.23,41.02-84.16,61.76-21.47,15.94-44.57,29.11-69.03,38.96-7.73,3.11-15.61,5.9-23.6,8.33-69.73,21.21-140.76,9.75-211.49,1.85-35.24-3.94-70.9-6.76-106.28-2.87-30.92,3.4-60.82,12.47-88.59,27.17-55.58,29.41-100.32,77.27-138.04,128.44-2.34,3.18-4.67,6.38-6.99,9.59Z"/><path d="m186.02,1024h1.46c33.59-46.07,71.5-91.15,123.11-114.92,59.22-27.27,125.5-23.94,188.47-18.4,62.29,5.47,126.13,14.38,188.09,1.22,19.26-4.09,37.64-10.64,55.22-19.22,10.81-5.27,21.31-11.32,31.54-18.03,27.65-18.16,52.95-39.9,79.2-60.14,27.27-21.03,55.58-39.08,86.91-52.63,30.03-13,61.21-23.48,89.75-39.99,27.04-15.64,49.67-37.2,66.46-64.48,16.97-27.58,27.82-59,34.63-90.94,7.45-34.96,11.16-71.66,7.74-107.42-3.39-35.51-15.41-67.54-34.11-97.16-18.64-29.51-41.3-56.09-58.38-86.7-16.49-29.56-27.65-62.27-33.41-95.98C1003.62,106.05,1008.01,50.53,1025.79,0h-1.29c-.26.74-.51,1.46-.76,2.2-21.08,61.65-22.26,130.59-3.86,193.14,9.42,31.98,24.21,61.22,42.74,88.36,19.62,28.73,41.99,55.81,56.94,87.74,16.35,34.9,20.74,74.02,18.58,112.5-1.96,34.97-8.26,70.22-19.7,103.16-11.06,31.83-27.62,62-51.3,85.31-24.98,24.6-56.59,39.19-88.09,52.12-30.07,12.34-60.3,23.93-88.04,41.54-27.96,17.76-53.4,39.39-79.58,59.82-21.84,17.03-44.45,33.42-69.06,45.66-5.43,2.7-10.95,5.2-16.58,7.46-29.54,11.83-61.07,16.86-92.54,18.09-63.73,2.49-126.93-9.42-190.52-11.19-59.66-1.66-119.59,7.4-169.57,43.98-34.5,25.25-61.73,59.13-87.13,94.13Z"/><path d="m199.98,1024h1.52c9.25-10.86,18.66-21.57,28.41-31.95,44.37-47.29,96.68-87.22,160.91-95.82,64.64-8.66,128.96,9.5,193,15.86,31.95,3.17,64.46,3.52,95.97-3.67,21.78-4.97,42.64-13.4,62.57-23.81,5.66-2.96,11.26-6.09,16.78-9.34,52.41-30.85,98.37-72.36,151.17-102.54,55.47-31.72,120.91-43.13,169.9-87.05,43.5-39,71.59-95.68,80.26-154.81,9.68-65.98-4.32-134.23-33.52-193.01-16-32.19-37.55-60.45-57.08-90.26-18.6-28.41-33.63-58.55-41.87-92.08C1015.46,104.44,1017.53,49.73,1033.88,0h-1.3c-.28.85-.56,1.7-.82,2.54-18.97,59.98-17.25,127.15,5.34,185.78,12.25,31.81,31.31,59.54,50.32,87.18,20.03,29.11,38.43,58.82,51.49,92.16,24.86,63.5,31.61,135.58,11.89,201.63-18.04,60.43-56.68,113.2-110.2,143.1-29.98,16.74-62.6,27.15-93.86,40.79-28.16,12.28-54.41,28.23-79.79,45.88-41.03,28.51-80.4,61.18-124.57,84.27-9.1,4.75-18.41,9.1-27.97,12.93-29.6,11.84-60.69,16.98-92.32,16.79-33.16-.21-66.06-5.37-98.82-10.36-62.2-9.49-126.91-18.5-186.83,7.21-54.7,23.46-97.74,68.54-136.46,114.1Z"/><path d="m211.46,1024h1.49c10.02-10.94,20.26-21.67,30.85-32.01,24.18-23.62,50.56-45.25,80.34-60.53,30.13-15.46,62.84-22.7,96.26-23.66,67.25-1.94,132.96,17.64,200.02,19.39,31.59.82,63.22-2.73,93.13-13.82,9.87-3.66,19.46-8,28.82-12.85,18.85-9.74,36.77-21.5,54.17-33.84,26.96-19.12,52.93-39.78,80.62-57.78,27.9-18.13,57.74-32.28,87.65-46.26,30.55-14.28,61.3-28.64,89.45-47.79,24.12-16.41,45.56-36.5,63.25-60.34,34.16-46.02,54.07-103.5,56.78-161.75,1.34-28.76-1.58-57.78-9.07-85.5-8.55-31.6-22.91-61.1-38.74-89.28-32.69-58.22-73.33-113.53-88.77-180.38C1027.28,92.42,1028.13,44.75,1039.49,0h-1.26c-14.2,56.5-11.46,117.31,8.59,171.99,22.9,62.44,63.86,114.82,93.14,173.77,14.17,28.53,25.3,58.63,30.24,90.49,4.76,30.7,4.25,62.26-.98,92.86-10.19,59.51-38.27,115.97-80.88,156.89-49.17,47.22-114.12,68.64-172.73,99.21-58.06,30.28-106.36,76.5-163.29,108.62-3.29,1.86-6.6,3.64-9.93,5.34-26.98,13.86-55.49,22.93-85.63,25.74-32.53,3.05-65.26-.06-97.57-4.38-64.09-8.58-130.6-23.44-194.58-6.12-61.51,16.66-110.23,62.54-153.13,109.59Z"/><path d="m104.13,1024h1.58c51.1-80.19,120.36-147.62,210.43-175.37,119.16-36.72,245.11-8.44,366.48-26.78,20.19-3.05,40.24-7.45,59.76-13.65,9.46-3.01,18.79-6.44,27.96-10.35,29.55-12.61,56.05-30.86,82.66-49.09,14.17-9.7,28.45-19.3,43.39-27.66,15.22-8.52,31.18-15.39,47.15-22.18,28.54-12.13,57.22-24.62,80.84-45.88,43.29-38.94,66.98-98.62,64.7-158.22-1.2-31.36-9.1-62.36-22.58-90.34-13.84-28.73-34.06-52.56-54.97-75.77-21.28-23.62-43.3-47.27-57.98-76.23-15.2-29.99-21.66-64.1-21.75-97.9C931.64,100.43,947.68,49.06,968.36,0h-1.27c-25.39,60.34-43.83,126.26-33.51,192.69,4.88,31.49,16.63,60.65,34.72,86.26,17.91,25.35,39.98,46.94,59.9,70.47,21.31,25.16,38.71,52.9,49.01,84.98,10.43,32.51,13.72,67.7,8.32,101.62-4.84,30.42-16.62,59.58-33.99,84.44-18.31,26.21-42.44,45.91-70.17,60.07-29.89,15.26-61.8,25.58-90.91,42.6-29.02,16.95-55.61,38.04-84.5,55.22-20.32,12.1-41.64,21.32-63.58,28.32-37.63,12-77.14,17.45-116.7,19.57-119.29,6.4-246.8-15.15-358.51,40.65-68.19,34.06-121.58,91.34-163.03,157.11Z"/><path d="m93.9,1024h1.29c25.94-39.8,56.19-76.6,90.16-108.89,23.68-22.5,49.74-42.61,78.86-56.62,31.6-15.2,65.95-22.96,100.29-27.38,125.33-16.13,256.21,5.43,377.87-37.33.94-.34,1.9-.67,2.84-1.02,29.75-10.72,57.28-25.88,84.02-43.18,28.17-18.22,55.82-36.9,85.97-51.41,28.32-13.62,57.74-25.4,83.77-43.67,23.57-16.54,42.85-38.72,56.39-64.9,28.14-54.38,29.24-119.38,7.03-176.22-11.27-28.84-28.01-54.38-48.46-76.84-22.45-24.67-46.23-47.22-62.82-76.99-29.86-53.57-38.59-118.11-31.57-179.19C922.74,52.66,929.88,26.14,938.28,0h-1.51c-3.36,10.42-6.52,20.91-9.26,31.54-7.38,28.61-11.33,58.14-11.39,87.79-.14,58.51,15.07,118.08,49.41,164.85,20.48,27.88,47.48,49.54,67.65,77.7,18.48,25.81,31.96,55.66,38.8,87.17,13.67,62.94-1.72,131.73-44.49,178.9-21.52,23.73-49.11,39.12-77.21,52.5-29.04,13.82-57.87,27.01-85.22,44.38-28.54,18.12-56.15,38.01-86.53,52.69-11.78,5.7-23.86,10.66-36.15,14.97-18.2,6.4-36.85,11.38-55.69,15.22-63.09,12.86-127.71,13.4-191.74,14.74-64.32,1.35-131.01,1.5-193.32,20.34-61.35,18.56-110.55,60.61-153.2,109.21-19.82,22.58-38.04,46.66-54.53,71.98Z"/><path d="m82.92,1024h1.37c26.31-39.92,57.18-76.52,91.8-108.7,46.36-43.09,100.9-79.49,162.22-92.77,34.82-7.54,70.55-6.85,105.89-5.94,35.55.92,71.05,1,106.58-.85,34.8-1.82,69.54-5.14,104.08-10.03,29.63-4.2,59.39-9.77,87.51-20.69,2.53-.98,5.05-2,7.54-3.07,29.63-12.7,54.97-33.02,81.63-51.18,24.5-16.68,50.86-29.46,77.37-42.14,49-23.43,99.57-49.54,126.73-101.1,24.75-46.98,27.39-104.32,14.42-155.54-6.84-26.98-18.28-51.96-33.03-75.11-15.48-24.31-33.6-46.58-50.78-69.55-17.86-23.87-35.04-48.86-46.21-77.06-12.04-30.4-15.71-63.41-12.37-96.06C911.76,74.26,924.79,36.3,941.45,0h-1.01c-21.88,47.8-38.41,99.59-34.61,152.78,2.13,29.86,11.34,58.14,25.51,84.02,13.77,25.14,31.25,47.76,48.49,70.32,17.93,23.47,36.08,47.17,49.77,73.74,13.08,25.4,21.59,53.43,25.13,82.06,6.92,55.78-5.54,115.37-43.01,157.04-39.63,44.06-96.8,62.3-146.85,89.22-27.95,15.03-52.75,34.98-79.41,52.22-13.78,8.92-28.18,16.16-43.07,22.04-15.95,6.3-32.47,11.03-49.44,14.57-34.35,7.17-69.46,11.02-104.33,13.96-35.55,2.99-71.23,4.38-106.89,4.15-35.12-.22-70.33-2.75-105.42-.13-31.36,2.35-61.79,9.86-90.76,22.76-55.24,24.61-103.5,65.25-144.71,110.54-21.17,23.25-40.53,48.26-57.9,74.71Z"/><path d="m411.68,920.65c72.01-6.84,142.29,18.74,214.15,17.35,33.16-.64,66.13-7.53,97.01-20.23,6.68-2.74,13.18-5.78,19.53-9.07,22.62-11.7,43.35-26.59,63.39-43.02,27.13-22.23,53.8-43.8,84.76-59.91,29.68-15.43,60.86-27.28,91.39-40.63,29.36-12.84,58.3-27.22,84.05-47.02,22.73-17.46,42.89-38.54,59.8-62.18,35.8-50.05,56.14-111.09,57.13-173.74.53-33.06-4.1-66.21-13.66-97.7-10.18-33.54-26.42-63.66-45.57-92.38-18.71-28.06-38.53-55.23-53.1-86.03-13.36-28.23-23.08-58.45-28.4-89.49C1035.54,77.85,1036.14,37.56,1046.07,0h-1.4c-12.79,48.62-9.61,101.29,3.68,149.52,8.02,29.08,19.75,57.06,34.76,82.9,17.87,30.77,40.08,58.48,57.8,89.35,34.48,60.1,47.91,132.7,37.41,202.02-9.57,63.18-39.47,122.24-83.07,166.76-22.38,22.85-48.19,41.05-76.08,55.62-29.64,15.5-60.82,27.37-91.36,40.7-30.29,13.22-59.71,28.18-86.37,48.42-27.62,20.98-52.92,45.31-82.66,63.12-5.37,3.22-10.84,6.24-16.4,9.07-24.97,12.7-51.74,21.48-79.16,25.94-35.48,5.78-71.25,3.14-106.66-1.73-35.45-4.88-70.76-11.71-106.55-13.14-32.85-1.32-65.31,2.93-96.65,13.46-55.14,18.54-101.51,51.54-142.26,91.97h2.07c55.31-54.61,120.4-95.93,198.51-103.35Z"/><path d="m71.03,1024h1.38c22.93-39.14,48.62-76.61,79.28-109.42,41.25-44.12,91.03-76.7,148.06-92.76,115.85-32.64,237.43-5.41,354.86-24.53,28.8-4.69,57.24-12.3,84.15-24.17,1.21-.54,2.41-1.08,3.62-1.63,28.41-13.07,54.11-31.3,80.4-48.44,13.53-8.82,27.29-17.26,41.66-24.5,14.7-7.41,29.84-13.78,44.86-20.42,26.76-11.84,53.59-24.82,75.42-45.38,41.24-38.81,61.58-98.33,59.43-155.8-2.41-64.54-30.72-122.68-69.47-171.44-19.87-25-41.43-49.1-56.01-78.13-14.96-29.77-21.11-63.38-21.4-96.84-.3-33.5,4.94-66.81,12.66-99.22C912.35,21.09,915.03,10.59,917.16,0h-1.17c-2.37,11.7-5.4,23.26-8.1,34.88-3.64,15.7-6.63,31.58-8.71,47.59-4.09,31.6-4.66,64.05,1.54,95.39,6.2,31.37,19.87,59.14,38.32,84.45,18.25,25.04,39.42,47.62,56.56,73.58,35.37,53.58,55.48,120.69,44.57,185.91-4.93,29.48-15.85,57.98-32.53,82.3-17.98,26.22-42.24,45.01-69.63,59.18-27.68,14.33-57.1,24.62-84.47,39.66-29.15,16.03-55.79,36.54-84.54,53.34-8.7,5.08-17.58,9.64-26.61,13.72-46.04,20.85-95.96,29.38-146.19,32.26-115.26,6.6-238.87-14.86-347.32,37.42-78.17,37.68-133.36,108.22-177.83,184.33Z"/><path d="m58.91,1024h1.07c27.65-52.43,60.08-102.57,102.71-142.78,22.45-21.18,47.48-39.5,74.79-53.07,30.67-15.26,63.4-23.2,97.21-25.38,35.36-2.3,70.78.51,106.14,1.19,36.76.71,73.55-.23,110.23-2.81,34.39-2.42,68.89-5.88,102.91-11.73,30.84-5.29,61.11-13.78,88.42-29.96,1.44-.85,2.86-1.71,4.28-2.61,27.82-17.51,52.51-39.67,82.04-54.24,28.54-14.08,58.95-23.44,87.44-37.62,26.12-13,49.26-30.69,67.65-54.26,16.72-21.42,29.2-46.44,36.52-73.05,7.43-26.98,9.36-55.42,5.28-83.21-3.75-25.51-12.11-50-22.8-73.17-22.69-49.21-54.99-92.53-81.7-139.26-13.12-22.95-25.03-46.88-33.11-72.34-9.32-29.38-11.97-59.3-9.58-90.13C880.45,53.16,884.88,26.54,883.94,0h-1.23c.46,12.9-.28,25.93-1.46,38.71-3.05,33.1-7.7,65.95-2.19,99.07,8.56,51.42,35.28,96.87,62.13,139.82,28.11,44.97,58.93,89.73,75.04,141.37,17.43,55.86,11.85,115.91-16.98,166.58-14.26,25.06-33.7,46.96-57.02,62.94-26.9,18.43-57.68,28.91-87.36,41.15-14.39,5.93-28.66,12.3-42.19,20.18-13.95,8.13-26.95,17.9-40,27.5-9.88,7.26-19.84,14.45-30.3,20.77-3.36,2.04-6.78,3.98-10.26,5.81-15.51,8.13-32.03,13.88-48.84,18.17-33.86,8.62-68.99,12.3-103.63,15.54-35.89,3.36-71.91,5.15-107.94,5.36-67.23.38-137.55-11.01-202.85,10.86-97.77,32.75-161.37,118.78-209.94,210.18Z"/><path d="m37.79,1024h1.32c28.85-46.98,62.44-90.76,100.05-130.32,45.1-47.44,97.11-91.21,162.09-101.23,34.71-5.35,69.94-2.65,104.81-1.1,35.86,1.59,71.76,2.18,107.65,1.77,34.25-.39,68.7-1.06,102.81-4.5,30.87-3.1,61.81-9.06,90.43-22,12.45-5.63,24.05-12.76,35.41-20.35,16.59-11.1,32.65-23.17,50.02-32.94,23.92-13.46,49.77-22.54,75.43-31.51,47.23-16.5,98.56-33.57,130.31-76.6,33.87-45.9,35.82-109.1,21.93-163.26-16.46-64.15-55.32-118.71-89.78-173.22-18.06-28.56-35.97-57.79-47.58-90-5.95-16.51-10.17-33.78-11.52-51.4-1.35-17.66.18-35.38,2.09-52.92C875.99,49.73,879.54,24.7,877.07,0h-.97c4.29,44.81-11.04,93.1-4.92,137.69,4.49,32.74,18.09,63.22,33.9,91.48,15.99,28.58,34.31,55.66,51.72,83.29,33.8,53.67,65.58,111.39,69.78,177.05,1.91,29.9-1.77,60.7-13.82,88.08-11.46,26.06-30.36,47.07-53.27,62.44-44.49,29.83-97.84,39.65-145.84,61.31-25.57,11.54-47.91,28.18-71.26,43.66-2.02,1.34-4.06,2.68-6.1,4-28.42,18.38-59.42,29.24-92.27,34.79-32.86,5.54-66.31,6.62-99.52,7.53-35.88.99-71.79.97-107.67-.05-65.14-1.86-132.64-11.74-193.71,18.27-27.27,13.41-51.76,32.34-74.31,53.14-23.05,21.26-44.56,44.46-64.73,68.72-24.21,29.13-46.37,60.1-66.28,92.6Z"/><path d="m32.39,1024h1.52c24.83-33.91,46.46-70.52,70.84-104.74,17.58-24.69,36.73-48.37,59.23-68.29,25-22.14,53.98-38.52,84.89-49.54,62.61-22.33,130.02-23.98,195.49-22.51,71.19,1.59,143.68,6.3,213.78-9.95,29.56-6.85,57.38-18.07,84.23-32.28,4-2.11,7.98-4.3,11.94-6.54,30.93-17.5,60.67-37.39,92.75-52.59,31.38-14.86,65.74-23.01,95.34-41.89,21.69-13.83,39.25-33.71,51.41-57.06,24.86-47.73,27.81-106.75,13.65-158.51-15.93-58.22-55.49-104.95-88.6-153.06-17.1-24.85-33.39-50.81-44.08-79.5-5.21-13.97-9-28.53-10.9-43.41-2.5-19.56-1.35-39.29.53-58.84C867.15,56.95,871.27,28.2,867.24,0h-.92c7,49.59-11.05,103.99-2.14,153.54,10.59,58.82,48.42,106.66,81.48,153.39,17.24,24.37,34.13,49.27,47,76.55,12.18,25.83,19.45,53.94,21.47,82.69,3.84,54.77-11.23,113.66-50.76,151.58-24.57,23.57-56.27,34.44-86.94,46.18-31.9,12.21-61.43,28.8-90.86,46.45-14.26,8.55-28.57,17.1-43.19,24.94-16.69,8.96-33.8,17.01-51.72,23.14-33.67,11.54-68.9,17.07-104.16,19.44-68.99,4.65-138.05-2.64-207.06.06-62.23,2.45-126.39,12.69-180.99,46.02-50.11,30.59-85.34,79.45-117.82,128.65-15.75,23.86-31.26,48.28-48.23,71.38Z"/><path d="m20.7,1024h1.91c23.47-28.48,42.64-61.54,63.38-91.55,37.53-54.3,85.45-98.51,143.2-127.69,28.98-14.64,59.77-25.32,91.39-31.46,34.64-6.74,70.01-8.1,105.17-7.58,69.18,1.02,138.87,9.88,207.85.55,32.94-4.46,65.3-13.43,95.19-28.85,4.59-2.37,9.11-4.86,13.59-7.44,26.8-15.41,52-33.89,79.85-47.24,31.2-14.96,64.91-23.32,95.69-39.34,27.26-14.19,50.19-35.21,66.45-62.33,15.58-26,24.68-56.4,25.32-87.17.57-27.26-5.69-54.21-15.76-79.2-21.23-52.65-57.24-96.71-86.94-144.06-14.95-23.83-28.71-48.8-37.81-75.8-4.64-13.77-8-28.01-9.71-42.51-2.41-20.38-1.46-41-.24-61.44C861.02,60.51,863.39,29.68,856.62,0h-.92c11.63,51.58-4.76,109.79,3.98,161.99,9.16,54.7,40.39,101.46,70.36,145.82,30.43,45.05,63.72,91.62,74.85,146.79,12.73,63.14-10.63,130.9-59.82,170.02-27.11,21.56-60.13,31.9-91.7,43.82-15.65,5.9-31.03,12.41-45.78,20.5-15.38,8.45-30.13,18.1-45.04,27.44-6.68,4.18-13.39,8.19-20.17,11.99-23.79,13.31-48.42,24.02-75.11,30.44-33.15,7.97-67.27,10.29-101.2,10.36-68.77.16-137.61-8.83-206.33-2.56-62.2,5.67-122.01,26.69-174.28,62.75-25.5,17.59-48.97,38.46-69.56,62.12-19.38,22.26-35.67,47.14-52,71.89-13.45,20.38-27.39,41.54-43.2,60.62Z"/><path d="m410.25,934.02c69.42-5.39,137.06,18.69,206.31,17.88,31.73-.38,62.51-7.14,91.83-19.84,11.63-5.04,22.93-10.82,33.99-17.12,15.63-8.9,30.77-18.81,45.62-29.04,26.21-18.05,51.69-37.25,78.31-54.64,29.62-19.35,60.67-36.3,92.76-50.63,30.7-13.7,63.08-23.41,92.96-39.09,27.71-14.54,50.61-35.58,69.51-61.25,37.53-50.99,62.25-113.91,69.68-177.9,3.7-31.85,2.97-64.32-3.02-95.81-6.36-33.38-19.15-64.64-34.95-94.22-33.09-61.93-78.56-117.58-99.23-186.2C1041.89,85.9,1040.24,39.02,1055.91,0h-1.26c-20.08,49.69-11.43,107.14,8.83,155.76,27.14,65.12,72.66,119.27,101.72,183.31,28.83,63.56,33.8,134.31,18.09,202.49-7.57,32.84-19.56,64.54-35.24,94.03-15.54,29.25-34.51,57.34-58.93,79.14-26.18,23.36-58.2,35.97-90.02,48.22-31.8,12.26-62.88,26.11-92.83,42.78-56.83,31.64-106.64,74.94-162.99,107.32-.3.17-.59.34-.88.5-27.19,15.54-56.15,28.06-86.78,33.59-34.67,6.26-70.05,3.28-104.71-1.51-34.37-4.76-68.6-11.39-103.29-13.16-31.82-1.62-63.32,1.78-93.83,11.58-49.99,16.05-92.48,44.54-129.89,79.94h2.17c51.66-48.7,112.21-84.39,184.21-89.98Z"/><path d="m237.03,1024h1.61c22.44-21.29,48.37-38.62,75.84-51.86,49.8-24.01,104.84-35.09,159.53-33.56,69.53,1.94,139.91,20.03,209.07,4.37,20.68-4.68,40.33-12.2,59.3-21.43,35.27-17.16,68.17-40.22,100.86-61.98,25.67-17.07,51.7-33.72,79.41-46.9,31.04-14.75,63.62-25.52,94.89-39.7,53.57-24.29,99.91-62.23,133.62-112.5,35.1-52.32,54.13-115.1,54.57-179.1.24-33.89-4.64-67.86-14.62-100.09-9.81-31.69-24.91-61.1-41.51-89.37-32.03-54.55-71.15-106.98-86.33-170.21C1053.74,81.98,1052.94,37.19,1069.07,0h-1.46c-20.19,46.72-13.78,103.22,2.89,149.99,21.93,61.54,63.41,112.77,93.4,169.84,16.05,30.53,28.39,62.8,34.89,97.07,6.65,35.07,7.6,71.37,2.84,106.78-8.62,64.1-36.52,124.06-78.65,171.2-20.08,22.46-43.2,41.94-68.56,57.44-29.4,17.98-61.6,29.83-93.27,42.5-29.66,11.86-58.15,25.5-85.54,42.4-26.36,16.26-51.72,34.22-77.78,51-17.96,11.56-36.33,22.62-55.44,31.96-8.67,4.24-17.5,8.12-26.51,11.54-32.13,12.18-65.7,16.71-99.76,16.25-65.93-.89-131.21-16.49-197.21-7.91-51.74,6.72-102.67,24.9-146.39,55.01-12.56,8.65-24.45,18.31-35.47,28.92Z"/><path d="m254.27,1024h1.65c26.33-25.82,57.94-45.68,92.34-57.11,60.71-20.18,125.49-15.12,188.02-10.63,60.99,4.38,124.23,9.34,183.53-9.95,7.74-2.52,15.25-5.5,22.57-8.84,51.23-23.4,93.28-64.74,142.35-92.76,55.53-31.7,116.11-52.41,170.98-85.46,48.53-29.22,88.78-69.14,116.25-120.62,25.9-48.54,39.91-104.1,40.28-159.75.19-27.49-2.98-55.02-9.73-81.58-7.69-30.26-20.45-58.62-35.27-85.7-31.29-57.15-72.75-110.18-90.51-174.4C1064.42,92.73,1062.59,41.06,1083.57,0h-1.43c-.62,1.2-1.21,2.42-1.78,3.65-23.51,50.39-15.04,112.36,4.86,162.41,24.75,62.3,67.45,114.42,95.65,174.84,25,53.57,34.63,112.9,28.28,172.19-6.13,57.22-26.5,112.9-59.26,159.12-16.83,23.75-36.94,44.72-59.67,62.22-25.48,19.61-53.55,35.09-82.12,49.06-28.84,14.09-58.31,26.7-87.12,40.83-29.18,14.3-57.02,30.61-83.52,49.85-26.95,19.56-53.16,40.66-82.59,56.08-4.11,2.16-8.27,4.17-12.49,6.04-25.41,11.34-52.53,17.75-80.04,20.61-63.08,6.54-126.32-3.58-189.37-5.52-59.85-1.83-120.59,4.59-173.24,36.86-16.42,10.06-31.68,22.1-45.46,35.78Z"/><path d="m0,1024h1.74c18.25-24.3,34.22-50.78,50.68-76.01,16.56-25.38,33.91-50.2,54.56-72.1,21.8-23.13,46.54-43.16,73.28-59.58,26.75-16.41,55.5-29.2,85.37-37.83,33.99-9.83,69.05-13.49,104.24-13.8,37.33-.33,74.58,2.66,111.86,3.97,34.8,1.22,69.73.84,104.37-3.12,33.32-3.81,66.41-10.92,97.91-23.1,20.33-7.86,39.49-18.18,58.35-29.14,10.78-6.26,21.45-12.74,32.2-19.07,28.09-16.57,57.02-29.54,87.18-41.24,25.77-9.99,51.97-20.08,75.11-35.91,22.52-15.41,40.75-36.54,50.53-63.09,10.6-28.76,11.17-60.82,5.71-90.86-12.44-68.41-56.62-123.46-92.16-180.02-18.76-29.85-36.06-61.34-46.02-95.73-5.19-17.94-8.05-36.39-8.52-55.13-.46-19.05,1.09-38.06,2.18-57.06C850.03,49.86,850.44,24.36,844.36,0h-.84c11.36,47-1.93,101.39,2.76,148.98,6.74,68.54,47.6,125.54,83.55,180.51,36.03,55.1,71.19,116.78,64.8,186.39-2.95,32.14-15.77,62.02-38.47,84.05-20.92,20.31-47.41,32.86-73.67,43.58-26.18,10.69-52.96,19.82-78.24,32.8-21.15,10.86-41.31,23.66-61.86,35.7-9.36,5.49-18.8,10.82-28.45,15.74-62.39,31.78-132.23,40.45-200.84,40.3-71.25-.15-143.2-11.29-214.04,1.38-58.36,10.44-113.99,36.79-160.49,75.25-23.01,19.05-43.51,41.06-61.47,65.36-16.62,22.5-31.42,46.39-46.68,69.91-9.64,14.86-19.63,29.82-30.41,44.04Z"/><path d="m273.39,1024h1.2c8.07-7.86,16.65-15.14,25.82-21.62,24.75-17.52,53.05-28.45,82.3-34.13,59.08-11.48,119.85-3.7,179.25.33,57.8,3.9,118.19,5.72,173.18-16.47,2.44-.98,4.85-2.02,7.24-3.11,27.4-12.4,51.53-30.92,75.2-49.89,27.84-22.3,55.63-43.33,87.61-58.7,31.16-14.98,63.78-26.24,95.28-40.38,28.38-12.73,56.1-27.26,82.17-44.65,49.7-33.14,93.43-77.69,116.28-135.62,13.7-34.74,19.94-72.13,23.81-109.33,3.7-35.58,5.35-72-1.03-107.36-6.21-34.43-21.42-63.5-41.8-90.89-20.18-27.12-40.65-53.1-55.53-84.01C1090.77,158.38,1081.06,76.67,1095.06,0h-1.25c-15.73,86.8-1.16,180.02,43.65,254.93,17.79,29.74,41.75,54.7,59.53,84.41,18.95,31.66,26.59,68.03,27.68,105.1,1.11,37.81-2.86,76.5-9.77,113.58-6.72,36.1-18.24,71.06-37.54,101.94-33.86,54.18-86.07,92.46-140.48,121.08-60.39,31.78-127.85,48.31-183.87,88.98-27.88,20.24-53.43,43.99-82.5,62.42-9.09,5.76-18.48,10.78-28.14,15.1-18.6,8.33-38.16,14.05-58.31,17.45-59.82,10.09-120.81,2.02-180.79-1.82-56.96-3.65-116.76-4.69-170.28,19.28-22.67,10.15-42.25,24.53-59.61,41.55Z"/></svg>